<svg xmlns="http://www.w3.org/2000/svg" width="67" height="41" fill="none" viewBox="0 0 67 41">
  <path fill="#FDF6ED" d="M60.875.61H6.045a2.015 2.015 0 0 0-2.014 2.014V20.23c0 1.112.902 2.014 2.014 2.014h54.83a2.014 2.014 0 0 0 2.014-2.014V2.624A2.014 2.014 0 0 0 60.875.609Z"/>
  <mask id="a" width="59" height="23" x="4" y="0" maskUnits="userSpaceOnUse" style="mask-type:luminance">
    <path fill="#fff" d="M60.875.61H6.045a2.015 2.015 0 0 0-2.014 2.014V20.23c0 1.112.902 2.014 2.014 2.014h54.83a2.014 2.014 0 0 0 2.014-2.014V2.624A2.014 2.014 0 0 0 60.875.609Z"/>
  </mask>
  <g mask="url(#a)">
    <path fill="#333" d="M66.21 14.42H0v9.366h66.21V14.42Z" opacity=".1"/>
  </g>
  <path stroke="#333" stroke-miterlimit="10" stroke-width="1.219" d="M60.875.61H6.045a2.015 2.015 0 0 0-2.014 2.014V20.23c0 1.112.902 2.014 2.014 2.014h54.83a2.014 2.014 0 0 0 2.014-2.014V2.624A2.014 2.014 0 0 0 60.875.609Z"/>
  <path stroke="#333" stroke-linecap="round" stroke-linejoin="round" stroke-width="1.181" d="M7.053 14.42h52.813"/>
  <path stroke="#333" stroke-linecap="round" stroke-linejoin="round" stroke-width=".815" d="M7.053 17.384h46.293M7.053 19.696h46.293"/>
  <path fill="#ABA8A8" d="M59.864 17.19h-4.68a.298.298 0 0 0-.297.298v2.206c0 .165.133.298.297.298h4.68a.298.298 0 0 0 .298-.298v-2.206a.298.298 0 0 0-.297-.297Z"/>
  <path fill="#333" d="M59.866 17.488v2.208h-4.682v-2.208h4.682Zm0-.593h-4.682a.594.594 0 0 0-.593.593v2.208c0 .327.266.594.593.594h4.682a.594.594 0 0 0 .594-.594v-2.208a.594.594 0 0 0-.594-.593Z"/>
  <path stroke="#66A9EB" stroke-linecap="round" stroke-linejoin="round" stroke-width="1.219" d="M10.564 25.893a18.029 18.029 0 0 1-2.318 7.612C6 37.435 2.852 39.465 1.38 40.291m18.321-14.398c-.071 1.63-.332 4.529-1.39 7.612-1.347 3.93-3.236 5.96-4.12 6.786m14.648-14.398c-.024 1.63-.112 4.529-.463 7.612-.45 3.93-1.08 5.96-1.374 6.786m10.975-14.398c.024 1.63.111 4.529.463 7.612.449 3.93 1.08 5.96 1.373 6.786m7.303-14.398c.071 1.63.333 4.529 1.39 7.612 1.347 3.93 3.236 5.96 4.12 6.786m3.627-14.398c.12 1.63.554 4.529 2.318 7.612 2.246 3.93 5.394 5.96 6.867 6.786"/>
</svg>
