<svg xmlns="http://www.w3.org/2000/svg" width="71" height="74" fill="none" viewBox="0 0 71 74">
  <path fill="#F3D2B9" d="M47.375 63.105c.283 2.543.707 4.86 1.185 6.923l3.413.051a37.588 37.588 0 0 1 .985-6.067l2.624.043a37.676 37.676 0 0 1 .975 6.022l3.413-.052a59.7 59.7 0 0 0 1.185-6.922H47.37l.004.002Z"/>
  <path fill="#7D5045" d="M44.331 44.333c-.29-.847-3.544-10.628-.53-16.47.652-1.26 1.812-3.508 4.28-4.411a6.465 6.465 0 0 1 2.606-.367l.97-.167a7.616 7.616 0 0 1 2.272-1.002c4.07-1.032 8.883 1.662 10.963 5.381 1.119 2.004 1.195 3.78 1.271 7.204a39.515 39.515 0 0 1-1.26 10.816l-20.572-.982v-.002Z"/>
  <path fill="#A8D471" d="M64.35 56.5c.5-2.13.7-3.933.785-5.236.214-3.274.317-5.26-.93-6.93-.909-1.219-2.18-1.792-3.036-2.074l-13.332-.21c-1.014.29-2.5.905-3.506 2.284-1.187 1.628-1.113 3.507-.93 6.93.075 1.4.26 3.26.718 5.433l20.228-.2.003.002Z"/>
  <path fill="#F3D2B9" d="M63.871 35.261c.004.829.076 4.275-2.267 6.498-1.426 1.354-3.64 2.177-6.939 2.177-3.3 0-5.513-.823-6.94-2.177-1.29-1.226-1.782-2.91-1.782-2.91a7.586 7.586 0 0 1-.253-.952c-1.367-5.496 2.31-10.892 7.413-11.725 5.216-.849 10.505 3.3 10.768 9.087v.002Z"/>
  <path fill="#7D5045" d="M45.37 40.694c-.027-1.078.087-2.634.853-4.244.248-.52.814-1.31 1.948-2.895 1.162-1.624 2.048-2.719 2.318-4.361.037-.231.077-.522.083-.524.222-.02.74 3.62-.633 5.375h4.798s.981-2.891.62-5.008a42.207 42.207 0 0 1 .819 5.004c1.428-.008 2.856-.016 4.284-.027a4.407 4.407 0 0 1-.775-1.187c-.5-1.133-.385-2.182-.3-2.656.42.888 1.164 2.184 2.468 3.38.885.81 1.476.954 2.02 1.706.868 1.197.833 2.714.652 3.848 1.576-4.122.754-8.69-2.127-11.657-3.494-3.6-8.329-3.108-9.06-3.02-.742.09-5.544.743-8.13 5.112-1.996 3.367-1.911 7.656.164 11.152l-.002.002Zm17.223-16.63s2.074-7.416 7.976-4.732c0 0-2.347.898-2.576 1.919 0 0 .557-.005 1.476 1.022 0 0-4.15-.427-6.875 1.79Zm-16.65 0s-2.073-7.416-7.976-4.732c0 0 2.348.898 2.576 1.919 0 0-.556-.005-1.475 1.022 0 0 4.15-.427 6.875 1.79Z"/>
  <path fill="#F8BCBD" d="m45.943 43.31.144 7.62c-1.201 3.523-2.403 7.045-3.607 10.57a29.907 29.907 0 0 0 11.694 2.425 29.9 29.9 0 0 0 11.88-2.426l-3.607-10.568.144-7.622c-.235-.44-.521-.645-.7-.744-.862-.47-2.187-.093-3.234 1v2.6c-.965.378-2.61.879-4.69.827a11.998 11.998 0 0 1-4.09-.826v-2.601a2.119 2.119 0 0 0-1.822-1.49 2.121 2.121 0 0 0-2.114 1.234h.002Z"/>
  <path fill="#F06061" d="M50.39 69.762a2.775 2.775 0 0 1 2.775 2.774v.379h-5.546v-.38a2.775 2.775 0 0 1 2.774-2.773h-.002Zm10.53 3.153h-5.546v-.38a2.775 2.775 0 0 1 5.548 0v.38h-.002Z"/>
  <path fill="#66A9EB" d="M6.109 48.26a75.752 75.752 0 0 0 4.441 22.753h4.44c.282-3.75.958-7.985 1.508-10.184.802-3.19 1.255-3.699 1.583-3.695.227.002.723.252 1.531 3.854.464 2.067.913 6.552 1.078 10.272l4.722-.247a75.823 75.823 0 0 0 4.44-22.753c-1.161-1.173-4.32-4.036-9.236-4.804-7.999-1.252-13.784 4.111-14.507 4.804Z"/>
  <path fill="#A8D471" d="M35.3 47.957c-.775-11.995-1.162-17.993-6.045-20.95-.915-.554-2.415-1.272-4.616-1.538h-13.49c-2.2.268-3.699.984-4.616 1.538-4.882 2.955-5.27 8.955-6.045 20.95-.024.368-.084 1.277.497 1.84.752.728 2.146.812 3.046.128.1-.076.464-.386.763-.928.5-.908.45-1.807.402-2.213h.237c.34.495.843.88 1.457 1.068 2.803.85 6.56 1.64 11.014 1.652a38.327 38.327 0 0 0 11.232-1.652 2.72 2.72 0 0 0 1.457-1.068c-.048.406-.1 1.305.402 2.213.299.542.663.852.762.928.9.684 2.294.6 3.046-.128.582-.563.52-1.471.497-1.84Z"/>
  <path fill="#F3D2BA" d="M28.868 16.556c.006.985.09 5.088-2.698 7.735-1.698 1.611-4.33 2.59-8.258 2.59-3.928 0-6.562-.979-8.258-2.59-2.793-2.65-2.706-6.713-2.698-7.735C8.196 11.68 12.417 8.172 17.27 7.9c5.294-.297 10.222 3.316 11.599 8.656h-.002Z"/>
  <path fill="#F3D2BA" d="M7.424 21.125c-.13.029-.29.052-.472.045-.981-.033-2.428-.898-2.428-2.428a2.44 2.44 0 0 1 2.428-2.427l.472 4.808v.002Zm21.446-4.808a2.428 2.428 0 1 1-.458 4.812l.458-4.81v-.002Z"/>
  <path fill="#7D5045" d="M30.08 7.073C27.786 1.981 21.64-.499 17.034.67a9.044 9.044 0 0 0-2.704 1.193l-1.154.198a7.913 7.913 0 0 0-3.102.437c-3.464 1.24-4.823 4.588-5.09 5.25-1.726 4.251.288 8.194.612 8.804l1.496-.334a12.964 12.964 0 0 0 7.9-6.047l-.27-.965c.5 1.394 1.48 3.228 3.388 4.347 1.376.808 3.82 1.589 4.79.705.813.54 1.675.88 2.43 1.175a14.14 14.14 0 0 0 3.542.88l1.11.045c.376-.89 2.017-5.035.1-9.287l-.002.002Z"/>
  <path fill="#A8D471" d="M12.864 68.34a4.027 4.027 0 0 1 4.026 4.025v.548H8.837v-.548a4.027 4.027 0 0 1 4.026-4.025h.002Zm10.093 0a4.027 4.027 0 0 1 4.025 4.025v.548H18.93v-.548a4.027 4.027 0 0 1 4.025-4.025h.002Z"/>
  <path fill="#F3D2BA" d="m32.314 55.283-.103 1.42a1.247 1.247 0 0 0 1.15 1.334c.214-.006.58-.052.904-.3.39-.296.514-.729.586-1.023.42-1.703.31-3.207.31-3.207a16.26 16.26 0 0 0-.558-3.211l-2.665.21-.434 3.452a.897.897 0 1 0 1.787.12l.012-1.655m-29.968 2.86.103 1.42a1.247 1.247 0 0 1-1.15 1.334 1.556 1.556 0 0 1-.905-.3c-.39-.296-.513-.729-.585-1.023-.42-1.703-.312-3.207-.312-3.207.058-.808.198-1.917.559-3.211l2.665.21.435 3.452a.897.897 0 1 1-1.787.12l-.013-1.655"/>
  <path fill="#F06061" d="M15.206 21.718c.084 1.381 1.082 2.486 2.28 2.667 1.45.219 2.983-.95 3.13-2.667h-5.41Z"/>
  <path fill="#F8BCBD" d="M17.91 24.54c.9 0 1.63-.33 1.63-.738 0-.407-.73-.738-1.63-.738-.9 0-1.63.33-1.63.738s.73.738 1.63.738Z"/>
  <path stroke="#333" stroke-linecap="round" stroke-linejoin="round" stroke-width=".859" d="M47.837 42.05c-1.014.29-2.5.904-3.506 2.283-1.187 1.628-1.113 3.508-.93 6.931.075 1.4.26 3.26.718 5.433M61.171 42.26c.855.282 2.127.855 3.036 2.073 1.247 1.67 1.144 3.656.93 6.931a32.08 32.08 0 0 1-.786 5.235m-.48-21.239c.004.83.076 4.275-2.267 6.499-1.426 1.354-3.64 2.176-6.94 2.176-3.299 0-5.512-.822-6.939-2.176-1.29-1.226-1.782-2.91-1.782-2.91a7.622 7.622 0 0 1-.254-.952"/>
  <path stroke="#333" stroke-linecap="round" stroke-linejoin="round" stroke-width=".859" d="M52.391 40.529c.153.142 1.212 1.098 2.706.902a3.295 3.295 0 0 0 1.839-.902m-5.28-17.611a7.616 7.616 0 0 1 2.273-1.002c4.07-1.033 8.883 1.661 10.962 5.381 1.12 2.003 1.196 3.78 1.272 7.203a39.512 39.512 0 0 1-1.26 10.816m-20.572-.983c-.29-.847-3.545-10.628-.53-16.471.652-1.26 1.812-3.508 4.28-4.41a6.466 6.466 0 0 1 2.606-.367"/>
  <path stroke="#333" stroke-linecap="round" stroke-linejoin="round" stroke-width=".859" d="M45.37 40.693c-.027-1.078.086-2.633.853-4.243.247-.52.814-1.31 1.947-2.896 1.163-1.624 2.05-2.718 2.32-4.36.036-.232.075-.522.082-.524.222-.02.74 3.619-.633 5.375h4.798s.98-2.892.62-5.008a42.391 42.391 0 0 1 .818 5.004c1.428-.009 2.857-.017 4.285-.027a4.406 4.406 0 0 1-.775-1.187c-.5-1.134-.385-2.183-.3-2.657.42.888 1.164 2.185 2.468 3.38.884.81 1.476.954 2.02 1.707.868 1.197.833 2.714.651 3.847m-1.931-15.04s2.074-7.416 7.976-4.733c0 0-2.347.9-2.576 1.92 0 0 .556-.005 1.476 1.021 0 0-4.151-.426-6.876 1.792Z"/>
  <path fill="#F06061" stroke="#333" stroke-linecap="round" stroke-linejoin="round" stroke-width=".859" d="M61.546 24.38a1.488 1.488 0 1 0 0-2.975 1.488 1.488 0 0 0 0 2.976Z"/>
  <path fill="#F06061" stroke="#333" stroke-linecap="round" stroke-linejoin="round" stroke-width=".859" d="M63.873 26.452a1.488 1.488 0 1 0 0-2.976 1.488 1.488 0 0 0 0 2.976Z"/>
  <path stroke="#333" stroke-linecap="round" stroke-linejoin="round" stroke-width=".859" d="M45.943 24.064s-2.074-7.416-7.976-4.733c0 0 2.347.9 2.576 1.92 0 0-.556-.005-1.476 1.021 0 0 4.151-.426 6.876 1.792Z"/>
  <path fill="#F06061" stroke="#333" stroke-linecap="round" stroke-linejoin="round" stroke-width=".859" d="M46.99 24.38a1.488 1.488 0 1 0 0-2.975 1.488 1.488 0 0 0 0 2.976Zm-2.325 2.072a1.488 1.488 0 1 0 0-2.976 1.488 1.488 0 0 0 0 2.976Z"/>
  <path fill="#333" d="M58.214 39.795a1.03 1.03 0 0 1-1.03-1.03v-1.153a1.03 1.03 0 0 1 2.06 0v1.152a1.03 1.03 0 0 1-1.03 1.03Zm-7.096 0a1.03 1.03 0 0 1-1.03-1.03v-1.153a1.03 1.03 0 0 1 2.06 0v1.152a1.03 1.03 0 0 1-1.03 1.03Z"/>
  <path stroke="#333" stroke-linecap="round" stroke-linejoin="round" stroke-width=".515" d="M56.987 35.945c.118-.103.462-.377.985-.425a1.763 1.763 0 0 1 1.173.32m-6.852.105a1.747 1.747 0 0 0-.986-.425 1.763 1.763 0 0 0-1.172.32"/>
  <path stroke="#333" stroke-linecap="round" stroke-linejoin="round" stroke-width=".859" d="M58.659 43.566v2.601a12 12 0 0 1-8.78 0v-2.6"/>
  <path stroke="#333" stroke-linecap="round" stroke-linejoin="round" stroke-width=".859" d="m62.593 43.309-.144 7.621 3.607 10.57a29.91 29.91 0 0 1-11.88 2.426A29.916 29.916 0 0 1 42.482 61.5l3.608-10.57-.144-7.621m2.163 7.877h1.18m2.531 0h1.181m2.533 0h1.181m2.531 0h1.181"/>
  <path stroke="#333" stroke-linecap="round" stroke-linejoin="round" stroke-width=".859" d="M47.375 63.104c.282 2.543.707 4.86 1.185 6.923m3.415.052a37.575 37.575 0 0 1 .985-6.068m-2.57 5.75a2.775 2.775 0 0 1 2.774 2.774v.38h-5.546v-.38a2.775 2.775 0 0 1 2.774-2.774h-.002Zm10.77-6.657a59.923 59.923 0 0 1-1.184 6.923m-3.416.052a37.646 37.646 0 0 0-.974-6.023"/>
  <path stroke="#333" stroke-linecap="round" stroke-linejoin="round" stroke-width=".859" d="M60.92 72.914h-5.547v-.379a2.775 2.775 0 0 1 5.549 0v.38h-.002Z"/>
  <path stroke="#333" stroke-linecap="round" stroke-linejoin="round" stroke-width=".946" d="M24.638 25.556c2.201.268 3.7.983 4.617 1.537 4.882 2.956 5.27 8.955 6.045 20.95.025.369.084 1.278-.497 1.84-.752.728-2.145.812-3.046.128a3.117 3.117 0 0 1-.763-.927c-.5-.91-.449-1.808-.401-2.214"/>
  <path stroke="#333" stroke-linecap="round" stroke-linejoin="round" stroke-width=".946" d="M28.954 16.623c.006.986.09 5.083-2.694 7.725-1.696 1.61-4.326 2.586-8.25 2.586-3.924 0-6.554-.977-8.25-2.586-2.788-2.646-2.702-6.704-2.693-7.725"/>
  <path stroke="#333" stroke-linecap="round" stroke-linejoin="round" stroke-width=".946" d="M15.309 21.78c.082 1.38 1.08 2.483 2.275 2.665 1.45.218 2.982-.95 3.128-2.665H15.31Zm-.915-14.027c.222 1.08 1.026 4.24 3.812 5.876 1.424.837 3.999 1.647 4.887.598.612-.724.241-2.119-.278-2.94-.689-1.085-2.057-1.81-2.445-1.485-.416.346.215 1.962 1.043 3.062 1.142 1.52 2.729 2.142 4.005 2.643.85.333 2.046.706 3.538.88"/>
  <path stroke="#333" stroke-linecap="round" stroke-linejoin="round" stroke-width=".946" d="M15.094 10.251a12.969 12.969 0 0 1-3.203 3.7 12.98 12.98 0 0 1-4.688 2.34m.336 4.895c-.13.03-.29.052-.472.046-.981-.033-2.424-.897-2.424-2.424a2.436 2.436 0 0 1 2.424-2.424m21.889.003a2.424 2.424 0 1 1-.455 4.804M14.433 1.95A9.032 9.032 0 0 1 17.134.757c4.6-1.166 10.738 1.309 13.03 6.395 1.913 4.248.276 8.386-.099 9.277m-24.356.194c-.324-.61-2.335-4.546-.612-8.794.267-.661 1.624-4.004 5.084-5.243a7.895 7.895 0 0 1 3.098-.437m13.596 30.208c.608 1.23 1.2 2.564 1.753 3.998A48.62 48.62 0 0 1 31.03 44.8a2.742 2.742 0 0 1-1.898 3.139A38.315 38.315 0 0 1 17.9 49.59a38.287 38.287 0 0 1-11.014-1.652 2.745 2.745 0 0 1-1.896-3.14 48.609 48.609 0 0 1 2.401-8.443 47.783 47.783 0 0 1 1.754-3.998"/>
  <path stroke="#333" stroke-linecap="round" stroke-linejoin="round" stroke-width=".946" d="M6.242 47.645a74.027 74.027 0 0 0 3.87 21.797m20.077-22.018a85.612 85.612 0 0 1-1.664 12.766 85.792 85.792 0 0 1-2.477 9.268m-10.778-.394c.331-3.182.873-6.4 1.33-8.223.8-3.186 1.256-3.693 1.581-3.69.227.001.722.25 1.53 3.847.375 1.667.738 4.911.952 8.054"/>
  <path stroke="#333" stroke-linecap="round" stroke-linejoin="round" stroke-width=".946" d="M12.971 68.343a4.022 4.022 0 0 1 4.021 4.021v.548H8.95v-.548a4.022 4.022 0 0 1 4.021-4.02Zm10.08 0a4.022 4.022 0 0 1 4.021 4.021v.548h-8.041v-.548a4.022 4.022 0 0 1 4.02-4.02Zm8.974-17.811c-.144 1.15-.29 2.298-.435 3.446a.896.896 0 1 0 1.787.118l.012-1.653"/>
  <path stroke="#333" stroke-linecap="round" stroke-linejoin="round" stroke-width=".946" d="m32.396 55.306-.103 1.418c-.05.684.464 1.28 1.15 1.331a1.56 1.56 0 0 0 .903-.299c.39-.297.513-.727.585-1.024.418-1.7.311-3.203.311-3.203a16.365 16.365 0 0 0-.556-3.209M24.638 25.556c2.201.268 3.7.983 4.617 1.537 4.882 2.956 5.27 8.955 6.045 20.95.025.369.084 1.278-.497 1.84-.752.728-2.145.812-3.046.128a3.117 3.117 0 0 1-.763-.927c-.5-.91-.449-1.808-.401-2.214"/>
  <path stroke="#333" stroke-linecap="round" stroke-linejoin="round" stroke-width=".946" d="M32.025 50.532c-.144 1.15-.29 2.298-.435 3.446a.896.896 0 1 0 1.787.118l.012-1.653"/>
  <path stroke="#333" stroke-linecap="round" stroke-linejoin="round" stroke-width=".946" d="m32.396 55.306-.103 1.418c-.05.684.464 1.28 1.15 1.331a1.56 1.56 0 0 0 .903-.299c.39-.297.513-.727.585-1.024.418-1.7.311-3.203.311-3.203a16.365 16.365 0 0 0-.556-3.209M11.15 25.556c-2.202.268-3.7.983-4.617 1.537-4.882 2.956-5.27 8.955-6.045 20.95-.025.369-.084 1.278.497 1.84.752.728 2.145.812 3.046.128.099-.076.464-.385.763-.927.5-.91.449-1.808.401-2.214m-1.432 3.662c.144 1.15.29 2.298.435 3.446a.896.896 0 1 1-1.787.118l-.012-1.653"/>
  <path stroke="#333" stroke-linecap="round" stroke-linejoin="round" stroke-width=".946" d="m3.392 55.306.103 1.418c.05.684-.463 1.28-1.15 1.331a1.556 1.556 0 0 1-.902-.299c-.39-.297-.514-.727-.586-1.024-.418-1.7-.311-3.203-.311-3.203.058-.808.198-1.915.556-3.209"/>
  <path fill="#333" d="M22.404 20.774c-.704 0-1.275-.57-1.275-1.276v-1.426a1.275 1.275 0 1 1 2.551 0V19.5c0 .704-.57 1.275-1.276 1.275Zm-8.786 0c-.704 0-1.275-.57-1.275-1.276v-1.426a1.275 1.275 0 1 1 2.551 0V19.5c0 .704-.57 1.275-1.276 1.275Z"/>
  <path stroke="#333" stroke-linecap="round" stroke-linejoin="round" stroke-width=".709" d="M20.886 16.137c.144-.126.57-.466 1.22-.527a2.2 2.2 0 0 1 1.453.395m-8.423.132a2.189 2.189 0 0 0-1.22-.527 2.2 2.2 0 0 0-1.454.395"/>
</svg>
