<svg xmlns="http://www.w3.org/2000/svg" width="70" height="74" fill="none" viewBox="0 0 70 74">
  <path fill="#F3D2BA" d="M45.311 50.577a89.72 89.72 0 0 0 .486 9.2c3.51.203 6.122-2.26 6.194-4.45.08-2.378-2.8-5.242-6.682-4.75h.002Zm20.626 0a89.593 89.593 0 0 1-.486 9.2c-2.605-.302-4.455-2.656-4.18-5.113.255-2.266 2.257-4.073 4.666-4.087Z"/>
  <path fill="#F06061" d="M65.787 43.188a8.01 8.01 0 0 0-.215-.324c-.996-1.38-2.293-2.058-3.186-2.409H48.862c-.893.348-2.19 1.029-3.186 2.41a6.24 6.24 0 0 0-.215.323c-1.882 2.92-2.824 4.377-2.72 5.077.267 1.795 4.11 2.455 4.419 2.506h.321c-.012 1.36.033 2.712.102 3.591h16.202c.069-.879.1-2.229.073-3.591h.23c.308-.05 4.152-.71 4.42-2.506.103-.7-.838-2.158-2.721-5.077Z"/>
  <path fill="#7D5045" d="M44.573 32.892c-.28-.558-1.895-3.912-.417-7.55.24-.591 1.437-3.538 4.49-4.632a7.011 7.011 0 0 1 2.736-.386l1.019-.176a8.012 8.012 0 0 1 2.384-1.053c4.057-1.028 9.502 1.132 11.506 5.648 1.672 3.767.174 7.423-.158 8.184"/>
  <path fill="#66A9EB" d="M7.042 48.486a74.402 74.402 0 0 0 4.363 22.348h4.36c.277-3.683.941-7.842 1.482-10.002.787-3.134 1.232-3.634 1.554-3.63.223.002.71.247 1.504 3.786.456 2.03.897 6.435 1.059 10.089l4.638-.243a74.489 74.489 0 0 0 4.362-22.348c-1.142-1.152-4.245-3.964-9.073-4.719-7.856-1.229-13.538 4.038-14.249 4.719Z"/>
  <path fill="#A8D471" d="M35.714 48.186c-.76-11.781-1.141-17.672-5.937-20.577-.899-.544-2.372-1.249-4.534-1.51H11.992c-2.162.263-3.634.966-4.535 1.51-4.795 2.903-5.176 8.796-5.937 20.577-.024.362-.083 1.255.488 1.808.739.714 2.107.797 2.992.125.097-.075.455-.378.749-.91.492-.894.441-1.776.395-2.175h.232c.334.486.828.864 1.432 1.049a37.605 37.605 0 0 0 10.817 1.623 37.645 37.645 0 0 0 11.033-1.623 2.672 2.672 0 0 0 1.43-1.049c-.046.399-.096 1.282.396 2.174.293.533.651.836.749.911.884.672 2.253.59 2.991-.125.571-.553.51-1.446.488-1.808h.002Z"/>
  <path fill="#F3D2BA" d="M29.395 17.346c.006.968.088 4.998-2.65 7.597-1.668 1.583-4.253 2.545-8.112 2.545-3.858 0-6.445-.962-8.11-2.545-2.744-2.603-2.659-6.593-2.65-7.597 1.218-4.79 5.364-8.235 10.13-8.502 5.201-.291 10.041 3.257 11.393 8.502h-.002Z"/>
  <path fill="#F3D2BA" d="M8.334 21.832c-.128.028-.286.05-.464.044-.963-.032-2.384-.882-2.384-2.384a2.397 2.397 0 0 1 2.384-2.385l.464 4.723v.002Zm21.062-4.721a2.385 2.385 0 1 1-.449 4.727l.45-4.725v-.002Z"/>
  <path fill="#7D5045" d="M30.585 8.032c-2.253-5.004-8.29-7.437-12.814-6.29a8.885 8.885 0 0 0-2.656 1.173l-1.133.194a7.773 7.773 0 0 0-3.047.43c-3.403 1.218-4.737 4.506-5 5.155-1.694 4.176.283 8.049.601 8.648l1.47-.328a12.732 12.732 0 0 0 7.759-5.94l-.265-.946c.492 1.368 1.453 3.17 3.328 4.269 1.352.793 3.753 1.56 4.704.692.8.53 1.646.864 2.387 1.154.838.328 2.012.694 3.48.864l1.09.045c.369-.875 1.98-4.946.098-9.122l-.002.002Z"/>
  <path fill="#A8D471" d="M13.678 68.206a3.955 3.955 0 0 1 3.953 3.953v.539H9.722v-.538a3.955 3.955 0 0 1 3.954-3.954h.002Zm9.911 0a3.955 3.955 0 0 1 3.953 3.953v.539h-7.909v-.538a3.955 3.955 0 0 1 3.954-3.954h.002Z"/>
  <path fill="#F3D2BA" d="m32.78 55.384-.102 1.395a1.225 1.225 0 0 0 1.13 1.31c.21-.006.57-.05.888-.294.383-.291.504-.716.575-1.006.413-1.672.306-3.15.306-3.15a15.961 15.961 0 0 0-.549-3.153l-2.617.206-.428 3.39a.88.88 0 1 0 1.756.118l.012-1.625M4.316 55.384l.1 1.395a1.225 1.225 0 0 1-1.129 1.31c-.21-.006-.57-.05-.888-.294-.383-.291-.504-.716-.575-1.006-.413-1.672-.306-3.15-.306-3.15.057-.793.194-1.882.549-3.153l2.617.206c.142 1.13.286 2.26.427 3.39a.88.88 0 1 1-1.755.118l-.012-1.625"/>
  <path fill="#F06061" d="M15.976 22.415c.083 1.356 1.062 2.441 2.238 2.62 1.426.214 2.932-.934 3.075-2.62h-5.313Z"/>
  <path fill="#F8BCBD" d="M18.633 25.188c.885 0 1.602-.324 1.602-.725 0-.4-.717-.724-1.602-.724-.884 0-1.6.324-1.6.724 0 .4.716.725 1.6.725Z"/>
  <path fill="#F3D2BA" d="M65.222 33.11c.004.87.08 4.487-2.378 6.821-1.498 1.421-3.82 2.285-7.286 2.285-3.465 0-5.787-.862-7.285-2.285-1.354-1.285-1.873-3.055-1.873-3.055a15.907 15.907 0 0 1-.652-3.727c2.231-4.708 7.118-7.315 11.711-6.481 5.29.961 7.577 6.01 7.761 6.44l.002.001ZM58.036 64.1c.417 1.956.7 3.946.844 5.948l3.237-.052c.53-1.913.87-3.891 1.012-5.887l-5.093-.008Z"/>
  <path fill="#F06061" d="M63.012 73.024h-5.26v-.678a2.63 2.63 0 0 1 5.26 0v.678Z"/>
  <path fill="#F3D2BA" d="M53.332 64.1a43.452 43.452 0 0 0-.845 5.948l-3.236-.052a30.074 30.074 0 0 1-1.012-5.887l5.093-.008Z"/>
  <path fill="#F06061" d="M50.986 69.716a2.63 2.63 0 0 1 2.629 2.63v.678h-5.259v-.678a2.63 2.63 0 0 1 2.63-2.63Z"/>
  <path fill="#66A9EB" d="M63.81 54.728 66.444 64h-9.706l-1.049-3.12h-.01L54.63 64h-9.707l2.637-9.272h16.25Zm-11.857-.366c.105-3.951.18-8.86.275-12.4l-1.686-.685c-.18 3.741-.316 8.877-.447 13.083h1.858v.002Zm9.358 0c-.109-4.18-.293-9.364-.496-13.085l-1.686.6c.095 3.564.219 8.501.324 12.485h1.858Z"/>
  <path fill="#F3D2BA" d="M65.589 33.11a1.945 1.945 0 1 1-.367 3.855M45.43 33.11a1.945 1.945 0 1 0 .367 3.855"/>
  <path fill="#7D5045" d="M61.27 22.933c-3.526-2.662-9.062-3.083-12.629.192-2.65 2.434-3.617 6.363-2.558 10.081a11.085 11.085 0 0 0 4.087-2.43 10.913 10.913 0 0 0 1.767-2.155l.178-.032c.83 1.342 2.065 2.834 3.745 3.595 0 0-.862-1.48-1.26-4.04l.063-.01c.245.744.863 2.119 2.33 3.002a5.305 5.305 0 0 0 2.743.745c.043-.11.087-.237.134-.373.285.251.605.49.964.704 1.898 1.136 3.783.976 4.392.897.587-3.96-.91-7.882-3.951-10.176h-.004Z"/>
  <path stroke="#333" stroke-linecap="round" stroke-linejoin="round" stroke-width="1.078" d="M25.243 26.144c2.162.263 3.633.965 4.534 1.51 4.796 2.902 5.176 8.795 5.937 20.576.025.363.083 1.256-.488 1.808-.738.715-2.107.798-2.992.126a3.061 3.061 0 0 1-.748-.911c-.492-.893-.442-1.776-.395-2.174"/>
  <path stroke="#333" stroke-linecap="round" stroke-linejoin="round" stroke-width="1.078" d="M29.482 17.368c.006.968.089 4.992-2.646 7.587-1.666 1.581-4.25 2.54-8.103 2.54-3.855 0-6.438-.959-8.104-2.54-2.738-2.599-2.653-6.585-2.645-7.587"/>
  <path stroke="#333" stroke-linecap="round" stroke-linejoin="round" stroke-width="1.078" d="M16.079 22.433c.08 1.356 1.06 2.44 2.234 2.617 1.425.215 2.93-.933 3.073-2.617H16.08Zm-.901-13.777c.219 1.06 1.008 4.164 3.745 5.771 1.399.822 3.927 1.617 4.8.587.6-.71.236-2.08-.274-2.887-.676-1.066-2.02-1.779-2.4-1.46-.41.341.21 1.928 1.024 3.009 1.121 1.492 2.68 2.103 3.933 2.595.836.328 2.01.694 3.476.864"/>
  <path stroke="#333" stroke-linecap="round" stroke-linejoin="round" stroke-width="1.078" d="M15.866 11.11a12.742 12.742 0 0 1-3.146 3.633 12.748 12.748 0 0 1-4.605 2.3m.33 4.809c-.127.028-.285.05-.463.045-.964-.033-2.38-.88-2.38-2.38a2.392 2.392 0 0 1 2.38-2.381m21.5 0a2.38 2.38 0 1 1-.448 4.718M15.219 2.957a8.872 8.872 0 0 1 2.653-1.17C22.39.642 28.42 3.073 30.67 8.07c1.878 4.172.271 8.237-.097 9.111m-23.923.187c-.318-.599-2.294-4.465-.602-8.637.264-.65 1.596-3.933 4.994-5.15a7.754 7.754 0 0 1 3.043-.43M27.44 32.822a47.625 47.625 0 0 1 1.722 3.927 47.748 47.748 0 0 1 2.358 8.293 2.694 2.694 0 0 1-1.864 3.083 37.633 37.633 0 0 1-11.033 1.624 37.608 37.608 0 0 1-10.817-1.624 2.696 2.696 0 0 1-1.863-3.083 47.75 47.75 0 0 1 2.359-8.293 46.942 46.942 0 0 1 1.722-3.927"/>
  <path stroke="#333" stroke-linecap="round" stroke-linejoin="round" stroke-width="1.078" d="M7.172 47.838a72.711 72.711 0 0 0 3.801 21.409m19.719-21.626a84.071 84.071 0 0 1-1.634 12.539 84.242 84.242 0 0 1-2.433 9.103m-10.585-.385c.326-3.125.859-6.287 1.308-8.077.785-3.13 1.233-3.627 1.553-3.625.222.002.708.247 1.502 3.78.368 1.637.724 4.823.935 7.91"/>
  <path stroke="#333" stroke-linecap="round" stroke-linejoin="round" stroke-width="1.078" d="M13.781 68.17a3.95 3.95 0 0 1 3.95 3.95v.537h-7.9v-.538a3.95 3.95 0 0 1 3.95-3.95Zm9.901 0a3.95 3.95 0 0 1 3.95 3.95v.537h-7.9v-.538a3.95 3.95 0 0 1 3.95-3.95Zm8.814-17.496-.428 3.384a.88.88 0 1 0 1.756.116l.012-1.624"/>
  <path stroke="#333" stroke-linecap="round" stroke-linejoin="round" stroke-width="1.078" d="m32.862 55.362-.101 1.393a1.223 1.223 0 0 0 1.13 1.307c.21-.006.568-.05.886-.293.383-.292.504-.715.575-1.006.41-1.67.306-3.146.306-3.146a16.078 16.078 0 0 0-.547-3.152m-9.868-24.321c2.162.263 3.633.965 4.534 1.51 4.796 2.902 5.176 8.795 5.937 20.576.025.363.083 1.256-.488 1.808-.738.715-2.107.798-2.992.126a3.061 3.061 0 0 1-.748-.911c-.492-.893-.442-1.776-.395-2.174"/>
  <path stroke="#333" stroke-linecap="round" stroke-linejoin="round" stroke-width="1.078" d="m32.496 50.674-.428 3.384a.88.88 0 1 0 1.756.116l.012-1.624"/>
  <path stroke="#333" stroke-linecap="round" stroke-linejoin="round" stroke-width="1.078" d="m32.862 55.362-.101 1.393a1.223 1.223 0 0 0 1.13 1.307c.21-.006.568-.05.886-.293.383-.292.504-.715.575-1.006.41-1.67.306-3.146.306-3.146a16.078 16.078 0 0 0-.547-3.152M11.992 26.144c-2.162.263-3.634.965-4.535 1.51-4.795 2.902-5.176 8.795-5.937 20.576-.024.363-.083 1.256.488 1.808.739.715 2.107.798 2.992.126a3.06 3.06 0 0 0 .749-.911c.492-.893.441-1.776.395-2.174m-1.405 3.595c.141 1.13.285 2.257.427 3.385a.88.88 0 1 1-1.755.115l-.012-1.624"/>
  <path stroke="#333" stroke-linecap="round" stroke-linejoin="round" stroke-width="1.078" d="m4.372 55.362.102 1.393a1.223 1.223 0 0 1-1.13 1.307 1.528 1.528 0 0 1-.887-.293c-.382-.292-.504-.715-.575-1.006-.41-1.67-.305-3.146-.305-3.146.056-.793.194-1.88.546-3.152"/>
  <path fill="#333" d="M23.047 21.445c-.693 0-1.253-.56-1.253-1.253v-1.4a1.253 1.253 0 1 1 2.505 0v1.4c0 .693-.56 1.253-1.252 1.253Zm-8.63 0c-.692 0-1.253-.56-1.253-1.253v-1.4a1.253 1.253 0 1 1 2.506 0v1.4c0 .693-.56 1.253-1.253 1.253Z"/>
  <path stroke="#333" stroke-linecap="round" stroke-linejoin="round" stroke-width=".742" d="M21.557 16.893c.141-.124.56-.458 1.198-.519a2.161 2.161 0 0 1 1.427.39m-8.273.129a2.15 2.15 0 0 0-1.199-.519 2.161 2.161 0 0 0-1.427.39"/>
  <path stroke="#333" stroke-linecap="round" stroke-linejoin="round" stroke-width="1.078" d="M62.386 40.455c.893.349 2.19 1.029 3.186 2.41.055.074.091.13.215.323 1.883 2.92 2.824 4.377 2.72 5.077-.267 1.795-4.11 2.455-4.418 2.506m1.133-17.661c.004.87.08 4.487-2.378 6.821-1.498 1.421-3.82 2.285-7.286 2.285-3.465 0-5.787-.862-7.285-2.285-1.354-1.285-1.872-3.055-1.872-3.055a15.908 15.908 0 0 1-.652-3.727"/>
  <path stroke="#333" stroke-linecap="round" stroke-linejoin="round" stroke-width="1.078" d="M53.172 38.638c.16.15 1.273 1.153 2.842.947a3.459 3.459 0 0 0 1.931-.947m-5.547-18.486a8.01 8.01 0 0 1 2.385-1.053c4.057-1.028 9.502 1.132 11.506 5.648 1.672 3.767.174 7.423-.158 8.184m-21.558-.038c-.28-.56-1.895-3.913-.417-7.551.24-.591 1.437-3.538 4.49-4.632a7.011 7.011 0 0 1 2.736-.386"/>
  <path fill="#333" d="M59.283 37.866a1.083 1.083 0 0 1-1.083-1.083v-1.21a1.083 1.083 0 1 1 2.166 0v1.21c0 .597-.484 1.083-1.083 1.083Zm-7.447 0a1.083 1.083 0 0 1-1.083-1.083v-1.21a1.083 1.083 0 1 1 2.166 0v1.21c0 .597-.484 1.083-1.083 1.083Z"/>
  <path stroke="#333" stroke-linecap="round" stroke-linejoin="round" stroke-width=".692" d="M57.996 33.826a1.855 1.855 0 0 1 1.032-.448 1.848 1.848 0 0 1 1.23.336m-7.192.112a1.855 1.855 0 0 0-1.032-.448 1.848 1.848 0 0 0-1.23.336"/>
  <path stroke="#333" stroke-linecap="round" stroke-linejoin="round" stroke-width="1.078" d="M63.13 64.109a30.027 30.027 0 0 1-1.013 5.887m-3.237.052a43.41 43.41 0 0 0-.844-5.947"/>
  <path stroke="#333" stroke-linecap="round" stroke-linejoin="round" stroke-width="1.078" d="M63.012 73.024h-5.26v-.678a2.63 2.63 0 0 1 5.26 0v.678ZM48.239 64.11a30.019 30.019 0 0 0 1.012 5.886m3.236.052c.144-2.002.428-3.994.845-5.947m-2.346 5.615a2.63 2.63 0 0 1 2.629 2.63v.678h-5.259v-.678a2.63 2.63 0 0 1 2.63-2.63ZM63.81 54.728 66.444 64h-9.706l-1.049-3.12h-.01L54.63 64h-9.707l2.637-9.272h16.25ZM50.534 41.437c-.145 4.308-.293 8.617-.439 12.925m2.134-12.401c-.093 3.54-.17 8.448-.276 12.401m7.178-12.488c.096 3.565.219 8.502.324 12.486m1.361-13.085c.202 3.72.386 8.905.496 13.085M48.24 44.25a27.606 27.606 0 0 0-.627 3.691c-.196 1.947-.148 4.897-.028 6.419m15.5-10.11c.257 1.063.486 2.3.625 3.691.197 1.947.194 4.897.075 6.419m2.152-3.783a89.593 89.593 0 0 1-.486 9.2"/>
  <path stroke="#333" stroke-linecap="round" stroke-linejoin="round" stroke-width="1.078" d="M48.862 40.455c-.893.349-2.19 1.029-3.186 2.41a5.49 5.49 0 0 0-.215.323c-1.882 2.92-2.824 4.377-2.72 5.077.267 1.795 4.11 2.455 4.419 2.506m-1.848-.194a89.593 89.593 0 0 0 .486 9.2M65.589 33.11a1.945 1.945 0 1 1-.367 3.855M45.43 33.11a1.945 1.945 0 1 0 .367 3.855m11.83-9.366c.087.441.662 3.091 3.205 4.611 1.898 1.136 3.783.976 4.392.897m-13.287-4.486c-.4.64-.97 1.405-1.767 2.154a11.11 11.11 0 0 1-4.087 2.431"/>
  <path stroke="#333" stroke-linecap="round" stroke-linejoin="round" stroke-width="1.078" d="M50.803 25.889s1.575 4.722 5.055 6.295c0 0-.967-1.658-1.326-4.502.093.4.59 2.328 2.458 3.451a5.305 5.305 0 0 0 2.743.745"/>
</svg>
