<svg xmlns="http://www.w3.org/2000/svg" width="47" height="66" fill="none" viewBox="0 0 47 66">
  <path fill="#D3E2F1" stroke="#333" stroke-linecap="round" stroke-linejoin="round" stroke-width="1.608" d="m46.063 7.212-6.84 54.1a3.565 3.565 0 0 1-3.535 3.117H11.357a3.562 3.562 0 0 1-3.535-3.117l-6.84-54.1h45.081Z"/>
  <path fill="#4562AC" d="M31.122 21.13a46.547 46.547 0 0 0-15.45.406 46.17 46.17 0 0 0-8.193 2.419c.267.374 4.542 6.199 11.797 5.804 5.21-.285 9.845-3.661 11.843-8.63h.003Z"/>
  <path fill="#66A9EB" d="M31.804 58.771H15.245c-1.823 0-3.305-1.392-3.56-3.31L7.48 23.955a17.295 17.295 0 0 0 4.564 2.117c.974.29 3.979 1.087 7.35.547 5.667-.905 6.441-4.64 10.948-5.395 1.97-.331 5.02-.154 9.229 2.73l-4.204 31.507c-.255 1.918-1.738 3.31-3.56 3.31h-.002Z"/>
  <path fill="#fff" d="m7.218 8.058 5.46.477a717.67 717.67 0 0 1 .418 19.625c.043 5.49.023 10.904-.058 16.244a269.005 269.005 0 0 1-.955-4.314A271.302 271.302 0 0 1 7.218 8.058Z" opacity=".51"/>
  <path fill="#D3E2F1" stroke="#333" stroke-linecap="round" stroke-linejoin="round" stroke-width="1.608" d="M23.523 12.298c12.465 0 22.57-2.573 22.57-5.747S35.988.804 23.523.804C11.06.804.953 3.377.953 6.551s10.106 5.747 22.57 5.747Z"/>
</svg>
