<svg xmlns="http://www.w3.org/2000/svg" width="61" height="69" fill="none" viewBox="0 0 61 69">
  <path fill="#A8D471" stroke="#333" stroke-miterlimit="10" stroke-width="1.646" d="M58.663 31.66c.456 2.461 1.815 10.614-2.4 19.326-.884 1.826-7.226 14.377-21.486 16.686C18.417 70.319 7.658 56.9 7.167 56.268c-5.38-6.951-6.063-14.492-6.124-17.765-.185-9.915 4.622-16.796 7.563-21.006C12.236 12.304 20.863-.04 32.015.87c7.687.627 12.814 7.266 18.246 14.104 3.021 3.804 6.961 8.886 8.402 16.686Z"/>
  <path fill="#7D5045" stroke="#333" stroke-miterlimit="10" stroke-width="1.646" d="M30.212 55.584c7.35 0 13.31-5.96 13.31-13.31 0-7.351-5.96-13.31-13.31-13.31-7.351 0-13.31 5.959-13.31 13.31 0 7.35 5.959 13.31 13.31 13.31Z"/>
</svg>
