<svg xmlns="http://www.w3.org/2000/svg" width="52" height="71" fill="none" viewBox="0 0 52 71">
  <path fill="#468A40" stroke="#333" stroke-linecap="round" stroke-linejoin="round" stroke-width="1.456" d="M17.289 1.002a22.378 22.378 0 0 0-1.313 4.1s-.616 2.836-.495 5.582c.318 7.233 7.882 15.552 8.614 15.075.535-.349-4.056-4.456-4.414-11.693-.28-5.662 2.182-10.216-.143-12.253-.714-.626-1.613-.778-2.247-.813l-.002.002Z"/>
  <path fill="#A43A88" stroke="#333" stroke-linecap="round" stroke-linejoin="round" stroke-width="1.456" d="M20.465 52.838a7.637 7.637 0 1 0 0-15.273 7.637 7.637 0 0 0 0 15.273Z"/>
  <path fill="#DAA8CD" d="M19.33 42.557c1.7-.303 2.938-1.327 2.766-2.288-.17-.96-1.687-1.493-3.386-1.19-1.698.303-2.937 1.327-2.766 2.288.171.96 1.687 1.493 3.386 1.19Z"/>
  <path fill="#A43A88" stroke="#333" stroke-linecap="round" stroke-linejoin="round" stroke-width="1.456" d="M36.75 69.803a7.637 7.637 0 1 0 0-15.273 7.637 7.637 0 0 0 0 15.273Z"/>
  <path fill="#DAA8CD" d="M35.613 59.526c1.699-.303 2.937-1.327 2.766-2.287-.171-.96-1.687-1.493-3.386-1.19-1.699.303-2.937 1.327-2.766 2.287.171.96 1.687 1.493 3.386 1.19Z"/>
  <path fill="#A43A88" stroke="#333" stroke-linecap="round" stroke-linejoin="round" stroke-width="1.456" d="M26.714 61.942a7.637 7.637 0 1 0 0-15.274 7.637 7.637 0 0 0 0 15.274Z"/>
  <path fill="#DAA8CD" d="M25.579 51.663c1.699-.302 2.937-1.326 2.766-2.287-.171-.96-1.687-1.493-3.386-1.19-1.699.303-2.937 1.327-2.766 2.287.171.96 1.687 1.494 3.386 1.19Z"/>
  <path fill="#A43A88" stroke="#333" stroke-linecap="round" stroke-linejoin="round" stroke-width="1.456" d="M42.366 58.857a7.637 7.637 0 1 0 0-15.274 7.637 7.637 0 0 0 0 15.274Z"/>
  <path fill="#DAA8CD" d="M41.232 48.577c1.7-.303 2.938-1.327 2.766-2.287-.17-.96-1.687-1.493-3.386-1.19-1.699.303-2.937 1.327-2.766 2.287.171.96 1.687 1.493 3.386 1.19Z"/>
  <path fill="#A43A88" stroke="#333" stroke-linecap="round" stroke-linejoin="round" stroke-width="1.456" d="M31.247 52.718a7.637 7.637 0 1 0 0-15.274 7.637 7.637 0 0 0 0 15.274Z"/>
  <path fill="#DAA8CD" d="M30.114 42.438c1.699-.303 2.937-1.327 2.766-2.287-.171-.96-1.687-1.493-3.386-1.19-1.7.303-2.938 1.327-2.766 2.287.171.96 1.687 1.493 3.386 1.19Z"/>
  <path fill="#A43A88" stroke="#333" stroke-linecap="round" stroke-linejoin="round" stroke-width="1.456" d="M42.855 47.842a7.637 7.637 0 1 0 0-15.274 7.637 7.637 0 0 0 0 15.274Z"/>
  <path fill="#DAA8CD" d="M41.72 37.565c1.698-.303 2.937-1.328 2.765-2.288-.17-.96-1.687-1.493-3.386-1.19-1.699.303-2.937 1.327-2.766 2.287.171.96 1.687 1.493 3.386 1.19Z"/>
  <path fill="#A43A88" stroke="#333" stroke-linecap="round" stroke-linejoin="round" stroke-width="1.456" d="M42.112 33.452a7.637 7.637 0 1 0 0-15.273 7.637 7.637 0 0 0 0 15.273Z"/>
  <path fill="#DAA8CD" d="M40.98 23.175c1.698-.303 2.937-1.327 2.765-2.287-.17-.96-1.687-1.494-3.386-1.19-1.699.302-2.937 1.326-2.766 2.287.171.96 1.688 1.493 3.386 1.19Z"/>
  <path fill="#A43A88" stroke="#333" stroke-linecap="round" stroke-linejoin="round" stroke-width="1.456" d="M31.516 39.373a7.637 7.637 0 1 0 0-15.274 7.637 7.637 0 0 0 0 15.274Z"/>
  <path fill="#DAA8CD" d="M30.382 29.095c1.699-.303 2.937-1.327 2.766-2.287-.171-.96-1.687-1.493-3.386-1.19-1.699.303-2.937 1.327-2.766 2.287.171.96 1.687 1.493 3.386 1.19Z"/>
  <path fill="#A43A88" stroke="#333" stroke-linecap="round" stroke-linejoin="round" stroke-width="1.456" d="M21.538 43.203a7.637 7.637 0 1 0 0-15.274 7.637 7.637 0 0 0 0 15.274Z"/>
  <path fill="#DAA8CD" d="M20.404 32.922c1.699-.303 2.937-1.327 2.766-2.288-.171-.96-1.687-1.493-3.386-1.19-1.699.303-2.937 1.327-2.766 2.287.171.96 1.687 1.494 3.386 1.19Z"/>
  <path fill="#A43A88" stroke="#333" stroke-linecap="round" stroke-linejoin="round" stroke-width="1.456" d="M11.133 52.187a7.637 7.637 0 1 0 0-15.273 7.637 7.637 0 0 0 0 15.273Z"/>
  <path fill="#DAA8CD" d="M9.998 41.908c1.699-.303 2.937-1.327 2.766-2.287-.171-.96-1.687-1.493-3.386-1.19-1.699.303-2.937 1.327-2.766 2.287.171.96 1.687 1.493 3.386 1.19Z"/>
  <path fill="#A43A88" stroke="#333" stroke-linecap="round" stroke-linejoin="round" stroke-width="1.456" d="M33.658 26.889a7.637 7.637 0 1 0 0-15.273 7.637 7.637 0 0 0 0 15.273Z"/>
  <path fill="#DAA8CD" d="M32.525 16.608c1.7-.303 2.938-1.327 2.766-2.287-.171-.96-1.687-1.493-3.386-1.19-1.699.303-2.937 1.327-2.766 2.287.171.96 1.687 1.493 3.386 1.19Z"/>
  <path fill="#A43A88" stroke="#333" stroke-linecap="round" stroke-linejoin="round" stroke-width="1.456" d="M20.964 31.803a7.637 7.637 0 1 0 0-15.274 7.637 7.637 0 0 0 0 15.274Z"/>
  <path fill="#DAA8CD" d="M19.83 21.523c1.7-.303 2.938-1.327 2.766-2.287-.17-.96-1.687-1.494-3.386-1.19-1.698.302-2.937 1.326-2.766 2.287.172.96 1.688 1.493 3.386 1.19Z"/>
  <path fill="#A43A88" stroke="#333" stroke-linecap="round" stroke-linejoin="round" stroke-width="1.456" d="M9.228 37.8a7.637 7.637 0 1 0 0-15.273 7.637 7.637 0 0 0 0 15.273Z"/>
  <path fill="#DAA8CD" d="M8.095 27.52c1.699-.303 2.937-1.327 2.766-2.288-.171-.96-1.687-1.493-3.386-1.19-1.699.303-2.937 1.327-2.766 2.287.171.96 1.687 1.494 3.386 1.19Z"/>
</svg>
