<svg xmlns="http://www.w3.org/2000/svg" width="70" height="53" fill="none" viewBox="0 0 70 53">
  <path fill="#C39C76" stroke="#333" stroke-miterlimit="10" stroke-width="1.462" d="M59.345 24.331c.362 2.063 2.188 13.923-5.843 21.756-5.971 5.823-13.84 5.958-17.75 6.027-3.956.07-12.465.216-18.85-6.027-7.235-7.072-6.55-17.27-6.134-20.512C12.159 14.769 20.92.87 34.844.73c13.673-.136 22.658 13.094 24.501 23.6Z"/>
  <path fill="#333" d="M25.025 29.927c1.718 0 3.11-1.754 3.11-3.918 0-2.163-1.392-3.917-3.11-3.917s-3.11 1.754-3.11 3.917c0 2.164 1.392 3.918 3.11 3.918Zm20.262 0c1.718 0 3.11-1.754 3.11-3.918 0-2.163-1.392-3.917-3.11-3.917s-3.111 1.754-3.111 3.917c0 2.164 1.393 3.918 3.11 3.918Z"/>
  <path fill="#7D5045" stroke="#333" stroke-miterlimit="10" stroke-width="1.462" d="M43.4 2.969c2.27-2.82 10.453-.827 15.793 2.896 6.056 4.224 11.054 12.393 9.002 18.922-.213.679-1.182 3.759-3.81 4.805-3.107 1.235-7.075-.95-9.15-3.535-3.023-3.767-.313-6.25-2.97-10.584-3.099-5.056-8.786-4.943-9.438-9.4-.075-.511-.296-2.026.573-3.106v.002Zm-18.738-.071C22.2.242 14.178 2.8 9.108 6.888c-5.746 4.639-10.163 13.135-7.66 19.508.26.662 1.441 3.668 4.136 4.527 3.187 1.016 6.991-1.441 8.88-4.164 2.754-3.967-.123-6.257 2.225-10.766 2.737-5.258 8.42-5.543 8.758-10.034.04-.516.155-2.044-.788-3.06l.003-.001Z"/>
  <path stroke="#333" stroke-linecap="round" stroke-linejoin="round" stroke-width="1.462" d="m50.22 38.029 13.605-3.402M50.823 41.22l13.973 1.184m-45.128-4.181L5.823 35.987m13.515 5.468L5.516 43.82"/>
  <path fill="#F06061" stroke="#333" stroke-miterlimit="10" stroke-width="1.254" d="M32.258 44.672c-.297 2.178 1.31 3.893 2.795 3.937 1.532.046 3.29-1.674 3.007-3.937.075-1.663-1.212-3.052-2.75-3.13-1.642-.083-3.123 1.35-3.05 3.13h-.002Z"/>
  <path fill="#7D5045" d="M35.542 39.541c-.687 2.3.03 4.62 1.636 5.691 2.225 1.484 5.067-.158 6.276-1.216 2.286-1.997 2.967-5.584 1.653-8.461-1.145-2.51-3.67-4.183-6.54-4.377h-6.82c-2.87.194-5.395 1.868-6.54 4.377-1.314 2.879-.631 6.466 1.652 8.461 1.212 1.058 4.051 2.7 6.276 1.216 1.605-1.07 2.322-3.39 1.636-5.69"/>
  <path stroke="#333" stroke-miterlimit="10" stroke-width="1.462" d="M35.542 39.541c-.687 2.3.03 4.62 1.636 5.691 2.225 1.484 5.067-.158 6.276-1.216 2.286-1.997 2.967-5.584 1.653-8.461-1.145-2.51-3.67-4.183-6.54-4.377h-6.82c-2.87.194-5.395 1.868-6.54 4.377-1.314 2.879-.631 6.466 1.652 8.461 1.212 1.058 4.051 2.7 6.276 1.216 1.605-1.07 2.322-3.39 1.636-5.69"/>
  <path fill="#333" stroke="#333" stroke-miterlimit="10" stroke-width="1.462" d="M31.62 35.42c.423-1.177 2.587-1.424 3.724-1.365.384.019 2.816.144 3.328 1.538.525 1.424-1.13 3.727-3.08 3.93-2.354.244-4.495-2.648-3.973-4.104h.002Z"/>
</svg>
