<svg xmlns="http://www.w3.org/2000/svg" width="52" height="65" fill="none" viewBox="0 0 52 65">
  <path fill="#F06061" stroke="#333" stroke-linecap="round" stroke-linejoin="round" stroke-width="1.436" d="M26.113 60.025c1.87-.006 3.306.95 3.829 1.306 1.573 1.079 1.739 2.076 3.22 2.615.875.318 1.692.29 2.229.22 0 0 .972-.107 1.926-.595 2.225-1.134 21.307-26.27 10.745-40.225-.415-.547-4.914-6.3-11.742-5.96-4.51.226-7.736 3-9.295 4.664a1.251 1.251 0 0 1-1.825 0c-1.559-1.663-4.785-4.438-9.295-4.664-6.827-.34-11.327 5.413-11.741 5.96-10.562 13.955 8.521 39.089 10.745 40.225a6.306 6.306 0 0 0 1.925.594c.55.068 1.36.09 2.23-.219 1.554-.556 1.733-1.616 3.408-2.707.548-.357 1.89-1.208 3.64-1.214Z"/>
  <path fill="#83BA4F" stroke="#333" stroke-linecap="round" stroke-linejoin="round" stroke-width="1.436" d="M11.225 12.232c.962 2.066 2.68 5.1 5.644 8.06a28.288 28.288 0 0 0 9.21 6.133c.066-.841.378-5.99-3.525-10.142-4.48-4.767-10.667-4.133-11.33-4.053v.002Z"/>
  <path fill="#7D5045" d="m26.018 26.18-.373-4.715s-1.12-19.139 4.389-20.353c5.509-1.214-2.93 7.441-2.744 24.993"/>
  <path stroke="#333" stroke-linecap="round" stroke-linejoin="round" stroke-width="1.436" d="m26.018 26.18-.373-4.715s-1.12-19.139 4.389-20.353c5.509-1.214-2.93 7.441-2.744 24.993"/>
  <path stroke="#333" stroke-linecap="round" stroke-linejoin="round" stroke-width="1.436" d="M20.483 26.304c.316.182 3.538 1.969 6.84.391 1.987-.95 2.933-2.604 3.248-3.23"/>
</svg>
