<svg xmlns="http://www.w3.org/2000/svg" width="40" height="84" fill="none" viewBox="0 0 40 84">
  <path fill="#F3D2B9" d="M39.28 59.587a18.149 18.149 0 0 0-.62-3.56l-.278.455c-.311-.76-.796-1.25-1.342-1.25s-1.008.466-1.32 1.194l-.012-.165c-.709 1.823-.61 3.128-.483 3.826.127.69.311.924.518 1.002a.58.58 0 0 0 .308.02c.012.02.025.038.04.057l.03.391-.114 1.575a1.378 1.378 0 0 0 1.275 1.476c.239-.009.644-.059 1.004-.333.43-.328.569-.809.65-1.135.465-1.886.345-3.555.345-3.555l-.002.002Z"/>
  <path fill="#66A9EB" d="M6.907 53.827A90.565 90.565 0 0 0 8.46 68.451c.76 4.02 1.729 7.63 2.743 10.787l5.725-.439c.311-2.35.784-5.643 1.478-9.587.993-5.654 1.389-6.662 1.757-6.66.652.003 1.143 3.172 1.698 6.846.585 3.875.888 7.112 1.055 9.389l5.976.47a103.485 103.485 0 0 0 2.75-10.806 104.247 104.247 0 0 0 1.846-14.881l-26.578.257h-.002Z"/>
  <path fill="#F06061" d="M6.24 52.33c.052.45.109 1.447-.445 2.457a3.39 3.39 0 0 1-.847 1.028c-1 .76-2.547.667-3.381-.142-.644-.623-.577-1.633-.552-2.043.861-13.313 1.29-19.97 6.71-23.25 1.016-.615 2.68-1.412 5.123-1.71h14.695c2.442.298 4.106 1.092 5.122 1.71 5.42 3.28 5.85 9.937 6.71 23.25.027.41.094 1.42-.552 2.043-.834.807-2.381.901-3.38.142a3.39 3.39 0 0 1-.848-1.028c-.556-1.01-.5-2.008-.445-2.457-.736 1.204-2.024 2.913-4.138 4.13-.694.399-2.434 1.296-9.717 1.281-7.531-.014-9.346-.98-10.036-1.388-2.074-1.223-3.327-2.898-4.02-4.023h.001Z"/>
  <path fill="#F3D2B9" d="M32.521 18.611c.006 1.109.1 5.723-3.034 8.7-1.909 1.814-4.872 2.916-9.29 2.916-4.418 0-7.38-1.1-9.29-2.915-3.14-2.982-3.042-7.55-3.034-8.7-.027-6.777 5.384-12.343 11.92-12.555 6.83-.221 12.749 5.468 12.728 12.554Z"/>
  <path fill="#F3D2B9" d="M8.402 23.75a2.09 2.09 0 0 1-.53.053c-1.105-.037-2.732-1.01-2.732-2.73a2.745 2.745 0 0 1 2.731-2.731m24.652.002a2.731 2.731 0 1 1-.514 5.413"/>
  <path fill="#7D5045" d="M7.869 18.344c1.957-1.217 2.844-2.537 3.285-3.555.677-1.56.491-2.812 1.357-3.26.771-.399 1.489.306 2.992.854 3.168 1.156 7.086.652 9.624-.37 1.357-.548 1.993-1.082 2.591-.74 1.123.64.025 3.171 1.35 5.124.83 1.223 2.274 1.723 3.45 1.949l1.251.05c.423-1.002 2.267-5.662.111-10.446C31.304 2.216 24.391-.57 19.21.744a10.233 10.233 0 0 0-3.042 1.343l-1.299.223a8.934 8.934 0 0 0-3.49.492c-3.897 1.395-5.423 5.16-5.727 5.905-1.94 4.784.325 9.219.688 9.904"/>
  <path fill="#A8D471" d="M14.326 78.21a4.466 4.466 0 0 1 4.464 4.464v.608H9.864v-.608a4.466 4.466 0 0 1 4.464-4.465h-.002Zm11.188 0a4.466 4.466 0 0 1 4.464 4.464v.608h-8.926v-.608a4.466 4.466 0 0 1 4.464-4.465h-.002Z"/>
  <path fill="#F3D2B9" d="m4.239 61.69.115 1.575a1.378 1.378 0 0 1-1.275 1.477c-.237-.009-.644-.059-1.004-.333-.43-.328-.569-.809-.65-1.135-.465-1.886-.345-3.555-.345-3.555.064-.895.22-2.124.619-3.56l2.954.233.483 3.827a.996.996 0 1 1-1.982.132l-.013-1.834"/>
  <path stroke="#333" stroke-linecap="round" stroke-linejoin="round" stroke-width=".845" d="M32.653 18.611c.006 1.109.1 5.723-3.034 8.7-1.91 1.814-4.872 2.916-9.29 2.916-4.418 0-7.381-1.1-9.29-2.915-3.14-2.982-3.043-7.55-3.034-8.7"/>
  <path fill="#333" d="M25.077 23.952a1.38 1.38 0 0 1-1.38-1.38v-1.543a1.38 1.38 0 0 1 2.76 0v1.543a1.38 1.38 0 0 1-1.38 1.38Zm-9.497 0a1.38 1.38 0 0 1-1.38-1.38v-1.543a1.38 1.38 0 0 1 2.76 0v1.543a1.38 1.38 0 0 1-1.38 1.38Z"/>
  <path stroke="#333" stroke-linecap="round" stroke-linejoin="round" stroke-width=".845" d="M23.637 18.195h2.879m-12.376 0h2.879M8.534 23.75a2.095 2.095 0 0 1-.531.053c-1.104-.038-2.731-1.01-2.731-2.73a2.745 2.745 0 0 1 2.73-2.731m24.653.002a2.732 2.732 0 1 1-.514 5.413M16.3 2.087A10.232 10.232 0 0 1 19.342.744C24.523-.57 31.436 2.216 34.016 7.948c2.154 4.784.312 9.444-.11 10.446m-27.432.217c-.364-.685-2.628-5.12-.688-9.904.303-.747 1.83-4.51 5.727-5.905a8.855 8.855 0 0 1 3.49-.492"/>
  <path stroke="#333" stroke-linecap="round" stroke-linejoin="round" stroke-width=".845" d="M8 18.344c1.958-1.217 2.844-2.537 3.285-3.555.678-1.56.492-2.812 1.357-3.26.772-.399 1.49.306 2.992.854 3.168 1.156 7.087.652 9.625-.37 1.357-.549 1.993-1.082 2.59-.74 1.124.639.026 3.171 1.352 5.124.83 1.223 2.272 1.723 3.45 1.949"/>
  <path fill="#333" d="M24.904 27.251a17.498 17.498 0 0 0-4.527-.606 17.514 17.514 0 0 0-4.625.606c-.13-.067-.228-.142-.228-.228a2.395 2.395 0 0 1 2.394-2.394h4.822a2.395 2.395 0 0 1 2.394 2.394.228.228 0 0 1-.228.228h-.002Z"/>
  <path stroke="#333" stroke-linecap="round" stroke-linejoin="round" stroke-width=".857" d="M6.907 53.827A90.565 90.565 0 0 0 8.46 68.45c.76 4.02 1.729 7.63 2.743 10.787m22.282-25.669a104.55 104.55 0 0 1-1.846 14.88 103.647 103.647 0 0 1-2.75 10.807m-11.962-.458c.312-2.35.784-5.644 1.478-9.587.993-5.654 1.389-6.662 1.757-6.66.652.002 1.143 3.172 1.698 6.846.585 3.874.888 7.111 1.055 9.388"/>
  <path stroke="#333" stroke-linecap="round" stroke-linejoin="round" stroke-width=".836" d="M14.376 78.21a4.466 4.466 0 0 1 4.464 4.464v.608H9.914v-.608a4.466 4.466 0 0 1 4.464-4.465h-.002Zm11.189 0a4.466 4.466 0 0 1 4.464 4.464v.608h-8.927v-.608a4.466 4.466 0 0 1 4.465-4.465h-.002Zm4.505-41.99a106.4 106.4 0 0 1 1.947 4.438c2.875 6.982 2.806 8.904 2.518 10.246-.109.502-.452 2.015-1.587 3.437-2.67 3.342-7.442 3.31-12.814 3.275-5.505-.036-10.103-.067-12.67-3.346-1.34-1.712-1.606-3.646-1.682-4.238-.194-1.547.032-3.124 2.666-9.374a162.8 162.8 0 0 1 1.947-4.439"/>
  <path stroke="#333" stroke-linecap="round" stroke-linejoin="round" stroke-width=".836" d="M27.545 28.673c2.442.297 4.106 1.091 5.122 1.708 5.42 3.28 5.85 9.938 6.71 23.252.027.41.094 1.42-.552 2.042-.834.807-2.381.902-3.38.143a3.392 3.392 0 0 1-.848-1.03c-.556-1.01-.5-2.006-.445-2.456m1.589 4.063-.483 3.826a.996.996 0 1 0 1.982.132l.013-1.834"/>
  <path stroke="#333" stroke-linecap="round" stroke-linejoin="round" stroke-width=".836" d="m36.153 61.69-.115 1.575a1.378 1.378 0 0 0 1.276 1.477c.236-.009.644-.059 1.003-.333.43-.328.569-.809.65-1.135.465-1.886.345-3.555.345-3.555a18.149 18.149 0 0 0-.618-3.56M12.85 28.673c-2.443.297-4.107 1.091-5.123 1.708-5.42 3.28-5.85 9.938-6.71 23.252-.027.41-.094 1.42.552 2.042.834.807 2.382.902 3.381.143.11-.084.517-.427.847-1.03.556-1.01.5-2.006.445-2.456m-1.589 4.063.483 3.826a.996.996 0 1 1-1.982.132l-.013-1.834"/>
  <path stroke="#333" stroke-linecap="round" stroke-linejoin="round" stroke-width=".836" d="m4.239 61.69.115 1.575a1.378 1.378 0 0 1-1.275 1.477c-.237-.009-.644-.059-1.004-.333-.43-.328-.569-.809-.65-1.135-.465-1.886-.345-3.555-.345-3.555.064-.895.22-2.124.619-3.56"/>
</svg>
