<svg xmlns="http://www.w3.org/2000/svg" width="71" height="53" fill="none" viewBox="0 0 71 53">
  <path fill="#DFDDDD" d="M58.11 46.855c-2.236 2.887-12.174 5.062-24.096 5.062-12.515 0-22.845-2.399-24.374-5.5l48.47.438Z"/>
  <path fill="#FDF6ED" d="m56.717 35.284.554.082c7.106 1.401 11.591 3.46 11.591 5.75 0 4.227-15.254 7.651-34.07 7.651-18.817 0-34.074-3.422-34.074-7.65 0-2.1 3.772-4.005 9.88-5.388l2.229-.425 43.892-.02h-.002Zm8.793-25.89c1.422-1.1 3.346-.755 4.136.435.7 1.055.378 2.58-.564 3.43-1.022.924-2.67.96-3.835 0l-4.539 2.55-2.635-4.072 4.48-2.577c-.782-1.72-.127-3.614 1.229-4.305 1.01-.515 2.501-.41 3.396.615.708.813.87 2.005.41 3.046M53.22 5.421c1.145-1.385 3.099-1.473 4.131-.484.913.876.936 2.434.203 3.47-.794 1.127-2.395 1.52-3.743.843l-3.868 3.483-3.465-3.392 3.804-3.499c-1.141-1.504-.917-3.497.254-4.47.872-.724 2.352-.95 3.45-.145.87.636 1.288 1.765 1.069 2.881"/>
  <path fill="#F5A759" d="M60.092 18.997c.099-.3 1.055-3.363-.701-5.563-.944-1.182-2.233-1.567-2.695-1.699-2.062-.587-3.531.236-5.973.821-.837.201-1.535.31-2.138.37.068-.12.133-.24.19-.37.011-.78-.217-1.512-.668-2.07-1.084-1.336-3.244-1.39-4.49-.782-.714.349-1.018.86-1.992 1.093-.002.115.002.226.008.339-9.238-3.455-18.926-1.71-24.351 4.112-4.293 4.607-7.348 13.293-4.274 20.03.305.669.847 1.705 1.756 2.81 8.202 9.967 28.88 4.349 36.252 1.056 1.964-.879 4.519-2.27 6.267-5.036.624-.985 2.14-3.466 1.679-6.716-.304-2.134-1.326-3.649-1.919-4.402 1.231-1.912 2.376-1.94 3.051-3.993h-.002Z"/>
  <path stroke="#F06061" stroke-linecap="round" stroke-linejoin="round" stroke-width="1.436" d="m53.641 37.662.802.13c4.176.84 6.716 1.953 6.716 3.174 0 2.628-11.805 4.76-26.37 4.76-14.565 0-26.37-2.132-26.37-4.76 0-.95 1.544-1.835 4.2-2.58l1.88-.472"/>
  <path stroke="#333" stroke-linecap="round" stroke-linejoin="round" stroke-width="1.436" d="M34.713 24.386c-.047-1.283.076-3.526 1.357-5.818 1.512-2.71 4.547-5.314 7.742-5.485.973-.05 2.017 0 4.266-.12.716-.04 1.561-.148 2.645-.407 2.442-.585 3.911-1.408 5.973-.82.46.13 1.75.516 2.695 1.698 1.758 2.2.8 5.266.701 5.563-.757 2.307-2.113 2.054-3.513 4.802-1.188 2.333-.584 3.246-1.699 4.978-1.147 1.781-3.002 2.707-4.627 3.222m-34.553.644c-.062-1.034-.025-2.898.938-4.861 1.762-3.598 5.285-4.798 6.677-5.272 3.03-1.032 6.685-1.065 6.989-.117.396 1.238-5.147 3.681-4.607 5.467.211.695 1.153.652 1.796 1.717.636 1.053.455 2.315.233 3.162M67.588 8.516c.46-1.04.3-2.233-.41-3.046-.895-1.026-2.387-1.13-3.396-.615-1.356.691-2.013 2.585-1.23 4.305l-4.479 2.577"/>
  <path stroke="#333" stroke-linecap="round" stroke-linejoin="round" stroke-width="1.436" d="M65.51 9.394c1.422-1.1 3.346-.755 4.136.435.7 1.055.378 2.58-.564 3.43-1.022.924-2.67.96-3.835 0l-4.539 2.55M55.055 4.108c.22-1.116-.2-2.245-1.07-2.88-1.097-.805-2.575-.58-3.449.145-1.172.972-1.395 2.965-.254 4.47L46.477 9.34"/>
  <path stroke="#333" stroke-linecap="round" stroke-linejoin="round" stroke-width="1.436" d="M53.22 5.421c1.145-1.385 3.099-1.473 4.13-.484.914.876.936 2.434.204 3.47-.794 1.127-2.395 1.52-3.743.843l-3.868 3.483m7.098 10.257c.593.754 1.615 2.268 1.919 4.402.461 3.248-1.055 5.729-1.679 6.716-1.748 2.766-4.303 4.16-6.267 5.036-7.372 3.293-28.05 8.913-36.252-1.055a12.739 12.739 0 0 1-1.757-2.811c-3.073-6.735-.018-15.423 4.275-20.03 6.24-6.695 18.117-8.004 28.463-2.206"/>
  <path stroke="#333" stroke-linecap="round" stroke-linejoin="round" stroke-width="1.436" d="M41.624 10.8c.975-.234 1.279-.745 1.993-1.094 1.245-.608 3.406-.556 4.49.782.451.556.677 1.29.669 2.07m9.334 34.297c-2.236 2.887-12.174 5.062-24.096 5.062-12.515 0-22.845-2.399-24.374-5.5"/>
  <path stroke="#333" stroke-linecap="round" stroke-linejoin="round" stroke-width="1.436" d="m56.717 35.284.554.082c7.106 1.401 11.591 3.46 11.591 5.75 0 4.227-15.254 7.651-34.07 7.651-18.817 0-34.074-3.422-34.074-7.65 0-2.1 3.772-4.005 9.88-5.388l2.229-.425"/>
</svg>
