<svg xmlns="http://www.w3.org/2000/svg" width="60" height="59" fill="none" viewBox="0 0 60 59">
  <path fill="#F8BCBD" stroke="#323333" stroke-miterlimit="10" stroke-width="1.596" d="M57.762 1.605 40.014 9.014c-3.42-1.24-7.028-1.88-10.561-1.79-3.563.092-7.16.926-10.527 2.35L4.492 1.137a.98.98 0 0 0-1.472.919L4.51 22.15c-1.69 3.058-2.694 6.441-2.755 10.004-.244 14.19 9.503 25.893 28.988 25.393 21.188-.542 28.621-12.683 27.652-26.843-.223-3.252-1.23-6.314-2.815-9.086l3.604-18.86a1.04 1.04 0 0 0-1.42-1.154h-.002Z"/>
  <path fill="#F06061" d="m9.006 17.856-.602-8.131a.567.567 0 0 1 .852-.531l6.387 3.736-6.637 4.928v-.002Zm36.431-5.858 6.715-2.804a.621.621 0 0 1 .85.69l-1.37 7.174-6.195-5.06Z"/>
  <path fill="#323333" d="M19.464 36.933c1.67 0 3.023-1.703 3.023-3.805 0-2.1-1.354-3.804-3.023-3.804-1.67 0-3.023 1.703-3.023 3.804 0 2.102 1.354 3.805 3.023 3.805Zm22.02 0c1.67 0 3.022-1.703 3.022-3.805 0-2.1-1.353-3.804-3.022-3.804-1.67 0-3.023 1.703-3.023 3.804 0 2.102 1.353 3.805 3.023 3.805Z"/>
  <path fill="#F06061" stroke="#323333" stroke-miterlimit="10" stroke-width="1.14" d="M30.075 35.973c-5.259 0-9.52 3.14-9.52 7.01 0 3.87 4.263 7.01 9.52 7.01 5.256 0 9.519-3.14 9.519-7.01 0-3.87-4.263-7.01-9.52-7.01Zm-3.3 9.647c-1.159 0-2.096-1.18-2.096-2.637s.937-2.638 2.095-2.638c1.158 0 2.095 1.181 2.095 2.638 0 1.456-.937 2.637-2.095 2.637Zm6.598 0c-1.158 0-2.095-1.18-2.095-2.637s.937-2.638 2.095-2.638c1.158 0 2.095 1.181 2.095 2.638 0 1.456-.937 2.637-2.095 2.637Z"/>
</svg>
