<svg xmlns="http://www.w3.org/2000/svg" width="60" height="62" fill="none" viewBox="0 0 60 62">
  <path fill="#F5A759" stroke="#333" stroke-linecap="round" stroke-linejoin="round" stroke-width="1.394" d="M25.798 33.778 21.78 47.963h9.32l-1.898 12.966 10.82-18.913h-8.35l3.139-8.238h-9.012Z"/>
  <path fill="#C2BEBE" stroke="#333" stroke-linecap="round" stroke-linejoin="round" stroke-width="1.394" d="M58.765 22.102c.306-5.636-5.073-10.511-12.013-10.888a14.977 14.977 0 0 0-5.508.713 15.299 15.299 0 0 0-1.249-3.41C36.851 2.319 30.221-.634 25.19 1.919c-2.22 1.127-3.758 3.137-4.515 5.564-4.493.926-8.01 3.854-8.966 7.628-5.89.466-10.525 3.96-10.768 8.451-.274 5.06 5.128 9.47 12.069 9.846a17.4 17.4 0 0 0 1.878 0c1.96 2.894 6.036 5.013 10.847 5.274 3 .163 5.791-.424 8.018-1.534 1.414.546 2.97.89 4.616.98 5.933.323 11.085-2.75 12.646-7.17 4.371-1.393 7.532-4.76 7.753-8.853l-.002-.002Z"/>
  <path stroke="#ABA8A8" stroke-linecap="round" stroke-linejoin="round" stroke-width="1.394" d="M14.243 22.068c.666-1.082 1.827-1.743 3.05-1.71 1.485.037 2.823 1.096 3.261 2.62m-2.551-2.623c.106-1.264.845-2.38 1.95-2.901 1.344-.636 3.015-.295 4.095.868m15.409 7.579c-1.03-.742-2.356-.906-3.473-.408-1.356.608-2.184 2.1-2.003 3.675m1.346-3.4c-.583-1.127-1.695-1.872-2.916-1.93-1.485-.07-2.897.888-3.445 2.376m20.315-3.758c-.322-1.229-1.242-2.198-2.42-2.523-1.433-.394-3.02.229-3.883 1.561m-6.273-6.723c-.583-1.127-1.694-1.872-2.915-1.93-1.486-.07-2.898.889-3.445 2.376"/>
</svg>
