<svg xmlns="http://www.w3.org/2000/svg" width="70" height="78" fill="none" viewBox="0 0 70 78">
  <path fill="#A8D471" d="M1 76.818c1.23-8.555 3.805-14.9 5.83-18.959 1.943-3.894 3.57-6.064 5.983-7.87 3.784-2.832 7.968-3.629 10.323-3.895h23.829c2.355.266 6.538 1.063 10.322 3.894 2.413 1.805 4.04 3.977 5.983 7.871 2.025 4.058 4.6 10.404 5.83 18.96"/>
  <path fill="#F3D2BA" d="M54.726 30.036c.01 1.77.162 9.136-4.843 13.886-3.05 2.895-7.777 4.652-14.83 4.652s-11.78-1.757-14.83-4.652c-5.012-4.758-4.856-12.052-4.843-13.886 2.226-8.755 9.806-15.054 18.521-15.544 9.507-.534 18.356 5.954 20.828 15.544h-.003Z"/>
  <path fill="#F3D2BA" d="M16.223 38.24c-.233.054-.52.095-.848.083-1.761-.061-4.357-1.612-4.357-4.357 0-2.39 1.967-4.357 4.356-4.357l.85 8.633v-.002Zm38.505-8.632a4.357 4.357 0 1 1-.82 8.636l.82-8.638v.002Z"/>
  <path fill="#7D5045" d="M56.901 13.011C52.781 3.865 41.747-.584 33.475 1.514a16.253 16.253 0 0 0-4.856 2.143l-2.072.357a14.202 14.202 0 0 0-5.57.785c-6.22 2.226-8.658 8.237-9.142 9.427-3.097 7.636.517 14.716 1.1 15.812l2.686-.598a23.35 23.35 0 0 0 8.429-4.209 23.358 23.358 0 0 0 5.759-6.65l-.486-1.732c.897 2.502 2.656 5.794 6.083 7.806 2.47 1.45 6.86 2.854 8.602 1.263 1.462.968 3.009 1.58 4.36 2.11a25.298 25.298 0 0 0 6.361 1.58l1.995.08c.675-1.598 3.618-9.04.18-16.675l-.003-.002Z"/>
  <path fill="#F3D2BA" d="M20.56 60.498c2.362-1.538 5.876-.587 7.802 1.294 3.107 3.032 2.783 9.153-.684 11.645-2.018 1.45-5.318 1.829-7.45.16-2.11-1.65-2.06-4.515-2.045-6.467.015-1.815.044-5.113 2.378-6.632Z"/>
  <path fill="#F3D2BA" d="M20.798 59.971a9.215 9.215 0 0 1-.83-1.796c-.4-1.186-1.268-3.787.026-5.124.918-.949 2.812-1.038 3.94-.272 1.794 1.217 1.385 4.513 1.219 5.87-.062.5-.147.91-.212 1.183"/>
  <path stroke="#333" stroke-linecap="round" stroke-linejoin="round" stroke-width="1.168" d="M46.966 46.096c2.355.266 6.539 1.063 10.323 3.894 2.413 1.805 4.04 3.977 5.983 7.87 2.025 4.059 4.6 10.404 5.83 18.96M23.137 46.096c-2.355.266-6.538 1.063-10.322 3.894-2.413 1.805-4.04 3.977-5.983 7.87-2.025 4.059-4.6 10.404-5.83 18.96"/>
  <path stroke="#333" stroke-linecap="round" stroke-linejoin="round" stroke-width="1.168" d="M54.726 30.036c.01 1.77.162 9.136-4.843 13.886-3.05 2.895-7.777 4.652-14.83 4.652s-11.78-1.757-14.83-4.652c-5.012-4.758-4.856-12.052-4.843-13.886"/>
  <path stroke="#333" stroke-linecap="round" stroke-linejoin="round" stroke-width="1.168" d="M30.195 40.294c.324.303 2.592 2.35 5.784 1.93 2.09-.277 3.446-1.46 3.93-1.93M28.547 14.087c.401 1.942 1.846 7.622 6.857 10.566 2.561 1.504 7.188 2.958 8.785 1.076 1.101-1.3.434-3.811-.5-5.285-1.238-1.953-3.695-3.255-4.395-2.67-.746.622.388 3.529 1.875 5.504 2.054 2.73 4.906 3.85 7.2 4.75a25.3 25.3 0 0 0 6.36 1.58"/>
  <path stroke="#333" stroke-linecap="round" stroke-linejoin="round" stroke-width="1.168" d="M29.807 18.58a23.296 23.296 0 0 1-5.76 6.65 23.323 23.323 0 0 1-8.428 4.208m.604 8.802c-.233.054-.52.095-.848.083-1.761-.061-4.357-1.612-4.357-4.357 0-2.39 1.967-4.357 4.356-4.357m39.353-.001a4.357 4.357 0 1 1-.82 8.636M28.619 3.655a16.254 16.254 0 0 1 4.856-2.143c8.27-2.098 19.307 2.351 23.426 11.5 3.44 7.635.498 15.078-.18 16.675m-43.786.349c-.583-1.096-4.197-8.174-1.1-15.812.482-1.19 2.92-7.201 9.142-9.427a14.202 14.202 0 0 1 5.57-.785M24.852 35.15a3.045 3.045 0 0 1 2.71-1.511c1.641.048 2.48 1.427 2.53 1.512m9.921-.001a3.045 3.045 0 0 1 2.71-1.511c1.642.048 2.48 1.427 2.53 1.512"/>
  <path stroke="#333" stroke-linecap="round" stroke-linejoin="round" stroke-width=".834" d="M40.013 28.854a3.756 3.756 0 0 1 2.105-.909 3.78 3.78 0 0 1 2.505.683m-14.533.226a3.756 3.756 0 0 0-2.104-.909 3.78 3.78 0 0 0-2.505.683"/>
  <path stroke="#333" stroke-linecap="round" stroke-linejoin="round" stroke-width="1.168" d="M20.56 60.498c2.362-1.538 5.876-.587 7.802 1.294 3.107 3.031 2.783 9.153-.684 11.645-2.018 1.45-5.318 1.829-7.45.16-2.11-1.65-2.06-4.515-2.045-6.467.015-1.815.044-5.113 2.378-6.632Z"/>
  <path stroke="#333" stroke-linecap="round" stroke-linejoin="round" stroke-width="1.168" d="M20.798 59.971a9.218 9.218 0 0 1-.83-1.796c-.4-1.186-1.268-3.788.026-5.124.918-.95 2.812-1.038 3.94-.272 1.794 1.217 1.385 4.513 1.219 5.87-.062.5-.147.91-.212 1.183m5.051 4.693a4.42 4.42 0 0 1-1.543.491 4.41 4.41 0 0 1-2.035-.229m4.07 3.045a4.427 4.427 0 0 1-1.543.567c-1.327.218-2.382-.243-2.793-.45m3.362 3.381a4.36 4.36 0 0 1-2.08.352 4.349 4.349 0 0 1-2.296-.887M51.331 58.32a42.262 42.262 0 0 1 5.12 16.645"/>
</svg>
