<svg xmlns="http://www.w3.org/2000/svg" width="70" height="71" fill="none" viewBox="0 0 70 71">
  <path fill="#A8D471" stroke="#333" stroke-miterlimit="10" stroke-width=".882" d="M47.888 9.877a1.36 1.36 0 0 0-1.362-1.362h-2.02l5.362-5.363a1.466 1.466 0 1 0-2.073-2.074l-5.2 5.2V4.523a1.362 1.362 0 0 0-2.724 0v5.355c0 .376.152.716.4.964.247.247.588.4.964.4h5.293A1.36 1.36 0 0 0 47.89 9.88l-.002-.002Z"/>
  <path fill="#F06061" stroke="#333" stroke-miterlimit="10" stroke-width="1.057" d="M10.47 21.017a3.744 3.744 0 1 0 0-7.487 3.744 3.744 0 0 0 0 7.487Zm5.234 7.955a3.744 3.744 0 1 0 0-7.487 3.744 3.744 0 0 0 0 7.487Z"/>
  <path fill="#F06061" stroke="#333" stroke-miterlimit="10" stroke-width="1.057" d="M16.694 23.372a3.744 3.744 0 1 0 0-7.487 3.744 3.744 0 0 0 0 7.487Z"/>
  <path fill="#F06061" stroke="#333" stroke-miterlimit="10" stroke-width="1.057" d="M19.776 19.345a3.744 3.744 0 1 0 0-7.487 3.744 3.744 0 0 0 0 7.487Z"/>
  <path fill="#F06061" stroke="#333" stroke-miterlimit="10" stroke-width="1.057" d="M23.94 16.692a3.744 3.744 0 1 0 0-7.488 3.744 3.744 0 0 0 0 7.488Zm.884 9.577a3.744 3.744 0 1 0 0-7.488 3.744 3.744 0 0 0 0 7.488Z"/>
  <path fill="#F06061" stroke="#333" stroke-miterlimit="10" stroke-width="1.057" d="M30.088 26.349a3.744 3.744 0 1 0 0-7.488 3.744 3.744 0 0 0 0 7.488ZM13.941 13.432a3.744 3.744 0 1 0 0-7.487 3.744 3.744 0 0 0 0 7.487Zm14.47 3.588a3.744 3.744 0 1 0 0-7.488 3.744 3.744 0 0 0 0 7.488Z"/>
  <path fill="#F06061" stroke="#333" stroke-miterlimit="10" stroke-width="1.057" d="M19.566 16.227a3.744 3.744 0 1 0 0-7.488 3.744 3.744 0 0 0 0 7.488Z"/>
  <path fill="#F06061" stroke="#333" stroke-miterlimit="10" stroke-width="1.057" d="M24.799 21.474a3.744 3.744 0 1 0 0-7.488 3.744 3.744 0 0 0 0 7.488ZM13.96 38.103a3.744 3.744 0 1 0 0-7.488 3.744 3.744 0 0 0 0 7.488Zm17.908-5.268a3.744 3.744 0 1 0 0-7.488 3.744 3.744 0 0 0 0 7.488Z"/>
  <path fill="#F06061" stroke="#333" stroke-miterlimit="10" stroke-width="1.057" d="M36.231 29.05a3.744 3.744 0 1 0 0-7.487 3.744 3.744 0 0 0 0 7.488Zm-8.19 4.362a3.744 3.744 0 1 0 0-7.488 3.744 3.744 0 0 0 0 7.488Z"/>
  <path fill="#F06061" stroke="#333" stroke-miterlimit="10" stroke-width="1.057" d="M34.578 38.204a3.744 3.744 0 1 0 0-7.487 3.744 3.744 0 0 0 0 7.487ZM12.7 25.706a3.744 3.744 0 1 0 0-7.487 3.744 3.744 0 0 0 0 7.487Z"/>
  <path fill="#F06061" stroke="#333" stroke-miterlimit="10" stroke-width="1.057" d="M28.323 41.084a3.744 3.744 0 1 0 0-7.488 3.744 3.744 0 0 0 0 7.488Zm-6.344-9.474a3.744 3.744 0 1 0 0-7.487 3.744 3.744 0 0 0 0 7.488ZM19.56 44.707a3.744 3.744 0 1 0 0-7.488 3.744 3.744 0 0 0 0 7.488Zm-9.944-.844a3.744 3.744 0 1 0 0-7.487 3.744 3.744 0 0 0 0 7.487Z"/>
  <path fill="#F06061" stroke="#333" stroke-miterlimit="10" stroke-width="1.057" d="M19.03 39.752a3.744 3.744 0 1 0 0-7.488 3.744 3.744 0 0 0 0 7.488Zm.854-14.424a3.744 3.744 0 1 0 0-7.488 3.744 3.744 0 0 0 0 7.488Zm14.662-1.801a3.744 3.744 0 1 0 0-7.488 3.744 3.744 0 0 0 0 7.488ZM4.549 36.845a3.744 3.744 0 1 0 0-7.488 3.744 3.744 0 0 0 0 7.488Z"/>
  <path fill="#F06061" stroke="#333" stroke-miterlimit="10" stroke-width="1.057" d="M22.5 34.517a3.744 3.744 0 1 0 0-7.487 3.744 3.744 0 0 0 0 7.487Zm-7.483-15.091a3.744 3.744 0 1 0 0-7.488 3.744 3.744 0 0 0 0 7.488Z"/>
  <path fill="#F06061" stroke="#333" stroke-miterlimit="10" stroke-width="1.057" d="M23.754 40.15a3.744 3.744 0 1 0 0-7.489 3.744 3.744 0 0 0 0 7.488Zm2.721-9.347a3.744 3.744 0 1 0 0-7.488 3.744 3.744 0 0 0 0 7.488Zm3.815-10.316a3.744 3.744 0 1 0 0-7.488 3.744 3.744 0 0 0 0 7.488ZM15.988 33.934a3.744 3.744 0 1 0 0-7.488 3.744 3.744 0 0 0 0 7.488ZM6.7 28.53a3.744 3.744 0 1 0 0-7.487 3.744 3.744 0 0 0 0 7.488Z"/>
  <path fill="#F06061" stroke="#333" stroke-miterlimit="10" stroke-width="1.057" d="M11.039 31.875a3.744 3.744 0 1 0 0-7.488 3.744 3.744 0 0 0 0 7.488Zm40.343 11.621a3.735 3.735 0 1 0 0-7.471 3.735 3.735 0 0 0 0 7.47Zm14.352 2.742a3.735 3.735 0 1 0 0-7.471 3.735 3.735 0 0 0 0 7.47Zm-8.629 6.139a3.735 3.735 0 1 0 0-7.471 3.735 3.735 0 0 0 0 7.47Zm-.899 10.722a3.735 3.735 0 1 0 0-7.471 3.735 3.735 0 0 0 0 7.47ZM44.512 55.52a3.735 3.735 0 1 0 0-7.47 3.735 3.735 0 0 0 0 7.47Z"/>
  <path stroke="#333" stroke-linecap="round" stroke-linejoin="round" stroke-width="1.057" d="m10.168 70.024 58.12-58.12"/>
</svg>
