<svg xmlns="http://www.w3.org/2000/svg" width="60" height="61" fill="none" viewBox="0 0 60 61">
  <path fill="#F9CB6A" stroke="#333" stroke-miterlimit="10" stroke-width="1.621" d="M30.602 60.048c16.06-.412 28.765-12.994 28.377-28.103-.387-15.11-13.721-27.023-29.781-26.611C13.138 5.746.432 18.328.82 33.437c.387 15.11 13.721 27.023 29.782 26.611Z"/>
  <path fill="#333" d="M19.029 37.901c1.59 0 2.88-1.623 2.88-3.626s-1.29-3.627-2.88-3.627c-1.592 0-2.881 1.624-2.881 3.627 0 2.003 1.29 3.627 2.88 3.627Zm21.738 0c1.591 0 2.881-1.623 2.881-3.626s-1.29-3.627-2.881-3.627c-1.591 0-2.881 1.624-2.881 3.627 0 2.003 1.29 3.627 2.88 3.627Z"/>
  <path fill="#F18653" stroke="#333" stroke-miterlimit="10" stroke-width="1.621" d="M30.174 49.28c4.776 0 8.648-1.442 8.648-3.221 0-1.78-3.872-3.222-8.649-3.222-4.776 0-8.648 1.442-8.648 3.222 0 1.779 3.872 3.221 8.649 3.221Z"/>
  <path fill="#F18653" stroke="#333" stroke-miterlimit="10" stroke-width="1.621" d="M21.683 41.975c4.217-.113 4.875-3.902 8.243-3.867 3.205.032 3.54 3.474 7.67 3.867 2.666.255 4.32-1.007 5.325 0 .961.964-2.078 4.422-3.868 4.058-4.164-.845-6.543-1.33-8.812-1.334-2.212-.005-4.445.445-8.56 1.272-2.129.428-5.244-3.108-4.248-3.996.945-.84 2.154.056 4.247 0h.003Z"/>
  <path fill="#F9CB6A" d="M23.563 7.163c-.044-.326-.324-2.65 1.281-4.454.23-.257 1.96-2.202 4.16-1.59 1.602.444 2.807 2.067 2.941 4.03 1.883-1.425 4.417-.969 5.58.743 1.049 1.542.743 3.754-.508 5.09-1.086 1.16-2.777 1.538-4.303.955"/>
  <path stroke="#333" stroke-linecap="round" stroke-linejoin="round" stroke-width="1.621" d="M23.563 7.163c-.044-.326-.324-2.65 1.281-4.454.23-.257 1.96-2.202 4.16-1.59 1.602.444 2.807 2.067 2.941 4.03 1.883-1.425 4.417-.969 5.58.743 1.049 1.542.743 3.754-.508 5.09-1.086 1.16-2.777 1.538-4.303.955"/>
</svg>
