<svg xmlns="http://www.w3.org/2000/svg" width="66" height="52" fill="none" viewBox="0 0 66 52">
  <path fill="#F5A759" stroke="#333" stroke-miterlimit="10" stroke-width="1.317" d="M42.972 33.456c5.927 0 10.732-4.805 10.732-10.732S48.9 11.993 42.972 11.993s-10.731 4.804-10.731 10.731 4.804 10.732 10.731 10.732Z"/>
  <path fill="#F5A759" stroke="#333" stroke-miterlimit="10" stroke-width="1.129" d="M34.637 10.77a1.516 1.516 0 0 1-2.11-.377l-2.54-3.64a1.515 1.515 0 1 1 2.487-1.734l2.539 3.64c.478.687.31 1.632-.376 2.11Zm10.895-2.395a1.514 1.514 0 0 1-1.225-1.758l.779-4.368a1.515 1.515 0 1 1 2.983.533l-.78 4.368a1.514 1.514 0 0 1-1.757 1.225Zm9.398 6.012a1.515 1.515 0 0 1 .376-2.11l3.64-2.54a1.516 1.516 0 0 1 1.733 2.487l-3.64 2.54a1.516 1.516 0 0 1-2.11-.377Zm2.393 10.897a1.514 1.514 0 0 1 1.758-1.225l4.369.779a1.514 1.514 0 1 1-.533 2.983l-4.368-.78a1.514 1.514 0 0 1-1.226-1.757Z"/>
  <path fill="#D3E2F1" stroke="#333" stroke-linecap="round" stroke-linejoin="round" stroke-width="1.317" d="M56.17 35.618c.29-5.326-4.794-9.933-11.353-10.289a14.15 14.15 0 0 0-5.206.674 14.457 14.457 0 0 0-1.18-3.222c-2.972-5.86-9.237-8.65-13.993-6.237-2.099 1.065-3.552 2.964-4.267 5.258-4.246.875-7.57 3.642-8.473 7.209-5.568.44-9.947 3.743-10.177 7.987-.26 4.783 4.847 8.95 11.406 9.305.602.032 1.195.032 1.774 0 1.852 2.735 5.705 4.737 10.252 4.984 2.835.154 5.473-.401 7.578-1.45 1.336.516 2.806.842 4.362.927 5.607.305 10.476-2.6 11.951-6.776 4.132-1.317 7.119-4.5 7.328-8.368l-.002-.002Z"/>
  <path stroke="#4562AC" stroke-linecap="round" stroke-linejoin="round" stroke-width="1.317" d="M14.094 35.587c.628-1.022 1.725-1.647 2.881-1.617 1.404.036 2.669 1.037 3.083 2.477m-2.411-2.479c.1-1.195.798-2.25 1.843-2.742 1.27-.6 2.849-.279 3.87.82m14.563 7.165c-.973-.702-2.227-.856-3.283-.385-1.281.574-2.064 1.983-1.893 3.472m1.273-3.214c-.552-1.066-1.602-1.77-2.756-1.824-1.404-.066-2.739.84-3.256 2.245m19.199-3.552c-.305-1.16-1.174-2.077-2.287-2.384-1.355-.373-2.855.216-3.67 1.475m-5.928-6.354c-.552-1.065-1.602-1.769-2.756-1.823-1.404-.066-2.738.84-3.256 2.245"/>
</svg>
