<svg xmlns="http://www.w3.org/2000/svg" width="61" height="72" fill="none" viewBox="0 0 61 72">
  <path fill="#66A9EB" stroke="#333" stroke-linecap="round" stroke-linejoin="round" stroke-width=".762" d="M14.986 43.376a32.441 32.441 0 0 0-6.438 6.844l4.902 9.466c.486-.65 5.95-7.67 15.337-7.36 9.465.312 14.461 7.796 14.886 8.457l4.229-10.376a32.804 32.804 0 0 0-6.568-7.031H14.986Z"/>
  <path fill="#A8D471" d="M11.911 45.132c-.07-3.97.22-7.273.535-9.694.701-5.38 1.589-6.949 2.74-8.013 1.362-1.26 2.97-1.719 4.026-1.91l17.98-.028c1.039.248 2.599.764 4.136 1.938 1.741 1.33 2.58 2.9 3.516 4.625.57 1.047 1.3 2.586 1.873 4.577-1.535 1.657-4.981 1.421-6.517 3.078-.535.578.486 2.671.309 3.627-1.373.393-2.861.541-4.28 1.07-6.599 2.466-13.443-.022-19.893-1.285-1.509-.295-3.01 2.22-4.425 2.013v.002Z"/>
  <path fill="#F3D2BA" d="M39.82 17.542c.005 1.04.095 5.37-2.848 8.162-1.793 1.701-4.572 2.734-8.717 2.734-4.145 0-6.924-1.032-8.717-2.734-2.947-2.796-2.855-7.084-2.848-8.162 1.052-5.454 5.719-9.463 11.123-9.665 5.716-.214 10.884 3.888 12.006 9.665Z"/>
  <path fill="#F3D2BA" d="M17.19 22.365c-.138.03-.307.055-.5.048-1.036-.036-2.562-.949-2.562-2.562a2.576 2.576 0 0 1 2.563-2.562m23.13.001a2.562 2.562 0 1 1-.482 5.079"/>
  <path fill="#7D5045" d="M24.434 8.168c.236 1.141 1.084 4.48 4.03 6.21 1.507.884 4.226 1.74 5.165.633.647-.764.255-2.24-.294-3.107-.727-1.15-2.171-1.915-2.583-1.57-.438.366.227 2.074 1.101 3.236 1.208 1.604 2.884 2.263 4.231 2.793.9.352 2.162.747 3.74.93l1.173.047c.396-.939 2.126-5.313.105-9.802-2.425-5.38-8.911-7.993-13.773-6.76a9.586 9.586 0 0 0-2.855 1.258l-1.217.21a8.346 8.346 0 0 0-3.275.46c-3.655 1.31-5.09 4.843-5.373 5.542-1.822 4.488.304 8.65.645 9.294l1.58-.352a13.672 13.672 0 0 0 8.337-6.384"/>
  <path fill="#83BA4F" stroke="#333" stroke-linecap="round" stroke-linejoin="round" stroke-width=".952" d="M11.595 62.7c2.21-1.276 2.303-5.25.21-8.876-2.094-3.626-5.582-5.531-7.792-4.256-2.209 1.276-2.303 5.25-.21 8.876 2.094 3.626 5.582 5.531 7.792 4.256Zm41.319-4.257c2.093-3.626 2-7.6-.21-8.875-2.21-1.276-5.697.63-7.791 4.256-2.093 3.626-2 7.6.21 8.875 2.21 1.276 5.697-.63 7.79-4.256Z"/>
  <path stroke="#333" stroke-linecap="round" stroke-linejoin="round" stroke-width=".794" d="M16.336 43.117a34.285 34.285 0 0 0 23.864.13"/>
  <path stroke="#333" stroke-linecap="round" stroke-linejoin="round" stroke-width=".952" d="M37.193 25.487c1.038.248 2.598.764 4.135 1.938 1.741 1.33 2.58 2.9 3.517 4.625a22.652 22.652 0 0 1 1.872 4.577M19.213 25.516c-1.058.19-2.665.65-4.027 1.909-1.004.927-2.075 2.474-2.74 8.013a54.29 54.29 0 0 0-.258 10.052"/>
  <path stroke="#333" stroke-linecap="round" stroke-linejoin="round" stroke-width=".952" d="M39.82 17.542c.005 1.04.095 5.37-2.848 8.162-1.793 1.701-4.572 2.734-8.717 2.734-4.145 0-6.924-1.032-8.717-2.733-2.947-2.797-2.855-7.085-2.847-8.163"/>
  <path stroke="#333" stroke-linecap="round" stroke-linejoin="round" stroke-width=".952" d="M25.402 24.739c.19.179 1.523 1.38 3.4 1.133 1.229-.162 2.027-.859 2.31-1.133M24.434 8.168c.236 1.141 1.084 4.48 4.03 6.21 1.507.884 4.226 1.74 5.165.633.647-.764.255-2.24-.294-3.107-.727-1.149-2.171-1.915-2.583-1.57-.438.366.227 2.074 1.101 3.236 1.208 1.604 2.884 2.263 4.231 2.793.9.352 2.162.747 3.74.93"/>
  <path stroke="#333" stroke-linecap="round" stroke-linejoin="round" stroke-width=".952" d="M25.173 10.808a13.687 13.687 0 0 1-8.338 6.384m.355 5.173c-.138.03-.307.055-.5.048-1.036-.036-2.562-.949-2.562-2.562a2.576 2.576 0 0 1 2.563-2.562m23.131.001a2.562 2.562 0 1 1-.482 5.079M24.476 2.036A9.565 9.565 0 0 1 27.33.777C32.193-.455 38.68 2.158 41.1 7.536c2.02 4.488.291 8.861-.105 9.802m-25.739.204c-.343-.644-2.466-4.804-.645-9.294.283-.699 1.716-4.232 5.373-5.541a8.346 8.346 0 0 1 3.275-.461M37.318 32.32a24.827 24.827 0 0 1 3.01 9.782M19.194 32.32a24.827 24.827 0 0 0-3.01 9.782M11.595 62.7c2.21-1.276 2.303-5.25.21-8.876-2.094-3.626-5.582-5.531-7.792-4.256-2.209 1.276-2.303 5.25-.21 8.876 2.094 3.626 5.582 5.531 7.792 4.256Zm41.319-4.257c2.093-3.626 2-7.6-.21-8.875-2.21-1.276-5.697.63-7.791 4.256-2.093 3.626-2 7.6.21 8.875 2.21 1.276 5.697-.63 7.79-4.256Z"/>
  <path stroke="#333" stroke-linecap="round" stroke-linejoin="round" stroke-width=".794" d="M16.336 43.117a34.285 34.285 0 0 0 23.864.13"/>
  <path stroke="#333" stroke-linecap="round" stroke-linejoin="round" stroke-width=".952" d="M13.45 59.686c.486-.65 5.95-7.67 15.337-7.36 9.465.312 14.462 7.796 14.886 8.457m-2.337-17.407a32.82 32.82 0 0 1 6.568 7.03m-32.918-7.03a32.441 32.441 0 0 0-6.438 6.844"/>
  <path fill="#F06061" stroke="#333" stroke-linecap="round" stroke-linejoin="round" stroke-width=".762" d="m37.254 62.77-9.104 5.255V57.514l9.104-5.256V62.77Zm-18.207 0 9.103 5.255V57.514l-9.103-5.256V62.77Z"/>
  <path fill="#F06061" stroke="#333" stroke-linecap="round" stroke-linejoin="round" stroke-width=".762" d="m37.254 52.258-9.102 5.256-9.105-5.254 2.78-1.605v1.222l6.325 3.652 6.322-3.652v-1.224l2.78 1.605Z"/>
  <path fill="#A8D471" d="M34.475 44.576v7.301l-6.323 3.652v-7.301l1.061-.614 5.262-3.038Z"/>
  <path stroke="#333" stroke-linecap="round" stroke-linejoin="round" stroke-width=".762" d="M34.475 44.576v7.301l-6.323 3.652v-7.301l1.061-.614 5.262-3.038Z"/>
  <path fill="#A8D471" d="M28.152 48.228v7.301l-6.326-3.652v-7.301l5.263 3.04 1.063.612Z"/>
  <path stroke="#333" stroke-linecap="round" stroke-linejoin="round" stroke-width=".762" d="M28.152 48.228v7.301l-6.326-3.652v-7.301l5.263 3.04 1.063.612Z"/>
  <path fill="#A8D471" d="m34.475 44.576-5.262 3.038-1.06.614-1.064-.612-5.263-3.04 2.745-1.585v1.297l3.581 2.065 3.578-2.065v-1.297l2.745 1.585Z"/>
  <path stroke="#333" stroke-linecap="round" stroke-linejoin="round" stroke-width=".762" d="m34.475 44.576-5.262 3.038-1.06.614-1.064-.612-5.263-3.04 2.745-1.585v1.297l3.581 2.065 3.578-2.065v-1.297l2.745 1.585Z"/>
  <path fill="#66A9EB" d="M31.73 40.155v4.133l-3.578 2.065v-4.131l1.122-.65 2.456-1.417Z"/>
  <path stroke="#333" stroke-linecap="round" stroke-linejoin="round" stroke-width=".762" d="M31.73 40.155v4.133l-3.578 2.065v-4.131l1.122-.65 2.456-1.417Z"/>
  <path fill="#66A9EB" d="M28.152 42.222v4.131l-3.581-2.065v-4.133l2.457 1.419 1.124.648Z"/>
  <path stroke="#333" stroke-linecap="round" stroke-linejoin="round" stroke-width=".762" d="M28.152 42.222v4.131l-3.581-2.065v-4.133l2.457 1.419 1.124.648Z"/>
  <path fill="#66A9EB" d="m31.73 40.155-2.456 1.417-1.122.65-1.124-.648-2.457-1.42 3.581-2.066 3.578 2.067Z"/>
  <path stroke="#333" stroke-linecap="round" stroke-linejoin="round" stroke-width=".762" d="m31.73 40.155-2.456 1.417-1.122.65-1.124-.648-2.457-1.42 3.581-2.066 3.578 2.067Z"/>
  <path fill="#8376D6" d="M44.062 66.35v3.352l-2.901 1.676v-3.353l.91-.526 1.99-1.148Z"/>
  <path stroke="#333" stroke-linecap="round" stroke-linejoin="round" stroke-width=".762" d="M44.062 66.35v3.352l-2.901 1.676v-3.353l.91-.526 1.99-1.148Z"/>
  <path fill="#8376D6" d="M41.16 68.025v3.353L38.257 69.7v-3.35l1.994 1.15.91.524Z"/>
  <path stroke="#333" stroke-linecap="round" stroke-linejoin="round" stroke-width=".762" d="M41.16 68.025v3.353L38.257 69.7v-3.35l1.994 1.15.91.524Z"/>
  <path fill="#8376D6" d="m44.062 66.35-1.99 1.15-.911.525-.911-.524-1.994-1.15 2.905-1.677 2.9 1.677Z"/>
  <path stroke="#333" stroke-linecap="round" stroke-linejoin="round" stroke-width=".762" d="m44.062 66.35-1.99 1.15-.911.525-.911-.524-1.994-1.15 2.905-1.677 2.9 1.677Z"/>
  <path fill="#A8D471" d="M39.922 39.57c.42.56 1.12 1.297 2.11 1.526.921.211 1.818-.084 4.367-1.87 3.14-2.203 2.654-2.37 4.93-3.877 1.832-1.215 2.987-1.663 3.648-3.174.18-.413.539-1.26.276-2.219-.38-1.379-1.897-2.451-3.237-2.472-1.626-.027-2.339 1.512-4.811 3.77a25.56 25.56 0 0 1-4.402 3.232"/>
  <path stroke="#333" stroke-linecap="round" stroke-linejoin="round" stroke-width=".952" d="M40.067 39.53c.341.472.985 1.229 1.964 1.566 2.027.695 3.269-1.24 9.597-6.006 2.28-1.718 3.907-2.816 3.792-4.414-.059-.828-.563-1.49-.983-1.92-.51-.528-1.367-1.25-2.419-1.272-1.657-.037-2.594 1.69-4.811 3.77a23.133 23.133 0 0 1-4.403 3.232"/>
  <path fill="#F18653" d="m54.617 21.178 6.002 6.725-3.568 3.802"/>
  <path stroke="#333" stroke-linecap="round" stroke-linejoin="round" stroke-width=".762" d="m54.617 21.178 6.002 6.725-3.568 3.802"/>
  <path fill="#F5A759" stroke="#333" stroke-linecap="round" stroke-linejoin="round" stroke-width=".762" d="m51.883 30.128-5.168-1.578 3.951-3.686 3.95-3.686 1.218 5.264 1.217 5.263-5.168-1.577Z"/>
  <path stroke="#333" stroke-linecap="round" stroke-linejoin="round" stroke-width="2.589" d="M32.713 20.782v1.448M23.8 20.782v1.448"/>
  <path stroke="#333" stroke-linecap="round" stroke-linejoin="round" stroke-width=".571" d="M31.171 18.28a2.21 2.21 0 0 1 1.237-.534 2.217 2.217 0 0 1 1.472.402m-8.604.132a2.21 2.21 0 0 0-1.236-.534 2.218 2.218 0 0 0-1.473.402"/>
</svg>
