<svg xmlns="http://www.w3.org/2000/svg" width="54" height="84" fill="none" viewBox="0 0 54 84">
  <path fill="#66A9EB" d="M14.095 51.422a80.59 80.59 0 0 0 4.724 24.205h4.723c.3-3.988 1.02-8.494 1.605-10.833.853-3.394 1.335-3.936 1.684-3.931.24.002.77.267 1.629 4.1.493 2.199.97 6.97 1.146 10.927l5.023-.263a80.662 80.662 0 0 0 4.725-24.205c-1.236-1.248-4.597-4.293-9.827-5.11-8.509-1.332-14.663 4.373-15.433 5.11Z"/>
  <path fill="#A8D471" d="M45.149 51.1c-.825-12.76-1.237-19.14-6.43-22.287-.974-.59-2.57-1.353-4.912-1.636H19.455c-2.341.285-3.935 1.046-4.911 1.636-5.194 3.144-5.606 9.526-6.43 22.287-.027.392-.09 1.359.528 1.957.8.774 2.282.864 3.24.136.106-.08.494-.41.812-.986.532-.967.477-1.923.427-2.355h.252c.362.526.897.936 1.55 1.136a40.728 40.728 0 0 0 11.717 1.758c4.843.013 8.923-.84 11.949-1.758a2.893 2.893 0 0 0 1.55-1.136c-.05.432-.105 1.388.428 2.355.318.576.706.905.81.986.959.728 2.441.638 3.241-.136.619-.598.553-1.565.529-1.958h.002Z"/>
  <path fill="#F3D2BA" d="M38.304 17.695c.006 1.048.096 5.413-2.87 8.228-1.807 1.715-4.606 2.756-8.785 2.756-4.18 0-6.981-1.041-8.786-2.756-2.97-2.82-2.878-7.14-2.87-8.228 1.32-5.188 5.81-8.92 10.974-9.209 5.632-.315 10.874 3.528 12.339 9.209h-.002Z"/>
  <path fill="#F3D2BA" d="M15.493 22.556a2.06 2.06 0 0 1-.502.048c-1.043-.035-2.583-.956-2.583-2.583a2.596 2.596 0 0 1 2.583-2.583l.502 5.115v.003Zm22.813-5.116a2.583 2.583 0 1 1-.487 5.12l.487-5.117v-.003Z"/>
  <path fill="#7D5045" d="M39.593 7.607C37.153 2.19 30.615-.448 25.715.795a9.622 9.622 0 0 0-2.877 1.27l-1.228.21a8.418 8.418 0 0 0-3.3.465c-3.685 1.32-5.13 4.88-5.415 5.584-1.835 4.523.307 8.717.651 9.366l1.592-.355a13.792 13.792 0 0 0 8.404-6.433l-.287-1.026c.532 1.482 1.574 3.434 3.604 4.624 1.465.86 4.065 1.69 5.095.75.867.575 1.783.936 2.585 1.25.908.355 2.18.752 3.77.936l1.181.048c.399-.947 2.144-5.356.105-9.88l-.002.003Z"/>
  <path fill="#A8D471" d="M21.281 72.783a4.284 4.284 0 0 1 4.282 4.282v.584h-8.566v-.584a4.284 4.284 0 0 1 4.282-4.282h.002Zm10.735 0a4.284 4.284 0 0 1 4.282 4.282v.584h-8.566v-.584a4.284 4.284 0 0 1 4.282-4.282h.002Z"/>
  <path fill="#F3D2BA" d="m41.97 58.894-.11 1.51a1.327 1.327 0 0 0 1.224 1.419c.228-.007.618-.055.962-.318.414-.316.546-.776.623-1.09.447-1.81.33-3.411.33-3.411-.06-.86-.21-2.04-.593-3.416l-2.835.224c-.154 1.223-.31 2.447-.463 3.672a.954.954 0 1 0 1.901.127l.013-1.76m-31.879 3.043.11 1.51a1.327 1.327 0 0 1-1.224 1.419c-.228-.007-.618-.055-.962-.318-.414-.316-.546-.776-.623-1.09-.447-1.81-.33-3.411-.33-3.411.06-.86.21-2.04.593-3.416l2.835.224c.154 1.223.31 2.447.463 3.672a.954.954 0 1 1-1.901.127l-.013-1.76"/>
  <path fill="#F06061" d="M23.77 23.187c.09 1.469 1.15 2.644 2.425 2.837 1.543.232 3.174-1.01 3.33-2.837H23.77Z"/>
  <path fill="#F8BCBD" d="M26.649 26.189c.957 0 1.734-.352 1.734-.785 0-.434-.777-.785-1.734-.785-.958 0-1.735.351-1.735.785 0 .433.777.785 1.735.785Z"/>
  <path stroke="#333" stroke-linecap="round" stroke-linejoin="round" stroke-width="1.006" d="M33.807 27.27c2.342.284 3.936 1.045 4.911 1.635 5.194 3.144 5.606 9.526 6.43 22.287.027.392.09 1.359-.528 1.958-.8.773-2.282.863-3.24.136a3.315 3.315 0 0 1-.811-.987c-.533-.967-.478-1.923-.428-2.355"/>
  <path stroke="#333" stroke-linecap="round" stroke-linejoin="round" stroke-width="1.006" d="M38.398 17.767c.007 1.048.097 5.407-2.865 8.218-1.805 1.712-4.603 2.751-8.777 2.751-4.175 0-6.972-1.039-8.776-2.751-2.967-2.816-2.875-7.133-2.866-8.218"/>
  <path stroke="#333" stroke-linecap="round" stroke-linejoin="round" stroke-width="1.006" d="M23.882 23.253c.087 1.469 1.148 2.642 2.42 2.835 1.544.232 3.173-1.011 3.328-2.835h-5.748ZM22.908 8.33c.237 1.15 1.092 4.51 4.056 6.252 1.515.89 4.254 1.751 5.199.635.65-.77.256-2.254-.296-3.126-.733-1.155-2.188-1.927-2.6-1.58-.444.368.227 2.086 1.109 3.257 1.214 1.616 2.903 2.278 4.26 2.81.905.356 2.177.753 3.764.937"/>
  <path stroke="#333" stroke-linecap="round" stroke-linejoin="round" stroke-width="1.006" d="M23.651 10.988a13.801 13.801 0 0 1-3.407 3.936 13.808 13.808 0 0 1-4.988 2.49m.358 5.207c-.138.031-.31.055-.502.049-1.044-.036-2.579-.954-2.579-2.579a2.591 2.591 0 0 1 2.579-2.578m23.286.002a2.578 2.578 0 1 1-.484 5.11M22.95 2.157A9.64 9.64 0 0 1 25.824.889c4.894-1.24 11.423 1.393 13.861 6.804 2.035 4.518.294 8.921-.105 9.868m-25.91.206c-.345-.649-2.485-4.836-.652-9.355.285-.704 1.728-4.26 5.409-5.578a8.399 8.399 0 0 1 3.295-.465m14.464 32.136a51.583 51.583 0 0 1 1.866 4.253 51.708 51.708 0 0 1 2.554 8.983 2.917 2.917 0 0 1-2.02 3.339 40.757 40.757 0 0 1-11.948 1.758A40.727 40.727 0 0 1 14.92 51.08a2.92 2.92 0 0 1-2.017-3.34 51.708 51.708 0 0 1 2.554-8.982 50.849 50.849 0 0 1 1.866-4.253"/>
  <path stroke="#333" stroke-linecap="round" stroke-linejoin="round" stroke-width="1.006" d="M14.237 50.768a78.759 78.759 0 0 0 4.117 23.188M39.71 50.534a91.046 91.046 0 0 1-1.77 13.58 91.252 91.252 0 0 1-2.636 9.86m-11.464-.419c.353-3.385.93-6.81 1.416-8.748.851-3.39 1.336-3.93 1.682-3.927.241.002.767.268 1.627 4.093.399 1.774.785 5.225 1.013 8.569"/>
  <path stroke="#333" stroke-linecap="round" stroke-linejoin="round" stroke-width="1.006" d="M21.395 72.788a4.279 4.279 0 0 1 4.278 4.277v.583h-8.555v-.583a4.279 4.279 0 0 1 4.277-4.277Zm10.722 0a4.279 4.279 0 0 1 4.277 4.277v.583H27.84v-.583a4.279 4.279 0 0 1 4.278-4.277Zm9.546-18.948c-.154 1.223-.31 2.445-.463 3.666a.953.953 0 1 0 1.901.125l.013-1.758"/>
  <path stroke="#333" stroke-linecap="round" stroke-linejoin="round" stroke-width="1.006" d="m42.06 58.918-.11 1.508a1.325 1.325 0 0 0 1.223 1.417c.228-.007.616-.055.96-.318.415-.316.547-.774.623-1.09.446-1.809.331-3.407.331-3.407-.06-.86-.21-2.037-.592-3.414M33.807 27.27c2.342.284 3.936 1.045 4.911 1.635 5.194 3.144 5.606 9.526 6.43 22.287.027.392.09 1.359-.528 1.958-.8.773-2.282.863-3.24.136a3.315 3.315 0 0 1-.811-.987c-.533-.967-.478-1.923-.428-2.355"/>
  <path stroke="#333" stroke-linecap="round" stroke-linejoin="round" stroke-width="1.006" d="M41.663 53.84c-.154 1.223-.31 2.445-.463 3.666a.953.953 0 1 0 1.901.125l.013-1.758"/>
  <path stroke="#333" stroke-linecap="round" stroke-linejoin="round" stroke-width="1.006" d="m42.06 58.918-.11 1.508a1.325 1.325 0 0 0 1.223 1.417c.228-.007.616-.055.96-.318.415-.316.547-.774.623-1.09.446-1.809.331-3.407.331-3.407-.06-.86-.21-2.037-.592-3.414M19.455 27.27c-2.341.284-3.935 1.045-4.911 1.635-5.194 3.144-5.606 9.526-6.43 22.287-.027.392-.09 1.359.528 1.958.8.773 2.282.863 3.24.136.106-.082.494-.41.812-.987.532-.967.477-1.923.427-2.355M11.6 53.84c.153 1.223.309 2.445.462 3.666a.953.953 0 1 1-1.9.125l-.014-1.758"/>
  <path stroke="#333" stroke-linecap="round" stroke-linejoin="round" stroke-width="1.006" d="m11.203 58.918.11 1.508a1.325 1.325 0 0 1-1.224 1.417c-.228-.007-.616-.055-.96-.318-.415-.316-.546-.774-.623-1.09-.445-1.809-.331-3.407-.331-3.407.061-.86.21-2.037.592-3.414"/>
  <path fill="#333" d="M31.428 22.183c-.75 0-1.357-.607-1.357-1.357v-1.518a1.357 1.357 0 1 1 2.714 0v1.518c0 .75-.607 1.357-1.357 1.357Zm-9.347 0c-.75 0-1.357-.607-1.357-1.357v-1.518a1.357 1.357 0 1 1 2.715 0v1.518c0 .75-.608 1.357-1.358 1.357Z"/>
  <path stroke="#333" stroke-linecap="round" stroke-linejoin="round" stroke-width=".754" d="M29.814 17.25a2.329 2.329 0 0 1 1.298-.562 2.34 2.34 0 0 1 1.546.421m-8.961.141a2.329 2.329 0 0 0-1.297-.562 2.34 2.34 0 0 0-1.546.421"/>
  <path fill="#F9CB6A" stroke="#333" stroke-linecap="round" stroke-linejoin="round" stroke-width=".87" d="M6.96 34.386c-.682-3.545-3.326-6.018-5.907-5.523 2.581-.495 4.12-3.77 3.44-7.316.682 3.545 3.326 6.018 5.907 5.523-2.58.495-4.12 3.77-3.44 7.316Zm39.033-4.054c-.458-3.58-2.945-6.213-5.55-5.88 2.608-.333 4.348-3.508 3.89-7.088.458 3.58 2.945 6.213 5.55 5.88-2.608.333-4.348 3.508-3.89 7.088Zm-8.595 52.931c.426-3.584-1.346-6.742-3.955-7.05 2.61.308 5.07-2.347 5.495-5.931-.426 3.584 1.346 6.742 3.955 7.05-2.61-.308-5.07 2.347-5.495 5.931Zm-23.639-4.137c-.5-2.442-2.346-4.128-4.124-3.764 1.778-.364 2.815-2.638 2.315-5.08.5 2.442 2.346 4.128 4.124 3.764-1.778.364-2.815 2.638-2.315 5.08Zm36.444-58.954c-.176-2.365-1.715-4.179-3.436-4.05 1.72-.126 2.973-2.148 2.797-4.514.176 2.366 1.715 4.18 3.436 4.05-1.721.127-2.973 2.149-2.797 4.514ZM7.399 23.85c.282-2.665-1.06-4.993-2.998-5.2 1.94.207 3.743-1.786 4.026-4.45-.283 2.664 1.059 4.992 2.997 5.198-1.94-.206-3.743 1.787-4.025 4.451Z"/>
</svg>
