<svg xmlns="http://www.w3.org/2000/svg" width="63" height="58" fill="none" viewBox="0 0 63 58">
  <path fill="#7D5045" stroke="#333" stroke-miterlimit="10" stroke-width="1.617" d="M57.9 19.847c2.196-1.961 3.592-4.886 3.592-8.156C61.492 5.786 56.948 1 51.342 1c-3.32 0-6.265 1.677-8.118 4.271-4.056-1.903-8.47-2.922-12.77-2.811-3.86.1-7.758 1.106-11.369 2.827C17.235 2.684 14.283 1 10.96 1 5.352 1 .809 5.786.809 11.69c0 3.306 1.425 6.26 3.663 8.222-1.266 2.862-2.003 5.96-2.051 9.196-.226 15.19 9.667 27.733 29.413 27.227 21.471-.55 28.988-13.536 27.983-28.694a23.312 23.312 0 0 0-1.917-7.792v-.002Z"/>
  <path fill="#C39C76" d="M10.959 16.835c2.696 0 4.883-2.303 4.883-5.144 0-2.842-2.187-5.145-4.883-5.145-2.697 0-4.884 2.303-4.884 5.145 0 2.84 2.187 5.144 4.884 5.144Zm40.385.196c2.8 0 5.07-2.39 5.07-5.34 0-2.95-2.27-5.341-5.07-5.341-2.8 0-5.07 2.391-5.07 5.34 0 2.95 2.27 5.341 5.07 5.341ZM39.025 42.4c0 4.342-1.777 7.863-7.863 7.863-6.482 0-7.864-3.52-7.864-7.864 0-4.342 3.944-9.117 7.864-9.117 4.539 0 7.863 4.775 7.863 9.117Z"/>
  <path fill="#333" d="M21.716 32.554c1.383 0 2.504-1.412 2.504-3.153s-1.12-3.153-2.504-3.153c-1.383 0-2.504 1.412-2.504 3.153s1.121 3.153 2.504 3.153Zm18.891 0c1.383 0 2.504-1.412 2.504-3.153s-1.121-3.153-2.504-3.153-2.504 1.412-2.504 3.153 1.121 3.153 2.504 3.153Zm-7.209 4.521c-.104-.09-.811-.656-2.056-.656-.53 0-1.157.102-1.876.386-.7.275-1.148.974-.896 1.684.076.212.3.679 1.381 1.067.938.337 2.063.282 2.714-.058 1.728-.903 1.317-1.917.733-2.423Zm.889 7.909c-3.493 2.003-6.027.139-6.142.051a.986.986 0 0 0-1.21 1.557c.096.076 1.695 1.296 4.139 1.296 1.215 0 2.64-.3 4.195-1.192a.986.986 0 1 0-.982-1.712Z"/>
  <path stroke="#333" stroke-miterlimit="10" stroke-width="1.617" d="M31.2 38.897v7.464"/>
</svg>
