<svg xmlns="http://www.w3.org/2000/svg" width="59" height="57" fill="none" viewBox="0 0 59 57">
  <g opacity=".43">
    <path fill="#FDF6ED" stroke="#333" stroke-linecap="round" stroke-linejoin="round" stroke-width="1.016" d="M50.388 6.095H8.675A6.955 6.955 0 0 0 1.72 13.05v36.489a6.955 6.955 0 0 0 6.955 6.954h41.713a6.955 6.955 0 0 0 6.954-6.954v-36.49a6.955 6.955 0 0 0-6.954-6.954Z"/>
    <path fill="#F06061" stroke="#333" stroke-linecap="round" stroke-linejoin="round" stroke-width="1.016" d="M54.488 5.117H4.575A3.575 3.575 0 0 0 1 8.69v5.825c0 1.974 1.6 3.575 3.575 3.575h49.913c1.974 0 3.574-1.6 3.574-3.575V8.691c0-1.974-1.6-3.575-3.574-3.575Z"/>
    <path stroke="#333" stroke-linecap="round" stroke-linejoin="round" stroke-width="1.016" d="M13.106.508v9.217M15.679.508v9.217M23.198.508v9.217M25.77.508v9.217M33.292.508v9.217M35.864.508v9.217M43.385.508v9.217M45.958.508v9.217"/>
    <path fill="#FDF6ED" stroke="#333" stroke-linecap="round" stroke-linejoin="round" stroke-width=".581" d="M24.72 21.826h-4.822v4.822h4.822v-4.822Zm7.221 0H27.12v4.822h4.822v-4.822Zm7.223 0h-4.821v4.822h4.821v-4.822Zm7.224 0h-4.822v4.822h4.822v-4.822Zm7.222 0h-4.82v4.822h4.82v-4.822ZM10.273 28.43H5.451v4.821h4.822V28.43Zm7.223 0h-4.821v4.821h4.821V28.43Zm7.224 0h-4.822v4.821h4.822V28.43Zm7.221 0H27.12v4.821h4.822V28.43Zm7.223 0h-4.821v4.821h4.821V28.43Zm7.224 0h-4.822v4.821h4.822V28.43Zm7.222 0h-4.82v4.821h4.82V28.43Zm-43.337 6.603H5.451v4.822h4.822v-4.822Zm7.223 0h-4.821v4.822h4.821v-4.822Zm7.224 0h-4.822v4.822h4.822v-4.822Zm7.221 0H27.12v4.822h4.822v-4.822Zm7.223 0h-4.821v4.822h4.821v-4.822Zm7.224 0h-4.822v4.822h4.822v-4.822Zm7.222 0h-4.82v4.822h4.82v-4.822Zm-43.337 6.603H5.451v4.822h4.822v-4.822Zm7.223 0h-4.821v4.822h4.821v-4.822Zm7.224 0h-4.822v4.822h4.822v-4.822Zm7.221 0H27.12v4.822h4.822v-4.822Zm7.223 0h-4.821v4.822h4.821v-4.822Zm7.224 0h-4.822v4.822h4.822v-4.822Zm7.222 0h-4.82v4.822h4.82v-4.822ZM10.273 48.24H5.451v4.822h4.822v-4.821Zm7.223 0h-4.821v4.822h4.821v-4.821Zm7.224 0h-4.822v4.822h4.822v-4.821Zm7.221 0H27.12v4.822h4.822v-4.821Zm7.223 0h-4.821v4.822h4.821v-4.821Z"/>
  </g>
  <path fill="#F06061" d="M32.345 42.288c-.257 0-.607-.118-.78-.34a151.986 151.986 0 0 0-2.249-2.837 112.26 112.26 0 0 0-1.97 2.034 1.006 1.006 0 0 1-.74.315 1.14 1.14 0 0 1-.768-.299.993.993 0 0 1-.317-.704c-.01-.3.099-.595.302-.81a111.815 111.815 0 0 1 2.128-2.195 161.177 161.177 0 0 0-1.486-1.763c-.392-.457-.39-1.056.006-1.487.187-.203.469-.32.774-.32a.99.99 0 0 1 .76.328 159.896 159.896 0 0 1 1.47 1.74c.451-.437.86-.826 1.244-1.186.206-.193.472-.3.746-.3.275 0 .54.106.75.297.201.185.317.46.319.757a1.05 1.05 0 0 1-.317.77c-.374.352-.746.703-1.103 1.048l-.279.27c.799.983 1.567 1.952 2.288 2.883.135.174.275.395.29.716.01.263-.097.533-.306.76a1.08 1.08 0 0 1-.765.321l.003.002Z"/>
  <path fill="#333" d="M27.244 34.17c.205 0 .41.074.54.227.39.454.777.91 1.16 1.369.17.202.338.407.507.61.485-.47.973-.94 1.467-1.401a.799.799 0 0 1 .547-.222c.195 0 .394.074.553.222.304.279.298.822 0 1.1-.371.347-.739.697-1.106 1.05-.157.151-.314.305-.469.457.83 1.02 1.646 2.046 2.45 3.084.135.173.219.33.229.55.008.208-.092.403-.228.55a.792.792 0 0 1-.55.229c-.175 0-.437-.082-.55-.228a147.09 147.09 0 0 0-2.457-3.091c-.745.746-1.48 1.5-2.203 2.267a.713.713 0 0 1-.53.224.857.857 0 0 1-.572-.224c-.316-.29-.28-.804 0-1.1a104.102 104.102 0 0 1 2.311-2.375c-.548-.661-1.1-1.319-1.659-1.97-.283-.33-.303-.77 0-1.1a.763.763 0 0 1 .56-.226m0-.58c-.386 0-.746.15-.988.414-.492.536-.498 1.307-.013 1.872.415.485.848.997 1.315 1.556a93.487 93.487 0 0 0-1.947 2.013 1.417 1.417 0 0 0-.38 1.02c.013.355.158.677.41.908.26.24.612.376.965.376.352 0 .705-.144.952-.405.552-.585 1.134-1.188 1.738-1.8.346.428.65.808.94 1.172.364.46.734.934 1.101 1.409.243.313.683.453 1.01.453.367 0 .743-.16.978-.417.26-.284.396-.629.38-.97-.017-.403-.195-.682-.348-.88a158.822 158.822 0 0 0-2.125-2.683l.087-.084c.357-.344.727-.695 1.1-1.044.261-.245.411-.604.41-.984a1.318 1.318 0 0 0-.414-.969 1.402 1.402 0 0 0-.947-.374c-.347 0-.684.135-.945.379-.32.299-.656.62-1.022.971a212.01 212.01 0 0 0-1.273-1.503 1.28 1.28 0 0 0-.982-.43h-.002Z"/>
  <path fill="#A8D471" stroke="#333" stroke-miterlimit="10" stroke-width=".581" d="M40.229 30.599a.943.943 0 0 0-1.334 0l-.847.846c-.115-1.992-1.093-3.746-2.686-4.6-1.928-1.032-3.901-.262-3.984-.229-1.986.796-3.252 2.929-3.15 5.307a.942.942 0 1 0 1.884-.081c-.068-1.58.721-2.975 1.962-3.472.013-.004 1.257-.47 2.395.14 1.032.553 1.657 1.803 1.694 3.212l-1.154-1.154a.943.943 0 1 0-1.334 1.334l2.623 2.624a.94.94 0 0 0 .668.276.94.94 0 0 0 .668-.276l2.593-2.595a.943.943 0 0 0 0-1.334l.002.002Z"/>
</svg>
