<svg xmlns="http://www.w3.org/2000/svg" width="70" height="67" fill="none" viewBox="0 0 70 67">
  <path fill="#F3D2BA" d="M40.991 45.003c2.227 3.736 2.513 7.98.816 12.11-.577 1.4-1.42 2.795-2.653 4-2.505 2.446-6.419 3.964-12.29 4.046-5.873.083-9.83-1.324-12.4-3.699a11.406 11.406 0 0 1-2.044-2.523c-3.007-7.669.299-16.41 7.466-20.111 7.407-3.825 16.77-1.152 21.107 6.177h-.002Z"/>
  <path fill="#7D5045" d="M12.372 25.441a16.372 16.372 0 0 1 5.013-3.817c3.744-1.828 7.163-1.671 8.896-1.569 1.439.084 14.403 1.044 18.461 11.391 3.074 7.841-1.235 15.278-1.87 16.336-.275-.82-.8-1.95-1.88-2.779-.69-.528-1.017-.482-2.009-1.073-.847-.506-2.341-1.396-2.833-2.668-.758-1.965 1.042-4.392 1.046-4.39.004 0-1.035 3.43-3.261 6.038-2.366 2.77-5.401 3.81-6.26 4.105-.354.122-1.833.615-3.88.79-4.224.36-5.544-1.09-8.271-.082-.805.299-2.444.86-3.01 2.273-.16.403-.283.99.401 4.669.169.907.321 1.652.429 2.16a3.96 3.96 0 0 1-.495 1.474c-.425.741-1.178 1.255-2.033 1.29-.042.002-.087.002-.131.002-3.46-.028-6.497-7.259-6.816-8.035-1.4-3.414-4.23-10.431-.795-17.521.591-1.22 2.97-5.828 8.24-7.93a14.677 14.677 0 0 1 5.033-1.026l-3.973.36-.002.002Z"/>
  <path fill="#F06061" d="M41.807 57.112a29.74 29.74 0 0 1-3.866-.348c-2.823-.44-3.932-1.024-4.468-.45-.652.696-.02 2.641 1.107 3.763 1.656 1.646 4.084 1.224 4.372 1.17"/>
  <path stroke="#F9CB6A" stroke-linecap="round" stroke-linejoin="round" stroke-width="1.298" d="M47.562 53.115c1.087.921 1.578 2.336 1.263 3.649-.366 1.516-1.645 2.219-1.854 2.33"/>
  <path stroke="#F9CB6A" stroke-linecap="round" stroke-linejoin="round" stroke-width="1.298" d="M49.431 49.82c2.258 1.917 3.284 4.86 2.627 7.593-.758 3.155-3.419 4.618-3.854 4.848"/>
  <path stroke="#F9CB6A" stroke-linecap="round" stroke-linejoin="round" stroke-width="1.298" d="M52.036 47.944c3.17 2.692 4.611 6.825 3.69 10.663-1.065 4.43-4.802 6.485-5.414 6.808"/>
  <path stroke="#333" stroke-linecap="round" stroke-linejoin="round" d="M37.196 36.871c-.337 1.24-1.598 5.253-5.592 8.158-4.887 3.556-10.212 2.792-11.243 2.624m-3.806 9.027c-3.178-.52-5-3.7-4.202-6.26.8-2.558 4.11-4.132 7.018-2.752"/>
  <path stroke="#333" stroke-linecap="round" stroke-linejoin="round" d="M12.372 25.441a16.372 16.372 0 0 1 5.014-3.817c3.743-1.828 7.162-1.671 8.897-1.569 1.41.082 14.454 1.048 18.461 11.391 2.961 7.643-1.15 14.89-1.802 15.997"/>
  <path stroke="#333" stroke-linecap="round" stroke-linejoin="round" d="M13.344 56.823a3.96 3.96 0 0 1-.495 1.474c-.425.742-1.178 1.255-2.033 1.29-.042.002-.087.002-.131.002-3.46-.028-6.497-7.258-6.816-8.035-1.4-3.414-4.23-10.431-.795-17.521.591-1.22 2.97-5.828 8.24-7.93a14.677 14.677 0 0 1 5.033-1.025M36.15 41.262a7.568 7.568 0 0 0 1.8 2.134 7.643 7.643 0 0 0 3.605 1.6"/>
  <path stroke="#333" stroke-linecap="round" stroke-linejoin="round" d="M39.475 44.02c.625-.117.961-1.126.751-2.256-.21-1.13-.887-1.95-1.512-1.835-.625.116-.962 1.126-.752 2.256.21 1.13.887 1.951 1.513 1.835Z"/>
  <path stroke="#333" stroke-linecap="round" stroke-linejoin="round" stroke-width="4" d="m34.45 49.436.032 2.248"/>
  <path stroke="#333" stroke-linecap="round" stroke-linejoin="round" d="M15.073 50.391c.848-.378 1.836-.276 2.538.262a2.292 2.292 0 0 1 .698 2.721"/>
  <path stroke="#333" stroke-linecap="round" stroke-linejoin="round" d="M16.458 53.95c-.65-.305-1.023-.932-.936-1.495.117-.753 1.05-1.374 2.062-1.12m14.202-5.312a3.608 3.608 0 0 1 2.01-.903 3.63 3.63 0 0 1 2.417.623m5.594 11.369a29.74 29.74 0 0 1-3.866-.348c-2.823-.44-3.932-1.024-4.468-.45-.652.696-.02 2.641 1.107 3.763 1.656 1.646 4.084 1.224 4.372 1.17"/>
  <path stroke="#333" stroke-linecap="round" stroke-linejoin="round" d="M40.991 45.003c2.227 3.736 2.513 7.98.816 12.11-.577 1.4-1.42 2.795-2.653 4-2.505 2.446-6.419 3.964-12.29 4.046-5.873.083-9.83-1.324-12.4-3.699a11.406 11.406 0 0 1-2.044-2.523"/>
  <path fill="#66A9EB" stroke="#333" stroke-linecap="round" stroke-linejoin="round" d="M62.927 1.114H42.153a6.153 6.153 0 0 0 0 12.306h20.774a6.153 6.153 0 0 0 0-12.306Z"/>
  <path fill="#66A9EB" d="M43.42 12.251c.094 1.043 0 2.247-.724 3.196-.934 1.227-2.392 1.341-2.344 1.534.07.276 3.252.548 5.282-1.535.953-.978 1.284-2.094 1.406-2.64"/>
  <path stroke="#333" stroke-linecap="round" stroke-linejoin="round" d="M43.42 12.251c.094 1.043 0 2.247-.724 3.196-.934 1.227-2.392 1.341-2.344 1.534.07.276 3.252.548 5.282-1.535.953-.978 1.284-2.094 1.406-2.64"/>
  <path stroke="#FFFCF9" stroke-dasharray="2.78 2.78" stroke-linecap="round" stroke-linejoin="round" d="M43.538 7.267H61.54"/>
</svg>
