<svg xmlns="http://www.w3.org/2000/svg" width="68" height="66" fill="none" viewBox="0 0 68 66">
  <path fill="#F9CB6A" stroke="#333" stroke-miterlimit="10" stroke-width="1.37" d="M30.861 65.032c16.492 0 29.862-13.37 29.862-29.861 0-16.492-13.37-29.862-29.862-29.862C14.37 5.31 1 18.68 1 35.171c0 16.492 13.37 29.861 29.861 29.861Z"/>
  <path stroke="#333" stroke-linecap="round" stroke-linejoin="round" stroke-width="1.37" d="M13.546 32.386c.801-1.083 1.656-1.57 2.217-1.807 2.576-1.085 6.068.141 8.698 3.109m23.751-8.07c-.8-1.083-1.656-1.57-2.216-1.807-2.576-1.085-6.069.141-8.698 3.109"/>
  <path fill="#333" d="M41.508 45.175c-2.368 0-4.288-1.65-4.288-3.683v-4.119c0-2.035 1.92-3.683 4.288-3.683 2.367 0 4.287 1.65 4.287 3.683v4.119c0 2.035-1.92 3.683-4.288 3.683Zm-21.261 0c-2.367 0-4.287-1.65-4.287-3.683v-4.119c0-2.035 1.92-3.683 4.287-3.683s4.288 1.65 4.288 3.683v4.119c0 2.035-1.92 3.683-4.288 3.683Z"/>
  <path fill="#F06061" stroke="#333" stroke-miterlimit="10" stroke-width="1.37" d="M30.613 55.752a3.425 3.425 0 1 0 0-6.85 3.425 3.425 0 0 0 0 6.85ZM64.897 2.827C66.3 4.045 67 5.763 67 7.98c0 2.045-.668 3.637-2.005 4.778-1.106.942-2.503 1.505-4.193 1.684a1.34 1.34 0 0 0-1.188 1.25 1.35 1.35 0 0 1-1.346 1.26H55.95c-.731 0-1.33-.582-1.347-1.311l-.092-3.37a1.349 1.349 0 0 1 1.348-1.385h.57c1.674 0 2.952-.207 3.833-.62.88-.414 1.322-1.163 1.322-2.25 0-.762-.207-1.36-.62-1.795-.414-.436-.99-.652-1.73-.652-.783 0-1.391.222-1.827.668a2.177 2.177 0 0 0-.518.874 1.343 1.343 0 0 1-1.283.934h-2.661c-.83 0-1.479-.745-1.332-1.562a6.46 6.46 0 0 1 .724-2.025c.598-1.066 1.488-1.909 2.675-2.529 1.185-.62 2.614-.93 4.29-.93 2.327 0 4.192.608 5.595 1.827ZM54.752 24.568a2.8 2.8 0 0 1-.93-2.137c0-.848.31-1.598.93-2.186.62-.588 1.419-.88 2.397-.88.978 0 1.745.294 2.365.88.62.586.93 1.316.93 2.186 0 .871-.31 1.56-.93 2.137-.62.577-1.407.865-2.365.865-.958 0-1.777-.288-2.397-.865Z"/>
</svg>
