<svg xmlns="http://www.w3.org/2000/svg" width="65" height="85" fill="none" viewBox="0 0 65 85">
  <path fill="#468A40" stroke="#333" stroke-linecap="round" stroke-linejoin="round" stroke-width=".88" d="M10.426 1.077a13.53 13.53 0 0 0-.708 2.504s-.313 1.726-.184 3.382c.342 4.363 5.084 9.233 5.517 8.93.316-.223-2.543-2.608-2.91-6.973-.286-3.416 1.108-6.218-.34-7.4-.444-.363-.99-.437-1.374-.445v.002Z"/>
  <path fill="#A43A88" stroke="#333" stroke-linecap="round" stroke-linejoin="round" stroke-width=".88" d="M13.418 32.328a4.616 4.616 0 1 0-.316-9.228 4.616 4.616 0 0 0 .316 9.228Z"/>
  <path fill="#DAA8CD" d="M12.52 26.14c1.02-.218 1.747-.863 1.624-1.44-.124-.576-1.05-.866-2.07-.648-1.02.218-1.748.862-1.624 1.439.123.576 1.05.867 2.07.649Z"/>
  <path fill="#A43A88" stroke="#333" stroke-linecap="round" stroke-linejoin="round" stroke-width=".88" d="M23.607 42.24a4.616 4.616 0 1 0-.316-9.228 4.616 4.616 0 0 0 .316 9.227Z"/>
  <path fill="#DAA8CD" d="M22.708 36.054c1.02-.218 1.747-.862 1.624-1.439-.124-.576-1.05-.867-2.07-.649-1.02.218-1.748.863-1.624 1.44.123.576 1.05.867 2.07.648Z"/>
  <path fill="#A43A88" stroke="#333" stroke-linecap="round" stroke-linejoin="round" stroke-width=".88" d="M17.382 37.698a4.616 4.616 0 1 0-.316-9.227 4.616 4.616 0 0 0 .316 9.227Z"/>
  <path fill="#DAA8CD" d="M16.483 31.512c1.02-.218 1.747-.863 1.624-1.44-.123-.576-1.05-.866-2.07-.648-1.02.218-1.748.862-1.624 1.439.123.576 1.05.867 2.07.649Z"/>
  <path fill="#A43A88" stroke="#333" stroke-linecap="round" stroke-linejoin="round" stroke-width=".88" d="M26.774 35.51a4.616 4.616 0 1 0-.316-9.227 4.616 4.616 0 0 0 .316 9.227Z"/>
  <path fill="#DAA8CD" d="M25.876 29.323c1.02-.218 1.747-.862 1.624-1.439-.123-.576-1.05-.867-2.07-.649-1.02.218-1.747.863-1.624 1.44.123.576 1.05.867 2.07.648Z"/>
  <path fill="#A43A88" stroke="#333" stroke-linecap="round" stroke-linejoin="round" stroke-width=".88" d="M19.93 32.031a4.616 4.616 0 1 0-.317-9.227 4.616 4.616 0 0 0 .317 9.227Z"/>
  <path fill="#DAA8CD" d="M19.032 25.845c1.02-.218 1.747-.863 1.624-1.44-.124-.576-1.05-.867-2.07-.648-1.02.218-1.748.862-1.624 1.439.123.576 1.05.867 2.07.649Z"/>
  <path fill="#A43A88" stroke="#333" stroke-linecap="round" stroke-linejoin="round" stroke-width=".88" d="M26.841 28.845a4.616 4.616 0 1 0-.316-9.227 4.616 4.616 0 0 0 .316 9.227Z"/>
  <path fill="#DAA8CD" d="M25.942 22.66c1.02-.218 1.748-.863 1.624-1.44-.123-.576-1.05-.866-2.07-.648-1.02.218-1.747.862-1.624 1.439.123.576 1.05.867 2.07.649Z"/>
  <path fill="#A43A88" stroke="#333" stroke-linecap="round" stroke-linejoin="round" stroke-width=".88" d="M26.095 20.168a4.616 4.616 0 1 0-.316-9.228 4.616 4.616 0 0 0 .316 9.228Z"/>
  <path fill="#DAA8CD" d="M25.198 13.982c1.02-.218 1.747-.862 1.623-1.439-.123-.576-1.05-.867-2.07-.649-1.02.218-1.747.863-1.624 1.44.124.576 1.05.866 2.07.648Z"/>
  <path fill="#A43A88" stroke="#333" stroke-linecap="round" stroke-linejoin="round" stroke-width=".88" d="M19.816 23.964a4.616 4.616 0 1 0-.317-9.227 4.616 4.616 0 0 0 .317 9.227Z"/>
  <path fill="#DAA8CD" d="M18.918 17.778c1.02-.218 1.747-.862 1.624-1.44-.124-.576-1.05-.866-2.07-.648-1.02.218-1.748.862-1.624 1.439.123.577 1.05.867 2.07.649Z"/>
  <path fill="#A43A88" stroke="#333" stroke-linecap="round" stroke-linejoin="round" stroke-width=".88" d="M13.867 26.484a4.616 4.616 0 1 0-.316-9.227 4.616 4.616 0 0 0 .316 9.227Z"/>
  <path fill="#DAA8CD" d="M12.969 20.296c1.02-.218 1.747-.862 1.624-1.439-.124-.576-1.05-.867-2.07-.649-1.02.219-1.748.863-1.624 1.44.123.576 1.05.867 2.07.648Z"/>
  <path fill="#A43A88" stroke="#333" stroke-linecap="round" stroke-linejoin="round" stroke-width=".88" d="M7.767 32.127A4.616 4.616 0 1 0 7.45 22.9a4.616 4.616 0 0 0 .316 9.227Z"/>
  <path fill="#DAA8CD" d="M6.868 25.94c1.02-.217 1.747-.862 1.624-1.438-.123-.577-1.05-.867-2.07-.65-1.02.219-1.747.863-1.624 1.44.123.576 1.05.867 2.07.649Z"/>
  <path fill="#A43A88" stroke="#333" stroke-linecap="round" stroke-linejoin="round" stroke-width=".88" d="M20.851 16.377a4.616 4.616 0 1 0-.316-9.227 4.616 4.616 0 0 0 .316 9.227Z"/>
  <path fill="#DAA8CD" d="M19.954 10.19c1.02-.218 1.747-.863 1.624-1.44-.124-.576-1.05-.866-2.07-.648-1.02.218-1.748.862-1.624 1.439.123.576 1.05.867 2.07.649Z"/>
  <path fill="#A43A88" stroke="#333" stroke-linecap="round" stroke-linejoin="round" stroke-width=".88" d="M13.284 19.609a4.616 4.616 0 1 0-.316-9.228 4.616 4.616 0 0 0 .316 9.228Z"/>
  <path fill="#DAA8CD" d="M12.386 13.422c1.02-.219 1.747-.863 1.624-1.44-.123-.576-1.05-.866-2.07-.648-1.02.218-1.747.862-1.624 1.439.123.576 1.05.867 2.07.649Z"/>
  <path fill="#A43A88" stroke="#333" stroke-linecap="round" stroke-linejoin="round" stroke-width=".88" d="M6.318 23.475a4.616 4.616 0 1 0-.316-9.227 4.616 4.616 0 0 0 .316 9.227Z"/>
  <path fill="#DAA8CD" d="M5.42 17.288c1.02-.218 1.748-.863 1.625-1.44-.124-.576-1.05-.867-2.07-.648-1.02.218-1.748.862-1.625 1.439.124.576 1.05.867 2.07.649Z"/>
  <path fill="#FDF6ED" d="M8.813 60.718a125.95 125.95 0 0 1-.93-8.292c-.38-4.804-.25-6.674.761-8.544.442-.818 1.4-2.587 3.13-2.835 1.364-.194 2.773.619 3.554 1.65 1.433 1.895.285 3.932.508 7.571.098 1.6.488 3.948 1.916 6.78a5.214 5.214 0 0 1-3.226 4.853 5.214 5.214 0 0 1-5.71-1.185l-.003.002Z"/>
  <mask id="a" width="11" height="22" x="7" y="41" maskUnits="userSpaceOnUse" style="mask-type:luminance">
    <path fill="#fff" d="M8.813 60.718a125.95 125.95 0 0 1-.93-8.292c-.38-4.804-.25-6.674.761-8.544.442-.818 1.4-2.587 3.13-2.835 1.364-.194 2.773.619 3.554 1.65 1.433 1.895.285 3.932.508 7.571.098 1.6.488 3.948 1.916 6.78a5.214 5.214 0 0 1-3.226 4.853 5.214 5.214 0 0 1-5.71-1.185l-.003.002Z"/>
  </mask>
  <g mask="url(#a)">
    <path fill="#F3D2B9" d="M15.693 66.6a44.822 44.822 0 0 1-1.483-2.641 44.158 44.158 0 0 1-3.402-9.881 44.122 44.122 0 0 1-.701-10.483c.053-.642.118-1.284.199-1.923.132-1.058.021-2.078-.593-2.983-.529-.78-1.51-1.49-2.455-1.64-1.958-.311-4.352.874-4.623 3.046C1.61 48.297 2.63 56.75 5.84 64.388a49.954 49.954 0 0 0 3.369 6.6c1.065 1.753 3.796 2.266 5.436 1.047 1.77-1.314 2.187-3.561 1.047-5.436h.001Z"/>
  </g>
  <path stroke="#333" stroke-miterlimit="10" stroke-width="1.008" d="M8.813 60.718a125.95 125.95 0 0 1-.93-8.292c-.38-4.804-.25-6.674.761-8.544.442-.818 1.4-2.587 3.13-2.835 1.364-.194 2.773.619 3.554 1.65 1.433 1.895.285 3.932.508 7.571.098 1.6.488 3.948 1.916 6.78a5.214 5.214 0 0 1-3.226 4.853 5.214 5.214 0 0 1-5.71-1.185l-.003.002Z"/>
  <path fill="#F3D2B9" d="M19.219 57.418c3.159-.387 5.765 1.736 6.853 2.623 1.661 1.354 3.097 3.17 3.933 4.23 1.197 1.515 1.996 2.779 3.469 3.003.239.036 1.388.212 1.861-.38 1.064-1.334-1.846-5.874-5.161-8.756-1.997-1.736-4.2-3.651-7.403-3.553-2.901.089-4.97 1.78-5.753 2.495m-3.658 3.733s-.662-.096-1.364.285c-1.986 1.081-1.28 10.913-1.28 10.913.112 1.544.372 4.616-.17 8.418-.188 1.33-.476 2.763-1.396 3.088-.664.235-1.486-.168-2.539-1.058-4.224-3.569-5.414-9.257-5.541-9.898-.56-2.85-1.15-5.848.592-8.08.827-1.06 1.844-1.511 3.341-2.156 1.608-.693 4.436-1.63 8.355-1.512"/>
  <path fill="#F9CB6A" d="M10.631 69.791a19.64 19.64 0 0 0 4.315 5.077c.818.68 4.751 3.845 10.723 4.441 4.07.406 6.618-.625 7.36-.951 1.17-.516 3.138-1.38 3.49-3.11.213-1.048-.16-2.45-1.015-2.855-.575-.274-1.204-.022-1.46.063-2.674.894-6.855-2.135-8.375-3.236-2.736-1.983-6.17-4.527-5.965-7.995.095-1.614.949-2.888 1.662-3.706a5.442 5.442 0 0 0-2.297-.196c-.512.068-2.09.274-2.98 1.436-.967 1.262-.425 2.742-1.081 2.974-.652.229-1.302-1.192-2.188-1.11-.62.056-1.335.842-2.005 3.513l-.184 5.657v-.002Z"/>
  <mask id="b" width="27" height="23" x="10" y="57" maskUnits="userSpaceOnUse" style="mask-type:luminance">
    <path fill="#fff" d="M10.631 69.791a19.64 19.64 0 0 0 4.315 5.077c.818.68 4.751 3.845 10.723 4.441 4.07.406 6.618-.625 7.36-.951 1.17-.516 3.138-1.38 3.49-3.11.213-1.048-.16-2.45-1.015-2.855-.575-.274-1.204-.022-1.46.063-2.674.894-6.855-2.135-8.375-3.236-2.736-1.983-6.17-4.527-5.965-7.995.095-1.614.949-2.888 1.662-3.706a5.442 5.442 0 0 0-2.297-.196c-.512.068-2.09.274-2.98 1.436-.967 1.262-.425 2.742-1.081 2.974-.652.229-1.302-1.192-2.188-1.11-.62.056-1.335.842-2.005 3.513l-.184 5.657v-.002Z"/>
  </mask>
  <g mask="url(#b)">
    <path fill="#F5A759" d="M40.96 76.553c-.306-.947-.894-1.861-1.798-2.34-.987-.52-1.919-.57-3.016-.394l-.084.013c-1.796.2-3.6.2-5.397.005a24.876 24.876 0 0 1-5.185-1.414 24.017 24.017 0 0 1-4.332-2.533 24.881 24.881 0 0 1-3.64-3.644 24.553 24.553 0 0 1-2.62-4.483c-.025-.066-.054-.134-.08-.2-.38-.98-.861-1.791-1.798-2.34-.84-.49-2.076-.698-3.017-.394-.947.306-1.861.894-2.34 1.798-.463.877-.768 2.05-.394 3.016 1.722 4.436 4.39 8.493 8.07 11.555 3.848 3.202 8.461 5.482 13.443 6.22 1.553.23 3.105.407 4.676.402 1.604-.006 3.197-.199 4.78-.452.908-.146 1.894-1.04 2.34-1.798.49-.84.698-2.077.394-3.017h-.002Z"/>
  </g>
  <path stroke="#333" stroke-linecap="round" stroke-linejoin="round" stroke-width="1.008" d="M10.631 69.791a19.639 19.639 0 0 0 4.315 5.077c.818.68 4.751 3.845 10.723 4.441 4.07.406 6.618-.625 7.36-.951 1.17-.516 3.138-1.38 3.49-3.11.213-1.049-.16-2.45-1.015-2.855-.575-.274-1.204-.022-1.46.063-2.674.894-6.855-2.135-8.375-3.237-2.736-1.982-6.17-4.526-5.965-7.994.095-1.614.949-2.888 1.662-3.706"/>
  <path stroke="#333" stroke-linecap="round" stroke-linejoin="round" stroke-width="1.008" d="M15.774 63.605c-.065-.134-1.257-2.684.103-4.579.956-1.331 2.583-1.514 3.342-1.606 3.159-.388 5.765 1.736 6.853 2.623 1.662 1.353 3.097 3.17 3.933 4.23 1.197 1.514 1.996 2.778 3.469 3.003.239.036 1.388.212 1.861-.38 1.064-1.335-1.846-5.874-5.161-8.757-2.168-1.884-4.34-3.787-7.403-3.553-3.38.26-5.516 2.934-6.024 3.607"/>
  <path stroke="#333" stroke-linecap="round" stroke-linejoin="round" stroke-width="1.008" d="M15.803 63.731a4.069 4.069 0 0 0-.624-1.45 4.162 4.162 0 0 0-1.82-1.468s-.662-.096-1.364.285c-1.986 1.081-1.28 10.913-1.28 10.913.112 1.544.371 4.616-.17 8.418-.189 1.33-.477 2.763-1.397 3.088-.664.235-1.486-.168-2.538-1.058-4.224-3.569-5.415-9.257-5.542-9.898-.56-2.85-1.15-5.848.592-8.08.828-1.06 1.844-1.511 3.342-2.156 1.608-.693 4.436-1.63 8.354-1.512m-4.543-.095a125.95 125.95 0 0 1-.93-8.292c-.38-4.804-.25-6.674.761-8.544.442-.818 1.4-2.587 3.13-2.835 1.364-.194 2.773.619 3.554 1.65 1.433 1.895.285 3.932.508 7.571.098 1.6.488 3.948 1.916 6.78"/>
  <path fill="#F06061" stroke="#333" stroke-linecap="round" stroke-linejoin="round" d="M47.122 62.45c-1.154-.078-2.08.455-2.416.654-1.015.604-1.157 1.213-2.093 1.487a2.931 2.931 0 0 1-1.385.047s-.596-.105-1.166-.445c-1.329-.788-12.111-17.07-5.033-25.267.277-.322 3.285-3.696 7.488-3.213 2.776.319 4.658 2.16 5.554 3.25a.774.774 0 0 0 1.127.072c1.029-.965 3.132-2.55 5.926-2.51 4.23.062 6.78 3.794 7.013 4.149 5.967 9.038-6.819 23.799-8.237 24.412-.608.262-1.213.29-1.213.29-.342.02-.843.002-1.368-.224-.938-.405-1.006-1.067-1.997-1.807-.324-.242-1.118-.822-2.2-.895Z"/>
  <path fill="#83BA4F" stroke="#333" stroke-linecap="round" stroke-linejoin="round" d="M58.22 33.53a17.5 17.5 0 0 1-3.807 4.752 17.506 17.506 0 0 1-5.932 3.42c-.007-.522.005-3.713 2.58-6.122 2.957-2.765 6.752-2.128 7.158-2.052v.002Z"/>
  <path fill="#7D5045" d="m48.528 41.554.419-2.897s1.453-11.774-1.9-12.744c-3.354-.969 1.513 4.712.699 15.543"/>
  <path stroke="#333" stroke-linecap="round" stroke-linejoin="round" d="m48.528 41.554.419-2.897s1.453-11.774-1.9-12.744c-3.354-.969 1.513 4.712.699 15.543"/>
  <path stroke="#333" stroke-linecap="round" stroke-linejoin="round" d="M51.942 41.85c-.203.1-2.264 1.075-4.24-.03-1.19-.666-1.707-1.726-1.877-2.124"/>
</svg>
