<svg xmlns="http://www.w3.org/2000/svg" width="69" height="77" fill="none" viewBox="0 0 69 77">
  <path fill="#A8D471" d="M1 75.591c1.21-8.417 3.744-14.66 5.736-18.652 1.91-3.831 3.512-5.966 5.886-7.744 3.723-2.785 7.838-3.569 10.155-3.83h23.444c2.317.261 6.432 1.045 10.155 3.83 2.374 1.776 3.975 3.913 5.886 7.744 1.992 3.992 4.525 10.235 5.736 18.652"/>
  <path fill="#F3D2BA" d="M53.856 29.566c.01 1.742.16 8.988-4.764 13.662-3 2.848-7.65 4.576-14.59 4.576-6.939 0-11.59-1.728-14.59-4.577-4.931-4.68-4.777-11.857-4.764-13.661 2.19-8.613 9.646-14.81 18.221-15.292 9.353-.526 18.059 5.857 20.491 15.292h-.004Z"/>
  <path fill="#F3D2BA" d="M15.977 37.638c-.23.053-.513.093-.835.081-1.732-.06-4.287-1.586-4.287-4.286 0-2.351 1.936-4.287 4.287-4.287l.835 8.493v-.001Zm37.881-8.493a4.287 4.287 0 1 1-.806 8.496l.806-8.498v.002Z"/>
  <path fill="#7D5045" d="M55.996 12.817C51.943 3.819 41.088-.56 32.95 1.506a15.99 15.99 0 0 0-4.777 2.108l-2.038.35c-1.27-.07-3.262-.02-5.48.773-6.12 2.19-8.518 8.104-8.994 9.275-3.048 7.512.508 14.478 1.081 15.556l2.643-.589c1.9-.504 5.078-1.61 8.293-4.14a22.979 22.979 0 0 0 5.665-6.542l-.478-1.704c.883 2.46 2.613 5.7 5.985 7.679 2.43 1.427 6.75 2.808 8.463 1.243 1.438.952 2.96 1.554 4.29 2.075a24.894 24.894 0 0 0 6.258 1.554l1.962.08c.664-1.573 3.56-8.893.176-16.405l-.002-.002Z"/>
  <path stroke="#333" stroke-linecap="round" stroke-linejoin="round" stroke-width="1.25" d="M46.222 45.366c2.317.262 6.433 1.046 10.156 3.831 2.373 1.776 3.975 3.913 5.886 7.744 1.992 3.992 4.525 10.235 5.736 18.652M22.78 45.366c-2.318.262-6.433 1.045-10.156 3.831-2.374 1.776-3.975 3.913-5.886 7.744-1.993 3.992-4.526 10.235-5.736 18.652"/>
  <path stroke="#333" stroke-linecap="round" stroke-linejoin="round" stroke-width="1.25" d="M53.856 29.566c.01 1.742.16 8.988-4.765 13.662-3 2.848-7.65 4.576-14.59 4.576-6.938 0-11.59-1.728-14.59-4.576-4.93-4.681-4.777-11.858-4.764-13.662m12.955-15.69c.395 1.91 1.816 7.498 6.745 10.394 2.52 1.48 7.072 2.91 8.643 1.059 1.084-1.28.427-3.75-.491-5.2-1.218-1.922-3.636-3.202-4.324-2.627-.735.613.381 3.472 1.844 5.415 2.02 2.687 4.827 3.787 7.083 4.673a24.894 24.894 0 0 0 6.258 1.555"/>
  <path stroke="#333" stroke-linecap="round" stroke-linejoin="round" stroke-width="1.25" d="M29.34 18.295a22.918 22.918 0 0 1-5.665 6.542 22.944 22.944 0 0 1-8.292 4.14m.594 8.661c-.23.053-.513.093-.835.081-1.732-.06-4.287-1.586-4.287-4.286 0-2.351 1.936-4.287 4.287-4.287m38.716-.001a4.287 4.287 0 1 1-.806 8.496M28.172 3.612a15.989 15.989 0 0 1 4.778-2.108c8.136-2.065 18.993 2.313 23.046 11.313 3.384 7.512.49 14.834-.176 16.405m-43.079.344c-.573-1.078-4.129-8.042-1.081-15.556.474-1.17 2.873-7.085 8.994-9.275 2.218-.793 4.21-.842 5.48-.772M34.5 43.311a1.905 1.905 0 1 0 0-3.81 1.905 1.905 0 0 0 0 3.81Z"/>
  <path stroke="#333" stroke-linecap="round" stroke-linejoin="round" stroke-width="4.079" d="M41.959 33.108v2.423"/>
  <path stroke="#333" stroke-linecap="round" stroke-linejoin="round" stroke-width="1.25" d="m40.025 29.573 3.867-1.738"/>
  <path stroke="#333" stroke-linecap="round" stroke-linejoin="round" stroke-width="4.079" d="M27.043 33.108v2.423"/>
  <path stroke="#333" stroke-linecap="round" stroke-linejoin="round" stroke-width="1.25" d="m28.976 29.573-3.867-1.738"/>
  <path fill="#A8D471" d="M45.617 71.8a165.1 165.1 0 0 0-16.123-15.81 164.934 164.934 0 0 0-7.434-5.986 2.985 2.985 0 0 0-4.228 4.123A120.767 120.767 0 0 0 34.896 73.15"/>
  <path fill="#F3D2BA" d="m19.102 46.681.038.059a16.67 16.67 0 0 0 .116-2.702c-.088-2.214-.558-2.696-.735-2.85-.309-.271-.888-.59-1.343-.383-.512.231-.791 1.09-.48 2.074l.772 1.22c-1.48-2.015-3.334-4.431-5.766-4.315-1.211.057-2.606.744-3.16 1.913-.869 1.838.72 4.079 1.583 5.295 2.04 2.877 4.937 4.192 6.743 4.797l3.336-2.578c-.248-.703-.6-1.573-1.102-2.532l-.002.002Z"/>
  <path stroke="#333" stroke-linecap="round" stroke-linejoin="round" stroke-width="1.25" d="M45.617 71.8a165.1 165.1 0 0 0-16.123-15.81 164.934 164.934 0 0 0-7.434-5.986 2.985 2.985 0 0 0-4.228 4.123A120.767 120.767 0 0 0 34.896 73.15"/>
  <path stroke="#333" stroke-linecap="round" stroke-linejoin="round" stroke-width="1.25" d="M16.869 51.79c-1.807-.604-4.704-1.92-6.744-4.796-.863-1.218-2.452-3.457-1.583-5.296.553-1.17 1.95-1.855 3.16-1.913 2.516-.119 4.413 2.47 5.918 4.522a19.029 19.029 0 0 1 2.586 4.907"/>
  <path stroke="#333" stroke-linecap="round" stroke-linejoin="round" stroke-width=".893" d="M9.32 41.328c.987 1.228 1.974 2.454 2.963 3.681m-1.534-4.658 2.476 3.099m-1.114-3.792 2.84 3.338"/>
  <path stroke="#333" stroke-linecap="round" stroke-linejoin="round" stroke-width=".909" d="M16.696 42.878c-.31-.983-.03-1.842.48-2.074.455-.206 1.034.112 1.343.384.177.155.647.635.735 2.85a16.67 16.67 0 0 1-.116 2.702"/>
  <path fill="#A8D471" d="M23.384 71.8a165.09 165.09 0 0 1 16.123-15.81c2.517-2.15 5.002-4.14 7.435-5.986a2.984 2.984 0 0 1 4.228 4.123A121.125 121.125 0 0 1 34.105 73.15"/>
  <path fill="#F3D2BA" d="M60.46 41.696c-.553-1.17-1.95-1.855-3.16-1.912-2.432-.116-4.286 2.3-5.766 4.315l.772-1.22c.31-.983.03-1.843-.48-2.074-.456-.207-1.034.111-1.344.383-.176.155-.647.636-.734 2.85-.026.656-.023 1.584.116 2.702l.038-.059a18.917 18.917 0 0 0-1.103 2.531l3.336 2.579c1.806-.605 4.704-1.92 6.744-4.797.863-1.218 2.451-3.457 1.582-5.296l-.002-.002Z"/>
  <path stroke="#333" stroke-linecap="round" stroke-linejoin="round" stroke-width="1.25" d="M23.384 71.8a165.078 165.078 0 0 1 16.123-15.81c2.517-2.15 5.002-4.14 7.435-5.986a2.984 2.984 0 0 1 4.228 4.123A121.125 121.125 0 0 1 34.105 73.15"/>
  <path stroke="#333" stroke-linecap="round" stroke-linejoin="round" stroke-width="1.25" d="M52.133 51.791c1.807-.605 4.704-1.92 6.744-4.797.863-1.218 2.451-3.457 1.582-5.296-.552-1.17-1.948-1.855-3.159-1.912-2.516-.12-4.413 2.468-5.918 4.521a19.026 19.026 0 0 0-2.586 4.907"/>
  <path stroke="#333" stroke-linecap="round" stroke-linejoin="round" stroke-width=".893" d="M59.681 41.328c-.986 1.228-1.973 2.454-2.962 3.681m1.534-4.658c-.826 1.032-1.651 2.066-2.476 3.099m1.111-3.792-2.84 3.338"/>
  <path stroke="#333" stroke-linecap="round" stroke-linejoin="round" stroke-width=".909" d="M52.306 42.878c.31-.983.03-1.842-.48-2.074-.455-.206-1.034.112-1.343.384-.177.155-.647.635-.735 2.85-.026.656-.023 1.584.116 2.702"/>
</svg>
