<svg xmlns="http://www.w3.org/2000/svg" width="63" height="72" fill="none" viewBox="0 0 63 72">
  <path fill="#F5A759" stroke="#333" stroke-linecap="round" stroke-linejoin="round" stroke-width="1.398" d="M47.958 70.747 15.19 64.72a.922.922 0 0 1-.752-1.108L25.75 13.22c.29-1.29 1.605-2.139 2.934-1.895l31.32 5.76c1.33.245 2.174 1.49 1.884 2.78L50.89 68.853c-.29 1.29-1.605 2.139-2.935 1.895h.003Z"/>
  <path fill="#F5A759" stroke="#333" stroke-linecap="round" stroke-linejoin="round" stroke-width="1.398" d="M10.051 60.58c1.804-1.26 4.055-.792 4.917.562.6.943.51 2.288-.178 3.407l-4.739-3.97Z"/>
  <path fill="#FDF6ED" d="m46.56 69.305-31.597-5.811c-.512-.095-.837-.56-.727-1.044l10.662-47.24c.272-1.21 1.534-2 2.817-1.764L57.914 19c1.284.235 2.101 1.409 1.829 2.618L49.38 67.54c-.273 1.211-1.534 2-2.818 1.765h-.002Z"/>
  <path fill="#F06061" stroke="#333" stroke-linecap="round" stroke-linejoin="round" stroke-width="1.391" d="m43.195 66.885-26.79-4.818c-1.684-.303-2.745-1.894-2.372-3.558l10.842-48.316c.374-1.661 2.04-2.765 3.724-2.462l26.79 4.818c1.683.303 2.745 1.895 2.371 3.559L46.918 64.426c-.374 1.661-2.04 2.764-3.723 2.461v-.002Z"/>
  <path fill="#F5A759" stroke="#333" stroke-linecap="round" stroke-linejoin="round" stroke-width="1.382" d="m14.598 61.744-3.723-.668a1.296 1.296 0 0 1-1.046-1.572l11.598-51.68a1.438 1.438 0 0 1 1.644-1.088l3.723.668a1.296 1.296 0 0 1 1.046 1.571L16.244 60.654a1.438 1.438 0 0 1-1.643 1.088l-.003.002Z"/>
  <path fill="#FFF9F1" d="m44.724 35.649-13.668-2.457a1.433 1.433 0 0 1-1.158-1.739l2.12-9.448a1.592 1.592 0 0 1 1.82-1.205l13.669 2.457c.822.147 1.34.926 1.158 1.739l-2.12 9.448a1.592 1.592 0 0 1-1.82 1.205Z"/>
  <path stroke="#333" stroke-linecap="round" stroke-linejoin="round" stroke-width="1.391" d="m35.208 24.954 9.901 2.152M34.76 29.19l9.833 1.617"/>
  <path fill="#F5A759" stroke="#333" stroke-linecap="round" stroke-linejoin="round" stroke-width="1.398" d="M40.997 59.384 7.712 60.88a.92.92 0 0 1-.98-.91L6.427 8.325c-.01-1.323 1.08-2.444 2.433-2.506l31.814-1.43c1.352-.062 2.453.962 2.461 2.285l.297 50.204c.009 1.323-1.081 2.444-2.433 2.506h-.002Z"/>
  <path fill="#F5A759" stroke="#333" stroke-linecap="round" stroke-linejoin="round" stroke-width="1.398" d="M1.778 58.001c1.475-1.633 3.774-1.683 4.919-.558.798.785 1.01 2.117.591 3.358L1.778 58v.002Z"/>
  <path fill="#FDF6ED" d="M39.313 58.294 7.22 59.735c-.519.025-.943-.358-.945-.852l-.233-48.428c-.007-1.24 1.046-2.295 2.35-2.352l30.675-1.378c1.304-.06 2.365.899 2.37 2.14l.226 47.077c.007 1.24-1.046 2.294-2.35 2.352Z"/>
  <path fill="#F06061" stroke="#333" stroke-linecap="round" stroke-linejoin="round" stroke-width="1.391" d="m35.489 56.691-27.188 1.33a2.934 2.934 0 0 1-3.11-2.934L4.892 5.569c-.01-1.704 1.365-3.152 3.073-3.236l27.188-1.33a2.934 2.934 0 0 1 3.11 2.935l.299 49.518c.01 1.703-1.365 3.152-3.073 3.235Z"/>
  <path fill="#F5A759" stroke="#333" stroke-linecap="round" stroke-linejoin="round" stroke-width="1.382" d="m6.47 58.111-3.778.185A1.295 1.295 0 0 1 1.32 57L1 4.04a1.437 1.437 0 0 1 1.358-1.43l3.778-.184A1.295 1.295 0 0 1 7.51 3.72l.319 52.962a1.437 1.437 0 0 1-1.358 1.43Z"/>
  <path fill="#FFF9F1" d="m29.957 25.912-13.87.68a1.434 1.434 0 0 1-1.522-1.434l-.06-9.683a1.593 1.593 0 0 1 1.502-1.583l13.87-.679c.836-.042 1.515.6 1.522 1.433l.06 9.684a1.593 1.593 0 0 1-1.502 1.582Z"/>
  <path stroke="#333" stroke-linecap="round" stroke-linejoin="round" stroke-width="1.391" d="m18.278 17.63 10.134-.129m-9.618 4.356 9.947-.633"/>
</svg>
