<svg xmlns="http://www.w3.org/2000/svg" width="77" height="58" fill="none" viewBox="0 0 77 58">
  <path fill="#FDF6ED" stroke="#333" stroke-linecap="round" stroke-linejoin="round" stroke-width=".571" d="M31.102 26.826H5.678a4.24 4.24 0 0 0-4.24 4.24v22.24a4.24 4.24 0 0 0 4.24 4.24h25.425a4.24 4.24 0 0 0 4.24-4.24v-22.24a4.24 4.24 0 0 0-4.24-4.24Z"/>
  <path fill="#F06061" stroke="#333" stroke-linecap="round" stroke-linejoin="round" stroke-width=".571" d="M33.604 26.23H3.178A2.178 2.178 0 0 0 1 28.408v3.55c0 1.204.975 2.179 2.178 2.179h30.426a2.178 2.178 0 0 0 2.178-2.178v-3.551a2.178 2.178 0 0 0-2.178-2.178Z"/>
  <path stroke="#333" stroke-linecap="round" stroke-linejoin="round" stroke-width=".571" d="M8.378 23.422v5.616m1.569-5.616v5.616m4.583-5.616v5.616m1.568-5.616v5.616m4.585-5.616v5.616m1.567-5.616v5.616m4.584-5.616v5.616m1.569-5.616v5.616"/>
  <path fill="#FDF6ED" stroke="#333" stroke-linecap="round" stroke-linejoin="round" stroke-width=".327" d="M15.458 36.416h-2.94v2.94h2.94v-2.94Zm4.402 0h-2.94v2.94h2.94v-2.94Zm4.402 0h-2.94v2.94h2.94v-2.94Zm4.403 0h-2.94v2.94h2.94v-2.94Zm4.402 0h-2.94v2.94h2.94v-2.94ZM6.653 40.44h-2.94v2.94h2.94v-2.94Zm4.402 0h-2.94v2.94h2.94v-2.94Zm4.403 0h-2.94v2.94h2.94v-2.94Zm4.402 0h-2.94v2.94h2.94v-2.94Zm4.402 0h-2.94v2.94h2.94v-2.94Zm4.403 0h-2.94v2.94h2.94v-2.94Zm4.402 0h-2.94v2.94h2.94v-2.94ZM6.653 44.465h-2.94v2.94h2.94v-2.94Zm4.402 0h-2.94v2.94h2.94v-2.94Zm4.403 0h-2.94v2.94h2.94v-2.94Zm4.402 0h-2.94v2.94h2.94v-2.94Zm4.402 0h-2.94v2.94h2.94v-2.94Zm4.403 0h-2.94v2.94h2.94v-2.94Zm4.402 0h-2.94v2.94h2.94v-2.94ZM6.653 48.49h-2.94v2.94h2.94v-2.94Zm4.402 0h-2.94v2.94h2.94v-2.94Zm4.403 0h-2.94v2.94h2.94v-2.94Zm4.402 0h-2.94v2.94h2.94v-2.94Zm4.402 0h-2.94v2.94h2.94v-2.94Zm4.403 0h-2.94v2.94h2.94v-2.94Zm4.402 0h-2.94v2.94h2.94v-2.94ZM6.653 52.515h-2.94v2.94h2.94v-2.94Zm4.402 0h-2.94v2.94h2.94v-2.94Zm4.403 0h-2.94v2.94h2.94v-2.94Zm4.402 0h-2.94v2.94h2.94v-2.94Z"/>
  <path fill="#A8D471" stroke="#333" stroke-miterlimit="10" stroke-width="1.054" d="M21.13 11.879a1.523 1.523 0 0 1 2.148.167l1.591 1.86C26.377 6.39 33.056.893 40.727 1.002a9.2 9.2 0 0 1 .333.007c8.004.284 14.71 6.729 15.337 14.813a1.525 1.525 0 0 1-1.574 1.64 1.524 1.524 0 0 1-1.462-1.404c-.51-6.552-5.935-11.776-12.408-12.004-.09-.004-.179-.006-.268-.008-5.91-.084-11.09 3.956-12.625 9.605l1.33-1.348a1.524 1.524 0 0 1 2.168 2.14l-4.32 4.375a1.523 1.523 0 0 1-2.241-.08l-4.035-4.714a1.523 1.523 0 0 1 .168-2.147v.002Z"/>
  <path fill="#FDF6ED" stroke="#333" stroke-linecap="round" stroke-linejoin="round" stroke-width=".571" d="M71.322 26.826H45.897a4.24 4.24 0 0 0-4.24 4.24v22.24a4.24 4.24 0 0 0 4.24 4.24h25.425a4.24 4.24 0 0 0 4.24-4.24v-22.24a4.24 4.24 0 0 0-4.24-4.24Z"/>
  <path fill="#F06061" stroke="#333" stroke-linecap="round" stroke-linejoin="round" stroke-width=".571" d="M73.822 26.23H43.396a2.178 2.178 0 0 0-2.178 2.178v3.55c0 1.204.975 2.179 2.178 2.179h30.426A2.178 2.178 0 0 0 76 31.959v-3.551a2.178 2.178 0 0 0-2.178-2.178Z"/>
  <path stroke="#333" stroke-linecap="round" stroke-linejoin="round" stroke-width=".571" d="M48.597 23.422v5.616m1.569-5.616v5.616m4.582-5.616v5.616m1.569-5.616v5.616m4.585-5.616v5.616m1.567-5.616v5.616m4.584-5.616v5.616m1.567-5.616v5.616"/>
  <path fill="#FDF6ED" stroke="#333" stroke-linecap="round" stroke-linejoin="round" stroke-width=".327" d="M55.676 36.416h-2.94v2.94h2.94v-2.94Zm4.404 0h-2.94v2.94h2.94v-2.94Zm4.401 0h-2.94v2.94h2.94v-2.94Zm4.404 0h-2.94v2.94h2.94v-2.94Zm4.402 0h-2.94v2.94h2.94v-2.94ZM46.872 40.44h-2.94v2.94h2.94v-2.94Zm4.402 0h-2.94v2.94h2.94v-2.94Zm4.402 0h-2.94v2.94h2.94v-2.94Zm4.404 0h-2.94v2.94h2.94v-2.94Zm4.401 0h-2.94v2.94h2.94v-2.94Zm4.404 0h-2.94v2.94h2.94v-2.94Zm4.402 0h-2.94v2.94h2.94v-2.94Zm-26.415 4.025h-2.94v2.94h2.94v-2.94Zm4.402 0h-2.94v2.94h2.94v-2.94Zm4.402 0h-2.94v2.94h2.94v-2.94Zm4.404 0h-2.94v2.94h2.94v-2.94Zm4.401 0h-2.94v2.94h2.94v-2.94Zm4.404 0h-2.94v2.94h2.94v-2.94Zm4.402 0h-2.94v2.94h2.94v-2.94ZM46.872 48.49h-2.94v2.94h2.94v-2.94Zm4.402 0h-2.94v2.94h2.94v-2.94Zm4.402 0h-2.94v2.94h2.94v-2.94Zm4.404 0h-2.94v2.94h2.94v-2.94Zm4.401 0h-2.94v2.94h2.94v-2.94Zm4.404 0h-2.94v2.94h2.94v-2.94Zm4.402 0h-2.94v2.94h2.94v-2.94Zm-26.415 4.025h-2.94v2.94h2.94v-2.94Zm4.402 0h-2.94v2.94h2.94v-2.94Zm4.402 0h-2.94v2.94h2.94v-2.94Zm4.404 0h-2.94v2.94h2.94v-2.94Zm4.401 0h-2.94v2.94h2.94v-2.94Z"/>
</svg>
