<svg xmlns="http://www.w3.org/2000/svg" width="62" height="61" fill="none" viewBox="0 0 62 61">
  <path fill="#FDF6ED" stroke="#333" stroke-linecap="round" stroke-linejoin="round" stroke-width="1.128" d="M52.932 6.874H9.068a7.312 7.312 0 0 0-7.311 7.312v38.368a7.312 7.312 0 0 0 7.311 7.312h43.864a7.312 7.312 0 0 0 7.312-7.312V14.186a7.312 7.312 0 0 0-7.312-7.312Z"/>
  <path fill="#F06061" stroke="#333" stroke-linecap="round" stroke-linejoin="round" stroke-width="1.128" d="M57.242 5.845H4.758A3.758 3.758 0 0 0 1 9.603v6.125a3.758 3.758 0 0 0 3.758 3.758h52.484A3.758 3.758 0 0 0 61 15.728V9.603a3.758 3.758 0 0 0-3.758-3.758Z"/>
  <path stroke="#333" stroke-linecap="round" stroke-linejoin="round" stroke-width="1.128" d="M13.73 1v9.691M16.433 1v9.691M24.34 1v9.691M27.046 1v9.691M34.954 1v9.691M37.66 1v9.691M45.567 1v9.691M48.273 1v9.691"/>
  <path fill="#FDF6ED" stroke="#333" stroke-linecap="round" stroke-linejoin="round" stroke-width=".644" d="M25.941 23.417h-5.07v5.071h5.07v-5.071Zm7.596 0h-5.071v5.071h5.07v-5.071Zm7.595 0H36.06v5.071h5.07v-5.071Zm7.593 0h-5.07v5.071h5.07v-5.071Zm7.595 0h-5.07v5.071h5.07v-5.071ZM10.753 30.36H5.682v5.07h5.07v-5.07Zm7.593 0h-5.071v5.07h5.07v-5.07Zm7.595 0h-5.07v5.07h5.07v-5.07Zm7.596 0h-5.071v5.07h5.07v-5.07Zm7.595 0H36.06v5.07h5.07v-5.07Zm7.593 0h-5.07v5.07h5.07v-5.07Zm7.595 0h-5.07v5.07h5.07v-5.07Zm-45.567 6.943H5.682v5.07h5.07v-5.07Zm7.593 0h-5.071v5.07h5.07v-5.07Zm7.595 0h-5.07v5.07h5.07v-5.07Zm7.596 0h-5.071v5.07h5.07v-5.07Zm7.595 0H36.06v5.07h5.07v-5.07Zm7.593 0h-5.07v5.07h5.07v-5.07Zm7.595 0h-5.07v5.07h5.07v-5.07Zm-45.567 6.942H5.682v5.072h5.07v-5.072Zm7.593 0h-5.071v5.072h5.07v-5.072Zm7.595 0h-5.07v5.072h5.07v-5.072Zm7.596 0h-5.071v5.072h5.07v-5.072Zm7.595 0H36.06v5.072h5.07v-5.072Zm7.593 0h-5.07v5.072h5.07v-5.072Zm7.595 0h-5.07v5.072h5.07v-5.072ZM10.753 51.19H5.682v5.071h5.07v-5.07Zm7.593 0h-5.071v5.071h5.07v-5.07Zm7.595 0h-5.07v5.071h5.07v-5.07Zm7.596 0h-5.071v5.071h5.07v-5.07Zm7.595 0H36.06v5.071h5.07v-5.07Z"/>
</svg>
