<svg xmlns="http://www.w3.org/2000/svg" width="77" height="56" fill="none" viewBox="0 0 77 56">
  <path fill="#FDF6ED" stroke="#333" stroke-linecap="round" stroke-linejoin="round" stroke-width=".62" d="M31.102 24.882H5.678a4.24 4.24 0 0 0-4.24 4.24v22.24a4.24 4.24 0 0 0 4.24 4.24h25.425a4.24 4.24 0 0 0 4.24-4.24v-22.24a4.24 4.24 0 0 0-4.24-4.24Z"/>
  <path fill="#F06061" stroke="#333" stroke-linecap="round" stroke-linejoin="round" stroke-width=".62" d="M33.604 24.286H3.178A2.178 2.178 0 0 0 1 26.464v3.551c0 1.203.975 2.178 2.178 2.178h30.426a2.178 2.178 0 0 0 2.178-2.178v-3.55a2.178 2.178 0 0 0-2.178-2.179Z"/>
  <path stroke="#333" stroke-linecap="round" stroke-linejoin="round" stroke-width=".62" d="M8.377 21.476v5.619m1.569-5.619v5.619m4.584-5.619v5.619m1.568-5.619v5.619m4.584-5.619v5.619m1.568-5.619v5.619m4.584-5.619v5.619m1.569-5.619v5.619"/>
  <path fill="#FDF6ED" stroke="#333" stroke-linecap="round" stroke-linejoin="round" stroke-width=".355" d="M15.458 34.47h-2.94v2.94h2.94v-2.94Zm4.402 0h-2.94v2.94h2.94v-2.94Zm4.402 0h-2.94v2.94h2.94v-2.94Zm4.403 0h-2.94v2.94h2.94v-2.94Zm4.402 0h-2.94v2.94h2.94v-2.94ZM6.652 38.495h-2.94v2.94h2.94v-2.94Zm4.402 0h-2.94v2.94h2.94v-2.94Zm4.404 0h-2.94v2.94h2.94v-2.94Zm4.402 0h-2.94v2.94h2.94v-2.94Zm4.402 0h-2.94v2.94h2.94v-2.94Zm4.403 0h-2.94v2.94h2.94v-2.94Zm4.402 0h-2.94v2.94h2.94v-2.94ZM6.652 42.52h-2.94v2.94h2.94v-2.94Zm4.402 0h-2.94v2.94h2.94v-2.94Zm4.404 0h-2.94v2.94h2.94v-2.94Zm4.402 0h-2.94v2.94h2.94v-2.94Zm4.402 0h-2.94v2.94h2.94v-2.94Zm4.403 0h-2.94v2.94h2.94v-2.94Zm4.402 0h-2.94v2.94h2.94v-2.94ZM6.652 46.547h-2.94v2.94h2.94v-2.94Zm4.402 0h-2.94v2.94h2.94v-2.94Zm4.404 0h-2.94v2.94h2.94v-2.94Zm4.402 0h-2.94v2.94h2.94v-2.94Zm4.402 0h-2.94v2.94h2.94v-2.94Zm4.403 0h-2.94v2.94h2.94v-2.94Zm4.402 0h-2.94v2.94h2.94v-2.94ZM6.652 50.572h-2.94v2.94h2.94v-2.94Zm4.402 0h-2.94v2.94h2.94v-2.94Zm4.404 0h-2.94v2.94h2.94v-2.94Zm4.402 0h-2.94v2.94h2.94v-2.94Zm4.402 0h-2.94v2.94h2.94v-2.94Z"/>
  <path fill="#FDF6ED" stroke="#333" stroke-linecap="round" stroke-linejoin="round" stroke-width=".62" d="M71.322 24.882H45.897a4.24 4.24 0 0 0-4.24 4.24v22.24a4.24 4.24 0 0 0 4.24 4.24h25.425a4.24 4.24 0 0 0 4.24-4.24v-22.24a4.24 4.24 0 0 0-4.24-4.24Z"/>
  <path fill="#F06061" stroke="#333" stroke-linecap="round" stroke-linejoin="round" stroke-width=".62" d="M73.822 24.286H43.396a2.178 2.178 0 0 0-2.178 2.178v3.551c0 1.203.975 2.178 2.178 2.178h30.426A2.178 2.178 0 0 0 76 30.015v-3.55a2.178 2.178 0 0 0-2.178-2.179Z"/>
  <path stroke="#333" stroke-linecap="round" stroke-linejoin="round" stroke-width=".62" d="M48.597 21.476v5.619m1.569-5.619v5.619m4.582-5.619v5.619m1.569-5.619v5.619m4.585-5.619v5.619m1.567-5.619v5.619m4.584-5.619v5.619m1.567-5.619v5.619"/>
  <path fill="#FDF6ED" stroke="#333" stroke-linecap="round" stroke-linejoin="round" stroke-width=".355" d="M55.676 34.47h-2.94v2.94h2.94v-2.94Zm4.404 0h-2.94v2.94h2.94v-2.94Zm4.401 0h-2.94v2.94h2.94v-2.94Zm4.404 0h-2.94v2.94h2.94v-2.94Zm4.402 0h-2.94v2.94h2.94v-2.94Zm-26.415 4.025h-2.94v2.94h2.94v-2.94Zm4.402 0h-2.94v2.94h2.94v-2.94Zm4.402 0h-2.94v2.94h2.94v-2.94Zm4.404 0h-2.94v2.94h2.94v-2.94Zm4.401 0h-2.94v2.94h2.94v-2.94Zm4.404 0h-2.94v2.94h2.94v-2.94Zm4.402 0h-2.94v2.94h2.94v-2.94ZM46.872 42.52h-2.94v2.94h2.94v-2.94Zm4.402 0h-2.94v2.94h2.94v-2.94Zm4.402 0h-2.94v2.94h2.94v-2.94Zm4.404 0h-2.94v2.94h2.94v-2.94Zm4.401 0h-2.94v2.94h2.94v-2.94Zm4.404 0h-2.94v2.94h2.94v-2.94Zm4.402 0h-2.94v2.94h2.94v-2.94Zm-26.415 4.027h-2.94v2.94h2.94v-2.94Zm4.402 0h-2.94v2.94h2.94v-2.94Zm4.402 0h-2.94v2.94h2.94v-2.94Zm4.404 0h-2.94v2.94h2.94v-2.94Zm4.401 0h-2.94v2.94h2.94v-2.94Zm4.404 0h-2.94v2.94h2.94v-2.94Zm4.402 0h-2.94v2.94h2.94v-2.94Zm-26.415 4.025h-2.94v2.94h2.94v-2.94Zm4.402 0h-2.94v2.94h2.94v-2.94Zm4.402 0h-2.94v2.94h2.94v-2.94Zm4.404 0h-2.94v2.94h2.94v-2.94Z"/>
  <path fill="#A8D471" stroke="#333" stroke-miterlimit="10" stroke-width="1.145" d="M58.545 11.879a1.523 1.523 0 0 0-2.148.167l-1.591 1.86C53.296 6.39 46.619.893 38.948 1.002c-.112 0-.223.003-.333.007-8.004.284-14.71 6.729-15.338 14.813a1.526 1.526 0 0 0 1.402 1.637c.059.004.116.006.173.004a1.523 1.523 0 0 0 1.462-1.405c.51-6.552 5.934-11.776 12.408-12.004.09-.004.179-.006.268-.008 5.91-.084 11.09 3.956 12.625 9.605l-1.331-1.348a1.524 1.524 0 0 0-2.167 2.14l4.32 4.375a1.523 1.523 0 0 0 2.241-.08l4.035-4.714a1.523 1.523 0 0 0-.168-2.147v.002Z"/>
</svg>
