<svg xmlns="http://www.w3.org/2000/svg" width="62" height="81" fill="none" viewBox="0 0 62 81">
  <path fill="#FDF6ED" stroke="#333" stroke-linecap="round" stroke-linejoin="round" stroke-width="1.218" d="M52.932 26.618H9.068a7.312 7.312 0 0 0-7.311 7.312v38.368a7.312 7.312 0 0 0 7.311 7.312h43.864a7.312 7.312 0 0 0 7.312-7.312V33.93a7.312 7.312 0 0 0-7.312-7.312Z"/>
  <path fill="#F06061" stroke="#333" stroke-linecap="round" stroke-linejoin="round" stroke-width="1.218" d="M57.242 25.588H4.758A3.758 3.758 0 0 0 1 29.346v6.126a3.758 3.758 0 0 0 3.758 3.758h52.484A3.758 3.758 0 0 0 61 35.471v-6.126a3.758 3.758 0 0 0-3.758-3.758Z"/>
  <path stroke="#333" stroke-linecap="round" stroke-linejoin="round" stroke-width="1.218" d="M13.73 20.744v9.691m2.703-9.691v9.691m7.907-9.691v9.691m2.706-9.691v9.691m7.908-9.691v9.691m2.706-9.691v9.691m7.907-9.691v9.691m2.706-9.691v9.691"/>
  <path fill="#FDF6ED" stroke="#333" stroke-linecap="round" stroke-linejoin="round" stroke-width=".695" d="M25.941 43.159h-5.07v5.07h5.07v-5.07Zm7.596 0h-5.071v5.07h5.07v-5.07Zm7.595 0H36.06v5.07h5.07v-5.07Zm7.593 0h-5.07v5.07h5.07v-5.07Zm7.595 0h-5.07v5.07h5.07v-5.07Zm-45.567 6.944H5.682v5.072h5.07v-5.072Zm7.593 0h-5.071v5.072h5.07v-5.072Zm7.595 0h-5.07v5.072h5.07v-5.072Zm7.596 0h-5.071v5.072h5.07v-5.072Zm7.595 0H36.06v5.072h5.07v-5.072Zm7.593 0h-5.07v5.072h5.07v-5.072Zm7.595 0h-5.07v5.072h5.07v-5.072Zm-45.567 6.943H5.682v5.071h5.07v-5.07Zm7.593 0h-5.071v5.071h5.07v-5.07Zm7.595 0h-5.07v5.071h5.07v-5.07Zm7.596 0h-5.071v5.071h5.07v-5.07Zm7.595 0H36.06v5.071h5.07v-5.07Zm7.593 0h-5.07v5.071h5.07v-5.07Zm7.595 0h-5.07v5.071h5.07v-5.07ZM10.753 63.99H5.682v5.07h5.07v-5.07Zm7.593 0h-5.071v5.07h5.07v-5.07Zm7.595 0h-5.07v5.07h5.07v-5.07Zm7.596 0h-5.071v5.07h5.07v-5.07Zm7.595 0H36.06v5.07h5.07v-5.07Zm7.593 0h-5.07v5.07h5.07v-5.07Zm7.595 0h-5.07v5.07h5.07v-5.07Zm-45.567 6.942H5.682v5.071h5.07v-5.071Zm7.593 0h-5.071v5.071h5.07v-5.071Zm7.595 0h-5.07v5.071h5.07v-5.071Zm7.596 0h-5.071v5.071h5.07v-5.071Zm7.595 0H36.06v5.071h5.07v-5.071Z"/>
  <path fill="#A8D471" stroke="#333" stroke-miterlimit="10" stroke-width=".944" d="M35.665 10.24a1.345 1.345 0 0 0-1.9 0l-1.41 1.41V2.448a1.448 1.448 0 0 0-2.894 0v8.975l-1.226-1.225a1.345 1.345 0 0 0-1.9 1.9l3.737 3.738c.263.263.606.393.95.393.345 0 .688-.13.95-.393l3.695-3.695a1.345 1.345 0 0 0 0-1.9h-.002Z"/>
</svg>
