<svg xmlns="http://www.w3.org/2000/svg" width="56" height="55" fill="none" viewBox="0 0 56 55">
  <path fill="#F3D2B9" stroke="#333" stroke-linecap="round" stroke-linejoin="round" stroke-width="1.477" d="M54.448 25.99c.916 14.899-5.949 27.664-25.556 28.204-18.034.496-27.071-11.83-26.863-26.76.199-14.317 11.173-24.437 25.633-24.429 14.43-.508 25.909 8.698 26.789 22.985h-.003Z"/>
  <path fill="#7D5045" stroke="#333" stroke-linecap="round" stroke-linejoin="round" stroke-width="1.477" d="M48.088 10.117c3.662 4.26 5.983 9.763 6.358 15.875.505 8.177-1.337 15.71-6.341 20.934.02-.033.046-.067.065-.105 4.238-6.975 3.58-15.932 2.622-21.358-.848-4.796-3.48-8.863-7.267-10.724a10.596 10.596 0 0 0-4.775-1.103c-1.98.01-3.715.548-5.194 1.329-2.687 1.422-4.535 3.66-5.493 5.042-.363.525-1.023.462-1.315-.13-1.006-2.051-2.405-3.748-4.044-4.958-1.76-1.302-3.793-2.043-5.911-2.055a9.099 9.099 0 0 0-2.732.398c-3.344 1.02-6.093 3.929-7.35 7.93-.62 2.245-3.884 14.667.88 24.21-3.798-4.773-5.663-11.093-5.568-17.965.09-6.436 2.35-12.377 6.127-16.97C3.548 7.501 1.588 4.014.873 2.976c-.225-.327-.173-.739.2-1.163a.377.377 0 0 1 .028-.03c.502-.548 1.819-.915 2.629-.738 7.02 1.545 11.77 1.92 14.936 1.82a25.127 25.127 0 0 1 8.966-1.626c3.71-.13 7.224.496 10.414 1.743 3.101-.01 7.476-.452 13.6-1.787.809-.177 2.132.194 2.64.745l.027.03c.38.425.441.837.22 1.164-.663.979-2.401 4.147-6.445 6.979v.004Z"/>
  <path fill="#FDF6ED" stroke="#333" stroke-miterlimit="10" stroke-width="1.477" d="M39.191 39.91c4.403 0 7.973-4.493 7.973-10.036 0-5.543-3.57-10.036-7.973-10.036-4.403 0-7.972 4.493-7.972 10.036 0 5.543 3.57 10.036 7.972 10.036Zm-21.828 0c4.403 0 7.972-4.493 7.972-10.036 0-5.543-3.57-10.036-7.972-10.036-4.403 0-7.973 4.493-7.973 10.036 0 5.543 3.57 10.036 7.973 10.036Z"/>
  <path fill="#333" d="M20.058 33.798c1.723 0 3.119-1.757 3.119-3.924s-1.396-3.924-3.119-3.924c-1.722 0-3.118 1.757-3.118 3.924s1.396 3.924 3.118 3.924Zm16.437 0c1.722 0 3.118-1.757 3.118-3.924s-1.396-3.924-3.118-3.924-3.118 1.757-3.118 3.924 1.396 3.924 3.118 3.924Z"/>
  <path fill="#F9CB6A" d="M32.554 43.078 28.85 46.37a.679.679 0 0 1-.886.015l-3.952-3.29c-.487-.408-.2-1.201.435-1.201H32.1c.624 0 .918.772.451 1.185h.002Z"/>
  <path stroke="#333" stroke-miterlimit="10" stroke-width="1.477" d="M32.554 43.078 28.85 46.37a.679.679 0 0 1-.886.015l-3.952-3.29c-.487-.408-.2-1.201.435-1.201H32.1c.624 0 .918.772.451 1.185h.002Z"/>
  <path fill="#F18653" stroke="#333" stroke-miterlimit="10" stroke-width="1.477" d="m22.774 41.538 4.932-4.384a.614.614 0 0 1 .802-.012l5.26 4.384c.44.367.18 1.086-.393 1.086l-5.097.96-5.097-.96a.614.614 0 0 1-.407-1.074Z"/>
</svg>
