<svg xmlns="http://www.w3.org/2000/svg" width="64" height="65" fill="none" viewBox="0 0 64 65">
  <path stroke="#333" stroke-linecap="round" stroke-linejoin="round" stroke-width="1.609" d="m34.872 46.466-5.489 11.416-3.208 2.92m-1.965-2.738 4.893-.085m.37.085 2.447.427"/>
  <path fill="#66A9EB" d="M62.128 24.64c1.754 1.33.097 7.45-2.682 12-5.472 8.96-19.91 19.376-35.188 13.982C11.187 46.004 4.298 32.22 5.315 21.529c.216-2.285.896-9.43 6.511-13.241 4.767-3.234 10.334-2.197 11.74-1.935 5.408 1.009 8.863 4.277 12.8 8.102 8.522 8.276 8.446 13.477 13.291 14.323 5.817 1.016 10.41-5.695 12.471-4.135v-.002Z"/>
  <mask id="a" width="58" height="48" x="5" y="5" maskUnits="userSpaceOnUse" style="mask-type:luminance">
    <path fill="#fff" d="M62.128 24.64c1.754 1.33.097 7.45-2.682 12-5.472 8.96-19.91 19.376-35.188 13.982C11.187 46.004 4.298 32.22 5.315 21.529c.216-2.285.896-9.43 6.511-13.241 4.767-3.234 10.334-2.197 11.74-1.935 5.408 1.009 8.863 4.277 12.8 8.102 8.522 8.276 8.446 13.477 13.291 14.323 5.817 1.016 10.41-5.695 12.471-4.135v-.002Z"/>
  </mask>
  <g mask="url(#a)">
    <path fill="#D3E2F1" d="M69.543 54.41c-1.823-2.423-4.43-4.455-7.523-4.887-2.41-.335-4.923-.124-7.127.901a19.348 19.348 0 0 1-.873-.216 59.41 59.41 0 0 1-10.835-5.298 59.417 59.417 0 0 1-6.68-5.415c-2.543-2.395-4.888-4.999-7.515-7.31-1.953-1.72-4.07-3.152-6.274-4.542-1.373-.865-2.811-1.61-4.342-2.15-2.416-.854-4.776-1.691-7.33-1.891-1.608-.126-3.429-.28-5.088-.124-1.765.165-3.512.604-5.215 1.087-2.715.77-5.374 3.436-6.574 5.907-1.27 2.618-1.608 6.355-.484 9.095 1.13 2.755 3.09 5.357 5.906 6.573l2.988.979a11.61 11.61 0 0 0 5.408-.271c.088-.007.175-.016.26-.02.322.052.641.116.958.188.764.326 1.508.694 2.23 1.103 2.425 1.82 4.571 3.978 6.707 6.13 2.482 2.5 5.017 4.916 7.83 7.044 7.068 5.35 14.74 9.283 23.223 11.814 2.51.749 5.15.96 7.764.89 1.66-.044 3.326-.481 4.907-.934.843-.241 1.586-.68 2.365-1.08.788-.405 1.577-.759 2.291-1.278 2.473-1.797 4.324-4.486 4.887-7.523.524-2.827-.106-6.435-1.867-8.775l.003.003Z"/>
  </g>
  <path stroke="#333" stroke-linecap="round" stroke-linejoin="round" stroke-width="1.609" d="M62.128 24.64c1.754 1.33.097 7.45-2.682 12-5.472 8.96-19.91 19.376-35.188 13.982C11.187 46.004 4.298 32.22 5.315 21.529c.216-2.285.896-9.43 6.511-13.241 4.767-3.234 10.334-2.197 11.74-1.935 5.408 1.009 8.863 4.277 12.8 8.102 8.522 8.276 8.446 13.477 13.291 14.323 5.818 1.016 10.41-5.695 12.471-4.135v-.002Z"/>
  <path fill="#F9CB6A" stroke="#333" stroke-miterlimit="10" stroke-width="1.609" d="m2.345 21.614 2.843 2.864c.272.273.72.241.95-.067l1.349-1.8a.628.628 0 0 0-.35-.986l-4.192-1.064c-.618-.156-1.05.6-.602 1.053h.002Z"/>
  <path fill="#F18653" stroke="#333" stroke-linecap="round" stroke-linejoin="round" stroke-width="1.609" d="m1.564 19.994 6.53-2.267c.346-.12.694.18.625.54l-.692 3.692a.48.48 0 0 1-.584.377L1.605 20.91c-.462-.113-.494-.759-.044-.915l.003-.002Z"/>
  <path fill="#66A9EB" d="M14.398 8.088c-.175-.202-1.397-1.666-1.1-3.608.04-.279.36-2.372 2.132-2.93 1.292-.408 2.834.167 3.795 1.445.652-1.807 2.585-2.62 4.137-1.968 1.4.589 2.172 2.234 1.91 3.7-.228 1.274-1.214 2.283-2.515 2.561"/>
  <path stroke="#333" stroke-linecap="round" stroke-linejoin="round" stroke-width="1.609" d="M14.398 8.088c-.175-.202-1.397-1.666-1.1-3.608.04-.279.36-2.372 2.132-2.93 1.292-.408 2.834.167 3.795 1.445.652-1.807 2.585-2.62 4.137-1.968 1.4.589 2.172 2.234 1.91 3.7-.228 1.274-1.214 2.283-2.515 2.561"/>
  <path fill="#333" d="M16.714 17.602c.07-1.28-.697-2.364-1.713-2.42-1.017-.055-1.898.937-1.968 2.218-.07 1.28.697 2.363 1.713 2.419 1.017.055 1.898-.937 1.968-2.217Z"/>
  <path stroke="#333" stroke-linecap="round" stroke-linejoin="round" stroke-width="1.609" d="M39.944 47.884 36.66 60.116l-2.616 3.464m-2.438-2.328 4.797-.989m.377.017 2.484-.033"/>
  <path fill="#66A9EB" d="M31.92 23.935c.348-1.687 1.524-6.237 5.618-9.232 5.429-3.972 14.045-3.79 15.567-.573 1.227 2.595-2.014 7.459-7.596 11.715 3.592-.512 6.58.03 7.007 1.285.462 1.36-1.94 4.002-6.309 5.85-4.585 2.746-10.016 1.95-12.714-1.292-2.55-3.062-1.706-7.16-1.573-7.753Z"/>
  <path stroke="#333" stroke-linecap="round" stroke-linejoin="round" stroke-width="1.609" d="M31.92 23.935c.348-1.687 1.525-6.237 5.618-9.232 5.429-3.972 14.046-3.79 15.567-.573 1.227 2.595-2.013 7.459-7.596 11.715 3.592-.512 6.58.03 7.008 1.285.462 1.36-1.94 4.002-6.31 5.85"/>
</svg>
