<svg xmlns="http://www.w3.org/2000/svg" width="70" height="79" fill="none" viewBox="0 0 70 79">
  <path fill="#A8D471" d="M1 76.816c1.23-8.556 3.805-14.9 5.83-18.959 1.942-3.894 3.57-6.063 5.983-7.87 3.784-2.832 7.967-3.628 10.322-3.894h23.828c2.355.266 6.538 1.062 10.322 3.893 2.413 1.806 4.04 3.977 5.983 7.871 2.025 4.058 4.6 10.403 5.83 18.959"/>
  <path fill="#F3D2BA" d="M54.724 30.035c.01 1.77.162 9.136-4.843 13.886-3.049 2.895-7.776 4.652-14.829 4.652-7.053 0-11.78-1.757-14.83-4.652-5.012-4.758-4.856-12.052-4.842-13.886 2.226-8.754 9.805-15.053 18.52-15.543 9.507-.534 18.355 5.954 20.828 15.543h-.004Z"/>
  <path fill="#F3D2BA" d="M16.223 38.24a3.283 3.283 0 0 1-.849.082c-1.76-.062-4.357-1.612-4.357-4.357 0-2.39 1.968-4.356 4.357-4.356l.849 8.632v-.002Zm38.503-8.633a4.357 4.357 0 1 1-.82 8.636l.82-8.638v.002Z"/>
  <path fill="#7D5045" d="M56.9 13.01C52.78 3.866 41.746-.583 33.474 1.515a16.252 16.252 0 0 0-4.856 2.143l-2.071.357c-1.29-.072-3.316-.022-5.57.785-6.22 2.225-8.658 8.237-9.142 9.427-3.097 7.635.517 14.715 1.1 15.81l2.686-.597a23.35 23.35 0 0 0 8.428-4.209 23.357 23.357 0 0 0 5.759-6.65l-.486-1.731c.897 2.501 2.656 5.793 6.083 7.805 2.47 1.45 6.86 2.854 8.602 1.263 1.462.968 3.008 1.58 4.36 2.11a25.299 25.299 0 0 0 6.36 1.58l1.995.08c.675-1.598 3.618-9.039.18-16.674l-.002-.002Z"/>
  <path fill="#F3D2BA" d="M25.135 70.72c-2.36 1.536-5.875.585-7.802-1.295-3.107-3.032-2.782-9.153.685-11.645 2.017-1.45 5.317-1.828 7.45-.16 2.11 1.65 2.06 4.515 2.045 6.467-.016 1.814-.045 5.112-2.378 6.632Z"/>
  <path fill="#F3D2BA" d="M24.9 70.197c.245.409.567 1.016.829 1.795.401 1.186 1.269 3.788-.025 5.125-.918.948-2.812 1.037-3.94.272-1.794-1.217-1.385-4.513-1.22-5.871.062-.5.147-.909.213-1.182"/>
  <path stroke="#333" stroke-linecap="round" stroke-linejoin="round" stroke-width="1.227" d="M46.965 46.094c2.355.267 6.538 1.063 10.322 3.895 2.413 1.805 4.04 3.976 5.983 7.87 2.025 4.058 4.6 10.403 5.83 18.959M23.137 46.094c-2.355.267-6.538 1.063-10.322 3.894-2.413 1.806-4.04 3.977-5.983 7.871-2.025 4.058-4.6 10.403-5.83 18.959"/>
  <path stroke="#333" stroke-linecap="round" stroke-linejoin="round" stroke-width="1.227" d="M54.724 30.035c.01 1.77.162 9.136-4.843 13.886-3.049 2.895-7.776 4.652-14.829 4.652-7.053 0-11.78-1.757-14.83-4.652-5.012-4.758-4.856-12.052-4.842-13.886"/>
  <path stroke="#333" stroke-linecap="round" stroke-linejoin="round" stroke-width="1.227" d="M39.908 42.278c-.324-.303-2.592-2.35-5.784-1.929-2.09.276-3.446 1.46-3.93 1.929m-1.647-28.191c.4 1.942 1.845 7.622 6.856 10.565 2.561 1.504 7.188 2.958 8.785 1.076 1.101-1.3.434-3.81-.5-5.284-1.238-1.954-3.695-3.256-4.395-2.671-.746.622.388 3.529 1.875 5.504 2.054 2.73 4.906 3.85 7.2 4.75a25.306 25.306 0 0 0 6.36 1.58"/>
  <path stroke="#333" stroke-linecap="round" stroke-linejoin="round" stroke-width="1.227" d="M29.806 18.579a23.295 23.295 0 0 1-5.759 6.65 23.324 23.324 0 0 1-8.428 4.208m.604 8.803a3.283 3.283 0 0 1-.849.082c-1.76-.062-4.357-1.612-4.357-4.357 0-2.39 1.968-4.356 4.357-4.356m39.352-.002a4.357 4.357 0 1 1-.82 8.636M28.618 3.655a16.252 16.252 0 0 1 4.857-2.143C41.745-.586 52.78 3.863 56.9 13.011c3.438 7.635.497 15.078-.18 16.675m-43.786.349c-.582-1.096-4.196-8.174-1.099-15.811.482-1.19 2.92-7.202 9.142-9.427 2.254-.807 4.28-.857 5.57-.785"/>
  <path stroke="#333" stroke-linecap="round" stroke-linejoin="round" stroke-width="4.004" d="M42.632 33.636v2.462"/>
  <path stroke="#333" stroke-linecap="round" stroke-linejoin="round" stroke-width="1.227" d="m40.666 30.042 3.93-1.766"/>
  <path stroke="#333" stroke-linecap="round" stroke-linejoin="round" stroke-width="4.004" d="M27.47 33.636v2.462"/>
  <path stroke="#333" stroke-linecap="round" stroke-linejoin="round" stroke-width="1.227" d="m29.436 30.042-3.93-1.766m-.371 42.444c-2.36 1.536-5.875.585-7.801-1.295-3.107-3.032-2.783-9.153.684-11.645 2.018-1.45 5.318-1.828 7.45-.16 2.11 1.65 2.06 4.515 2.045 6.467-.015 1.814-.044 5.112-2.378 6.632Z"/>
  <path stroke="#333" stroke-linecap="round" stroke-linejoin="round" stroke-width="1.227" d="M25.247 70.835c.162.328.332.716.482 1.157.401 1.186 1.27 3.788-.025 5.124-.918.95-2.812 1.038-3.94.272-1.794-1.217-1.385-4.513-1.22-5.87m-4.352-11.1a4.42 4.42 0 0 0 1.543.492c.916.114 1.65-.09 2.035-.23m-4.072 3.046c.343.205.866.455 1.543.567 1.327.218 2.382-.243 2.793-.45m-3.362 3.38c.367.16 1.115.428 2.08.353a4.348 4.348 0 0 0 2.296-.888m30.282-8.37a42.274 42.274 0 0 1 5.12 16.644"/>
</svg>
