<svg xmlns="http://www.w3.org/2000/svg" width="62" height="40" fill="none" viewBox="0 0 62 40">
  <path fill="#DFDDDD" stroke="#333" stroke-linecap="round" stroke-linejoin="round" stroke-width="1.261" d="M51.389 34.347c-1.964 2.535-10.69 4.445-21.157 4.445-10.987 0-20.057-2.106-21.399-4.829 2.96-1.969 9.736-5.885 19.184-6.336 11.98-.57 20.577 4.8 23.372 6.72Z"/>
  <path fill="#FDF6ED" stroke="#333" stroke-linecap="round" stroke-linejoin="round" stroke-width="1.261" d="M30.913 36.397c16.521 0 29.914-3.011 29.914-6.727 0-3.715-13.393-6.727-29.913-6.727C14.392 22.943 1 25.955 1 29.67c0 3.715 13.393 6.727 29.913 6.727Z"/>
  <path stroke="#C2BEBE" stroke-linecap="round" stroke-linejoin="round" stroke-width="1.261" d="M30.913 33.715c12.956 0 23.459-1.81 23.459-4.045 0-2.233-10.503-4.044-23.459-4.044-12.955 0-23.458 1.81-23.458 4.044 0 2.234 10.503 4.045 23.459 4.045Z"/>
  <path fill="#FDF6ED" stroke="#333" stroke-linecap="round" stroke-linejoin="round" stroke-width="1.261" d="M49.214 22.341a5.804 5.804 0 0 1-.248-.023c-2.025-.218-3.647-1.187-4.564-2.73-.917-1.543-.993-3.43-.214-5.312.72-1.744 2.111-3.295 3.915-4.367 1.803-1.072 3.83-1.551 5.707-1.35 2.025.218 3.646 1.188 4.563 2.73.917 1.544.993 3.43.215 5.313-.72 1.744-2.112 3.295-3.915 4.367-1.724 1.023-3.652 1.506-5.459 1.37v.002Zm3.964-10.643c-1.08-.081-2.335.21-3.483.891-2.259 1.343-3.39 3.78-2.473 5.326.416.7 1.212 1.15 2.243 1.26 1.162.123 2.448-.19 3.617-.884 1.17-.695 2.06-1.671 2.506-2.754.396-.957.384-1.87-.032-2.571-.453-.76-1.332-1.19-2.378-1.266v-.002ZM35.994 23.705a14.9 14.9 0 0 0 3.733 3.41 14.834 14.834 0 0 0 3.742 1.712 33.1 33.1 0 0 1-12.281 2.474 33.16 33.16 0 0 1-12.826-2.474 11.915 11.915 0 0 0 4.531-2.018 11.907 11.907 0 0 0 2.944-3.102h10.159l-.002-.002Z"/>
  <path fill="#FDF6ED" stroke="#333" stroke-linecap="round" stroke-linejoin="round" stroke-width="1.261" d="M10.541 6.23c0 11.253 9.122 20.372 20.374 20.372 11.253 0 20.374-9.121 20.374-20.372a50.378 50.378 0 0 1-20.422 4.313A50.356 50.356 0 0 1 10.543 6.23h-.002Z"/>
  <path fill="#DFDDDD" stroke="#333" stroke-linecap="round" stroke-linejoin="round" stroke-width="1.261" d="M10.541 6.342c0-3.155 9.122-5.712 20.374-5.712C42.168.63 51.29 3.187 51.29 6.342a51.786 51.786 0 0 1-19.838 4.183 51.82 51.82 0 0 1-20.908-4.183h-.002Z"/>
</svg>
