<svg xmlns="http://www.w3.org/2000/svg" width="67" height="62" fill="none" viewBox="0 0 67 62">
  <path fill="#F06061" d="M10.16 55.805a1.13 1.13 0 0 1-1.522.471l-6.652-3.51a3.72 3.72 0 1 1 3.471-6.58l1.066.561.588-1.116a3.722 3.722 0 1 1 6.582 3.474l-3.536 6.7h.004Z"/>
  <path fill="#F9CB6A" d="M35.681 61.29c16.649 0 30.145-13.496 30.145-30.145C65.826 14.497 52.33 1 35.681 1S5.536 14.497 5.536 31.145c0 16.65 13.496 30.146 30.145 30.146Z"/>
  <path fill="#F06061" d="M28.587 35.512a1.603 1.603 0 0 0-1.547 2.019c.972 3.615 3.87 6.336 7.246 6.846 4.226.638 8.659-2.265 10.021-6.83.303-1.016-.48-2.035-1.54-2.035H28.582h.005Z"/>
  <path fill="#F8BCBD" d="M35.681 44.461c3.33 0 6.028-1.372 6.028-3.066 0-1.693-2.699-3.066-6.028-3.066-3.33 0-6.028 1.373-6.028 3.066 0 1.694 2.699 3.066 6.028 3.066Z"/>
  <path stroke="#333" stroke-miterlimit="10" stroke-width="1.428" d="M35.68 61.29c16.65 0 30.146-13.496 30.146-30.145C65.826 14.497 52.33 1 35.681 1S5.535 14.497 5.535 31.145c0 16.65 13.497 30.146 30.146 30.146Z"/>
  <path fill="#F06061" d="M55.328 37.304c2.542 0 4.603-1.032 4.603-2.306 0-1.273-2.06-2.305-4.603-2.305-2.543 0-4.603 1.032-4.603 2.305 0 1.274 2.06 2.306 4.603 2.306Zm-39.296 0c2.542 0 4.603-1.032 4.603-2.306 0-1.273-2.06-2.305-4.603-2.305-2.542 0-4.603 1.032-4.603 2.305 0 1.274 2.06 2.306 4.603 2.306Z"/>
  <path fill="#F06061" stroke="#333" stroke-miterlimit="10" stroke-width="1.428" d="M48.108 33.407a1.295 1.295 0 0 1-1.802-.317l-4.954-7.074a4.272 4.272 0 0 1 1.05-5.951 4.272 4.272 0 0 1 5.95 1.05l.795 1.133 1.186-.83a4.273 4.273 0 0 1 4.902 7.001l-7.127 4.99v-.002Zm-24.854 0c.586.41 1.392.267 1.802-.317l4.954-7.073a4.272 4.272 0 0 0-1.05-5.952 4.272 4.272 0 0 0-5.95 1.05l-.796 1.133-1.185-.83a4.273 4.273 0 0 0-4.902 7.001l7.127 4.99v-.002Z"/>
  <path stroke="#333" stroke-linecap="round" stroke-linejoin="round" stroke-width="1.428" d="M28.587 35.512a1.603 1.603 0 0 0-1.547 2.019c.972 3.615 3.87 6.336 7.246 6.846 4.226.638 8.659-2.265 10.021-6.83.303-1.016-.48-2.035-1.54-2.035H28.582h.005Z"/>
  <path fill="#F06061" d="M56.618 58.709a1.126 1.126 0 0 1-1.575-.241l-4.451-6.062A3.721 3.721 0 0 1 56.59 48l.714.971 1.017-.746a3.72 3.72 0 1 1 4.402 5.998l-6.107 4.482.002.002Zm1.647-44.539a1.127 1.127 0 0 1-1.519-.482l-3.463-6.676a3.72 3.72 0 1 1 6.606-3.427l.555 1.07 1.12-.58a3.72 3.72 0 1 1 3.428 6.605l-6.727 3.49Z"/>
</svg>
