<svg xmlns="http://www.w3.org/2000/svg" width="58" height="72" fill="none" viewBox="0 0 58 72">
  <path fill="#C39C76" d="M55.394 12.422 26.124 1.015a2.797 2.797 0 0 0-3.622 1.59L9.287 36.52a2.797 2.797 0 0 0 1.59 3.622l29.27 11.406a2.798 2.798 0 0 0 3.622-1.59l13.216-33.914a2.797 2.797 0 0 0-1.59-3.621Z"/>
  <path fill="#7D5045" d="m24.969 5.791-2.464 6.323a.947.947 0 0 0 .538 1.226l3.763 1.467a.947.947 0 0 0 1.226-.539l2.464-6.323a.947.947 0 0 0-.539-1.226l-3.762-1.466a.947.947 0 0 0-1.226.538Zm7.506 2.925-2.464 6.323a.947.947 0 0 0 .539 1.226l3.762 1.466a.947.947 0 0 0 1.226-.538l2.464-6.324a.947.947 0 0 0-.538-1.226l-3.763-1.466a.947.947 0 0 0-1.226.539Zm7.507 2.924-2.464 6.323a.947.947 0 0 0 .538 1.226l3.763 1.467a.947.947 0 0 0 1.226-.539l2.464-6.323a.947.947 0 0 0-.538-1.226l-3.763-1.466a.947.947 0 0 0-1.226.538Zm7.508 2.927-2.464 6.323a.947.947 0 0 0 .539 1.226l3.762 1.466a.947.947 0 0 0 1.226-.538l2.464-6.323a.947.947 0 0 0-.538-1.226l-3.763-1.467a.947.947 0 0 0-1.226.539Zm-26.392 1.158-2.464 6.324a.947.947 0 0 0 .538 1.225l3.763 1.467a.947.947 0 0 0 1.226-.539l2.464-6.323a.947.947 0 0 0-.538-1.226l-3.763-1.466a.947.947 0 0 0-1.226.538Zm-3.872 9.936-2.464 6.324a.947.947 0 0 0 .538 1.226l3.763 1.466a.947.947 0 0 0 1.226-.538l2.464-6.324a.947.947 0 0 0-.538-1.226l-3.763-1.466a.947.947 0 0 0-1.226.538Zm11.379-7.011-2.465 6.323a.947.947 0 0 0 .539 1.226l3.763 1.466a.947.947 0 0 0 1.226-.538l2.464-6.323a.947.947 0 0 0-.539-1.226L29.83 18.11a.947.947 0 0 0-1.225.539Zm7.508 2.926L33.649 27.9a.947.947 0 0 0 .538 1.226l3.763 1.466a.947.947 0 0 0 1.226-.538l2.464-6.324a.947.947 0 0 0-.538-1.226l-3.763-1.466a.947.947 0 0 0-1.226.538Zm7.504 2.924-2.464 6.323a.947.947 0 0 0 .538 1.226l3.763 1.467a.947.947 0 0 0 1.226-.539l2.464-6.323a.947.947 0 0 0-.538-1.226l-3.763-1.466a.947.947 0 0 0-1.226.538Zm-18.884 4.085-2.464 6.323a.947.947 0 0 0 .538 1.226l3.763 1.467a.947.947 0 0 0 1.226-.539l2.464-6.323a.947.947 0 0 0-.538-1.226l-3.763-1.466a.947.947 0 0 0-1.226.538Zm7.507 2.925-2.464 6.323a.947.947 0 0 0 .538 1.226l3.763 1.466a.947.947 0 0 0 1.226-.538l2.464-6.324a.947.947 0 0 0-.539-1.225l-3.762-1.467a.947.947 0 0 0-1.226.539Zm7.506 2.926L37.28 40.76a.947.947 0 0 0 .539 1.226l3.763 1.466a.947.947 0 0 0 1.226-.538l2.464-6.324a.947.947 0 0 0-.539-1.226l-3.762-1.466a.947.947 0 0 0-1.226.538Z"/>
  <path fill="#F05F62" d="M33.454 70.87 2.734 58.902c-1.508-.587-2.28-2.232-1.718-3.67l9.968-25.58c.56-1.439 2.239-2.128 3.748-1.538 1.138-.325 2.778-.592 4.506-.041 1.214.387 1.882.99 2.435 1.37 2.476 1.7 4.911.484 9.447.477 4.614-.01 4.674 1.244 11.189 1.742 2.716.207 4.948.159 6.39.09a3.014 3.014 0 0 1 1.636 1.515 2.72 2.72 0 0 1 .083 2.154L37.202 69.334c-.56 1.44-2.24 2.129-3.748 1.54v-.003Z"/>
  <mask id="a" width="51" height="45" x="0" y="27" maskUnits="userSpaceOnUse" style="mask-type:luminance">
    <path fill="#fff" d="M33.454 70.87 2.734 58.902c-1.508-.587-2.28-2.232-1.718-3.67l9.968-25.58c.56-1.439 2.239-2.128 3.748-1.538 1.138-.325 2.778-.592 4.506-.041 1.214.387 1.882.99 2.435 1.37 2.476 1.7 4.911.484 9.447.477 4.614-.01 4.674 1.244 11.189 1.742 2.716.207 4.948.159 6.39.09a3.014 3.014 0 0 1 1.636 1.515 2.72 2.72 0 0 1 .083 2.154L37.202 69.334c-.56 1.44-2.24 2.129-3.748 1.54v-.003Z"/>
  </mask>
  <g mask="url(#a)">
    <path fill="#333" d="M51.36 44.556c-2.56-3.572-6.105-6.567-10.553-7.316-2.25-.38-4.566-.214-6.821.005-.929.09-1.857.189-2.788.235-.449.02-.898.032-1.347.023.071-.012-.917-.09-1.03-.106-1.21-.18-1.26-.18-2.205-.696.482.263-.345-.258-.414-.313-.364-.3-.698-.636-1.044-.959-1.866-1.753-3.87-2.66-6.434-2.702-.539-.009-1.076.023-1.615.042-.196.009-.394.011-.59.011a4.302 4.302 0 0 0-.313-.039 5.935 5.935 0 0 1-.456-.094c-.05-.021-.124-.049-.223-.088-.037-.018-.615-.322-.574-.272a7.928 7.928 0 0 1-.827-.693c.5.47-.332-.468-.428-.59l-.127-.21a6.992 6.992 0 0 1-.175-.428 9.552 9.552 0 0 1-.11-.332 2.008 2.008 0 0 0-.042-.325c-.228-1.866-1.93-3.526-3.9-3.261-1.88.253-3.506 1.9-3.262 3.9.56 4.59 3.971 8.417 8.514 9.408 1.161.253 2.377.2 3.557.156-.019 0 .776-.004.765-.025.18.02.359.05.536.09-.115-.021-.092.007.07.08.041.035.12.095.237.18.18.15.355.306.525.468.348.32.677.659 1.032.97.85.746 1.838 1.4 2.88 1.85 4.206 1.81 8.57.877 12.955.686 1.122-.048 1.583-.062 2.774.187.795.165 1.228.327 2.188.9l.2.138c.199.143.392.29.581.445.383.309.737.645 1.094.981.1.104.169.173.212.217.139.157.275.313.406.474.31.38.603.775.89 1.173 1.13 1.578 3.427 1.977 5.014.848 1.583-1.124 1.984-3.43.85-5.015l-.002-.003Z" opacity=".2"/>
  </g>
  <path fill="#FDF6ED" d="M10.002 33.683c1.767 2.666 3.096 3.202 4.013 3.145.288-.019.403-.118 1.074-.238.32-.055 1.693-.297 2.935-.11 1.28.191 2.133.792 3.547 1.817 1.564 1.134 1.96 1.737 2.702 2.309 2.535 1.956 5.04.421 13.33.937 1.531.097 2.561.217 3.77.542a16.572 16.572 0 0 1 5.423 2.605 26.965 26.965 0 0 0 2.557-6.282c.85-3.19 1.297-4.872.433-5.973-1.336-1.7-3.96.32-9.735-.816-2.974-.585-3.425-1.352-6.522-1.59-2.255-.172-5.093 0-5.404.021-2.843.18-3.69.498-5.18-.009-1.67-.567-1.371-1.223-3.136-1.836-1.569-.543-2.972-.428-5.384-.228-1.359.113-2.05.175-2.527.456-2.006 1.182-1.926 4.51-1.896 5.248v.002Z"/>
  <path stroke="#333" stroke-linecap="round" stroke-linejoin="round" stroke-width="1.613" d="m12.755 27.62 9.747-25.015a2.794 2.794 0 0 1 3.621-1.59l29.273 11.408a2.794 2.794 0 0 1 1.59 3.621l-6.518 16.727"/>
  <path stroke="#333" stroke-linecap="round" stroke-linejoin="round" stroke-width="1.613" d="M33.454 70.87 2.734 58.902c-1.508-.587-2.28-2.232-1.718-3.67l9.968-25.58c.56-1.439 2.239-2.128 3.748-1.538 1.138-.325 2.778-.592 4.506-.041 1.214.387 1.882.99 2.435 1.37 2.476 1.7 4.911.484 9.447.477 4.614-.01 4.674 1.244 11.189 1.742 2.716.207 4.948.159 6.39.09a3.014 3.014 0 0 1 1.636 1.515 2.72 2.72 0 0 1 .083 2.154L37.202 69.334c-.56 1.44-2.24 2.129-3.748 1.54v-.003Z"/>
  <path stroke="#333" stroke-linecap="round" stroke-linejoin="round" stroke-width="1.613" d="M9.781 33.598c1.767 2.665 3.096 3.202 4.013 3.144.288-.018.403-.117 1.074-.237.32-.055 1.693-.297 2.934-.11 1.281.19 2.134.792 3.548 1.817 1.564 1.134 1.96 1.737 2.702 2.308 2.534 1.956 5.04.422 13.33.938 1.531.097 2.56.217 3.77.541a16.574 16.574 0 0 1 5.423 2.606"/>
</svg>
