<svg xmlns="http://www.w3.org/2000/svg" width="69" height="77" fill="none" viewBox="0 0 69 77">
  <path fill="#A8D471" d="M1 74.898c1.2-8.34 3.709-14.524 5.683-18.48 1.893-3.795 3.48-5.91 5.831-7.671 3.689-2.76 7.766-3.536 10.062-3.796h23.226c2.295.26 6.373 1.036 10.06 3.796 2.353 1.76 3.94 3.876 5.832 7.672 1.974 3.955 4.484 10.14 5.683 18.48"/>
  <path fill="#F3D2BA" d="M53.367 29.3c.009 1.725.157 8.904-4.72 13.535-2.973 2.821-7.58 4.534-14.455 4.534s-11.483-1.713-14.455-4.534c-4.886-4.638-4.733-11.748-4.72-13.536 2.169-8.532 9.557-14.672 18.052-15.15 9.266-.52 17.891 5.804 20.301 15.15h-.003Z"/>
  <path fill="#F3D2BA" d="M15.838 37.296a3.169 3.169 0 0 1-.827.081c-1.716-.06-4.247-1.571-4.247-4.247 0-2.329 1.918-4.246 4.247-4.246l.827 8.414v-.002Zm37.53-8.414a4.247 4.247 0 1 1-.799 8.418l.8-8.42v.002Z"/>
  <path fill="#7D5045" d="M55.487 12.706C51.471 3.789 40.717-.546 32.654 1.498a15.841 15.841 0 0 0-4.734 2.089l-2.019.348a13.855 13.855 0 0 0-5.429.765c-6.063 2.17-8.439 8.029-8.91 9.189-3.02 7.442.503 14.343 1.07 15.411l2.62-.583a22.76 22.76 0 0 0 8.215-4.102 22.767 22.767 0 0 0 5.613-6.481l-.474-1.689c.874 2.439 2.589 5.648 5.93 7.608 2.408 1.414 6.686 2.783 8.384 1.232 1.425.944 2.932 1.54 4.25 2.056a24.666 24.666 0 0 0 6.2 1.54l1.47.145c.659-1.559 4-8.877.649-16.32l-.002-.002Z"/>
  <path fill="#F3D2BA" d="M22.282 74.979c-.601.022-2.622.07-4.48-1.152-3.654-2.403-3.65-7.67-3.646-10.24 0-1.814.035-4.422 1.6-7.168.73-1.282 2.616-4.593 5.951-4.864.387-.032 2.589-.21 3.968 1.217 2.211 2.286.493 7.098 1.6 7.423.529.155.987-.91 2.04-.784.874.106 1.42.944 1.48 1.04.327.52.355 1.036.368 1.553.043 1.677.064 2.517-.12 3.48-.457 2.39-.929 4.874-3.072 6.934-.607.585-2.606 2.448-5.689 2.561Zm23.868 0c.601.022 2.622.07 4.48-1.152 3.654-2.403 3.65-7.67 3.646-10.24 0-1.814-.036-4.422-1.6-7.168-.73-1.282-2.616-4.593-5.951-4.864-.388-.032-2.589-.21-3.969 1.217-2.21 2.286-.492 7.098-1.6 7.423-.528.155-.986-.91-2.04-.784-.873.106-1.419.944-1.479 1.04-.327.52-.355 1.036-.368 1.553-.044 1.677-.064 2.517.12 3.48.457 2.39.929 4.874 3.072 6.934.607.585 2.605 2.448 5.688 2.561Z"/>
  <path stroke="#333" stroke-linecap="round" stroke-linejoin="round" stroke-width="1.316" d="M45.803 45.57c2.296.26 6.373 1.036 10.062 3.795 2.351 1.76 3.938 3.877 5.831 7.672 1.974 3.956 4.484 10.14 5.683 18.48M22.577 45.57c-2.295.26-6.373 1.036-10.06 3.795-2.353 1.76-3.94 3.877-5.832 7.672-1.974 3.956-4.484 10.14-5.683 18.48"/>
  <path stroke="#333" stroke-linecap="round" stroke-linejoin="round" stroke-width="1.316" d="M53.366 29.916c.01 1.726.158 8.905-4.72 13.535-2.972 2.822-7.58 4.535-14.455 4.535S22.71 46.273 19.737 43.45c-4.886-4.638-4.734-11.747-4.72-13.535M27.85 14.371c.391 1.893 1.8 7.43 6.683 10.298 2.497 1.466 7.007 2.884 8.563 1.05 1.074-1.268.423-3.716-.487-5.152-1.206-1.904-3.602-3.173-4.284-2.603-.727.607.378 3.44 1.827 5.365 2.002 2.662 4.783 3.752 7.018 4.63a24.662 24.662 0 0 0 6.2 1.54"/>
  <path stroke="#333" stroke-linecap="round" stroke-linejoin="round" stroke-width="1.316" d="M29.078 18.75a22.706 22.706 0 0 1-5.613 6.481 22.73 22.73 0 0 1-8.216 4.102m.589 8.58a3.168 3.168 0 0 1-.827.08c-1.716-.06-4.247-1.57-4.247-4.246 0-2.329 1.918-4.247 4.247-4.247m38.357-.001a4.247 4.247 0 1 1-.799 8.418M27.92 4.203a15.842 15.842 0 0 1 4.733-2.089C40.715.07 51.472 4.406 55.487 13.322c3.352 7.443.485 14.697-.175 16.254m-42.679.34c-.568-1.068-4.091-7.967-1.072-15.412.47-1.16 2.846-7.019 8.91-9.188 2.198-.786 4.172-.835 5.43-.766m8.289 38.984a1.887 1.887 0 1 0 0-3.775 1.887 1.887 0 0 0 0 3.775Z"/>
  <path stroke="#333" stroke-linecap="round" stroke-linejoin="round" stroke-width="4.294" d="M41.58 33.426v2.4"/>
  <path stroke="#333" stroke-linecap="round" stroke-linejoin="round" stroke-width="1.316" d="M39.803 28.694h3.553"/>
  <path stroke="#333" stroke-linecap="round" stroke-linejoin="round" stroke-width="4.294" d="M26.801 33.426v2.4"/>
  <path stroke="#333" stroke-linecap="round" stroke-linejoin="round" stroke-width="1.316" d="M25.025 28.694h3.553M23.48 52.195v7.899m-3.11-7.702v8.25M17.4 54.36v8.896m4.32 5.974a6.99 6.99 0 0 1 2.816-2.496 6.97 6.97 0 0 1 3.872-.64"/>
  <path stroke="#333" stroke-linecap="round" stroke-linejoin="round" stroke-width="1.316" d="M26.92 62.043c.01-.097.276-2.047 1.686-2.534.088-.03.878-.291 1.528.08 2.046 1.16.48 7.27.384 7.637-.56 2.119-.974 3.687-2.416 5.136-2.918 2.93-7.055 2.457-7.488 2.4a9.063 9.063 0 0 1-2.472-.695 5.805 5.805 0 0 1-3.242-3.765c-.06-.22-.126-.465-.192-.743 0 0-.519-2.171-.604-4.348-.103-2.653-.242-6.478 2.207-9.759.54-.721 2.732-3.656 6.08-3.776.342-.013 1.427-.051 2.286.378 2.581 1.285 3.222 6.83 1.553 13.574M44.9 52.195v7.899m3.11-7.702v8.25m2.97-6.282v8.896m-4.32 5.974a6.992 6.992 0 0 0-2.816-2.496 6.97 6.97 0 0 0-3.872-.64"/>
  <path stroke="#333" stroke-linecap="round" stroke-linejoin="round" stroke-width="1.316" d="M41.459 62.043c-.012-.097-.277-2.047-1.687-2.534-.088-.03-.877-.291-1.528.08-2.045 1.16-.48 7.27-.383 7.637.56 2.119.973 3.687 2.415 5.136 2.918 2.93 7.056 2.457 7.488 2.4a9.063 9.063 0 0 0 2.472-.695 5.805 5.805 0 0 0 3.243-3.765c.06-.22.126-.465.192-.743 0 0 .518-2.171.603-4.348.103-2.653.242-6.478-2.207-9.759-.54-.721-2.731-3.656-6.08-3.776-.342-.013-1.426-.051-2.285.378-2.582 1.285-3.223 6.83-1.553 13.574"/>
</svg>
