<svg xmlns="http://www.w3.org/2000/svg" width="71" height="54" fill="none" viewBox="0 0 71 54">
  <path fill="#F3D2BA" d="M18.655 49.868c-.547.184-2.39.775-4.427.155-4.007-1.218-5.43-6.059-6.124-8.419-.49-1.665-1.164-4.07-.472-7.017.324-1.376 1.16-4.929 4.15-6.08.348-.132 2.322-.894 3.974.043 2.65 1.502 2.375 6.387 3.48 6.387.528 0 .66-1.103 1.663-1.271.832-.142 1.56.483 1.64.554.442.389.607.854.758 1.325.494 1.53.74 2.295.833 3.23.229 2.32.466 4.73-.944 7.202-.4.703-1.73 2.955-4.53 3.891Z"/>
  <path fill="#F3D2BA" d="M65.603 33.14c.01 1.902.173 9.81-5.202 14.914-3.275 3.108-8.352 4.996-15.927 4.996-7.574 0-12.651-1.886-15.926-4.996-5.383-5.11-5.217-12.943-5.202-14.914 2.39-9.402 10.532-16.166 19.89-16.691 10.21-.575 19.714 6.394 22.368 16.691h-.001Z"/>
  <path fill="#7D5045" d="M67.939 14.182C63.514 4.356 51.664-.421 42.782 1.833a17.475 17.475 0 0 0-5.215 2.301l-2.224.384c-1.386-.077-3.56-.024-5.983.844-6.68 2.39-9.3 8.847-9.817 10.123-3.327 8.2.556 15.804 1.18 16.98l2.886-.642a25.06 25.06 0 0 0 9.05-4.52 25.055 25.055 0 0 0 6.184-7.141l-.52-1.86c.963 2.687 2.852 6.222 6.532 8.383 2.653 1.559 7.366 3.066 9.238 1.358 1.571 1.041 3.23 1.696 4.684 2.266a27.281 27.281 0 0 0 6.832 1.698l1.912.699c.726-1.717 4.115-10.321.421-18.523l-.003-.001Z"/>
  <path fill="#F3D2BA" d="M63.805 43.205c3.714.128 6.497-3.063 6.169-6.14-.329-3.078-3.721-5.607-7.324-4.7-3.52 1.722-4.833 5.498-3.608 7.995 1.228 2.505 4.571 2.828 4.763 2.845Z"/>
  <path stroke="#333" stroke-linecap="round" stroke-linejoin="round" stroke-width="1.179" d="M63.805 43.205c3.714.128 6.497-3.063 6.169-6.14-.236-2.205-2.045-4.129-4.377-4.708"/>
  <path stroke="#333" stroke-linecap="round" stroke-linejoin="round" stroke-width="1.26" d="m13.634 28.599 2.137 7.255m-4.941-6.233 2.235 7.58m-4.431-4.967 2.409 8.173m5.587 4.319a6.686 6.686 0 0 1 1.912-3.056 6.694 6.694 0 0 1 3.384-1.635"/>
  <path stroke="#333" stroke-linecap="round" stroke-linejoin="round" stroke-width="1.26" d="M19.46 36.713c-.015-.093-.3-1.956.864-2.785.073-.052.728-.505 1.425-.341 2.194.512 2.41 6.549 2.421 6.912.059 2.1.103 3.652-.829 5.372-1.886 3.482-5.816 4.168-6.229 4.233a8.713 8.713 0 0 1-2.46.032 5.56 5.56 0 0 1-3.998-2.582c-.116-.185-.24-.393-.377-.63 0 0-1.065-1.855-1.732-3.83-.813-2.41-1.977-5.886-.615-9.565.3-.81 1.52-4.098 4.563-5.115.31-.105 1.297-.433 2.204-.273 2.72.481 4.809 5.4 5.102 12.049"/>
  <path stroke="#333" stroke-linecap="round" stroke-linejoin="round" stroke-width="1.179" d="M37.489 15.337c.431 2.087 1.98 8.185 7.363 11.347 2.75 1.615 7.72 3.178 9.434 1.155 1.184-1.396.467-4.091-.537-5.676-1.329-2.1-3.968-3.497-4.721-2.87-.802.668.416 3.79 2.012 5.912 2.207 2.932 5.27 4.135 7.732 5.102a27.277 27.277 0 0 0 6.832 1.698"/>
  <path stroke="#333" stroke-linecap="round" stroke-linejoin="round" stroke-width="1.179" d="M38.842 20.16a25.01 25.01 0 0 1-6.184 7.142 25.062 25.062 0 0 1-9.05 4.52M37.567 4.134a17.493 17.493 0 0 1 5.215-2.301c8.882-2.254 20.734 2.525 25.157 12.349 3.694 8.201.534 16.192-.192 17.909m-47.025.374c-.625-1.176-4.508-8.78-1.18-16.98.518-1.278 3.136-7.733 9.816-10.123 2.42-.866 4.597-.92 5.983-.844"/>
  <path fill="#F06061" stroke="#333" stroke-linecap="round" stroke-linejoin="round" stroke-width="1.179" d="M43.954 49.749a2.42 2.42 0 1 0 0-4.841 2.42 2.42 0 0 0 0 4.84Z"/>
  <path stroke="#333" stroke-linecap="round" stroke-linejoin="round" stroke-width="5.506" d="M53.274 36.789v3.077"/>
  <path stroke="#333" stroke-linecap="round" stroke-linejoin="round" stroke-width="1.179" d="M50.997 30.721h4.555"/>
  <path stroke="#333" stroke-linecap="round" stroke-linejoin="round" stroke-width="5.506" d="M34.902 36.789v3.077"/>
  <path stroke="#333" stroke-linecap="round" stroke-linejoin="round" stroke-width="1.179" d="M32.624 30.721h4.555m28.424 2.419c.008 1.456.106 6.436-2.264 10.981a14.84 14.84 0 0 1-2.938 3.933c-3.274 3.108-8.351 4.996-15.926 4.996-7.575 0-12.652-1.886-15.927-4.996-1.448-1.374-2.494-2.946-3.25-4.548"/>
  <path fill="#F3D2BA" d="M23.539 43.205c-3.714.128-6.497-3.063-6.169-6.14.329-3.078 3.721-5.607 7.324-4.7 3.52 1.722 4.833 5.498 3.608 7.995-1.227 2.505-4.571 2.828-4.763 2.845Z"/>
  <path stroke="#333" stroke-linecap="round" stroke-linejoin="round" stroke-width="1.179" d="M26.562 42.208c-.65.438-1.705.987-3.024.997-2.976.02-6.562-2.72-6.168-6.14.349-3.022 3.684-5.515 7.324-4.7"/>
  <path stroke="#333" stroke-linecap="round" stroke-linejoin="round" stroke-width="1.179" d="M20.442 36.42c.875-.618 2.017-.728 2.935-.276 1.068.525 1.652 1.72 1.405 2.924"/>
  <path stroke="#333" stroke-linecap="round" stroke-linejoin="round" stroke-width="1.179" d="M22.812 40.134c-.805-.197-1.37-.822-1.398-1.48-.039-.88.878-1.793 2.082-1.734"/>
  <path stroke="#F9CB6A" stroke-linecap="round" stroke-linejoin="round" stroke-width="1.179" d="M4.772 30.243c-.369-1.24-.042-2.56.85-3.404 1.032-.974 2.354-.873 2.568-.854"/>
  <path stroke="#F9CB6A" stroke-linecap="round" stroke-linejoin="round" stroke-width="1.179" d="M1.713 31.821c-.766-2.58-.086-5.328 1.77-7.081 2.145-2.025 4.895-1.816 5.34-1.776"/>
</svg>
