<svg xmlns="http://www.w3.org/2000/svg" width="64" height="65" fill="none" viewBox="0 0 64 65">
  <path fill="#A8D471" d="M48.046 42.911c-2.89-3.63-8.326-3.244-9.112-3.178H20.4c-1.411-.25-5.58-.79-8.49 1.725-3.494 3.02-2.78 8.38-2.18 12.868.436 3.27.837 6.276 3.246 8.25.722.593 2.205 1.568 7.556 1.81 2.918.131 7.148.052 12.268-1.012l.045-.028c4.629.835 8.907 1.467 12.102-1.06 2.541-2.01 3.161-5.045 3.874-8.525.807-3.945 1.61-7.855-.774-10.851v.001Z"/>
  <path fill="#F3D2BA" d="M43.957 28.214c.006 1.292.118 6.674-3.539 10.146-2.228 2.114-5.682 3.398-10.834 3.398-5.153 0-8.607-1.284-10.835-3.398-3.662-3.477-3.548-8.805-3.538-10.146 1.627-6.397 7.163-10.997 13.531-11.356 6.946-.39 13.41 4.35 15.216 11.356h-.001Z"/>
  <path fill="#F3D2BA" d="M15.828 34.206c-.17.039-.38.068-.62.06-1.288-.044-3.185-1.177-3.185-3.185a3.201 3.201 0 0 1 3.184-3.184l.62 6.307v.002Zm28.13-6.306a3.185 3.185 0 1 1-.599 6.312l.6-6.31V27.9Z"/>
  <path fill="#7D5045" d="M45.547 15.775c-3.01-6.683-11.072-9.934-17.115-8.4a11.887 11.887 0 0 0-3.548 1.565l-1.513.261a10.371 10.371 0 0 0-4.07.573c-4.545 1.627-6.326 6.018-6.679 6.887-2.264 5.578.378 10.75.802 11.551l1.964-.437a17.06 17.06 0 0 0 6.157-3.075 17.058 17.058 0 0 0 4.208-4.86l-.354-1.264c.656 1.828 1.94 4.233 4.444 5.703 1.805 1.06 5.012 2.085 6.285.924 1.068.708 2.199 1.155 3.186 1.541a18.56 18.56 0 0 0 4.648 1.154l1.456.059c.494-1.168 2.644-6.604.13-12.184l-.002.002Z"/>
  <path stroke="#333" stroke-linecap="round" stroke-linejoin="round" stroke-width="1.051" d="M20.399 39.732c-1.411-.25-5.58-.791-8.49 1.724-3.494 3.02-2.78 8.38-2.18 12.868.436 3.27.837 6.276 3.246 8.251.722.593 2.205 1.567 7.556 1.81 2.918.13 7.148.051 12.268-1.013"/>
  <path fill="#F3D2BA" d="M21.177 54.556c-.422-.53-2.694-3.286-6.064-3.293a6.008 6.008 0 0 0-2.973.783c-.314.18-2.909 1.677-2.76 4.037.101 1.643 1.503 3.163 2.924 3.4 1.471.245 1.898-1.062 3.767-.826 1.02.128 1.531.596 2.814.514a5.152 5.152 0 0 0 1.468-.316"/>
  <path stroke="#333" stroke-linecap="round" stroke-linejoin="round" stroke-width="1.051" d="M21.177 54.556c-.422-.53-2.694-3.286-6.064-3.293a6.008 6.008 0 0 0-2.973.783c-.314.18-2.909 1.677-2.76 4.037.101 1.643 1.503 3.163 2.924 3.4 1.471.245 1.898-1.062 3.767-.826 1.02.128 1.531.596 2.814.514a5.152 5.152 0 0 0 1.468-.316"/>
  <path stroke="#333" stroke-linecap="round" stroke-linejoin="round" stroke-width="1.051" d="M17.314 46.065a24.693 24.693 0 0 0 .121 3.615c.085.776.202 1.502.335 2.17m22.847-5.785a24.477 24.477 0 0 1-.285 4.83"/>
  <path stroke="#333" stroke-linecap="round" stroke-linejoin="round" stroke-width="1.051" d="M38.934 39.732c.784-.067 6.223-.453 9.112 3.178 2.383 2.996 1.583 6.906.774 10.85-.713 3.48-1.335 6.516-3.874 8.526-3.35 2.65-7.894 1.825-12.782.937-2.63-.477-6.544-1.499-10.95-3.923a1.267 1.267 0 0 1-.635-1.327l.414-2.366a1.262 1.262 0 0 1 1.257-1.046 75.911 75.911 0 0 1 20.16 2.985"/>
  <path fill="#F3D2BA" stroke="#333" stroke-linecap="round" stroke-linejoin="round" stroke-width="1.051" d="M37.04 53.265c.488-.47 3.097-2.91 6.44-2.48a6.013 6.013 0 0 1 2.848 1.162c.418.32 2.778 2.114 2.213 4.36-.344 1.372-1.736 2.639-3.39 2.627-1.6-.011-2.596-1.206-2.74-1.386-.273.047-2.095.324-3.68-.965-1.544-1.257-1.674-3.033-1.689-3.318h-.002Z"/>
  <path stroke="#333" stroke-linecap="round" stroke-linejoin="round" stroke-width="1.051" d="M26.77 54.649a27.176 27.176 0 0 1 9.425-1.418c.495.013.919.358 1.03.84l.524 2.288"/>
  <path stroke="#66A9EB" stroke-linecap="round" stroke-linejoin="round" stroke-width="1.137" d="m54.892 37.174 3.248 3.768-3.248 3.769 3.248 3.769-3.248 3.769 3.248 3.769-3.248 3.767M4.248 37.174 1 40.942l3.248 3.769L1 48.48l3.248 3.769L1 56.018l3.248 3.767"/>
  <path stroke="#333" stroke-linecap="round" stroke-linejoin="round" stroke-width=".986" d="M43.957 28.214c.006 1.292.118 6.674-3.539 10.146-2.228 2.114-5.682 3.398-10.834 3.398-5.153 0-8.607-1.284-10.835-3.398-3.662-3.477-3.548-8.805-3.538-10.146"/>
  <path stroke="#333" stroke-linecap="round" stroke-linejoin="round" stroke-width="3.219" d="M35.123 31.341v1.798m-11.078-1.798v1.798"/>
  <path stroke="#333" stroke-linecap="round" stroke-linejoin="round" stroke-width=".986" d="M24.832 16.56c.293 1.42 1.348 5.569 5.01 7.719 1.872 1.1 5.252 2.161 6.418.786.805-.95.316-2.784-.366-3.862-.904-1.427-2.7-2.379-3.212-1.952-.546.455.283 2.58 1.37 4.023 1.5 1.994 3.583 2.812 5.259 3.47a18.56 18.56 0 0 0 4.648 1.154"/>
  <path stroke="#333" stroke-linecap="round" stroke-linejoin="round" stroke-width=".986" d="M25.751 19.842a17.03 17.03 0 0 1-4.207 4.86 17.081 17.081 0 0 1-6.156 3.075m.44 6.429c-.17.039-.38.068-.62.06-1.288-.044-3.185-1.177-3.185-3.185a3.201 3.201 0 0 1 3.184-3.184m28.751.003a3.185 3.185 0 1 1-.599 6.312M24.884 8.94a11.928 11.928 0 0 1 3.549-1.566c6.042-1.533 14.105 1.718 17.114 8.4 2.512 5.58.362 11.015-.13 12.185m-31.991.255c-.425-.801-3.066-5.973-.802-11.551.352-.869 2.134-5.262 6.679-6.887a10.344 10.344 0 0 1 4.07-.573"/>
  <path stroke="#333" stroke-linecap="round" stroke-linejoin="round" stroke-width=".705" d="M33.208 28.113c.182-.16.72-.588 1.537-.664.96-.09 1.651.37 1.83.498m-10.615.166a2.743 2.743 0 0 0-1.537-.664 2.756 2.756 0 0 0-1.83.498"/>
  <path fill="#FDF6ED" stroke="#333" stroke-linecap="round" stroke-linejoin="round" stroke-width=".713" d="M33.095 35.53h-7.022a1.607 1.607 0 1 0 0 3.215h7.022a1.607 1.607 0 1 0 0-3.214Z"/>
  <path stroke="#333" stroke-linecap="round" stroke-linejoin="round" stroke-width=".713" d="M24.592 37.139h9.803m-8.324-1.609v3.215m2.246-3.215v3.215m2.246-3.215v3.215m2.246-3.215v3.215"/>
  <path stroke="#66A9EB" stroke-linecap="round" stroke-linejoin="round" stroke-width=".789" d="M56.084 15.22V8.447m-1.841 5.883.92-.623.921-.622.92.622.922.624m-6.869-1.192 4.788-4.79m-5.461 2.857 1.091.211 1.092.211.21 1.092.212 1.09m-4.014-5.699h6.771m-5.881-1.843.622.922.622.921-.622.92-.622.922m1.192-6.87 4.788 4.79M52.989 2.41l-.211 1.09-.211 1.092-1.092.211-1.09.211M56.084 1v6.773m1.842-5.881-.921.622-.92.621-.922-.621-.92-.622m6.869 1.191-4.789 4.79m5.461-2.859-1.09-.21-1.09-.212-.212-1.091-.213-1.091m4.016 5.701h-6.773m5.882 1.842-.622-.921-.622-.92.622-.922.622-.922m-1.192 6.871-4.789-4.79m2.858 5.461.211-1.09.211-1.092 1.092-.21 1.09-.212"/>
</svg>
