<svg xmlns="http://www.w3.org/2000/svg" width="64" height="72" fill="none" viewBox="0 0 64 72">
  <path fill="#FDF6ED" stroke="#333" stroke-linecap="round" stroke-linejoin="round" stroke-width="1.564" d="M60.621 33.382a6.847 6.847 0 0 0 2.147-4.984 6.883 6.883 0 0 0-2.192-5.027 6.826 6.826 0 0 0 1.129-3.766 6.866 6.866 0 0 0-6.02-6.812 6.87 6.87 0 0 0-6.32-5.137 6.866 6.866 0 0 0-11.143-3.261 6.855 6.855 0 0 0-5.52-2.784c-.968 0-1.889.2-2.724.563A6.83 6.83 0 0 0 25.836.782a6.854 6.854 0 0 0-5.68 3.007 6.864 6.864 0 0 0-7.992 5.87 6.87 6.87 0 0 0-5.51 5.627A6.868 6.868 0 0 0 1.95 25.909a6.837 6.837 0 0 0-1.168 3.832c0 1.419.391 2.607 1.063 3.668a6.832 6.832 0 0 0-1.063 3.669c0 2.026.878 3.847 2.274 5.105a6.852 6.852 0 0 0 2.688 6.043 6.858 6.858 0 0 0 3 8.568c-.136 1.461.818 3.208 2.538 4.365 2.232 1.504 4.902 1.448 5.963-.127.052-.076.094-.154.134-.234.222.053.447.096.677.127a6.865 6.865 0 0 0 11.839 3.369 6.857 6.857 0 0 0 5.97-.174 6.865 6.865 0 0 0 11.428-1.459h.084a6.866 6.866 0 0 0 6.758-8.066 6.863 6.863 0 0 0 2.038-3.804 6.866 6.866 0 0 0 3.528-8.876 6.84 6.84 0 0 0 1.997-4.842c0-1.36-.398-2.63-1.081-3.695l.004.004Z"/>
  <path fill="#F3D2B9" d="M40.887 31.76c.389 1.712 2.947 2.235 4.075 2.465 1.38.281 4.591.605 5.172-.74.494-1.146-1.155-2.96-2.46-3.831-1.412-.943-4.093-1.902-5.728-.541-.695.579-1.287 1.649-1.06 2.65v-.003Z"/>
  <path stroke="#333" stroke-miterlimit="10" stroke-width="1.564" d="M40.887 31.76c.389 1.712 2.947 2.235 4.075 2.465 1.38.281 4.591.605 5.172-.74.494-1.146-1.155-2.96-2.46-3.831-1.412-.943-4.093-1.902-5.728-.541-.695.579-1.287 1.649-1.06 2.65v-.003Z"/>
  <path fill="#F3D2B9" d="M22.665 31.76c-.389 1.712-2.947 2.235-4.075 2.465-1.38.281-4.59.605-5.172-.74-.493-1.146 1.155-2.96 2.46-3.831 1.412-.943 4.093-1.902 5.728-.541.695.579 1.287 1.649 1.06 2.65v-.003Z"/>
  <path stroke="#333" stroke-miterlimit="10" stroke-width="1.564" d="M22.665 31.76c-.389 1.712-2.947 2.235-4.075 2.465-1.38.281-4.59.605-5.172-.74-.493-1.146 1.155-2.96 2.46-3.831 1.412-.943 4.093-1.902 5.728-.541.695.579 1.287 1.649 1.06 2.65v-.003Z"/>
  <path fill="#F3D2B9" stroke="#333" stroke-linecap="round" stroke-linejoin="round" stroke-width="1.564" d="M34.133 19.71h-4.716a9.392 9.392 0 0 0-9.392 9.392v9.097a9.392 9.392 0 0 0 9.392 9.393h4.716a9.392 9.392 0 0 0 9.392-9.393v-9.097a9.392 9.392 0 0 0-9.392-9.393Z"/>
  <path stroke="#333" stroke-linecap="round" stroke-linejoin="round" stroke-width="1.117" d="m29.517 38.744 2.138 1.636c.794-.545 1.587-1.09 2.377-1.636m-5.37 2.826c.545 1.435 1.95 2.33 3.402 2.206 1.263-.11 2.366-.972 2.824-2.205m-3.123-1.365.02 2.989"/>
  <path fill="#333" d="M26.385 37.509c.91 0 1.647-.928 1.647-2.073s-.737-2.074-1.647-2.074c-.909 0-1.646.928-1.646 2.074 0 1.145.737 2.073 1.646 2.073Zm10.78 0c.91 0 1.647-.928 1.647-2.073s-.737-2.074-1.647-2.074-1.646.929-1.646 2.074c0 1.145.737 2.073 1.646 2.073Z"/>
  <path fill="#FDF6ED" d="M15.156 24.74a3.878 3.878 0 0 0 3.879 3.88 3.84 3.84 0 0 0 1.751-.423 3.875 3.875 0 0 0 6.575.811c.458.19.959.295 1.486.295.681 0 1.32-.177 1.877-.485a3.872 3.872 0 0 0 6.474-.172 3.854 3.854 0 0 0 1.613.353c.927 0 1.779-.326 2.444-.869a3.878 3.878 0 0 0 7.138-2.098c-2.794-6.49-9.077-10.829-16.123-11.135-7.11-.31-13.792 3.535-17.114 9.844Z"/>
  <path stroke="#333" stroke-linecap="round" stroke-linejoin="round" stroke-width="1.564" d="M15.156 24.74a3.878 3.878 0 0 0 3.879 3.88 3.84 3.84 0 0 0 1.751-.423 3.875 3.875 0 0 0 6.575.811c.458.19.959.295 1.486.295.681 0 1.32-.177 1.877-.485a3.872 3.872 0 0 0 6.474-.172 3.854 3.854 0 0 0 1.613.353c.927 0 1.779-.326 2.444-.869a3.878 3.878 0 0 0 7.138-2.098"/>
  <path fill="#F3D2B9" stroke="#333" stroke-linecap="round" stroke-linejoin="round" stroke-width="1.564" d="M24.553 67.929c0 .95-.51 1.832-1.34 2.29-.86.474-2.085.905-3.55.735a5.793 5.793 0 0 1-2.19-.717 2.607 2.607 0 0 1-1.316-2.275V56.477a2.625 2.625 0 0 1 2.625-2.625h3.144a2.625 2.625 0 0 1 2.625 2.625v11.452h.002Zm22.837 0a2.61 2.61 0 0 1-1.34 2.29c-.86.474-2.084.905-3.55.735a5.793 5.793 0 0 1-2.19-.717 2.607 2.607 0 0 1-1.315-2.275V56.477a2.625 2.625 0 0 1 2.625-2.625h3.143a2.625 2.625 0 0 1 2.625 2.625v11.452h.003Z"/>
  <path fill="#FDF6ED" d="M13.298 54.638a3.179 3.179 0 0 0 4.077 3.047 3.178 3.178 0 0 0 2.953 2.009 3.18 3.18 0 0 0 3.07-2.362 3.179 3.179 0 0 0 5.168-2.478c-1.383-3.006-4.393-4.943-7.684-4.943a8.48 8.48 0 0 0-7.582 4.727h-.002Z"/>
  <path stroke="#333" stroke-linecap="round" stroke-linejoin="round" stroke-width="1.564" d="M13.298 54.638a3.179 3.179 0 0 0 4.077 3.047 3.178 3.178 0 0 0 2.953 2.009 3.18 3.18 0 0 0 3.07-2.362 3.179 3.179 0 0 0 5.168-2.478"/>
  <path fill="#FDF6ED" d="M34.987 54.638a3.179 3.179 0 0 0 4.077 3.047 3.178 3.178 0 0 0 2.953 2.009 3.18 3.18 0 0 0 3.07-2.362 3.179 3.179 0 0 0 5.168-2.478c-1.383-3.006-4.393-4.943-7.684-4.943a8.48 8.48 0 0 0-7.582 4.727h-.002Z"/>
  <path stroke="#333" stroke-linecap="round" stroke-linejoin="round" stroke-width="1.564" d="M34.987 54.638a3.179 3.179 0 0 0 4.077 3.047 3.178 3.178 0 0 0 2.953 2.009 3.18 3.18 0 0 0 3.07-2.362 3.179 3.179 0 0 0 5.168-2.478"/>
</svg>
