<svg xmlns="http://www.w3.org/2000/svg" width="43" height="73" fill="none" viewBox="0 0 43 73">
  <path fill="#F5A759" d="M5.725 25.493 20.59 71.1c.398 1.217 2.12 1.217 2.517 0l14.907-45.742a55.91 55.91 0 0 1-15.084 2.435A55.956 55.956 0 0 1 5.727 25.49l-.002.002Z"/>
  <mask id="a" width="34" height="48" x="5" y="25" maskUnits="userSpaceOnUse" style="mask-type:luminance">
    <path fill="#fff" d="M5.725 25.493 20.59 71.1c.398 1.217 2.12 1.217 2.517 0l14.907-45.742a55.91 55.91 0 0 1-15.084 2.435A55.956 55.956 0 0 1 5.727 25.49l-.002.002Z"/>
  </mask>
  <g mask="url(#a)">
    <g opacity=".52">
      <mask id="b" width="66" height="84" x="-6" y="-4" maskUnits="userSpaceOnUse" style="mask-type:luminance">
        <path fill="#fff" d="m37.745-3.5-43.1 13.523 21.863 69.682 43.1-13.523L37.745-3.5Z"/>
      </mask>
      <g mask="url(#b)">
        <path fill="#F3D2B9" d="m-7.645 10.965 4.168 13.288L.691 37.54 4.86 50.828l4.168 13.288 4.148 13.224c.177.561.352 1.125.53 1.686.086.277.526.159.438-.12-1.39-4.43-2.778-8.86-4.168-13.288L5.807 52.33 1.639 39.042c-1.39-4.43-2.778-8.859-4.169-13.288L-6.677 12.53c-.177-.561-.352-1.125-.53-1.686-.086-.277-.526-.159-.438.12Zm2.349-.736 4.168 13.288L3.04 36.804l4.168 13.288 4.168 13.288c1.383 4.409 2.764 8.816 4.148 13.224l.529 1.686c.086.277.527.159.438-.12-1.39-4.43-2.778-8.86-4.168-13.288L8.155 51.594 3.987 38.306-.18 25.018l-4.148-13.224-.529-1.686c-.086-.277-.527-.159-.438.12Zm2.349-.739c1.39 4.43 2.778 8.86 4.168 13.288l4.168 13.288 4.168 13.288 4.168 13.288 4.148 13.224.529 1.686c.086.277.527.159.438-.12l-4.168-13.289-4.168-13.287-4.168-13.288L2.168 24.28C.785 19.87-.596 15.464-1.98 11.056l-.529-1.686c-.086-.277-.527-.159-.438.12Zm2.351-.735c1.39 4.429 2.777 8.858 4.168 13.287 1.39 4.43 2.778 8.86 4.168 13.288l4.168 13.288 4.168 13.288 4.147 13.224c.178.561.353 1.125.53 1.686.086.277.527.159.438-.12l-4.168-13.289-4.168-13.287-4.168-13.288-4.168-13.288L.37 10.32C.194 9.759.02 9.195-.159 8.634c-.085-.277-.526-.159-.437.12Zm2.348-.736L5.92 21.306c1.39 4.43 2.778 8.86 4.168 13.288l4.168 13.288 4.168 13.288 4.148 13.224c.177.561.352 1.125.53 1.686.086.277.526.159.438-.12-1.39-4.43-2.778-8.86-4.168-13.288-1.39-4.43-2.778-8.86-4.168-13.288l-4.168-13.288c-1.39-4.43-2.778-8.859-4.169-13.288L2.72 9.584c-.177-.561-.352-1.125-.53-1.686-.086-.277-.526-.159-.438.12ZM4.1 7.28l4.17 13.289 4.168 13.288 4.168 13.288 4.168 13.288 4.148 13.224.529 1.686c.086.277.527.159.438-.12L21.72 61.932l-4.168-13.288-4.168-13.287L9.216 22.07c-1.383-4.41-2.764-8.816-4.148-13.224L4.54 7.16c-.086-.277-.527-.159-.438.12Zm2.352-.736c1.39 4.43 2.778 8.86 4.168 13.288l4.168 13.288 4.168 13.288 4.168 13.288 4.148 13.224.529 1.686c.086.277.527.159.438-.12-1.39-4.43-2.777-8.86-4.168-13.289L19.903 47.91l-4.168-13.287-4.168-13.288L7.42 8.11c-.178-.562-.353-1.125-.53-1.686-.086-.277-.527-.159-.438.12ZM8.8 5.806c1.39 4.43 2.778 8.859 4.169 13.288 1.39 4.43 2.777 8.859 4.168 13.288l4.168 13.288 4.168 13.288 4.147 13.224c.178.561.352 1.124.53 1.685.086.277.527.16.438-.12L26.42 60.459l-4.168-13.288-4.168-13.288-4.168-13.287L9.768 7.37c-.177-.56-.352-1.124-.53-1.685-.085-.277-.526-.16-.437.12Zm2.35-.736c1.39 4.43 2.777 8.859 4.167 13.288l4.168 13.288 4.168 13.288 4.168 13.288 4.148 13.224c.177.561.352 1.124.53 1.685.086.278.526.16.438-.12l-4.168-13.288L24.6 46.435l-4.168-13.288-4.169-13.287-4.147-13.225c-.177-.56-.352-1.124-.53-1.685-.086-.277-.526-.159-.438.12Zm2.35-.738 4.168 13.288 4.168 13.288 4.168 13.288 4.168 13.288c1.384 4.408 2.765 8.815 4.148 13.224.177.56.352 1.124.53 1.685.085.277.526.16.438-.12-1.39-4.43-2.778-8.859-4.169-13.288-1.39-4.43-2.777-8.859-4.168-13.288L22.783 32.41l-4.168-13.288-4.147-13.224c-.178-.56-.352-1.124-.53-1.685-.086-.277-.527-.16-.438.12Zm2.349-.736 4.168 13.288 4.168 13.288 4.168 13.288 4.168 13.288 4.148 13.224.529 1.685c.086.277.527.16.438-.12l-4.168-13.288L29.3 44.961l-4.168-13.288-4.168-13.287L16.816 5.16c-.177-.56-.352-1.124-.529-1.685-.086-.277-.527-.16-.438.12Zm2.348-.738 4.168 13.288 4.168 13.288 4.168 13.288c1.39 4.429 2.778 8.858 4.169 13.287l4.147 13.225c.177.56.352 1.124.53 1.685.086.277.526.16.438-.12L35.817 57.51l-4.168-13.288-4.168-13.288c-1.39-4.43-2.778-8.858-4.169-13.288L19.166 4.423c-.177-.561-.352-1.124-.53-1.685-.086-.277-.526-.16-.438.12Zm2.351-.736 4.168 13.288 4.168 13.288c1.39 4.43 2.778 8.858 4.169 13.288l4.168 13.288 4.147 13.224c.177.56.352 1.124.53 1.685.086.277.526.16.438-.12l-4.168-13.288L34 43.487l-4.168-13.288-4.168-13.288-4.148-13.224c-.177-.561-.352-1.124-.53-1.685-.086-.277-.526-.16-.438.12Zm2.349-.738 4.168 13.288 4.168 13.287c1.39 4.43 2.778 8.86 4.168 13.288l4.168 13.288 4.148 13.225c.177.56.352 1.124.53 1.685.085.277.526.159.438-.12l-4.169-13.288c-1.39-4.43-2.777-8.859-4.168-13.288L32.18 29.46l-4.168-13.288L23.865 2.95c-.178-.561-.352-1.124-.53-1.686-.086-.277-.527-.159-.438.12Zm2.349-.736c1.39 4.43 2.777 8.858 4.168 13.288l4.168 13.288L37.75 40.51l4.168 13.29c1.383 4.41 2.764 8.816 4.148 13.224l.529 1.686c.086.277.527.159.438-.12L42.865 55.3l-4.168-13.288-4.168-13.288-4.168-13.288-4.148-13.224-.529-1.686c-.086-.277-.527-.159-.438.12Zm2.35-.738c1.39 4.429 2.778 8.858 4.169 13.287 1.39 4.43 2.777 8.86 4.168 13.288L40.1 39.773l4.168 13.288 4.147 13.224c.178.561.352 1.125.53 1.686.086.277.526.159.438-.12-1.39-4.43-2.778-8.86-4.168-13.288-1.39-4.43-2.778-8.86-4.168-13.288L36.88 27.987l-4.168-13.288-4.148-13.224c-.177-.561-.352-1.125-.53-1.686-.085-.277-.526-.159-.438.12Zm2.349-.736 4.168 13.288 4.168 13.288 4.168 13.287 4.168 13.288 4.148 13.224c.177.561.352 1.125.53 1.686.085.277.526.159.438-.12-1.39-4.43-2.778-8.86-4.168-13.288-1.39-4.43-2.778-8.859-4.169-13.288L39.228 27.25 35.06 13.963 30.913.739c-.178-.561-.352-1.125-.53-1.686-.086-.277-.526-.159-.438.12Zm2.349-.736 4.168 13.288 4.168 13.287c1.39 4.43 2.778 8.86 4.168 13.288l4.168 13.288c1.383 4.41 2.764 8.816 4.148 13.225.177.56.352 1.124.529 1.685.086.277.527.159.438-.12-1.39-4.43-2.778-8.86-4.168-13.288l-4.168-13.288-4.168-13.288-4.168-13.288L33.26.003l-.529-1.686c-.086-.277-.527-.159-.438.12Zm2.351-.738 4.168 13.287 4.168 13.288 4.168 13.288 4.168 13.288 4.148 13.224.529 1.686c.086.277.527.159.438-.12l-4.168-13.289-4.168-13.287-4.168-13.288-4.168-13.288C38.377 8.08 36.996 3.673 35.612-.735l-.529-1.686c-.086-.277-.527-.159-.438.12Zm2.348-.736 4.168 13.287c1.39 4.43 2.778 8.859 4.169 13.288l4.168 13.288 4.168 13.288 4.147 13.224c.177.561.352 1.125.53 1.686.086.277.526.159.438-.12l-4.168-13.289-4.168-13.287-4.168-13.288-4.168-13.288L37.96-1.471c-.177-.561-.352-1.125-.53-1.686-.085-.277-.526-.159-.438.12Z"/>
      </g>
    </g>
    <g opacity=".52">
      <mask id="c" width="66" height="84" x="-8" y="1" maskUnits="userSpaceOnUse" style="mask-type:luminance">
        <path fill="#fff" d="M14.409 1.102-7.09 70.897l43.17 13.297L57.58 14.4 14.408 1.102Z"/>
      </mask>
      <g mask="url(#c)">
        <path fill="#F3D2B9" d="M11.985.584C10.622 5.007 9.262 9.432 7.9 13.854c-1.37 4.445-2.737 8.89-4.107 13.336C2.43 31.612 1.07 36.037-.294 40.46c-1.37 4.444-2.737 8.89-4.107 13.335-1.363 4.422-2.723 8.847-4.086 13.27-.173.563-.348 1.126-.52 1.692-.087.279.352.4.438.12 1.363-4.422 2.723-8.847 4.086-13.27 1.363-4.422 2.737-8.89 4.107-13.335 1.363-4.423 2.724-8.847 4.086-13.27l4.107-13.335c1.363-4.423 2.723-8.848 4.086-13.27.173-.563.348-1.127.52-1.692.087-.28-.351-.4-.438-.12Zm2.353.725c-1.363 4.422-2.723 8.847-4.086 13.27L6.145 27.914c-1.363 4.423-2.723 8.847-4.086 13.27l-4.107 13.335c-1.363 4.423-2.723 8.848-4.086 13.27-.173.563-.348 1.127-.52 1.692-.087.28.352.4.438.12 1.363-4.422 2.724-8.847 4.086-13.27 1.363-4.422 2.737-8.89 4.107-13.335 1.363-4.422 2.724-8.847 4.086-13.27 1.37-4.444 2.737-8.89 4.107-13.335 1.363-4.422 2.724-8.847 4.086-13.27.173-.563.348-1.126.52-1.692.087-.28-.351-.4-.438-.12Zm2.354.724c-1.363 4.423-2.724 8.848-4.087 13.27-1.37 4.445-2.737 8.89-4.107 13.336-1.362 4.422-2.723 8.847-4.086 13.27L.305 55.243c-1.362 4.422-2.723 8.847-4.086 13.27l-.52 1.692c-.086.28.352.4.438.12C-2.5 65.904-1.139 61.48.224 57.056L4.33 43.721c1.363-4.422 2.724-8.847 4.087-13.27 1.37-4.445 2.737-8.89 4.106-13.335l4.087-13.27.52-1.692c.086-.28-.352-.4-.438-.12Zm2.353.725-4.087 13.27c-1.37 4.445-2.737 8.89-4.106 13.335-1.363 4.423-2.724 8.848-4.087 13.27-1.37 4.445-2.737 8.89-4.106 13.335-1.363 4.423-2.724 8.848-4.087 13.27-.172.564-.347 1.127-.52 1.692-.086.28.352.4.439.12l4.086-13.269c1.363-4.422 2.737-8.89 4.107-13.335 1.362-4.423 2.723-8.848 4.086-13.27 1.37-4.445 2.737-8.89 4.107-13.336 1.362-4.422 2.723-8.847 4.086-13.27.173-.563.348-1.126.52-1.692.086-.279-.352-.4-.438-.12Zm2.353.725c-1.363 4.422-2.724 8.847-4.087 13.27-1.37 4.445-2.737 8.89-4.106 13.335-1.363 4.422-2.724 8.847-4.087 13.27-1.37 4.445-2.737 8.89-4.106 13.335L.925 69.963l-.52 1.692c-.086.28.352.4.439.12 1.362-4.422 2.723-8.847 4.086-13.27 1.363-4.422 2.737-8.89 4.107-13.335 1.362-4.422 2.723-8.847 4.086-13.27l4.107-13.335c1.363-4.423 2.723-8.847 4.086-13.27.173-.563.348-1.126.52-1.692.087-.28-.352-.4-.438-.12Zm2.353.724c-1.363 4.423-2.723 8.848-4.086 13.27l-4.107 13.335c-1.363 4.423-2.723 8.848-4.086 13.27-1.37 4.445-2.737 8.89-4.107 13.336-1.363 4.422-2.723 8.847-4.086 13.27-.173.563-.348 1.126-.52 1.692-.087.279.352.4.438.12 1.363-4.422 2.723-8.847 4.086-13.27 1.363-4.422 2.737-8.89 4.107-13.335 1.363-4.423 2.723-8.848 4.086-13.27l4.107-13.335c1.363-4.423 2.723-8.848 4.086-13.27.173-.563.348-1.127.52-1.692.087-.28-.352-.4-.438-.12Zm2.353.725c-1.363 4.422-2.723 8.847-4.086 13.27l-4.107 13.335c-1.363 4.423-2.723 8.847-4.086 13.27L9.718 58.142c-1.363 4.423-2.723 8.848-4.086 13.27-.173.563-.348 1.127-.52 1.692-.087.28.352.4.438.12 1.363-4.422 2.724-8.847 4.086-13.27 1.363-4.422 2.738-8.89 4.107-13.335 1.363-4.422 2.724-8.847 4.086-13.27 1.37-4.444 2.738-8.89 4.107-13.335 1.363-4.422 2.724-8.847 4.087-13.27l.52-1.692c.086-.28-.352-.4-.439-.12Zm2.354.724c-1.363 4.423-2.724 8.848-4.087 13.27-1.37 4.445-2.737 8.89-4.106 13.336-1.363 4.422-2.724 8.847-4.087 13.27-1.37 4.444-2.737 8.89-4.107 13.335-1.362 4.422-2.723 8.847-4.086 13.27l-.52 1.692c-.086.28.352.4.438.12 1.363-4.422 2.724-8.847 4.087-13.27 1.363-4.422 2.737-8.89 4.106-13.335l4.087-13.27L24.29 20.74c1.362-4.423 2.723-8.848 4.086-13.27l.52-1.692c.086-.28-.352-.4-.438-.12Zm2.352.725c-1.362 4.422-2.723 8.847-4.086 13.27-1.37 4.445-2.737 8.89-4.106 13.335l-4.087 13.27c-1.37 4.445-2.737 8.89-4.106 13.335-1.363 4.423-2.724 8.848-4.087 13.27l-.52 1.692c-.086.28.352.4.439.12 1.362-4.422 2.723-8.847 4.086-13.269l4.107-13.336c1.362-4.422 2.723-8.847 4.086-13.27 1.37-4.444 2.737-8.89 4.106-13.335 1.363-4.422 2.724-8.847 4.087-13.27l.52-1.692c.086-.279-.352-.4-.438-.12Zm2.354.725c-1.363 4.422-2.724 8.847-4.086 13.27-1.37 4.444-2.738 8.89-4.107 13.335-1.363 4.422-2.724 8.847-4.087 13.27-1.37 4.445-2.736 8.89-4.106 13.335-1.363 4.422-2.724 8.847-4.086 13.27-.173.563-.348 1.126-.52 1.692-.087.28.351.4.438.12 1.363-4.422 2.723-8.847 4.086-13.27 1.363-4.422 2.737-8.89 4.107-13.335 1.363-4.422 2.723-8.847 4.086-13.27l4.107-13.335c1.363-4.423 2.723-8.847 4.086-13.27.173-.563.348-1.126.52-1.692.087-.28-.352-.4-.438-.12Zm2.356.724c-1.364 4.423-2.724 8.847-4.087 13.27l-4.107 13.335c-1.363 4.423-2.723 8.848-4.086 13.27-1.37 4.445-2.737 8.89-4.107 13.336-1.363 4.422-2.723 8.847-4.086 13.27-.173.563-.348 1.126-.52 1.691-.086.28.352.4.438.12l4.087-13.269 4.106-13.335c1.363-4.423 2.724-8.848 4.086-13.27l4.107-13.335c1.363-4.423 2.724-8.848 4.087-13.27.172-.564.347-1.127.52-1.692.086-.28-.352-.4-.439-.12Zm2.353.725c-1.363 4.422-2.724 8.847-4.087 13.27-1.37 4.445-2.737 8.89-4.106 13.335l-4.087 13.27-4.107 13.335c-1.362 4.423-2.723 8.847-4.086 13.27l-.52 1.692c-.086.28.352.4.439.12 1.362-4.422 2.723-8.847 4.086-13.27 1.363-4.422 2.737-8.89 4.107-13.335 1.362-4.422 2.723-8.847 4.086-13.27l4.107-13.335c1.362-4.422 2.723-8.847 4.086-13.27l.52-1.692c.086-.28-.352-.4-.438-.12Zm2.353.725-4.087 13.269c-1.37 4.445-2.737 8.89-4.106 13.336-1.363 4.422-2.724 8.847-4.087 13.27-1.37 4.444-2.737 8.89-4.106 13.335-1.363 4.422-2.724 8.847-4.087 13.27l-.52 1.692c-.086.28.352.4.439.12 1.362-4.422 2.723-8.847 4.086-13.27 1.363-4.422 2.737-8.89 4.107-13.335 1.362-4.423 2.723-8.847 4.086-13.27l4.107-13.335c1.362-4.423 2.723-8.848 4.086-13.27l.52-1.692c.086-.28-.352-.4-.438-.12Zm2.353.724c-1.363 4.422-2.724 8.847-4.086 13.27l-4.107 13.335c-1.363 4.423-2.724 8.847-4.086 13.27l-4.107 13.335c-1.363 4.423-2.724 8.848-4.087 13.27l-.52 1.692c-.086.28.353.4.439.12 1.363-4.422 2.723-8.847 4.086-13.269 1.363-4.422 2.737-8.89 4.107-13.336 1.363-4.422 2.723-8.847 4.086-13.27 1.37-4.444 2.737-8.89 4.107-13.335 1.363-4.422 2.723-8.847 4.086-13.27.173-.563.348-1.126.52-1.692.087-.28-.352-.4-.438-.12Zm2.353.726C43.57 15.154 42.21 19.579 40.846 24l-4.107 13.336c-1.363 4.422-2.723 8.847-4.086 13.27L28.546 63.94c-1.363 4.423-2.723 8.847-4.086 13.27-.173.563-.348 1.127-.52 1.692-.087.28.352.4.438.12 1.363-4.422 2.724-8.847 4.086-13.27 1.363-4.422 2.737-8.89 4.107-13.335 1.363-4.422 2.724-8.847 4.086-13.27l4.107-13.335c1.363-4.422 2.724-8.847 4.086-13.27.173-.563.348-1.126.52-1.692.087-.28-.351-.4-.438-.12Zm2.353.725c-1.362 4.423-2.723 8.848-4.086 13.27-1.37 4.445-2.737 8.89-4.107 13.336-1.362 4.422-2.723 8.847-4.086 13.27-1.37 4.444-2.737 8.89-4.107 13.335-1.363 4.422-2.723 8.847-4.086 13.27l-.52 1.692c-.086.28.352.4.438.12 1.363-4.422 2.724-8.847 4.087-13.27 1.363-4.422 2.737-8.89 4.106-13.335l4.087-13.27c1.37-4.445 2.737-8.89 4.106-13.335 1.363-4.423 2.724-8.848 4.087-13.27l.52-1.692c.086-.28-.352-.4-.438-.12Zm2.354.725c-1.363 4.422-2.724 8.847-4.087 13.27-1.37 4.445-2.737 8.89-4.106 13.335l-4.087 13.27-4.107 13.335c-1.362 4.423-2.723 8.848-4.086 13.27l-.52 1.692c-.086.28.352.4.438.12l4.087-13.269 4.106-13.336c1.363-4.422 2.724-8.847 4.087-13.27 1.37-4.444 2.737-8.89 4.106-13.335 1.363-4.422 2.724-8.847 4.087-13.27l.52-1.692c.086-.279-.352-.4-.438-.12Zm2.353.725c-1.363 4.422-2.724 8.847-4.086 13.27-1.37 4.444-2.738 8.89-4.107 13.335-1.363 4.422-2.724 8.847-4.087 13.27-1.37 4.445-2.737 8.89-4.106 13.335-1.363 4.422-2.724 8.847-4.087 13.27L31 81.077c-.086.28.352.4.439.12 1.363-4.422 2.723-8.847 4.086-13.27 1.363-4.422 2.737-8.89 4.107-13.335 1.362-4.422 2.723-8.847 4.086-13.27l4.107-13.335c1.363-4.423 2.723-8.847 4.086-13.27.173-.563.348-1.127.52-1.692.087-.28-.352-.4-.438-.12Zm2.353.725c-1.363 4.422-2.723 8.846-4.086 13.269l-4.107 13.335c-1.363 4.423-2.723 8.848-4.086 13.27-1.37 4.445-2.737 8.89-4.107 13.336-1.363 4.422-2.724 8.847-4.086 13.27-.173.563-.348 1.126-.52 1.692-.087.279.352.4.438.12 1.363-4.423 2.723-8.847 4.086-13.27 1.363-4.422 2.737-8.89 4.107-13.335 1.363-4.423 2.723-8.848 4.086-13.27 1.37-4.445 2.737-8.89 4.107-13.336 1.363-4.422 2.723-8.847 4.086-13.27.173-.563.348-1.126.52-1.692.087-.279-.352-.4-.438-.12Zm2.353.724c-1.363 4.422-2.723 8.847-4.086 13.27l-4.107 13.335c-1.363 4.422-2.723 8.847-4.086 13.27l-4.107 13.335c-1.363 4.423-2.723 8.847-4.086 13.27-.173.563-.348 1.126-.52 1.692-.087.28.352.4.438.12 1.363-4.422 2.723-8.847 4.086-13.27 1.363-4.422 2.737-8.89 4.107-13.335 1.363-4.422 2.723-8.847 4.086-13.27l4.107-13.335c1.363-4.422 2.723-8.847 4.086-13.27.173-.563.348-1.126.52-1.692.087-.28-.352-.4-.438-.12Zm2.353.724c-1.363 4.423-2.723 8.848-4.086 13.27-1.37 4.445-2.737 8.89-4.107 13.336-1.363 4.422-2.723 8.847-4.086 13.27-1.37 4.444-2.737 8.89-4.107 13.335-1.363 4.422-2.723 8.847-4.086 13.27-.173.563-.348 1.126-.52 1.692-.087.279.352.4.438.12 1.363-4.422 2.724-8.847 4.087-13.27l4.106-13.335 4.087-13.27c1.37-4.445 2.737-8.89 4.106-13.335 1.363-4.423 2.724-8.848 4.087-13.27l.52-1.692c.086-.28-.352-.4-.439-.12Z"/>
      </g>
    </g>
  </g>
  <path stroke="#333" stroke-linecap="round" stroke-linejoin="round" stroke-width="1.59" d="M5.725 25.493 20.59 71.1c.398 1.217 2.12 1.217 2.517 0l14.907-45.742a55.91 55.91 0 0 1-15.084 2.435A55.956 55.956 0 0 1 5.727 25.49l-.002.002Z"/>
  <path fill="#F8BCBD" stroke="#333" stroke-linecap="round" stroke-linejoin="round" stroke-width="1.59" d="M42.061 23.412c-.202-1.058-1.25-1.815-2.646-2.08.038-.477.061-.961.061-1.45C39.476 10.158 34.061 1 21.868 1 9.675 1 4.26 10.158 4.26 19.882c0 .493.02.98.06 1.46-1.364.278-2.38 1.028-2.579 2.068-.309 1.615 1.465 3.31 3.961 3.786.43.082.852.12 1.259.123.654 1.472 3.018 1.922 5.342.995a6.706 6.706 0 0 0 1.724-1 6.63 6.63 0 0 0 2.135.341c.168 0 .334-.007.498-.018.584 1.21 2.33 2.09 4.393 2.09 2.23 0 4.088-1.027 4.51-2.39 1.032.31 2.383.232 3.721-.3.039-.015.075-.034.114-.05a6.51 6.51 0 0 0 2.096 1.327c2.324.927 4.69.477 5.343-.995a6.94 6.94 0 0 0 1.258-.123c2.497-.477 4.27-2.171 3.962-3.786l.004.002Z"/>
  <path stroke="#F06061" stroke-linecap="round" stroke-linejoin="round" stroke-width="1.59" d="m12.315 9.275 2.146.926"/>
  <path stroke="#F5A759" stroke-linecap="round" stroke-linejoin="round" stroke-width="1.59" d="m28.898 10.201 2.144.93"/>
  <path stroke="#F06061" stroke-linecap="round" stroke-linejoin="round" stroke-width="1.59" d="m19.974 2.73.831.36"/>
  <path stroke="#83BA4F" stroke-linecap="round" stroke-linejoin="round" stroke-width="1.59" d="m19.733 12.593 2.276-.527"/>
  <path stroke="#F06061" stroke-linecap="round" stroke-linejoin="round" stroke-width="1.59" d="m26.983 5.81-1.74 1.564"/>
  <path stroke="#84AED8" stroke-linecap="round" stroke-linejoin="round" stroke-width="1.59" d="m21.148 8.439-.954-2.133"/>
  <path stroke="#F5A759" stroke-linecap="round" stroke-linejoin="round" stroke-width="1.59" d="m15.97 7.206-.194-1.395"/>
  <path stroke="#F06061" stroke-linecap="round" stroke-linejoin="round" stroke-width="1.59" d="M7.308 21.357c.934-.575 2.1-.502 2.862.154.904.78.786 1.983.773 2.087m22.839-1.91c-.934-.575-2.099-.502-2.862.155-.904.779-.786 1.983-.772 2.087m-3.839-4.234c-.713-.831-1.847-1.117-2.771-.725-1.1.466-1.352 1.65-1.372 1.754m1.96 2.217c-.08-.11-1.288-1.72-3.362-1.597-2.103.125-3.114 1.915-3.173 2.022" opacity=".38"/>
</svg>
