<svg xmlns="http://www.w3.org/2000/svg" width="70" height="50" fill="none" viewBox="0 0 70 50">
  <path fill="#FFE6C9" d="M19.321 9.483C9.817 2.109 5.825 3.736 4.766 4.309-2.513 8.26.532 32.216 7.901 34.282c3.488.977 7.787-2.991 11.419-7.425V9.483h.001Z"/>
  <path fill="#DFDDDD" stroke="#333" stroke-linecap="round" stroke-linejoin="round" stroke-width="1.206" d="M19.321 9.483C9.817 2.109 5.825 3.736 4.766 4.309-2.513 8.26.532 32.216 7.901 34.282c3.488.977 7.787-2.991 11.419-7.425V9.483h.001Zm31.327 0c9.504-7.373 13.495-5.747 14.553-5.174 7.28 3.95 4.236 27.909-3.134 29.973-3.488.977-7.788-2.991-11.419-7.425V9.483Z"/>
  <path fill="#ABA8A8" d="M18.389 13.918c-5.115-3.968-7.264-3.093-7.834-2.784-3.919 2.126-2.28 15.021 1.687 16.133 1.877.525 4.191-1.61 6.147-3.998v-9.352.001Zm34.112-.766c5.875-4.557 8.34-3.552 8.995-3.199 4.5 2.442 2.618 17.25-1.937 18.525-2.155.603-4.813-1.849-7.058-4.59V13.15v.002Z"/>
  <path fill="#DFDDDD" stroke="#333" stroke-linecap="round" stroke-linejoin="round" stroke-width="1.206" d="M55.336 17.317c.676 9.522-4.63 17.698-19.716 18.084-13.876.355-20.803-7.507-20.615-17.052.179-9.152 8.625-16.773 19.748-16.797 11.103-.355 19.935 6.635 20.583 15.765Z"/>
  <path fill="#ABA8A8" stroke="#333" stroke-linecap="round" stroke-linejoin="round" stroke-width="1.206" d="M31.929 19.757c2.055-1.35 6.002-.59 8.058 1.728 4.818 5.43-3.793 15.947.98 21.42 2.115 2.423 6.607 3.576 8.915 1.657 1.592-1.326 2.07-4.052 1.215-6.92a.938.938 0 0 1 .911-1.206h.02a.934.934 0 0 1 .878.641c1.336 4.145.59 8.29-1.911 10.426-4.448 3.8-11.929-.898-12.627-1.35-6.303-4.071-7.29-11.655-7.908-16.379-.465-3.567-1.087-8.339 1.469-10.017Z"/>
  <path fill="#333" d="M26.699 20.858c1.045 0 1.893-1.067 1.893-2.383 0-1.317-.848-2.384-1.893-2.384-1.046 0-1.894 1.067-1.894 2.384 0 1.316.848 2.383 1.894 2.383Zm16.995 0c1.046 0 1.894-1.067 1.894-2.383 0-1.317-.848-2.384-1.894-2.384-1.046 0-1.894 1.067-1.894 2.384 0 1.316.848 2.383 1.894 2.383Z"/>
</svg>
