<svg xmlns="http://www.w3.org/2000/svg" width="24" height="67" fill="none" viewBox="0 0 24 67">
  <path fill="#66A9EB" d="M15.37 17.268a45.322 45.322 0 0 0-1.263 10.987c.09 10.007 3.525 14.274 3.535 23.112.002 2.764-.328 6.58-1.824 11.193a4.265 4.265 0 0 1-4.054 2.952A4.265 4.265 0 0 1 7.71 62.56c-1.496-4.613-1.826-8.43-1.824-11.193.01-8.835 3.447-13.105 3.535-23.112.042-4.69-.67-8.522-1.263-10.987h7.212Z"/>
  <mask id="a" width="13" height="49" x="5" y="17" maskUnits="userSpaceOnUse" style="mask-type:luminance">
    <path fill="#fff" d="M15.37 17.268a45.322 45.322 0 0 0-1.263 10.987c.09 10.007 3.525 14.274 3.535 23.112.002 2.764-.328 6.58-1.824 11.193a4.265 4.265 0 0 1-4.054 2.952A4.265 4.265 0 0 1 7.71 62.56c-1.496-4.613-1.826-8.43-1.824-11.193.01-8.835 3.447-13.105 3.535-23.112.042-4.69-.67-8.522-1.263-10.987h7.212Z"/>
  </mask>
  <g mask="url(#a)">
    <path fill="#333" d="M32.686 33.102c-2.681-1.388-5.364-2.776-7.964-4.309a65.022 65.022 0 0 1-3.817-2.416c-.621-.426-1.226-.872-1.833-1.315h-.003c-.022-.017-.039-.034-.068-.059-.284-.247-.585-.477-.872-.722a36.703 36.703 0 0 1-2.73-2.578c-.457-.48-.9-.972-1.329-1.478-.002-.005-.257-.319-.413-.512a20.196 20.196 0 0 1-.21-.282 26.35 26.35 0 0 1-2.055-3.36c-.063-.126-.22-.37-.335-.593a2.323 2.323 0 0 0-.09-.282 28.314 28.314 0 0 1-.689-2.078c-.795-2.776-3.934-4.784-6.793-3.858-2.823.913-4.713 3.819-3.858 6.793C3.446 29.366 15.568 36.666 27.11 42.64c2.563 1.327 6.116.747 7.558-1.98 1.339-2.534.758-6.14-1.981-7.557h-.002Z" opacity=".2"/>
  </g>
  <path stroke="#333" stroke-linecap="round" stroke-linejoin="round" stroke-width="1.714" d="M15.37 17.268a45.322 45.322 0 0 0-1.263 10.987c.09 10.007 3.525 14.274 3.535 23.112.002 2.764-.328 6.58-1.824 11.193a4.265 4.265 0 0 1-4.054 2.952A4.265 4.265 0 0 1 7.71 62.56c-1.496-4.613-1.826-8.43-1.824-11.193.01-8.835 3.447-13.105 3.535-23.112.042-4.69-.67-8.522-1.263-10.987h7.212Z"/>
  <path fill="#C2BEBE" stroke="#333" stroke-linecap="round" stroke-linejoin="round" stroke-width="1.714" d="M19.774 1a2.756 2.756 0 0 0-2.756 2.757v10.68a1.971 1.971 0 0 1-1.968 1.969h-.57c.026-.154.043-.311.043-.47V5.886a2.756 2.756 0 1 0-5.513 0v10.047c0 .162.017.319.044.47h-.57a1.972 1.972 0 0 1-1.968-1.968V3.757a2.758 2.758 0 0 0-5.516 0v10.68c0 4.126 3.356 7.482 7.481 7.482h6.566c4.125 0 7.482-3.356 7.482-7.481V3.757A2.756 2.756 0 0 0 19.771 1h.002Z"/>
</svg>
