<svg xmlns="http://www.w3.org/2000/svg" width="38" height="54" fill="none" viewBox="0 0 38 54">
  <path fill="#D3E2F1" stroke="#333" stroke-linecap="round" stroke-linejoin="round" stroke-width="1.274" d="M36.74 5.713 31.47 47.41a2.626 2.626 0 0 1-1.172 1.878c-2.073 1.349-6.22 3.51-11.777 3.414-5.186-.09-9.046-2.104-11.057-3.414a2.634 2.634 0 0 1-1.169-1.876l-5.272-41.7h35.719Z"/>
  <path fill="#fff" d="M10.438 11.726a9.768 9.768 0 0 1-1.505-.25 9.779 9.779 0 0 1-2.555-.984 215.591 215.591 0 0 0 4.197 24.692c.062-4.231.078-8.52.045-12.87a575.035 575.035 0 0 0-.182-10.588Z" opacity=".51"/>
  <path fill="#D3E2F1" stroke="#333" stroke-linecap="round" stroke-linejoin="round" stroke-width="1.274" d="M18.882 9.744c9.876 0 17.882-2.039 17.882-4.554 0-2.514-8.006-4.553-17.882-4.553C9.006.637 1 2.676 1 5.19c0 2.515 8.006 4.554 17.882 4.554Z"/>
  <path fill="#333" d="M18.882 52.207c6.716 0 12.16-1.872 12.16-4.182 0-2.31-5.444-4.182-12.16-4.182s-12.16 1.872-12.16 4.182c0 2.31 5.444 4.182 12.16 4.182Z" opacity=".2"/>
</svg>
