<svg xmlns="http://www.w3.org/2000/svg" width="63" height="86" fill="none" viewBox="0 0 63 86">
  <path fill="#F3D2BA" d="M13.25 29.812c-1.125.209-1.197.318-1.832.35 0 0-.95.048-1.858-.208-1.657-.466-2.639-1.794-3.539-3.01-.922-1.246-1.656-2.231-1.928-3.783-.148-.841-.526-3.01.86-4.358.162-.157 1.077-1.048 2.216-.92 1.828.205 2.834 2.98 3.447 2.718.291-.127.104-.77.62-1.1.428-.276.98-.103 1.043-.083.337.11.539.33.735.556.634.729.95 1.096 1.228 1.596.813 1.454 1.43 2.56 1.215 3.845-.161.965-.633 1.076-.58 1.956.063 1.048.765 1.48.523 1.937-.174.328-.593.22-2.15.506v-.002Z"/>
  <path fill="#66A9EB" d="M28.227 56.174a87.262 87.262 0 0 0 5.119 26.22h5.114c.326-4.319 1.105-9.2 1.74-11.735.923-3.678 1.447-4.262 1.825-4.258.26.002.833.289 1.765 4.44.535 2.383 1.052 7.552 1.241 11.838l5.44-.285a87.325 87.325 0 0 0 5.12-26.22c-1.342-1.352-4.982-4.65-10.647-5.536-9.218-1.441-15.885 4.738-16.717 5.536Z"/>
  <path fill="#A8D471" d="M21.823 46.745c.346-4.034 1.259-7.175 2.009-9.251 1.143-3.167 1.852-5.084 3.808-6.397 2.53-1.696 5.458-1.363 6.658-1.154h15.294c1.41.126 4.349.61 6.82 2.867 2.033 1.854 2.804 4.045 3.44 5.842.688 1.952.847 3.374 1.14 6.02 1.2 10.774 1.42 12.62.161 13.484-.915.63-2.486.655-3.35.003-1.14-.861-.93-2.824-1.81-2.987-.387-.072-.735.25-.909.398-2.006 1.7-6.197 1.854-12.644 2.082l-.623.02c-.763.021-3.715-.357-9.625-1.091-1.907-.237-3.617-.477-4.591-1.82-.659-.91-.965-2.313-.748-3.578.252-1.46 1.102-2.154.833-2.48-.5-.608-3.4 1.835-4.92.93-.853-.508-.964-1.89-.942-2.888Z"/>
  <path fill="#F3D2BA" d="M54.456 19.635c.006 1.137.104 5.863-3.108 8.912-1.956 1.859-4.99 2.985-9.519 2.985-4.527 0-7.562-1.128-9.518-2.985-3.217-3.054-3.117-7.736-3.108-8.912 1.428-5.619 6.292-9.661 11.887-9.974 6.102-.344 11.781 3.82 13.368 9.974h-.002Z"/>
  <path fill="#F3D2BA" d="M29.744 24.902c-.15.035-.334.06-.543.052-1.13-.039-2.798-1.034-2.798-2.797a2.812 2.812 0 0 1 2.798-2.798l.543 5.54v.003Zm24.712-5.541a2.797 2.797 0 1 1-.526 5.545l.526-5.544Z"/>
  <path fill="#7D5045" d="M55.852 8.708c-2.643-5.87-9.727-8.725-15.035-7.379A10.433 10.433 0 0 0 37.7 2.705l-1.33.228a9.131 9.131 0 0 0-3.576.504C28.8 4.865 27.236 8.724 26.927 9.49c-1.989 4.901.333 9.444.707 10.146l1.723-.385a14.934 14.934 0 0 0 9.103-6.97l-.31-1.111c.576 1.606 1.704 3.72 3.903 5.01 1.585.93 4.402 1.833 5.521.811.94.622 1.93 1.013 2.8 1.354a16.3 16.3 0 0 0 4.082 1.015l1.28.052c.433-1.026 2.322-5.801.116-10.703Z"/>
  <path fill="#A8D471" d="M36.013 79.312c2.56 0 4.64 2.078 4.64 4.641v.633h-9.279v-.633c0-2.56 2.078-4.64 4.641-4.64h-.002Zm11.631 0c2.56 0 4.64 2.078 4.64 4.641v.633h-9.279v-.633c0-2.56 2.078-4.64 4.641-4.64h-.002Z"/>
  <path fill="#F3D2BA" d="m58.427 64.269-.12 1.636a1.433 1.433 0 0 0 1.327 1.535c.245-.009.67-.06 1.043-.346.448-.34.591-.84.676-1.18.483-1.96.359-3.695.359-3.695a18.869 18.869 0 0 0-.644-3.702l-3.071.244-.502 3.977a1.035 1.035 0 1 0 2.06.137l.013-1.906"/>
  <path fill="#F06061" d="M38.71 25.584c.096 1.594 1.246 2.865 2.626 3.074 1.674.252 3.44-1.096 3.608-3.074h-6.236.002Z"/>
  <path fill="#F8BCBD" d="M41.827 28.838c1.037 0 1.878-.38 1.878-.85 0-.469-.84-.85-1.878-.85-1.037 0-1.878.381-1.878.85 0 .47.841.85 1.878.85Z"/>
  <path stroke="#333" stroke-linecap="round" stroke-linejoin="round" stroke-width=".869" d="m5.956 18.399 2.915 3.523M4.64 19.633l3.046 3.682m-3.643-1.708 3.282 3.971m4.132 1.072a4.044 4.044 0 0 1 .335-2.152 4.059 4.059 0 0 1 1.491-1.715"/>
  <path stroke="#333" stroke-linecap="round" stroke-linejoin="round" stroke-width=".869" d="M11.644 30.128a3.36 3.36 0 0 1-2.836-.485 16.14 16.14 0 0 1-.361-.261s-1.033-.778-1.874-1.717c-1.026-1.146-2.5-2.802-2.617-5.171-.026-.522-.13-2.64 1.32-3.928.147-.13.617-.55 1.158-.676 1.626-.378 3.958 1.858 5.701 5.484"/>
  <path stroke="#333" stroke-linecap="round" stroke-linejoin="round" stroke-width=".869" d="M11.125 21.522c-.03-.048-.633-1.015-.183-1.754.028-.046.285-.454.711-.53 1.341-.237 2.897 3.067 2.989 3.267.591 1.28.98 2.11.817 3.184-.135.887-.585 1.535-.302 2.417.152.478.45.81.67 1.013m18.353.824c-1.756-.198-5.112-.294-7.566 1.815-1.282 1.102-1.648 2.37-2.9 5.734-.726 1.952-1.86 4.94-3.377 8.673"/>
  <path fill="#A8D471" d="M27.26 49.812c-.768.5-1.965 1.091-3.317.909-1.261-.172-2.28-.963-4.78-4.4-3.08-4.232-2.393-4.212-4.663-7.168-1.828-2.383-3.11-3.487-3.323-5.685-.059-.602-.16-1.83.572-2.901 1.054-1.544 3.434-2.163 5.145-1.559 2.082.737 2.35 2.993 4.556 6.978a36.456 36.456 0 0 0 4.258 6.116"/>
  <path stroke="#333" stroke-linecap="round" stroke-linejoin="round" stroke-width=".869" d="M49.476 29.943c2.54.308 4.27 1.134 5.326 1.776 5.634 3.41 6.081 10.33 6.975 24.17.028.426.098 1.476-.574 2.124-.867.839-2.476.937-3.515.148a3.525 3.525 0 0 1-.88-1.07c-.578-1.05-.52-2.086-.463-2.554"/>
  <path stroke="#333" stroke-linecap="round" stroke-linejoin="round" stroke-width=".869" d="M54.456 19.635c.006 1.137.104 5.863-3.108 8.912-1.956 1.859-4.99 2.985-9.519 2.985-4.527 0-7.562-1.128-9.518-2.985-3.217-3.054-3.117-7.736-3.108-8.912"/>
  <path stroke="#333" stroke-linecap="round" stroke-linejoin="round" stroke-width=".869" d="M38.71 25.585c.096 1.593 1.246 2.864 2.626 3.073 1.674.252 3.44-1.095 3.608-3.073h-6.236.002ZM37.654 9.4c.256 1.247 1.185 4.893 4.4 6.781 1.643.966 4.614 1.9 5.638.692.706-.835.278-2.446-.322-3.393-.795-1.255-2.371-2.09-2.821-1.715-.48.4.248 2.265 1.202 3.532 1.32 1.752 3.15 2.471 4.621 3.05.982.384 2.36.815 4.082 1.014"/>
  <path stroke="#333" stroke-linecap="round" stroke-linejoin="round" stroke-width=".869" d="M38.462 12.282a14.967 14.967 0 0 1-3.695 4.27 15.003 15.003 0 0 1-5.408 2.7m.385 5.65c-.15.035-.334.061-.543.052-1.13-.039-2.798-1.034-2.798-2.797a2.812 2.812 0 0 1 2.798-2.798m25.255.003a2.797 2.797 0 1 1-.526 5.545M37.7 2.705a10.487 10.487 0 0 1 3.116-1.376c5.308-1.348 12.39 1.509 15.035 7.38 2.209 4.901.32 9.677-.115 10.703m-28.102.223c-.374-.702-2.694-5.247-.707-10.146.311-.763 1.874-4.621 5.867-6.052a9.13 9.13 0 0 1 3.575-.504M52.056 37.79a56.378 56.378 0 0 1 2.024 4.614 56.01 56.01 0 0 1 2.772 9.745 3.164 3.164 0 0 1-2.19 3.62 44.216 44.216 0 0 1-12.959 1.907 44.21 44.21 0 0 1-12.709-1.906 3.165 3.165 0 0 1-2.186-3.621 56.063 56.063 0 0 1 2.771-9.745 55.632 55.632 0 0 1 2.024-4.614"/>
  <path stroke="#333" stroke-linecap="round" stroke-linejoin="round" stroke-width=".869" d="M28.248 55.43a85.504 85.504 0 0 0 4.465 25.152m23.165-25.408A98.55 98.55 0 0 1 51.1 80.597m-12.435-.452c.384-3.671 1.008-7.386 1.536-9.488.924-3.678 1.448-4.263 1.826-4.258.261.002.833.289 1.765 4.44.433 1.924.852 5.667 1.098 9.293"/>
  <path stroke="#333" stroke-linecap="round" stroke-linejoin="round" stroke-width=".869" d="M36.013 79.312c2.56 0 4.64 2.078 4.64 4.641v.633h-9.279v-.633c0-2.56 2.078-4.64 4.641-4.64h-.002Zm11.631 0c2.56 0 4.64 2.078 4.64 4.641v.633h-9.279v-.633c0-2.56 2.078-4.64 4.641-4.64h-.002ZM27.092 49.694c-.628.429-1.762 1.07-3.15 1.026-2.866-.09-3.644-3.093-9.715-12.03-2.19-3.224-3.802-5.36-2.991-7.302.42-1.006 1.336-1.593 2.05-1.932.869-.418 2.258-.915 3.608-.446 2.123.74 2.6 3.335 4.556 6.978.8 1.49 2.128 3.675 4.258 6.116M57.997 58.76l-.502 3.979a1.035 1.035 0 1 0 2.06.136l.013-1.906"/>
  <path stroke="#333" stroke-linecap="round" stroke-linejoin="round" stroke-width=".869" d="m58.427 64.269-.12 1.636a1.433 1.433 0 0 0 1.327 1.535c.245-.009.67-.06 1.043-.346.448-.34.591-.84.676-1.18.483-1.96.359-3.695.359-3.695a18.869 18.869 0 0 0-.644-3.702M2.791 28.347c.017.205.137 1.428 1.21 2.272.946.743 1.992.689 2.235.67M1 28.37c.028.35.233 2.44 2.071 3.886 1.618 1.271 3.404 1.178 3.82 1.145m6.196-17.083c-.095-.18-.689-1.256-2.012-1.606-1.163-.309-2.1.154-2.317.267m5.966.609c-.165-.308-1.18-2.15-3.44-2.747-1.99-.528-3.594.263-3.963.458m27.942 9.831c.365-.623 1.039-1 1.754-.977 1.063.03 1.604.923 1.637.978m6.423-.001c.365-.623 1.039-1 1.754-.977 1.063.03 1.604.923 1.637.978"/>
  <path stroke="#333" stroke-linecap="round" stroke-linejoin="round" stroke-width=".652" d="M45.077 19.055a2.42 2.42 0 0 1 1.363-.589 2.452 2.452 0 0 1 1.621.441m-9.407.148a2.424 2.424 0 0 0-1.363-.589 2.452 2.452 0 0 0-1.622.441"/>
</svg>
