<svg xmlns="http://www.w3.org/2000/svg" width="54" height="56" fill="none" viewBox="0 0 54 56">
  <path fill="#F5A759" stroke="#333" stroke-miterlimit="10" stroke-width="1.436" d="M49.876 43.422c1.537 0 2.718 1.403 2.405 2.909-1.481 7.137-8.752 8.02-17.498 8.02H19.481c-8.745 0-16.015-.885-17.497-8.02-.311-1.504.868-2.91 2.405-2.91h45.487ZM3.788 24.099a2.805 2.805 0 0 1-2.776-3.19C2.565 9.634 12.24.949 23.944.949h6.38c11.703 0 21.378 8.685 22.931 19.962a2.806 2.806 0 0 1-2.776 3.19H3.788v-.002Z"/>
  <path fill="#7D5045" stroke="#333" stroke-miterlimit="10" stroke-width="1.436" d="M48.45 28.93H5.818a4.83 4.83 0 1 0 0 9.66H48.45a4.83 4.83 0 1 0 0-9.66Z"/>
  <path fill="#F06061" stroke="#333" stroke-miterlimit="10" stroke-width="1.436" d="M50.867 24.099H3.4a2.415 2.415 0 0 0-2.415 2.415v.002A2.415 2.415 0 0 0 3.4 28.93h47.467a2.415 2.415 0 0 0 2.415-2.415v-.002a2.415 2.415 0 0 0-2.415-2.414Z"/>
  <path fill="#A8D471" stroke="#333" stroke-miterlimit="10" stroke-width="1.436" d="M50.867 38.59H3.4a2.415 2.415 0 0 0-2.415 2.415v.002A2.415 2.415 0 0 0 3.4 43.422h47.467a2.415 2.415 0 0 0 2.415-2.415v-.002a2.415 2.415 0 0 0-2.415-2.415Z"/>
  <path fill="#F9CB6A" stroke="#333" stroke-miterlimit="10" stroke-width="1.436" d="M20.218 28.93s2.107 1.58 6.036 6.118c0 0 4.739-5.956 7.98-6.118H20.218Zm-6.238 0s-5.909.729-8.346 6.118c0 0-2.552-1.783-2.037-6.118h10.382Zm26.654 0s5.909.729 8.346 6.118c0 0 2.552-1.783 2.037-6.118H40.634Z"/>
  <path fill="#F3D2B9" d="M27.954 5.795a.818.818 0 1 1-1.637 0c0-.45.367-1.651.818-1.651.452 0 .819 1.198.819 1.651Zm4.916.101a.82.82 0 0 1-1.16 1.16c-.32-.32-.908-1.429-.588-1.749.32-.32 1.428.269 1.748.589Zm-11.472 0a.82.82 0 0 0 1.159 1.16c.32-.32.909-1.429.589-1.749-.32-.32-1.428.269-1.748.589Z"/>
</svg>
