<svg xmlns="http://www.w3.org/2000/svg" width="39" height="68" fill="none" viewBox="0 0 39 68">
  <path fill="#D3E2F1" d="M37.68 64.438c0 1.03-.833 1.863-1.862 1.863H4.162A1.862 1.862 0 0 1 2.3 64.438V3.18c0-1.03.834-1.863 1.863-1.863H17.28c.638 0 1.165.461 1.29 1.088a1.446 1.446 0 0 0 1.135 1.127 1.454 1.454 0 0 0 1.738-1.424v-.01c-.002-.427.322-.78.749-.78H35.82c1.03 0 1.863.833 1.863 1.862v61.258h-.002Z"/>
  <path fill="#333" d="M35.818 0H4.162a3.184 3.184 0 0 0-3.18 3.18v61.258a3.184 3.184 0 0 0 3.18 3.18H35.82a3.184 3.184 0 0 0 3.18-3.18V3.18A3.184 3.184 0 0 0 35.82 0h-.002Zm1.863 64.438c0 1.03-.834 1.863-1.863 1.863H4.162A1.862 1.862 0 0 1 2.3 64.438V3.18c0-1.03.834-1.863 1.863-1.863H17.28c.638 0 1.165.461 1.29 1.088a1.446 1.446 0 0 0 1.135 1.127 1.454 1.454 0 0 0 1.738-1.424v-.01c-.002-.427.322-.78.749-.78H35.82c1.029 0 1.863.833 1.863 1.862v61.258h-.002Z"/>
  <path stroke="#ABA8A8" stroke-linecap="round" stroke-linejoin="round" stroke-width=".753" d="M12.487 64.619h15.006"/>
  <path fill="#333" d="M34.636 52.991H5.342c-.824 0-1.492.668-1.492 1.493v5.972c0 .825.668 1.493 1.492 1.493h29.294c.824 0 1.492-.668 1.492-1.493v-5.972c0-.825-.668-1.493-1.492-1.493Z" opacity=".2"/>
  <path fill="#F06061" stroke="#333" stroke-linecap="round" stroke-linejoin="round" stroke-width=".358" d="M10.1 9.535H5.954a.988.988 0 0 0-.987.988v4.144c0 .545.442.988.987.988H10.1a.988.988 0 0 0 .988-.988v-4.144a.988.988 0 0 0-.988-.988Z"/>
  <path fill="#4562AC" stroke="#333" stroke-linecap="round" stroke-linejoin="round" stroke-width=".358" d="M18.046 9.535h-4.144a.988.988 0 0 0-.988.988v4.144c0 .545.443.988.988.988h4.144a.988.988 0 0 0 .988-.988v-4.144a.988.988 0 0 0-.988-.988Z"/>
  <path fill="#468A40" stroke="#333" stroke-linecap="round" stroke-linejoin="round" stroke-width=".358" d="M25.993 9.535h-4.144a.988.988 0 0 0-.988.988v4.144c0 .545.443.988.988.988h4.144a.988.988 0 0 0 .988-.988v-4.144a.988.988 0 0 0-.988-.988Z"/>
  <path fill="#513B8C" stroke="#333" stroke-linecap="round" stroke-linejoin="round" stroke-width=".358" d="M33.94 9.535h-4.144a.988.988 0 0 0-.988.988v4.144c0 .545.442.988.988.988h4.144a.988.988 0 0 0 .988-.988v-4.144a.988.988 0 0 0-.988-.988Z"/>
  <path fill="#F18653" stroke="#333" stroke-linecap="round" stroke-linejoin="round" stroke-width=".358" d="M10.1 17.984H5.954a.988.988 0 0 0-.987.988v4.144c0 .546.442.988.987.988H10.1a.988.988 0 0 0 .988-.988v-4.144a.988.988 0 0 0-.988-.988Z"/>
  <path fill="#66A9EB" stroke="#333" stroke-linecap="round" stroke-linejoin="round" stroke-width=".358" d="M18.046 17.984h-4.144a.988.988 0 0 0-.988.988v4.144c0 .546.443.988.988.988h4.144a.988.988 0 0 0 .988-.988v-4.144a.988.988 0 0 0-.988-.988Z"/>
  <path fill="#83BA4F" stroke="#333" stroke-linecap="round" stroke-linejoin="round" stroke-width=".358" d="M25.993 17.984h-4.144a.988.988 0 0 0-.988.988v4.144c0 .546.443.988.988.988h4.144a.988.988 0 0 0 .988-.988v-4.144a.988.988 0 0 0-.988-.988Z"/>
  <path fill="#7666A9" stroke="#333" stroke-linecap="round" stroke-linejoin="round" stroke-width=".358" d="M33.94 17.984h-4.144a.988.988 0 0 0-.988.988v4.144c0 .546.442.988.988.988h4.144a.988.988 0 0 0 .988-.988v-4.144a.988.988 0 0 0-.988-.988Z"/>
  <path fill="#F5A759" stroke="#333" stroke-linecap="round" stroke-linejoin="round" stroke-width=".358" d="M10.1 26.434H5.954a.988.988 0 0 0-.987.988v4.143c0 .546.442.988.987.988H10.1a.988.988 0 0 0 .988-.988v-4.143a.988.988 0 0 0-.988-.988Z"/>
  <path fill="#FDF6ED" stroke="#333" stroke-linecap="round" stroke-linejoin="round" stroke-width=".358" d="M18.046 26.434h-4.144a.988.988 0 0 0-.988.988v4.143c0 .546.443.988.988.988h4.144a.988.988 0 0 0 .988-.988v-4.143a.988.988 0 0 0-.988-.988Z"/>
  <path fill="#A8D471" stroke="#333" stroke-linecap="round" stroke-linejoin="round" stroke-width=".358" d="M25.993 26.434h-4.144a.988.988 0 0 0-.988.988v4.143c0 .546.443.988.988.988h4.144a.988.988 0 0 0 .988-.988v-4.143a.988.988 0 0 0-.988-.988Z"/>
  <path fill="#8376D6" stroke="#333" stroke-linecap="round" stroke-linejoin="round" stroke-width=".358" d="M33.94 26.434h-4.144a.988.988 0 0 0-.988.988v4.143c0 .546.442.988.988.988h4.144a.988.988 0 0 0 .988-.988v-4.143a.988.988 0 0 0-.988-.988Z"/>
  <path fill="#F9CB6A" stroke="#333" stroke-linecap="round" stroke-linejoin="round" stroke-width=".358" d="M10.1 34.883H5.954a.988.988 0 0 0-.987.988v4.143c0 .546.442.988.987.988H10.1a.988.988 0 0 0 .988-.988v-4.143a.988.988 0 0 0-.988-.988Z"/>
  <path fill="#F3D2B9" stroke="#333" stroke-linecap="round" stroke-linejoin="round" stroke-width=".358" d="M18.046 34.883h-4.144a.988.988 0 0 0-.988.988v4.143c0 .546.443.988.988.988h4.144a.988.988 0 0 0 .988-.988v-4.143a.988.988 0 0 0-.988-.988Z"/>
  <path fill="#C39C76" stroke="#333" stroke-linecap="round" stroke-linejoin="round" stroke-width=".358" d="M25.993 34.883h-4.144a.988.988 0 0 0-.988.988v4.143c0 .546.443.988.988.988h4.144a.988.988 0 0 0 .988-.988v-4.143a.988.988 0 0 0-.988-.988Z"/>
  <path fill="#7D5045" stroke="#333" stroke-linecap="round" stroke-linejoin="round" stroke-width=".358" d="M33.94 34.883h-4.144a.988.988 0 0 0-.988.988v4.143c0 .546.442.988.988.988h4.144a.988.988 0 0 0 .988-.988v-4.143a.988.988 0 0 0-.988-.988Z"/>
  <path fill="#A8D471" stroke="#333" stroke-linecap="round" stroke-linejoin="round" stroke-width=".358" d="M10.1 54.41H5.954a.988.988 0 0 0-.987.988v4.144c0 .546.442.988.987.988H10.1a.988.988 0 0 0 .988-.988v-4.144a.988.988 0 0 0-.988-.988Z"/>
  <path fill="#66A9EB" stroke="#333" stroke-linecap="round" stroke-linejoin="round" stroke-width=".358" d="M18.046 54.41h-4.144a.988.988 0 0 0-.988.988v4.144c0 .546.443.988.988.988h4.144a.988.988 0 0 0 .988-.988v-4.144a.988.988 0 0 0-.988-.988Z"/>
  <path fill="#FFFCF9" stroke="#333" stroke-linecap="round" stroke-linejoin="round" stroke-width=".358" d="M25.993 54.41h-4.144a.988.988 0 0 0-.988.988v4.144c0 .546.443.988.988.988h4.144a.988.988 0 0 0 .988-.988v-4.144a.988.988 0 0 0-.988-.988Z"/>
  <path fill="#F06061" stroke="#333" stroke-linecap="round" stroke-linejoin="round" stroke-width=".358" d="M33.94 54.41h-4.144a.988.988 0 0 0-.988.988v4.144c0 .546.442.988.988.988h4.144a.988.988 0 0 0 .988-.988v-4.144a.988.988 0 0 0-.988-.988Z"/>
  <path fill="#333" d="M8.2 3.476a.216.216 0 0 1-.216-.217v-.698a.216.216 0 0 1 .433 0v.698a.216.216 0 0 1-.216.217Zm.633 0a.216.216 0 0 1-.217-.217v-.51a.216.216 0 0 1 .433 0v.51a.216.216 0 0 1-.216.217Zm.632 0a.216.216 0 0 1-.216-.217V3.08a.216.216 0 0 1 .433 0v.18a.216.216 0 0 1-.217.216Zm26.187-.962v-.049a.121.121 0 0 0-.12-.12h-.283a.121.121 0 0 0-.12.12v.05a.221.221 0 0 0-.122.195v.542c0 .122.1.222.222.222h.325c.122 0 .222-.1.222-.222V2.71a.22.22 0 0 0-.122-.196h-.002Zm-30.786.102V2.49h.25v.878h-.14v-.752h-.112.002Zm.542 0V2.49h.25v.878h-.14v-.752h-.112.002Zm.572.229a.084.084 0 0 1-.024-.062.084.084 0 0 1 .086-.086.084.084 0 0 1 .087.086.084.084 0 0 1-.087.087.084.084 0 0 1-.062-.025Zm0 .507a.084.084 0 0 1-.024-.063.084.084 0 0 1 .086-.086.084.084 0 0 1 .087.086.084.084 0 0 1-.087.087.084.084 0 0 1-.062-.024Zm.388-.736V2.49h.25v.878h-.14v-.752h-.112.002Zm.542 0V2.49h.25v.878h-.14v-.752h-.112.002Z"/>
</svg>
