<svg xmlns="http://www.w3.org/2000/svg" width="61" height="59" fill="none" viewBox="0 0 61 59">
  <g opacity=".43">
    <path fill="#FDF6ED" stroke="#333" stroke-linecap="round" stroke-linejoin="round" stroke-width=".974" d="M52.021 6.297H8.93a7.185 7.185 0 0 0-7.185 7.184v37.696a7.185 7.185 0 0 0 7.185 7.185h43.09a7.185 7.185 0 0 0 7.185-7.185V13.481a7.185 7.185 0 0 0-7.185-7.184Z"/>
    <path fill="#F06061" stroke="#333" stroke-linecap="round" stroke-linejoin="round" stroke-width=".974" d="M56.257 5.286H4.693A3.693 3.693 0 0 0 1 8.978v6.018a3.693 3.693 0 0 0 3.693 3.693h51.564a3.693 3.693 0 0 0 3.693-3.693V8.978a3.693 3.693 0 0 0-3.693-3.692Z"/>
    <path stroke="#333" stroke-linecap="round" stroke-linejoin="round" stroke-width=".974" d="M13.506.525v9.521M16.164.525v9.521M23.932.525v9.521M26.59.525v9.521M34.36.525v9.521M37.018.525v9.521M44.787.525v9.521M47.445.525v9.521"/>
    <path fill="#FDF6ED" stroke="#333" stroke-linecap="round" stroke-linejoin="round" stroke-width=".557" d="M25.504 22.548h-4.98v4.982h4.98v-4.982Zm7.461 0h-4.981v4.982h4.98v-4.982Zm7.462 0h-4.981v4.982h4.981v-4.982Zm7.463 0h-4.982v4.982h4.981v-4.982Zm7.461 0h-4.98v4.982h4.98v-4.982ZM10.58 29.37H5.6v4.981h4.981V29.37Zm7.462 0h-4.981v4.981h4.981V29.37Zm7.462 0h-4.98v4.981h4.98V29.37Zm7.461 0h-4.981v4.981h4.98V29.37Zm7.462 0h-4.981v4.981h4.981V29.37Zm7.463 0h-4.982v4.981h4.981V29.37Zm7.461 0h-4.98v4.981h4.98V29.37ZM10.58 36.192H5.6v4.98h4.981v-4.98Zm7.462 0h-4.981v4.98h4.981v-4.98Zm7.462 0h-4.98v4.98h4.98v-4.98Zm7.461 0h-4.981v4.98h4.98v-4.98Zm7.462 0h-4.981v4.98h4.981v-4.98Zm7.463 0h-4.982v4.98h4.981v-4.98Zm7.461 0h-4.98v4.98h4.98v-4.98ZM10.58 43.013H5.6v4.982h4.981v-4.982Zm7.462 0h-4.981v4.982h4.981v-4.982Zm7.462 0h-4.98v4.982h4.98v-4.982Zm7.461 0h-4.981v4.982h4.98v-4.982Zm7.462 0h-4.981v4.982h4.981v-4.982Zm7.463 0h-4.982v4.982h4.981v-4.982Zm7.461 0h-4.98v4.982h4.98v-4.982ZM10.58 49.836H5.6v4.982h4.981v-4.982Zm7.462 0h-4.981v4.982h4.981v-4.982Zm7.462 0h-4.98v4.982h4.98v-4.982Zm7.461 0h-4.981v4.982h4.98v-4.982Zm7.462 0h-4.981v4.982h4.981v-4.982Z"/>
  </g>
  <path fill="#F06061" d="M33.382 43.687c-.265 0-.627-.122-.805-.351a158.857 158.857 0 0 0-2.323-2.93 104.31 104.31 0 0 0-2.036 2.1 1.04 1.04 0 0 1-.765.326c-.296 0-.58-.113-.794-.31a1.027 1.027 0 0 1-.326-.727c-.011-.31.102-.614.311-.837a115.322 115.322 0 0 1 2.199-2.268 164.53 164.53 0 0 0-1.536-1.82c-.405-.473-.402-1.09.006-1.536.194-.21.485-.332.8-.332.315 0 .601.123.786.34a165.794 165.794 0 0 1 1.518 1.798c.466-.452.89-.854 1.285-1.226.213-.2.488-.31.771-.31.284 0 .558.11.774.307.209.19.329.476.33.782.002.309-.118.6-.327.796-.387.363-.77.726-1.14 1.082l-.288.279a168.332 168.332 0 0 1 2.364 2.978c.14.18.284.408.299.74.012.271-.1.55-.315.784a1.113 1.113 0 0 1-.79.333l.002.002Z"/>
  <path fill="#333" d="M28.113 35.3a.73.73 0 0 1 .558.235c.402.47.802.94 1.198 1.414.176.209.348.42.524.63.5-.486 1.005-.97 1.515-1.447a.825.825 0 0 1 .565-.23c.201 0 .407.077.572.23.313.288.307.849 0 1.137-.385.358-.764.72-1.143 1.084-.162.156-.324.315-.485.473a172.41 172.41 0 0 1 2.532 3.185c.138.179.225.34.235.569.01.214-.094.415-.235.568a.818.818 0 0 1-.569.236c-.18 0-.451-.084-.568-.236a155.663 155.663 0 0 0-2.538-3.193c-.77.771-1.528 1.55-2.277 2.343a.736.736 0 0 1-.547.23.885.885 0 0 1-.591-.23c-.327-.3-.29-.831 0-1.137a105.99 105.99 0 0 1 2.388-2.454 159.547 159.547 0 0 0-1.715-2.034c-.292-.342-.313-.796 0-1.137a.788.788 0 0 1 .58-.234m0-.6c-.4 0-.772.156-1.022.43-.509.553-.515 1.35-.014 1.933.43.5.876 1.03 1.36 1.608a95.867 95.867 0 0 0-2.012 2.078 1.467 1.467 0 0 0-.393 1.055c.013.366.163.699.424.937.269.248.632.389.996.389.365 0 .73-.149.984-.419.57-.604 1.172-1.227 1.796-1.858a149.557 149.557 0 0 1 2.108 2.665c.251.324.706.468 1.043.468.38 0 .768-.165 1.01-.43.27-.294.41-.65.394-1.002-.018-.417-.203-.705-.36-.91a166.333 166.333 0 0 0-2.196-2.77l.09-.088c.369-.355.752-.718 1.137-1.078.27-.254.425-.624.423-1.017a1.362 1.362 0 0 0-.428-1 1.449 1.449 0 0 0-.977-.388c-.359 0-.707.14-.977.392-.33.309-.68.64-1.056 1.003-.037-.045-.075-.088-.11-.133-.394-.468-.799-.947-1.204-1.42a1.324 1.324 0 0 0-1.014-.443l-.003-.002Z"/>
  <path fill="#A8D471" stroke="#333" stroke-miterlimit="10" stroke-width=".557" d="M33.86 28.938a.974.974 0 0 0-1.378 0l-1.023 1.023v-6.676a1.05 1.05 0 1 0-2.1 0v6.511l-.89-.89a.974.974 0 1 0-1.378 1.379l2.71 2.71a.974.974 0 0 0 1.38 0l2.68-2.68a.974.974 0 0 0 0-1.379v.002Z"/>
</svg>
