<svg xmlns="http://www.w3.org/2000/svg" width="70" height="75" fill="none" viewBox="0 0 70 75">
  <path fill="#A8D471" d="M1.155 67.371c-.475-5.773.811-10.029 1.727-12.35 1.045-2.643 2.174-5.38 5.017-6.793 1.801-.897 3.584-.911 4.693-.813h14.115c1.394.157 3.873.629 6.114 2.306 1.43 1.07 2.393 2.355 3.545 4.66 1.2 2.404 2.725 6.163 3.454 11.23-1.8 1.843-7.402 7.098-16.326 8.345-12.16 1.698-20.905-5.386-22.337-6.588l-.002.003Z"/>
  <path fill="#F3D2BA" d="M31.243 37.904c.005 1.048.096 5.41-2.87 8.225-1.806 1.715-4.606 2.756-8.785 2.756-4.178 0-6.978-1.041-8.784-2.756-2.97-2.818-2.877-7.14-2.87-8.225 1.318-5.186 5.808-8.917 10.97-9.206 5.631-.316 10.873 3.527 12.337 9.206h.002Z"/>
  <path fill="#F3D2BA" d="M8.436 42.763a1.93 1.93 0 0 1-.502.048c-1.043-.035-2.58-.955-2.58-2.58a2.593 2.593 0 0 1 2.58-2.58l.502 5.112Zm22.807-5.113a2.58 2.58 0 1 1-.486 5.115l.486-5.116v.001Z"/>
  <path fill="#7D5045" d="M32.53 27.821c-2.44-5.418-8.977-8.054-13.876-6.81a9.64 9.64 0 0 0-2.877 1.269l-1.226.21a8.394 8.394 0 0 0-3.3.467c-3.685 1.318-5.13 4.878-5.415 5.584-1.834 4.523.307 8.716.652 9.365l1.59-.354a13.799 13.799 0 0 0 8.402-6.433l-.287-1.024c.533 1.482 1.574 3.432 3.604 4.623 1.463.859 4.063 1.691 5.095.748.866.573 1.782.936 2.584 1.25a15.01 15.01 0 0 0 3.768.936l1.182.048c.4-.946 2.143-5.354.106-9.877l-.002-.002Z"/>
  <path fill="#F3D2BA" d="M18.03 51.894c.031-.036.67-.757.403-1.436-.016-.043-.171-.42-.518-.543-1.084-.389-2.854 2.143-2.959 2.295-.675.982-1.12 1.62-1.136 2.536-.007.352.05.67.077.978l2.468 3.265a2.84 2.84 0 0 0 2.434.004 8.21 8.21 0 0 0 .338-.166s.971-.5 1.807-1.165c1.018-.809 2.484-1.977 2.92-3.934.096-.43.485-2.18-.538-3.463-.104-.13-.436-.546-.87-.728-1.302-.548-3.564.982-5.537 3.755"/>
  <path fill="#A8D471" d="M1.32 67.463c.305.601.89 1.584 1.794 2.157.313.196.606.307.906.335 1.952.186 4.514-2.353 8.186-5.223 2.88-2.25 4.364-2.952 4.357-4.427-.005-1.018-.717-1.927-1-2.286-.348-.444-1.42-1.807-2.814-1.805-.4 0-.941.025-4.575 3.305a17.08 17.08 0 0 1-4.182 2.782c-.192-.06-1.683-.51-2.704.292-1.143.896-1.367 3.09.034 4.868l-.002.002Z"/>
  <path fill="#fff" stroke="#333" stroke-linecap="round" stroke-linejoin="round" stroke-width=".78" d="M62.118 8.02c-.204-.012-.406-.014-.606-.012-.087-1.086-.514-2.098-1.286-2.847-.975-.944-2.305-1.28-3.634-1.05C54.43 1.443 51.226.4 48.678 1.788c-1.384.755-2.343 2.102-2.815 3.729-2.798.621-4.991 2.582-5.588 5.11-3.671.313-6.559 2.654-6.71 5.665-.147 2.899 2.292 5.477 5.703 6.324v.005c0 2 1.507 3.622 3.368 3.622.147 0 .291-.015.434-.034 1.145 1.514 2.804 2.468 4.654 2.468s3.647-1.034 4.793-2.657a8.54 8.54 0 0 0 1.479-.611c1.173 1.055 2.803 1.71 4.609 1.71 3.57 0 6.463-2.56 6.463-5.718 0-.085-.004-.171-.007-.257 2.573-.99 4.409-3.184 4.543-5.829.19-3.777-3.161-7.045-7.486-7.296v.001Z"/>
  <path stroke="#333" stroke-linecap="round" stroke-linejoin="round" stroke-width=".893" d="M26.705 47.417c1.395.157 3.873.629 6.115 2.305 1.43 1.07 2.393 2.356 3.544 4.661 1.2 2.404 2.726 6.163 3.454 11.23M12.59 47.417c-1.123-.078-3.398-.066-5.513 1.313-1.595 1.04-2.484 2.459-3.373 4.377-1.123 2.42-2.686 6.58-3.257 12.547"/>
  <path stroke="#333" stroke-linecap="round" stroke-linejoin="round" stroke-width=".893" d="M31.302 37.904c.005 1.048.096 5.411-2.87 8.225-1.805 1.715-4.606 2.756-8.784 2.756-4.18 0-6.98-1.041-8.785-2.755-2.97-2.819-2.877-7.14-2.87-8.226m7.803-9.445c.237 1.15 1.093 4.514 4.06 6.257 1.518.891 4.258 1.754 5.204.638.654-.77.258-2.257-.296-3.13-.734-1.158-2.19-1.93-2.604-1.583-.443.37.229 2.09 1.111 3.261 1.216 1.618 2.905 2.28 4.264 2.814.908.356 2.18.752 3.769.936"/>
  <path stroke="#333" stroke-linecap="round" stroke-linejoin="round" stroke-width=".893" d="M16.542 31.118a13.82 13.82 0 0 1-3.41 3.94A13.813 13.813 0 0 1 8.14 37.55m.355 5.213a1.88 1.88 0 0 1-.501.048c-1.043-.035-2.58-.955-2.58-2.58a2.593 2.593 0 0 1 2.58-2.58m23.308-.001a2.58 2.58 0 1 1-.486 5.115M15.839 22.28c.7-.454 1.664-.96 2.877-1.27 4.898-1.243 11.434 1.393 13.875 6.811 2.038 4.524.295 8.931-.105 9.878m-25.937.205c-.345-.648-2.486-4.841-.652-9.365.286-.705 1.73-4.264 5.414-5.584a8.427 8.427 0 0 1 3.3-.466"/>
  <path stroke="#333" stroke-linecap="round" stroke-linejoin="round" stroke-width=".571" d="M22.646 36.315a2.938 2.938 0 0 0 2.579.852"/>
  <path stroke="#333" stroke-linecap="round" stroke-linejoin="round" stroke-width="2.322" d="M23.951 39.377v1.345"/>
  <path stroke="#333" stroke-linecap="round" stroke-linejoin="round" stroke-width=".571" d="M16.65 36.315a2.938 2.938 0 0 1-2.579.852"/>
  <path stroke="#333" stroke-linecap="round" stroke-linejoin="round" stroke-width="2.322" d="M15.344 39.377v1.345"/>
  <path stroke="#333" stroke-linecap="round" stroke-linejoin="round" stroke-width=".893" d="M23.132 45.085c-.424.002-.852-.449-1.277-.447-.425.002-.849.456-1.275.456-.427 0-.85-.452-1.277-.452-.413 0-.827.452-1.238.45-.41-.002-.823-.454-1.234-.456-.41-.001-.826.449-1.237.447m13.338 9.574a24.921 24.921 0 0 1 1.866 4.259 24.92 24.92 0 0 1 1.166 5.6m-21.599-9.859a21.503 21.503 0 0 0-1.886 4.32"/>
  <path stroke="#333" stroke-miterlimit="10" stroke-width=".446" d="M49.451 38.81c-.148-.395-.604-.6-1.096-.535-.075-.54-.454-.953-.91-.953-.508 0-.923.516-.923 1.153 0 .043.002.084.006.127a1.32 1.32 0 0 0-.647.516c-.353.53-.294 1.19.129 1.472.32.212.755.152 1.102-.118.023.084.051.168.09.25.28.573.878.857 1.335.634.439-.214.587-.816.353-1.372.47-.262.715-.753.557-1.175h.004Z"/>
  <path stroke="#333" stroke-miterlimit="10" stroke-width=".536" d="M57.29 31.78c-.19-.512-.782-.778-1.42-.692-.097-.702-.587-1.236-1.176-1.236-.66 0-1.195.67-1.195 1.494 0 .056.004.11.008.165-.317.11-.618.34-.836.668-.457.687-.382 1.54.166 1.907.414.275.978.196 1.427-.154.03.11.066.218.12.325.36.743 1.133 1.111 1.728.822.57-.277.76-1.057.457-1.777.607-.341.925-.977.722-1.521Z"/>
  <path stroke="#333" stroke-miterlimit="10" stroke-width=".357" d="M40.188 38.288c-.129-.346-.529-.525-.96-.468-.065-.473-.396-.834-.794-.834-.446 0-.807.452-.807 1.01 0 .037.002.074.005.11a1.145 1.145 0 0 0-.564.452c-.309.464-.259 1.04.113 1.287.278.186.66.132.964-.103.02.073.044.146.08.22.243.501.766.75 1.168.555.386-.188.514-.715.31-1.2.41-.23.624-.66.487-1.027l-.002-.002Z"/>
  <path stroke="#333" stroke-linecap="round" stroke-linejoin="round" stroke-width=".893" d="M1.32 67.463c.305.601.89 1.584 1.795 2.157.312.196.605.307.905.335 1.952.186 4.514-2.353 8.186-5.223 2.88-2.25 4.365-2.952 4.358-4.427-.006-1.018-.718-1.927-1-2.286-.349-.444-1.42-1.807-2.815-1.805-.4 0-.941.025-4.575 3.305a17.08 17.08 0 0 1-4.182 2.782M22.785 50.03l-2.934 2.52m3.854-1.303-3.064 2.633m3.279-.902-3.303 2.84m-4.252 3.172a2.84 2.84 0 0 0 2.434.004 8.21 8.21 0 0 0 .338-.166s.971-.5 1.807-1.164c1.018-.81 2.484-1.977 2.92-3.934.096-.43.486-2.18-.538-3.463-.103-.13-.435-.546-.87-.729-1.301-.548-3.564.983-5.537 3.756"/>
  <path stroke="#333" stroke-linecap="round" stroke-linejoin="round" stroke-width=".893" d="M18.03 51.894c.032-.036.671-.757.403-1.436-.016-.043-.171-.42-.518-.543-1.084-.389-2.853 2.143-2.959 2.295-.675.982-1.12 1.62-1.136 2.536-.007.352.05.67.077.978"/>
  <path fill="#D3E2F1" stroke="#333" stroke-linecap="round" stroke-linejoin="round" stroke-width=".304" d="m55.847 11.242-1.293 10.23a.673.673 0 0 1-.667.59h-4.602a.671.671 0 0 1-.668-.59l-1.293-10.23h8.525-.002Z"/>
  <path fill="#4562AC" d="M53.022 13.874a8.828 8.828 0 0 0-2.921.077 8.769 8.769 0 0 0-1.55.457c.05.072.858 1.173 2.23 1.098.986-.053 1.863-.693 2.24-1.632h.001Z"/>
  <path fill="#66A9EB" d="M53.15 20.992h-3.13c-.345 0-.626-.262-.674-.625l-.794-5.959c.192.127.483.288.862.4.184.056.752.206 1.39.104 1.07-.172 1.217-.877 2.07-1.02.372-.063.95-.029 1.744.516l-.795 5.96c-.048.362-.328.624-.673.624h.002Z"/>
  <path fill="#fff" d="m48.5 11.403 1.033.09a134.98 134.98 0 0 1 .068 6.782 50.89 50.89 0 0 1-1.1-6.874Z" opacity=".51"/>
  <path fill="#D3E2F1" stroke="#333" stroke-linecap="round" stroke-linejoin="round" stroke-width=".304" d="M51.585 12.204c2.357 0 4.268-.487 4.268-1.087s-1.911-1.088-4.268-1.088c-2.358 0-4.268.487-4.268 1.088 0 .6 1.91 1.087 4.268 1.087Z"/>
</svg>
