<svg xmlns="http://www.w3.org/2000/svg" width="63" height="69" fill="none" viewBox="0 0 63 69">
  <path fill="#D3E2F1" stroke="#333" stroke-linecap="round" stroke-linejoin="round" stroke-width="1.471" d="M61.953 23.265c.323-5.946-5.352-11.09-12.675-11.487a15.802 15.802 0 0 0-5.813.752 16.145 16.145 0 0 0-1.317-3.597C38.83 2.39 31.835-.725 26.525 1.969c-2.343 1.19-3.965 3.31-4.764 5.87-4.74.978-8.451 4.067-9.46 8.049-6.216.492-11.105 4.18-11.362 8.918-.29 5.34 5.411 9.991 12.734 10.389.673.035 1.335.035 1.982 0 2.067 3.053 6.369 5.288 11.446 5.564 3.164.172 6.11-.448 8.46-1.618 1.491.576 3.132.94 4.87 1.034 6.26.34 11.696-2.902 13.343-7.565 4.613-1.47 7.947-5.024 8.18-9.342l-.001-.003Z"/>
  <path stroke="#4562AC" stroke-linecap="round" stroke-linejoin="round" stroke-width="1.471" d="M14.976 23.23c.702-1.141 1.927-1.839 3.217-1.805 1.568.04 2.98 1.158 3.442 2.765m-2.692-2.767c.112-1.335.891-2.511 2.057-3.062 1.419-.67 3.182-.31 4.32.916m16.26 7.998c-1.086-.784-2.485-.956-3.664-.431-1.431.64-2.305 2.215-2.114 3.877m1.42-3.587c-.615-1.19-1.788-1.975-3.076-2.036-1.568-.074-3.057.937-3.635 2.507m21.435-3.965c-.34-1.297-1.311-2.32-2.553-2.663-1.513-.416-3.188.242-4.098 1.648m-6.619-7.095c-.615-1.189-1.788-1.975-3.076-2.035-1.568-.074-3.057.937-3.635 2.506"/>
  <path fill="#66A9EB" stroke="#333" stroke-linecap="round" stroke-linejoin="round" stroke-width="1.261" d="M16.823 49.166a2.012 2.012 0 1 1-3.772 1.406c-.389-1.042-.572-4.11.47-4.499 1.04-.389 2.913 2.05 3.3 3.093h.002Zm12.631 4.781a2.012 2.012 0 1 1-3.772 1.405c-.388-1.042-.571-4.11.471-4.498 1.04-.39 2.912 2.05 3.3 3.093h.001Zm12.633-5.472a2.012 2.012 0 1 1-3.772 1.406c-.389-1.043-.571-4.11.47-4.5 1.043-.388 2.913 2.052 3.3 3.094h.002Zm.443 15.453a2.012 2.012 0 1 1-3.772 1.406c-.388-1.043-.571-4.11.471-4.5 1.04-.388 2.913 2.051 3.3 3.094h.001Zm14.125-.645a2.012 2.012 0 1 1-3.772 1.405c-.388-1.042-.571-4.11.471-4.498 1.042-.39 2.913 2.05 3.3 3.093h.001Zm-2.101-12.261a2.012 2.012 0 1 1-3.772 1.405c-.389-1.042-.572-4.11.47-4.499 1.04-.388 2.913 2.051 3.3 3.094h.002ZM24.215 64.856a2.012 2.012 0 1 1-3.771 1.406c-.39-1.042-.572-4.11.47-4.499 1.042-.388 2.913 2.051 3.3 3.093h.001Z"/>
</svg>
