<svg xmlns="http://www.w3.org/2000/svg" width="34" height="82" fill="none" viewBox="0 0 34 82">
  <path fill="#7D5045" d="M28.116 27.872a25.964 25.964 0 0 0 1.761-1.111 5.544 5.544 0 0 0 2.364-5.053 44.15 44.15 0 0 0-.238-2.092 42.295 42.295 0 0 0-.738-3.967c-.712-3.024-2.383-9.79-6.892-13.011-.157-.113-.291-.201-.321-.223-1.144-.762-4.466-2.702-8.179-1.694a8.53 8.53 0 0 0-2.61 1.222l-1.236.202c-.684-.043-1.727-.012-2.834.447-1.116.464-2.55 1.47-4.283 5.155-1.403 2.983-2.029 5.648-2.43 7.857a55.444 55.444 0 0 0-.831 7.373 5.548 5.548 0 0 0 2.87 5.133c.247.134.504.27.773.403l22.824-.645v.004Z"/>
  <path fill="#F18653" d="M6.523 46.491c-2.345-5.005-2.727-9.206-2.735-11.703-.011-4.166 1.014-5.646 1.647-6.352 1.485-1.656 3.53-2.088 4.552-2.221l13.6.03c1.015.162 2.97.63 4.553 2.22.418.422 1.86 1.976 2.335 6.112.559 4.86-.697 9.106-1.93 11.979a49.746 49.746 0 0 1 2.31 7.265c.259 1.101.056.408.71 3.698.81 4.062 1.18 5.424.367 6.425-.183.225-.356.348-1.621.929-2.215 1.018-3.322 1.528-4.591 1.936-1.403.45-4.485 1.414-8.554 1.36-2.361-.033-4.138-.397-5.705-.717-1-.205-2.424-.639-5.269-1.507-3.328-1.016-4.58-1.46-4.845-2.51-.08-.313-.037-.682.056-1.41.246-1.916.757-3.334.813-3.492 1.155-3.199.739-3.652 2.001-7.045a36.388 36.388 0 0 1 2.303-4.995l.003-.002Z"/>
  <path fill="#F3D2B9" d="M27.837 16.238c.005 1.058.089 5.452-2.644 8.289-1.664 1.726-4.243 2.775-8.094 2.775-3.85 0-6.43-1.049-8.094-2.775-2.735-2.841-2.65-7.195-2.644-8.289C5.864 9.881 10.896 4.46 16.935 4.371c6.156-.09 11.403 5.385 10.9 11.867h.002Z"/>
  <path fill="#F3D2B9" d="M7.058 21.134c-.14.032-.31.056-.505.05-1.051-.038-2.601-.964-2.601-2.602 0-1.427 1.174-2.6 2.6-2.6m21.372-.001a2.601 2.601 0 1 1-.49 5.157"/>
  <path fill="#F06061" d="M14.915 22.992a3.342 3.342 0 0 1 2.152-.81 3.342 3.342 0 0 1 2.231.87 4.51 4.51 0 0 1-2.231.544 4.507 4.507 0 0 1-2.152-.602v-.002Z"/>
  <path fill="#F06061" d="M14.915 22.992c.347.2 1.111.58 2.152.602a4.512 4.512 0 0 0 2.232-.544c-.285 1.133-1.345 1.874-2.429 1.76-.945-.1-1.746-.834-1.957-1.818h.002Z"/>
  <path fill="#7D5045" d="M27.924 15.981c-.412.089-1.651.296-2.949-.356a4.2 4.2 0 0 1-1.383-1.116l2.963-1.688c-2.94 2.539-7.084 2.793-9.94.775-3.412-2.413-3.19-6.808-3.174-7.056l.621 3.913a8.626 8.626 0 0 1-1.964 3.04c-2.031 2.02-4.487 2.398-5.331 2.488-.44-.131-.935-.369-1.265-.829-1.237-1.73.91-5.188 2.132-6.715 2.744-3.423 6.592-4.301 7.188-4.424 1.396-.287 6.516-1.343 10.27 2.25 3.926 3.76 2.912 9.308 2.83 9.718h.002Z"/>
  <path fill="#F3D2B9" d="M19.32 68.22a34.89 34.89 0 0 1 1.2 9.314l4.859-.073a52.225 52.225 0 0 0 1.893-10.892L19.32 68.22Zm-4.34 0a34.89 34.89 0 0 0-1.2 9.314l-4.86-.073a52.214 52.214 0 0 1-1.892-10.892l7.952 1.651Z"/>
  <path fill="#F06061" d="M11.524 77.083a3.95 3.95 0 0 1 3.948 3.948v.537H7.576v-.537a3.95 3.95 0 0 1 3.948-3.948Zm15.2 4.485h-7.896v-.537a3.95 3.95 0 0 1 3.948-3.948 3.95 3.95 0 0 1 3.948 3.948v.537Z"/>
  <path stroke="#333" stroke-linecap="round" stroke-linejoin="round" stroke-width=".863" d="M27.93 16.23c.005 1.057.089 5.452-2.644 8.288-1.664 1.727-4.244 2.776-8.094 2.776-3.85 0-6.43-1.05-8.094-2.776-2.735-2.84-2.651-7.194-2.645-8.288"/>
  <path stroke="#333" stroke-linecap="round" stroke-linejoin="round" stroke-width=".863" d="M14.293 22.35c.194.182 1.548 1.404 3.454 1.151 1.247-.164 2.056-.872 2.346-1.15M7.15 21.125c-.14.032-.31.056-.505.05-1.05-.037-2.6-.963-2.6-2.601a2.613 2.613 0 0 1 2.6-2.601m21.371.002a2.601 2.601 0 1 1-.49 5.156"/>
  <path stroke="#333" stroke-linecap="round" stroke-linejoin="round" stroke-width=".863" d="M5.385 28.511c-.27-.136-.529-.27-.773-.403a5.546 5.546 0 0 1-2.87-5.133c.133-2.95.479-5.44.83-7.374.402-2.208 1.026-4.873 2.431-7.856C6.736 4.06 8.169 3.055 9.285 2.59c1.108-.46 2.15-.49 2.834-.447m1.235-.207a8.633 8.633 0 0 1 2.61-1.222c3.712-1.008 7.034.933 8.178 1.695.03.021.166.11.322.222 4.51 3.218 6.18 9.987 6.892 13.011a43.707 43.707 0 0 1 .975 6.06 5.546 5.546 0 0 1-2.363 5.052c-.52.36-1.11.738-1.762 1.112"/>
  <path stroke="#333" stroke-linecap="round" stroke-linejoin="round" stroke-width=".576" d="M20.153 16.137c.15-.13.587-.482 1.257-.542a2.247 2.247 0 0 1 1.495.408m-8.673.134a2.231 2.231 0 0 0-1.256-.542 2.246 2.246 0 0 0-1.496.408"/>
  <path fill="#333" d="M12.668 21.354c-.725 0-1.315-.59-1.315-1.315v-1.47a1.315 1.315 0 0 1 2.63 0v1.47c0 .725-.59 1.315-1.315 1.315Z"/>
  <path stroke="#333" stroke-linecap="round" stroke-linejoin="round" stroke-width=".576" d="M10.52 17.844c.037.071.2.363.561.492.292.104.544.043.635.017m-.363-.933c.037.072.201.363.562.493.29.104.543.043.634.017"/>
  <path fill="#333" d="M21.718 21.354c.725 0 1.315-.59 1.315-1.315v-1.47a1.315 1.315 0 0 0-2.63 0v1.47c0 .725.59 1.315 1.315 1.315Z"/>
  <path stroke="#333" stroke-linecap="round" stroke-linejoin="round" stroke-width=".576" d="M23.868 17.844c-.037.071-.2.363-.561.492a1.047 1.047 0 0 1-.635.017m.361-.933a1.045 1.045 0 0 1-.562.493 1.047 1.047 0 0 1-.634.017"/>
  <path stroke="#333" stroke-linecap="round" stroke-linejoin="round" stroke-width=".863" d="M13.533 6.534c.011.479.154 4.18 3.279 6.557 2.409 1.83 5.679 2.187 8.532.948m-11.189-3.592a8.626 8.626 0 0 1-1.964 3.04c-2.031 2.02-4.488 2.397-5.332 2.488m17.031-1.239c.198.265.74.915 1.698 1.252a3.68 3.68 0 0 0 2.429-.013M9.113 39.288a17.23 17.23 0 0 1-.665 3.359c-.732 2.407-1.807 4.023-2.077 4.449-1.124 1.778-2.775 5.845-4.996 16.09 2.048 1.41 7.824 4.993 16.017 4.978 7.704-.013 13.208-3.196 15.321-4.574M8.543 33.024c-.175.223-1.196 1.568-.905 3.413.344 2.158 2.191 3.138 2.383 3.236"/>
  <path stroke="#333" stroke-linecap="round" stroke-linejoin="round" stroke-width=".863" d="M25.916 38.302c-.047 1.14.033 2.784.708 4.57.611 1.612 1.449 2.648 1.643 2.903 1.31 1.709 2.896 6.25 4.446 17.818"/>
  <path stroke="#333" stroke-linecap="round" stroke-linejoin="round" stroke-width=".863" d="M25.806 33.024c.175.223 1.196 1.568.905 3.413-.344 2.158-2.191 3.138-2.383 3.236"/>
  <path stroke="#333" stroke-linecap="round" stroke-linejoin="round" stroke-width=".863" d="M23.814 26.245c1.066.175 2.99.66 4.552 2.22 1.964 1.96 2.204 4.46 2.4 6.875.374 4.585-.803 8.5-1.994 11.216M10.211 26.215c-1.057.144-3.08.589-4.552 2.22-.423.469-1.755 2.092-1.64 7.052.056 2.444.481 6.45 2.61 11.2m.623 19.883a52.214 52.214 0 0 0 1.893 10.892m4.861.07a34.871 34.871 0 0 1 1.2-9.314m-3.458 8.865a3.95 3.95 0 0 1 3.948 3.948v.537H7.802v-.537a3.95 3.95 0 0 1 3.948-3.948h-.002ZM27.496 66.57a52.203 52.203 0 0 1-1.893 10.892m-4.859.07a34.824 34.824 0 0 0-1.2-9.314m7.404 13.35h-7.896v-.537A3.95 3.95 0 0 1 23 77.083a3.95 3.95 0 0 1 3.948 3.948v.537Z"/>
</svg>
