<svg xmlns="http://www.w3.org/2000/svg" width="72" height="58" fill="none" viewBox="0 0 72 58">
  <path fill="#F06061" stroke="#333" stroke-miterlimit="10" stroke-width="1.205" d="M9.767 56.43a9.016 9.016 0 1 0 0-18.033 9.016 9.016 0 0 0 0 18.033Z"/>
  <path fill="#D3E2F1" d="M34.075 39.526a9.016 9.016 0 1 0 0-18.032 9.016 9.016 0 0 0 0 18.032Z"/>
  <path stroke="#66A9EB" stroke-dasharray="2.41 2.41" stroke-linecap="round" stroke-linejoin="round" stroke-width="1.205" d="M42.95 32.107a9.016 9.016 0 1 0-17.749-3.19 9.016 9.016 0 0 0 17.748 3.19Z"/>
  <path fill="#D3E2F1" d="M58.38 22.624a9.016 9.016 0 1 0 0-18.032 9.016 9.016 0 0 0 0 18.032Z"/>
  <path stroke="#66A9EB" stroke-dasharray="2.41 2.41" stroke-linecap="round" stroke-linejoin="round" stroke-width="1.205" d="M64.755 19.984a9.016 9.016 0 1 0-12.75-12.75 9.016 9.016 0 0 0 12.75 12.75Z"/>
  <path fill="#F3D2BA" d="M2.185 24.299c2.388 2.595 5.085 2.676 6.061 2.196-.193 3.239-.948 8.99 2.411 7.235 2.122-1.466.41-8.815 1.408-12.52.146 1.777 1.292 5.281 2.032 5.574.758.547 1.97.799 2.423.317.413-.441-.068-1.217-.617-3.115-.46-1.529-.668-3.267-.866-4.43-.227-4.328-4.695-8.89-9.508-6.454C2.075 14.207-.95 20.518 2.185 24.3Z"/>
  <path stroke="#333" stroke-linecap="round" stroke-linejoin="round" stroke-width="1.205" d="M7.737 26.738c-.429.008-3.582.022-5.552-2.44-1.974-2.462-1.453-5.77-.343-7.816 1.105-2.037 2.881-2.99 3.621-3.333m6.466 7.744a124.65 124.65 0 0 0-.214 8.364c.02 1.87.085 3.77-1.058 4.473-.492.303-1.21.384-1.73.093-.57-.32-.987-1.138-.855-4.741.055-1.477.205-3.51.623-5.94"/>
  <path stroke="#333" stroke-linecap="round" stroke-linejoin="round" stroke-width="1.205" d="M12.037 21.01a17.37 17.37 0 0 0 .697 3.217c.63 1.982 1.162 2.412 1.363 2.557.758.547 1.97.799 2.423.317.413-.441-.068-1.217-.617-3.115a18.315 18.315 0 0 1-.436-1.821c-.232-1.275-.3-1.854-.428-2.61-.195-1.137-.412-2.407-1.155-3.672-.301-.513-1.389-2.3-3.6-3.078-.993-.35-1.88-.377-2.453-.35M6.234 26.331a4.591 4.591 0 0 1-.533-1.846 4.566 4.566 0 0 1 .139-1.466m-2.173 2.306a5.13 5.13 0 0 1-.065-3.122"/>
</svg>
