<svg xmlns="http://www.w3.org/2000/svg" width="63" height="63" fill="none" viewBox="0 0 63 63">
  <path fill="#F5A759" stroke="#333" stroke-linecap="round" stroke-linejoin="round" stroke-width="1.431" d="M25.257 56.777c13.387 0 24.238-10.851 24.238-24.237 0-13.387-10.851-24.238-24.238-24.238C11.871 8.302 1.02 19.153 1.02 32.54c0 13.386 10.851 24.237 24.237 24.237Z"/>
  <path fill="#468A40" stroke="#333" stroke-linecap="round" stroke-linejoin="round" stroke-width="1.431" d="M43.872 1.026c-.888-.06-6.135-.323-10.251 3.63-5.431 5.214-3.711 12.799-3.63 13.132 1.961-.757 6.517-2.826 10.037-7.687a22.159 22.159 0 0 0 3.844-9.075Z"/>
  <path stroke="#333" stroke-linecap="round" stroke-linejoin="round" stroke-width="1.431" d="M25.084 15.14c.194.4 1.519 3.012 4.662 3.89 3.13.872 5.609-.665 5.985-.907"/>
  <path fill="#F5A759" stroke="#333" stroke-linecap="round" stroke-linejoin="round" stroke-width="1.431" d="M57.298 33.599a2.198 2.198 0 0 1 2.988 1.229c3.748 10.001 1.356 20.254-9.096 25.136-10.504 4.903-19.855.13-25.11-9.168a2.197 2.197 0 0 1 .977-3.077L57.298 33.6v-.002Z"/>
  <path fill="#FDF6ED" d="M56.503 35.987c1.043-.486 2.243-.043 2.61.955 3.052 8.309.672 16.991-8.696 21.363-9.414 4.397-17.559.628-21.961-7.05-.53-.923-.099-2.127.944-2.614l27.103-12.654Z"/>
  <path fill="#F5A759" d="M58.417 41.748a17.567 17.567 0 0 0-.64-3.922c-.035-.739-1.184-1.148-2.067-.734l-4.744 2.21-4.745 2.21c-.883.412-.84 1.336.078 1.663l4.932 1.755 4.933 1.754c.918.327 2.024-.188 1.99-.926.191-1.047.343-2.413.265-4.006l-.002-.004ZM32.143 54.017c-1.158-1.07-2-2.137-2.595-3.01-.544-.501-.119-1.644.764-2.057l4.742-2.219 4.742-2.218c.884-.413 1.563.212 1.223 1.126l-1.822 4.908-1.822 4.908c-.34.914-1.443 1.431-1.987.93a17.536 17.536 0 0 1-3.243-2.368h-.002Zm11.52 4.337a17.462 17.462 0 0 1-3.969-.21c-.738.044-1.27-1.051-.955-1.976l1.681-4.957 1.681-4.956c.313-.925 1.235-.982 1.66-.103l2.28 4.712 2.28 4.711c.426.877.033 2.033-.705 2.078-1.02.305-2.362.603-3.953.701Zm10.885-5.147a17.508 17.508 0 0 1-3.002 2.605c-.499.546-1.644.125-2.059-.756l-2.233-4.734-2.233-4.734c-.415-.881.209-1.564 1.123-1.227l4.911 1.806 4.912 1.805c.916.338 1.436 1.44.937 1.984a17.537 17.537 0 0 1-2.358 3.25l.002.001Z"/>
</svg>
