<svg xmlns="http://www.w3.org/2000/svg" width="71" height="76" fill="none" viewBox="0 0 71 76">
  <path fill="#F5A759" stroke="#333" stroke-linecap="round" stroke-linejoin="round" stroke-width="1.61" d="M52.304 66.224c9.376 0 16.977-7.6 16.977-16.977 0-9.375-7.601-16.976-16.977-16.976-9.376 0-16.976 7.6-16.976 16.977 0 9.375 7.6 16.976 16.976 16.976Z"/>
  <path fill="#F5A759" d="M53.378 35.846c-.055.395-.145 1.432.449 2.467.777 1.355 2.164 1.728 2.693 1.87 1.628.437 2.99-.099 3.44-.299"/>
  <path stroke="#333" stroke-linecap="round" stroke-linejoin="round" stroke-width="1.61" d="M53.378 35.846c-.055.395-.145 1.432.449 2.467.777 1.355 2.164 1.728 2.693 1.87 1.628.437 2.99-.099 3.44-.299"/>
  <path fill="#468A40" stroke="#333" stroke-linecap="round" stroke-linejoin="round" stroke-width="1.61" d="M68.588 29.978c-.58-.225-4.032-1.504-7.61.272-4.725 2.343-5.169 7.771-5.185 8.013 1.47-.094 4.947-.52 8.322-3.03a15.556 15.556 0 0 0 4.475-5.255h-.002Z"/>
  <path fill="#D3E2F1" d="M42.849 16.956c-.074-2.88-7.825-5.208-17.381-5.208-9.557 0-17.31 2.328-17.381 5.208h-.003v49.438c0 1.865.983 3.59 2.586 4.547 2.992 1.785 7.896 3.984 14.228 4.11 6.872.136 12.203-2.233 15.352-4.103a5.304 5.304 0 0 0 2.604-4.556V16.956h-.005Z"/>
  <path stroke="#333" stroke-linecap="round" stroke-linejoin="round" stroke-width="1.61" d="M42.851 16.956v49.433c0 1.873-.993 3.6-2.603 4.557-3.149 1.87-8.483 4.239-15.353 4.103-6.332-.127-11.235-2.325-14.227-4.11a5.292 5.292 0 0 1-2.586-4.547V16.956"/>
  <path fill="#F18653" d="M12.236 36.303a29.937 29.937 0 0 1 7.933-2.64c5.743-1.051 10.534-.177 13.326.57-1.136 5.14-5.57 8.841-10.617 8.993-4.533.138-8.786-2.613-10.644-6.923h.002Z"/>
  <path stroke="#333" stroke-linecap="round" stroke-linejoin="round" stroke-width="1.61" d="M8.082 16.997c0-2.898 7.784-5.249 17.386-5.249 9.603 0 17.386 2.351 17.386 5.249"/>
  <path fill="#FDF6ED" stroke="#333" stroke-linecap="round" stroke-linejoin="round" stroke-width="1.61" d="M26.703 57.949 17.101 11.14a5.59 5.59 0 0 0-3.163-3.967c-1.962-.895-5.246-2.397-10.509-4.81a1.274 1.274 0 0 0-1.688.628L.922 4.79a1.274 1.274 0 0 0 .628 1.686l9.856 4.5a3.937 3.937 0 0 1 2.224 2.793l9.225 44.974 3.848-.789v-.005Z"/>
  <path stroke="#333" stroke-linecap="round" stroke-linejoin="round" stroke-width="1.61" d="M42.851 16.997c0 2.898-7.783 5.248-17.386 5.248-9.602 0-17.385-2.35-17.385-5.248"/>
  <path fill="#F5A759" d="M38.697 36.303V65.04a4.04 4.04 0 0 1-1.98 3.469c-2.396 1.424-6.456 3.227-11.684 3.123-4.818-.096-8.551-1.769-10.828-3.128a4.028 4.028 0 0 1-1.967-3.459V36.306c1.222 1.258 3.158 2.824 5.638 2.969 4.377.255 6.4-4.152 11.477-5.102 2.065-.386 5.154-.299 9.347 2.13h-.003Z"/>
  <path fill="#fff" d="M12.938 24.445a4.955 4.955 0 0 0 4.425 1.777 1737.355 1737.355 0 0 0-2.148 33.244 254.422 254.422 0 0 1-2.28-35.022h.003Z" opacity=".51"/>
  <path fill="#F5A759" stroke="#333" stroke-linecap="round" stroke-linejoin="round" stroke-width="1.15" d="M34.7 6.15a1.584 1.584 0 0 1 .294-2.307c6.25-4.478 13.824-4.735 19.171 1.615 5.375 6.382 3.809 13.775-1.67 19.166a1.58 1.58 0 0 1-2.32-.104L34.7 6.15Z"/>
  <path fill="#FDF6ED" d="M36.508 6.256c-.534-.633-.45-1.55.175-1.992C41.885.587 48.364.616 53.158 6.307c4.818 5.72 3.723 12.084-.79 16.583-.542.54-1.458.466-1.991-.166L36.507 6.258v-.002Z"/>
  <path fill="#F5A759" d="M40.153 3.846a12.59 12.59 0 0 0-2.606 1.18c-.506.163-.575 1.037-.124 1.573l2.424 2.884 2.425 2.884c.45.538 1.085.334 1.14-.366l.295-3.756L44 4.49c.055-.7-.51-1.371-1.017-1.208a12.58 12.58 0 0 0-2.833.566l.002-.002ZM53.597 19.81a12.688 12.688 0 0 1-1.605 2.367c-.247.471-1.12.39-1.574-.145l-2.428-2.88-2.43-2.88c-.452-.535-.144-1.126.555-1.06l3.751.348 3.752.347c.699.064 1.265.736 1.018 1.207a12.45 12.45 0 0 1-1.04 2.696Zm.858-8.818c.36 1.074.524 2.04.598 2.796.17.504-.492 1.08-1.194 1.035l-3.76-.241-3.761-.242c-.702-.043-.913-.676-.382-1.133l2.848-2.466 2.847-2.466c.531-.46 1.405-.402 1.575.102.403.653.863 1.53 1.229 2.617v-.002ZM48.84 4.388a12.556 12.556 0 0 1 2.374 1.599c.472.244.393 1.118-.14 1.573L48.2 9.998l-2.873 2.438c-.536.456-1.124.147-1.062-.55l.336-3.75.335-3.752c.063-.7.732-1.268 1.203-1.021a12.54 12.54 0 0 1 2.7 1.03v-.005Z"/>
</svg>
