<svg xmlns="http://www.w3.org/2000/svg" width="48" height="63" fill="none" viewBox="0 0 48 63">
  <path fill="#F8BB77" d="M4.711 26.771c.266-1.52-.024-1.427.072-5.682.077-3.5.116-5.25.42-6.9.298-1.614 1.136-6.158 4.956-9.544C11.124 3.79 14.551.978 19.466 1c1.314.006 2.689-.022 4.135.692 4.232 2.086 4.88 8.08 5.072 9.85.533 4.917-1.064 9.292-1.548 10.573-.934 2.48-1.831 3.622-2.172 6.355-.243 1.96.063 2.61.253 5.685.296 4.789.442 7.184-.434 9.17-1.783 4.043-6.374 5.511-7.547 5.887-1.126.36-5.972 1.91-10.388-.786-2.821-1.721-4.033-4.303-4.583-5.517-.39-.856-1.852-4.202-1.022-8.167C2.02 30.98 4 30.834 4.709 26.773l.002-.002Z"/>
  <mask id="a" width="29" height="49" x="0" y="1" maskUnits="userSpaceOnUse" style="mask-type:luminance">
    <path fill="#fff" d="M4.711 26.771c.266-1.52-.024-1.427.072-5.682.077-3.5.116-5.25.42-6.9.298-1.614 1.136-6.158 4.956-9.544C11.124 3.79 14.551.978 19.466 1c1.314.006 2.689-.022 4.135.692 4.232 2.086 4.88 8.08 5.072 9.85.533 4.917-1.064 9.292-1.548 10.573-.934 2.48-1.831 3.622-2.172 6.355-.243 1.96.063 2.61.253 5.685.296 4.789.442 7.184-.434 9.17-1.783 4.043-6.374 5.511-7.547 5.887-1.126.36-5.972 1.91-10.388-.786-2.821-1.721-4.033-4.303-4.583-5.517-.39-.856-1.852-4.202-1.022-8.167C2.02 30.98 4 30.834 4.709 26.773l.002-.002Z"/>
  </mask>
  <g mask="url(#a)">
    <path fill="#CC8255" d="M31.788 15.967a58.932 58.932 0 0 0-2.982-.842 38.223 38.223 0 0 1 2.4-6.217c.653-.106.961-.924.645-1.432.045-.828-1.13-1.397-1.652-.62a59.248 59.248 0 0 0-3.614-.671A64.798 64.798 0 0 1 29.079.033c.502-1.07-1.09-2.009-1.595-.932a67.205 67.205 0 0 0-2.741 6.831 59.714 59.714 0 0 0-3.013-.29 181.07 181.07 0 0 1 2.352-7.116c.398-1.122-1.387-1.605-1.78-.492a173.313 173.313 0 0 0-2.47 7.504 59.847 59.847 0 0 0-2.707-.04A145.88 145.88 0 0 1 21.273-5.12c.472-1.079-1.12-2.021-1.595-.932a149.454 149.454 0 0 0-4.501 11.595c-.947.04-1.89.1-2.833.184a154.83 154.83 0 0 1 2.604-7.014c.441-1.104-1.344-1.583-1.78-.492a154.325 154.325 0 0 0-2.848 7.72 58.707 58.707 0 0 0-7.646 1.463c-1.15.3-.663 2.082.491 1.78 2.15-.56 4.324-.993 6.513-1.299a154.79 154.79 0 0 0-1.701 5.62c-1.94.183-3.875.458-5.797.827-1.167.225-.673 2.005.492 1.781a58.42 58.42 0 0 1 4.779-.712 151.484 151.484 0 0 0-1.449 5.84c-.956.043-1.91.104-2.865.191-1.175.109-1.185 1.957 0 1.848a58.426 58.426 0 0 1 2.453-.169 159.66 159.66 0 0 0-1.244 6.431 79.132 79.132 0 0 0-3.337.178c-1.179.087-1.187 1.935 0 1.848a79.3 79.3 0 0 1 3.031-.17 156.07 156.07 0 0 0-.834 6.003 55.518 55.518 0 0 0-4.395.13c-1.18.082-1.19 1.93 0 1.849a54.176 54.176 0 0 1 4.185-.129 160.69 160.69 0 0 0-.494 5.501c-.856.22-1.117 1.585-.118 1.758a161.55 161.55 0 0 0-.147 2.788c-.05 1.19 1.797 1.188 1.848 0 .035-.828.078-1.654.127-2.482a53.88 53.88 0 0 1 3.102.667c-.135 3.327-.16 6.66-.071 9.988.03 1.187 1.878 1.191 1.848 0-.084-3.17-.06-6.339.063-9.503 1.07.304 2.131.643 3.182 1.014-.029.604-.058 1.206-.08 1.81-.043 1.189 1.805 1.187 1.848 0 .014-.376.033-.751.049-1.127.657.262 1.31.535 1.954.823 1.077.48 2.017-1.112.932-1.595a56.328 56.328 0 0 0-2.794-1.159c.128-2.372.304-4.742.528-7.106 1.43.328 2.85.716 4.253 1.16-.03.471-.064.943-.094 1.412-.078 1.187 1.77 1.183 1.848 0 .018-.267.037-.535.053-.802.237.084.473.165.71.253 1.115.414 1.599-1.37.491-1.78a44.035 44.035 0 0 0-1.073-.382 386.6 386.6 0 0 1 .594-7.767c1.112.21 2.221.445 3.327.706.012 3.288.15 6.574.3 9.819.055 1.183 1.902 1.19 1.847 0-.263-5.689-.518-11.539-.081-17.282.424.138.85.28 1.273.428 1.123.396 1.607-1.39.491-1.78a63.37 63.37 0 0 0-1.593-.537c.253-2.421.64-4.818 1.222-7.168.995.253 1.987.533 2.97.839 1.138.355 1.625-1.43.491-1.78h-.014ZM21.182 7.452c.993.063 1.986.15 2.976.265a83.341 83.341 0 0 0-1.665 6.147 63.583 63.583 0 0 0-2.982-.357A178.567 178.567 0 0 1 21.18 7.45l.002.002Zm-4.971.746c.092-.283.188-.565.282-.848.93-.019 1.858-.013 2.788.014a179.747 179.747 0 0 0-1.64 5.997 60.002 60.002 0 0 0-2.966-.117c.481-1.69.993-3.373 1.538-5.046h-.002Zm.973 6.978a176.224 176.224 0 0 0-1.442 6.433 61.496 61.496 0 0 0-3.12-.29 150 150 0 0 1 1.541-6.245c1.008.008 2.015.04 3.02.1v.002ZM11.69 7.643a58.109 58.109 0 0 1 2.852-.222c-.63 1.93-1.218 3.871-1.769 5.825-.948.014-1.895.053-2.841.11a155.16 155.16 0 0 1 1.758-5.713Zm-2.288 7.588c.954-.07 1.909-.116 2.863-.14a151.255 151.255 0 0 0-1.507 6.134 63.71 63.71 0 0 0-2.86-.036c.463-1.997.963-3.984 1.504-5.96v.002Zm4.579 16.44a177.469 177.469 0 0 0-.849 6.728 56.696 56.696 0 0 0-3.257-.522c.232-2.15.51-4.295.836-6.433a79.3 79.3 0 0 1 3.27.227Zm-6.5-8.622c.96-.018 1.919-.01 2.877.018a147.925 147.925 0 0 0-1.21 6.468 78.26 78.26 0 0 0-2.934-.026c.377-2.163.8-4.316 1.268-6.46H7.48Zm-1.58 8.31c.986-.013 1.97-.009 2.954.016-.318 2.09-.592 4.187-.822 6.29a56.4 56.4 0 0 0-2.99-.21c.247-2.038.53-4.071.859-6.098v.002ZM4.325 44.974c.137-1.895.304-3.787.508-5.674 1.007.04 2.01.112 3.012.21A141.8 141.8 0 0 0 7.55 43c-.064.87-.115 1.744-.162 2.615a51.684 51.684 0 0 0-3.065-.637l.002-.002Zm4.9 1.11c.11-2.125.262-4.247.464-6.364 1.091.143 2.176.318 3.257.528a183.3 183.3 0 0 0-.524 6.831 54.66 54.66 0 0 0-3.198-.995Zm5.031-16.244A78.78 78.78 0 0 0 11 29.608c.357-2.16.76-4.313 1.215-6.457a58.49 58.49 0 0 1 3.162.281c-.414 2.13-.786 4.265-1.122 6.409Zm4.887 10.056a56.585 56.585 0 0 0-4.198-1.124c.245-2.311.535-4.618.871-6.917 1.308.15 2.611.333 3.91.547a357.508 357.508 0 0 0-.583 7.494Zm.757-9.336a79.73 79.73 0 0 0-3.806-.53 176.05 176.05 0 0 1 1.117-6.358c1.143.17 2.279.371 3.41.606a174.481 174.481 0 0 0-.721 6.282Zm.98-8.122a60.67 60.67 0 0 0-3.308-.587 175.34 175.34 0 0 1 1.477-6.536c1.016.092 2.03.213 3.04.357a114.26 114.26 0 0 0-1.208 6.768v-.002Zm3.992 9.099a79.709 79.709 0 0 0-3.163-.659c.2-2.07.424-4.136.698-6.196.917.22 1.83.46 2.739.726a87.42 87.42 0 0 0-.274 6.127v.002Zm.453-7.997a62.968 62.968 0 0 0-2.662-.702c.34-2.31.739-4.606 1.222-6.882.89.155 1.777.332 2.66.528a54.724 54.724 0 0 0-1.22 7.053v.003Zm1.695-8.843a62.362 62.362 0 0 0-2.733-.544 80.327 80.327 0 0 1 1.7-6.195c1.117.168 2.23.366 3.34.6a40.44 40.44 0 0 0-2.307 6.14Z"/>
  </g>
  <path stroke="#333" stroke-miterlimit="10" stroke-width="1.428" d="M4.711 26.771c.266-1.52-.024-1.427.072-5.682.077-3.5.116-5.25.42-6.9.298-1.614 1.136-6.158 4.956-9.544C11.124 3.79 14.551.978 19.466 1c1.314.006 2.689-.022 4.135.692 4.232 2.086 4.88 8.08 5.072 9.85.533 4.917-1.064 9.292-1.548 10.573-.934 2.48-1.831 3.622-2.172 6.355-.243 1.96.063 2.61.253 5.685.296 4.789.442 7.184-.434 9.17-1.783 4.043-6.374 5.511-7.547 5.887-1.126.36-5.972 1.91-10.388-.786-2.821-1.721-4.033-4.303-4.583-5.517-.39-.856-1.852-4.202-1.022-8.167C2.02 30.98 4 30.834 4.709 26.773l.002-.002Z"/>
  <path fill="#CC8255" stroke="#333" stroke-miterlimit="10" stroke-width="1.428" d="M41.442 22.06a4.041 4.041 0 0 0-1.71-.518c-2.42-.182-3.969.397-4.903.913-5.026 2.772-8.63 12.614-9.346 14.572-.136.373-.5 1.395-1.45 1.915-1.042.57-2.105.157-2.896.08-3.31-.325-6.446 4.748-6.91 5.5-.553.896-4.174 6.752-1.34 12.216.5.963 2.263 3.967 5.963 4.979.284.077 4.178 1.077 7.325-1.05 1.811-1.226 4.301-4.114 5.546-6.937.216-.492.705-1.69 1.827-2.124.89-.344 1.697-.026 2.123.061 2.78.574 7.174-4.964 9.275-10.073 0 0 2.445-6.003 1.385-11.818-.23-1.265-.677-2.866-1.679-4.508-.626-1.024-1.566-2.266-3.206-3.208h-.004Z"/>
  <path fill="#7D5045" d="M30.248 48.85a8.065 8.065 0 0 0-.628-4.558 7.491 7.491 0 0 0-.19-.383c-.534-1.014-1.366-1.956-2.454-2.432-1.497-.656-3.161-.326-4.61.16-.85.285-1.684.621-2.424 1.089-1.304.82-2.275 2.01-3.225 3.181-.69.851-1.383 1.702-1.972 2.622-.653 1.017-1.19 2.145-1.243 3.381-.06 1.41.508 2.842 1.232 4.155.87 1.577 2.14 3.172 3.916 3.667.808.227 1.649.2 2.44.064 2.06-.353 3.861-1.422 5.274-2.799 1.04-1.014 1.887-2.188 2.625-3.428a7.47 7.47 0 0 0 .965-2.738l.294-1.98Z"/>
  <path fill="#7D5045" d="M44.169 28.897c-.339-1.171-.924-2.2-.924-2.2a8.06 8.06 0 0 0-.804-1.184c-.606-.73-1.405-1.33-2.331-1.536-1.087-.243-2.244.088-3.188.677a8.76 8.76 0 0 0-2.444 2.264c-3.106 4.29-4.379 5.269-5.356 6.882a8.862 8.862 0 0 0-.846 1.748s-.457 1.311-.471 2.831c-.023 2.242 1.4 9.464 5.976 10.3 2.019.37 3.804-.646 4.403-1.022 1.98-1.24 2.905-3.006 3.774-4.717 1.011-1.989 1.383-3.588 1.809-5.426.975-4.202.832-7.135.404-8.615l-.002-.002Z"/>
</svg>
