<svg xmlns="http://www.w3.org/2000/svg" width="63" height="72" fill="none" viewBox="0 0 63 72">
  <path fill="#66A9EB" d="M37.536 51.228a62.535 62.535 0 0 0 3.672 18.808h3.669c.234-3.1.792-6.602 1.248-8.42.661-2.637 1.039-3.057 1.309-3.053.186.002.596.207 1.266 3.185.383 1.708.753 5.417.89 8.491l3.903-.203a62.548 62.548 0 0 0 3.672-18.808c-.962-.97-3.572-3.336-7.636-3.972-6.613-1.035-11.395 3.398-11.993 3.972Z"/>
  <path fill="#A8D471" d="M61.67 50.975c-.642-9.915-.961-14.875-5-17.319-.757-.458-1.995-1.05-3.815-1.272H41.703c-1.82.221-3.058.814-3.815 1.272-4.036 2.444-4.357 7.402-5 17.32-.019.305-.068 1.056.412 1.521.62.603 1.774.672 2.518.106.082-.063.383-.319.63-.767.413-.751.372-1.495.332-1.831h.196c.282.409.697.728 1.203.882a31.624 31.624 0 0 0 18.392 0 2.255 2.255 0 0 0 1.205-.882c-.04.334-.08 1.078.332 1.831.247.448.548.705.63.767.744.566 1.898.497 2.519-.106.479-.465.43-1.216.41-1.522h.002Z"/>
  <path fill="#F3D2BA" d="M56.352 25.018c.003.816.074 4.207-2.23 6.394-1.404 1.332-3.581 2.142-6.83 2.142-3.247 0-5.423-.808-6.828-2.142-2.308-2.191-2.236-5.549-2.23-6.394 1.025-4.03 4.514-6.93 8.527-7.157 4.376-.246 8.45 2.741 9.588 7.157h.003Z"/>
  <path fill="#F3D2BA" d="M38.623 28.794c-.107.026-.24.043-.39.037-.813-.027-2.006-.741-2.006-2.005 0-1.1.906-2.006 2.005-2.006l.392 3.976v-.002Zm17.729-3.974a2.006 2.006 0 1 1-.378 3.976l.378-3.977v.001Z"/>
  <path fill="#7D5045" d="M57.353 17.178c-1.896-4.212-6.977-6.26-10.784-5.294a7.497 7.497 0 0 0-2.236.986l-.953.164a6.528 6.528 0 0 0-2.565.362c-2.864 1.026-3.988 3.792-4.209 4.34-1.426 3.516.239 6.775.507 7.28l1.237-.276a10.712 10.712 0 0 0 6.53-4.999l-.223-.798c.413 1.152 1.223 2.667 2.8 3.594 1.137.667 3.158 1.315 3.96.583.673.446 1.385.728 2.008.973.704.276 1.692.585 2.928.727l.918.038c.311-.736 1.665-4.162.082-7.678v-.002Z"/>
  <path fill="#A8D471" d="M43.121 67.827a3.329 3.329 0 0 1 3.328 3.328v.454h-6.655v-.454a3.329 3.329 0 0 1 3.328-3.328Zm8.343 0a3.33 3.33 0 0 1 3.328 3.328v.454h-6.656v-.454a3.33 3.33 0 0 1 3.328-3.328Z"/>
  <path fill="#F3D2BA" d="m59.2 57.035-.086 1.174c-.041.567.384 1.06.95 1.101.177-.006.48-.043.748-.247.321-.244.425-.602.484-.847.346-1.406.258-2.65.258-2.65a13.449 13.449 0 0 0-.462-2.656l-2.203.174-.36 2.853a.743.743 0 1 0 1.48.1l.009-1.368m-24.775 2.366.086 1.174a1.028 1.028 0 0 1-.951 1.101 1.305 1.305 0 0 1-.748-.247c-.32-.244-.424-.602-.483-.847-.346-1.406-.258-2.65-.258-2.65.047-.668.164-1.586.462-2.656l2.203.174.36 2.853a.743.743 0 1 1-1.48.1l-.01-1.368"/>
  <path fill="#F06061" d="M45.056 29.285c.069 1.143.895 2.057 1.885 2.205 1.2.182 2.467-.786 2.588-2.205h-4.473Z"/>
  <path fill="#F8BCBD" d="M47.293 31.62c.743 0 1.346-.274 1.346-.611 0-.337-.603-.61-1.346-.61-.744 0-1.346.273-1.346.61 0 .337.602.61 1.346.61Z"/>
  <path fill="#F3D2B9" d="M16.767 59.891a30.613 30.613 0 0 1 1.055 8.174l4.265-.064a46.127 46.127 0 0 0 1.663-9.562l-6.981 1.45-.002.002Zm-3.809 0a30.613 30.613 0 0 0-1.055 8.174l-4.265-.064a46.116 46.116 0 0 1-1.663-9.562l6.98 1.45.003.002Z"/>
  <path fill="#7D5045" d="M1.9 31.676a27.597 27.597 0 0 1-.682-2.424c-1.367-5.88-.23-10.718.433-15.357.062-.436.52-3.47 2.164-7 1.46-3.13 2.672-4.119 3.817-4.594.988-.411 1.915-.436 2.526-.4l1.101-.181A7.634 7.634 0 0 1 13.586.632c3.308-.898 6.268.832 7.288 1.51.027.018.146.098.287.198 4.019 2.868 5.508 8.898 6.142 11.592.708 3.004.867 5.271.953 6.664.254 4.144-.241 6.322-.392 6.944a18.287 18.287 0 0 1-.921 2.792C17.164 36.65 7.86 38.457 3.762 34.668c-.706-.654-1.39-1.593-1.859-2.994l-.004.002Z"/>
  <path fill="#F8BCBD" d="M5.53 40.815c-2.058-4.394-2.394-8.082-2.4-10.274-.01-3.656.89-4.957 1.446-5.578 1.303-1.453 3.1-1.831 3.997-1.948l11.94.025c.89.141 2.607.552 3.998 1.949.368.37 1.632 1.733 2.05 5.365.491 4.267-.612 7.994-1.694 10.518a43.558 43.558 0 0 1 2.027 6.378c.227.967.049.358.624 3.246.71 3.567 1.037 4.762.32 5.64-.16.198-.312.304-1.422.814-1.944.895-2.917 1.34-4.03 1.699-1.232.397-3.938 1.242-7.51 1.193-2.073-.03-3.632-.348-5.006-.628-.878-.18-2.127-.561-4.625-1.322-2.923-.893-4.02-1.284-4.253-2.203-.07-.274-.034-.6.048-1.237a15.01 15.01 0 0 1 .717-3.066c1.013-2.807.647-3.207 1.755-6.186a32.289 32.289 0 0 1 2.02-4.385h-.001Z"/>
  <path fill="#F3D2B9" d="M24.247 14.455c.004.94.078 4.858-2.356 7.386-1.483 1.54-3.782 2.473-7.212 2.473-3.43 0-5.728-.936-7.211-2.473-2.438-2.53-2.362-6.41-2.356-7.386C4.67 8.79 9.152 3.96 14.534 3.88c5.487-.082 10.16 4.8 9.713 10.575Z"/>
  <path fill="#7D5045" d="M4.934 14.138c.969-.274 2.59-.87 4.228-2.238a12.258 12.258 0 0 0 2.89-3.538l-.632-2.389c.201 1.033.925 4.054 3.44 5.62 1.285.8 3.607 1.572 4.408.573.553-.693.217-2.027-.25-2.812-.621-1.039-1.856-1.731-2.206-1.42-.376.33.194 1.876.941 2.927 1.031 1.451 2.462 2.046 3.612 2.525.769.32 1.845.676 3.191.842.45-5.983-4.41-10.996-10.021-10.875-5.43.116-9.99 5-9.6 10.785Z"/>
  <path fill="#F3D2B9" d="M5.73 18.818a1.64 1.64 0 0 1-.45.043c-.937-.033-2.318-.857-2.316-2.317a2.329 2.329 0 0 1 2.316-2.316m19.043 0a2.316 2.316 0 1 1-.436 4.592"/>
  <path fill="#F5A759" stroke="#333" stroke-linecap="round" stroke-linejoin="round" stroke-width=".569" d="M6.472 7.607c-.045.329.368.507.579.252 1.057-1.27 3.2-3.251 6.498-3.568 4.192-.403 7.084 2.193 8.176 3.384a.33.33 0 0 0 .57-.182l.029-.236a.315.315 0 0 0-.045-.21c-1.836-3.062-5.23-4.809-8.68-4.46-4.56.461-6.79 4.341-7.092 4.908a.359.359 0 0 0-.035.11v.002Z"/>
  <path fill="#F5A759" d="M9.923 67.67a3.466 3.466 0 0 1 3.465 3.465v.474h-6.93v-.474a3.466 3.466 0 0 1 3.465-3.465Zm13.344 3.94h-6.93v-.473a3.467 3.467 0 0 1 3.465-3.465 3.466 3.466 0 0 1 3.465 3.465v.474Z"/>
  <path stroke="#F06061" stroke-linejoin="bevel" stroke-width="4.696" d="M6.857 37.955a24.613 24.613 0 0 0 7.474 1.35 24.622 24.622 0 0 0 8.756-1.4"/>
  <path stroke="#333" stroke-linecap="round" stroke-linejoin="round" stroke-width=".757" d="M24.247 14.455c.004.94.078 4.858-2.356 7.386-1.483 1.54-3.782 2.473-7.212 2.473-3.43 0-5.728-.936-7.211-2.473-2.438-2.53-2.362-6.41-2.356-7.386"/>
  <path stroke="#333" stroke-linecap="round" stroke-linejoin="round" stroke-width=".757" d="M12.095 19.91c.172.16 1.377 1.25 3.076 1.025a3.748 3.748 0 0 0 2.09-1.025M11.42 5.973c.201 1.033.925 4.054 3.44 5.62 1.285.8 3.607 1.572 4.407.573.554-.693.218-2.027-.25-2.812-.62-1.039-1.855-1.731-2.205-1.42-.376.33.194 1.876.941 2.927 1.031 1.451 2.462 2.046 3.612 2.525.769.32 1.845.676 3.191.842"/>
  <path stroke="#333" stroke-linecap="round" stroke-linejoin="round" stroke-width=".757" d="M12.05 8.362A12.226 12.226 0 0 1 9.16 11.9a11.468 11.468 0 0 1-4.228 2.238m.798 4.68a1.64 1.64 0 0 1-.45.043c-.937-.033-2.318-.857-2.316-2.317a2.329 2.329 0 0 1 2.316-2.316m19.043 0a2.316 2.316 0 1 1-.436 4.592"/>
  <path stroke="#333" stroke-linecap="round" stroke-linejoin="round" stroke-width=".757" d="M11.258 1.72A7.635 7.635 0 0 1 13.584.632c3.308-.898 6.269.832 7.288 1.51.027.018.147.098.288.198 4.018 2.868 5.507 8.898 6.141 11.592.708 3.004.867 5.271.953 6.664.23 3.773-.159 5.915-.345 6.739-.023.1-.044.195-.048.205-.386 1.595-.877 2.747-1.243 3.485M3.574 35.174A18.685 18.685 0 0 1 1.9 31.676s-.385-1.152-.68-2.424c-1.368-5.88-.231-10.718.432-15.357.062-.436.52-3.47 2.164-7 1.46-3.13 2.672-4.119 3.817-4.594.988-.41 1.915-.436 2.526-.4"/>
  <path stroke="#333" stroke-linecap="round" stroke-linejoin="round" stroke-width=".513" d="M17.317 14.373a1.999 1.999 0 0 1 1.119-.484c.7-.064 1.201.27 1.332.364m-7.728.12a1.999 1.999 0 0 0-1.119-.484c-.7-.064-1.201.27-1.332.364"/>
  <path fill="#333" d="M10.647 19.021a1.172 1.172 0 0 1-1.172-1.172v-1.308a1.172 1.172 0 1 1 2.344 0v1.308c0 .648-.524 1.172-1.172 1.172Z"/>
  <path stroke="#333" stroke-linecap="round" stroke-linejoin="round" stroke-width=".513" d="M8.732 15.895a.94.94 0 0 0 .5.438c.26.094.486.04.566.016m-.323-.832a.94.94 0 0 0 .501.439.92.92 0 0 0 .566.015"/>
  <path fill="#333" d="M18.71 19.021c.647 0 1.172-.524 1.172-1.172v-1.308a1.172 1.172 0 1 0-2.344 0v1.308c0 .648.524 1.172 1.172 1.172Z"/>
  <path stroke="#333" stroke-linecap="round" stroke-linejoin="round" stroke-width=".513" d="M20.625 15.895a.94.94 0 0 1-.5.438.916.916 0 0 1-.566.016m.323-.832a.94.94 0 0 1-.501.439.917.917 0 0 1-.566.015"/>
  <path stroke="#333" stroke-linecap="round" stroke-linejoin="round" stroke-width=".757" d="M7.608 34.492c-.06.628-.201 1.69-.583 2.948-.641 2.113-1.586 3.532-1.823 3.907-.988 1.561-2.438 5.132-4.387 14.128 1.798 1.239 6.87 4.383 14.064 4.371 6.764-.012 11.594-2.808 13.449-4.015M7.108 28.992c-.155.195-1.051 1.375-.793 2.995.302 1.896 1.923 2.755 2.094 2.841"/>
  <path stroke="#333" stroke-linecap="round" stroke-linejoin="round" stroke-width=".757" d="M22.359 33.627c-.042 1 .027 2.443.622 4.01.536 1.415 1.271 2.325 1.442 2.55 1.15 1.5 2.543 5.486 3.903 15.642"/>
  <path stroke="#333" stroke-linecap="round" stroke-linejoin="round" stroke-width=".757" d="M22.263 28.992c.154.195 1.05 1.375.792 2.995-.301 1.896-1.923 2.755-2.093 2.841"/>
  <path stroke="#333" stroke-linecap="round" stroke-linejoin="round" stroke-width=".757" d="M20.512 23.04c.935.153 2.623.58 3.997 1.949 1.724 1.72 1.935 3.915 2.107 6.036.329 4.024-.704 7.462-1.751 9.845M8.573 23.015c-.927.127-2.704.518-3.997 1.948-.372.413-1.54 1.836-1.44 6.19.05 2.145.423 5.663 2.291 9.832m.548 17.456a45.703 45.703 0 0 0 1.663 9.561m4.263.064a30.412 30.412 0 0 1 1.055-8.175M9.921 67.67a3.467 3.467 0 0 1 3.465 3.465v.474h-6.93v-.474a3.466 3.466 0 0 1 3.465-3.465Zm13.827-9.229a45.703 45.703 0 0 1-1.663 9.561m-4.265.064a30.412 30.412 0 0 0-1.055-8.175m6.5 11.719h-6.93v-.473a3.467 3.467 0 0 1 3.465-3.465 3.466 3.466 0 0 1 3.465 3.465v.474Z"/>
  <path stroke="#333" stroke-linecap="round" stroke-linejoin="round" stroke-width=".783" d="M52.857 32.459c1.82.22 3.058.813 3.815 1.271 4.037 2.444 4.358 7.402 5 17.32.019.305.068 1.056-.412 1.522-.62.602-1.774.67-2.518.105a2.559 2.559 0 0 1-.63-.767c-.412-.75-.371-1.494-.332-1.83"/>
  <path stroke="#333" stroke-linecap="round" stroke-linejoin="round" stroke-width=".783" d="M56.424 25.075c.004.814.074 4.2-2.227 6.386-1.402 1.33-3.576 2.138-6.82 2.138s-5.418-.808-6.82-2.138c-2.305-2.188-2.235-5.543-2.227-6.386"/>
  <path stroke="#333" stroke-linecap="round" stroke-linejoin="round" stroke-width=".783" d="M45.145 29.336c.068 1.14.892 2.052 1.882 2.203 1.2.182 2.465-.785 2.586-2.203h-4.468Zm-.757-11.596c.183.894.849 3.504 3.151 4.858 1.178.692 3.307 1.361 4.04.495.507-.599.2-1.753-.228-2.43-.57-.898-1.7-1.497-2.021-1.229-.345.286.178 1.622.863 2.532.945 1.256 2.255 1.77 3.31 2.183.704.276 1.69.583 2.925.726"/>
  <path stroke="#333" stroke-linecap="round" stroke-linejoin="round" stroke-width=".783" d="M44.966 19.804a10.714 10.714 0 0 1-2.647 3.058 10.757 10.757 0 0 1-3.876 1.935m.277 4.05a1.449 1.449 0 0 1-.39.037c-.81-.027-2.004-.741-2.004-2.003 0-1.1.904-2.004 2.004-2.004m18.096 0a2.004 2.004 0 1 1-.378 3.972M44.419 12.942a7.541 7.541 0 0 1 2.232-.986c3.804-.964 8.877 1.082 10.773 5.289 1.58 3.512.229 6.934-.082 7.67m-20.135.16c-.268-.503-1.93-3.759-.505-7.27.221-.549 1.344-3.311 4.205-4.336a6.548 6.548 0 0 1 2.56-.362M54.706 38.08a39.894 39.894 0 0 1 3.436 10.287 2.267 2.267 0 0 1-1.57 2.595 31.626 31.626 0 0 1-18.39 0 2.268 2.268 0 0 1-1.568-2.595A40.055 40.055 0 0 1 40.05 38.08"/>
  <path stroke="#333" stroke-linecap="round" stroke-linejoin="round" stroke-width=".783" d="M37.647 50.719a61.123 61.123 0 0 0 3.201 18.02m16.595-18.202a70.927 70.927 0 0 1-1.375 10.553 70.366 70.366 0 0 1-2.049 7.662m-8.908-.325c.276-2.63.722-5.292 1.1-6.799.661-2.635 1.037-3.054 1.307-3.05.186.002.597.208 1.264 3.182.309 1.379.61 4.06.786 6.658"/>
  <path stroke="#333" stroke-linecap="round" stroke-linejoin="round" stroke-width=".783" d="M43.212 67.83a3.325 3.325 0 0 1 3.324 3.325v.454h-6.648v-.454a3.325 3.325 0 0 1 3.324-3.324Zm8.332 0a3.325 3.325 0 0 1 3.325 3.325v.454H48.22v-.454a3.325 3.325 0 0 1 3.324-3.324Zm7.418-14.724-.36 2.849a.74.74 0 1 0 1.475.098l.01-1.366"/>
  <path stroke="#333" stroke-linecap="round" stroke-linejoin="round" stroke-width=".783" d="m59.27 57.052-.085 1.174a1.028 1.028 0 0 0 .95 1.1 1.31 1.31 0 0 0 .748-.247c.32-.245.422-.603.483-.847.346-1.405.258-2.647.258-2.647a13.51 13.51 0 0 0-.46-2.651m-8.307-20.475c1.82.22 3.058.813 3.815 1.271 4.037 2.444 4.358 7.402 5 17.32.019.305.068 1.056-.412 1.522-.62.602-1.774.67-2.518.105a2.559 2.559 0 0 1-.63-.767c-.412-.75-.371-1.494-.332-1.83"/>
  <path stroke="#333" stroke-linecap="round" stroke-linejoin="round" stroke-width=".783" d="m58.962 53.106-.36 2.849a.74.74 0 1 0 1.475.098l.01-1.366"/>
  <path stroke="#333" stroke-linecap="round" stroke-linejoin="round" stroke-width=".783" d="m59.27 57.052-.085 1.174a1.028 1.028 0 0 0 .95 1.1 1.31 1.31 0 0 0 .748-.247c.32-.245.422-.603.483-.847.346-1.405.258-2.647.258-2.647a13.51 13.51 0 0 0-.46-2.651M41.703 32.459c-1.82.22-3.058.813-3.815 1.271-4.036 2.444-4.357 7.402-5 17.32-.019.305-.068 1.056.412 1.522.62.602 1.774.67 2.518.105.082-.062.383-.319.63-.767.413-.75.372-1.494.332-1.83m-1.181 3.026c.119.949.238 1.9.36 2.849a.74.74 0 1 1-1.475.098l-.01-1.366"/>
  <path stroke="#333" stroke-linecap="round" stroke-linejoin="round" stroke-width=".783" d="m35.291 57.052.087 1.174a1.028 1.028 0 0 1-.951 1.1 1.304 1.304 0 0 1-.748-.247c-.32-.245-.422-.603-.483-.847-.346-1.405-.258-2.647-.258-2.647a13.47 13.47 0 0 1 .46-2.651"/>
  <path fill="#333" d="M51.008 28.505a1.055 1.055 0 0 1-1.054-1.055v-1.18a1.055 1.055 0 0 1 2.109 0v1.18c0 .583-.474 1.055-1.055 1.055Zm-7.262 0a1.055 1.055 0 0 1-1.055-1.055v-1.18a1.055 1.055 0 0 1 2.11 0v1.18c0 .583-.474 1.055-1.055 1.055Z"/>
  <path stroke="#333" stroke-linecap="round" stroke-linejoin="round" stroke-width=".587" d="M49.754 24.672a1.81 1.81 0 0 1 1.008-.437 1.816 1.816 0 0 1 1.201.327m-6.963.11a1.808 1.808 0 0 0-1.008-.437 1.816 1.816 0 0 0-1.201.327"/>
</svg>
