<svg xmlns="http://www.w3.org/2000/svg" width="40" height="84" fill="none" viewBox="0 0 40 84">
  <path fill="#F3D2B9" d="M38.836 59.801a18.22 18.22 0 0 0-.621-3.574l-.28.458c-.312-.764-.8-1.255-1.347-1.255-.547 0-1.011.468-1.324 1.198l-.013-.166c-.71 1.83-.612 3.14-.484 3.84.128.693.312.928.52 1.006a.58.58 0 0 0 .309.02.933.933 0 0 0 .04.057l.031.393-.115 1.58a1.383 1.383 0 0 0 1.28 1.481c.239-.008.646-.058 1.007-.333.432-.33.57-.813.653-1.14.465-1.893.346-3.567.346-3.567l-.002.002Z"/>
  <path fill="#66A9EB" d="M6.348 54.02a90.89 90.89 0 0 0 1.557 14.676 90.314 90.314 0 0 0 2.753 10.826l5.746-.44c.312-2.36.787-5.664 1.483-9.622.997-5.674 1.393-6.685 1.763-6.683.655.002 1.148 3.183 1.704 6.87a123.9 123.9 0 0 1 1.06 9.422l5.997.472a103.88 103.88 0 0 0 2.76-10.845 104.616 104.616 0 0 0 1.852-14.934L6.35 54.02h-.002Z"/>
  <path fill="#C39C76" d="M5.678 52.517c.053.451.11 1.452-.447 2.466a3.405 3.405 0 0 1-.85 1.033c-1.003.761-2.555.669-3.393-.143-.646-.626-.579-1.64-.554-2.05C1.3 40.462 1.73 33.78 7.168 30.488c1.02-.617 2.69-1.416 5.141-1.714h14.748c2.451.298 4.121 1.095 5.141 1.714 5.44 3.293 5.872 9.974 6.734 23.335.027.41.095 1.424-.554 2.05-.837.81-2.39.904-3.393.143a3.406 3.406 0 0 1-.85-1.033c-.558-1.014-.501-2.014-.447-2.466-.739 1.21-2.031 2.923-4.153 4.145-.696.4-2.442 1.3-9.751 1.286-7.559-.015-9.38-.984-10.072-1.393-2.082-1.228-3.34-2.909-4.036-4.038h.002Z"/>
  <path fill="#F3D2B9" d="M32.053 18.79c.007 1.111.101 5.743-3.044 8.73-1.916 1.82-4.89 2.926-9.324 2.926s-7.407-1.104-9.323-2.925c-3.152-2.992-3.053-7.578-3.045-8.732C7.29 11.99 12.721 6.402 19.28 6.19c6.854-.222 12.794 5.488 12.773 12.6Z"/>
  <path fill="#F3D2B9" d="M7.848 23.947a2.1 2.1 0 0 1-.533.053c-1.108-.038-2.74-1.014-2.74-2.74a2.755 2.755 0 0 1 2.74-2.741m24.741.001a2.741 2.741 0 1 1-.517 5.434"/>
  <path fill="#ABA8A8" d="M7.313 18.52c1.964-1.22 2.854-2.545 3.297-3.566.68-1.566.493-2.823 1.362-3.272.774-.4 1.494.306 3.003.856 3.179 1.16 7.111.655 9.659-.371 1.361-.55 2-1.085 2.6-.743 1.126.642.025 3.183 1.355 5.143.833 1.228 2.281 1.73 3.462 1.956l1.255.05c.424-1.005 2.275-5.682.112-10.484C30.832 2.336 23.895-.46 18.695.86c-1.288.327-2.31.866-3.053 1.347l-1.303.224a8.965 8.965 0 0 0-3.503.493c-3.911 1.4-5.443 5.18-5.747 5.926-1.948 4.801.325 9.252.69 9.94"/>
  <path fill="#A8D471" d="M13.793 78.49a4.482 4.482 0 0 1 4.48 4.48v.61H9.315v-.61a4.482 4.482 0 0 1 4.48-4.48h-.002Zm11.229 0a4.482 4.482 0 0 1 4.48 4.48v.61h-8.958v-.61a4.482 4.482 0 0 1 4.48-4.48h-.002Z"/>
  <path fill="#F3D2B9" d="m3.67 61.912.116 1.58a1.383 1.383 0 0 1-1.28 1.482c-.237-.009-.647-.06-1.008-.334-.432-.33-.57-.812-.652-1.14C.38 61.609.5 59.934.5 59.934c.065-.898.22-2.132.62-3.573l2.966.235.485 3.84a1 1 0 1 1-1.99.132l-.012-1.84"/>
  <path stroke="#333" stroke-linecap="round" stroke-linejoin="round" stroke-width=".848" d="M32.053 18.678c.007 1.112.101 5.744-3.044 8.732-1.916 1.82-4.89 2.925-9.324 2.925s-7.407-1.104-9.323-2.925c-3.152-2.993-3.053-7.578-3.045-8.732"/>
  <path fill="#333" d="M24.45 23.419a1.385 1.385 0 0 1-1.384-1.385v-1.55a1.385 1.385 0 0 1 2.77 0v1.55c0 .763-.62 1.385-1.385 1.385Zm-9.53 0a1.385 1.385 0 0 1-1.385-1.385v-1.55a1.385 1.385 0 0 1 2.77 0v1.55c0 .763-.62 1.385-1.385 1.385Z"/>
  <path fill="#807D7C" d="M25.895 18.066h-2.89a.424.424 0 0 1 0-.848h2.89a.424.424 0 0 1 0 .848Zm-9.531 0h-2.89a.424.424 0 0 1 0-.848h2.89a.424.424 0 0 1 0 .848Z"/>
  <path stroke="#333" stroke-linecap="round" stroke-linejoin="round" stroke-width=".848" d="M7.848 23.836a2.104 2.104 0 0 1-.533.053c-1.108-.038-2.74-1.014-2.74-2.74a2.755 2.755 0 0 1 2.74-2.742m24.741.003a2.741 2.741 0 1 1-.517 5.432M15.642 2.094A10.27 10.27 0 0 1 18.695.747c5.2-1.32 12.137 1.477 14.727 7.23 2.16 4.8.312 9.478-.112 10.483m-27.529.218c-.365-.688-2.638-5.139-.69-9.94.304-.75 1.836-4.526 5.747-5.926a8.886 8.886 0 0 1 3.503-.493"/>
  <path stroke="#333" stroke-linecap="round" stroke-linejoin="round" stroke-width=".848" d="M7.313 18.41c1.964-1.222 2.854-2.546 3.297-3.568.68-1.565.493-2.822 1.362-3.271.774-.4 1.494.306 3.002.856 3.18 1.16 7.112.655 9.66-.371 1.361-.55 2-1.085 2.6-.743 1.126.642.024 3.183 1.355 5.143.833 1.228 2.28 1.73 3.462 1.956"/>
  <path stroke="#C39C76" stroke-linecap="round" stroke-linejoin="round" stroke-width=".485" d="m27.158 21.043.877-.3m-.816 1.033.858.13m-15.864-.863-.877-.3m.814 1.033-.859.13"/>
  <path stroke="#C39C76" stroke-linecap="round" stroke-linejoin="round" stroke-width=".243" d="M22.791 23.146a4.202 4.202 0 0 0 1.838 1.481m-8.049-1.481a4.202 4.202 0 0 1-1.838 1.481"/>
  <path fill="#807D7C" d="M24.277 27a17.56 17.56 0 0 0-4.543-.608 17.578 17.578 0 0 0-4.642.609c-.13-.068-.229-.143-.229-.23a2.404 2.404 0 0 1 2.403-2.402h4.839a2.404 2.404 0 0 1 2.403 2.403.23.23 0 0 1-.23.229h-.001Z"/>
  <path stroke="#333" stroke-linecap="round" stroke-linejoin="round" stroke-width=".86" d="M6.348 54.02a90.89 90.89 0 0 0 1.557 14.676 90.33 90.33 0 0 0 2.753 10.826M33.02 53.76a104.92 104.92 0 0 1-1.852 14.934 103.98 103.98 0 0 1-2.76 10.845m-12.005-.459c.313-2.36.787-5.664 1.484-9.622.997-5.674 1.393-6.686 1.763-6.683.654.002 1.147 3.183 1.704 6.87a123.89 123.89 0 0 1 1.06 9.422"/>
  <path stroke="#333" stroke-linecap="round" stroke-linejoin="round" stroke-width=".839" d="M13.843 78.49a4.482 4.482 0 0 1 4.48 4.48v.61H9.365v-.61a4.482 4.482 0 0 1 4.48-4.48h-.002Zm11.229 0a4.482 4.482 0 0 1 4.48 4.48v.61h-8.958v-.61a4.482 4.482 0 0 1 4.48-4.48h-.002Zm4.522-42.141a107.52 107.52 0 0 1 1.954 4.455c2.885 7.007 2.816 8.935 2.526 10.282-.109.504-.453 2.023-1.593 3.45-2.68 3.353-7.468 3.322-12.859 3.286-5.525-.036-10.14-.067-12.716-3.357-1.345-1.719-1.612-3.66-1.687-4.254-.195-1.553.031-3.135 2.675-9.407.78-1.853 1.463-3.38 1.954-4.455"/>
  <path stroke="#333" stroke-linecap="round" stroke-linejoin="round" stroke-width=".839" d="M27.06 28.776c2.45.298 4.12 1.095 5.14 1.714 5.44 3.293 5.872 9.974 6.734 23.335.028.411.095 1.424-.554 2.05-.837.81-2.39.904-3.393.142a3.405 3.405 0 0 1-.85-1.032c-.558-1.013-.501-2.014-.447-2.466m1.595 4.078-.485 3.84a1 1 0 1 0 1.99.132l.012-1.84"/>
  <path stroke="#333" stroke-linecap="round" stroke-linejoin="round" stroke-width=".839" d="m35.698 61.912-.115 1.58a1.383 1.383 0 0 0 1.28 1.482c.237-.009.646-.06 1.007-.334.433-.33.571-.812.653-1.14.466-1.892.346-3.567.346-3.567a18.22 18.22 0 0 0-.621-3.573M12.312 28.776C9.86 29.074 8.19 29.87 7.17 30.49 1.731 33.783 1.3 40.464.437 53.825c-.028.411-.095 1.424.554 2.05.837.81 2.39.904 3.393.142.11-.083.518-.428.85-1.032.558-1.013.501-2.014.447-2.466m-1.595 4.078.484 3.84a1 1 0 1 1-1.99.132l-.012-1.84"/>
  <path stroke="#333" stroke-linecap="round" stroke-linejoin="round" stroke-width=".839" d="m3.67 61.912.115 1.58a1.383 1.383 0 0 1-1.28 1.482c-.237-.009-.646-.06-1.007-.334-.432-.33-.57-.812-.652-1.14-.466-1.892-.347-3.567-.347-3.567.065-.898.22-2.132.621-3.573"/>
</svg>
