<svg xmlns="http://www.w3.org/2000/svg" width="56" height="43" fill="none" viewBox="0 0 56 43">
  <path fill="#F5A759" stroke="#333" stroke-linecap="round" stroke-linejoin="round" stroke-width="1.261" d="M12.251 4.531h-4.55c-.644 0-1.166.522-1.166 1.165v3.742c0 .644.522 1.166 1.165 1.166h4.551c.644 0 1.165-.522 1.165-1.166V5.696c0-.643-.521-1.165-1.165-1.165Zm28.317 7.686H19.217c-2.466 0-4.104-2.253-3.15-4.254.038-.079.076-.158.108-.239l1.956-4.812c.52-1.279 1.71-2.199 3.09-2.276.072-.004.146-.006.22-.006h16.903c.074 0 .146.002.22.006 1.38.079 2.57.997 3.09 2.276l1.956 4.812c.032.081.072.16.108.24.956 2-.685 4.253-3.15 4.253Z"/>
  <path fill="#FDF6ED" d="M52.265 7.567H4.525a2.982 2.982 0 0 0-2.982 2.983v28.176a2.982 2.982 0 0 0 2.982 2.983h47.74a2.982 2.982 0 0 0 2.982-2.983V10.55a2.982 2.982 0 0 0-2.982-2.983Z"/>
  <mask id="a" width="55" height="35" x="1" y="7" maskUnits="userSpaceOnUse" style="mask-type:luminance">
    <path fill="#fff" d="M52.265 7.567H4.525a2.982 2.982 0 0 0-2.982 2.983v28.176a2.982 2.982 0 0 0 2.982 2.983h47.74a2.982 2.982 0 0 0 2.982-2.983V10.55a2.982 2.982 0 0 0-2.982-2.983Z"/>
  </mask>
  <g mask="url(#a)">
    <path fill="#F5A759" stroke="#333" stroke-linecap="round" stroke-linejoin="round" stroke-width="1.261" d="M55.247 14.333H1.543v20.611h53.704v-20.61Z"/>
  </g>
  <path stroke="#333" stroke-linecap="round" stroke-linejoin="round" stroke-width="1.261" d="M52.265 7.567H4.525a2.982 2.982 0 0 0-2.982 2.983v28.176a2.982 2.982 0 0 0 2.982 2.983h47.74a2.982 2.982 0 0 0 2.982-2.983V10.55a2.982 2.982 0 0 0-2.982-2.983Z"/>
  <path fill="#FDF6ED" stroke="#333" stroke-linecap="round" stroke-linejoin="round" stroke-width="1.352" d="M33.386 37.9c7.325 0 13.262-5.938 13.262-13.262 0-7.324-5.937-13.262-13.262-13.262-7.324 0-13.262 5.938-13.262 13.262 0 7.324 5.938 13.262 13.262 13.262Z"/>
  <path fill="#333" d="M33.386 34.404c5.394 0 9.766-4.372 9.766-9.766s-4.372-9.766-9.766-9.766-9.766 4.372-9.766 9.766 4.372 9.766 9.766 9.766Z"/>
  <path stroke="#fff" stroke-linecap="round" stroke-linejoin="round" stroke-width="1.801" d="M34.278 17.494a6.253 6.253 0 0 1 6.252 6.253m-1.619 6.258a6.224 6.224 0 0 0 1.58-3.498"/>
  <path fill="#333" d="M36.45 2.56H22.844a.578.578 0 0 0-.578.579v1.94c0 .319.26.578.578.578H36.45a.58.58 0 0 0 .579-.578v-1.94a.578.578 0 0 0-.579-.578Z"/>
  <path fill="#FDF6ED" stroke="#333" stroke-linecap="round" stroke-linejoin="round" stroke-width="1.261" d="M9.976 16.77a2.437 2.437 0 1 0 0-4.873 2.437 2.437 0 0 0 0 4.873Z"/>
</svg>
