<svg xmlns="http://www.w3.org/2000/svg" width="69" height="77" fill="none" viewBox="0 0 69 77">
  <path fill="#A8D471" d="M.896 75.478c1.212-8.43 3.75-14.683 5.745-18.682 1.913-3.837 3.517-5.975 5.895-7.755 3.728-2.79 7.85-3.575 10.17-3.837h23.48c2.321.262 6.443 1.047 10.172 3.837 2.377 1.779 3.981 3.918 5.895 7.755 1.996 3.999 4.533 10.251 5.745 18.682"/>
  <path fill="#F3D2BA" d="M29.98 61.392a6.704 6.704 0 0 0-1.365-1.79c.183-.337.356-.717.513-1.16.344-.963.74-2.687.647-4.33.08-1.57-.185-3.22-1.264-4.218-1.465-1.351-4.428-1.25-5.814.137-1.081 1.083-1.385 2.459-1.28 3.943-.069.943.075 1.952.332 2.976-2.003-.062-3.934.409-5.281 1.471-2.102 1.657-2.477 4.497-2.022 6.563.86 3.901 4.792 5.517 5.167 5.663l7.91.055c2.959-2.655 3.945-6.416 2.455-9.308l.002-.002ZM53.834 29.38c.01 1.745.16 9.003-4.772 13.684-3.004 2.852-7.662 4.584-14.612 4.584s-11.608-1.732-14.613-4.584c-4.939-4.689-4.785-11.876-4.772-13.683 2.193-8.627 9.662-14.833 18.25-15.316 9.367-.526 18.087 5.867 20.523 15.316h-.004Z"/>
  <path fill="#F3D2BA" d="M15.896 37.465c-.23.053-.514.093-.837.082-1.735-.061-4.293-1.589-4.293-4.293 0-2.355 1.939-4.293 4.293-4.293l.837 8.506v-.002Zm37.94-8.506a4.293 4.293 0 1 1-.807 8.51l.807-8.512v.002Z"/>
  <path fill="#7D5045" d="M55.978 12.605C51.918 3.594 41.046-.79 32.895 1.277a16.014 16.014 0 0 0-4.785 2.111l-2.041.352c-1.271-.07-3.267-.021-5.489.773-6.128 2.193-8.53 8.117-9.008 9.29-3.052 7.523.51 14.5 1.084 15.58l2.647-.59a23.009 23.009 0 0 0 8.305-4.146 23.014 23.014 0 0 0 5.674-6.553l-.478-1.707c.883 2.465 2.617 5.71 5.994 7.691 2.434 1.43 6.76 2.813 8.476 1.245 1.44.954 2.964 1.557 4.297 2.08a24.934 24.934 0 0 0 6.267 1.556l1.965.08c.665-1.576 3.565-8.908.177-16.432l-.002-.002Z"/>
  <path fill="#F06061" d="M25.478 60.622a2.103 2.103 0 0 1-1.694-1.09c-.252-.468-.517-.985-.629-1.358-.513-1.687-.71-3.38.468-4.56.925-.928 2.91-.997 3.89-.092 1.327 1.224.817 3.919.414 5.05-.154.433-.33.777-.515 1.071a2.103 2.103 0 0 1-1.934.983v-.004Z" opacity=".26"/>
  <path stroke="#333" stroke-linecap="round" stroke-linejoin="round" stroke-width="1.33" d="M46.189 45.206c2.32.262 6.442 1.047 10.17 3.837 2.378 1.778 3.982 3.918 5.896 7.755C64.25 60.797 66.788 67.05 68 75.48M22.709 45.206c-2.32.262-6.443 1.047-10.171 3.837-2.378 1.778-3.982 3.918-5.896 7.755C4.647 60.797 2.11 67.05.897 75.48"/>
  <path stroke="#333" stroke-linecap="round" stroke-linejoin="round" stroke-width="1.33" d="M53.834 29.38c.01 1.745.16 9.003-4.772 13.684-3.004 2.852-7.662 4.584-14.612 4.584s-11.608-1.732-14.613-4.584c-4.939-4.689-4.785-11.876-4.772-13.683"/>
  <path stroke="#333" stroke-linecap="round" stroke-linejoin="round" stroke-width="4.341" d="M41.918 31.502v2.426m-14.939-2.426v2.426"/>
  <path stroke="#333" stroke-linecap="round" stroke-linejoin="round" stroke-width=".95" d="M39.337 28.216a3.701 3.701 0 0 1 2.074-.896 3.72 3.72 0 0 1 2.468.673m-14.319.223a3.701 3.701 0 0 0-2.074-.896 3.725 3.725 0 0 0-2.468.673"/>
  <path stroke="#333" stroke-linecap="round" stroke-linejoin="round" stroke-width="1.33" d="M29.663 39.49c.319.297 2.554 2.314 5.699 1.9 2.06-.272 3.396-1.44 3.873-1.9M28.04 13.666c.395 1.914 1.818 7.51 6.756 10.41 2.523 1.483 7.083 2.916 8.656 1.061 1.085-1.28.428-3.755-.492-5.207-1.22-1.925-3.641-3.208-4.331-2.632-.736.614.382 3.477 1.847 5.424 2.024 2.69 4.835 3.793 7.094 4.68a24.93 24.93 0 0 0 6.268 1.557"/>
  <path stroke="#333" stroke-linecap="round" stroke-linejoin="round" stroke-width="1.33" d="M29.28 18.092a22.954 22.954 0 0 1-5.674 6.553A22.981 22.981 0 0 1 15.3 28.79m.596 8.675c-.23.053-.514.093-.837.082-1.735-.061-4.293-1.589-4.293-4.293 0-2.355 1.939-4.293 4.293-4.293m38.777-.002a4.293 4.293 0 1 1-.808 8.51M28.11 3.386a16.014 16.014 0 0 1 4.785-2.111c8.15-2.068 19.024 2.317 23.083 11.33 3.388 7.524.49 14.858-.177 16.432m-43.145.343c-.574-1.079-4.136-8.053-1.084-15.58.475-1.172 2.878-7.095 9.008-9.289 2.222-.794 4.218-.843 5.489-.773"/>
  <path stroke="#333" stroke-linecap="round" stroke-linejoin="round" stroke-width="1.14" d="M23.763 60.38c-.28-.585-1.436-2.46-1.763-3.534-.766-2.52-1.06-5.053.697-6.815 1.384-1.387 4.347-1.488 5.814-.137 1.982 1.828 1.22 5.853.617 7.543-.568 1.59-1.34 2.389-1.948 3.193m1.496-.973c.527.51.971 1.09 1.304 1.735 1.49 2.892.503 6.653-2.456 9.308m-7.909-.053c-.374-.147-4.307-1.762-5.167-5.663-.058-.26-.698-3.927 2.022-6.563 2.056-1.993 4.618-2.022 5.155-2.016"/>
  <path stroke="#333" stroke-linecap="round" stroke-linejoin="round" stroke-width="1.14" d="M19.558 57.106a8.884 8.884 0 0 0 .903 4.753m-3.847-3.227a6.618 6.618 0 0 0-.063 2.448 6.607 6.607 0 0 0 1.074 2.674m11.515 1.551c-2.093-.85-3.852-1.057-4.989-1.099-2.273-.085-2.915.45-3.162.703-.534.548-.907 1.51-.62 2.146.808 1.786 6.631.559 6.925.494"/>
  <path stroke="#333" stroke-linecap="round" stroke-linejoin="round" stroke-width="1.33" d="M50.49 57.25a41.65 41.65 0 0 1 5.045 16.401"/>
</svg>
