<svg xmlns="http://www.w3.org/2000/svg" width="65" height="50" fill="none" viewBox="0 0 65 50">
  <path fill="#83BA4F" d="M60.25 17.87a11.92 11.92 0 0 0 .956-4.69c0-6.598-5.348-11.946-11.947-11.946-4.478 0-8.377 2.466-10.424 6.111a47.838 47.838 0 0 0-6.441-.433c-2.206 0-4.362.148-6.44.433C23.907 3.7 20.01 1.234 15.53 1.234c-6.599 0-11.947 5.348-11.947 11.946 0 1.665.342 3.248.957 4.69C2.119 20.82.744 24.2.744 27.792c0 11.533 14.17 20.88 31.65 20.88 17.48 0 31.65-9.35 31.65-20.88 0-3.59-1.375-6.97-3.797-9.922h.002Z"/>
  <mask id="a" width="65" height="48" x="0" y="1" maskUnits="userSpaceOnUse" style="mask-type:luminance">
    <path fill="#fff" d="M60.25 17.87a11.92 11.92 0 0 0 .956-4.69c0-6.598-5.348-11.946-11.947-11.946-4.478 0-8.377 2.466-10.424 6.111a47.838 47.838 0 0 0-6.441-.433c-2.206 0-4.362.148-6.44.433C23.907 3.7 20.01 1.234 15.53 1.234c-6.599 0-11.947 5.348-11.947 11.946 0 1.665.342 3.248.957 4.69C2.119 20.82.744 24.2.744 27.792c0 11.533 14.17 20.88 31.65 20.88 17.48 0 31.65-9.35 31.65-20.88 0-3.59-1.375-6.97-3.797-9.922h.002Z"/>
  </mask>
  <g mask="url(#a)">
    <path fill="#A8D471" d="m12.986 32.998 18.813 7.245 20.003-7.245c1.39 2.283 3.152 6.029 1.862 9.294-2.27 5.744-12.442 6.088-20.856 6.373-9.083.308-16.993.576-20.05-4.498-2.323-3.858-.686-8.894.226-11.169h.002Z"/>
  </g>
  <path stroke="#333" stroke-linecap="round" stroke-linejoin="round" stroke-width="1.488" d="M60.25 17.87a11.92 11.92 0 0 0 .956-4.69c0-6.598-5.348-11.946-11.947-11.946-4.478 0-8.377 2.466-10.424 6.111a47.84 47.84 0 0 0-6.441-.433c-2.206 0-4.362.148-6.44.433C23.907 3.7 20.01 1.234 15.53 1.234c-6.599 0-11.947 5.348-11.947 11.946 0 1.665.342 3.248.957 4.69C2.119 20.82.744 24.2.744 27.792c0 11.533 14.17 20.88 31.65 20.88 17.48 0 31.65-9.35 31.65-20.88 0-3.59-1.375-6.97-3.797-9.922h.002Z"/>
  <path fill="#FDF6ED" stroke="#333" stroke-miterlimit="10" stroke-width="1.488" d="M15.805 22.096a8.716 8.716 0 1 0 0-17.431 8.716 8.716 0 0 0 0 17.43Zm33.31 0a8.715 8.715 0 1 0 0-17.431 8.715 8.715 0 0 0 0 17.43Z"/>
  <path fill="#333" d="M15.805 19.7a6.32 6.32 0 1 0 0-12.64 6.32 6.32 0 0 0 0 12.64Zm33.31 0a6.32 6.32 0 1 0 0-12.64 6.32 6.32 0 0 0 0 12.64Z"/>
  <path fill="#83BA4F" d="M12.986 32.998 31.8 40.243l20.003-7.245"/>
  <path stroke="#333" stroke-linecap="round" stroke-linejoin="round" stroke-width="1.488" d="M12.986 32.998 31.8 40.243l20.003-7.245"/>
</svg>
