<svg xmlns="http://www.w3.org/2000/svg" width="51" height="75" fill="none" viewBox="0 0 51 75">
  <path fill="#DFDDDD" stroke="#333" stroke-linecap="round" stroke-linejoin="round" stroke-width="1.468" d="M36.06 37.329c1.495-7.962 2.544-15.877 4.362-23.824.358-1.568.585-3.285.524-4.894-.189-5.02-2.608-7.33-5.349-7.814-3.42-.604-6.682 3.3-7.03 9.184l-1.158 24.588a22.145 22.145 0 0 0-7.22.457c-1.328-6.179-2.716-12.253-3.899-18.686a18.396 18.396 0 0 0-1.464-4.581C12.666 7.223 9.77 5.932 7.06 6.57c-3.38.797-4.833 5.674-2.826 11.216l7.892 20.993c-4.766 3.6-7.817 9.127-7.817 15.325 0 10.851 7.062 19.647 20.884 19.647 15.03 0 20.884-8.796 20.884-19.647 0-7.104-4.007-13.327-10.012-16.776h-.005Z"/>
  <path fill="#ABA8A8" d="M14.51 38.103 8.943 23.295c-.96-2.652-.264-4.986 1.352-5.368 1.296-.306 2.684.313 3.718 2.483a8.75 8.75 0 0 1 .7 2.193c.92 5.005 2.101 9.557 2.996 14.608l-3.2.892Zm14.941-2.776.74-15.714c.172-2.88 1.768-4.79 3.444-4.495 1.341.237 2.526 1.367 2.618 3.826.03.787-.081 1.628-.255 2.397-1.16 5.076-1.68 10.123-2.881 15.23l-3.663-1.24-.003-.005Z"/>
  <path fill="#333" d="M17.386 57.846c1.143 0 2.07-1.166 2.07-2.604 0-1.439-.927-2.605-2.07-2.605-1.143 0-2.07 1.166-2.07 2.605 0 1.438.927 2.604 2.07 2.604Zm15.607 0c1.143 0 2.07-1.166 2.07-2.604 0-1.439-.927-2.605-2.07-2.605-1.143 0-2.07 1.166-2.07 2.605 0 1.438.927 2.604 2.07 2.604Zm-5.957 1.342c-.086-.076-.669-.541-1.698-.541-.439 0-.957.084-1.55.319-.579.228-.948.805-.74 1.39.063.174.247.56 1.143.882.775.28 1.704.233 2.241-.048 1.428-.746 1.088-1.585.604-2.002Zm-4.431 6.278c2.886-1.655 4.978-.116 5.075-.042a.817.817 0 0 0 1.002-1.287c-.082-.064-1.4-1.07-3.42-1.07-1.004 0-2.18.25-3.466.985a.816.816 0 0 0 .812 1.416l-.003-.002Z"/>
  <path stroke="#333" stroke-linecap="round" stroke-linejoin="round" stroke-width="1.642" d="M25.222 60.693v3.064"/>
  <path stroke="#333" stroke-linecap="round" stroke-linejoin="round" stroke-width="1.468" d="m38.057 60.66 11.358-2.84M38.56 63.325l11.666.99M12.55 60.823.991 58.955m11.283 4.565L.735 65.495"/>
  <path stroke="#333" stroke-linecap="round" stroke-linejoin="round" stroke-width="1.048" d="M23.345 64.744c-.121 1.395.745 2.541 1.684 2.627 1.028.095 2.12-1.084 2.007-2.627m-1.847-.149v2.609"/>
</svg>
