<svg xmlns="http://www.w3.org/2000/svg" width="58" height="56" fill="none" viewBox="0 0 58 56">
  <g opacity=".43">
    <path fill="#FDF6ED" stroke="#333" stroke-linecap="round" stroke-linejoin="round" stroke-width=".998" d="M49.02 5.988H8.04a6.833 6.833 0 0 0-6.833 6.833V48.67a6.833 6.833 0 0 0 6.832 6.832H49.02a6.833 6.833 0 0 0 6.833-6.832V12.82a6.833 6.833 0 0 0-6.833-6.832Z"/>
    <path fill="#F06061" stroke="#333" stroke-linecap="round" stroke-linejoin="round" stroke-width=".998" d="M53.049 5.027H4.01A3.512 3.512 0 0 0 .5 8.539v5.722a3.512 3.512 0 0 0 3.512 3.512H53.05a3.512 3.512 0 0 0 3.512-3.512V8.54a3.512 3.512 0 0 0-3.512-3.512Z"/>
    <path stroke="#333" stroke-linecap="round" stroke-linejoin="round" stroke-width=".998" d="M12.393.5v9.054M14.92.5v9.054M22.308.5v9.054M24.835.5v9.054M32.224.5v9.054M34.752.5v9.054M42.14.5v9.054M44.669.5v9.054"/>
    <path fill="#FDF6ED" stroke="#333" stroke-linecap="round" stroke-linejoin="round" stroke-width=".571" d="M23.803 21.443h-4.738v4.737h4.738v-4.737Zm7.095 0H26.16v4.737h4.737v-4.737Zm7.096 0h-4.737v4.737h4.737v-4.737Zm7.096 0h-4.737v4.737h4.738v-4.737Zm7.097 0H47.45v4.737h4.737v-4.737ZM9.61 27.93H4.873v4.738H9.61v-4.737Zm7.096 0H11.97v4.738h4.737v-4.737Zm7.097 0h-4.738v4.738h4.738v-4.737Zm7.095 0H26.16v4.738h4.737v-4.737Zm7.096 0h-4.737v4.738h4.737v-4.737Zm7.096 0h-4.737v4.738h4.738v-4.737Zm7.097 0H47.45v4.738h4.737v-4.737ZM9.61 34.418H4.873v4.737H9.61v-4.737Zm7.096 0H11.97v4.737h4.737v-4.737Zm7.097 0h-4.738v4.737h4.738v-4.737Zm7.095 0H26.16v4.737h4.737v-4.737Zm7.096 0h-4.737v4.737h4.737v-4.737Zm7.096 0h-4.737v4.737h4.738v-4.737Zm7.097 0H47.45v4.737h4.737v-4.737ZM9.61 40.906H4.873v4.737H9.61v-4.737Zm7.096 0H11.97v4.737h4.737v-4.737Zm7.097 0h-4.738v4.737h4.738v-4.737Zm7.095 0H26.16v4.737h4.737v-4.737Zm7.096 0h-4.737v4.737h4.737v-4.737Zm7.096 0h-4.737v4.737h4.738v-4.737Zm7.097 0H47.45v4.737h4.737v-4.737ZM9.61 47.394H4.873v4.738H9.61v-4.738Zm7.096 0H11.97v4.738h4.737v-4.738Zm7.097 0h-4.738v4.738h4.738v-4.738Zm7.095 0H26.16v4.738h4.737v-4.738Zm7.096 0h-4.737v4.738h4.737v-4.738Z"/>
  </g>
  <path fill="#F06061" d="M31.294 41.546c-.252 0-.596-.115-.766-.334a150.118 150.118 0 0 0-2.21-2.787c-.676.68-1.326 1.352-1.935 1.998a.988.988 0 0 1-.727.31 1.12 1.12 0 0 1-.755-.294.976.976 0 0 1-.311-.692c-.01-.295.097-.584.297-.796a110.407 110.407 0 0 1 2.091-2.157 157.995 157.995 0 0 0-1.46-1.731c-.386-.45-.383-1.037.005-1.46.184-.2.46-.316.76-.316s.572.117.748.322a158.217 158.217 0 0 1 1.443 1.71c.444-.429.846-.811 1.223-1.165a1.07 1.07 0 0 1 .733-.295c.27 0 .53.104.736.292.198.182.312.453.314.744.001.293-.113.57-.311.757-.368.345-.733.69-1.084 1.029l-.274.265c.784.965 1.539 1.918 2.248 2.833.132.17.27.388.284.703.011.258-.095.523-.3.746a1.06 1.06 0 0 1-.752.317l.003.001Z"/>
  <path fill="#333" d="M26.283 33.57c.201 0 .402.074.53.223.383.447.764.895 1.14 1.346.167.198.331.399.498.599.477-.463.956-.923 1.441-1.377a.785.785 0 0 1 .538-.218c.19 0 .386.073.543.218.298.274.293.807 0 1.081a105.487 105.487 0 0 0-1.547 1.481c.814 1.001 1.617 2.01 2.407 3.03.132.17.214.323.224.54.009.204-.09.395-.224.54a.778.778 0 0 1-.54.225c-.171 0-.43-.08-.54-.224a145.115 145.115 0 0 0-2.414-3.037 109.8 109.8 0 0 0-2.164 2.228.7.7 0 0 1-.52.22.842.842 0 0 1-.563-.22c-.31-.285-.275-.79 0-1.081a101.895 101.895 0 0 1 2.27-2.334 136.52 136.52 0 0 0-1.63-1.934c-.278-.325-.297-.757 0-1.081a.75.75 0 0 1 .551-.223m0-.57c-.38 0-.733.148-.971.408-.484.526-.49 1.283-.013 1.838.408.477.833.98 1.292 1.53a90.474 90.474 0 0 0-1.913 1.977 1.393 1.393 0 0 0-.373 1.002c.013.348.155.665.403.892.256.235.6.37.948.37.346 0 .693-.142.935-.399.542-.575 1.114-1.167 1.708-1.767.34.42.637.793.923 1.151.358.452.723.917 1.082 1.384.239.308.67.445.992.445.36 0 .73-.157.961-.41.255-.28.39-.617.374-.953-.017-.396-.193-.67-.343-.864A152.31 152.31 0 0 0 30.2 36.97l.086-.083c.35-.338.714-.683 1.081-1.025.257-.241.404-.594.402-.967a1.295 1.295 0 0 0-.406-.952 1.378 1.378 0 0 0-.93-.368c-.341 0-.672.133-.929.372-.314.294-.645.61-1.004.955l-.106-.127c-.373-.445-.757-.899-1.144-1.35a1.259 1.259 0 0 0-.964-.422l-.003-.001Z"/>
  <path fill="#A8D471" stroke="#333" stroke-miterlimit="10" stroke-width=".571" d="M18.136 29.363a.927.927 0 0 1 1.309.076l.782.878c.225-1.947 1.286-3.611 2.897-4.358 1.95-.902 3.841-.034 3.921.003 1.903.893 3.023 3.057 2.786 5.385a.932.932 0 0 1-1.016.829.927.927 0 0 1-.829-1.016c.157-1.545-.537-2.96-1.726-3.516-.01-.006-1.205-.533-2.357 0-1.045.484-1.73 1.675-1.846 3.056l1.198-1.066a.927.927 0 1 1 1.234 1.385l-2.723 2.424a.924.924 0 0 1-1.31-.078l-2.395-2.693a.927.927 0 0 1 .076-1.31h-.001Z"/>
</svg>
