<svg xmlns="http://www.w3.org/2000/svg" width="71" height="72" fill="none" viewBox="0 0 71 72">
  <path fill="#7D5045" d="m25.622 49.608-3.097-1.547a.49.49 0 0 0-.223-.053h-3.665a.494.494 0 0 1-.15-.023l-7.123-2.263a.494.494 0 0 1-.295-.253l-2.722-5.454a.501.501 0 0 0-.235-.228l-2.987-1.391.809-1.333 3.583 1.286a.5.5 0 0 1 .22.157l3.687 4.631c.084.107.21.174.345.186l5.132.45c.058.005.116 0 .172-.016l3.821-1.024"/>
  <path fill="#7D5045" d="m22.863 42.68-4.158-1.649a.5.5 0 0 1-.184-.128l-3.597-3.96a.498.498 0 0 0-.278-.154l-3.144-.576a.499.499 0 0 1-.31-.195L9.31 33.46l2.144-.408 1.016 1.188a.498.498 0 0 0 .325.172l3.576.39c.103.01.2.055.276.123l3.44 3.068c.058.05.126.088.2.109l3.146.862v-.568l-1.63-2.258a.493.493 0 0 1-.096-.291v-3.643a.496.496 0 0 0-.103-.303l-1.396-1.808a.486.486 0 0 0-.18-.146l-5.11-2.414 1.169-.857 6.07 1.96c.08.027.152.073.21.134l2.73 2.928c.115.12.16.292.122.453l-.386 1.625a.496.496 0 0 0 .084.41l2.392 3.241c.22.296.671.261.841-.066l1.204-2.315a.506.506 0 0 0 .04-.354l-.811-3.112a.497.497 0 0 1 .087-.429l1.038-1.346a.486.486 0 0 1 .257-.173l2.338-.668a.498.498 0 0 0 .275-.198l1.384-2.032a.513.513 0 0 1 .093-.102l2.234-1.859 1 1.237-1.561 2.27a.423.423 0 0 0-.023.034l-1.253 2.198a.498.498 0 0 1-.276.226l-1.88.616a.497.497 0 0 0-.293.256l-.442.918a.5.5 0 0 0-.026.366l1.064 3.335a.497.497 0 0 1-.046.404l-1.496 2.53c-.254.43.212.922.655.696l3.317-1.698a.495.495 0 0 0 .264-.366l.391-2.49a.499.499 0 0 1 .132-.266c.529-.55 2.826-2.928 2.994-2.928.168 0 1.174-3.798 1.391-4.627a.485.485 0 0 1 .17-.261l3.056-2.451.68.983-2.136 2.069a.497.497 0 0 0-.151.357v4.046a.495.495 0 0 1-.11.312l-2.48 3.081a.472.472 0 0 0-.084.154l-1.575 4.748a.508.508 0 0 1-.133.209l-3.529 3.273h5.37a.5.5 0 0 0 .372-.167l2.89-3.252a.497.497 0 0 1 .363-.166l3.21-.058a.496.496 0 0 0 .361-.165l3.429-3.83a.514.514 0 0 0 .061-.086l1.295-2.276 1.465.655-.908 2.326a.483.483 0 0 1-.057.106L48.625 41.5a.5.5 0 0 1-.212.17l-4.485 1.889a.493.493 0 0 0-.221.18L41.8 46.585a.493.493 0 0 1-.328.212l-3.904.686a.491.491 0 0 0-.212.092l-2.53 1.898a.497.497 0 0 0-.198.364 38.934 38.934 0 0 0 .03 5.356c.49 6.518 2.551 11.752 4.396 15.33H21.212c1.844-3.578 3.906-8.812 4.396-15.33.151-2.01.134-3.88.016-5.584"/>
  <path fill="#7D5045" d="m25.088 56.86-3.138-3.685a.5.5 0 0 0-.378-.175h-4.698a.496.496 0 0 1-.413-.223l-.883-1.33a.496.496 0 0 0-.556-.201l-.604.18v-1.62l1.848-.433a.498.498 0 0 1 .563.272l.47.996c.087.186.28.298.483.284l4.312-.3a.494.494 0 0 1 .259.053l3.271 1.654-.534 4.526-.002.002Z"/>
  <path fill="#F5A759" stroke="#333" stroke-miterlimit="10" stroke-width=".555" d="M57.171 19.79a6.246 6.246 0 1 0 0-12.492 6.246 6.246 0 0 0 0 12.492Z"/>
  <path fill="#F5A759" stroke="#333" stroke-miterlimit="10" stroke-width=".475" d="M57.23 22.026a.882.882 0 0 1 .889.876l.02 2.583a.882.882 0 0 1-1.765.012l-.02-2.583a.882.882 0 0 1 .877-.888Zm-6.014-2.441c.347.342.35.9.008 1.248l-1.813 1.84a.883.883 0 0 1-1.256-1.24l1.813-1.839a.882.882 0 0 1 1.248-.009Zm-2.529-5.98a.882.882 0 0 1-.876.889l-2.582.019a.882.882 0 0 1-.013-1.764l2.583-.02a.882.882 0 0 1 .888.876Zm2.443-6.017a.882.882 0 0 1-1.248.01l-1.84-1.814a.882.882 0 0 1 1.24-1.256l1.84 1.813c.346.342.35.9.008 1.247Zm5.98-2.528a.883.883 0 0 1-.889-.876l-.019-2.583a.882.882 0 0 1 1.765-.012l.019 2.583a.882.882 0 0 1-.876.888Zm6.017 2.443a.882.882 0 0 1-.01-1.248l1.814-1.84a.882.882 0 0 1 1.257 1.24l-1.814 1.84a.882.882 0 0 1-1.247.008Zm2.526 5.98a.882.882 0 0 1 .876-.889l2.583-.019a.882.882 0 0 1 .012 1.764l-2.583.02a.882.882 0 0 1-.888-.876ZM63.212 19.5a.882.882 0 0 1 1.248-.01l1.84 1.814a.882.882 0 0 1-1.24 1.257l-1.839-1.814a.882.882 0 0 1-.009-1.247Z"/>
  <path stroke="#333" stroke-linecap="round" stroke-linejoin="round" stroke-width=".839" d="M25.622 49.608a38.619 38.619 0 0 1-.015 5.584c-.49 6.518-2.551 11.751-4.396 15.329m4.411-20.913-3.097-1.547a.49.49 0 0 0-.223-.053h-3.665a.49.49 0 0 1-.15-.023l-7.123-2.263a.494.494 0 0 1-.295-.253l-2.722-5.454a.502.502 0 0 0-.235-.228l-2.987-1.391"/>
  <path stroke="#333" stroke-linecap="round" stroke-linejoin="round" stroke-width=".839" d="m5.936 37.063 3.583 1.286a.498.498 0 0 1 .22.157l3.687 4.631c.084.107.21.174.345.186l5.132.45c.058.005.116 0 .172-.016l3.821-1.024m21.208-16.978-2.136 2.069a.497.497 0 0 0-.15.357v4.046a.495.495 0 0 1-.111.312l-2.478 3.082a.471.471 0 0 0-.084.154l-1.575 4.748a.508.508 0 0 1-.133.209l-3.529 3.273M22.863 42.68l-4.158-1.649a.497.497 0 0 1-.184-.128l-3.597-3.96a.498.498 0 0 0-.278-.154l-3.144-.576a.499.499 0 0 1-.31-.195L9.31 33.46m2.143-.408 1.016 1.188a.498.498 0 0 0 .325.171l3.576.391c.103.01.2.055.276.123l3.44 3.068c.058.05.126.087.2.108l3.146.863M34 44.003h5.277a.5.5 0 0 0 .371-.167l2.891-3.252a.497.497 0 0 1 .363-.166l3.21-.058a.496.496 0 0 0 .36-.164l3.43-3.83a.509.509 0 0 0 .06-.087l1.296-2.276"/>
  <path stroke="#333" stroke-linecap="round" stroke-linejoin="round" stroke-width=".839" d="m52.722 34.657-.907 2.325a.483.483 0 0 1-.058.107l-3.135 4.408a.5.5 0 0 1-.212.17l-4.485 1.889a.494.494 0 0 0-.22.18l-1.909 2.846a.493.493 0 0 1-.328.212l-3.903.685a.491.491 0 0 0-.212.093l-2.53 1.897a.497.497 0 0 0-.198.365 38.934 38.934 0 0 0 .03 5.356c.49 6.518 2.55 11.751 4.396 15.33M23.43 38.396l-1.63-2.258a.493.493 0 0 1-.095-.291v-3.643a.495.495 0 0 0-.104-.303l-1.396-1.808a.484.484 0 0 0-.18-.146l-5.11-2.414"/>
  <path stroke="#333" stroke-linecap="round" stroke-linejoin="round" stroke-width=".839" d="m16.086 26.676 6.069 1.96c.08.027.152.073.21.134l2.732 2.928a.49.49 0 0 1 .12.454l-.385 1.624a.496.496 0 0 0 .084.41l2.392 3.241a.497.497 0 0 0 .841-.066l1.204-2.315a.505.505 0 0 0 .04-.354l-.811-3.112a.497.497 0 0 1 .087-.429l1.038-1.346a.485.485 0 0 1 .257-.173l2.337-.668a.499.499 0 0 0 .276-.197l1.384-2.033a.516.516 0 0 1 .093-.102l2.233-1.859m.999 1.236-1.56 2.268a.4.4 0 0 0-.024.035L34.45 30.51a.498.498 0 0 1-.277.226l-1.88.616a.497.497 0 0 0-.293.256l-.442.918a.5.5 0 0 0-.026.367l1.064 3.334a.497.497 0 0 1-.046.405l-1.496 2.53c-.254.429.212.921.655.695l3.317-1.698a.495.495 0 0 0 .264-.366l.391-2.49a.498.498 0 0 1 .132-.266c.529-.55 2.826-2.928 2.994-2.928.168 0 1.174-3.798 1.391-4.627a.484.484 0 0 1 .17-.261l3.056-2.451M14.416 49.807l1.849-.432a.498.498 0 0 1 .562.271l.47.997c.087.186.28.298.483.284l4.312-.3a.494.494 0 0 1 .26.053l3.27 1.654m-11.206-.906.604-.18a.496.496 0 0 1 .556.201l.883 1.33a.498.498 0 0 0 .413.222h4.698c.145 0 .284.064.378.176l3.138 3.684m1.099-11.583 2.017 3.478.742 2.86 1.029-4.46.715-1.657m-2.865-7.589-.785 2.359"/>
  <path stroke="#333" stroke-linecap="round" stroke-linejoin="round" stroke-width="1.051" d="M.816 70.52h57.506"/>
</svg>
