<svg xmlns="http://www.w3.org/2000/svg" width="45" height="64" fill="none" viewBox="0 0 45 64">
  <path fill="#F06061" d="M1.363 30.688c0-11.707 9.492-17.913 21.198-17.913 11.707 0 21.198 6.206 21.198 17.913"/>
  <path stroke="#333" stroke-miterlimit="10" stroke-width="1.417" d="M1.363 30.688c0-11.707 9.492-17.913 21.198-17.913 11.707 0 21.198 6.206 21.198 17.913"/>
  <path fill="#F5A759" stroke="#333" stroke-miterlimit="10" stroke-width="1.417" d="M28.504 35.645a1.856 1.856 0 0 1-1.55-2.029l2.964-27.78a1.855 1.855 0 0 1 3.69.392l-2.965 27.781a1.855 1.855 0 0 1-2.041 1.648l-.098-.012Z"/>
  <path fill="#F5A759" stroke="#333" stroke-miterlimit="10" stroke-width="1.417" d="M27.605 32.37a1.854 1.854 0 0 1-1.776-1.834L25.532 2.6a1.856 1.856 0 0 1 3.71-.04l.297 27.937a1.856 1.856 0 0 1-1.835 1.875h-.099Zm-15.627 7.048a1.855 1.855 0 0 1-1.745-1.863l.158-27.94a1.855 1.855 0 1 1 3.71.021l-.159 27.94a1.855 1.855 0 0 1-1.864 1.844c-.033 0-.065 0-.098-.004l-.002.002Zm7.924-4.385c-.98 0-1.8-.767-1.85-1.757l-1.455-27.9a1.858 1.858 0 0 1 1.756-1.951 1.859 1.859 0 0 1 1.95 1.756l1.454 27.9A1.858 1.858 0 0 1 20 35.031l-.097.002h-.002Z"/>
  <path fill="#F5A759" stroke="#333" stroke-miterlimit="10" stroke-width="1.417" d="M18.647 42.51a1.855 1.855 0 0 1-1.993-1.598l-3.795-27.68a1.855 1.855 0 0 1 3.676-.504l3.794 27.68a1.855 1.855 0 0 1-1.585 2.09c-.033.004-.065.008-.097.01v.002Zm-12.13 2.734a1.855 1.855 0 0 1-1.55-2.03l2.977-27.778a1.855 1.855 0 1 1 3.69.396l-2.977 27.78a1.855 1.855 0 0 1-2.043 1.646l-.097-.012v-.002Z"/>
  <path fill="#F5A759" stroke="#333" stroke-miterlimit="10" stroke-width="1.417" d="M7.165 49.62a1.855 1.855 0 0 1-1.956-1.64L2.02 20.222a1.855 1.855 0 1 1 3.688-.424l3.187 27.757a1.855 1.855 0 0 1-1.73 2.064h-.001Zm13.573-11.002a1.856 1.856 0 0 1-1.55-2.03l2.964-27.78a1.855 1.855 0 0 1 3.69.393l-2.965 27.78a1.855 1.855 0 0 1-2.041 1.649l-.098-.012Zm19.068 1.227c-.98 0-1.8-.767-1.851-1.758l-1.454-27.9a1.858 1.858 0 0 1 1.756-1.95 1.859 1.859 0 0 1 1.95 1.755l1.454 27.901a1.858 1.858 0 0 1-1.756 1.95l-.097.002h-.002Z"/>
  <path fill="#F5A759" stroke="#333" stroke-miterlimit="10" stroke-width="1.417" d="M31.076 40.97a1.855 1.855 0 0 1-1.523-2.049l3.335-27.738a1.855 1.855 0 1 1 3.684.443l-3.335 27.739a1.855 1.855 0 0 1-2.064 1.62c-.032-.004-.065-.008-.097-.014Z"/>
  <path fill="#F5A759" stroke="#333" stroke-miterlimit="10" stroke-width="1.417" d="M29.444 44.243a1.856 1.856 0 0 1-1.551-2.029l2.964-27.78a1.855 1.855 0 0 1 3.69.392l-2.965 27.781a1.855 1.855 0 0 1-2.04 1.648l-.098-.012Z"/>
  <path fill="#F9CB6A" stroke="#333" stroke-miterlimit="10" stroke-width="1.417" d="M12.545 49.709a1.855 1.855 0 0 1-1.733-1.875l.352-27.937a1.856 1.856 0 0 1 3.712.046l-.352 27.937a1.856 1.856 0 0 1-1.88 1.833c-.032 0-.064 0-.097-.004h-.002Zm7.505-3.202a1.855 1.855 0 0 1-1.733-1.875l.352-27.937a1.857 1.857 0 0 1 3.712.047l-.353 27.937a1.857 1.857 0 0 1-1.879 1.832c-.032 0-.065 0-.097-.004h-.002Zm12.298 5.953c-.98 0-1.8-.767-1.851-1.757l-1.454-27.9a1.858 1.858 0 0 1 1.756-1.95 1.859 1.859 0 0 1 1.95 1.755l1.454 27.9a1.857 1.857 0 0 1-1.756 1.95l-.097.003h-.002Z"/>
  <path fill="#F9CB6A" stroke="#333" stroke-miterlimit="10" stroke-width="1.417" d="M17.954 53.85c-.98 0-1.8-.768-1.85-1.758l-1.455-27.9a1.858 1.858 0 0 1 1.756-1.95 1.859 1.859 0 0 1 1.95 1.755l1.454 27.9a1.858 1.858 0 0 1-1.756 1.95l-.097.003h-.002Zm7.6-6.324a1.855 1.855 0 0 1-1.733-1.875l.352-27.937a1.857 1.857 0 0 1 3.712.046l-.353 27.937a1.857 1.857 0 0 1-1.879 1.833c-.032 0-.065 0-.097-.004h-.002ZM11.62 56.784a1.853 1.853 0 0 1-1.973-1.62L6.19 27.439a1.857 1.857 0 0 1 3.683-.46l3.459 27.725a1.857 1.857 0 0 1-1.71 2.082l-.001-.002Z"/>
  <path fill="#F9CB6A" stroke="#333" stroke-miterlimit="10" stroke-width="1.417" d="M29.766 57.86c-.98 0-1.8-.768-1.851-1.758l-1.454-27.9a1.858 1.858 0 0 1 1.756-1.95 1.859 1.859 0 0 1 1.95 1.755l1.454 27.9a1.857 1.857 0 0 1-1.756 1.95l-.097.003h-.002Zm-6.101-4.516c-.98 0-1.8-.768-1.851-1.758l-1.454-27.9a1.858 1.858 0 0 1 1.756-1.95 1.859 1.859 0 0 1 1.95 1.755l1.454 27.9a1.858 1.858 0 0 1-1.756 1.95l-.097.003h-.002Z"/>
  <path fill="#F9CB6A" stroke="#333" stroke-miterlimit="10" stroke-width="1.417" d="M17.871 57.19a1.856 1.856 0 0 1-1.638-1.959l1.751-27.884a1.856 1.856 0 0 1 3.704.232l-1.752 27.885a1.856 1.856 0 0 1-1.968 1.735.793.793 0 0 1-.097-.008v-.002Zm17.387-11.335a1.856 1.856 0 0 1-1.639-1.958l1.752-27.884a1.856 1.856 0 0 1 3.704.233L37.323 44.13a1.856 1.856 0 0 1-2.065 1.727v-.002Z"/>
  <path fill="#F9CB6A" stroke="#333" stroke-miterlimit="10" stroke-width="1.417" d="M37.202 51.236a1.855 1.855 0 0 1-1.412-2.129l4.818-27.52a1.853 1.853 0 1 1 3.653.64l-4.818 27.52a1.853 1.853 0 0 1-2.243 1.487l.002.002Zm-21.504 9.849a1.855 1.855 0 0 1-1.733-1.875l.352-27.937a1.856 1.856 0 0 1 3.712.047l-.352 27.937a1.857 1.857 0 0 1-1.88 1.832c-.032 0-.064 0-.097-.004h-.002Zm6.944 1.248a1.855 1.855 0 0 1-1.733-1.875l.352-27.938a1.857 1.857 0 0 1 3.712.047l-.353 27.937a1.856 1.856 0 0 1-1.879 1.833c-.032 0-.065 0-.097-.004h-.002Z"/>
  <path fill="#F06061" stroke="#333" stroke-miterlimit="10" stroke-width="1.417" d="M42.238 29.224a1.52 1.52 0 0 1 1.515 1.638l-2.197 25.704a6.449 6.449 0 0 1-6.428 5.947H9.945a6.447 6.447 0 0 1-6.427-5.947l-2.2-25.706a1.52 1.52 0 0 1 1.515-1.638h.685c1.306 0 2.416.962 2.592 2.254C7.21 39.564 14.145 45.8 22.537 45.8c8.391 0 15.325-6.235 16.427-14.325a2.611 2.611 0 0 1 2.592-2.254h.684l-.002.002Z"/>
</svg>
