<svg xmlns="http://www.w3.org/2000/svg" width="62" height="62" fill="none" viewBox="0 0 62 62">
  <path fill="#A8D471" stroke="#333" stroke-linecap="round" stroke-linejoin="round" stroke-width="1.255" d="M59.524 17.845 20.414.79a1.949 1.949 0 0 0-2.566 1.007L.794 40.908c-.43.987.02 2.135 1.007 2.565l39.11 17.055c.987.43 2.136-.02 2.566-1.007L60.532 20.41a1.949 1.949 0 0 0-1.008-2.565Z"/>
  <path fill="#F5A759" stroke="#333" stroke-linecap="round" stroke-linejoin="round" stroke-width="1.255" d="M56.526 12.541 14.868 3.314a1.949 1.949 0 0 0-2.324 1.48l-9.228 41.66a1.949 1.949 0 0 0 1.482 2.323l41.657 9.228a1.949 1.949 0 0 0 2.324-1.48l9.228-41.659a1.949 1.949 0 0 0-1.481-2.324Z"/>
  <path fill="#F06061" stroke="#333" stroke-linecap="round" stroke-linejoin="round" stroke-width="1.255" d="M52.89 8.236 10.255 6.561a1.949 1.949 0 0 0-2.024 1.87L6.556 51.067a1.949 1.949 0 0 0 1.87 2.024l42.636 1.675a1.949 1.949 0 0 0 2.023-1.87L54.76 10.26a1.949 1.949 0 0 0-1.87-2.024Z"/>
  <path fill="#FDF6ED" stroke="#333" stroke-linecap="round" stroke-linejoin="round" stroke-width="1.255" d="m11.863 10.255 35.682-6.1a2.171 2.171 0 0 1 2.506 1.774l3.318 19.414c2.297 13.436-6.747 26.21-20.184 28.507l-19.412 3.318a2.171 2.171 0 0 1-2.505-1.774l-6.1-35.682a8.197 8.197 0 0 1 6.696-9.458h-.001Z"/>
  <path fill="#F3D2B9" stroke="#333" stroke-linecap="round" stroke-linejoin="round" stroke-width="1.255" d="M35.997 53.2c1.27-1.245 3.786-4.055 5.034-8.46a19.166 19.166 0 0 0 .458-8.332c1.163.051 3.679-.003 6.32-1.465 3.9-2.16 5.259-5.844 5.576-6.789.195 2.066.522 8.389-3.449 14.753-4.73 7.579-12.187 9.818-13.937 10.293h-.002Z"/>
  <path fill="#F3D2B9" stroke="#333" stroke-linecap="round" stroke-linejoin="round" stroke-width="1.14" d="M10.36 10.823a4.05 4.05 0 0 0-1.609 2.186c-.446 1.51.172 2.75.306 3.005a5.084 5.084 0 0 0-2 .657 5.168 5.168 0 0 0-1.954 2.06c-.04-.63-.136-3.212 1.713-5.48 1.275-1.561 2.836-2.194 3.545-2.432v.004Z"/>
</svg>
