<svg xmlns="http://www.w3.org/2000/svg" width="42" height="62" fill="none" viewBox="0 0 42 62">
  <path fill="#4562AC" stroke="#333" stroke-linecap="round" stroke-linejoin="round" stroke-width=".783" d="M37.11 55.018c-.47 3.528-7.416 6.462-16.563 6.462-9.147 0-16.036-2.944-16.563-6.462-.968-6.461 7.416-6.461 16.563-6.461 9.147 0 17.4.197 16.563 6.461Z"/>
  <path fill="#66A9EB" stroke="#333" stroke-linecap="round" stroke-linejoin="round" stroke-width=".783" d="M20.537 59.512c9.148 0 16.563-2.893 16.563-6.462s-7.416-6.462-16.563-6.462c-9.147 0-16.563 2.893-16.563 6.462s7.416 6.462 16.563 6.462Z"/>
  <path fill="#66A9EB" d="M25.734 51.244c.963 0 1.486-1.138.848-1.86-1.465-1.658-3.213-4.298-3.712-7.877a14.66 14.66 0 0 1 .304-5.576 1.122 1.122 0 0 0-1.09-1.395H19.11c-.73 0-1.265.686-1.089 1.395a14.66 14.66 0 0 1 .304 5.576c-.502 3.579-2.249 6.22-3.712 7.876-.638.723-.115 1.861.848 1.861h10.276-.002Z"/>
  <mask id="a" width="13" height="18" x="14" y="34" maskUnits="userSpaceOnUse" style="mask-type:luminance">
    <path fill="#fff" d="M25.734 51.244c.963 0 1.486-1.138.848-1.86-1.465-1.658-3.213-4.298-3.712-7.877a14.66 14.66 0 0 1 .304-5.576 1.122 1.122 0 0 0-1.09-1.395H19.11c-.73 0-1.265.686-1.089 1.395a14.66 14.66 0 0 1 .304 5.576c-.502 3.579-2.249 6.22-3.712 7.876-.638.723-.115 1.861.848 1.861h10.276-.002Z"/>
  </mask>
  <g mask="url(#a)">
    <path fill="#333" d="M33.882 48.655a91.282 91.282 0 0 1-18.418.842 91.074 91.074 0 0 1-8.27-.842c-.993.035-1.79.86-1.79 1.852 0 .927.596 1.854 1.79 1.854H33.88c2.386 0 2.39-3.708 0-3.708l.002.002Z" opacity=".2"/>
  </g>
  <path stroke="#333" stroke-linecap="round" stroke-linejoin="round" stroke-width=".783" d="M25.734 51.244c.963 0 1.486-1.138.848-1.86-1.465-1.658-3.213-4.298-3.712-7.877a14.66 14.66 0 0 1 .304-5.576 1.122 1.122 0 0 0-1.09-1.395H19.11c-.73 0-1.265.686-1.089 1.395a14.66 14.66 0 0 1 .304 5.576c-.502 3.579-2.249 6.22-3.712 7.876-.638.723-.115 1.861.848 1.861h10.276-.002Z"/>
  <path fill="#66A9EB" stroke="#333" stroke-miterlimit="10" stroke-width=".783" d="M20.537 40.682c11.126 0 20.145-9.019 20.145-20.145S31.663.392 20.537.392.392 9.412.392 20.537c0 11.126 9.019 20.145 20.145 20.145Z"/>
  <path fill="#D3E2F1" stroke="#333" stroke-miterlimit="10" stroke-width=".783" d="M20.537 38.428c9.881 0 17.891-8.01 17.891-17.89 0-9.882-8.01-17.892-17.89-17.892-9.882 0-17.892 8.01-17.892 17.891 0 9.881 8.01 17.891 17.891 17.891Z"/>
  <path fill="#4562AC" d="M15.182 29.561c-.566-4.227 3.99-7.913 5.547-7.328.92.347.276 1.994 1.737 4.063 1.646 2.329 3.743 2.055 4.094 3.5.445 1.833-2.239 5.14-5.53 5.197-3.067.052-5.488-2.74-5.848-5.432Z"/>
  <path stroke="#333" stroke-miterlimit="10" stroke-width=".783" d="M15.182 29.561c-.566-4.227 3.99-7.913 5.547-7.328.92.347.276 1.994 1.737 4.063 1.646 2.329 3.743 2.055 4.094 3.5.445 1.833-2.239 5.14-5.53 5.197-3.067.052-5.488-2.74-5.848-5.432Z"/>
  <path fill="#4562AC" d="M11.515 15.182c4.227-.566 7.913 3.99 7.328 5.547-.347.92-1.994.276-4.063 1.738-2.329 1.645-2.054 3.743-3.5 4.093-1.833.445-5.14-2.239-5.196-5.53-.053-3.067 2.74-5.488 5.431-5.848Z"/>
  <path stroke="#333" stroke-miterlimit="10" stroke-width=".783" d="M11.515 15.182c4.227-.566 7.913 3.99 7.328 5.547-.347.92-1.994.276-4.063 1.738-2.329 1.645-2.054 3.743-3.5 4.093-1.833.445-5.14-2.239-5.196-5.53-.053-3.067 2.74-5.488 5.431-5.848Z"/>
  <path fill="#4562AC" d="M25.892 11.515c.566 4.227-3.99 7.913-5.547 7.328-.92-.347-.276-1.994-1.737-4.063-1.645-2.329-3.743-2.054-4.094-3.5-.444-1.833 2.239-5.14 5.53-5.196 3.067-.053 5.488 2.74 5.848 5.431Z"/>
  <path stroke="#333" stroke-miterlimit="10" stroke-width=".783" d="M25.892 11.515c.566 4.227-3.99 7.913-5.547 7.328-.92-.347-.276-1.994-1.737-4.063-1.645-2.329-3.743-2.054-4.094-3.5-.444-1.833 2.239-5.14 5.53-5.196 3.067-.053 5.488 2.74 5.848 5.431Z"/>
  <path fill="#4562AC" d="M29.56 25.892c-4.226.566-7.912-3.99-7.327-5.547.347-.92 1.994-.276 4.063-1.737 2.329-1.646 2.054-3.743 3.5-4.094 1.833-.445 5.14 2.239 5.196 5.53.053 3.067-2.74 5.488-5.431 5.848Z"/>
  <path stroke="#333" stroke-miterlimit="10" stroke-width=".783" d="M29.56 25.892c-4.226.566-7.912-3.99-7.327-5.547.347-.92 1.994-.276 4.063-1.737 2.329-1.646 2.054-3.743 3.5-4.094 1.833-.445 5.14 2.239 5.196 5.53.053 3.067-2.74 5.488-5.431 5.848Z"/>
  <path fill="#66A9EB" stroke="#333" stroke-miterlimit="10" stroke-width=".783" d="M20.537 25.025a4.487 4.487 0 1 0 0-8.975 4.487 4.487 0 0 0 0 8.975Z"/>
  <path fill="#D3E2F1" stroke="#333" stroke-linecap="round" stroke-linejoin="round" stroke-width=".783" d="M14.89 55.883c.316-.606.208-1.287-.242-1.522-.45-.235-1.07.066-1.387.672-.317.606-.209 1.287.24 1.522.45.235 1.072-.066 1.388-.672Zm4.395.42c.213-.572-.02-1.186-.518-1.371-.5-.186-1.076.128-1.289.7-.212.571.02 1.185.519 1.37.499.186 1.075-.127 1.288-.699Zm3.796.691c.5-.185.731-.799.519-1.37-.213-.573-.79-.886-1.289-.7-.498.185-.73.799-.518 1.37.213.573.79.886 1.288.7Zm4.492-.431c.45-.235.557-.916.24-1.522-.316-.606-.937-.907-1.387-.672-.45.235-.557.916-.24 1.522.316.606.937.907 1.387.672Z"/>
</svg>
