<svg xmlns="http://www.w3.org/2000/svg" width="62" height="56" fill="none" viewBox="0 0 62 56">
  <path fill="#323333" d="M30.911 27.414v9.839l6.705 4.233h-20.38l6.705-4.233v-9.839"/>
  <path stroke="#333" stroke-linecap="round" stroke-linejoin="round" stroke-width="1.497" d="M30.911 27.414v9.839l6.705 4.233h-20.38l6.705-4.233v-9.839"/>
  <path fill="#D3E2F1" d="M53.833.75H2.34a.73.73 0 0 0-.73.73v31.444c0 .403.326.73.73.73h51.493a.73.73 0 0 0 .73-.73V1.48a.73.73 0 0 0-.73-.73Z"/>
  <mask id="a" width="54" height="34" x="1" y="0" maskUnits="userSpaceOnUse" style="mask-type:luminance">
    <path fill="#fff" d="M53.833.75H2.34a.73.73 0 0 0-.73.73v31.444c0 .403.326.73.73.73h51.493a.73.73 0 0 0 .73-.73V1.48a.73.73 0 0 0-.73-.73Z"/>
  </mask>
  <g mask="url(#a)">
    <path fill="#323333" d="M63.281 30.021H-7.724v9.56h71.005v-9.56Z"/>
  </g>
  <path stroke="#333" stroke-miterlimit="10" stroke-width="1.497" d="M53.833.75H2.34a.73.73 0 0 0-.73.73v31.444c0 .403.326.73.73.73h51.493a.73.73 0 0 0 .73-.73V1.48a.73.73 0 0 0-.73-.73Z"/>
  <path fill="#C2BEBE" stroke="#333" stroke-linecap="round" stroke-linejoin="round" stroke-width=".225" d="M48.554 55.165H7.111c-1.19-.192-.896-1.55-.773-2.051l2.122-7.559a.796.796 0 0 1 .773-.605h37.2c.366 0 .683.25.772.605l2.122 7.559c.123.502.146 2.051-.773 2.051Z"/>
  <path fill="#C2BEBE" stroke="#333" stroke-linecap="round" stroke-linejoin="round" stroke-width=".225" d="M48.554 54.1H7.111a.796.796 0 0 1-.773-.986l2.123-8.626a.796.796 0 0 1 .772-.605h37.2c.366 0 .684.25.772.605l2.122 8.626a.796.796 0 0 1-.773.986Z"/>
  <path fill="#DFDDDD" stroke="#333" stroke-miterlimit="10" stroke-width=".167" d="M9.714 45.261h1.563c.163 0 .31-.06.326-.133l.07-.301c.017-.073-.102-.133-.266-.133H9.856c-.163 0-.31.058-.329.13l-.077.303c-.019.075.098.134.264.134Zm2.683.002h1.563c.163 0 .308-.06.323-.133l.058-.301c.013-.074-.106-.133-.27-.133h-1.55c-.164 0-.308.058-.326.13l-.067.303c-.017.074.104.134.267.134h.002Zm2.683.002h1.564c.163 0 .305-.06.319-.133l.048-.301c.012-.074-.111-.133-.273-.133h-1.551c-.164 0-.306.057-.32.13l-.055.302c-.014.075.107.135.27.135h-.001Zm2.686.002h1.563c.163 0 .304-.06.313-.133l.037-.302c.01-.073-.115-.132-.279-.132h-1.55c-.163 0-.304.057-.315.13l-.046.302c-.012.075.113.135.276.135h.002Zm2.684.002h1.563c.163 0 .302-.06.31-.133l.026-.302c.006-.073-.119-.132-.282-.132h-1.552c-.163 0-.302.058-.31.13l-.034.302c-.01.075.117.135.28.135h-.001Zm2.684.001h1.562c.164 0 .3-.059.304-.132l.017-.302c.004-.073-.125-.132-.288-.132h-1.551c-.164 0-.3.057-.306.13l-.025.302c-.006.075.121.135.287.135Zm2.683.003h1.563c.163 0 .298-.06.3-.133l.006-.302c0-.073-.13-.132-.293-.132h-1.551c-.163 0-.298.057-.302.13l-.013.302c-.004.075.127.135.29.135Zm2.683.002h1.564c.163 0 .296-.06.294-.133l-.004-.302c0-.073-.135-.132-.296-.132h-1.552c-.163 0-.296.057-.296.13l-.004.302c0 .075.131.135.297.135H28.5Zm2.684.002h1.563c.163 0 .294-.06.29-.133l-.015-.302c-.004-.073-.139-.133-.302-.133h-1.551c-.164 0-.294.058-.293.131l.006.302c0 .075.137.135.3.135h.002Zm2.686.002h1.562c.164 0 .293-.06.287-.133l-.025-.302c-.006-.073-.142-.133-.306-.133h-1.551c-.164 0-.292.058-.287.131l.018.302c.004.075.14.135.303.135h-.001Zm2.683.001h1.563c.163 0 .29-.06.28-.132l-.036-.302c-.01-.073-.148-.133-.311-.133h-1.551c-.164 0-.29.058-.283.131l.027.302c.008.075.146.134.31.134h.001Zm2.684.002H40.8c.163 0 .288-.06.276-.132l-.046-.302c-.011-.073-.152-.133-.315-.133h-1.551c-.164 0-.287.058-.28.13l.04.303c.009.075.15.134.313.134Zm2.685.002h1.563c.163 0 .286-.06.271-.133l-.058-.301c-.013-.073-.157-.133-.319-.133h-1.551c-.164 0-.285.058-.273.13l.048.303c.012.075.154.134.32.134Zm4.122-.564h-1.552c-.163 0-.282.057-.269.13l.06.302c.015.075.16.134.323.134h1.563c.163 0 .284-.06.267-.132l-.068-.302c-.017-.073-.161-.133-.324-.133Zm-36.68 1.8h.876c.148 0 .281-.054.298-.123l.171-.717c.016-.067-.09-.12-.236-.12h-.867c-.146 0-.279.053-.296.118l-.183.717c-.017.068.089.123.237.123v.002Zm1.832-.82-.158.682c-.017.077.104.14.275.14h1.498c.169 0 .319-.061.334-.14l.14-.682c.016-.077-.107-.139-.274-.139h-1.48c-.168 0-.318.06-.335.137v.002Zm4.554.684.117-.683c.013-.077-.112-.138-.279-.138h-1.48c-.167 0-.315.06-.33.136l-.135.683c-.016.077.11.14.279.14h1.497c.17 0 .317-.061.33-.14v.002Zm2.278.144c.169 0 .315-.063.327-.14l.094-.683c.01-.077-.117-.138-.285-.138h-1.48c-.167 0-.313.06-.325.136l-.113.683c-.014.077.113.14.282.14h1.498l.002.002Zm2.712-.959h-1.48c-.167 0-.311.06-.321.136l-.09.683c-.01.077.119.14.288.14h1.497c.17 0 .314-.061.322-.14l.07-.683c.008-.077-.12-.138-.288-.138l.002.002Zm2.576.001h-1.48c-.167 0-.31.06-.317.137l-.067.682c-.008.077.122.14.292.14h1.497c.17 0 .312-.06.317-.14l.05-.682c.006-.077-.125-.138-.292-.138v.002Zm2.576.002h-1.48c-.168 0-.308.06-.312.137l-.044.682c-.006.077.129.14.298.14h1.498c.169 0 .309-.06.311-.14l.027-.682c.004-.077-.13-.138-.298-.138v.002Zm2.578.003h-1.48c-.168 0-.306.06-.308.136l-.023.683c-.002.076.133.14.302.14h1.497c.17 0 .308-.062.308-.14l.004-.683c0-.077-.135-.138-.302-.138l.002.002Zm2.599.963c.169 0 .305-.064.302-.14l-.02-.683c-.002-.077-.14-.139-.307-.139h-1.48c-.168 0-.304.06-.304.137v.682c0 .077.138.14.307.14h1.498l.004.003Zm2.608.002c.17 0 .304-.064.298-.14l-.042-.683c-.004-.077-.144-.139-.311-.139h-1.48c-.168 0-.3.06-.299.137l.024.682c.002.077.142.14.311.142h1.499Zm.748-.823.046.682c.006.077.147.14.316.142h1.5c.168 0 .299-.061.293-.14l-.063-.682c-.008-.077-.148-.139-.316-.139h-1.48c-.167 0-.298.06-.294.137h-.002Zm2.582.002.069.682c.008.077.152.14.321.142h1.5c.169 0 .297-.061.288-.14l-.087-.682c-.01-.077-.154-.139-.32-.139h-1.48c-.168 0-.297.06-.29.137h-.001Zm2.582.001.09.683c.01.077.156.14.325.142h1.5c.168 0 .295-.061.284-.14l-.11-.683c-.011-.076-.157-.138-.325-.138h-1.48c-.167 0-.294.06-.284.136Zm6.678-.132-3.855-.004c-.146 0-.257.054-.246.121l.12.717c.011.07.14.123.29.125l3.9.004c.148 0 .258-.056.242-.123l-.16-.717c-.014-.067-.145-.121-.291-.121v-.002Zm-8.009 2.111-.08-.706c-.01-.079-.154-.142-.325-.142h-1.506c-.169 0-.301.062-.296.142l.062.706c.008.08.152.146.325.146h1.522c.173 0 .304-.064.296-.144l.002-.002Zm2.645.001-.103-.705c-.012-.079-.16-.142-.33-.142h-1.504c-.17 0-.3.061-.29.142l.084.706c.01.08.157.146.329.146h1.522c.173 0 .302-.064.29-.145l.002-.001Zm2.644.003-.127-.706c-.014-.079-.164-.142-.333-.142h-1.505c-.17 0-.298.061-.286.142l.107.706c.012.08.162.146.335.146h1.522c.173 0 .3-.064.287-.144v-.002Zm-7.932-.006-.056-.706c-.005-.079-.15-.142-.319-.142h-1.505c-.17 0-.304.061-.3.142l.039.706c.003.08.148.146.319.146h1.522c.173 0 .306-.064.3-.144v-.002Zm-2.643-.002-.033-.706c-.004-.078-.144-.142-.315-.142H31.12c-.17 0-.306.061-.306.142l.014.706c0 .08.142.146.315.146h1.522c.173 0 .31-.064.306-.144l.002-.002Zm-4.777-.708-.01.706c0 .08.139.146.31.146h1.522c.173 0 .312-.063.31-.144l-.01-.706c0-.078-.14-.142-.31-.142h-1.505c-.169 0-.309.061-.309.142l.002-.002Zm-2.62-.001-.033.705c-.004.08.133.146.306.146h1.522c.174 0 .314-.063.316-.144l.013-.706c0-.078-.134-.142-.306-.142H25.89c-.169 0-.311.062-.315.142v-.002Zm-2.62-.002-.056.705c-.006.08.129.146.3.146h1.522c.173 0 .316-.063.32-.144l.036-.706c.004-.078-.13-.142-.3-.142h-1.503c-.17 0-.314.062-.32.142v-.001Zm-2.62-.004-.08.705c-.009.081.124.146.297.146h1.522c.173 0 .318-.063.325-.144l.06-.705c.006-.08-.125-.143-.296-.143H20.66c-.17 0-.316.062-.323.143l-.002-.002Zm-.579.705.083-.705c.01-.079-.121-.142-.29-.142h-1.504c-.17 0-.317.061-.329.14l-.102.705c-.011.081.12.146.29.146h1.523c.173 0 .32-.063.329-.144Zm-4.5.143h1.522c.173 0 .321-.064.335-.145l.107-.705c.012-.079-.115-.142-.286-.142H15.43c-.17 0-.32.061-.333.14l-.125.706c-.013.08.114.146.287.146h-.004Zm-2.442-.996c-.169 0-.32.063-.338.142l-.148.704c-.017.08.11.146.28.146h1.523c.173 0 .323-.064.338-.145l.131-.703c.016-.079-.111-.142-.28-.142h-1.504l-.002-.002Zm-3.796.99h2.522c.14.002.267-.052.28-.118l.166-.757c.013-.065-.087-.117-.227-.117H9.268c-.139-.002-.266.05-.28.115l-.195.757c-.017.066.083.12.225.12Zm37.547-.963h-2.492c-.138-.002-.242.05-.23.115l.14.757c.012.066.137.12.277.12h2.524c.14.001.242-.052.229-.118l-.17-.757c-.013-.066-.138-.117-.276-.117h-.002Zm-11.359 2.329h1.55c.174 0 .309-.065.301-.15l-.071-.728c-.008-.08-.154-.148-.327-.148h-1.53c-.173 0-.308.065-.302.146l.05.729c.006.082.152.15.327.151h.002Zm2.7.002h1.55c.175 0 .307-.065.298-.15l-.094-.728c-.012-.08-.16-.148-.333-.148h-1.53c-.173 0-.306.065-.298.146l.075.728c.008.083.157.15.332.152Zm2.704.002h1.549c.175 0 .305-.065.292-.15l-.12-.728c-.013-.081-.163-.148-.336-.148h-1.53c-.173 0-.304.065-.292.146l.1.728c.011.083.163.15.338.152h-.002Zm-8.105-.005h1.55c.174 0 .313-.066.307-.15l-.046-.729c-.006-.08-.15-.148-.323-.148h-1.53c-.174 0-.312.065-.308.146l.027.729c.004.082.148.15.323.152Zm-.84-.152-.021-.729c-.002-.08-.145-.148-.318-.148h-1.53c-.173 0-.313.066-.313.146v.729c.002.082.144.15.319.152h1.55c.174 0 .315-.066.313-.15Zm-2.697-.002v-.729c.002-.08-.139-.148-.31-.148H27.13c-.173 0-.315.066-.317.146l-.021.729c-.002.083.136.15.313.152h1.55c.174 0 .316-.066.316-.15h-.003Zm-2.696-.003.027-.728c.004-.08-.134-.148-.307-.148h-1.529c-.172 0-.317.066-.323.146l-.046.729c-.005.082.133.15.308.152h1.55c.174 0 .318-.066.322-.15h-.002Zm-2.696-.001.05-.729c.005-.08-.131-.148-.302-.148h-1.529c-.173 0-.319.066-.326.146l-.07.729c-.007.083.127.15.302.152h1.55c.175 0 .32-.066.326-.15h-.001Zm-4.577.146h1.549c.175 0 .323-.065.333-.15l.075-.728c.007-.081-.125-.148-.298-.148h-1.529c-.173 0-.32.065-.332.146l-.094.728c-.012.083.123.15.298.152h-.002Zm-2.701-.002h1.549c.175 0 .327-.065.338-.15l.098-.728c.012-.081-.119-.148-.292-.148h-1.528c-.173 0-.323.065-.337.146l-.119.728c-.013.083.118.15.292.152h-.001Zm-.81-.15.123-.728c.014-.081-.115-.148-.288-.148h-1.528c-.173 0-.325.065-.342.146l-.143.728c-.015.083.112.15.287.152h1.55c.174 0 .328-.065.341-.15Zm-6.82.144 3.843.004c.138 0 .26-.054.273-.119l.16-.792c.013-.063-.087-.115-.224-.117l-3.795-.004c-.136 0-.26.052-.276.115l-.202.792c-.017.066.08.12.219.12l.002.001Zm38.194-.995-3.796-.004c-.137 0-.239.052-.227.115l.135.792c.011.065.132.12.269.12l3.844.003c.139 0 .239-.054.223-.12l-.177-.791c-.013-.063-.136-.115-.273-.117l.002.002Zm-8.771 1.348h-1.555c-.175 0-.313.068-.306.153l.066.753c.007.087.157.156.336.156h1.576c.18 0 .316-.07.306-.154l-.085-.753c-.01-.085-.16-.152-.334-.152l-.004-.002Zm2.916 1.064c.179 0 .312-.07.3-.156l-.11-.753c-.011-.085-.165-.152-.34-.152h-1.555c-.175 0-.31.067-.3.152l.09.753c.01.087.164.156.34.156h1.577-.002Zm-5.68-1.065h-1.555c-.175 0-.316.067-.31.152l.038.753c.004.087.152.156.331.156h1.576c.18 0 .318-.07.31-.154l-.06-.753c-.005-.085-.153-.152-.33-.152v-.002Zm-2.764-.002h-1.556c-.175 0-.317.067-.315.152l.014.754c0 .086.148.155.325.155h1.574c.179 0 .319-.069.315-.154l-.035-.753c-.003-.085-.15-.152-.324-.152l.002-.002Zm-4.333 1.057h1.574c.179 0 .32-.069.32-.153l-.007-.754c0-.084-.144-.152-.319-.152h-1.555c-.175 0-.32.068-.321.152l-.012.754c0 .086.143.155.32.155v-.002Zm-2.801-.001h1.574c.179 0 .325-.07.327-.154l.017-.754c0-.084-.138-.152-.315-.152h-1.555c-.175 0-.321.068-.325.152l-.037.754c-.003.086.137.156.316.156l-.002-.002Zm-2.799-.003h1.574c.179 0 .327-.069.33-.153l.043-.754c.004-.084-.134-.152-.31-.152h-1.555c-.174 0-.322.068-.33.152l-.064.754c-.007.086.131.155.31.155l.002-.001Zm-2.801-.001h1.574c.179 0 .329-.07.337-.154l.067-.754c.008-.084-.129-.151-.304-.151h-1.555c-.175 0-.327.067-.336.151l-.089.754c-.01.086.127.156.304.156l.002-.002Zm-1.09-1.063h-1.555c-.175 0-.329.067-.342.151l-.114.754c-.013.087.121.156.298.156h1.575c.178 0 .33-.07.342-.154l.094-.754c.01-.084-.123-.151-.3-.151l.002-.002Zm-2.764-.002H14.42c-.175 0-.33.067-.346.152l-.139.753c-.015.087.116.156.294.156h1.575c.179 0 .332-.07.346-.154l.119-.754c.014-.084-.12-.151-.294-.151v-.002Zm-2.772-.002-4.543-.004c-.18 0-.344.07-.367.156l-.19.746c-.023.088.108.16.29.16l4.6.003c.183 0 .345-.071.362-.16l.142-.745c.017-.087-.115-.156-.296-.158l.002.002Zm33.881.025-5.01-.004c-.18 0-.315.07-.302.156l.116.745c.013.089.172.16.355.16l5.075.004c.183 0 .315-.071.296-.16l-.165-.745c-.02-.087-.18-.156-.362-.158l-.004.002ZM35.196 51.03h-1.584c-.179 0-.321.07-.317.158l.038.782c.004.089.156.162.337.162h1.605c.18 0 .323-.072.315-.16l-.06-.782c-.005-.089-.157-.158-.336-.158l.002-.002Zm2.92.002h-1.584c-.179 0-.32.07-.311.158l.065.782c.008.088.161.161.342.161h1.605c.18 0 .321-.07.312-.16l-.087-.781c-.01-.089-.163-.158-.342-.158v-.002Zm-19.813-.015h-1.584c-.179 0-.335.069-.348.157l-.121.783c-.014.088.123.161.303.161h1.606c.18 0 .338-.071.35-.16l.1-.782c.01-.086-.126-.157-.304-.157l-.002-.002Zm-2.817-.002h-1.584c-.178 0-.336.069-.353.157l-.146.783c-.018.088.117.161.298.161h1.605c.18 0 .34-.07.353-.16l.125-.782c.014-.086-.119-.157-.298-.157v-.002Zm-2.814-.005h-1.584c-.179 0-.34.07-.36.157l-.172.782c-.02.088.111.161.292.161h1.605c.18 0 .342-.07.36-.16l.151-.782c.018-.086-.113-.157-.294-.157h.002Zm-2.816-.001H8.272c-.179 0-.342.069-.365.155l-.2.783c-.023.088.106.161.286.161h1.605c.181 0 .344-.07.366-.16l.178-.782c.02-.086-.11-.157-.288-.157h.002Zm34.671.594h-1.751c-.175 0-.306.067-.292.154l.034.225c.014.086.167.157.342.157h1.763c.175 0 .306-.069.288-.155l-.042-.225c-.015-.087-.17-.156-.346-.156h.004Zm3.032.002h-1.752c-.175 0-.302.067-.286.154l.044.224c.017.087.173.158.348.158h1.763c.175 0 .301-.07.282-.156l-.05-.225c-.019-.086-.177-.155-.35-.155Zm-6.064-.006h-1.75c-.176 0-.308.067-.299.154l.027.225c.01.086.162.157.337.157h1.762c.175 0 .308-.069.294-.155l-.034-.225c-.014-.087-.165-.156-.34-.156h.004Zm2.89-.767h-1.736c-.173 0-.302.067-.288.15l.034.221c.014.085.165.154.34.154h1.748c.175 0 .302-.068.286-.152l-.04-.221c-.015-.085-.17-.152-.342-.152h-.002Zm-12.159.194-12.537-.01c-.206 0-.383.081-.394.183l-.087.733c-.011.101.148.186.356.186l12.702.01c.21 0 .375-.083.372-.187l-.031-.734c-.004-.1-.175-.183-.38-.183v.002Z"/>
  <path fill="#ABA8A8" stroke="#333" stroke-miterlimit="10" stroke-width=".323" d="M60.815 48.456c.025.104.469 2.132-.894 3.6-.206.224-.815.86-1.772 1.039-1.655.307-3.497-.912-4.11-2.519-.765-1.997.263-4.98 2.287-5.4 1.996-.413 4.035 1.358 4.49 3.282l-.001-.002Z"/>
  <path fill="#C2BEBE" d="M60.807 48.343c.08 1.459-.822 3.24-2.558 3.658-1.802.432-3.51-.846-4.08-2.295-.759-1.94.397-4.516 2.423-4.928 2.026-.41 4.104 1.51 4.215 3.565Z"/>
  <mask id="b" width="8" height="9" x="53" y="44" maskUnits="userSpaceOnUse" style="mask-type:luminance">
    <path fill="#fff" d="M60.807 48.343c.08 1.459-.822 3.24-2.558 3.658-1.802.432-3.51-.846-4.08-2.295-.759-1.94.397-4.516 2.423-4.928 2.026-.41 4.104 1.51 4.215 3.565Z"/>
  </mask>
  <g mask="url(#b)">
    <path stroke="#333" stroke-linecap="round" stroke-linejoin="round" stroke-width=".323" d="M52.459 48.83c.253-.343 1.79-2.352 4.62-2.7 2.886-.354 4.891 1.295 5.21 1.569m-6.347-3.493a1.98 1.98 0 0 1 1.09.8c.265.401.315.803.32 1.043"/>
    <path fill="#333" d="M57.59 45.4a.136.136 0 0 0-.008-.047c0-.006-.004-.011-.006-.017l-.025-.07c0-.003-.004-.009-.006-.013a.463.463 0 0 0-.03-.07s0-.005-.002-.007v-.002a1.122 1.122 0 0 1-.045-.057l-.004-.004-.057-.044h-.002a.232.232 0 0 0-.039-.016.231.231 0 0 0-.038-.015c-.046-.015-.102-.012-.152-.013h-.086a.243.243 0 0 0-.112.025.196.196 0 0 0-.092.06.217.217 0 0 0-.06.091.22.22 0 0 0-.025.112c.004.025.008.052.01.077a.26.26 0 0 0 .038.08c0 .01 0 .02.004.03.004.017.012.03.017.045.022.05.03.062.072.112.02.025.048.042.075.06a.335.335 0 0 0 .11.042.492.492 0 0 0 .223 0c.003 0 .007 0 .01-.002h.006a.576.576 0 0 0 .072-.03c.015-.009.024-.018.038-.028 0 0 .023-.015.033-.025l.002-.002.044-.057a.227.227 0 0 0 .032-.077c.004-.014.004-.025.006-.043 0-.005.006-.03.006-.044a.229.229 0 0 0-.006-.044l-.004-.008Z"/>
  </g>
  <path stroke="#333" stroke-miterlimit="10" stroke-width=".323" d="M60.807 48.343c.08 1.459-.822 3.24-2.558 3.658-1.802.432-3.51-.846-4.08-2.295-.759-1.94.397-4.516 2.423-4.928 2.026-.41 4.104 1.51 4.215 3.565Z"/>
</svg>
