<svg xmlns="http://www.w3.org/2000/svg" width="39" height="81" fill="none" viewBox="0 0 39 81">
  <path fill="#66A9EB" d="M7.006 53.724a80.737 80.737 0 0 0 4.734 24.25h4.731c.301-3.995 1.022-8.51 1.608-10.853.855-3.4 1.338-3.943 1.687-3.939.242.003.771.268 1.633 4.108.494 2.203.973 6.983 1.148 10.948l5.033-.263a80.808 80.808 0 0 0 4.734-24.251c-1.24-1.25-4.607-4.301-9.846-5.12-8.525-1.334-14.69 4.382-15.462 5.12Z"/>
  <mask id="a" width="26" height="31" x="7" y="48" maskUnits="userSpaceOnUse" style="mask-type:luminance">
    <path fill="#fff" d="M7.006 53.724a80.737 80.737 0 0 0 4.734 24.25h4.731c.301-3.995 1.022-8.51 1.608-10.853.855-3.4 1.338-3.943 1.687-3.939.242.003.771.268 1.633 4.108.494 2.203.973 6.983 1.148 10.948l5.033-.263a80.808 80.808 0 0 0 4.734-24.251c-1.24-1.25-4.607-4.301-9.846-5.12-8.525-1.334-14.69 4.382-15.462 5.12Z"/>
  </mask>
  <g mask="url(#a)">
    <path fill="#7D5045" d="M29.741 64.336c-1.039.074-1.79.916-2.014 1.893-.233 1.015.679 3.365-.409 3.875-.538.253-1.26-.03-1.858.191-.463.171-.83.494-1.11.894-.76 1.09-.54 2.392-.215 3.598.211.784 1.066.855 1.569.481.23.158.49.286.762.371l-.154.39c-.353.893 1.057 1.73 1.652.961 1.711-2.21 3.513-4.527 4.068-7.336.337-1.7.38-5.512-2.29-5.318Zm-5.256 2.55c-.57-.587-1.602-.428-1.832.413-.073.263-.029.564-.02.832l.033.907c.011.334.18.635.44.816.291.384.865.531 1.286.265 1.18-.738.97-2.33.09-3.235l.003.002Zm-.105-3.543a26.758 26.758 0 0 1-.244-.319.736.736 0 0 0-.255-.277.732.732 0 0 0-.336-.178.748.748 0 0 0-.394-.017.753.753 0 0 0-.366.116c-.211.136-.398.339-.455.591l-.035.264c0 .178.046.345.134.498l.244.319a.736.736 0 0 0 .254.277.733.733 0 0 0 .336.178.75.75 0 0 0 .394.017.753.753 0 0 0 .366-.116c.211-.136.398-.339.455-.591l.035-.264a.992.992 0 0 0-.134-.498ZM17.792 72.2a.896.896 0 0 0 .048-.45c-.191-1.503-1.349-2.18-2.796-2.19-1.013-.008-1.72.29-2.234-.81-.3-.64-.565-1.273-1.18-1.689-1.072-.722-2.443-.322-2.933.873-.604 1.47.486 3.073 1.294 4.24.238.342.495.735.771 1.133.007.048.018.096.022.145.064.722-.232 1.423.233 2.075.413.582 1.035.73 1.707.802 1.502.163 3.198.136 4.382-.947.855-.78 1.373-2.137.688-3.185l-.002.002Zm-1.032-7.291c-.376-.35-.862-.479-1.354-.45.035-.519-.279-1.064-.949-1.064a.922.922 0 0 0-.604.205 4.104 4.104 0 0 0-.281-.018 1.09 1.09 0 0 0-.554-.022l-.56.121c-.507.108-.848.73-.69 1.217.178.547.67.789 1.217.69a.915.915 0 0 0 .077-.016h.027a4.056 4.056 0 0 1 .82.011c-.003.031-.005.064-.003.097.044 1.37 1.63 1.98 2.704 1.239.696-.479.78-1.426.154-2.008l-.005-.002Z"/>
  </g>
  <path fill="#A8D471" d="M38.12 53.399c-.827-12.785-1.24-19.177-6.443-22.33-.976-.59-2.575-1.355-4.921-1.638H12.379c-2.346.286-3.943 1.048-4.92 1.639-5.204 3.15-5.617 9.544-6.443 22.329-.027.393-.09 1.361.53 1.961.8.776 2.286.866 3.246.136.105-.08.494-.41.813-.988.533-.969.478-1.927.428-2.36h.252a2.91 2.91 0 0 0 1.554 1.139 40.808 40.808 0 0 0 11.738 1.761c4.853.013 8.94-.841 11.972-1.761a2.9 2.9 0 0 0 1.553-1.138c-.05.432-.105 1.39.428 2.359.319.578.708.907.813.988.96.73 2.445.64 3.247-.136.62-.6.553-1.568.53-1.961Z"/>
  <mask id="b" width="38" height="27" x="1" y="29" maskUnits="userSpaceOnUse" style="mask-type:luminance">
    <path fill="#fff" d="M38.12 53.399c-.827-12.785-1.24-19.177-6.443-22.33-.976-.59-2.575-1.355-4.921-1.638H12.379c-2.346.286-3.943 1.048-4.92 1.639-5.204 3.15-5.617 9.544-6.443 22.329-.027.393-.09 1.361.53 1.961.8.776 2.286.866 3.246.136.105-.08.494-.41.813-.988.533-.969.478-1.927.428-2.36h.252a2.91 2.91 0 0 0 1.554 1.139 40.808 40.808 0 0 0 11.738 1.761c4.853.013 8.94-.841 11.972-1.761a2.9 2.9 0 0 0 1.553-1.138c-.05.432-.105 1.39.428 2.359.319.578.708.907.813.988.96.73 2.445.64 3.247-.136.62-.6.553-1.568.53-1.961Z"/>
  </mask>
  <g mask="url(#b)">
    <path fill="#7D5045" d="M30.398 46.857c-1.667-.496-3.468.213-4.652 1.408-.56.565-.938 1.267-1.444 1.876-.162.193-.382.338-.733.47-1.417.532-2.85.804-4.011 1.863-1.347 1.226-1.872 3.014-1.444 4.77.466 1.916 2.322 2.31 3.726 1.686a2.64 2.64 0 0 0 1.331-.097 49.736 49.736 0 0 0 4.598-1.737c1.403-.607 2.829-1.22 4.017-2.197 2.827-2.328 2.32-6.935-1.39-8.038l.002-.004Zm9.626-8.892-1.202-4.086c-.288-.98-.938-1.553-1.69-1.792-.129-1.558-1.436-3.058-3.389-2.524-3.013.821-4.265 4.325-2.49 6.886.634.916.72.81.692 2.147-.03 1.405.127 2.842.95 4.024 1.872 2.684 6.13 2.576 7.309-.69.479-1.329.202-2.65-.182-3.963l.002-.002Zm-2.64 1.566.087.093c-.024.002-.31 1.014-.088-.093Zm-7.561-2.983c-.066-.354-.332-.578-.644-.666-.101-.224-.305-.404-.64-.463-1.51-.275-3.802-.09-3.852 1.968-.022.92.69 1.342 1.08 2.07.521.966-.239 1.838-.006 2.822.437 1.85 2.52 1.208 3.385.116 1.338-1.687 1.048-3.877.677-5.845v-.002Zm-6.601 3.502c-.664-.05-1.338.25-1.813.72-.287.286-.51.642-.72.984-.057.093-.136.253-.226.4a1.713 1.713 0 0 0-.405.08c-.5.173-.839.636-.801 1.174.022.319.165.716.49.855.645.274 1.186.123 1.647-.246.119-.027.237-.057.354-.1.402-.14.784-.329 1.129-.579a4.33 4.33 0 0 0 1.291-1.478c.143-.132.253-.297.301-.466.033-.114.04-.222.033-.327.174-.763-.628-1.202-1.276-1.02l-.004.003Z"/>
    <path fill="#7D5045" d="M30.477 30.21c-.27-.99-1.566-.84-1.878-.098-.316-.158-.646-.215-.995-.242-.026 0-.048-.004-.072-.004.294-.92-1.182-1.652-1.85-.718-.488.68-.356 1.662.257 2.22.36.328.822.424 1.292.462.285.022.474-.031.643.21.22.313.273.675.64.89.463.27 1.054.207 1.45-.154.68-.621.737-1.735.511-2.565h.002ZM10.532 49.833c-.266-.076-.589-.01-.84-.105-.327-.123-.535-.52-.762-.78-.863-.995-2.71-1.49-3.371.02-.167.384-.09.751.105 1.028-.213.474-.193 1.094.185 1.546.177.211.395.38.639.503a2.93 2.93 0 0 0 1.99 1.204c1.23.16 3.003-.617 3.047-2.047.02-.63-.38-1.193-.993-1.37v.001Zm1.851-3.403c-.048-.612-.035-1.273-.166-1.875-.152-.69-.802-1.217-1.527-1.017-.685.189-1.026.91-1.044 1.57-.017.622.22 1.14.6 1.615a.74.74 0 0 0 .332.23.945.945 0 0 0 .817.464c.5 0 1.032-.452.988-.988v.002Zm1.819-3.852a.736.736 0 0 0-.204-.319c-.189-.173-.435-.3-.699-.29-.088.011-.175.025-.263.036a.993.993 0 0 0-.437.255l-.336.26a.736.736 0 0 0-.205.32.755.755 0 0 0-.085.38.75.75 0 0 0 .085.38c.04.122.108.228.205.318.188.174.434.3.698.29l.264-.035a.993.993 0 0 0 .437-.255l.336-.261a.736.736 0 0 0 .204-.319.755.755 0 0 0 .086-.38.75.75 0 0 0-.086-.38ZM9.48 28.722c-.657.283-1.191.858-1.751 1.368-.053.007-.108.013-.165.029-.876.228-1.612.639-2.295 1.225a.682.682 0 0 0-.104.108c-1.186.134-1.168 2.02.077 1.966 1.243-.055 2.436-.347 3.539-.93.898-.476 2.377-1.416 2.577-2.497.213-1.15-.956-1.665-1.879-1.267v-.002Z"/>
  </g>
  <path fill="#F3D2BA" d="M31.264 19.933c.006 1.05.096 5.423-2.876 8.244-1.81 1.717-4.615 2.76-8.802 2.76-4.187 0-6.994-1.043-8.802-2.76-2.976-2.825-2.884-7.155-2.875-8.244 1.322-5.198 5.821-8.936 10.994-9.226 5.643-.317 10.895 3.534 12.363 9.226h-.002Z"/>
  <mask id="c" width="25" height="21" x="7" y="10" maskUnits="userSpaceOnUse" style="mask-type:luminance">
    <path fill="#fff" d="M31.264 19.933c.006 1.05.096 5.423-2.876 8.244-1.81 1.717-4.615 2.76-8.802 2.76-4.187 0-6.994-1.043-8.802-2.76-2.976-2.825-2.884-7.155-2.875-8.244 1.322-5.198 5.821-8.936 10.994-9.226 5.643-.317 10.895 3.534 12.363 9.226h-.002Z"/>
  </mask>
  <g mask="url(#c)">
    <path fill="#7D5045" d="M15.136 28.003c-.405-.61-.78-1.329-1.437-1.7-.325-.182-.68-.237-1.048-.244-.503-.009-.483.033-.788-.369-.938-1.24-3.084-.762-2.65.976.108.428.407.643.739.691.046.134.123.266.243.39 1.02 1.034 2.412 2.47 3.82 2.95.63.215 1.386.006 1.707-.616.393-.764-.178-1.465-.584-2.078h-.002ZM11.79 23.66a2.302 2.302 0 0 0-.213-.445 3.944 3.944 0 0 0-.327-.49c-.062-.082-.123-.174-.196-.244-.16-.156-.41-.24-.63-.171-.209.066-.391.235-.433.457-.035.188-.02.388-.018.582l-.002.022c-.017.344.128.687.36.935.132.14.315.26.501.31.273.073.55.007.76-.178.216-.187.277-.51.198-.775v-.003Zm.589.394c-.707 0-.707 1.097 0 1.097.706 0 .706-1.097 0-1.097Zm15.209 1.449c-.204-.28-.505-.48-.863-.478-.35 0-.676.193-.9.452a4.77 4.77 0 0 0-.178.226l-.044.058a2.354 2.354 0 0 1-.268.274l-.053.04c-.055.037-.11.072-.167.103-.094.053-.195.092-.294.138-.383.176-.642.545-.556.978a.8.8 0 0 0 .382.53c.2.113.409.12.613.065.143.05.305.037.463-.035.007-.004.012-.004.016-.007.033-.01.066-.024.099-.035.055-.02.112-.037.167-.055.132-.04.265-.077.4-.118.311-.101.604-.233.858-.442.481-.393.714-1.15.325-1.69v-.004Zm3.159-2.243a.729.729 0 0 0-.79-.16.922.922 0 0 0-.48.468c-.024.05-.044.103-.065.156a.548.548 0 0 0-.134.095c-.495.483-.925 1.162-1.028 1.856-.07.47.061.94.494 1.192.373.22.863.172 1.21-.074.356-.253.547-.635.652-1.05.095-.37.17-.745.255-1.116.106-.47.266-.973-.114-1.369v.003Z"/>
  </g>
  <path fill="#F3D2BA" d="M8.408 24.8a2 2 0 0 1-.503.049c-1.046-.035-2.588-.958-2.588-2.588a2.6 2.6 0 0 1 2.588-2.587l.503 5.124v.003Zm22.858-5.122a2.588 2.588 0 1 1-.488 5.13l.488-5.128v-.002Z"/>
  <path fill="#7D5045" d="M32.555 9.826c-2.445-5.43-8.995-8.07-13.904-6.825a9.64 9.64 0 0 0-2.883 1.272l-1.23.21a8.434 8.434 0 0 0-3.306.467c-3.692 1.322-5.14 4.89-5.425 5.594-1.839 4.532.307 8.734.652 9.384l1.595-.355a13.817 13.817 0 0 0 8.42-6.445l-.288-1.028c.534 1.485 1.577 3.44 3.611 4.632 1.468.861 4.073 1.694 5.105.752.868.575 1.786.938 2.59 1.252.91.355 2.183.753 3.776.938l1.184.048c.4-.949 2.148-5.367.105-9.898l-.002.002Z"/>
  <path fill="#A8D471" d="M14.207 75.126a4.292 4.292 0 0 1 4.29 4.29V80H9.914v-.584a4.292 4.292 0 0 1 4.29-4.29h.002Zm10.757 0a4.292 4.292 0 0 1 4.29 4.29V80H20.67v-.584a4.292 4.292 0 0 1 4.29-4.29h.003Z"/>
  <path fill="#F3D2BA" d="m34.936 61.21-.11 1.513a1.33 1.33 0 0 0 1.226 1.422c.229-.007.62-.055.965-.319.415-.316.546-.778.623-1.092.449-1.814.332-3.418.332-3.418a17.318 17.318 0 0 0-.595-3.422l-2.84.224-.464 3.68a.956.956 0 1 0 1.904.127l.014-1.764M4.05 61.21l.11 1.513a1.33 1.33 0 0 1-1.227 1.422c-.228-.007-.619-.055-.964-.319-.415-.316-.547-.778-.624-1.092-.448-1.814-.331-3.418-.331-3.418.061-.86.21-2.043.595-3.422l2.84.224.464 3.68a.956.956 0 1 1-1.905.127l-.013-1.764"/>
  <path stroke="#333" stroke-linecap="round" stroke-linejoin="round" stroke-width="1.008" d="M26.756 29.526c2.346.285 3.943 1.047 4.92 1.638 5.204 3.15 5.617 9.545 6.443 22.33.027.392.09 1.361-.53 1.96-.8.776-2.286.866-3.246.137a3.324 3.324 0 0 1-.813-.989c-.533-.968-.478-1.926-.428-2.359"/>
  <path stroke="#333" stroke-linecap="round" stroke-linejoin="round" stroke-width="1.008" d="M31.356 20.005c.006 1.05.096 5.417-2.871 8.233-1.808 1.716-4.61 2.757-8.793 2.757-4.183 0-6.986-1.041-8.793-2.757-2.973-2.82-2.88-7.145-2.871-8.233m7.808-9.454c.238 1.151 1.094 4.518 4.064 6.263 1.518.892 4.262 1.755 5.209.637.652-.771.256-2.258-.297-3.133-.734-1.157-2.192-1.93-2.605-1.583-.444.369.228 2.09 1.111 3.264 1.217 1.619 2.909 2.282 4.268 2.816a15.07 15.07 0 0 0 3.772.938"/>
  <path stroke="#333" stroke-linecap="round" stroke-linejoin="round" stroke-width="1.008" d="M16.583 13.211a13.824 13.824 0 0 1-3.413 3.943 13.833 13.833 0 0 1-4.998 2.495m.358 5.22a2 2 0 0 1-.503.048c-1.045-.035-2.583-.956-2.583-2.583a2.596 2.596 0 0 1 2.583-2.584m23.331 0a2.583 2.583 0 1 1-.485 5.12M15.878 4.365a9.625 9.625 0 0 1 2.88-1.27c4.903-1.243 11.445 1.395 13.887 6.817 2.039 4.527.294 8.938-.105 9.887m-25.96.206c-.345-.65-2.489-4.845-.652-9.373.285-.705 1.73-4.268 5.419-5.588a8.414 8.414 0 0 1 3.301-.466M29.14 36.775a51.683 51.683 0 0 1 1.869 4.261 51.813 51.813 0 0 1 2.559 9 2.923 2.923 0 0 1-2.023 3.345 40.839 40.839 0 0 1-11.972 1.762A40.804 40.804 0 0 1 7.834 53.38a2.925 2.925 0 0 1-2.02-3.345 51.812 51.812 0 0 1 2.558-9 50.94 50.94 0 0 1 1.87-4.261"/>
  <path stroke="#333" stroke-linecap="round" stroke-linejoin="round" stroke-width="1.008" d="M7.149 53.07a78.903 78.903 0 0 0 4.125 23.23m21.398-23.466a91.238 91.238 0 0 1-1.773 13.606 91.402 91.402 0 0 1-2.64 9.878m-11.489-.419c.354-3.392.931-6.823 1.42-8.765.851-3.396 1.337-3.936 1.684-3.934.242.002.769.268 1.63 4.101.4 1.777.786 5.235 1.015 8.585"/>
  <path stroke="#333" stroke-linecap="round" stroke-linejoin="round" stroke-width="1.008" d="M14.32 75.13a4.287 4.287 0 0 1 4.287 4.286V80h-8.572v-.584a4.287 4.287 0 0 1 4.286-4.286Zm10.745 0a4.287 4.287 0 0 1 4.285 4.286V80h-8.57v-.584a4.287 4.287 0 0 1 4.285-4.286Zm9.564-18.983-.464 3.672a.955.955 0 1 0 1.905.125l.013-1.761"/>
  <path stroke="#333" stroke-linecap="round" stroke-linejoin="round" stroke-width="1.008" d="m35.024 61.234-.11 1.511a1.327 1.327 0 0 0 1.226 1.42c.229-.007.617-.055.962-.319.415-.316.547-.775.624-1.092.446-1.812.332-3.413.332-3.413a17.487 17.487 0 0 0-.593-3.42M26.756 29.526c2.346.285 3.943 1.047 4.92 1.638 5.204 3.15 5.617 9.545 6.443 22.33.027.392.09 1.361-.53 1.96-.8.776-2.286.866-3.246.137a3.324 3.324 0 0 1-.813-.989c-.533-.968-.478-1.926-.428-2.359"/>
  <path stroke="#333" stroke-linecap="round" stroke-linejoin="round" stroke-width="1.008" d="m34.629 56.147-.464 3.672a.955.955 0 1 0 1.905.125l.013-1.761"/>
  <path stroke="#333" stroke-linecap="round" stroke-linejoin="round" stroke-width="1.008" d="m35.024 61.234-.11 1.511a1.327 1.327 0 0 0 1.226 1.42c.229-.007.617-.055.962-.319.415-.316.547-.775.624-1.092.446-1.812.332-3.413.332-3.413a17.487 17.487 0 0 0-.593-3.42M12.379 29.526c-2.346.285-3.943 1.047-4.92 1.638-5.204 3.15-5.617 9.545-6.443 22.33-.027.392-.09 1.361.53 1.96.8.776 2.286.866 3.246.137.105-.081.494-.41.813-.989.533-.968.478-1.926.428-2.359m-1.527 3.904.464 3.672a.955.955 0 1 1-1.905.126l-.013-1.762"/>
  <path stroke="#333" stroke-linecap="round" stroke-linejoin="round" stroke-width="1.008" d="m4.11 61.234.11 1.511a1.327 1.327 0 0 1-1.225 1.42c-.228-.007-.617-.055-.962-.319-.415-.316-.547-.775-.624-1.092-.446-1.812-.332-3.413-.332-3.413.062-.861.211-2.041.593-3.42"/>
  <path fill="#333" d="M24.375 25.277a1.36 1.36 0 0 1-1.36-1.36v-1.52a1.36 1.36 0 1 1 2.72 0v1.52a1.36 1.36 0 0 1-1.36 1.36Zm-9.365 0a1.36 1.36 0 0 1-1.36-1.36v-1.52a1.36 1.36 0 1 1 2.72 0v1.52a1.36 1.36 0 0 1-1.36 1.36Z"/>
  <path stroke="#333" stroke-linecap="round" stroke-linejoin="round" stroke-width=".755" d="M22.756 20.051a2.333 2.333 0 0 1 1.3-.562 2.345 2.345 0 0 1 1.549.422m-8.978.14a2.334 2.334 0 0 0-1.3-.562 2.346 2.346 0 0 0-1.549.422"/>
  <path stroke="#333" stroke-linecap="round" stroke-linejoin="round" stroke-width="1.008" d="M17.721 26.452a4.33 4.33 0 0 1 4.253.785"/>
  <path fill="#333" d="M30.77 10.406a5.392 5.392 0 0 0 2.824 1.2c.99.114 2.001-.095 2.889-.541a5.21 5.21 0 0 0 1.346-.984c.187-.187.202-.53 0-.714a.514.514 0 0 0-.714 0 5.18 5.18 0 0 1-.34.314c-.022.02-.046.037-.068.055-.06.05.06-.044-.002.002a4.679 4.679 0 0 1-.81.492c-.054.027-.109.049-.161.073.092-.042-.06.024-.084.033a4.578 4.578 0 0 1-.916.246c-.035.006-.165.02-.063.01-.06.007-.117.014-.176.018-.218.018-.435.02-.653.007-.052-.005-.105-.007-.158-.013l-.09-.01c-.006 0-.081-.01-.022-.001.05.006-.088-.016-.112-.02a5.157 5.157 0 0 1-.83-.224l-.17-.066a.39.39 0 0 0 .016.007l-.103-.047a4.458 4.458 0 0 1-.65-.37c-.05-.034-.1-.071-.147-.106-.047-.033.004.004.01.01l-.105-.085c-.204-.167-.516-.213-.714 0-.169.184-.217.534 0 .714h.002Zm-3.419-3.018.014-.158.006-.068c0 .006-.013.08-.002.022a4.53 4.53 0 0 1 .292-1.061c-.033.079.009-.018.022-.044a4.656 4.656 0 0 1 .556-.93c-.055.075.03-.04.046-.057a5.233 5.233 0 0 1 .663-.676l.104-.086c.021-.018.13-.099.057-.046.085-.062.169-.125.257-.182a5.868 5.868 0 0 1 .843-.477l.165-.075.061-.026c-.046.02-.035.015.005 0 .224-.088.452-.167.683-.235.253-.073.437-.358.351-.622-.085-.263-.349-.43-.621-.351a7.14 7.14 0 0 0-2.5 1.291 5.616 5.616 0 0 0-1.659 2.232 4.952 4.952 0 0 0-.355 1.551c-.02.264.246.516.505.505.29-.013.485-.222.505-.505l.002-.002ZM7.166 13.264c-.149.16-.311.312-.485.448.083-.066-.02.013-.04.026a4.006 4.006 0 0 1-.683.402c-.017.009-.186.081-.081.037a4.25 4.25 0 0 1-.758.23c-.05.012-.103.02-.154.03l-.07.01a5.676 5.676 0 0 1-.343.024 4.915 4.915 0 0 1-.525-.017c-.02 0-.21-.028-.103-.01a4.387 4.387 0 0 1-.966-.267c.09.036-.084-.037-.1-.046-.056-.026-.113-.057-.17-.085-.233-.123-.558-.068-.69.18-.123.233-.068.56.18.69a4.825 4.825 0 0 0 3.165.47 4.75 4.75 0 0 0 2.533-1.415c.18-.193.206-.525 0-.714-.207-.189-.52-.206-.714 0l.004.007Z"/>
  <path fill="#333" d="M31.453 8.422c.66.796 1.401 1.516 2.115 2.263a20.44 20.44 0 0 1 1.153 1.298l.06.075a8.134 8.134 0 0 1 .641.96l.086.167.04.085a3.914 3.914 0 0 1 .123.362c.015.062.028.126.041.19.002.01.017.099.006.02.005.026.007.052.01.076a3.46 3.46 0 0 1-.005.653 1.55 1.55 0 0 1-.011.103c0-.011.01-.064 0-.004a6.043 6.043 0 0 1-.382 1.38 5.205 5.205 0 0 1-.07.156 6.664 6.664 0 0 1-.657 1.107c-.02.025-.115.146-.044.058-.029.038-.06.075-.088.11a6.67 6.67 0 0 1-1.02 1.002c-.006.006-.06.046-.013.01l-.046.034c-.055.04-.107.079-.165.116a5.998 5.998 0 0 1-.924.53 5.973 5.973 0 0 1-.156.07l-.112.044c-.246.094-.442.345-.352.622.077.239.356.452.622.351a7.054 7.054 0 0 0 3.99-3.923c.405-.99.643-2.186.271-3.22-.189-.528-.483-.998-.817-1.444a16.414 16.414 0 0 0-1.09-1.3c-.825-.894-1.717-1.729-2.495-2.667-.169-.204-.54-.189-.713 0-.2.218-.18.497 0 .714l.002.002ZM15.66 5.088c.227-.389.475-.764.748-1.125.013-.017.026-.035.04-.05-.058.077-.012.015 0 0 .034-.044.07-.09.107-.134a8.604 8.604 0 0 1 .677-.749 9.783 9.783 0 0 1 .764-.681c-.048.04.022-.016.033-.024.05-.038.1-.077.154-.115a7.471 7.471 0 0 1 1.126-.67c.044-.022.09-.041.134-.061a.818.818 0 0 0 .077-.035c.07-.033-.074.028-.004 0 .105-.042.21-.084.318-.121a5.892 5.892 0 0 1 1.105-.277c.086-.013-.068.007.018 0l.075-.009a4.235 4.235 0 0 1 1.008.009c-.084-.01.002 0 .015.005.033.006.066.01.1.017.06.011.122.026.184.04a3.886 3.886 0 0 1 .507.158c.029.01.057.022.086.033.074.028-.066-.031.006.002.112.053.224.103.334.163a5.697 5.697 0 0 1 .767.487c.02.013.037.029.057.042.01.007.088.066.042.03-.047-.034.03.025.04.034.017.015.037.028.054.044a8.976 8.976 0 0 1 1.349 1.369c.01.012.075.096.022.025a8.803 8.803 0 0 1 .78 1.209.5.5 0 0 0 .69.18.513.513 0 0 0 .18-.69 9.499 9.499 0 0 0-1.903-2.458c-.762-.705-1.7-1.351-2.743-1.604-2.096-.507-4.275.512-5.8 1.903-.801.731-1.473 1.608-2.02 2.543-.135.229-.06.563.18.69.24.128.549.062.69-.18h.004Zm-1.682-.949c-2.078-1.134-4.727-.866-6.633.496-1.767 1.261-3.025 3.337-3.225 5.51-.108 1.173.176 2.442 1.063 3.27.193.18.525.207.714 0 .189-.206.206-.52 0-.714-.086-.08-.163-.167-.242-.254-.015-.018-.057-.075.007.01-.015-.02-.03-.041-.046-.06a2.863 2.863 0 0 1-.272-.472.334.334 0 0 0-.012-.03 3.993 3.993 0 0 1-.193-.73c-.022-.13.011.113-.004-.021a4.954 4.954 0 0 1 .01-1.202c-.015.117-.002.022 0-.006.005-.033.012-.066.016-.101a6.557 6.557 0 0 1 .409-1.39c.006-.014.04-.097.015-.038-.024.06.011-.022.015-.037.027-.057.05-.115.08-.174a7.998 7.998 0 0 1 .543-.973 6.363 6.363 0 0 1 .302-.428c.057-.075.009-.011 0 .002l.08-.099a7.072 7.072 0 0 1 1.032-1.035c.026-.022.055-.044.08-.066.06-.046-.063.047-.001.003l.151-.112a6.2 6.2 0 0 1 .973-.569c.027-.013.055-.024.082-.038l.024-.01a6.105 6.105 0 0 1 1.342-.382l.09-.014c.099-.015-.04.002.022-.002.075-.007.15-.018.224-.024a6.12 6.12 0 0 1 .877-.011c.074.004.149.01.224.02.03.002.059.006.09.01.123.014-.068-.01.044.007a5.726 5.726 0 0 1 1.078.281l.084.033c.1.04-.064-.03.044.018.136.061.27.127.402.197.23.128.56.064.69-.18.129-.244.065-.555-.18-.69l.001.005Z"/>
  <path fill="#333" d="M15.307 4.049a4.393 4.393 0 0 0-1.682-2.085 4.189 4.189 0 0 0-2.69-.65 4.415 4.415 0 0 0-1.653.503.507.507 0 0 0-.18.69.514.514 0 0 0 .69.18c.087-.048.177-.09.268-.134a2.07 2.07 0 0 1 .222-.08 3.837 3.837 0 0 1 .676-.153 2.92 2.92 0 0 1 .138-.01c.108-.008.216-.01.323-.008.099 0 .2.01.299.018l.068.007c.081.006-.077-.016.002 0 .053.01.106.017.158.028a3.433 3.433 0 0 1 .642.191l.112.053c.086.042.171.088.255.136a3.968 3.968 0 0 1 .345.229c.006.004.061.048.015.01-.046-.037.022.018.028.025.143.118.28.248.405.384l.107.125.04.049c.05.057-.068-.095.009.013a4.048 4.048 0 0 1 .325.527c.022.044.044.086.063.13l.016.035c-.029-.064.022.055.022.055.096.244.342.441.621.351.238-.077.455-.358.352-.621l.004.002Zm3.611 14.318a4.882 4.882 0 0 1-.303-.506c-.044-.083-.081-.169-.123-.255a45.174 45.174 0 0 1-.022-.053l-.059-.153a5.052 5.052 0 0 1-.165-.564c-.02-.093-.04-.185-.052-.277-.005-.024-.007-.046-.011-.07a.4.4 0 0 0 .002.017l-.018-.165a4.783 4.783 0 0 1 .007-.887c.004-.033.017-.136.004-.049.009-.052.015-.105.026-.158a4.88 4.88 0 0 1 .222-.815l.05-.127c0-.004.032-.075.01-.024l.02-.044a4.813 4.813 0 0 1 .483-.83c.013-.018.026-.038.041-.055a3.516 3.516 0 0 1 .12-.147c.173-.2.212-.519.001-.714-.189-.174-.53-.213-.714 0-1.173 1.37-1.603 3.266-1.058 4.997.153.49.377.962.667 1.386.15.218.45.336.69.18.218-.14.34-.457.18-.69l.002.003Zm9.942-.919a6.4 6.4 0 0 1 .053.284c.007.048.016.094.022.143a6.242 6.242 0 0 1 .046.628 7.706 7.706 0 0 1-.024.837l-.013.143c0 .015-.017.153-.01.098.008-.061-.01.064-.012.075-.006.048-.015.095-.024.143a6.096 6.096 0 0 1-.2.837 7.911 7.911 0 0 1-.189.542c-.006.018-.06.145-.022.057a6.7 6.7 0 0 1-.182.391c-.119.236-.07.558.18.69.229.121.564.07.69-.18a7.683 7.683 0 0 0 .659-4.956c-.053-.259-.374-.432-.622-.351a.517.517 0 0 0-.351.622v-.003Zm3.95 2.579c.642.396 1.406.475 2.137.352.732-.123 1.354-.462 1.93-.861.217-.15.335-.448.18-.69-.14-.215-.46-.343-.69-.18-.255.176-.521.34-.8.477-.035.017-.073.032-.108.05-.033.015-.059.026-.01.007-.073.03-.148.059-.222.083a3.31 3.31 0 0 1-.55.14c-.14.027.06-.002-.024.005-.077.007-.151.015-.228.018-.145.004-.29 0-.433-.018.103.013 0-.002-.022-.006a2.692 2.692 0 0 1-.327-.086c-.029-.009-.057-.022-.086-.03.09.03-.004 0-.024-.012a2.634 2.634 0 0 1-.218-.119c-.224-.138-.564-.057-.69.18a.521.521 0 0 0 .18.69h.005Zm-28.178-4.78-.014.141a.757.757 0 0 0 .005-.033l-.009.06a3.735 3.735 0 0 1-.185.72c-.015.044-.035.088-.05.132-.013.035-.009.024.013-.027-.009.018-.015.038-.024.055-.035.08-.075.158-.114.235a4.115 4.115 0 0 1-.332.532c-.077.103.033-.035-.033.042-.053.061-.103.125-.158.184a3.884 3.884 0 0 1-.36.352 3.105 3.105 0 0 1-.093.076c-.1.082.04-.024-.041.033-.066.047-.132.095-.2.139-.147.094-.301.18-.46.255-.239.112-.318.474-.18.69.159.245.436.3.69.18 1.455-.686 2.428-2.18 2.553-3.768.022-.263-.246-.516-.505-.505-.293.013-.481.222-.506.505l.003.002Z"/>
</svg>
