<svg xmlns="http://www.w3.org/2000/svg" width="61" height="58" fill="none" viewBox="0 0 61 58">
  <path fill="#F9CB6A" stroke="#333" stroke-miterlimit="10" stroke-width="1.453" d="M54.67 32.36c-.108-4.231-1.113-8.177-2.994-11.554l1.18-18.386a.945.945 0 0 0-1.414-.88l-15.077 8.64c-2.188-.426-4.567-.619-7.136-.554a38.93 38.93 0 0 0-5.66.54L9.098.87a.892.892 0 0 0-1.375.78L8.3 19.62c-2.434 3.954-3.45 8.798-3.316 14.014.33 12.908 13.19 23.05 25.44 22.736C42.71 56.056 55 45.271 54.67 32.363v-.002Z"/>
  <path fill="#333" d="M20.542 37.446c1.36 0 2.462-1.387 2.462-3.099 0-1.711-1.102-3.099-2.462-3.099s-2.461 1.388-2.461 3.1c0 1.71 1.102 3.098 2.461 3.098Zm18.571 0c1.36 0 2.461-1.387 2.461-3.099 0-1.711-1.102-3.099-2.461-3.099-1.36 0-2.462 1.388-2.462 3.1 0 1.71 1.102 3.098 2.462 3.098Z"/>
  <path stroke="#333" stroke-linecap="round" stroke-linejoin="round" stroke-width="1.453" d="M29.868 40.836v3.976m-3.093 2.68 3.093-2.68 3.08 2.67m12.192-6.684 13.517-3.381m-12.919 6.551 13.884 1.176m-44.835-4.153L1.034 38.768M14.459 44.2.727 46.55"/>
  <path fill="#F06061" d="m11.854 15.92-.239-7.42a.516.516 0 0 1 .795-.45l5.668 3.64-6.226 4.23h.002Zm28.67-3.205 5.75-3.294a.566.566 0 0 1 .847.527l-.426 6.636-6.17-3.869Z"/>
  <path fill="#333" d="M32.027 39.044c-.104-.089-.797-.645-2.022-.645-.52 0-1.137.1-1.845.38s-1.13.959-.88 1.656c.075.207.295.666 1.36 1.05.923.332 2.027.276 2.666-.058 1.698-.888 1.296-1.885.719-2.383h.002Z"/>
</svg>
