<svg xmlns="http://www.w3.org/2000/svg" width="46" height="70" fill="none" viewBox="0 0 46 70">
  <path fill="#323333" d="M15.23 64.762H8.697a.966.966 0 0 0-.967.966v2.497c0 .534.433.966.967.966h6.534a.966.966 0 0 0 .966-.966v-2.497a.966.966 0 0 0-.966-.966Zm22.132 0h-6.534a.966.966 0 0 0-.966.966v2.497c0 .534.432.966.966.966h6.534a.966.966 0 0 0 .966-.966v-2.497a.966.966 0 0 0-.966-.966Z"/>
  <path fill="#FDF6ED" d="M40.655 1.314H5.403A4.403 4.403 0 0 0 1 5.718v57.174a4.403 4.403 0 0 0 4.403 4.404h35.252a4.403 4.403 0 0 0 4.403-4.404V5.718a4.403 4.403 0 0 0-4.403-4.404Z"/>
  <mask id="a" width="45" height="67" x="1" y="1" maskUnits="userSpaceOnUse" style="mask-type:luminance">
    <path fill="#fff" d="M40.655 1.314H5.403A4.403 4.403 0 0 0 1 5.718v57.174a4.403 4.403 0 0 0 4.403 4.404h35.252a4.403 4.403 0 0 0 4.403-4.404V5.718a4.403 4.403 0 0 0-4.403-4.404Z"/>
  </mask>
  <g mask="url(#a)">
    <path fill="#C2BEBE" d="M-3.529 28.204H49.59c.793 0 1.555-.7 1.519-1.52-.037-.82-.669-1.518-1.52-1.518H-3.528c-.793 0-1.555.698-1.519 1.519.037.82.669 1.519 1.52 1.519Z"/>
    <path fill="#333" d="M64.302-7.016c-2.354-2.354-6.216-4.126-9.596-3.976-3.51.158-7.15 1.31-9.597 3.974-2.483 2.704-3.852 5.88-3.974 9.596-.247 7.577-.51 15.164-1.4 22.699-.937 6.196-2.39 12.298-4.664 18.141-1.508 3.294-3.29 6.45-5.393 9.4a44.947 44.947 0 0 1-5.45 5.517 45.036 45.036 0 0 1-6.804 3.956 47.677 47.677 0 0 1-8.401 2.289 46.47 46.47 0 0 1-8.444.014 43.108 43.108 0 0 1-7.988-2.228c-1.805-.565-3.608-.646-5.412-.243-1.807.08-3.488.618-5.045 1.61-2.816 1.647-5.5 4.875-6.237 8.11-.791 3.473-.62 7.372 1.368 10.457l2.122 2.746a13.555 13.555 0 0 0 5.987 3.49c4.448 1.724 8.989 2.445 13.706 3.042 3.557.45 7.166.464 10.727.067 4.64-.518 9.221-1.22 13.645-2.748 4.413-1.526 8.816-3.438 12.764-5.961 8.144-5.207 14.828-12.347 19.666-20.71 2.5-4.318 4.477-8.984 6.145-13.675 1.355-3.81 2.374-7.733 3.142-11.703 2.183-11.304 2.732-22.79 3.107-34.266.111-3.406-1.592-7.212-3.974-9.596v-.002Z" opacity=".1"/>
  </g>
  <path stroke="#333" stroke-linecap="round" stroke-linejoin="round" stroke-width="1.418" d="M40.655 1.314H5.403A4.403 4.403 0 0 0 1 5.718v57.174a4.403 4.403 0 0 0 4.403 4.404h35.252a4.403 4.403 0 0 0 4.403-4.404V5.718a4.403 4.403 0 0 0-4.403-4.404Z"/>
  <path fill="#C2BEBE" d="M9.18 22.61c-.56 0-.202-1.086-.202-1.65v-4.496c0-.56-.257-1.632.304-1.632.56 0 1.727.285 1.727 1.632v4.497c0 1.292-1.267 1.648-1.828 1.648Z"/>
  <path fill="#807D7C" d="M9.045 22.618c-.67 0-1.215-.545-1.215-1.216v-5.377a1.216 1.216 0 0 1 2.43 0v5.377c0 .67-.545 1.216-1.215 1.216Z"/>
  <path fill="#C2BEBE" d="M9.18 41.68c-.56 0-.202-1.085-.202-1.648v-6.236c0-.562-.257-1.633.304-1.633.56 0 1.727.286 1.727 1.633v6.236c0 1.292-1.267 1.648-1.828 1.648Z"/>
  <path fill="#807D7C" d="M9.045 41.68c-.67 0-1.215-.544-1.215-1.215v-7.109a1.216 1.216 0 0 1 2.43 0v7.11c0 .67-.545 1.215-1.215 1.215Z"/>
</svg>
