<svg xmlns="http://www.w3.org/2000/svg" width="70" height="44" fill="none" viewBox="0 0 70 44">
  <path fill="#83BA4F" stroke="#333" stroke-miterlimit="10" stroke-width="1.402" d="M20.76 35.935a2.795 2.795 0 0 1-1.434 2.45c-.921.506-2.231.967-3.797.787a6.183 6.183 0 0 1-2.344-.767 2.788 2.788 0 0 1-1.406-2.434v-9.48a2.809 2.809 0 0 1 2.808-2.808h3.363a2.809 2.809 0 0 1 2.808 2.808v9.444h.002Zm15.192 3.623a2.795 2.795 0 0 1-1.434 2.45c-.921.506-2.231.967-3.797.787a6.184 6.184 0 0 1-2.344-.767 2.788 2.788 0 0 1-1.406-2.434v-9.48a2.809 2.809 0 0 1 2.808-2.808h3.363a2.809 2.809 0 0 1 2.808 2.808v9.444h.002Zm24.646-4.266a2.795 2.795 0 0 1-1.434 2.45c-.89.49-2.232.967-3.798.787a6.183 6.183 0 0 1-2.343-.767 2.788 2.788 0 0 1-1.406-2.434v-9.48a2.809 2.809 0 0 1 2.808-2.808h3.363a2.809 2.809 0 0 1 2.808 2.808v9.444h.002Z"/>
  <path fill="#83BA4F" stroke="#333" stroke-miterlimit="10" stroke-width="1.402" d="M59.849 22.397c.9.088 2.31.183 4.032.109 3.343-.145 4.514-.778 4.87-.235.65.984-2.347 4.389-5.493 5.929-.429.21-.936.422-1.599.512-1.61.223-4.278-.25-4.782-2.034-.42-1.477.725-3.544 2.972-4.28Z"/>
  <path fill="#C39C76" stroke="#333" stroke-miterlimit="10" stroke-width="1.402" d="M12.324 26.49c.162.806.523 2.06 1.418 3.28 2.766 3.768 8.246 3.934 11.547 4.034 1.766.054 4.472-.046 7.733-.925l-5.6-3.48-15.098-2.91Z"/>
  <path fill="#7D5045" stroke="#333" stroke-miterlimit="10" stroke-width="1.402" d="M62.486 20.378c.33 1.326.335 2.498.33 2.594-.253 4.757-5.325 7.665-8.11 9.264-1.33.763-8.601 4.779-18.127 3.244-2.251-.362-5.54-1.033-8.733-3.555-2.415-1.909-3.835-4.158-4.146-4.66-2.029-3.3-1.606-5.108-4.011-8.243-1.5-1.954-2.17-1.9-2.312-2.753-.555-3.325 8.422-8.937 17.798-9.506 12.732-.773 25.229 5.257 27.312 13.615Z"/>
  <path fill="#C39C76" d="M58.98 17.448c.284 1.142.59 2.434.242 4.034C57.688 28.54 45.88 33.365 36.723 31.4c-1.83-.392-5.2-1.115-8.067-3.775-2.236-2.073-2.095-3.401-5.108-6.143-2.557-2.33-3.673-2.295-4.594-4.034-1.565-2.952-.159-6.503.03-7.058 1.764-5.153 7.496-8.689 15.324-8.689 11.21 0 22.488 6.999 24.67 15.747h.002Z"/>
  <mask id="a" width="42" height="31" x="18" y="1" maskUnits="userSpaceOnUse" style="mask-type:luminance">
    <path fill="#fff" d="M58.98 17.448c.284 1.142.59 2.434.242 4.034C57.688 28.54 45.88 33.365 36.723 31.4c-1.83-.392-5.2-1.115-8.067-3.775-2.236-2.073-2.095-3.401-5.108-6.143-2.557-2.33-3.673-2.295-4.594-4.034-1.565-2.952-.159-6.503.03-7.058 1.764-5.153 7.496-8.689 15.324-8.689 11.21 0 22.488 6.999 24.67 15.747h.002Z"/>
  </mask>
  <g mask="url(#a)">
    <path fill="#7D5045" stroke="#333" stroke-miterlimit="10" stroke-width="1.402" d="m28.84 3.204 3.299 5.802a2.516 2.516 0 0 0 1.752 1.236L44.43 12.09a2.515 2.515 0 0 0 2.327-.819l6.277-7.162c1.078-1.23.711-3.14-.74-3.896A25.398 25.398 0 0 0 42.078-2.62c-5.197-.306-9.405 1.062-12.091 2.29a2.518 2.518 0 0 0-1.146 3.535Zm-3.097-.167c1.28 2.161 3.159 5.304 4.092 6.862.347.581.33 1.308-.044 1.871l-6.088 9.165a1.753 1.753 0 0 1-2.558.399l-6.297-5.052a1.756 1.756 0 0 1-.303-2.425l8.29-10.982a1.753 1.753 0 0 1 2.908.162Zm6.324 10.065-4.383 6.637a1.583 1.583 0 0 0 .257 1.913l4.698 4.32c.403.4.986.555 1.533.405l9.305-2.534a1.585 1.585 0 0 0 1.168-1.474l.312-6.707a1.583 1.583 0 0 0-1.328-1.619l-9.936-1.716c-.65-.106-1.3.202-1.628.773l.002.002Zm20.159-4.266c-1.348 1.602-3.173 3.47-4.04 4.508-.32.383-.499.864-.509 1.362l-.142 7.449a2.19 2.19 0 0 0 1.25 2.02l8.566 4.077a2.192 2.192 0 0 0 3.004-1.236l2.953-8.178a2.19 2.19 0 0 0-.433-2.209l-7.343-7.85a2.191 2.191 0 0 0-3.306.055v.002ZM34.857 28.632c2.341-.667 8.538-2.47 10.53-3.05a1.647 1.647 0 0 1 1.21.114l6.344 3.239a1.646 1.646 0 0 1 .264 2.764c-2.109 1.644-5.105 3.977-5.177 4.004-.086.03-9.42-.623-13.59-.918a1.645 1.645 0 0 1-1.478-2.055l.757-2.926a1.644 1.644 0 0 1 1.144-1.172h-.004Z"/>
  </g>
  <path stroke="#333" stroke-miterlimit="10" stroke-width="1.402" d="M58.98 17.448c.284 1.142.59 2.434.242 4.034C57.688 28.54 45.88 33.365 36.723 31.4c-1.83-.392-5.2-1.115-8.067-3.775-2.236-2.073-2.095-3.401-5.108-6.143-2.557-2.33-3.673-2.295-4.594-4.034-1.565-2.952-.159-6.503.03-7.058 1.764-5.153 7.496-8.689 15.324-8.689 11.21 0 22.488 6.999 24.67 15.747h.002Z"/>
  <path fill="#A8D471" d="M24.163 24.94a13.85 13.85 0 0 0 4.306-10.212c-.084-7.493-6.193-13.62-13.686-13.724C7.024.896.701 7.154.701 14.887A13.843 13.843 0 0 0 14.585 28.77h.012c.76 0 1.513.116 2.228.376.414.15.847.293 1.295.419 3.221.913 5.991.77 7.65.556a71.184 71.184 0 0 1-1.845-2.329 2.15 2.15 0 0 1 .238-2.854Z"/>
  <mask id="b" width="29" height="30" x="0" y="1" maskUnits="userSpaceOnUse" style="mask-type:luminance">
    <path fill="#fff" d="M24.163 24.94a13.85 13.85 0 0 0 4.306-10.212c-.084-7.493-6.193-13.62-13.686-13.724C7.024.896.701 7.154.701 14.887A13.843 13.843 0 0 0 14.585 28.77h.012c.76 0 1.513.116 2.228.376.414.15.847.293 1.295.419 3.221.913 5.991.77 7.65.556a71.184 71.184 0 0 1-1.845-2.329 2.15 2.15 0 0 1 .238-2.854Z"/>
  </mask>
  <g mask="url(#b)">
    <path fill="#468A40" d="M20.61-1.806a3.033 3.033 0 0 0-1.588.068 2.989 2.989 0 0 0-.791-.136c-2.498-.102-4.307 2.388-3.556 4.731.703 2.19 3.179 2.998 5.248 3.167 2.237.182 4.513-1.106 4.583-3.563.066-2.324-1.831-3.782-3.896-4.265v-.002Zm8.78 10.862a2.063 2.063 0 0 0-.328-1.031l-.432-.561a2.765 2.765 0 0 0-1.224-.713l-.737-.098c-.36 0-.705.068-1.032.2-.352.024-.68.13-.987.324a2.086 2.086 0 0 0-.777.715c-.245.269-.41.583-.497.944l-.098.737c0 .5.128.967.378 1.4l.433.56c.347.345.753.582 1.224.714.29.044.585.112.879.11.034 0 .068-.004.102-.006a7.04 7.04 0 0 0 .797-.11c.026-.006.052-.012.078-.02.239-.076.491-.197.72-.3.062-.029.122-.06.178-.099.322-.174.583-.413.777-.715.244-.268.41-.583.497-.943.116-.369.132-.737.05-1.106v-.002ZM10.852 3.348a2.772 2.772 0 1 0 0-5.544 2.772 2.772 0 0 0 0 5.544Zm9.179 3.451c-2.337 0-2.341 3.633 0 3.633s2.341-3.633 0-3.633Zm-6.706-2.638c-2.337 0-2.341 3.633 0 3.633 2.342 0 2.342-3.633 0-3.633Zm1.807 4.366c-1.6 0-1.602 2.486 0 2.486 1.603 0 1.603-2.486 0-2.486ZM7.693 5.11c-1.6 0-1.602 2.486 0 2.486s1.602-2.486 0-2.486Zm14.714 6.444c-1.6 0-1.603 2.485 0 2.485 1.602 0 1.602-2.485 0-2.485Z"/>
  </g>
  <path stroke="#333" stroke-miterlimit="10" stroke-width="1.402" d="M24.163 24.939a13.85 13.85 0 0 0 4.306-10.21c-.084-7.494-6.193-13.62-13.686-13.725C7.024.896.701 7.154.701 14.887A13.843 13.843 0 0 0 14.585 28.77h.012c.76 0 1.513.116 2.228.376.414.15.847.293 1.295.419 3.221.913 5.991.77 7.65.556a71.184 71.184 0 0 1-1.845-2.329 2.15 2.15 0 0 1 .238-2.854Z"/>
  <path fill="#333" d="M3.948 20.16c.778 0 1.41-.794 1.41-1.774s-.632-1.775-1.41-1.775c-.78 0-1.41.794-1.41 1.775 0 .98.63 1.774 1.41 1.774Zm7.681.801c.779 0 1.41-.794 1.41-1.774s-.631-1.775-1.41-1.775c-.779 0-1.41.795-1.41 1.775 0 .98.631 1.774 1.41 1.774Z"/>
  <path fill="#A8D471" d="M3.597 23.038a4.268 4.268 0 0 1 1.224-.202c1.602-.026 2.662.893 3.425 1.288 1.045.543 2.81.759 5.948-.77"/>
  <path stroke="#333" stroke-linecap="round" stroke-linejoin="round" stroke-width="1.402" d="M3.597 23.038a4.268 4.268 0 0 1 1.224-.202c1.602-.026 2.662.893 3.425 1.288 1.045.543 2.81.759 5.948-.77"/>
</svg>
