<svg xmlns="http://www.w3.org/2000/svg" width="64" height="53" fill="none" viewBox="0 0 64 53">
  <path fill="#A8D471" stroke="#333" stroke-linecap="round" stroke-linejoin="round" stroke-width="1.252" d="M62.843 38.624a3.576 3.576 0 0 0-4.558-2.19l-7.08 2.483c.009-.017.021-.035.03-.053 6.311-13.132.762-28.947-12.37-35.258-13.131-6.311-28.948-.762-35.26 12.37-6.31 13.13-.761 28.947 12.37 35.257a3.577 3.577 0 0 0 3.1-6.447c-9.577-4.6-13.624-16.135-9.02-25.712 4.602-9.576 16.135-13.623 25.71-9.022 9.535 4.582 13.587 16.04 9.077 25.591l-2.352-6.706a3.576 3.576 0 0 0-6.749 2.368L41 46.289a3.578 3.578 0 0 0 4.558 2.193l15.095-5.298a3.576 3.576 0 0 0 2.191-4.558v-.002Z"/>
</svg>
