<svg xmlns="http://www.w3.org/2000/svg" width="72" height="73" fill="none" viewBox="0 0 72 73">
  <path fill="#A8D471" d="M1.704 63.126c.877-5.097 2.826-8.545 4.093-10.42C7.67 49.938 9.286 48.78 9.78 48.44c2.314-1.586 4.625-2.076 5.975-2.253h13.793c1.363.154 3.785.615 5.975 2.253 1.397 1.045 2.338 2.302 3.463 4.555 1.173 2.348 2.663 6.022 3.375 10.972-1.931 1.95-7.416 6.96-15.953 8.154-13.858 1.94-23.621-7.873-24.702-8.997l-.001.002Z"/>
  <path fill="#F3D2BA" d="M33.98 36.892c.006 1.024.095 5.287-2.803 8.037-1.765 1.675-4.5 2.693-8.584 2.693-4.083 0-6.82-1.018-8.584-2.693-2.902-2.754-2.81-6.976-2.804-8.037 1.288-5.068 5.675-8.713 10.72-8.996 5.502-.309 10.623 3.447 12.054 8.996h.002Z"/>
  <path fill="#F3D2BA" d="M11.695 41.64a1.869 1.869 0 0 1-.49.047c-1.019-.035-2.521-.934-2.521-2.521a2.534 2.534 0 0 1 2.521-2.522l.49 4.996Zm22.285-4.996a2.522 2.522 0 1 1-.474 4.998l.475-5v.002Z"/>
  <path fill="#7D5045" d="M35.239 27.04c-2.384-5.295-8.772-7.87-13.559-6.656a9.42 9.42 0 0 0-2.81 1.24l-1.2.207a8.203 8.203 0 0 0-3.225.455c-3.6 1.288-5.011 4.767-5.29 5.457-1.792 4.42.3 8.517.637 9.15l1.554-.345a13.486 13.486 0 0 0 8.21-6.286l-.28-1.001c.52 1.448 1.537 3.354 3.521 4.518 1.43.839 3.97 1.652 4.979.73.846.56 1.741.915 2.524 1.222.887.348 2.13.735 3.683.915l1.155.047c.39-.925 2.094-5.232.103-9.652l-.002-.002Z"/>
  <path fill="#F3D2BA" d="M23.53 64.866c.047-.005.98-.122 1.221-.794.016-.042.145-.419-.03-.733-.544-.986-3.475-.269-3.652-.225-1.129.284-1.865.466-2.47 1.129-.233.253-.395.523-.575.768L17.73 69a2.776 2.776 0 0 0 1.785 1.572c.106.031.221.063.354.096 0 0 1.036.26 2.076.312 1.269.065 3.1.152 4.682-1.003.35-.255 1.764-1.288 1.84-2.888.006-.164.03-.682-.168-1.096-.602-1.242-3.251-1.58-6.486-.817"/>
  <path fill="#A8D471" d="M1.224 65.511c-.163.64-.37 1.737-.075 2.742.1.345.244.616.446.83 1.313 1.396 4.832 1.185 9.378 1.449 3.567.206 5.108.649 6.053-.438.653-.75.716-1.876.74-2.323.032-.551.124-2.242-.9-3.14-.295-.26-.707-.589-5.492-.526a16.657 16.657 0 0 1-4.863-.656c-.101-.168-.906-1.459-2.172-1.53-1.417-.08-2.997 1.387-3.117 3.594l.002-.002Z"/>
  <path fill="#fff" stroke="#333" stroke-linecap="round" stroke-linejoin="round" stroke-width=".763" d="M64.15 7.691a8.41 8.41 0 0 0-.592-.012c-.085-1.061-.502-2.05-1.256-2.782-.953-.923-2.253-1.25-3.551-1.026-2.113-2.607-5.244-3.628-7.734-2.27-1.352.738-2.29 2.054-2.75 3.644-2.734.607-4.877 2.523-5.46 4.994-3.588.305-6.41 2.593-6.558 5.535-.143 2.832 2.24 5.352 5.574 6.179v.005c0 1.955 1.473 3.539 3.29 3.539.144 0 .285-.014.425-.033 1.118 1.48 2.74 2.411 4.547 2.411 1.808 0 3.564-1.01 4.684-2.596a8.34 8.34 0 0 0 1.445-.597c1.146 1.031 2.74 1.672 4.504 1.672 3.488 0 6.315-2.503 6.315-5.588 0-.083-.004-.167-.007-.251 2.514-.968 4.308-3.111 4.439-5.696.187-3.69-3.089-6.884-7.315-7.13v.002Z"/>
  <path fill="#fff" d="M48.22 13.662a1.986 1.986 0 0 1 1.368-1.455c-.728-1.747 1.133-3.462 2.797-2.577.718-1.763 3.23-1.66 3.776.153 1.742-.745 3.435 1.115 2.543 2.796.546.221.909.621 1.096 1.082"/>
  <path fill="#4562AC" d="M55.744 19.929H52.37a.679.679 0 0 0-.68.679v.458c0 .375.305.68.68.68h3.374a.679.679 0 0 0 .68-.68v-.458a.679.679 0 0 0-.68-.68Zm4.393-6.267h-12.16a1.003 1.003 0 1 0 0 2.007h12.16a1.003 1.003 0 0 0 0-2.007Z"/>
  <path fill="#66A9EB" d="M48.061 15.688c0 2.808 1.667 5.083 5.996 5.083 4.33 0 5.996-2.275 5.996-5.083"/>
  <path stroke="#ABA8A8" stroke-linecap="round" stroke-linejoin="round" stroke-width=".34" d="M51.134 11.755a.836.836 0 0 1 .726-.408.845.845 0 0 1 .777.625m1.481.933a.838.838 0 0 1 .471-.688.849.849 0 0 1 .974.217m-.021-1.012a.837.837 0 0 1 .647-.525.85.85 0 0 1 .873.483m-6.736 1.717c.028-.02.398-.298.84-.145a.913.913 0 0 1 .52.487m.344-2.092a.832.832 0 0 1 .463-.691.847.847 0 0 1 .976.207m2.954 2.693a.832.832 0 0 1 .465-.691.847.847 0 0 1 .975.208"/>
  <path stroke="#333" stroke-linecap="round" stroke-linejoin="round" stroke-width=".34" d="M48.22 13.662a1.986 1.986 0 0 1 1.368-1.455c-.728-1.747 1.133-3.462 2.797-2.577.718-1.763 3.23-1.66 3.776.153 1.742-.745 3.435 1.115 2.543 2.796.546.221.909.621 1.096 1.082m-3.377 6.945v.46a.678.678 0 0 1-.679.68H52.37a.678.678 0 0 1-.68-.68v-.46m8.447-6.944h-12.16a1.003 1.003 0 1 0 0 2.007h12.16a1.003 1.003 0 0 0 0-2.007Z"/>
  <path stroke="#333" stroke-linecap="round" stroke-linejoin="round" stroke-width=".34" d="M48.061 15.688c0 2.808 1.667 5.083 5.996 5.083 4.33 0 5.996-2.275 5.996-5.083"/>
  <path stroke="#333" stroke-linecap="round" stroke-linejoin="round" stroke-width=".782" d="M29.547 46.187c1.363.154 3.785.614 5.975 2.253 1.398 1.045 2.338 2.302 3.464 4.555 1.172 2.348 2.662 6.021 3.374 10.972m-26.606-17.78c-1.341.178-3.652.67-5.974 2.253-2.187 1.492-3.321 3.227-4.314 4.78-1.227 1.92-3.096 5.425-3.862 10.515"/>
  <path stroke="#333" stroke-linecap="round" stroke-linejoin="round" stroke-width=".782" d="M34.038 36.892c.006 1.024.095 5.287-2.804 8.037-1.764 1.675-4.5 2.693-8.584 2.693-4.083 0-6.819-1.018-8.583-2.693-2.902-2.753-2.811-6.976-2.804-8.037m7.624-9.229c.232 1.123 1.068 4.41 3.968 6.114 1.483.87 4.16 1.714 5.085.623.638-.752.251-2.206-.29-3.059-.717-1.13-2.14-1.885-2.544-1.546-.433.361.223 2.042 1.085 3.186 1.189 1.581 2.84 2.229 4.167 2.75.887.348 2.13.735 3.682.915"/>
  <path stroke="#333" stroke-linecap="round" stroke-linejoin="round" stroke-width=".782" d="M19.616 30.26a13.503 13.503 0 0 1-3.333 3.85 13.5 13.5 0 0 1-4.877 2.436m.347 5.094a1.87 1.87 0 0 1-.49.047c-1.02-.035-2.522-.934-2.522-2.521a2.534 2.534 0 0 1 2.522-2.522m22.775 0a2.522 2.522 0 1 1-.474 4.998M18.928 21.625a9.467 9.467 0 0 1 2.812-1.24c4.786-1.215 11.173 1.36 13.558 6.654 1.991 4.42.288 8.727-.103 9.652m-25.344.201c-.337-.634-2.43-4.73-.637-9.15.28-.69 1.69-4.168 5.29-5.457a8.233 8.233 0 0 1 3.226-.456"/>
  <path stroke="#333" stroke-linecap="round" stroke-linejoin="round" stroke-width=".558" d="M25.58 35.339a2.872 2.872 0 0 0 2.52.832"/>
  <path stroke="#333" stroke-linecap="round" stroke-linejoin="round" stroke-width="2.268" d="M26.856 38.331v1.314"/>
  <path stroke="#333" stroke-linecap="round" stroke-linejoin="round" stroke-width=".558" d="M19.72 35.339a2.872 2.872 0 0 1-2.52.832"/>
  <path stroke="#333" stroke-linecap="round" stroke-linejoin="round" stroke-width="2.268" d="M18.445 38.331v1.314"/>
  <path stroke="#333" stroke-linecap="round" stroke-linejoin="round" stroke-width=".684" d="M26.053 43.908c-.413.002-.832-.438-1.247-.436-.416.002-.83.445-1.246.445-.417 0-.83-.441-1.248-.441-.403 0-.808.441-1.21.44-.4-.002-.804-.444-1.205-.446-.401-.001-.808.438-1.21.437"/>
  <path stroke="#333" stroke-linecap="round" stroke-linejoin="round" stroke-width=".782" d="M31.723 53.261a24.358 24.358 0 0 1 1.823 4.162 24.35 24.35 0 0 1 1.14 5.473M13.58 53.261a20.935 20.935 0 0 0-2.609 7.712"/>
  <path stroke="#333" stroke-miterlimit="10" stroke-width=".436" d="M51.773 37.776c-.145-.385-.59-.586-1.072-.521-.073-.529-.443-.932-.888-.932-.497 0-.902.504-.902 1.127 0 .042.002.082.005.124a1.29 1.29 0 0 0-.631.504c-.346.519-.288 1.162.125 1.438.313.208.738.148 1.077-.115.023.082.05.164.089.244.272.56.857.838 1.303.62.43-.21.575-.798.346-1.34.459-.257.698-.737.544-1.148h.004Z"/>
  <path stroke="#333" stroke-miterlimit="10" stroke-width=".523" d="M59.433 30.908c-.186-.5-.764-.76-1.387-.677-.096-.686-.574-1.207-1.15-1.207-.646 0-1.167.654-1.167 1.46 0 .054.003.107.007.16a1.65 1.65 0 0 0-.817.653c-.447.672-.373 1.506.162 1.864.405.269.957.192 1.395-.15.03.106.064.213.117.317.352.726 1.107 1.086 1.689.803.556-.27.743-1.033.446-1.736.594-.333.904-.955.705-1.487Z"/>
  <path stroke="#333" stroke-miterlimit="10" stroke-width=".349" d="M42.721 37.267c-.125-.339-.516-.513-.937-.457-.064-.463-.387-.815-.776-.815-.436 0-.789.441-.789.986 0 .036.002.073.005.108a1.118 1.118 0 0 0-.551.442c-.302.453-.253 1.017.11 1.258.272.181.646.129.942-.102.02.072.044.144.079.215.237.49.748.733 1.141.543.377-.184.502-.698.302-1.173.401-.225.61-.644.476-1.003l-.002-.002Z"/>
  <path stroke="#333" stroke-linecap="round" stroke-linejoin="round" stroke-width=".654" d="M1.224 65.511c-.163.64-.37 1.737-.075 2.742.1.345.244.616.446.83 1.313 1.396 4.832 1.185 9.378 1.449 3.567.206 5.108.649 6.053-.438.653-.75.716-1.876.74-2.323.032-.551.124-2.242-.9-3.14-.295-.259-.707-.589-5.492-.526a16.658 16.658 0 0 1-4.863-.656"/>
  <path stroke="#333" stroke-linecap="round" stroke-linejoin="round" stroke-width=".785" d="m28.223 66.565-3.778-.043m3.668 1.53-3.95-.045m2.991 1.455-4.256-.047M17.73 69a2.776 2.776 0 0 0 1.785 1.572c.106.031.221.063.354.096 0 0 1.037.26 2.077.312 1.268.065 3.099.152 4.681-1.003.35-.255 1.765-1.288 1.84-2.888.007-.164.031-.682-.168-1.096-.602-1.242-3.25-1.58-6.486-.817"/>
  <path stroke="#333" stroke-linecap="round" stroke-linejoin="round" stroke-width=".785" d="M23.53 64.866c.047-.005.98-.122 1.222-.794.015-.042.144-.419-.03-.733-.545-.986-3.476-.269-3.652-.225-1.13.284-1.866.466-2.471 1.129-.232.253-.395.523-.574.768"/>
  <path stroke="#F06061" stroke-linecap="round" stroke-linejoin="round" stroke-width=".698" d="M30.532 60.901c.543-.227.669.072 1.212-.155.542-.227.415-.527.958-.756.542-.228.668.072 1.21-.155.543-.227.418-.529.96-.756.543-.227.669.072 1.211-.155m-5.322 3.982c.588.026.573.379 1.159.405.586.026.602-.326 1.19-.3.588.026.572.378 1.159.405.586.026.603-.327 1.192-.3.588.026.572.378 1.16.404m-6.165 1.428c.527.262.386.544.912.806.527.262.667-.02 1.194.24.527.263.386.545.913.807s.668-.02 1.195.24c.527.263.386.545.913.807"/>
</svg>
