<svg xmlns="http://www.w3.org/2000/svg" width="62" height="67" fill="none" viewBox="0 0 62 67">
  <path fill="#66A9EB" stroke="#333" stroke-miterlimit="10" stroke-width=".444" d="M1 48.414V22.619a3.64 3.64 0 0 1 1.826-3.155l31.78-18.266c1.154-.663 4.064.444 4.064 1.775L3.857 50.899l-1.733-.763a1.88 1.88 0 0 1-1.122-1.72L1 48.414Z"/>
  <path fill="#4562AC" stroke="#333" stroke-miterlimit="10" stroke-width=".444" d="M2.553 50.312V23.291a3.64 3.64 0 0 1 1.826-3.155L36.159 1.87a1.73 1.73 0 0 1 2.593 1.501v28.058l-36.2 18.885v-.002Z"/>
  <path fill="#66A9EB" stroke="#333" stroke-miterlimit="10" stroke-width=".444" d="m2.718 52.396 21.85 12.618a6.742 6.742 0 0 0 6.745 0L60.259 48.3c1.651-.953 1.913-5.247.262-6.201l-18.996-8.907c-1.718-.99-37.258 16.13-38.974 17.12l.165 2.084h.002Z"/>
  <path fill="#D3E2F1" stroke="#333" stroke-miterlimit="10" stroke-width=".444" d="m2.718 50.312 21.85 12.617a6.741 6.741 0 0 0 6.745 0l28.946-16.713c1.651-.953 1.651-3.337 0-4.29l-20.556-11.87a1.902 1.902 0 0 0-1.902 0L2.718 50.312Z"/>
  <path fill="#807D7C" d="m32.554 52.873 4.782 2.762c.571.33 1.273.33 1.845 0l7.917-4.571a.677.677 0 0 0 0-1.173l-5.123-2.96a1.517 1.517 0 0 0-1.519 0l-7.902 4.564a.796.796 0 0 0 0 1.38v-.002Z"/>
  <path fill="#807D7C" stroke="#333" stroke-miterlimit="10" stroke-width=".222" d="m8.192 50.663 1.344-.776c.14-.082.14-.215 0-.294l-.579-.335a.563.563 0 0 0-.51 0l-1.344.777c-.14.082-.14.214 0 .294l.579.334a.56.56 0 0 0 .51 0Zm2.31-1.334 1.344-.777c.14-.081.14-.214 0-.294l-.579-.334a.563.563 0 0 0-.51 0l-1.344.776c-.14.082-.14.215 0 .295l.579.334c.14.081.37.081.51 0Zm2.311-1.333 1.345-.776c.14-.082.14-.215 0-.294l-.579-.334a.563.563 0 0 0-.51 0l-1.346.776c-.14.082-.14.215 0 .294l.579.334a.56.56 0 0 0 .51 0Zm2.31-1.334 1.344-.777c.14-.081.14-.214 0-.294l-.58-.334a.563.563 0 0 0-.51 0l-1.344.776c-.14.082-.14.215 0 .295l.579.334c.14.081.37.081.51 0Zm2.307-1.335 1.345-.776c.14-.082.14-.215 0-.294l-.58-.334a.562.562 0 0 0-.51 0l-1.344.776c-.14.082-.14.215 0 .294l.58.334a.56.56 0 0 0 .51 0Zm2.31-1.332 1.347-.776c.14-.082.14-.215 0-.295l-.58-.334a.563.563 0 0 0-.51 0l-1.346.776c-.14.082-.14.215 0 .295l.58.334a.56.56 0 0 0 .51 0Zm2.311-1.335 1.346-.776c.14-.082.14-.215 0-.294l-.579-.334a.563.563 0 0 0-.51 0l-1.346.776c-.14.082-.14.215 0 .294l.579.334a.56.56 0 0 0 .51 0Zm2.31-1.334 1.344-.776c.14-.082.14-.215 0-.295l-.579-.334a.563.563 0 0 0-.51 0l-1.344.777c-.14.081-.14.214 0 .294l.579.334c.14.081.37.081.51 0Zm2.311-1.333 1.343-.776c.14-.082.14-.215 0-.294l-.579-.334a.563.563 0 0 0-.51 0l-1.344.776c-.14.082-.14.215 0 .294l.579.334a.56.56 0 0 0 .51 0Zm2.31-1.334 1.345-.776c.14-.082.14-.215 0-.295l-.579-.334a.563.563 0 0 0-.51 0l-1.346.777c-.14.081-.14.214 0 .294l.579.334c.14.081.37.081.51 0Zm2.308-1.333 1.344-.776c.14-.082.14-.214 0-.294l-.58-.334a.563.563 0 0 0-.51 0l-1.344.776c-.14.082-.14.215 0 .294l.579.334a.56.56 0 0 0 .51 0Zm2.31-1.334 1.344-.776c.14-.082.14-.215 0-.295l-.58-.334a.563.563 0 0 0-.51 0l-1.344.777c-.14.081-.14.214 0 .294l.58.334a.56.56 0 0 0 .51 0Zm2.31-1.335 1.344-.776c.14-.082.14-.214 0-.294l-.579-.334a.563.563 0 0 0-.51 0l-1.345.776c-.14.082-.14.215 0 .294l.58.334a.56.56 0 0 0 .51 0Zm2.566-2.739-1.346.777c-.14.081-.14.214 0 .294l.58.334a.56.56 0 0 0 .51 0l1.346-.776c.14-.082.14-.215 0-.294l-.579-.335a.563.563 0 0 0-.51 0Zm-27.958 20.12.742-.43c.125-.072.125-.19 0-.261l-1.335-.771a.503.503 0 0 0-.453 0l-.743.429c-.125.072-.125.19 0 .262l1.335.77a.503.503 0 0 0 .454 0Zm-.139-1.686 1.268.733a.571.571 0 0 0 .52 0l1.268-.733c.144-.083.144-.216 0-.3l-1.268-.733a.57.57 0 0 0-.52 0l-1.268.733c-.144.084-.144.217 0 .3Zm5.266-1.576-1.268-.732a.571.571 0 0 0-.52 0l-1.268.732c-.145.084-.145.217 0 .3l1.268.733a.571.571 0 0 0 .52 0l1.268-.733c.144-.083.144-.216 0-.3Zm2.209-.976c.144-.083.144-.216 0-.3l-1.268-.732a.571.571 0 0 0-.52 0l-1.268.733c-.144.083-.144.216 0 .3l1.268.732a.571.571 0 0 0 .52 0l1.268-.732Zm.422-2.306-1.268.733c-.145.084-.145.217 0 .3l1.268.733a.57.57 0 0 0 .52 0l1.268-.733c.144-.084.144-.216 0-.3l-1.268-.733a.571.571 0 0 0-.52 0Zm2.207-1.275-1.268.733c-.144.083-.144.216 0 .3l1.268.732a.571.571 0 0 0 .52 0l1.268-.733c.145-.083.145-.216 0-.3l-1.268-.732a.57.57 0 0 0-.52 0Zm2.21-1.276-1.268.733c-.144.083-.144.216 0 .3l1.268.733a.571.571 0 0 0 .52 0l1.268-.733c.144-.084.144-.217 0-.3l-1.268-.733a.571.571 0 0 0-.52 0Zm2.209-1.275-1.268.732c-.144.084-.144.217 0 .3l1.268.733a.571.571 0 0 0 .52 0l1.268-.733c.144-.083.144-.216 0-.3l-1.268-.732a.571.571 0 0 0-.52 0Zm3.998-.243c.144-.084.144-.217 0-.3l-1.268-.733a.571.571 0 0 0-.52 0l-1.268.733c-.145.083-.145.216 0 .3l1.268.732a.571.571 0 0 0 .52 0l1.268-.732Zm2.207-1.276c.145-.084.145-.216 0-.3l-1.268-.733a.57.57 0 0 0-.52 0l-1.268.733c-.144.084-.144.217 0 .3l1.268.733a.571.571 0 0 0 .52 0l1.268-.733Zm-.846-1.276 1.268.733a.571.571 0 0 0 .52 0l1.268-.733c.144-.083.144-.216 0-.3l-1.268-.732a.571.571 0 0 0-.52 0l-1.268.732c-.144.084-.144.217 0 .3Zm2.207-1.275 1.269.733a.57.57 0 0 0 .52 0l1.268-.733c.144-.084.144-.217 0-.3l-1.268-.733a.571.571 0 0 0-.52 0l-1.269.733c-.144.083-.144.216 0 .3Zm2.21-1.276 1.268.733a.571.571 0 0 0 .52 0l1.268-.733c.144-.083.144-.216 0-.3l-1.268-.732a.57.57 0 0 0-.52 0l-1.268.732c-.144.084-.144.217 0 .3Zm5.48-3.464-3.303 1.908c-.125.072-.125.19 0 .264l1.333.768c.125.072.33.072.455 0l3.303-1.907c.126-.073.126-.19 0-.264l-1.332-.77a.507.507 0 0 0-.456 0Zm-3.188 6.325-1.27-.733a.571.571 0 0 0-.52 0l-1.268.733c-.144.083-.144.216 0 .3l1.268.732a.57.57 0 0 0 .52 0l1.268-.732c.145-.084.145-.217 0-.3Zm2.207-1.273-1.268-.734a.571.571 0 0 0-.52 0l-1.268.733c-.145.084-.145.217 0 .3l1.268.733a.571.571 0 0 0 .52 0l1.268-.733c.144-.084.144-.216 0-.3Zm2.206-1.275-1.268-.732a.571.571 0 0 0-.52 0l-1.268.732c-.145.084-.145.217 0 .3l1.267.733a.571.571 0 0 0 .52 0l1.269-.733c.144-.083.144-.216 0-.3Zm-6.62 3.821-1.268-.732a.571.571 0 0 0-.52 0l-1.268.733c-.144.083-.144.216 0 .3l1.268.732a.571.571 0 0 0 .52 0l1.268-.733c.145-.083.145-.216 0-.3Zm-2.205 1.274-1.268-.732a.57.57 0 0 0-.52 0l-1.268.732c-.145.084-.145.217 0 .3l1.268.733a.571.571 0 0 0 .52 0l1.268-.733c.144-.083.144-.216 0-.3Zm-5.262 1.574 1.268.733a.571.571 0 0 0 .52 0l1.268-.733c.144-.084.144-.217 0-.3l-1.268-.733a.57.57 0 0 0-.52 0l-1.268.733c-.144.084-.144.216 0 .3Zm-2.208 1.274 1.268.732a.571.571 0 0 0 .52 0l1.268-.732c.145-.084.145-.217 0-.3l-1.268-.733a.571.571 0 0 0-.52 0l-1.268.733c-.144.083-.144.216 0 .3Zm-2.205 1.273 1.268.733a.571.571 0 0 0 .52 0l1.268-.733c.144-.083.144-.216 0-.3l-1.268-.732a.571.571 0 0 0-.52 0l-1.268.732c-.145.084-.145.217 0 .3Zm-2.206 1.274 1.268.733a.57.57 0 0 0 .52 0l1.268-.733c.144-.084.144-.217 0-.3l-1.268-.733a.571.571 0 0 0-.52 0l-1.268.733c-.145.083-.145.216 0 .3Zm.85.974-1.268-.733a.571.571 0 0 0-.52 0l-1.268.733c-.144.083-.144.216 0 .3l1.268.732a.571.571 0 0 0 .52 0l1.268-.732c.144-.084.144-.217 0-.3Zm-3.474 2.306 1.269-.733c.144-.083.144-.216 0-.3l-1.268-.732a.57.57 0 0 0-.52 0l-1.269.732c-.144.084-.144.217 0 .3l1.268.733a.571.571 0 0 0 .52 0Zm-3.993.241c-.145.084-.145.216 0 .3l1.268.733a.571.571 0 0 0 .52 0l1.268-.733c.144-.084.144-.216 0-.3l-1.268-.733a.571.571 0 0 0-.52 0l-1.268.733Zm-1.204 2.76 2.101-1.213c.118-.068.118-.176 0-.245l-1.363-.788a.467.467 0 0 0-.425 0l-2.101 1.214c-.118.068-.118.176 0 .244l1.363.788a.467.467 0 0 0 .425 0Zm29.671-19.198-2.101 1.213c-.118.068-.118.176 0 .245l1.363.787a.466.466 0 0 0 .425 0l2.101-1.213c.118-.068.118-.176 0-.245l-1.363-.787a.467.467 0 0 0-.425 0Zm-5.584 8.006 1.268-.733c.144-.083.144-.216 0-.3l-1.268-.732a.571.571 0 0 0-.52 0l-1.269.733c-.144.083-.144.216 0 .3l1.268.732a.571.571 0 0 0 .52 0Zm2.213-1.277 1.268-.733c.144-.084.144-.216 0-.3l-1.268-.733a.571.571 0 0 0-.52 0l-1.268.733c-.145.084-.145.216 0 .3l1.268.733a.57.57 0 0 0 .52 0Zm2.214-1.277 1.267-.733c.145-.084.145-.217 0-.3l-1.268-.733a.571.571 0 0 0-.52 0l-1.268.733c-.144.083-.144.216 0 .3l1.268.732a.571.571 0 0 0 .52 0Zm-6.639 3.834L36 42.76c.145-.084.145-.217 0-.3l-1.268-.733a.571.571 0 0 0-.52 0l-1.268.733c-.144.084-.144.216 0 .3l1.268.733a.57.57 0 0 0 .52 0Zm-.945.245-1.268-.733a.571.571 0 0 0-.52 0l-1.268.733c-.145.083-.145.216 0 .3l1.268.732a.571.571 0 0 0 .52 0l1.268-.733c.144-.083.144-.216 0-.3Zm-2.213 1.277-1.268-.733a.571.571 0 0 0-.52 0l-1.269.733c-.144.084-.144.217 0 .3l1.268.733a.571.571 0 0 0 .52 0l1.269-.733c.144-.084.144-.216 0-.3Zm-2.212 1.278-1.268-.733a.571.571 0 0 0-.52 0l-1.268.733c-.144.083-.144.216 0 .3l1.268.732a.571.571 0 0 0 .52 0l1.268-.733c.144-.083.144-.216 0-.3Zm-2.213 1.277-1.268-.733a.571.571 0 0 0-.52 0l-1.268.733c-.145.084-.145.216 0 .3l1.268.733a.571.571 0 0 0 .52 0l1.268-.733c.144-.084.144-.217 0-.3Zm-3.482 2.31 1.268-.733c.145-.083.145-.216 0-.3l-1.268-.732a.57.57 0 0 0-.52 0l-1.268.733c-.144.083-.144.216 0 .3l1.268.732a.571.571 0 0 0 .52 0Zm-2.213 1.278 1.268-.733c.145-.084.145-.216 0-.3l-1.268-.733a.571.571 0 0 0-.52 0l-1.268.733c-.144.084-.144.216 0 .3l1.268.733a.571.571 0 0 0 .52 0Zm-.943.247-1.268-.733a.571.571 0 0 0-.52 0l-1.268.733c-.145.083-.145.216 0 .3l1.268.732a.571.571 0 0 0 .52 0l1.268-.733c.144-.083.144-.216 0-.3Zm-5.308 3.364 3.15-1.82c.113-.064.113-.17 0-.235l-1.379-.795a.458.458 0 0 0-.41 0l-3.149 1.818c-.114.065-.114.171 0 .236l1.378.795a.459.459 0 0 0 .41 0Zm29.687-19.207-3.15 1.818c-.113.065-.113.171 0 .236l1.379.795a.459.459 0 0 0 .41 0l3.149-1.818c.114-.065.114-.171 0-.236l-1.378-.795a.459.459 0 0 0-.41 0Zm-5.046 5.63-1.268.733c-.144.083-.144.216 0 .3l1.268.732a.571.571 0 0 0 .52 0l1.268-.732c.144-.084.144-.217 0-.3l-1.268-.733a.571.571 0 0 0-.52 0Zm4.045-.27c.145-.083.145-.216 0-.3l-1.268-.732a.57.57 0 0 0-.52 0l-1.268.733c-.144.083-.144.216 0 .3l1.268.732a.571.571 0 0 0 .52 0l1.268-.733Zm-6.3 1.572-1.268.733c-.144.083-.144.216 0 .3l1.268.733a.571.571 0 0 0 .52 0l1.268-.733c.145-.084.145-.217 0-.3l-1.268-.733a.571.571 0 0 0-.52 0ZM35.333 43.8l-1.268.732c-.144.083-.144.216 0 .3l1.268.733a.571.571 0 0 0 .52 0l1.268-.733c.144-.084.144-.217 0-.3l-1.268-.733a.571.571 0 0 0-.52 0Zm-1.737 3.067 1.268-.733c.144-.083.144-.216 0-.3l-1.268-.733a.57.57 0 0 0-.52 0l-1.268.733c-.144.084-.144.217 0 .3l1.268.733a.571.571 0 0 0 .52 0Zm-2.256 1.302 1.269-.733c.144-.083.144-.216 0-.3l-1.268-.732a.571.571 0 0 0-.52 0l-1.268.732c-.145.084-.145.217 0 .3l1.268.733a.57.57 0 0 0 .52 0Zm-2.256 1.302 1.268-.732c.144-.084.144-.217 0-.3l-1.268-.733a.571.571 0 0 0-.52 0l-1.268.732c-.144.084-.144.217 0 .3l1.268.733a.571.571 0 0 0 .52 0Zm-2.255 1.302 1.268-.732c.144-.084.144-.217 0-.3l-1.268-.733a.57.57 0 0 0-.52 0l-1.268.733c-.144.083-.144.216 0 .3l1.268.732a.571.571 0 0 0 .52 0Zm-2.775-.463-1.268.733c-.145.083-.145.216 0 .3l1.268.732a.57.57 0 0 0 .52 0l1.268-.732c.144-.084.144-.217 0-.3l-1.268-.733a.571.571 0 0 0-.52 0Zm-2.255 1.302-1.268.733c-.145.084-.145.216 0 .3l1.268.733a.571.571 0 0 0 .52 0l1.268-.733c.144-.084.144-.216 0-.3l-1.268-.733a.571.571 0 0 0-.52 0Zm-2.263 1.308-3.707 2.14c-.149.085-.147.222 0 .307l1.254.725a.587.587 0 0 0 .534 0l3.707-2.14c.148-.084.148-.221 0-.307l-1.255-.725a.587.587 0 0 0-.533 0ZM47.18 36.958l-4.087 2.36c-.148.085-.146.222 0 .307l1.254.725a.587.587 0 0 0 .534 0l4.087-2.36c.148-.085.148-.221 0-.307l-1.255-.725a.587.587 0 0 0-.533 0Zm-7.257 7.112-1.268.733c-.144.084-.144.217 0 .3l1.268.733a.57.57 0 0 0 .52 0l1.268-.733c.144-.083.144-.216 0-.3l-1.268-.732a.571.571 0 0 0-.52 0Zm2.34-1.35-1.268.732c-.144.084-.144.216 0 .3l1.268.733a.571.571 0 0 0 .52 0l1.268-.733c.145-.084.145-.217 0-.3l-1.268-.733a.57.57 0 0 0-.52 0Zm-15.875 9.164-1.268.733c-.144.083-.144.216 0 .3l1.268.732a.571.571 0 0 0 .52 0l1.268-.733c.145-.083.145-.216 0-.3l-1.267-.732a.571.571 0 0 0-.52 0Zm-2.255 1.304-1.268.733c-.144.083-.144.216 0 .3l1.268.732a.571.571 0 0 0 .52 0l1.268-.733c.145-.083.145-.216 0-.3l-1.268-.732a.571.571 0 0 0-.52 0Zm-2.256 1.302-1.269.733c-.144.083-.144.216 0 .3l1.268.732a.571.571 0 0 0 .52 0l1.269-.732c.144-.084.144-.217 0-.3l-1.268-.733a.571.571 0 0 0-.52 0Zm-2.256 1.302-1.268.733c-.144.084-.144.216 0 .3l1.268.733a.571.571 0 0 0 .52 0l1.268-.733c.145-.084.145-.217 0-.3l-1.268-.733a.57.57 0 0 0-.52 0Zm28.616-15.457-1.393.805c-.139.08-.139.21 0 .29l.36.21a.563.563 0 0 0 .503 0l1.394-.806c.138-.08.138-.21 0-.29l-.361-.209a.558.558 0 0 0-.503 0Zm2.413-1.391-1.394.804c-.138.08-.138.211 0 .291l.36.209a.56.56 0 0 0 .504 0l1.393-.805c.139-.08.139-.21 0-.29l-.36-.21a.559.559 0 0 0-.503 0Zm-4.824 2.784-1.393.805c-.139.08-.139.21 0 .29l.36.21c.14.08.365.08.504 0l1.393-.805c.139-.08.139-.211 0-.29l-.36-.21a.558.558 0 0 0-.504 0Zm1.151-2.12-1.394.805c-.138.08-.138.21 0 .29l.361.21a.563.563 0 0 0 .503 0l1.393-.806c.139-.08.139-.21 0-.29l-.36-.209a.559.559 0 0 0-.503 0Zm-9.435 5.835-10.043 5.8c-.165.094-.165.25 0 .345l1.19.687a.664.664 0 0 0 .598 0l10.043-5.8c.166-.094.166-.25 0-.345l-1.19-.687a.664.664 0 0 0-.598 0Z"/>
  <path fill="#D3E2F1" d="M4.52 23.92v22.49L36.95 27.7V5.8a.87.87 0 0 0-1.304-.753L5.3 22.57a1.557 1.557 0 0 0-.778 1.35H4.52Z"/>
  <mask id="a" width="33" height="43" x="4" y="4" maskUnits="userSpaceOnUse" style="mask-type:luminance">
    <path fill="#fff" d="M4.52 23.92v22.49L36.95 27.7V5.8a.87.87 0 0 0-1.304-.753L5.3 22.57a1.557 1.557 0 0 0-.778 1.35H4.52Z"/>
  </mask>
  <g mask="url(#a)">
    <path fill="#fff" d="M27.303-6.583c-2.108-.48-3.654.649-4.436 2.519a2528.24 2528.24 0 0 0-38.9 98.584c-.657 1.773.733 4.03 2.52 4.436 2.043.465 3.733-.62 4.435-2.52a2528.976 2528.976 0 0 1 38.9-98.584c.731-1.745-.785-4.04-2.518-4.435Zm15.707.013c-.23-.837-.878-1.742-1.658-2.154-1.543-.815-4.151-.562-4.935 1.294-6.773 16.04-13.111 32.26-18.95 48.665a908.419 908.419 0 0 0-4.791 13.823c-.604 1.788.695 4.02 2.519 4.436 1.997.455 3.789-.604 4.436-2.52A892.631 892.631 0 0 1 41.43-.891l.715-1.709.286-.683c.042-.1.439-1.042.213-.503.395-.934.645-1.756.364-2.78v-.003Z" opacity=".54"/>
  </g>
  <path stroke="#333" stroke-miterlimit="10" stroke-width=".444" d="M4.52 23.92v22.49L36.95 27.7V5.8a.87.87 0 0 0-1.304-.753L5.3 22.57a1.557 1.557 0 0 0-.778 1.35H4.52Z"/>
</svg>
