<svg xmlns="http://www.w3.org/2000/svg" width="63" height="43" fill="none" viewBox="0 0 63 43">
  <path fill="#fff" stroke="#333" stroke-linecap="round" stroke-linejoin="round" stroke-width="1.392" d="M15.229 41.468c7.945 0 14.386-9.06 14.386-20.234C29.615 10.059 23.175 1 15.23 1 7.283 1 .843 10.059.843 21.234c0 11.175 6.44 20.234 14.386 20.234Z"/>
  <path fill="#333" d="M9.843 33.894c4.97 0 9-5.668 9-12.66s-4.03-12.66-9-12.66c-4.971 0-9 5.668-9 12.66s4.029 12.66 9 12.66Z"/>
  <path fill="#fff" d="M11.923 14.175a1.788 1.788 0 1 0 0-3.576 1.788 1.788 0 0 0 0 3.576Z"/>
  <path fill="#fff" stroke="#333" stroke-linecap="round" stroke-linejoin="round" stroke-width="1.392" d="M47.81 41.468c7.945 0 14.386-9.06 14.386-20.234C62.196 10.059 55.756 1 47.81 1c-7.945 0-14.386 9.059-14.386 20.234 0 11.175 6.44 20.234 14.386 20.234Z"/>
  <path fill="#333" d="M42.424 33.894c4.97 0 9-5.668 9-12.66s-4.03-12.66-9-12.66-9 5.668-9 12.66 4.03 12.66 9 12.66Z"/>
  <path fill="#fff" d="M44.505 14.175a1.788 1.788 0 1 0 0-3.576 1.788 1.788 0 0 0 0 3.576Z"/>
</svg>
