<svg xmlns="http://www.w3.org/2000/svg" width="70" height="78" fill="none" viewBox="0 0 70 78">
  <path fill="#A8D471" d="M1 77.264c1.229-8.542 3.8-14.878 5.822-18.93 1.939-3.888 3.564-6.055 5.974-7.86 3.778-2.826 7.955-3.622 10.306-3.887h23.794c2.351.265 6.528 1.06 10.307 3.888 2.409 1.802 4.034 3.97 5.973 7.859 2.022 4.052 4.593 10.388 5.822 18.93"/>
  <path fill="#F3D2BA" d="M54.645 30.552c.01 1.768.162 9.123-4.835 13.866-3.045 2.89-7.765 4.645-14.808 4.645S23.24 47.31 20.195 44.418c-5.005-4.75-4.85-12.034-4.836-13.866 2.222-8.74 9.79-15.03 18.493-15.52 9.493-.533 18.328 5.945 20.797 15.52h-.004Z"/>
  <path fill="#F3D2BA" d="M16.2 38.745c-.233.054-.52.094-.847.083-1.758-.062-4.35-1.61-4.35-4.35 0-2.387 1.964-4.351 4.35-4.351l.847 8.62v-.002Zm38.447-8.62a4.35 4.35 0 1 1-.818 8.624l.818-8.626v.002Z"/>
  <path fill="#7D5045" d="M56.818 13.553C52.704 4.421 41.687-.022 33.427 2.073a16.229 16.229 0 0 0-4.85 2.14l-2.068.356c-1.288-.07-3.31-.02-5.561.784-6.211 2.223-8.645 8.225-9.129 9.414-3.093 7.624.516 14.693 1.098 15.787l2.683-.597a23.317 23.317 0 0 0 8.415-4.202 23.322 23.322 0 0 0 5.75-6.64l-.484-1.73c.895 2.498 2.651 5.786 6.074 7.794 2.467 1.449 6.85 2.85 8.589 1.262 1.46.966 3.004 1.577 4.354 2.107 1.529.6 3.672 1.267 6.351 1.577l1.991.08c.674-1.596 3.613-9.025.18-16.65l-.002-.002Z"/>
  <path fill="#F3D2BA" d="M19.575 73.201a5.557 5.557 0 0 1-1.672 1.893c-.222.156-2.32 1.593-4.745.811-1.454-.47-2.275-1.495-2.614-1.933-1.456-1.874-1.398-4.027-1.344-6.057.068-2.523.125-5.11 2.042-6.588 1.269-.98 2.728-1.03 3.098-1.033 2.043-.013 3.424 1.212 4.08 1.795.5.443 2.477 2.201 2.385 4.033-.013.248-.073.703.197.934.429.37 1.16-.29 1.721 0 .805.418.507 2.403.443 2.827-.142.948-.383 2.557-1.525 2.95-.647.224-1.304-.044-1.647-.221l-.418.59h-.002Z"/>
  <path fill="#66A9EB" d="M12.181 60.073c.064-.505.16-1.279.262-2.228.237-2.178.233-2.685.688-3.081.597-.522 1.693-.6 2.295-.131.468.363.455.914.655 3.015.137 1.43.624 2.069.262 2.427-.11.108-.189.094-1.148.164-1.344.098-1.606.156-2.155.063a4.662 4.662 0 0 1-.86-.23h.001Z"/>
  <path fill="#F3D2BA" d="M50.208 73.201c.26.478.769 1.258 1.672 1.893.221.156 2.32 1.593 4.745.811 1.454-.47 2.274-1.495 2.613-1.933 1.456-1.874 1.398-4.027 1.345-6.057-.068-2.523-.126-5.11-2.042-6.588-1.269-.98-2.729-1.03-3.098-1.033-2.044-.013-3.424 1.212-4.081 1.795-.499.443-2.477 2.201-2.384 4.033.013.248.073.703-.197.934-.43.37-1.161-.29-1.721 0-.805.418-.507 2.403-.443 2.827.142.948.383 2.557 1.525 2.95.647.224 1.304-.044 1.646-.221l.418.59h.002Z"/>
  <path fill="#66A9EB" d="M57.601 60.073c-.063-.505-.16-1.279-.262-2.228-.236-2.178-.233-2.685-.687-3.081-.597-.522-1.693-.6-2.296-.131-.468.363-.454.914-.654 3.015-.137 1.43-.624 2.069-.262 2.427.11.108.188.094 1.147.164 1.345.098 1.606.156 2.155.063a4.66 4.66 0 0 0 .861-.23h-.002Z"/>
  <path stroke="#333" stroke-linecap="round" stroke-linejoin="round" stroke-width="1.348" d="M46.898 46.589c2.351.265 6.528 1.06 10.307 3.888 2.409 1.802 4.034 3.97 5.973 7.859 2.023 4.052 4.594 10.388 5.822 18.93M23.104 46.589c-2.351.265-6.528 1.06-10.306 3.888-2.41 1.802-4.035 3.97-5.974 7.859-2.022 4.052-4.593 10.388-5.822 18.93"/>
  <path stroke="#333" stroke-linecap="round" stroke-linejoin="round" stroke-width="1.348" d="M54.645 30.552c.01 1.768.162 9.123-4.835 13.866-3.045 2.89-7.765 4.645-14.808 4.645S23.24 47.31 20.195 44.418c-5.005-4.75-4.85-12.034-4.836-13.866m13.147-15.924c.4 1.94 1.843 7.61 6.846 10.55 2.558 1.502 7.178 2.954 8.772 1.074 1.1-1.298.434-3.805-.498-5.276-1.237-1.951-3.69-3.251-4.39-2.668-.745.622.388 3.524 1.873 5.497 2.05 2.726 4.899 3.843 7.189 4.743 1.529.6 3.672 1.267 6.35 1.577"/>
  <path stroke="#333" stroke-linecap="round" stroke-linejoin="round" stroke-width="1.348" d="M29.764 19.113a23.259 23.259 0 0 1-5.75 6.64 23.286 23.286 0 0 1-8.416 4.202m.602 8.79c-.233.054-.52.094-.847.083-1.758-.062-4.35-1.61-4.35-4.35 0-2.387 1.964-4.351 4.35-4.351m39.294-.002a4.35 4.35 0 1 1-.818 8.624M28.578 4.211a16.229 16.229 0 0 1 4.849-2.14c8.258-2.094 19.277 2.348 23.39 11.482 3.434 7.625.497 15.056-.178 16.65m-43.722.349c-.582-1.093-4.19-8.161-1.098-15.787.482-1.189 2.916-7.191 9.129-9.414 2.25-.805 4.273-.855 5.561-.783M24.816 35.66a3.04 3.04 0 0 1 2.706-1.51c1.639.048 2.477 1.425 2.527 1.51m9.906 0a3.04 3.04 0 0 1 2.706-1.51c1.639.048 2.476 1.425 2.526 1.51"/>
  <path stroke="#333" stroke-linecap="round" stroke-linejoin="round" stroke-width=".963" d="M39.955 29.372a3.75 3.75 0 0 1 2.101-.907 3.774 3.774 0 0 1 2.502.682m-14.511.225a3.75 3.75 0 0 0-2.101-.907 3.775 3.775 0 0 0-2.502.682"/>
  <path stroke="#333" stroke-linecap="round" stroke-linejoin="round" stroke-width="1.348" d="M27.811 41.106c.763.113 1.466 1.08 2.32 1.165.779.077 1.657-.73 2.506-.688.788.039 1.583.93 2.427.929.83 0 1.61-.894 2.384-.932.834-.043 1.7.764 2.465.687.84-.085 1.529-1.05 2.28-1.161m-.753-2.088c.094.42.283 1.029.688 1.672a5.33 5.33 0 0 0 1.573 1.606"/>
  <path fill="#DFDDDD" d="M58.86 46.5c-.602 0-1.093.49-1.093 1.094v3.732a.78.78 0 0 1-.78.78h-.226c.01-.062.018-.123.018-.187v-3.482a1.094 1.094 0 0 0-2.188 0v3.482c0 .064.006.125.017.187h-.225a.78.78 0 0 1-.78-.78v-3.732a1.094 1.094 0 0 0-2.188 0v3.732a2.971 2.971 0 0 0 2.966 2.968h2.604a2.972 2.972 0 0 0 2.968-2.968v-3.732c0-.603-.49-1.094-1.094-1.094h.002Zm-41.333 5.034a3.218 3.218 0 1 1-6.436 0c0-1.777 1.067-5.883 3.218-5.883s3.218 4.105 3.218 5.883Z"/>
  <path stroke="#333" stroke-linecap="round" stroke-linejoin="round" stroke-width="1.155" d="M12.24 60.655c2.218-1.025 5.033.21 6.564 1.739 3.259 3.25 2.862 9.964-.73 12.427-1.633 1.12-4.242 1.58-6.185.406-2.492-1.506-2.556-4.895-2.593-6.796-.03-1.568-.12-6.363 2.943-7.776Z"/>
  <path stroke="#333" stroke-linecap="round" stroke-linejoin="round" stroke-width="1.155" d="M21.086 67.162c.892-.24 1.344-.044 1.564.108 1.389.96.22 4.793-.915 5.436-.55.312-1.007.218-1.007.218a1.232 1.232 0 0 1-.533-.262m.35-7.352a4.678 4.678 0 0 1-3.819.28m4.034 3.419a4.71 4.71 0 0 1-1.336.435c-1.384.227-2.503-.243-2.98-.48m3.586 3.608a4.63 4.63 0 0 1-2.218.375 4.67 4.67 0 0 1-2.451-.946m2.166-20.467a3.218 3.218 0 1 1-6.436 0c0-1.777 1.067-5.883 3.218-5.883s3.218 4.105 3.218 5.883Z"/>
  <path stroke="#333" stroke-linecap="round" stroke-linejoin="round" stroke-width="1.155" d="M15.45 54.6a29.846 29.846 0 0 1 .993 6.215M13.168 54.6a29.863 29.863 0 0 0-.975 5.885m45.568.17c-2.218-1.025-5.034.21-6.565 1.739-3.258 3.25-2.861 9.964.73 12.427 1.633 1.12 4.243 1.58 6.186.406 2.492-1.506 2.555-4.895 2.592-6.796.03-1.568.121-6.363-2.943-7.776Z"/>
  <path stroke="#333" stroke-linecap="round" stroke-linejoin="round" stroke-width="1.155" d="M48.916 67.162c-.891-.24-1.344-.044-1.564.108-1.388.96-.22 4.793.915 5.436.55.312 1.007.218 1.007.218.25-.052.432-.177.534-.262m-.351-7.352a4.678 4.678 0 0 0 3.82.28m-4.035 3.419c.338.17.789.344 1.336.435 1.385.227 2.503-.243 2.981-.48m-3.588 3.608c.391.17 1.19.458 2.219.375a4.67 4.67 0 0 0 2.451-.946M54.553 54.6a29.846 29.846 0 0 0-.994 6.215m3.276-6.215a29.863 29.863 0 0 1 .974 5.885M58.86 46.5c-.602 0-1.093.49-1.093 1.094v3.732a.78.78 0 0 1-.78.78h-.226c.01-.062.018-.123.018-.187v-3.482a1.094 1.094 0 0 0-2.188 0v3.482c0 .064.006.125.017.187h-.225a.78.78 0 0 1-.78-.78v-3.732a1.094 1.094 0 0 0-2.188 0v3.732a2.971 2.971 0 0 0 2.966 2.968h2.604a2.972 2.972 0 0 0 2.968-2.968v-3.732c0-.603-.49-1.094-1.094-1.094h.002Z"/>
</svg>
