<svg xmlns="http://www.w3.org/2000/svg" width="62" height="62" fill="none" viewBox="0 0 62 62">
  <path fill="#4562AC" stroke="#333" stroke-linecap="round" stroke-linejoin="round" stroke-width=".867" d="M61.245 1H1v60.245h60.245V1Z"/>
  <path fill="#FDF6ED" d="M46.84 61.245H15.407V37.692l15.651-13.173L46.84 37.691v23.554Z"/>
  <path fill="#A8D471" d="M30.93 44.106H20.837v17.14H30.93v-17.14Z"/>
  <path fill="#66A9EB" d="M41.677 44.106H34.5v7.177h7.177v-7.177Z"/>
  <path fill="#F5A759" d="M33.245 32.608a2.122 2.122 0 1 0-4.244 0 2.122 2.122 0 0 0 4.244 0Z"/>
  <path stroke="#333" stroke-linecap="round" stroke-linejoin="round" stroke-width=".867" d="M15.407 61.245V36.78m31.433 0v24.465M30.93 44.106H20.837v17.14H30.93v-17.14Zm2.315-11.498a2.122 2.122 0 1 0-4.244 0 2.122 2.122 0 0 0 4.244 0ZM8.732 61.245h44.78M41.677 44.106H34.5v7.177h7.177v-7.177ZM34.5 47.695h7.177m-3.589-3.589v7.177M15.407 37.955H46.84"/>
  <path fill="#333" d="M28.75 53.222a.546.546 0 1 0 0-1.093.546.546 0 0 0 0 1.093Z"/>
  <path fill="#F06061" stroke="#333" stroke-miterlimit="10" stroke-width=".867" d="M51.498 41.046c-.49 0-.983-.166-1.387-.506l-19.05-16.021-18.922 15.925a2.158 2.158 0 1 1-2.78-3.302l20.31-17.094a2.155 2.155 0 0 1 2.778 0l20.442 17.19a2.16 2.16 0 0 1-1.389 3.81l-.002-.002Z"/>
  <path fill="#F9CB6A" stroke="#333" stroke-linecap="round" stroke-linejoin="round" stroke-width=".867" d="M17.501 19.119a7.22 7.22 0 0 1-5.333-13.05 8.95 8.95 0 1 0 2.587 17.704c3.908-.667 6.784-3.775 7.342-7.49a7.202 7.202 0 0 1-4.596 2.837v-.001Z"/>
  <path fill="#fff" d="M29.294 11.017c0-.896-.727-1.623-1.623-1.623.896 0 1.623-.726 1.623-1.622 0 .896.726 1.622 1.622 1.622-.896 0-1.622.727-1.622 1.623Zm22.761-1.623c0-.896-.727-1.622-1.623-1.622.896 0 1.623-.727 1.623-1.623 0 .896.726 1.623 1.623 1.623-.897 0-1.623.726-1.623 1.622ZM41.677 18.61c0-.896-.726-1.622-1.623-1.622.897 0 1.623-.726 1.623-1.623 0 .897.727 1.623 1.623 1.623-.896 0-1.623.726-1.623 1.623Z"/>
</svg>
