<svg xmlns="http://www.w3.org/2000/svg" width="62" height="53" fill="none" viewBox="0 0 62 53">
  <path fill="#F06061" d="M60.351 19.389c0 17.886-7.837 32.389-29.677 32.389S1 37.275 1 19.388"/>
  <path fill="#EFEFEF" d="M30.677 37.975c16.39 0 29.676-8.322 29.676-18.587C60.353 9.125 47.067.803 30.677.803S1 9.124 1 19.39c0 10.264 13.287 18.586 29.677 18.586Z"/>
  <path fill="#ABA8A8" d="M8.805 32.167c4.978-3.696 12.877-6.13 21.791-6.214 9.011-.087 17.032 2.245 22.07 5.913-3.456 2.043-11.97 6.441-23.544 6.081-9.687-.3-16.853-3.79-20.32-5.78h.003Z"/>
  <path stroke="#333" stroke-linecap="round" stroke-linejoin="round" stroke-width="1.605" d="M30.677 37.975c16.39 0 29.676-8.322 29.676-18.587C60.353 9.125 47.067.803 30.677.803S1 9.124 1 19.39c0 10.264 13.287 18.586 29.677 18.586Z"/>
  <path stroke="#333" stroke-linecap="round" stroke-linejoin="round" stroke-width="1.605" d="M60.351 19.389c0 17.886-7.837 32.389-29.677 32.389S1 37.275 1 19.388"/>
</svg>
