<svg xmlns="http://www.w3.org/2000/svg" width="62" height="62" fill="none" viewBox="0 0 62 62">
  <path fill="#F06061" stroke="#333" stroke-miterlimit="10" stroke-width="1.398" d="M31 61c16.569 0 30-13.431 30-30C61 14.431 47.569 1 31 1 14.431 1 1 14.431 1 31c0 16.569 13.431 30 30 30Z"/>
  <path stroke="#333" stroke-linecap="round" stroke-linejoin="round" stroke-width="1.398" d="M40.863 46.139c-1.328-.701-5.144-2.492-10.187-1.853-4.922.623-8.123 3.193-9.253 4.195m19.591.002c-.05-.148-.439-1.374.316-2.502.61-.91 1.548-1.142 1.757-1.188"/>
  <path fill="#333" d="M42.594 27.31c-1.216 1.17-2.704 2.098-4.317 2.773a1.645 1.645 0 0 0-1.014 1.522v.9c0 2.383 1.853 4.418 4.235 4.498a4.385 4.385 0 0 0 4.535-4.382v-2.378a4.36 4.36 0 0 0-1.032-2.825c-.645-.763-1.718-.765-2.405-.104l-.002-.004Z"/>
  <path stroke="#333" stroke-linecap="round" stroke-linejoin="round" stroke-width="1.398" d="m36.596 31.326 10.198-6.327"/>
  <path fill="#333" d="M19.408 27.31c1.216 1.17 2.704 2.098 4.317 2.773a1.645 1.645 0 0 1 1.014 1.522v.9c0 2.383-1.853 4.418-4.235 4.498a4.385 4.385 0 0 1-4.535-4.382v-2.378a4.36 4.36 0 0 1 1.032-2.825c.645-.763 1.718-.765 2.405-.104l.002-.004Z"/>
  <path stroke="#333" stroke-linecap="round" stroke-linejoin="round" stroke-width="1.398" d="m25.407 31.326-10.199-6.327"/>
</svg>
