<svg xmlns="http://www.w3.org/2000/svg" width="65" height="65" fill="none" viewBox="0 0 65 65">
  <path fill="#F5A759" stroke="#333" stroke-miterlimit="10" stroke-width="1.161" d="M32.486 53.06a2.154 2.154 0 0 1 2.17 2.14l.045 6.307a2.153 2.153 0 1 1-4.309.031l-.044-6.308a2.154 2.154 0 0 1 2.138-2.17ZM17.79 47.096c.848.836.858 2.2.022 3.046l-4.429 4.492a2.155 2.155 0 0 1-3.068-3.025l4.429-4.492a2.153 2.153 0 0 1 3.046-.021Zm-6.174-14.61a2.154 2.154 0 0 1-2.139 2.17l-6.307.045a2.153 2.153 0 1 1-.031-4.309l6.308-.044a2.154 2.154 0 0 1 2.17 2.139ZM17.58 17.79a2.154 2.154 0 0 1-3.047.022l-4.492-4.429a2.155 2.155 0 0 1 3.025-3.068l4.492 4.429c.848.836.857 2.2.021 3.046Zm14.61-6.174a2.154 2.154 0 0 1-2.17-2.139l-.044-6.307a2.154 2.154 0 1 1 4.309-.031l.044 6.308a2.154 2.154 0 0 1-2.139 2.17Zm14.696 5.964a2.153 2.153 0 0 1-.021-3.047l4.428-4.492a2.155 2.155 0 0 1 3.068 3.025l-4.428 4.492c-.836.848-2.2.858-3.047.021Zm6.174 14.61a2.154 2.154 0 0 1 2.14-2.17l6.307-.044a2.153 2.153 0 1 1 .031 4.309l-6.308.044a2.154 2.154 0 0 1-2.17-2.139Zm-5.964 14.696a2.153 2.153 0 0 1 3.046-.02l4.492 4.428a2.155 2.155 0 0 1-3.025 3.068l-4.492-4.429a2.153 2.153 0 0 1-.021-3.047Z"/>
  <path fill="#F5A759" stroke="#333" stroke-miterlimit="10" stroke-width="1.355" d="M32.337 47.595c8.427 0 15.258-6.831 15.258-15.258 0-8.426-6.831-15.257-15.258-15.257-8.426 0-15.257 6.831-15.257 15.258 0 8.426 6.831 15.257 15.258 15.257Z"/>
</svg>
