<svg xmlns="http://www.w3.org/2000/svg" width="65" height="57" fill="none" viewBox="0 0 65 57">
  <path fill="#F3D2BA" d="M8.306 52.791C4.782 47.124 1.322 41.884.898 33.761c-.066-2.17-.142-4.683 1.04-7.615 2.202-5.46 7.847-10.08 10.667-8.823.66.295 1.104 1.134 1.696 2.152.25.431.895 1.614 1.184 3.167.344 1.85-.087 2.764-.312 4.835 0 0-.431 4.163.93 8.971a21.737 21.737 0 0 0 1.76 4.355l-.537-1.071c.43-.754 1.032-1.89 1.624-3.326 1.622-3.93 1.525-6.1 3.26-6.948.726-.354 1.8-.492 2.401.013 1.027.864.05 3.091-.507 5.966-1.06 5.498.701 6.738-.18 10.938-.435 2.068-1.535 4.977-4.623 8.177-.343.304-2.457 2.127-5.523 1.81-3.537-.368-5.296-3.266-5.475-3.574l.003.003Zm48.369 0c3.524-5.667 6.984-10.905 7.408-19.03.066-2.17.142-4.683-1.04-7.615-2.202-5.46-7.847-10.08-10.666-8.823-.66.295-1.104 1.134-1.697 2.152-.25.431-.895 1.614-1.184 3.167-.344 1.85.087 2.764.312 4.835 0 0 .431 4.163-.93 8.971a21.736 21.736 0 0 1-1.76 4.355l.537-1.071a29.273 29.273 0 0 1-1.624-3.326c-1.622-3.93-1.525-6.1-3.26-6.948-.726-.354-1.8-.492-2.4.013-1.028.864-.05 3.091.506 5.966 1.06 5.498-.701 6.738.18 10.938.435 2.068 1.536 4.977 4.624 8.177.342.304 2.456 2.127 5.523 1.81 3.537-.368 5.295-3.266 5.475-3.574l-.004.003Z"/>
  <path fill="#66A9EB" d="M32.49 21.509c5.663 0 10.254-4.591 10.254-10.255C42.744 5.591 38.154 1 32.49 1c-5.663 0-10.254 4.59-10.254 10.254S26.826 21.51 32.49 21.51Z"/>
  <path stroke="#4562AC" stroke-linecap="round" stroke-linejoin="round" stroke-width="1.5" d="M32.49 21.509c5.663 0 10.254-4.591 10.254-10.255C42.744 5.591 38.154 1 32.49 1c-5.663 0-10.254 4.59-10.254 10.254S26.826 21.51 32.49 21.51Z"/>
  <path stroke="#333" stroke-linecap="round" stroke-linejoin="round" stroke-width="1.5" d="M17.326 39.732a29.29 29.29 0 0 0 1.624-3.327c1.622-3.928 1.525-6.1 3.26-6.947.726-.354 1.8-.492 2.401.013 1.027.864.05 3.091-.506 5.965-1.062 5.498.7 6.739-.181 10.939-.435 2.068-1.535 4.977-4.623 8.176"/>
  <path stroke="#333" stroke-linecap="round" stroke-linejoin="round" stroke-width="1.5" d="M8.306 52.791C4.78 47.124 1.322 41.884.898 33.761c-.066-2.17-.142-4.683 1.04-7.615 2.202-5.46 7.847-10.08 10.667-8.823.66.295 1.104 1.134 1.696 2.152.25.431.895 1.614 1.184 3.167.344 1.85-.087 2.764-.312 4.835 0 0-.431 4.163.93 8.971a21.737 21.737 0 0 0 1.76 4.355"/>
  <path stroke="#333" stroke-linecap="round" stroke-linejoin="round" stroke-width="1.5" d="M11.654 17.19a49.038 49.038 0 0 0-.155 16.692M8.688 18.055A35.707 35.707 0 0 0 7.049 28.18a35.27 35.27 0 0 0 .298 5.149M5.555 20.668a33.057 33.057 0 0 0-1.63 10.803c.041 2.314.322 4.368.684 6.099m43.044 2.162a29.273 29.273 0 0 1-1.624-3.327c-1.622-3.928-1.525-6.1-3.26-6.947-.726-.354-1.8-.492-2.4.013-1.027.864-.05 3.091.506 5.965 1.061 5.498-.7 6.739.181 10.939.434 2.068 1.535 4.977 4.623 8.176"/>
  <path stroke="#333" stroke-linecap="round" stroke-linejoin="round" stroke-width="1.5" d="M56.675 52.791c3.524-5.667 6.984-10.906 7.408-19.03.066-2.17.142-4.683-1.04-7.615-2.202-5.46-7.847-10.08-10.667-8.823-.66.295-1.104 1.134-1.696 2.152a10.18 10.18 0 0 0-1.184 3.167c-.344 1.85.087 2.764.312 4.835 0 0 .431 4.162-.93 8.971a21.74 21.74 0 0 1-1.76 4.355"/>
  <path stroke="#333" stroke-linecap="round" stroke-linejoin="round" stroke-width="1.5" d="M53.327 17.19a49.048 49.048 0 0 1 .155 16.692m2.812-15.827a35.71 35.71 0 0 1 1.638 10.125 35.372 35.372 0 0 1-.298 5.149m1.792-12.661a33.056 33.056 0 0 1 1.63 10.803 32.65 32.65 0 0 1-.684 6.099"/>
</svg>
