<svg xmlns="http://www.w3.org/2000/svg" width="64" height="64" fill="none" viewBox="0 0 64 64">
  <path fill="#F06061" d="M56.69 32.325c0 16.814-7.368 30.446-27.898 30.446S.897 49.139.897 32.325"/>
  <path fill="#EFEFEF" d="M28.792 49.795c15.407 0 27.897-7.822 27.897-17.47 0-9.649-12.49-17.47-27.897-17.47-15.407 0-27.897 7.822-27.897 17.47s12.49 17.47 27.897 17.47Z"/>
  <path fill="#F5A759" d="M28.792 50.219c14.25 0 25.8-6.402 25.8-14.298 0-7.897-11.55-14.299-25.8-14.299s-25.8 6.402-25.8 14.299c0 7.896 11.55 14.298 25.8 14.298Z"/>
  <path stroke="#7D5045" stroke-linecap="round" stroke-linejoin="round" stroke-width="2.041" d="M12.922 11.143 59.91 1.02"/>
  <mask id="a" width="54" height="34" x="2" y="16" maskUnits="userSpaceOnUse" style="mask-type:luminance">
    <path fill="#fff" d="M28.792 49.795c14.772 0 26.746-7.353 26.746-16.423 0-9.07-11.974-16.422-26.746-16.422-14.772 0-26.747 7.352-26.747 16.422S14.02 49.795 28.792 49.795Z"/>
  </mask>
  <g mask="url(#a)">
    <path fill="#F9CB6A" stroke="#333" stroke-miterlimit="10" stroke-width=".645" d="M42.99 26.805c-1.526 0-2.36-.652-2.967-1.127-.499-.39-.8-.626-1.514-.626s-1.015.235-1.514.626c-.608.475-1.44 1.127-2.967 1.127-1.527 0-2.361-.652-2.968-1.127-.498-.39-.8-.626-1.513-.626-.714 0-1.015.235-1.514.626-.609.475-1.441 1.127-2.968 1.127s-2.361-.652-2.968-1.127c-.498-.39-.8-.626-1.513-.626a1.182 1.182 0 1 1 0-2.365c1.526 0 2.36.651 2.967 1.127.5.389.8.625 1.514.625s1.015-.234 1.514-.625c.608-.476 1.44-1.127 2.968-1.127 1.526 0 2.36.651 2.967 1.127.499.389.8.625 1.514.625s1.015-.234 1.514-.625c.608-.476 1.44-1.127 2.967-1.127 1.527 0 2.362.651 2.968 1.127.499.389.8.625 1.514.625a1.182 1.182 0 1 1 0 2.366Z"/>
    <path fill="#F9CB6A" stroke="#333" stroke-miterlimit="10" stroke-width=".645" d="M42.99 28.863c-1.526 0-2.36-.652-2.967-1.127-.499-.39-.8-.626-1.514-.626s-1.015.235-1.514.626c-.608.475-1.44 1.127-2.967 1.127-1.527 0-2.361-.652-2.968-1.127-.498-.39-.8-.626-1.513-.626-.714 0-1.015.235-1.514.626-.609.475-1.441 1.127-2.968 1.127s-2.361-.652-2.968-1.127c-.498-.39-.8-.626-1.513-.626a1.182 1.182 0 1 1 0-2.365c1.526 0 2.36.651 2.967 1.127.5.389.8.625 1.514.625s1.015-.234 1.514-.625c.608-.476 1.44-1.127 2.968-1.127 1.526 0 2.36.651 2.967 1.127.499.389.8.625 1.514.625s1.015-.234 1.514-.625c.608-.476 1.44-1.127 2.967-1.127 1.527 0 2.362.651 2.968 1.127.499.389.8.625 1.514.625a1.182 1.182 0 1 1 0 2.366Z"/>
    <path fill="#F9CB6A" stroke="#333" stroke-miterlimit="10" stroke-width=".645" d="M42.99 30.919c-1.526 0-2.36-.652-2.967-1.127-.499-.39-.8-.626-1.514-.626s-1.015.234-1.514.626c-.608.475-1.44 1.127-2.967 1.127-1.527 0-2.361-.652-2.968-1.127-.498-.39-.8-.626-1.513-.626-.714 0-1.015.234-1.514.626-.609.475-1.441 1.127-2.968 1.127s-2.361-.652-2.968-1.127c-.498-.39-.8-.626-1.513-.626a1.182 1.182 0 1 1 0-2.366c1.526 0 2.36.652 2.967 1.127.5.39.8.626 1.514.626s1.015-.234 1.514-.626c.608-.475 1.44-1.127 2.968-1.127 1.526 0 2.36.652 2.967 1.127.499.39.8.626 1.514.626s1.015-.234 1.514-.626c.608-.475 1.44-1.127 2.967-1.127 1.527 0 2.362.652 2.968 1.127.499.39.8.626 1.514.626a1.182 1.182 0 1 1 0 2.366Zm-15.76 7.926c-1.515.179-2.419-.372-3.079-.772-.542-.329-.866-.527-1.576-.445-.71.082-.98.353-1.43.798-.549.542-1.301 1.286-2.817 1.464-1.516.179-2.42-.372-3.08-.772-.54-.329-.866-.527-1.576-.445-.71.082-.98.353-1.43.798-.548.542-1.3 1.286-2.817 1.464-1.516.179-2.42-.372-3.08-.772-.539-.329-.866-.527-1.576-.445a1.184 1.184 0 0 1-1.311-1.036 1.183 1.183 0 0 1 1.036-1.312c1.516-.179 2.42.372 3.08.772.54.329.866.527 1.576.445.71-.082.98-.353 1.43-.798.548-.542 1.3-1.286 2.817-1.464 1.516-.179 2.42.372 3.08.772.54.329.866.527 1.576.445.71-.082.98-.353 1.43-.798.548-.542 1.3-1.286 2.817-1.464 1.516-.179 2.419.372 3.079.772.542.329.867.527 1.576.445a1.184 1.184 0 0 1 1.312 1.036 1.183 1.183 0 0 1-1.037 1.312Z"/>
    <path fill="#F9CB6A" stroke="#333" stroke-miterlimit="10" stroke-width=".645" d="M27.471 40.888c-1.516.178-2.419-.372-3.079-.772-.542-.329-.867-.527-1.576-.445-.71.084-.98.352-1.43.798-.549.542-1.301 1.286-2.817 1.464-1.516.179-2.42-.372-3.08-.772-.54-.329-.866-.527-1.576-.445-.71.082-.98.353-1.43.798-.548.542-1.301 1.286-2.817 1.464-1.516.179-2.42-.372-3.08-.772-.54-.329-.866-.527-1.576-.445a1.184 1.184 0 0 1-1.31-1.036 1.18 1.18 0 0 1 1.036-1.312c1.516-.179 2.42.372 3.08.772.54.329.866.527 1.576.445.71-.082.98-.353 1.43-.798.548-.542 1.3-1.286 2.817-1.464 1.516-.179 2.419.372 3.08.772.539.329.866.527 1.575.445.71-.082.981-.353 1.43-.798.549-.542 1.302-1.286 2.818-1.464 1.515-.179 2.419.372 3.079.772.542.329.866.526 1.576.445a1.183 1.183 0 0 1 1.312 1.036 1.183 1.183 0 0 1-1.037 1.312Z"/>
    <path fill="#F9CB6A" stroke="#333" stroke-miterlimit="10" stroke-width=".645" d="M27.71 42.93c-1.516.18-2.42-.371-3.08-.771-.541-.33-.866-.527-1.576-.445-.71.084-.98.352-1.43.797-.548.542-1.3 1.286-2.817 1.465-1.516.178-2.419-.372-3.08-.772-.539-.33-.866-.527-1.575-.445-.71.084-.981.352-1.43.798-.549.541-1.301 1.286-2.817 1.464-1.517.178-2.42-.372-3.08-.772-.54-.329-.866-.527-1.576-.445a1.183 1.183 0 0 1-1.312-1.037 1.18 1.18 0 0 1 1.037-1.311c1.516-.179 2.419.372 3.079.772.54.329.867.526 1.576.445.71-.082.98-.353 1.43-.798.549-.542 1.301-1.286 2.817-1.464 1.516-.179 2.42.372 3.08.772.54.329.866.526 1.576.445.71-.084.98-.353 1.43-.798.548-.542 1.301-1.286 2.817-1.465 1.516-.178 2.42.372 3.08.773.541.329.866.526 1.576.445a1.183 1.183 0 0 1 .275 2.348Zm7.797-18.25c-1.516.179-2.419-.372-3.079-.772-.542-.329-.867-.527-1.576-.445-.71.084-.98.353-1.43.798-.549.542-1.301 1.286-2.817 1.465-1.516.178-2.42-.373-3.08-.773-.54-.328-.866-.526-1.576-.445-.71.082-.98.353-1.43.798-.548.542-1.301 1.286-2.817 1.465-1.516.178-2.42-.373-3.08-.772-.54-.33-.866-.527-1.576-.446a1.183 1.183 0 0 1-.275-2.348c1.516-.178 2.42.372 3.08.772.54.33.866.527 1.576.445.71-.081.98-.352 1.43-.797.548-.542 1.3-1.286 2.817-1.465 1.516-.178 2.419.372 3.08.772.539.33.866.527 1.575.445.71-.081.981-.352 1.43-.798.549-.541 1.301-1.285 2.817-1.464 1.517-.178 2.42.372 3.08.772.542.329.867.527 1.576.445a1.184 1.184 0 0 1 1.312 1.037 1.18 1.18 0 0 1-1.037 1.311Z"/>
    <path fill="#F9CB6A" stroke="#333" stroke-miterlimit="10" stroke-width=".645" d="M35.748 26.723c-1.516.179-2.419-.372-3.08-.772-.541-.329-.866-.527-1.575-.445-.71.084-.981.353-1.43.798-.549.542-1.301 1.286-2.817 1.464-1.517.179-2.42-.372-3.08-.772-.54-.329-.866-.526-1.576-.445-.71.082-.98.353-1.43.798-.549.542-1.301 1.286-2.817 1.464-1.516.179-2.42-.372-3.08-.772-.54-.329-.866-.526-1.576-.445a1.183 1.183 0 0 1-1.312-1.036 1.18 1.18 0 0 1 1.037-1.312c1.516-.178 2.42.372 3.08.772.54.329.866.527 1.576.445.71-.082.98-.352 1.43-.798.548-.542 1.3-1.286 2.817-1.464 1.516-.179 2.419.372 3.08.772.539.329.866.527 1.575.445.71-.084.98-.353 1.43-.798.549-.542 1.301-1.286 2.817-1.464 1.516-.179 2.42.372 3.08.772.542.329.866.527 1.576.445a1.183 1.183 0 0 1 .275 2.348Z"/>
    <path fill="#F9CB6A" stroke="#333" stroke-miterlimit="10" stroke-width=".645" d="M35.987 28.766c-1.516.178-2.42-.372-3.08-.772-.541-.33-.866-.527-1.576-.445-.71.084-.98.352-1.43.798-.548.541-1.3 1.285-2.817 1.464-1.516.178-2.419-.372-3.08-.772-.539-.329-.866-.527-1.576-.445-.71.082-.98.353-1.43.798-.548.542-1.3 1.286-2.817 1.464-1.516.179-2.419-.372-3.079-.772-.54-.329-.867-.527-1.576-.445a1.183 1.183 0 0 1-.275-2.348c1.516-.179 2.419.372 3.079.772.54.329.867.527 1.576.445.71-.082.98-.353 1.43-.798.549-.542 1.301-1.286 2.817-1.464 1.516-.179 2.42.372 3.08.772.54.329.866.526 1.576.445.71-.082.98-.353 1.43-.798.548-.542 1.3-1.286 2.817-1.464 1.516-.179 2.42.372 3.08.771.541.33.866.527 1.576.446a1.184 1.184 0 0 1 1.311 1.036 1.18 1.18 0 0 1-1.036 1.312Zm4.527 4.553c-1.516.178-2.42-.373-3.08-.773-.542-.328-.866-.526-1.576-.445-.71.082-.98.353-1.43.798-.548.542-1.301 1.286-2.817 1.465-1.516.178-2.42-.372-3.08-.772-.54-.33-.866-.527-1.576-.445-.71.083-.98.352-1.43.797-.548.542-1.3 1.286-2.817 1.465-1.516.178-2.419-.372-3.08-.772-.539-.33-.866-.527-1.575-.445a1.183 1.183 0 0 1-.276-2.349c1.516-.178 2.42.372 3.08.772.54.33.866.527 1.576.445.71-.083.98-.352 1.43-.797.548-.542 1.301-1.286 2.817-1.465 1.516-.178 2.42.372 3.08.772.54.33.866.527 1.576.445.71-.081.98-.352 1.43-.797.548-.542 1.3-1.286 2.817-1.465 1.516-.178 2.419.372 3.08.772.541.33.866.527 1.575.445a1.183 1.183 0 0 1 .275 2.348Z"/>
    <path fill="#F9CB6A" stroke="#333" stroke-miterlimit="10" stroke-width=".645" d="M40.754 35.361c-1.516.179-2.419-.372-3.079-.771-.542-.33-.867-.527-1.576-.446-.71.084-.98.353-1.43.798-.549.542-1.301 1.286-2.817 1.465-1.516.178-2.42-.372-3.08-.772-.54-.33-.866-.527-1.576-.446-.71.082-.98.353-1.43.798-.548.542-1.301 1.286-2.817 1.465-1.516.178-2.42-.372-3.08-.772-.54-.33-.866-.527-1.576-.446a1.183 1.183 0 0 1-1.311-1.036 1.18 1.18 0 0 1 1.036-1.312c1.516-.178 2.42.372 3.08.772.54.33.866.527 1.576.445.71-.081.98-.352 1.43-.797.548-.542 1.3-1.286 2.817-1.465 1.516-.178 2.419.372 3.08.772.539.33.866.527 1.575.445.71-.081.981-.352 1.43-.797.549-.542 1.301-1.286 2.818-1.465 1.516-.178 2.419.372 3.079.772.542.33.867.527 1.576.445a1.183 1.183 0 0 1 .275 2.349Z"/>
    <path fill="#F9CB6A" stroke="#333" stroke-miterlimit="10" stroke-width=".645" d="M40.993 37.407c-1.516.178-2.42-.372-3.08-.772-.541-.33-.866-.527-1.575-.446-.71.084-.981.353-1.43.798-.549.542-1.302 1.286-2.818 1.465-1.516.178-2.419-.372-3.079-.772-.54-.33-.867-.527-1.576-.446-.71.082-.98.353-1.43.798-.549.542-1.301 1.286-2.817 1.465-1.516.178-2.42-.372-3.08-.772-.54-.33-.866-.527-1.576-.445a1.183 1.183 0 0 1-1.312-1.037 1.18 1.18 0 0 1 1.037-1.312c1.516-.178 2.42.372 3.08.772.539.33.866.527 1.576.445.71-.081.98-.352 1.43-.797.548-.542 1.3-1.286 2.817-1.465 1.516-.178 2.419.372 3.079.772.54.33.866.527 1.576.445.71-.084.98-.352 1.43-.797.549-.542 1.301-1.286 2.817-1.465 1.516-.178 2.42.372 3.08.772.541.33.866.527 1.576.445a1.183 1.183 0 0 1 .275 2.349Zm6.694-7.611c-1.518-.17-2.273-.91-2.825-1.45-.452-.442-.725-.709-1.435-.788-.71-.08-1.034.12-1.574.453-.658.405-1.557.96-3.075.79-1.518-.17-2.273-.91-2.825-1.45-.452-.443-.725-.71-1.435-.789-.71-.08-1.034.12-1.574.454-.658.404-1.557.959-3.075.789-1.518-.17-2.273-.91-2.826-1.45-.451-.442-.724-.71-1.434-.789a1.181 1.181 0 0 1 .262-2.348c1.519.17 2.273.91 2.826 1.45.452.442.725.71 1.434.789.71.08 1.035-.12 1.575-.454.658-.404 1.556-.96 3.075-.79 1.518.17 2.273.91 2.825 1.45.452.443.725.71 1.434.79.71.079 1.035-.121 1.575-.454.658-.405 1.556-.96 3.075-.79 1.518.17 2.273.91 2.825 1.45.452.443.725.71 1.435.789a1.181 1.181 0 1 1-.263 2.348Z"/>
    <path fill="#F9CB6A" stroke="#333" stroke-miterlimit="10" stroke-width=".645" d="M47.457 31.839c-1.518-.17-2.273-.91-2.825-1.45-.452-.442-.725-.709-1.435-.788-.71-.08-1.034.12-1.574.453-.658.405-1.557.96-3.075.79-1.518-.17-2.273-.91-2.825-1.45-.452-.443-.725-.71-1.435-.79-.71-.079-1.034.121-1.574.455-.658.404-1.557.959-3.075.789-1.518-.17-2.273-.91-2.826-1.45-.451-.443-.724-.71-1.434-.789a1.181 1.181 0 1 1 .262-2.348c1.519.17 2.273.91 2.826 1.45.452.442.725.709 1.434.789.71.08 1.035-.12 1.575-.454.657-.404 1.556-.96 3.075-.79 1.518.17 2.273.91 2.825 1.45.452.443.725.71 1.435.79.71.079 1.034-.121 1.574-.455.658-.404 1.557-.959 3.075-.789 1.518.17 2.273.91 2.825 1.45.452.443.725.71 1.435.789a1.181 1.181 0 1 1-.263 2.348Z"/>
    <path fill="#F9CB6A" stroke="#333" stroke-miterlimit="10" stroke-width=".645" d="M47.23 33.884c-1.519-.17-2.274-.91-2.826-1.45-.452-.442-.725-.71-1.435-.789-.71-.08-1.034.12-1.574.454-.658.404-1.557.96-3.075.79-1.518-.17-2.273-.91-2.825-1.45-.452-.443-.725-.71-1.435-.79-.71-.079-1.034.121-1.574.454-.658.405-1.557.96-3.075.79-1.518-.17-2.273-.91-2.826-1.45-.451-.443-.724-.71-1.434-.789a1.181 1.181 0 1 1 .262-2.348c1.519.17 2.273.91 2.826 1.45.452.442.725.709 1.434.788.71.08 1.035-.12 1.575-.453.657-.405 1.556-.96 3.075-.79 1.518.17 2.273.91 2.825 1.45.452.443.725.71 1.434.79.71.079 1.035-.121 1.575-.455.658-.404 1.557-.959 3.075-.789 1.518.17 2.273.91 2.825 1.45.452.442.725.71 1.435.789a1.181 1.181 0 1 1-.263 2.348Zm0 6.156c-1.519-.17-2.274-.909-2.826-1.449-.452-.443-.725-.71-1.435-.789-.71-.08-1.034.12-1.574.454-.658.404-1.557.96-3.075.79-1.518-.17-2.273-.91-2.825-1.45-.452-.443-.725-.71-1.435-.79-.71-.079-1.034.121-1.574.454-.658.405-1.557.96-3.075.79-1.518-.17-2.273-.91-2.826-1.45-.451-.443-.724-.71-1.434-.789a1.181 1.181 0 0 1 .262-2.348c1.519.17 2.273.91 2.826 1.45.452.442.725.709 1.434.788.71.08 1.035-.12 1.575-.453.657-.405 1.556-.96 3.075-.79 1.518.17 2.273.91 2.825 1.45.452.443.725.71 1.434.789.71.08 1.035-.12 1.575-.454.658-.404 1.557-.959 3.075-.789 1.518.17 2.273.91 2.825 1.45.452.442.725.709 1.435.789a1.181 1.181 0 1 1-.263 2.348Z"/>
    <path fill="#F9CB6A" stroke="#333" stroke-miterlimit="10" stroke-width=".645" d="M47.001 42.086c-1.518-.17-2.273-.91-2.825-1.45-.452-.443-.725-.71-1.435-.789-.71-.08-1.034.12-1.574.454-.658.404-1.557.959-3.075.79-1.518-.17-2.273-.91-2.825-1.45-.452-.443-.725-.71-1.435-.79-.71-.079-1.034.12-1.574.454-.658.404-1.557.96-3.075.79-1.518-.17-2.273-.91-2.826-1.45-.451-.443-.724-.71-1.434-.79a1.181 1.181 0 1 1 .262-2.347c1.519.17 2.273.91 2.826 1.449.452.443.725.71 1.434.79.71.079 1.035-.121 1.575-.455.657-.404 1.556-.959 3.074-.789 1.519.17 2.273.91 2.826 1.45.452.443.725.71 1.434.789.71.08 1.035-.12 1.575-.454.658-.404 1.556-.959 3.075-.79 1.518.17 2.273.91 2.825 1.45.452.443.725.71 1.435.79A1.181 1.181 0 1 1 47 42.085Z"/>
    <path fill="#F9CB6A" stroke="#333" stroke-miterlimit="10" stroke-width=".645" d="M46.771 44.13c-1.518-.17-2.273-.909-2.825-1.449-.452-.443-.725-.71-1.435-.789-.71-.08-1.034.12-1.574.454-.658.404-1.557.959-3.075.79-1.518-.17-2.273-.91-2.826-1.45-.451-.443-.724-.71-1.434-.79-.71-.079-1.034.121-1.574.454-.658.405-1.557.96-3.075.79-1.518-.17-2.273-.91-2.826-1.45-.451-.443-.724-.71-1.434-.79a1.181 1.181 0 1 1 .262-2.347c1.519.17 2.273.91 2.826 1.45.452.442.725.709 1.434.788.71.08 1.035-.12 1.575-.453.658-.405 1.556-.96 3.075-.79 1.518.17 2.273.91 2.825 1.45.452.443.725.71 1.434.789.71.08 1.035-.12 1.575-.454.658-.404 1.556-.959 3.075-.789 1.518.17 2.273.91 2.825 1.45.452.442.725.709 1.435.788a1.181 1.181 0 1 1-.263 2.349ZM31.475 32.574c-1.518-.17-2.273-.91-2.825-1.449-.452-.443-.725-.71-1.434-.79-.71-.079-1.035.121-1.575.455-.658.404-1.556.959-3.075.789-1.518-.17-2.273-.91-2.825-1.45-.452-.443-.725-.71-1.435-.789-.71-.08-1.034.12-1.574.454-.658.404-1.557.959-3.075.79-1.518-.17-2.273-.91-2.825-1.45-.452-.443-.725-.71-1.435-.79a1.181 1.181 0 1 1 .263-2.348c1.518.17 2.272.91 2.825 1.45.452.443.725.71 1.434.789.71.08 1.035-.12 1.575-.454.658-.404 1.556-.959 3.075-.789 1.518.17 2.273.91 2.825 1.45.452.442.725.709 1.435.788.71.08 1.034-.12 1.574-.453.658-.405 1.557-.96 3.075-.79 1.518.17 2.273.91 2.825 1.45.452.443.725.71 1.435.79a1.181 1.181 0 1 1-.263 2.347Z"/>
    <path fill="#F9CB6A" stroke="#333" stroke-miterlimit="10" stroke-width=".645" d="M31.247 34.62c-1.518-.17-2.273-.91-2.825-1.45-.452-.443-.725-.71-1.435-.79-.71-.079-1.034.121-1.574.455-.658.404-1.557.959-3.075.789-1.518-.17-2.273-.91-2.825-1.45-.452-.443-.725-.71-1.435-.789-.71-.08-1.034.12-1.574.454-.658.404-1.557.959-3.075.79-1.518-.17-2.273-.91-2.825-1.45-.452-.443-.725-.71-1.435-.79a1.181 1.181 0 1 1 .262-2.348c1.519.17 2.274.91 2.826 1.45.452.443.725.71 1.434.789.71.08 1.035-.12 1.575-.454.658-.404 1.557-.959 3.075-.789 1.518.17 2.273.91 2.825 1.45.452.442.725.709 1.435.789.71.08 1.034-.12 1.574-.454.658-.404 1.557-.96 3.075-.79 1.518.17 2.273.91 2.825 1.45.452.443.725.71 1.435.79a1.181 1.181 0 1 1-.263 2.347Z"/>
    <path fill="#F9CB6A" stroke="#333" stroke-miterlimit="10" stroke-width=".645" d="M31.02 36.662c-1.519-.17-2.274-.91-2.826-1.449-.452-.443-.725-.71-1.435-.79-.71-.079-1.034.121-1.574.454-.658.405-1.557.96-3.075.79-1.518-.17-2.273-.91-2.825-1.45-.452-.443-.725-.71-1.435-.789-.71-.08-1.034.12-1.574.454-.658.404-1.557.959-3.075.79-1.518-.17-2.273-.91-2.826-1.45-.451-.443-.724-.71-1.434-.79a1.181 1.181 0 1 1 .262-2.348c1.519.17 2.273.91 2.826 1.45.452.443.725.71 1.434.789.71.08 1.035-.12 1.575-.454.658-.404 1.556-.959 3.075-.79 1.518.17 2.273.91 2.825 1.45.452.443.725.71 1.435.79.71.079 1.034-.12 1.574-.454.658-.404 1.557-.96 3.075-.79 1.518.17 2.273.91 2.825 1.45.452.443.725.71 1.435.79a1.181 1.181 0 1 1-.263 2.347Zm.296 7.897c-1.526 0-2.36-.652-2.967-1.127-.5-.39-.8-.626-1.514-.626s-1.015.235-1.514.626c-.609.475-1.44 1.127-2.968 1.127-1.526 0-2.36-.652-2.967-1.127-.5-.39-.8-.626-1.514-.626s-1.015.235-1.514.626c-.609.475-1.44 1.127-2.968 1.127-1.526 0-2.36-.652-2.967-1.127-.499-.39-.8-.626-1.514-.626a1.182 1.182 0 1 1 0-2.365c1.527 0 2.361.651 2.968 1.127.498.389.8.625 1.513.625.714 0 1.015-.234 1.514-.625.609-.476 1.441-1.127 2.968-1.127s2.361.651 2.968 1.127c.498.389.8.625 1.513.625.714 0 1.015-.234 1.514-.625.609-.476 1.441-1.127 2.968-1.127s2.361.651 2.967 1.127c.5.389.8.625 1.514.625a1.182 1.182 0 1 1 0 2.366Z"/>
    <path fill="#F9CB6A" stroke="#333" stroke-miterlimit="10" stroke-width=".645" d="M31.316 46.617c-1.526 0-2.36-.652-2.967-1.127-.5-.39-.8-.626-1.514-.626s-1.015.234-1.514.626c-.609.475-1.44 1.127-2.968 1.127-1.526 0-2.36-.652-2.967-1.127-.5-.39-.8-.626-1.514-.626s-1.015.234-1.514.626c-.609.475-1.44 1.127-2.968 1.127-1.526 0-2.36-.652-2.967-1.127-.499-.39-.8-.626-1.514-.626a1.182 1.182 0 1 1 0-2.365c1.527 0 2.361.651 2.968 1.126.498.39.8.626 1.513.626.714 0 1.015-.234 1.514-.626.609-.475 1.441-1.126 2.968-1.126s2.361.651 2.968 1.126c.498.39.8.626 1.513.626.714 0 1.015-.234 1.514-.626.609-.475 1.441-1.126 2.968-1.126s2.361.651 2.967 1.126c.5.39.8.626 1.514.626a1.182 1.182 0 1 1 0 2.366Z"/>
    <path fill="#F9CB6A" stroke="#333" stroke-miterlimit="10" stroke-width=".645" d="M31.316 48.672c-1.526 0-2.36-.651-2.967-1.126-.5-.39-.8-.626-1.514-.626s-1.015.234-1.514.626c-.609.475-1.44 1.127-2.968 1.127-1.526 0-2.36-.652-2.967-1.127-.5-.39-.8-.626-1.514-.626s-1.015.234-1.514.626c-.609.475-1.44 1.127-2.968 1.127-1.526 0-2.36-.652-2.967-1.127-.499-.39-.8-.626-1.514-.626a1.182 1.182 0 1 1 0-2.366c1.527 0 2.361.652 2.968 1.127.498.39.8.626 1.513.626.714 0 1.015-.234 1.514-.626.609-.475 1.441-1.127 2.968-1.127s2.361.652 2.968 1.127c.498.39.8.626 1.513.626.714 0 1.015-.234 1.514-.626.609-.475 1.441-1.127 2.968-1.127s2.361.652 2.967 1.127c.5.39.8.626 1.514.626a1.182 1.182 0 1 1 0 2.365Zm-3.769-14.046c-1.527 0-2.362-.651-2.968-1.127-.499-.389-.8-.626-1.514-.626s-1.015.235-1.514.626c-.608.475-1.44 1.127-2.967 1.127-1.527 0-2.361-.651-2.968-1.127-.499-.389-.8-.626-1.514-.626s-1.015.235-1.514.626c-.608.475-1.44 1.127-2.967 1.127-1.527 0-2.361-.651-2.968-1.127-.499-.389-.8-.626-1.514-.626a1.182 1.182 0 1 1 0-2.365c1.527 0 2.361.652 2.968 1.127.499.389.8.626 1.514.626s1.015-.235 1.514-.626c.608-.475 1.44-1.127 2.967-1.127 1.527 0 2.361.652 2.968 1.127.499.389.8.626 1.514.626s1.015-.235 1.514-.626c.608-.475 1.44-1.127 2.967-1.127 1.527 0 2.361.652 2.968 1.127.498.389.8.626 1.514.626a1.182 1.182 0 1 1 0 2.365Z"/>
    <path fill="#F9CB6A" stroke="#333" stroke-miterlimit="10" stroke-width=".645" d="M27.547 36.684c-1.527 0-2.362-.652-2.968-1.127-.499-.39-.8-.626-1.514-.626s-1.015.235-1.514.626c-.608.475-1.44 1.127-2.967 1.127-1.527 0-2.361-.652-2.968-1.127-.499-.39-.8-.626-1.514-.626s-1.015.235-1.514.626c-.608.475-1.44 1.127-2.967 1.127-1.527 0-2.361-.652-2.968-1.127-.499-.39-.8-.626-1.514-.626a1.182 1.182 0 1 1 0-2.365c1.527 0 2.361.651 2.968 1.127.499.389.8.625 1.514.625s1.015-.234 1.514-.625c.608-.476 1.44-1.127 2.967-1.127 1.527 0 2.361.651 2.968 1.127.499.389.8.625 1.514.625s1.015-.234 1.514-.625c.608-.476 1.44-1.127 2.967-1.127 1.527 0 2.361.651 2.968 1.127.498.389.8.625 1.514.625a1.182 1.182 0 1 1 0 2.366Z"/>
    <path fill="#F9CB6A" stroke="#333" stroke-miterlimit="10" stroke-width=".645" d="M27.547 38.74c-1.527 0-2.362-.652-2.968-1.127-.499-.39-.8-.626-1.514-.626s-1.015.234-1.514.626c-.608.475-1.44 1.127-2.967 1.127-1.527 0-2.361-.652-2.968-1.127-.499-.39-.8-.626-1.514-.626s-1.015.234-1.514.626c-.608.475-1.44 1.127-2.967 1.127-1.527 0-2.361-.652-2.968-1.127-.499-.39-.8-.626-1.514-.626a1.182 1.182 0 1 1 0-2.365c1.527 0 2.361.651 2.968 1.127.499.389.8.625 1.514.625s1.015-.234 1.514-.626c.608-.475 1.44-1.126 2.967-1.126 1.527 0 2.361.651 2.968 1.127.499.389.8.625 1.514.625s1.015-.234 1.514-.626c.608-.475 1.44-1.126 2.967-1.126 1.527 0 2.361.651 2.968 1.127.498.389.8.625 1.514.625a1.182 1.182 0 1 1 0 2.366Zm11.723 7.732c-1.498.293-2.44-.187-3.128-.535-.564-.286-.905-.46-1.606-.322-.702.137-.95.425-1.366.903-.505.582-1.198 1.38-2.699 1.673-1.499.292-2.44-.187-3.129-.536-.563-.286-.905-.46-1.604-.322-.699.137-.95.425-1.365.903-.506.583-1.198 1.38-2.699 1.673-1.499.292-2.44-.187-3.129-.536-.563-.286-.905-.46-1.604-.322a1.183 1.183 0 0 1-.454-2.32c1.499-.293 2.44.187 3.129.535.563.286.905.46 1.604.323.7-.138.95-.426 1.366-.904.505-.582 1.198-1.38 2.699-1.673 1.5-.292 2.44.188 3.128.536.564.286.906.46 1.604.322.7-.137.951-.425 1.366-.903.505-.582 1.198-1.38 2.699-1.673 1.499-.292 2.44.187 3.129.536.563.286.905.46 1.604.322a1.183 1.183 0 0 1 .454 2.32h.002Z"/>
    <path fill="#F9CB6A" stroke="#333" stroke-miterlimit="10" stroke-width=".645" d="M39.666 48.492c-1.499.292-2.44-.187-3.129-.536-.563-.286-.905-.46-1.606-.322-.701.138-.95.426-1.365.903-.506.583-1.198 1.38-2.7 1.673-1.5.292-2.44-.187-3.128-.535-.564-.286-.905-.46-1.604-.323-.7.138-.95.426-1.366.903-.505.583-1.198 1.38-2.698 1.673-1.5.293-2.441-.187-3.13-.535-.563-.286-.905-.46-1.604-.323a1.183 1.183 0 0 1-.453-2.32c1.498-.292 2.44.187 3.129.535.563.286.905.46 1.604.323.699-.138.95-.426 1.365-.903.506-.583 1.198-1.38 2.699-1.673 1.499-.293 2.44.187 3.129.535.563.286.905.46 1.604.323.701-.138.95-.426 1.366-.903.505-.583 1.197-1.381 2.698-1.673 1.5-.293 2.441.187 3.13.535.563.286.904.46 1.603.323a1.183 1.183 0 0 1 .454 2.32h.002Z"/>
    <path fill="#F9CB6A" stroke="#333" stroke-miterlimit="10" stroke-width=".645" d="M40.06 50.511c-1.499.293-2.44-.187-3.129-.535-.563-.286-.905-.46-1.606-.323-.701.138-.95.426-1.366.903-.505.583-1.198 1.38-2.699 1.673-1.498.293-2.44-.187-3.129-.535-.563-.286-.905-.46-1.604-.323-.699.138-.95.426-1.365.904-.506.582-1.198 1.38-2.699 1.672-1.501.293-2.44-.187-3.129-.535-.563-.286-.905-.46-1.604-.322a1.183 1.183 0 0 1-.454-2.32c1.5-.293 2.44.186 3.13.535.563.286.904.46 1.603.322.7-.137.95-.425 1.366-.903.505-.583 1.198-1.38 2.699-1.673 1.5-.292 2.44.187 3.128.535.564.287.906.46 1.605.323.699-.138.95-.426 1.365-.903.506-.583 1.198-1.38 2.699-1.673 1.499-.293 2.44.187 3.129.535.563.286.905.46 1.604.323a1.183 1.183 0 0 1 .454 2.32h.002Zm8.345-3.924c-1.486-.358-2.144-1.185-2.623-1.788-.394-.494-.632-.793-1.327-.96-.695-.169-1.04-.01-1.617.253-.703.32-1.665.76-3.15.402-1.486-.357-2.144-1.185-2.624-1.787-.394-.494-.632-.793-1.325-.961-.692-.168-1.04-.009-1.617.254-.703.32-1.664.759-3.148.402-1.486-.357-2.142-1.185-2.623-1.787-.394-.495-.633-.794-1.325-.961a1.183 1.183 0 0 1 .553-2.3c1.485.358 2.144 1.186 2.623 1.788.394.494.632.793 1.325.961.694.166 1.04.009 1.617-.254.703-.32 1.664-.759 3.148-.402 1.486.357 2.142 1.185 2.624 1.787.393.495.632.794 1.324.961.695.168 1.041.009 1.617-.253.703-.32 1.665-.76 3.15-.403 1.487.358 2.145 1.185 2.624 1.788.394.494.632.793 1.327.96a1.183 1.183 0 0 1-.553 2.3Z"/>
    <path fill="#F9CB6A" stroke="#333" stroke-miterlimit="10" stroke-width=".645" d="M47.926 48.586c-1.486-.356-2.144-1.184-2.624-1.786-.393-.495-.632-.794-1.327-.962-.694-.168-1.04-.008-1.617.254-.703.32-1.664.76-3.15.402-1.486-.357-2.144-1.185-2.623-1.787-.394-.495-.633-.793-1.325-.961-.695-.166-1.04-.009-1.617.254-.703.32-1.665.759-3.148.402-1.486-.357-2.142-1.185-2.624-1.787-.393-.495-.632-.794-1.324-.962a1.183 1.183 0 0 1 .552-2.298c1.486.357 2.144 1.185 2.624 1.787.393.494.632.793 1.324.961.693.168 1.041.009 1.617-.254.704-.32 1.665-.759 3.149-.402 1.483.357 2.141 1.185 2.623 1.787.394.495.632.794 1.325.961.694.168 1.04.009 1.617-.253.703-.32 1.664-.76 3.15-.403s2.144 1.185 2.624 1.787c.393.495.632.794 1.326.962a1.183 1.183 0 0 1-.552 2.298Z"/>
    <path fill="#F9CB6A" stroke="#333" stroke-miterlimit="10" stroke-width=".645" d="M47.446 50.586c-1.486-.357-2.144-1.185-2.623-1.787-.394-.494-.632-.793-1.327-.96-.695-.169-1.04-.01-1.617.253-.703.32-1.664.759-3.15.402s-2.144-1.185-2.624-1.787c-.393-.495-.632-.794-1.325-.961-.694-.166-1.04-.009-1.617.253-.703.32-1.664.76-3.148.403-1.484-.357-2.142-1.185-2.623-1.787-.394-.495-.633-.794-1.325-.962a1.183 1.183 0 0 1 .553-2.298c1.486.357 2.144 1.184 2.623 1.787.394.494.632.793 1.325.96.692.169 1.04.01 1.617-.253.703-.32 1.664-.759 3.148-.402 1.484.357 2.142 1.185 2.624 1.787.393.494.632.794 1.324.961.693.168 1.041.009 1.617-.254.703-.32 1.665-.759 3.15-.402 1.487.357 2.145 1.185 2.624 1.787.394.495.632.794 1.327.962a1.183 1.183 0 0 1-.553 2.298Zm5.007-8.75c-1.486-.357-2.144-1.184-2.624-1.787-.393-.494-.632-.793-1.327-.96-.694-.169-1.04-.01-1.617.253-.703.32-1.664.759-3.15.402s-2.144-1.185-2.624-1.787c-.393-.495-.632-.794-1.324-.961-.693-.168-1.041-.009-1.617.254-.703.32-1.665.759-3.148.402-1.486-.357-2.142-1.185-2.624-1.787-.394-.495-.632-.794-1.325-.962a1.183 1.183 0 0 1 .553-2.298c1.486.357 2.144 1.184 2.623 1.787.394.494.633.793 1.325.96.693.169 1.04.01 1.617-.253.703-.32 1.665-.759 3.148-.402 1.486.357 2.142 1.185 2.624 1.787.393.495.632.794 1.325.961.694.168 1.04.009 1.617-.254.703-.32 1.664-.759 3.15-.402s2.144 1.185 2.623 1.787c.394.495.633.794 1.327.962a1.183 1.183 0 0 1-.552 2.298Z"/>
    <path fill="#F9CB6A" stroke="#333" stroke-miterlimit="10" stroke-width=".645" d="M51.973 43.836c-1.486-.357-2.144-1.185-2.623-1.787-.394-.494-.633-.793-1.327-.961-.695-.168-1.04-.009-1.617.254-.703.32-1.665.759-3.15.402-1.486-.357-2.145-1.185-2.624-1.787-.394-.495-.632-.794-1.325-.961-.692-.168-1.04-.009-1.617.253-.703.32-1.664.76-3.148.403-1.484-.357-2.142-1.185-2.623-1.787-.394-.495-.633-.794-1.325-.962a1.183 1.183 0 0 1 .552-2.298c1.486.357 2.144 1.184 2.624 1.787.393.494.632.793 1.325.96.694.166 1.04.01 1.617-.253.703-.32 1.664-.76 3.148-.402 1.484.357 2.142 1.185 2.623 1.787.394.494.633.793 1.325.961.695.168 1.04.009 1.617-.254.703-.32 1.665-.759 3.15-.402 1.486.357 2.144 1.185 2.624 1.787.394.495.632.794 1.327.962a1.183 1.183 0 0 1-.553 2.298Z"/>
    <path fill="#F9CB6A" stroke="#333" stroke-miterlimit="10" stroke-width=".645" d="M51.492 45.836c-1.486-.357-2.144-1.185-2.624-1.787-.394-.494-.632-.793-1.327-.961-.694-.168-1.04-.009-1.617.254-.703.32-1.664.759-3.15.402s-2.144-1.185-2.624-1.787c-.393-.495-.632-.794-1.324-.961-.693-.168-1.041-.009-1.617.253-.704.32-1.665.76-3.149.402-1.483-.357-2.142-1.184-2.623-1.787-.394-.494-.632-.793-1.325-.96a1.183 1.183 0 0 1 .553-2.3c1.486.358 2.144 1.185 2.623 1.788.394.494.633.793 1.325.96.692.168 1.04.01 1.617-.253.703-.32 1.665-.76 3.148-.402 1.484.357 2.142 1.185 2.624 1.787.393.494.632.793 1.324.961.693.168 1.041.009 1.617-.254.704-.32 1.665-.759 3.15-.402 1.487.357 2.145 1.185 2.624 1.787.394.495.633.794 1.327.961a1.183 1.183 0 0 1-.552 2.3Zm1.44-8.509c-1.486-.357-2.144-1.185-2.623-1.787-.394-.495-.633-.794-1.327-.961-.695-.168-1.04-.009-1.617.254-.703.32-1.665.759-3.15.402-1.487-.357-2.145-1.185-2.624-1.787-.394-.495-.632-.794-1.325-.962-.694-.165-1.04-.008-1.617.254-.703.32-1.664.76-3.148.402-1.484-.357-2.142-1.185-2.623-1.787-.394-.494-.633-.793-1.325-.96a1.183 1.183 0 0 1 .552-2.3c1.486.357 2.144 1.185 2.624 1.787.394.495.632.794 1.325.961.692.168 1.04.01 1.617-.253.703-.32 1.664-.76 3.148-.402 1.486.357 2.142 1.184 2.623 1.787.394.494.633.793 1.325.96.692.169 1.04.01 1.617-.253.703-.32 1.665-.759 3.15-.402 1.486.357 2.145 1.185 2.624 1.787.394.495.632.794 1.327.961a1.183 1.183 0 0 1-.553 2.299Z"/>
    <path fill="#F9CB6A" stroke="#333" stroke-miterlimit="10" stroke-width=".645" d="M52.453 39.327c-1.486-.357-2.144-1.185-2.624-1.787-.393-.495-.632-.794-1.327-.961-.694-.168-1.04-.009-1.617.253-.703.32-1.664.76-3.15.402-1.486-.357-2.144-1.184-2.624-1.787-.393-.494-.632-.793-1.324-.96-.693-.168-1.041-.01-1.617.253-.703.32-1.665.76-3.148.402-1.486-.357-2.142-1.185-2.624-1.787-.394-.494-.632-.793-1.325-.961a1.183 1.183 0 0 1 .553-2.299c1.486.357 2.144 1.185 2.623 1.787.394.495.633.794 1.325.961.693.168 1.04.009 1.617-.253.703-.32 1.665-.76 3.148-.403 1.486.358 2.142 1.185 2.624 1.788.393.494.632.793 1.325.96.694.168 1.04.01 1.617-.253.703-.32 1.664-.76 3.15-.402 1.486.357 2.144 1.185 2.623 1.787.394.494.633.793 1.327.961a1.183 1.183 0 0 1-.552 2.299Z"/>
    <path fill="#F9CB6A" stroke="#333" stroke-miterlimit="10" stroke-width=".645" d="M51.973 41.327c-1.486-.357-2.144-1.185-2.623-1.787-.394-.495-.633-.794-1.327-.961-.695-.168-1.04-.009-1.617.253-.703.32-1.665.76-3.15.402-1.486-.357-2.145-1.184-2.624-1.787-.394-.494-.632-.793-1.325-.96-.692-.169-1.04-.01-1.617.253-.703.32-1.664.76-3.148.402-1.486-.357-2.142-1.185-2.623-1.787-.394-.494-.633-.793-1.325-.961a1.183 1.183 0 0 1 .552-2.299c1.486.357 2.144 1.185 2.624 1.787.393.495.632.794 1.325.961.694.166 1.04.009 1.617-.253.703-.32 1.664-.76 3.148-.403 1.486.357 2.142 1.185 2.623 1.787.394.495.633.794 1.325.962.693.167 1.04.008 1.617-.254.703-.32 1.665-.76 3.15-.402 1.486.357 2.144 1.185 2.624 1.787.394.494.632.793 1.327.961a1.183 1.183 0 0 1-.553 2.299Z"/>
    <path fill="#F9CB6A" stroke="#333" stroke-miterlimit="10" stroke-width=".645" d="M51.53 32.585c-1.516.179-2.42-.372-3.08-.772-.541-.329-.866-.527-1.576-.445-.71.082-.98.353-1.43.798-.548.542-1.3 1.286-2.817 1.464-1.516.179-2.419-.372-3.079-.772-.54-.329-.867-.526-1.576-.445-.71.084-.98.353-1.43.798-.549.542-1.301 1.286-2.817 1.464-1.516.179-2.42-.372-3.08-.772-.54-.329-.866-.526-1.576-.445a1.184 1.184 0 0 1-1.312-1.036 1.183 1.183 0 0 1 1.037-1.312c1.516-.178 2.419.372 3.08.772.539.329.866.527 1.575.445.71-.084.981-.352 1.43-.798.549-.541 1.301-1.286 2.818-1.464 1.515-.179 2.419.372 3.079.772.54.329.866.527 1.576.445.71-.084.98-.353 1.43-.798.549-.542 1.301-1.286 2.817-1.464 1.516-.179 2.42.372 3.08.772.541.329.866.527 1.576.445a1.183 1.183 0 0 1 1.312 1.037 1.184 1.184 0 0 1-1.037 1.311Z"/>
    <path fill="#F9CB6A" stroke="#333" stroke-miterlimit="10" stroke-width=".645" d="M51.769 34.628c-1.516.179-2.42-.372-3.08-.772-.541-.329-.866-.527-1.576-.445-.71.084-.98.353-1.43.798-.548.542-1.3 1.286-2.817 1.464-1.516.179-2.42-.372-3.08-.772-.54-.329-.866-.527-1.576-.445-.71.082-.98.353-1.43.798-.548.542-1.3 1.286-2.817 1.464-1.516.179-2.419-.372-3.079-.772-.54-.329-.867-.526-1.576-.445a1.183 1.183 0 0 1-1.312-1.036 1.18 1.18 0 0 1 1.037-1.312c1.515-.178 2.419.372 3.079.772.54.33.866.527 1.576.445.71-.081.98-.352 1.43-.798.548-.541 1.301-1.286 2.817-1.464 1.516-.178 2.42.372 3.08.772.54.329.866.527 1.576.445.71-.084.98-.353 1.43-.798.548-.542 1.3-1.286 2.817-1.464 1.516-.179 2.42.372 3.08.772.541.329.866.527 1.575.445a1.184 1.184 0 0 1 1.312 1.036 1.18 1.18 0 0 1-1.036 1.312Z"/>
    <path fill="#F9CB6A" stroke="#333" stroke-miterlimit="10" stroke-width=".645" d="M52.01 36.671c-1.516.178-2.42-.372-3.08-.772-.542-.329-.866-.527-1.576-.445-.71.084-.98.352-1.43.798-.548.541-1.3 1.286-2.817 1.464-1.516.178-2.42-.372-3.08-.772-.54-.329-.866-.527-1.576-.445-.71.082-.98.353-1.43.798-.548.542-1.3 1.286-2.817 1.464-1.516.179-2.419-.372-3.08-.772-.539-.329-.866-.527-1.575-.445a1.183 1.183 0 0 1-1.312-1.036 1.18 1.18 0 0 1 1.036-1.312c1.517-.179 2.42.372 3.08.772.54.329.866.527 1.576.445.71-.082.98-.353 1.43-.798.548-.542 1.301-1.286 2.817-1.464 1.516-.179 2.42.372 3.08.772.54.329.866.526 1.576.445.71-.082.98-.353 1.43-.798.548-.542 1.3-1.286 2.817-1.464 1.516-.179 2.419.372 3.08.772.541.329.866.526 1.575.445a1.184 1.184 0 0 1 1.312 1.036 1.18 1.18 0 0 1-1.036 1.312Z"/>
  </g>
  <path stroke="#333" stroke-linecap="round" stroke-linejoin="round" stroke-width="1.505" d="M28.585 49.782c15.372 0 27.833-7.804 27.833-17.431S43.957 14.92 28.585 14.92C13.214 14.92.753 22.724.753 32.35c0 9.628 12.46 17.432 27.832 17.432Z"/>
  <path stroke="#333" stroke-linecap="round" stroke-linejoin="round" stroke-width="1.505" d="M56.416 32.35c0 16.776-7.35 30.378-27.833 30.378C8.101 62.728.753 49.126.753 32.35"/>
  <path fill="#F9CB6A" stroke="#333" stroke-miterlimit="10" stroke-width=".645" d="M17.033 8.808c0 1.527-.651 2.361-1.127 2.968-.389.499-.625.8-.625 1.514s.234 1.015.625 1.514c.476.608 1.127 1.44 1.127 2.967 0 1.527-.651 2.361-1.127 2.968-.389.498-.625.8-.625 1.514 0 .713.234 1.014.625 1.513.476.609 1.127 1.441 1.127 2.968s-.651 2.361-1.127 2.967c-.389.5-.625.8-.625 1.514a1.182 1.182 0 1 1-2.366 0c0-1.526.652-2.36 1.127-2.967.39-.499.626-.8.626-1.514s-.234-1.015-.626-1.514c-.475-.608-1.127-1.44-1.127-2.967 0-1.527.652-2.362 1.127-2.968.39-.499.626-.8.626-1.514s-.234-1.015-.626-1.514c-.475-.608-1.127-1.44-1.127-2.967 0-1.527.652-2.361 1.127-2.968.39-.499.626-.8.626-1.514a1.182 1.182 0 1 1 2.365 0Z"/>
  <path fill="#F9CB6A" stroke="#333" stroke-miterlimit="10" stroke-width=".645" d="M19.091 8.808c0 1.527-.651 2.361-1.127 2.968-.389.499-.625.8-.625 1.514s.234 1.015.625 1.513c.476.609 1.127 1.441 1.127 2.968s-.651 2.361-1.127 2.968c-.389.498-.625.8-.625 1.514 0 .713.234 1.014.625 1.513.476.609 1.127 1.441 1.127 2.968s-.651 2.361-1.127 2.967c-.389.5-.625.8-.625 1.514a1.182 1.182 0 1 1-2.366 0c0-1.526.652-2.36 1.127-2.967.39-.5.626-.8.626-1.514s-.235-1.015-.626-1.514c-.475-.608-1.127-1.44-1.127-2.967 0-1.527.652-2.362 1.127-2.968.39-.499.626-.8.626-1.514s-.235-1.015-.626-1.514c-.475-.609-1.127-1.44-1.127-2.968 0-1.526.652-2.36 1.127-2.967.39-.499.626-.8.626-1.514a1.182 1.182 0 1 1 2.365 0Z"/>
  <path fill="#F9CB6A" stroke="#333" stroke-miterlimit="10" stroke-width=".645" d="M21.147 8.808c0 1.527-.651 2.361-1.127 2.968-.389.499-.625.8-.625 1.514s.234 1.015.625 1.513c.476.609 1.127 1.441 1.127 2.968s-.651 2.361-1.127 2.968c-.389.498-.625.8-.625 1.514 0 .713.234 1.014.625 1.513.476.609 1.127 1.441 1.127 2.968s-.651 2.361-1.127 2.967c-.389.5-.625.8-.625 1.514a1.182 1.182 0 1 1-2.366 0c0-1.526.652-2.36 1.127-2.967.39-.5.626-.8.626-1.514s-.235-1.015-.626-1.514c-.475-.608-1.127-1.44-1.127-2.967 0-1.527.652-2.362 1.127-2.968.39-.499.626-.8.626-1.514s-.235-1.015-.626-1.514c-.475-.609-1.127-1.44-1.127-2.968 0-1.526.652-2.36 1.127-2.967.39-.499.626-.8.626-1.514a1.182 1.182 0 1 1 2.365 0Z"/>
  <path stroke="#7D5045" stroke-linecap="round" stroke-linejoin="round" stroke-width="2.041" d="M12.92 14.234 62.093 6.79"/>
</svg>
