<svg xmlns="http://www.w3.org/2000/svg" width="70" height="78" fill="none" viewBox="0 0 70 78">
  <path fill="#D3E2F1" d="M53.034 22.707a15.042 15.042 0 0 0-3.598 6.62c-.66 2.67-.429 4.93-.192 6.235l16.502 2.787 1.394-1.098 1.858-6.32-.278-1.03-15.686-7.196v.002Z"/>
  <path fill="#4562AC" d="M50.999 31.48c.688-.726 2.001-1.958 3.384-2.043 1.259-.077 1.407.722 2.835.686 1.958-.049 2.916-1.17 5.114-1.146.799.01 1.445.165 1.845.285-.359.713-1.599 2.935-4.235 3.999-2.908 1.17-6.367.464-8.943-1.781Z"/>
  <path fill="#7D5045" d="M42.805 26.114c1.384 0 2.507-1.59 2.507-3.55 0-1.96-1.123-3.549-2.507-3.549-1.384 0-2.506 1.59-2.506 3.55 0 1.96 1.122 3.549 2.506 3.549Z"/>
  <path fill="#A8D471" d="M4.727 76.85c1.199-8.335 3.707-14.516 5.68-18.47 1.892-3.793 3.477-5.906 5.828-7.667 3.686-2.758 7.761-3.534 10.055-3.793h.059c2.294.26 6.369 1.035 10.055 3.793 2.35 1.759 3.936 3.874 5.828 7.668 1.973 3.953 4.481 10.134 5.68 18.469"/>
  <path fill="#F3D2BA" d="M52.857 40.54a8.865 8.865 0 0 1 1.229-3.167l8.475.748a7.39 7.39 0 0 1-1.01 2.28c-1.387 2.073-3.454 2.829-4.233 3.07"/>
  <path fill="#A8D471" d="M39.354 53.137c2.01-2.142 3.321-3.427 5.599-5.597a162.18 162.18 0 0 1 7.03-6.319 2.953 2.953 0 0 1 3.615-.16 2.953 2.953 0 0 1 .785 4.01 120.388 120.388 0 0 1-7.149 9.965c-1.89 2.368-3.6 4.355-5.44 6.349-.377-.1-2.89-.814-4.143-3.39-1.115-2.29-.442-4.432-.297-4.862v.004Z"/>
  <path fill="#F3D2BA" d="M42.434 23.908a7.9 7.9 0 0 1 2.902 3.303c.874 1.877.776 3.632.622 4.595a1.66 1.66 0 0 1-.464.912l-2.593 2.617c-1.093 1.103-.221 2.972 1.327 2.843 1.418-.119 2.33 1.478 1.501 2.637-.342.48-.736.974-1.187 1.466-2.578 2.814-5.47 3.897-6.683 4.333-3.89 1.401-7.326 1.087-9.147.768a18.089 18.089 0 0 1-6.267-2.367c-6.106-5.924-7.758-14.6-4.35-20.916 4.48-8.296 16.947-11.126 21.812-6.714.984.892 2.358 2.718 2.527 6.523Z"/>
  <path stroke="#333" stroke-linecap="round" stroke-linejoin="round" stroke-width="1.315" d="M22.96 40.669c-.166.062-.37.122-.611.147-1.293.135-3.346-.731-3.627-2.734a3.226 3.226 0 0 1 2.734-3.626"/>
  <path fill="#7D5045" d="M21.992 33.544c1.484-.413 6.266-1.946 9.834-6.745 3.673-4.941 3.67-10.13 3.616-11.645l.179 4.436a8.15 8.15 0 0 0 2.997 1.81 8.185 8.185 0 0 0 4.199.264l2.707 1.776c.24-1.351 1.665-10.123-4.13-16.67-7.844-8.863-21.25-4.991-22.69-4.55-1.774.543-5.251 1.654-8.318 4.87a17.442 17.442 0 0 0-3.6 5.678c-4.223 3.814-5.102 8.94-5.3 10.986-.808 8.366 4.628 14.335 7.294 17.23.607.66 6.326 6.766 9.798 5.511a3.345 3.345 0 0 0 1.308-.904c1.597-1.939-.07-5.36-.203-5.627-.214-.23-1.205-1.334-1.09-2.863.122-1.66 1.492-3.138 3.4-3.555l-.001-.002Z"/>
  <path fill="#7D5045" d="M40.374 21.462c.581-.347.543-1.482-.086-2.534-.628-1.052-1.61-1.622-2.191-1.275-.582.348-.544 1.482.085 2.534.629 1.052 1.61 1.623 2.192 1.275Z"/>
  <path fill="#66A9EB" d="M62.83 29.191c.776-.073 1.461.13 2.423.391 1.52.41 1.772.81 1.851 1.06.047.146.038.26.02.486-.063.8-.447 1.169-.68 1.926-.313 1.02-.47 1.531-.52 1.886-.066.457-.09.942-.453 1.353 0 0-.199.226-.501.376-1.05.524-4.714-.515-4.714-.515-1.764-.505-1.25-.207-4.504-1.009-.663-.163-1.723-.432-3.188-.579-.737-.073-1.105-.11-1.381-.09-2.454.179-3.361 2.508-5.2 2.25-.166-.023-.72-.102-.923-.495-.198-.38-.008-.932.283-1.268.346-.402.649-.276 1.77-.908.25-.14.464-.274.523-.311.445-.288.717-.536 2.194-1.5 1.652-1.078 2.474-1.625 2.81-1.745 2.182-.787 3.31 1.787 5.705 1.308 2.007-.403 2.136-2.396 4.488-2.616h-.003Z"/>
  <path stroke="#333" stroke-linecap="round" stroke-linejoin="round" stroke-width="1.315" d="M42.433 23.908a7.9 7.9 0 0 1 2.903 3.303c.874 1.877.776 3.632.622 4.596a1.66 1.66 0 0 1-.464.91l-2.593 2.618c-1.093 1.103-.222 2.972 1.327 2.843 1.418-.119 2.33 1.478 1.5 2.638-.341.479-.736.973-1.187 1.465-2.577 2.814-5.469 3.897-6.682 4.333-3.89 1.401-7.326 1.087-9.147.768a18.089 18.089 0 0 1-6.267-2.367m12.999-29.863c.055 1.513.055 6.704-3.617 11.646-3.568 4.8-8.35 6.331-9.833 6.744m.966 7.127c-.166.062-.37.122-.611.147-1.293.135-3.346-.731-3.627-2.734a3.226 3.226 0 0 1 2.734-3.626"/>
  <path stroke="#333" stroke-linecap="round" stroke-linejoin="round" stroke-width="1.315" d="M6.787 12.766a17.42 17.42 0 0 1 3.6-5.677c3.066-3.217 6.543-4.327 8.317-4.87 1.441-.442 14.846-4.312 22.69 4.548 5.797 6.548 4.373 15.32 4.13 16.671"/>
  <path stroke="#333" stroke-linecap="round" stroke-linejoin="round" stroke-width="1.315" d="M19.683 39.962c.133.267 1.8 3.689.203 5.628 0 0-.506.614-1.308.903-3.472 1.255-9.191-4.85-9.798-5.51-2.666-2.896-8.102-8.863-7.294-17.23.198-2.045 1.077-7.17 5.3-10.986a15.609 15.609 0 0 1 4.656-2.892m24.585 10.057a8.049 8.049 0 0 0 2.592 1.468 8.178 8.178 0 0 0 4.2.265"/>
  <path stroke="#333" stroke-linecap="round" stroke-linejoin="round" stroke-width="1.116" d="M40.374 21.462c.581-.348.543-1.482-.086-2.534-.628-1.052-1.61-1.623-2.191-1.275-.582.348-.544 1.482.085 2.534.629 1.052 1.61 1.623 2.192 1.275Z"/>
  <path stroke="#333" stroke-linecap="round" stroke-linejoin="round" stroke-width="4.291" d="m35.41 29.512 1.23 2.058"/>
  <path stroke="#333" stroke-linecap="round" stroke-linejoin="round" stroke-width=".752" d="M62.83 29.191c.776-.073 1.461.13 2.423.39 1.52.41 1.772.81 1.851 1.06.047.147.038.262.02.487-.063.8-.447 1.169-.68 1.926-.313 1.02-.47 1.531-.52 1.886-.066.457-.09.942-.453 1.353 0 0-.199.226-.501.376-1.05.524-4.714-.515-4.714-.515-1.764-.505-1.25-.207-4.504-1.009-.663-.163-1.723-.432-3.188-.579-.737-.073-1.105-.11-1.381-.09-2.454.179-3.361 2.508-5.2 2.25-.166-.023-.72-.102-.923-.495-.198-.38-.008-.932.283-1.268.346-.402.649-.276 1.77-.908.25-.14.464-.274.523-.312.445-.287.717-.535 2.194-1.499 1.652-1.078 2.474-1.625 2.81-1.745 2.182-.787 3.31 1.787 5.705 1.307 2.007-.402 2.136-2.395 4.488-2.615h-.003Z"/>
  <path stroke="#333" stroke-linecap="round" stroke-linejoin="round" stroke-width=".752" d="M50.999 31.48c.688-.726 2.001-1.958 3.384-2.043 1.259-.077 1.407.722 2.835.686 1.958-.049 2.916-1.17 5.114-1.146.799.01 1.445.165 1.845.285"/>
  <path stroke="#333" stroke-linecap="round" stroke-linejoin="round" stroke-width="1.315" d="M26.349 46.922c2.294.259 6.37 1.035 10.055 3.793 2.35 1.759 3.936 3.874 5.828 7.667 1.973 3.954 4.482 10.135 5.68 18.47m-21.62-29.93c-2.294.259-6.369 1.035-10.055 3.793-2.35 1.759-3.936 3.874-5.828 7.667-1.973 3.954-4.481 10.135-5.68 18.47"/>
  <path stroke="#333" stroke-linecap="round" stroke-linejoin="round" stroke-width="1.315" d="M39.354 53.137c2.01-2.142 3.322-3.427 5.599-5.597a163.308 163.308 0 0 1 7.03-6.319 2.953 2.953 0 0 1 3.615-.16 2.953 2.953 0 0 1 .786 4.01 119.966 119.966 0 0 1-7.15 9.965c-1.89 2.368-3.6 4.355-5.44 6.349M62.56 38.123a7.387 7.387 0 0 1-1.012 2.28c-1.386 2.073-3.453 2.829-4.233 3.07m-4.458-2.933a8.865 8.865 0 0 1 1.229-3.167"/>
  <path fill="#fff" d="m54.986 26.285-.69 1.403 14.403 4.38.3-1.212-14.013-4.572Z" opacity=".71"/>
  <path stroke="#333" stroke-linecap="round" stroke-linejoin="round" stroke-width="1.315" d="M48.957 32.423c.08-1.113.32-2.405.723-3.754 1.084-3.62 2.937-6.266 4.137-5.905 1.2.36 1.297 3.586.215 7.207-1.085 3.62-2.937 6.266-4.138 5.905-.221-.066-.404-.23-.55-.473"/>
  <path stroke="#333" stroke-linecap="round" stroke-linejoin="round" stroke-width="1.315" d="m53.817 22.764 13.997 6.271a2.001 2.001 0 0 1 1.1 2.4L67.27 36.92a2 2 0 0 1-2.236 1.401l-15.141-2.448M23.407 76.866a45.798 45.798 0 0 1-1.964-10.619c-.293-4.652-.453-7.883 1.637-9.828 1.322-1.23 3.549-1.948 5.127-1.129 1.48.768 2.029 2.706 2.508 7.57.327 3.323.614 7.938.436 13.555"/>
</svg>
