<svg xmlns="http://www.w3.org/2000/svg" width="59" height="63" fill="none" viewBox="0 0 59 63">
  <path fill="#7D5045" stroke="#333" stroke-linecap="round" stroke-linejoin="round" stroke-width="1.497" d="M53.256 41.363a28.775 28.775 0 0 0 1.536-9.315c0-14.902-11.225-26.98-25.07-26.98S4.65 17.147 4.65 32.048c0 3.274.544 6.41 1.536 9.315-3.069 2.11-4.859 4.653-4.859 7.393 0 7.296 12.713 13.21 28.395 13.21s28.395-5.916 28.395-13.21c0-2.74-1.792-5.282-4.858-7.393h-.003Z"/>
  <path fill="#F3D2B9" stroke="#333" stroke-linecap="round" stroke-linejoin="round" stroke-width="1.497" d="M46.075 40.905c1.168-2.656 1.854-5.883 1.854-9.364 0-9.078-4.657-16.437-10.406-16.437-3.107 0-5.898 2.154-7.803 5.567-1.908-3.413-4.696-5.567-7.803-5.567-5.747 0-10.407 7.359-10.407 16.437 0 3.48.687 6.706 1.855 9.364-3.706 1.854-5.975 4.34-5.975 7.072 0 5.738 9.997 10.39 22.33 10.39 12.333 0 22.33-4.652 22.33-10.39 0-2.733-2.269-5.218-5.975-7.072Z"/>
  <path fill="#333" d="M22.806 38.617c1.45 0 2.624-1.478 2.624-3.302 0-1.823-1.175-3.302-2.624-3.302-1.45 0-2.624 1.479-2.624 3.302 0 1.824 1.175 3.302 2.624 3.302Zm13.828 0c1.449 0 2.624-1.478 2.624-3.302 0-1.823-1.175-3.302-2.624-3.302-1.45 0-2.624 1.479-2.624 3.302 0 1.824 1.175 3.302 2.624 3.302ZM26.268 43.2c.413-1.149 2.526-1.388 3.636-1.332.376.019 2.75.14 3.25 1.5.511 1.393-1.103 3.64-3.006 3.837-2.3.238-4.39-2.585-3.88-4.007v.002Z"/>
  <path stroke="#333" stroke-linecap="round" stroke-linejoin="round" stroke-width="1.497" d="M29.72 44.54v9.166M14.214 49a18.916 18.916 0 0 0 4.296 3.068c4.487 2.33 8.785 2.229 11.234 2.14h-.045c2.448.086 6.747.187 11.233-2.14A18.867 18.867 0 0 0 45.23 49M33.7 26.597c.19-.187 1.388-1.324 3.197-1.21 1.486.093 2.43.97 2.67 1.21m-13.827 0c-.19-.187-1.388-1.324-3.197-1.21-1.486.093-2.43.97-2.67 1.21"/>
  <path fill="#7D5045" d="M24.318 6c-.039-.277-.276-2.258 1.09-3.795.195-.22 1.67-1.878 3.546-1.356 1.367.38 2.393 1.762 2.507 3.434 1.604-1.214 3.763-.825 4.756.633.894 1.316.633 3.202-.432 4.34-.926.987-2.365 1.31-3.67.812"/>
  <path stroke="#333" stroke-linecap="round" stroke-linejoin="round" stroke-width="1.497" d="M24.318 6c-.039-.277-.276-2.258 1.09-3.795.195-.22 1.67-1.878 3.546-1.356 1.367.38 2.393 1.762 2.507 3.434 1.604-1.214 3.763-.825 4.756.633.894 1.316.633 3.202-.432 4.34-.926.987-2.365 1.31-3.67.812"/>
</svg>
