<svg xmlns="http://www.w3.org/2000/svg" width="65" height="59" fill="none" viewBox="0 0 65 59">
  <path fill="#D3E2F1" stroke="#333" stroke-linecap="round" stroke-linejoin="round" stroke-width=".674" d="M64.477 38.171c.148-2.722-2.451-5.077-5.803-5.258a7.281 7.281 0 0 0-2.662.343 7.43 7.43 0 0 0-.603-1.647c-1.52-2.995-4.721-4.422-7.152-3.189-1.073.544-1.816 1.516-2.181 2.689-2.17.448-3.87 1.86-4.33 3.683-2.846.226-5.084 1.914-5.202 4.084-.133 2.444 2.478 4.573 5.83 4.755.308.016.61.016.907 0 .947 1.398 2.916 2.42 5.24 2.546 1.45.08 2.798-.205 3.873-.74a7.372 7.372 0 0 0 2.23.473c2.867.155 5.355-1.328 6.108-3.464 2.112-.673 3.638-2.299 3.745-4.276v.001Z"/>
  <path stroke="#4562AC" stroke-linecap="round" stroke-linejoin="round" stroke-width=".674" d="M42.971 38.154c.322-.522.883-.842 1.473-.827.717.019 1.364.53 1.576 1.267m-1.233-1.266c.05-.612.408-1.15.942-1.402.648-.306 1.457-.143 1.977.42m7.444 3.66c-.497-.36-1.139-.438-1.678-.197-.655.293-1.056 1.014-.968 1.775m.651-1.642c-.28-.544-.818-.905-1.408-.932-.717-.033-1.4.43-1.664 1.147m9.814-1.816a1.692 1.692 0 0 0-1.17-1.217c-.692-.19-1.458.11-1.874.754m-3.031-3.249c-.28-.544-.818-.904-1.408-.931-.717-.034-1.4.429-1.664 1.147"/>
  <path fill="#66A9EB" stroke="#333" stroke-linecap="round" stroke-linejoin="round" stroke-width=".578" d="M58.724 50.028a.92.92 0 1 0 1.725.644c.177-.477.261-1.882-.215-2.06-.477-.18-1.333.94-1.511 1.416h.001Zm-5.782 2.188a.92.92 0 1 0 1.724.644c.177-.477.262-1.882-.215-2.06-.477-.179-1.333.94-1.511 1.416h.002Zm-5.783-2.505a.92.92 0 0 0 1.725.644c.177-.477.26-1.882-.216-2.06-.477-.179-1.332.94-1.51 1.416h0Zm-.204 7.075a.92.92 0 1 0 1.725.643c.177-.476.26-1.881-.216-2.06-.477-.176-1.332.94-1.51 1.417h.001Zm-6.466-.295a.92.92 0 1 0 1.725.644c.176-.477.26-1.882-.216-2.06-.477-.179-1.332.94-1.511 1.416h.002Zm.961-5.614a.92.92 0 1 0 1.725.643c.177-.476.261-1.881-.215-2.06-.477-.178-1.333.94-1.511 1.417h.001Zm13.89 6.333a.92.92 0 0 0 1.725.644c.177-.477.261-1.882-.215-2.06-.477-.179-1.333.94-1.511 1.416h.001Z"/>
  <path fill="#F5A759" stroke="#333" stroke-miterlimit="10" stroke-width=".674" d="M15.866 23.567a7.583 7.583 0 1 0 0-15.166 7.583 7.583 0 0 0 0 15.166Z"/>
  <path fill="#F5A759" stroke="#333" stroke-miterlimit="10" stroke-width=".578" d="M15.938 26.283a1.07 1.07 0 0 1 1.078 1.063l.022 3.134a1.07 1.07 0 1 1-2.14.015l-.023-3.134a1.07 1.07 0 0 1 1.063-1.078Zm-7.304-2.965a1.07 1.07 0 0 1 .01 1.514l-2.201 2.234a1.07 1.07 0 1 1-1.524-1.504l2.201-2.234a1.07 1.07 0 0 1 1.514-.01Zm-3.069-7.261a1.07 1.07 0 0 1-1.062 1.078l-3.135.021a1.07 1.07 0 1 1-.015-2.14l3.134-.022a1.07 1.07 0 0 1 1.078 1.063ZM8.53 8.753a1.07 1.07 0 0 1-1.514.01L4.782 6.561a1.07 1.07 0 1 1 1.504-1.524L8.52 7.239a1.07 1.07 0 0 1 .01 1.514Zm7.262-3.069a1.07 1.07 0 0 1-1.078-1.063l-.022-3.135a1.07 1.07 0 1 1 2.14-.015l.023 3.135a1.07 1.07 0 0 1-1.063 1.078Zm7.303 2.964a1.07 1.07 0 0 1-.01-1.514l2.202-2.233a1.07 1.07 0 1 1 1.524 1.504l-2.202 2.233a1.07 1.07 0 0 1-1.514.01Zm3.069 7.262a1.07 1.07 0 0 1 1.063-1.078l3.135-.022a1.07 1.07 0 1 1 .015 2.141l-3.135.022a1.07 1.07 0 0 1-1.078-1.063ZM23.2 23.214a1.07 1.07 0 0 1 1.514-.01l2.234 2.201a1.07 1.07 0 1 1-1.505 1.525l-2.233-2.202a1.07 1.07 0 0 1-.01-1.514Z"/>
  <path stroke="#333" stroke-linecap="round" stroke-linejoin="round" stroke-width="1.011" d="m59.453 3.469-53.22 53.22"/>
</svg>
