<svg xmlns="http://www.w3.org/2000/svg" width="64" height="61" fill="none" viewBox="0 0 64 61">
  <path fill="#fff" d="M6.456 24.18c.674-2.818 2.686-5.34 5.983-6.366C9.252 10.172 17.4 2.667 24.68 6.536c3.137-7.708 14.13-7.26 16.523.676 7.62-3.26 15.023 4.88 11.124 12.234 2.389.969 3.98 2.715 4.796 4.734"/>
  <path fill="#4562AC" d="M39.372 51.595h-14.77a2.966 2.966 0 0 0-2.967 2.966v2.016a2.966 2.966 0 0 0 2.966 2.966h14.771a2.966 2.966 0 0 0 2.966-2.966v-2.016a2.966 2.966 0 0 0-2.966-2.966ZM58.584 24.18H5.392a4.392 4.392 0 0 0 0 8.783h53.191a4.392 4.392 0 1 0 0-8.783Z"/>
  <path fill="#66A9EB" d="M5.755 33.048c0 12.283 7.29 22.24 26.232 22.24 18.94 0 26.231-9.957 26.231-22.24"/>
  <path stroke="#ABA8A8" stroke-linecap="round" stroke-linejoin="round" stroke-width="1.487" d="M19.2 15.834c.693-1.128 1.904-1.817 3.177-1.785 1.549.04 2.942 1.143 3.4 2.733m6.481 4.09c.124-1.318.906-2.471 2.061-3.005 1.407-.648 3.145-.276 4.258.948m-.091-4.439c.49-1.228 1.57-2.112 2.83-2.296 1.534-.223 3.094.629 3.814 2.116m-29.463 7.511c.123-.096 1.744-1.305 3.673-.636 1.553.538 2.176 1.898 2.278 2.131m1.502-9.152c.11-1.32.88-2.48 2.031-3.026 1.4-.663 3.143-.308 4.267.905m12.92 11.785c.11-1.319.88-2.48 2.031-3.025 1.4-.663 3.143-.308 4.267.905"/>
  <path stroke="#333" stroke-linecap="round" stroke-linejoin="round" stroke-width="1.487" d="M6.456 24.18c.674-2.818 2.686-5.34 5.983-6.366C9.252 10.172 17.4 2.667 24.68 6.536c3.137-7.708 14.13-7.26 16.523.676 7.62-3.26 15.023 4.88 11.124 12.234 2.389.969 3.98 2.715 4.796 4.734M42.338 54.563v2.014a2.966 2.966 0 0 1-2.966 2.966H24.603a2.966 2.966 0 0 1-2.966-2.966v-2.014"/>
  <path stroke="#333" stroke-linecap="round" stroke-linejoin="round" stroke-width="1.487" d="M58.584 24.18H5.392a4.392 4.392 0 0 0 0 8.783h53.191a4.392 4.392 0 1 0 0-8.783ZM5.755 33.048c0 12.283 7.29 22.24 26.232 22.24 18.94 0 26.231-9.957 26.231-22.24"/>
</svg>
