<svg xmlns="http://www.w3.org/2000/svg" width="36" height="82" fill="none" viewBox="0 0 36 82">
  <path fill="#ABA8A8" d="M29.245 28.11c.25-.08 1.344-.471 1.966-1.631.779-1.453.16-2.89.082-3.063 1.791.226 3.444-.704 3.997-2.09.712-1.786-.44-4.237-2.82-4.879 1.273-6.09-1.094-11.968-5.627-14.55C23.1-.234 19.145.6 17.963.9c-1.181-.296-5.138-1.133-8.879 1-4.532 2.583-6.9 8.462-5.627 14.551-2.38.642-3.532 3.091-2.82 4.878.553 1.387 2.204 2.315 3.998 2.09-.077.174-.698 1.61.08 3.064.624 1.16 1.72 1.548 1.967 1.631h22.563v-.004Z"/>
  <path fill="#8376D6" d="M28.085 46.381c2.316-4.946 2.694-9.097 2.702-11.565.01-4.116-1.002-5.58-1.627-6.277-1.468-1.636-3.49-2.063-4.499-2.195l-13.44.03c-1.002.16-2.934.623-4.498 2.195-.414.416-1.839 1.951-2.308 6.038-.552 4.804.69 9 1.907 11.838a49.148 49.148 0 0 0-2.282 7.18c-.363 1.55-.273 1.776-.702 3.653-.6 2.613-1.103 3.897-1.497 5.986-.29 1.537-.175 1.672-.474 2.583-.12.364-.232.625-.173.974.141.832 1.101 1.306 1.49 1.506 2.27 1.177 1.863 1.775 4.65 3.22 1.354.705 4.545 2.32 8.964 2.526 4.73.222 8.235-1.294 10.637-2.331 1.271-.55 2.596-1.384 5.243-3.05 1.267-.798 1.66-1.092 1.917-1.662.538-1.186-.108-2.248-.95-5.298-.385-1.393.142-.823-.805-3.451-1.141-3.161-.73-3.61-1.977-6.962a35.959 35.959 0 0 0-2.276-4.936l-.002-.002Z"/>
  <path fill="#F3D2B9" d="M6.716 16.413c-.006 1.092-.091 5.635 2.733 8.568 1.719 1.785 4.387 2.869 8.367 2.869 3.98 0 6.647-1.084 8.368-2.869 2.828-2.935 2.74-7.435 2.732-8.568.514-6.57-4.688-12.175-10.931-12.269C11.62 4.05 6.198 9.711 6.716 16.414Z"/>
  <path fill="#ABA8A8" d="M29.121 16.044a13.313 13.313 0 0 1-4.905-2.596 14.19 14.19 0 0 1-3.351-4.103l.733-2.771c-.232 1.199-1.075 4.703-3.99 6.518-1.491.928-4.185 1.826-5.113.663-.642-.802-.252-2.35.29-3.26.72-1.206 2.152-2.01 2.56-1.65.435.384-.227 2.178-1.09 3.396-1.197 1.685-2.857 2.376-4.192 2.93-.891.372-2.141.784-3.703.976C5.838 9.206 11.475 3.39 17.987 3.53c6.299.134 11.59 5.8 11.136 12.512l-.002.002Z"/>
  <path fill="#F3D2B9" d="M28.195 21.475c.145.032.322.057.523.05 1.088-.037 2.688-.993 2.688-2.687a2.7 2.7 0 0 0-2.688-2.687m-22.091-.002a2.687 2.687 0 1 0 .506 5.328m13.651 52.765c.1 1.152.134 2.231.127 3.223l4.802-.073a51.905 51.905 0 0 0 1.169-5.044l-6.099 1.894Z"/>
  <path fill="#8376D6" d="M19.241 81.453h7.803v-.53a3.902 3.902 0 0 0-7.803 0v.53Z"/>
  <path fill="#F3D2B9" d="M14.376 74.289a34.948 34.948 0 0 0-.124 3.176l-4.801-.073a51.238 51.238 0 0 1-1.152-4.948l6.077 1.843v.002Z"/>
  <path fill="#8376D6" d="M15.922 81.453H8.12v-.53a3.902 3.902 0 0 1 7.802 0v.53Z"/>
  <path stroke="#333" stroke-linecap="round" stroke-linejoin="round" stroke-width=".853" d="M6.717 16.354c-.007 1.092-.092 5.635 2.732 8.568 1.72 1.785 4.387 2.868 8.368 2.868 3.98 0 6.646-1.083 8.367-2.868 2.828-2.935 2.74-7.436 2.732-8.569m-7.32-9.839c-.232 1.199-1.075 4.703-3.99 6.518-1.492.928-4.185 1.826-5.113.664-.642-.802-.252-2.35.29-3.261.72-1.206 2.152-2.01 2.56-1.65.434.385-.227 2.178-1.09 3.396-1.197 1.685-2.857 2.377-4.192 2.931-.891.371-2.141.783-3.703.975"/>
  <path stroke="#333" stroke-linecap="round" stroke-linejoin="round" stroke-width=".853" d="M20.862 9.285a14.227 14.227 0 0 0 3.351 4.104 13.248 13.248 0 0 0 4.906 2.596m-.924 5.428c.145.032.322.057.523.051 1.088-.038 2.688-.994 2.688-2.688a2.7 2.7 0 0 0-2.688-2.687m-22.091 0a2.687 2.687 0 1 0 .506 5.328"/>
  <path stroke="#333" stroke-linecap="round" stroke-linejoin="round" stroke-width=".853" d="M17.964.838c-1.182-.296-5.139-1.132-8.88 1-4.532 2.584-6.9 8.462-5.627 14.552-2.38.642-3.532 3.09-2.82 4.878.553 1.386 2.204 2.314 3.998 2.09-.077.173-.698 1.608.08 3.063.624 1.16 1.72 1.549 1.967 1.632M17.964.838c1.181-.296 5.138-1.132 8.88 1 4.532 2.584 6.9 8.462 5.626 14.552 2.38.642 3.532 3.09 2.82 4.878-.553 1.386-2.204 2.314-3.997 2.09.076.173.697 1.608-.081 3.063-.623 1.16-1.72 1.549-1.967 1.632"/>
  <path stroke="#807D7C" stroke-linecap="round" stroke-linejoin="round" stroke-width=".595" d="M14.754 16.258a2.314 2.314 0 0 0-1.297-.561 2.346 2.346 0 0 0-1.547.42m8.965.141a2.314 2.314 0 0 1 1.297-.561 2.346 2.346 0 0 1 1.546.42"/>
  <path fill="#333" d="M22.492 21.65a1.36 1.36 0 0 0 1.359-1.36v-1.518a1.358 1.358 0 1 0-2.718 0v1.519c0 .75.608 1.359 1.36 1.359Z"/>
  <path stroke="#333" stroke-linecap="round" stroke-linejoin="round" stroke-width=".595" d="M24.715 18.021a1.076 1.076 0 0 1-.58.508 1.082 1.082 0 0 1-.655.02m.37-.965a1.076 1.076 0 0 1-.58.508c-.3.109-.562.045-.654.019"/>
  <path fill="#333" d="M13.139 21.65a1.36 1.36 0 0 1-1.359-1.36v-1.518a1.358 1.358 0 1 1 2.718 0v1.519a1.36 1.36 0 0 1-1.36 1.359Z"/>
  <path stroke="#333" stroke-linecap="round" stroke-linejoin="round" stroke-width=".595" d="M10.916 18.021c.039.073.207.376.58.508.301.109.564.045.655.02m-.373-.965c.039.073.207.376.58.508.301.109.563.045.655.019"/>
  <path stroke="#C39C76" stroke-linecap="round" stroke-linejoin="round" stroke-width=".48" d="m10.415 19.561-.866-.296m.806 1.02-.848.13m15.692-.854.868-.296m-.807 1.02.85.13"/>
  <path stroke="#C39C76" stroke-linecap="round" stroke-linejoin="round" stroke-width=".239" d="M14.737 22.068a4.174 4.174 0 0 1-1.817 1.463m7.96-1.463a4.171 4.171 0 0 0 1.817 1.463"/>
  <path stroke="#333" stroke-linecap="round" stroke-linejoin="round" stroke-width=".853" d="M20.811 22.68c-.2.188-1.6 1.45-3.568 1.19-1.29-.17-2.127-.902-2.425-1.19M26.31 33.072c.173.22 1.182 1.548.894 3.372-.34 2.133-2.165 3.101-2.355 3.197"/>
  <path stroke="#333" stroke-linecap="round" stroke-linejoin="round" stroke-width=".853" d="M9.142 38.287c.047 1.126-.032 2.751-.7 4.515-.606 1.6-1.44 2.628-1.623 2.869-1.295 1.687-3.118 6.89-5.627 21.148 1.49 1.598 5.909 5.913 12.962 7.026 11.29 1.78 19.361-6.217 20.204-7.079-2.965-13.263-4.774-18.01-5.9-19.788-.245-.388-1.322-1.998-2.052-4.395a17.133 17.133 0 0 1-.657-3.32"/>
  <path stroke="#333" stroke-linecap="round" stroke-linejoin="round" stroke-width=".853" d="M9.249 33.072c-.173.22-1.182 1.548-.894 3.372.34 2.133 2.165 3.101 2.355 3.197"/>
  <path stroke="#333" stroke-linecap="round" stroke-linejoin="round" stroke-width=".853" d="M11.22 26.372c-1.054.173-2.955.653-4.5 2.195-1.94 1.937-2.177 4.407-2.371 6.793-.369 4.53.793 8.4 1.97 11.083M24.66 26.342c1.044.143 3.043.582 4.497 2.195.419.463 1.735 2.067 1.622 6.968-.056 2.415-.476 6.374-2.58 11.068m-1.317 25.775a51.906 51.906 0 0 1-1.169 5.044m-4.801.073a34.553 34.553 0 0 0-.128-3.223m2.356 2.777a3.903 3.903 0 0 0-3.9 3.901v.531h7.802v-.53a3.903 3.903 0 0 0-3.901-3.902ZM8.3 72.444a51.881 51.881 0 0 0 1.151 4.948m4.799.073c-.006-.98.028-2.044.124-3.176m-6.251 7.165h7.802v-.531a3.903 3.903 0 0 0-3.901-3.902 3.903 3.903 0 0 0-3.901 3.901v.532Z"/>
</svg>
