<svg xmlns="http://www.w3.org/2000/svg" width="69" height="33" fill="none" viewBox="0 0 69 33">
  <path fill="#F5A759" stroke="#333" stroke-linecap="round" stroke-linejoin="round" stroke-width="1.346" d="M2.017 9.158s41.816-1.189 64.377.503c-2.03 2.156-13.078 13.446-30.94 13.858-19.476.45-31.633-12.39-33.437-14.361Z"/>
  <path fill="#F9CB6A" d="M20.791 14.334 34.127 1 47.43 14.303a31.061 31.061 0 0 1-13.324 3.012 31.04 31.04 0 0 1-13.315-3.012"/>
  <path stroke="#333" stroke-linecap="round" stroke-linejoin="round" stroke-width="1.346" d="M20.791 14.334 34.127 1 47.43 14.303a31.061 31.061 0 0 1-13.324 3.012 31.04 31.04 0 0 1-13.315-3.012"/>
  <path fill="#F9CB6A" d="m34.11 31.909 18.744-.735c.408 0 .789-.2 1.02-.534L67.432 11c.626-.908-.158-2.121-1.245-1.921l-31.633 5.857a1.265 1.265 0 0 1-.45 0L2.467 9.08C1.381 8.878.596 10.091 1.223 11l13.56 19.64c.23.335.61.535 1.018.535l18.31.735Z"/>
  <mask id="a" width="67" height="23" x="1" y="9" maskUnits="userSpaceOnUse" style="mask-type:luminance">
    <path fill="#fff" d="m34.11 31.909 18.744-.735c.408 0 .789-.2 1.02-.534L67.432 11c.626-.908-.158-2.121-1.245-1.921l-31.633 5.857a1.265 1.265 0 0 1-.45 0L2.467 9.08C1.381 8.878.596 10.091 1.223 11l13.56 19.64c.23.335.61.535 1.018.535l18.31.735Z"/>
  </mask>
  <g mask="url(#a)">
    <path fill="#F5A759" d="m17.93 32.028 16.415-16.415 16.379 16.378A38.223 38.223 0 0 1 34.32 35.7a38.181 38.181 0 0 1-16.39-3.707"/>
  </g>
  <path stroke="#333" stroke-linecap="round" stroke-linejoin="round" stroke-width="1.346" d="m34.11 31.909 18.744-.735c.408 0 .789-.2 1.02-.534L67.432 11c.626-.908-.158-2.121-1.245-1.921l-31.633 5.857a1.265 1.265 0 0 1-.45 0L2.467 9.08C1.381 8.878.596 10.091 1.223 11l13.56 19.64c.23.335.61.535 1.018.535l18.31.735Z"/>
</svg>
