<svg xmlns="http://www.w3.org/2000/svg" width="62" height="62" fill="none" viewBox="0 0 62 62">
  <path fill="#D3E2F1" stroke="#333" stroke-linecap="round" stroke-linejoin="round" stroke-width=".856" d="M60.999 1H1v59.998h60V1Z"/>
  <path fill="#F5A759" stroke="#333" stroke-miterlimit="10" stroke-width=".856" d="M19.326 35.51a7.773 7.773 0 1 0 0-15.545 7.773 7.773 0 0 0 0 15.546ZM9.082 30.291a1.098 1.098 0 0 1-.8 1.331l-3.117.777a1.097 1.097 0 1 1-.532-2.13l3.118-.777a1.097 1.097 0 0 1 1.331.8Zm1.193-7.991c-.312.52-.986.688-1.505.375L6.016 21.02a1.096 1.096 0 1 1 1.13-1.88l2.755 1.655c.52.313.687.986.374 1.506Zm6.497-4.806a1.098 1.098 0 0 1-1.33-.8l-.778-3.118a1.097 1.097 0 1 1 2.13-.532l.778 3.119a1.097 1.097 0 0 1-.8 1.33Zm7.991 1.195a1.096 1.096 0 0 1-.375-1.506l1.656-2.754a1.096 1.096 0 1 1 1.88 1.131l-1.655 2.754c-.313.52-.986.687-1.506.375Z"/>
  <path fill="#FDF6ED" d="M46.653 60.998H15.348V37.541l15.588-13.118L46.653 37.54v23.457Z"/>
  <path fill="#A8D471" d="M30.808 43.93H20.756V61h10.052V43.93Z"/>
  <path fill="#66A9EB" d="M41.51 43.93h-7.147v7.147h7.148V43.93Z"/>
  <path fill="#F5A759" d="M33.113 32.479a2.113 2.113 0 1 0-4.227 0 2.113 2.113 0 0 0 4.227 0Z"/>
  <path stroke="#333" stroke-linecap="round" stroke-linejoin="round" stroke-width=".856" d="M15.348 60.998V36.633m31.305 0v24.365M30.808 43.93H20.756V61h10.052V43.93Zm2.305-11.451a2.113 2.113 0 1 0-4.227 0 2.113 2.113 0 0 0 4.227 0ZM8.7 60.998h44.598M41.51 43.93h-7.147v7.147h7.148V43.93Zm-7.147 3.573h7.148m-3.574-3.573v7.147M14.632 37.17h31.304"/>
  <path fill="#333" d="M28.636 53.008a.544.544 0 1 0 0-1.088.544.544 0 0 0 0 1.088Z"/>
  <path fill="#F06061" stroke="#333" stroke-miterlimit="10" stroke-width=".856" d="M51.292 40.882c-.489 0-.98-.166-1.381-.504L30.937 24.423l-18.844 15.86a2.149 2.149 0 1 1-2.767-3.29L29.553 19.97a2.146 2.146 0 0 1 2.766 0l20.357 17.119a2.15 2.15 0 0 1-1.382 3.795l-.002-.002Z"/>
</svg>
