<svg xmlns="http://www.w3.org/2000/svg" width="63" height="71" fill="none" viewBox="0 0 63 71">
  <path fill="#A8D471" d="M1.002 64.732c.27-3.373 1.168-7.87 3.79-12.325 1.342-2.278 2.894-4.838 6.06-6.408 1.885-.935 3.66-1.178 4.816-1.24H31.16c1.53.172 4.251.69 6.711 2.53 1.57 1.174 2.627 2.585 3.891 5.116 1.317 2.638 2.991 6.764 3.791 12.325a49.68 49.68 0 0 1-21.863 5.29 49.71 49.71 0 0 1-22.687-5.29l-.002.002Z"/>
  <path fill="#F3D2BA" d="M36.141 34.319c.006 1.15.106 5.939-3.15 9.028-1.981 1.882-5.055 3.024-9.642 3.024-4.586 0-7.66-1.142-9.642-3.024-3.26-3.093-3.157-7.837-3.15-9.029 1.447-5.692 6.375-9.786 12.042-10.104 6.18-.347 11.933 3.871 13.54 10.105h.002Z"/>
  <path fill="#F3D2BA" d="M11.108 39.652a2.1 2.1 0 0 1-.55.053c-1.145-.04-2.833-1.049-2.833-2.832a2.846 2.846 0 0 1 2.833-2.833l.55 5.612Zm25.035-5.614a2.833 2.833 0 1 1-.533 5.614l.533-5.616v.002Z"/>
  <path fill="#7D5045" d="M37.557 23.25c-2.678-5.948-9.854-8.84-15.23-7.476-1.332.337-2.39.895-3.158 1.393l-1.347.232a9.21 9.21 0 0 0-3.622.511c-4.044 1.447-5.63 5.355-5.943 6.13-2.014 4.965.337 9.567.715 10.279l1.746-.389a15.146 15.146 0 0 0 9.223-7.06l-.316-1.125c.584 1.627 1.727 3.767 3.956 5.075 1.605.942 4.46 1.856 5.592.82.95.63 1.956 1.028 2.837 1.373a16.5 16.5 0 0 0 4.135 1.027l1.298.053c.44-1.039 2.352-5.876.116-10.842l-.002-.001Z"/>
  <path fill="#F5A759" stroke="#333" stroke-miterlimit="10" stroke-width=".51" d="M50.41 18.535a5.741 5.741 0 1 0 0-11.482 5.741 5.741 0 0 0 0 11.482Z"/>
  <path fill="#F5A759" stroke="#333" stroke-miterlimit="10" stroke-width=".437" d="M50.466 20.59a.812.812 0 0 1 .817.805l.018 2.374a.812.812 0 0 1-1.623.012l-.018-2.374a.812.812 0 0 1 .806-.817Zm-5.529-2.243a.81.81 0 0 1 .007 1.147l-1.666 1.69a.81.81 0 0 1-1.146.008.81.81 0 0 1-.008-1.147l1.666-1.69a.81.81 0 0 1 1.147-.008Zm-2.323-5.497a.812.812 0 0 1-.806.816l-2.374.018a.812.812 0 0 1-.011-1.623l2.373-.018a.812.812 0 0 1 .818.806Zm2.244-5.528a.81.81 0 0 1-1.147.007l-1.69-1.666a.81.81 0 0 1-.007-1.146.81.81 0 0 1 1.146-.008l1.69 1.666a.81.81 0 0 1 .008 1.147Zm5.496-2.325a.812.812 0 0 1-.817-.806l-.018-2.374a.812.812 0 0 1 1.623-.011l.018 2.373a.812.812 0 0 1-.806.818Zm5.53 2.244a.81.81 0 0 1-.008-1.147l1.666-1.69a.81.81 0 0 1 1.147-.007.81.81 0 0 1 .008 1.147l-1.666 1.69a.81.81 0 0 1-1.147.007Zm2.323 5.496a.812.812 0 0 1 .805-.817l2.374-.018a.812.812 0 0 1 .012 1.623l-2.374.018a.812.812 0 0 1-.817-.806Zm-2.245 5.53a.81.81 0 0 1 1.147-.008l1.69 1.666a.81.81 0 0 1 .007 1.147.81.81 0 0 1-1.146.008l-1.69-1.666a.81.81 0 0 1-.008-1.147Z"/>
  <path stroke="#333" stroke-linecap="round" stroke-linejoin="round" stroke-width=".98" d="M31.16 44.758c1.531.173 4.252.69 6.712 2.53 1.57 1.175 2.627 2.586 3.891 5.117 1.317 2.638 2.991 6.764 3.791 12.325M15.393 44.758c-1.53.173-4.251.69-6.711 2.53-1.57 1.175-2.627 2.586-3.891 5.117C3.474 55.043 1.8 59.169 1 64.73"/>
  <path stroke="#333" stroke-linecap="round" stroke-linejoin="round" stroke-width=".98" d="M36.206 34.319c.006 1.15.106 5.939-3.15 9.028-1.982 1.882-5.055 3.024-9.642 3.024s-7.66-1.142-9.642-3.024c-3.26-3.093-3.158-7.837-3.15-9.029m8.564-10.368c.261 1.262 1.2 4.955 4.458 6.868 1.666.978 4.673 1.925 5.712.7.717-.845.282-2.478-.326-3.437-.806-1.27-2.403-2.117-2.858-1.736-.486.405.251 2.293 1.22 3.579 1.334 1.776 3.189 2.503 4.68 3.09.996.39 2.392.824 4.136 1.026"/>
  <path stroke="#333" stroke-linecap="round" stroke-linejoin="round" stroke-width=".98" d="M20.005 26.868a15.17 15.17 0 0 1-3.743 4.324 15.162 15.162 0 0 1-5.479 2.736m.39 5.724c-.153.035-.339.06-.55.053-1.145-.04-2.833-1.049-2.833-2.832a2.846 2.846 0 0 1 2.832-2.833m25.586-.002a2.833 2.833 0 1 1-.533 5.614M19.233 17.167a10.631 10.631 0 0 1 3.158-1.393c5.377-1.365 12.55 1.528 15.23 7.476 2.237 4.965.324 9.802-.115 10.841m-28.469.228c-.379-.712-2.729-5.314-.716-10.28.314-.774 1.9-4.68 5.943-6.129a9.251 9.251 0 0 1 3.623-.511"/>
  <path stroke="#333" stroke-linecap="round" stroke-linejoin="round" stroke-width=".784" d="M26.707 35.96a3.226 3.226 0 0 0 2.83.935"/>
  <path stroke="#333" stroke-linecap="round" stroke-linejoin="round" stroke-width="2.548" d="M28.138 39.32v1.477"/>
  <path stroke="#333" stroke-linecap="round" stroke-linejoin="round" stroke-width=".784" d="M20.123 35.96a3.226 3.226 0 0 1-2.83.935"/>
  <path stroke="#333" stroke-linecap="round" stroke-linejoin="round" stroke-width="2.548" d="M18.69 39.32v1.477"/>
  <path stroke="#333" stroke-linecap="round" stroke-linejoin="round" stroke-width=".784" d="M21.225 43.34a4.814 4.814 0 0 1 4.379 0"/>
  <path stroke="#333" stroke-linecap="round" stroke-linejoin="round" stroke-width=".98" d="M33.5 52.707a27.353 27.353 0 0 1 2.048 4.675 27.355 27.355 0 0 1 1.28 6.147M14.394 52.707a27.353 27.353 0 0 0-2.049 4.675 27.355 27.355 0 0 0-1.28 6.147"/>
  <path fill="#D3E2F1" stroke="#333" stroke-linecap="round" stroke-linejoin="round" stroke-width=".443" d="M29.651 33.993a.705.705 0 1 1-1.325.486c-.135-.366-.194-1.442.173-1.578.366-.135 1.02.724 1.152 1.09v.002Zm4.434 2.725a.707.707 0 0 1-.617.784.707.707 0 0 1-.784-.618c-.045-.386.147-1.448.533-1.493.386-.045.823.94.868 1.329v-.002Zm-12.223-5.134a.705.705 0 1 1-1.412-.035c.01-.39.353-1.413.743-1.402.39.012.678 1.049.669 1.44v-.003Zm3.188 2.982a.706.706 0 1 1-1.397.205c-.056-.386.106-1.452.49-1.509.385-.057.85.917.906 1.303h.002Zm-12.505 1.789a.706.706 0 0 0 1.382.28c.077-.38-.027-1.456-.41-1.532-.382-.077-.895.87-.974 1.252h.002Zm3.609-2.94a.706.706 0 1 0 1.395.22c.061-.387-.092-1.453-.476-1.514-.384-.06-.857.91-.917 1.294h-.002Z"/>
</svg>
