<svg xmlns="http://www.w3.org/2000/svg" width="59" height="54" fill="none" viewBox="0 0 59 54">
  <path fill="#333" stroke="#333" stroke-miterlimit="10" stroke-width="1.521" d="M10.591 20.877c5.274 0 9.55-4.503 9.55-10.058S15.865.76 10.59.76c-5.274 0-9.55 4.503-9.55 10.058s4.276 10.058 9.55 10.058Zm37.996 0c5.274 0 9.55-4.503 9.55-10.058S53.861.76 48.587.76c-5.274 0-9.55 4.503-9.55 10.058s4.276 10.058 9.55 10.058Z"/>
  <path fill="#FDF6ED" stroke="#333" stroke-miterlimit="10" stroke-width="1.521" d="M56.559 25.823c.943 14.262-6.129 26.482-26.328 26.998-18.577.476-27.888-11.326-27.673-25.617C2.763 13.5 16.072 2.461 28.936 2.131c12.827-.328 26.719 10.015 27.625 23.69l-.002.001Z"/>
  <path fill="#333" d="M23.893 29.713c1.148-3.487-.168-7.052-2.937-7.963-2.77-.911-5.945 1.177-7.092 4.663-1.147 3.487.168 7.052 2.938 7.963 2.77.912 5.945-1.176 7.091-4.663Zm17.987 4.806c2.834-.685 4.433-4.132 3.571-7.7-.862-3.568-3.858-5.905-6.692-5.22-2.834.684-4.433 4.131-3.57 7.7.861 3.567 3.857 5.904 6.691 5.22Zm-9.973.165c-.108-.093-.834-.676-2.117-.676-.545 0-1.19.104-1.932.398-.72.285-1.182 1.004-.921 1.734.078.218.308.698 1.423 1.1.967.348 2.124.289 2.793-.06 1.778-.931 1.356-1.974.752-2.496h.002Z"/>
  <path stroke="#333" stroke-linecap="round" stroke-linejoin="round" stroke-width="2.047" d="M29.647 36.27v3.926c-.48 1.071-1.543 1.75-2.678 1.714-1.565-.05-2.353-1.427-2.388-1.493m5.066-4.147v3.926c.48 1.071 1.543 1.75 2.678 1.714 1.564-.05 2.353-1.427 2.388-1.493"/>
</svg>
