<svg xmlns="http://www.w3.org/2000/svg" width="56" height="55" fill="none" viewBox="0 0 56 55">
  <path fill="#FDF6ED" stroke="#333" stroke-miterlimit="10" stroke-width="1.482" d="M53.792 25.23c.32 3.62 1.204 13.647-5.843 21.156-6.598 7.032-15.77 7.186-19.267 7.246-3.42.057-11.996.203-18.755-6.031-7.82-7.212-7.51-17.711-7.409-21.232.093-3.162.235-8.058 3.326-12.953C12.328 3.156 25.62 2.65 27.615 2.606c2.693-.06 14.852.05 21.757 9.312 3.683 4.938 4.143 10.165 4.422 13.312h-.002Z"/>
  <path fill="#4562AC" stroke="#333" stroke-linecap="round" stroke-linejoin="round" stroke-width="1.482" d="M54.325 25.47C53.445 11.204 41.9.25 27.42.758 12.912.749 1.928 12.616 1.73 26.91c-.096 6.863 1.776 13.173 5.586 17.938-4.782-9.528-1.505-21.932-.885-24.174 1.592-5.042 5.567-8.347 10.116-8.317 4.098.027 7.892 2.754 9.987 7.002.293.593.955.657 1.321.132 1.488-2.138 5.119-6.332 10.724-6.361a10.65 10.65 0 0 1 4.788 1.1c3.798 1.861 6.442 5.919 7.293 10.71.96 5.416 1.621 14.362-2.631 21.326l-.068.106c5.023-5.216 6.871-12.739 6.365-20.903Z"/>
  <path fill="#333" d="M18.303 33.708c1.43 0 2.59-1.458 2.59-3.258 0-1.799-1.16-3.257-2.59-3.257s-2.589 1.458-2.589 3.257c0 1.8 1.16 3.258 2.59 3.258Zm19.524 0c1.43 0 2.589-1.458 2.589-3.258 0-1.799-1.16-3.257-2.59-3.257s-2.588 1.458-2.588 3.257c0 1.8 1.159 3.258 2.589 3.258Z"/>
  <path fill="#F9CB6A" d="M32.357 41.557 28.64 44.86a.681.681 0 0 1-.89.014l-3.964-3.302c-.49-.408-.201-1.204.436-1.204h7.68c.626 0 .92.774.453 1.19h.002Z"/>
  <path stroke="#333" stroke-miterlimit="10" stroke-width="1.482" d="M32.357 41.557 28.64 44.86a.681.681 0 0 1-.89.014l-3.964-3.302c-.49-.408-.201-1.204.436-1.204h7.68c.626 0 .92.774.453 1.19h.002Z"/>
  <path fill="#F18653" stroke="#333" stroke-miterlimit="10" stroke-width="1.482" d="m22.543 40.012 4.95-4.399a.617.617 0 0 1 .804-.012l5.277 4.398a.616.616 0 0 1-.394 1.09l-5.114.964-5.114-.963a.616.616 0 0 1-.409-1.078Z"/>
</svg>
