<svg xmlns="http://www.w3.org/2000/svg" width="78" height="58" fill="none" viewBox="0 0 78 58">
  <path fill="#A8D471" d="M60.929 1.628 7.182 43.536l9.5 12.182L70.427 13.81l-9.5-12.182Z"/>
  <mask id="a" width="64" height="55" x="7" y="1" maskUnits="userSpaceOnUse" style="mask-type:luminance">
    <path fill="#fff" d="M60.929 1.628 7.182 43.536l9.5 12.182L70.427 13.81l-9.5-12.182Z"/>
  </mask>
  <g mask="url(#a)">
    <path fill="#83BA4F" d="M80.174 11.44c-1.985-2.324-5.415-2.92-7.905-.98l-60.652 47.3c-2.323 1.813-2.955 5.59-.979 7.905 1.985 2.323 5.415 2.92 7.905.979l60.653-47.298c2.323-1.812 2.955-5.59.978-7.905v-.002Z"/>
  </g>
  <path stroke="#323333" stroke-linecap="round" stroke-linejoin="round" stroke-width=".865" d="M60.929 1.628 7.182 43.536l9.5 12.182L70.427 13.81l-9.5-12.182Z"/>
  <mask id="b" width="56" height="46" x="8" y="2" maskUnits="userSpaceOnUse" style="mask-type:luminance">
    <path fill="#fff" d="M59.482 2.627 8.598 42.303l4.429 5.68L63.91 8.307l-4.429-5.68Z"/>
  </mask>
  <g mask="url(#b)">
    <path stroke="#323333" stroke-linecap="round" stroke-linejoin="round" stroke-width=".955" d="m6.236 34.275 2.032 2.604m.013-4.2 2.032 2.604m.016-4.201 2.032 2.605m.015-4.202 3.318 4.257m-1.061-6.018 2.033 2.607m.014-4.203 2.033 2.606m.015-4.203 2.03 2.607m.016-4.201 2.032 2.605m.015-4.202 3.32 4.257m-1.063-6.017 2.032 2.604m.015-4.201 2.033 2.607m.015-4.203 2.033 2.606m.012-4.203 2.033 2.607m.015-4.203 3.32 4.256m-1.061-6.016 2.03 2.606m.015-4.202 2.033 2.605m.015-4.201 2.032 2.604m.015-4.201 2.03 2.605m.015-4.2 3.32 4.256m-1.06-6.018 2.032 2.606m.015-4.203 2.03 2.607m.016-4.201 2.032 2.605M7.01 44.146l3.32 4.256m-1.06-6.018 2.032 2.607m.013-4.203 2.032 2.607m.015-4.203 2.033 2.606m.015-4.201 2.03 2.605m.016-4.201 3.32 4.256m-1.062-6.017 2.032 2.604m.016-4.201 2.03 2.607m.015-4.203 2.033 2.607m.015-4.204 2.032 2.607m.013-4.202 3.32 4.256m-1.06-6.016 2.03 2.605m.016-4.202 2.033 2.605m.013-4.201 2.032 2.605m.016-4.201 2.032 2.604m.015-4.2 3.318 4.256m-1.061-6.018 2.032 2.607m.015-4.203 2.033 2.606m.015-4.203 2.03 2.607m.016-4.202 2.032 2.605m.015-4.201 3.32 4.257M51.05 9.803l2.031 2.605m.015-4.201 2.033 2.606m.015-4.203 2.032 2.607m.013-4.203 2.033 2.607m.014-4.203 3.32 4.256m-1.06-6.016 2.03 2.605m.015-4.201 2.032 2.605M14.349 48.9l2.032 2.605m.015-4.202 2.032 2.605m.015-4.201 2.031 2.607m.015-4.203 2.032 2.606m.015-4.203 3.32 4.257m-1.061-6.016 2.03 2.605m.016-4.201 2.032 2.604m.015-4.201 2.032 2.605m.014-4.201 2.032 2.605m.015-4.201 3.32 4.256m-1.061-6.018 2.033 2.607m.012-4.203 2.033 2.606m.015-4.202 2.032 2.606m.015-4.202 2.031 2.606m.015-4.201 3.32 4.256m-1.061-6.018 2.032 2.605m.015-4.201 2.031 2.607m.015-4.204 2.033 2.607m.014-4.203 2.033 2.607m.012-4.203 3.32 4.256m-1.06-6.015 2.032 2.604m.016-4.201 2.032 2.605m.013-4.201 2.032 2.605m.015-4.201 2.032 2.604m.016-4.201 3.318 4.257"/>
  </g>
</svg>
