<svg xmlns="http://www.w3.org/2000/svg" width="69" height="67" fill="none" viewBox="0 0 69 67">
  <path fill="#FDF6ED" d="m34.616 54.605 4.504.393-2.764 5.68-2.766 5.677-1.74-6.07-1.74-6.073 4.506.393Z"/>
  <mask id="a" width="10" height="13" x="30" y="54" maskUnits="userSpaceOnUse" style="mask-type:luminance">
    <path fill="#fff" d="m34.616 54.605 4.504.393-2.764 5.68-2.766 5.677-1.74-6.07-1.74-6.073 4.506.393Z"/>
  </mask>
  <g mask="url(#a)">
    <path fill="#323333" d="M35.89 65.377c.104-1.794-.675-3.384-1.903-3.491-1.146-.1-2.377 1.323-2.48 3.109-.103 1.793.675 3.384 1.904 3.49 1.146.1 2.377-1.322 2.48-3.108Z"/>
  </g>
  <path stroke="#333" stroke-linecap="round" stroke-linejoin="round" stroke-width="1.292" d="m34.616 54.605 4.504.393-2.764 5.68-2.766 5.677-1.74-6.07-1.74-6.073 4.506.393Z"/>
  <path fill="#F18653" stroke="#333" stroke-linecap="round" stroke-linejoin="round" stroke-width="1.292" d="m30.158 53.662 3.82-43.768c.108-1.253.872-2.21 1.704-2.139l5.997.524c.832.072 1.419 1.148 1.308 2.4l-3.82 43.764c-.038.452-.208.87-.46 1.146-.764.835-2.46 2.336-4.617 2.009-1.908-.288-3.125-1.843-3.684-2.74-.198-.316-.286-.75-.248-1.197v.001Z"/>
  <path fill="#F06061" stroke="#333" stroke-linecap="round" stroke-linejoin="round" stroke-width="1.292" d="m41.964 1.63-5.408-.473a1.808 1.808 0 0 0-1.959 1.644l-.294 3.37a1.808 1.808 0 0 0 1.644 1.958l5.408.472a1.808 1.808 0 0 0 1.958-1.644l.295-3.369a1.808 1.808 0 0 0-1.644-1.959Z"/>
  <path fill="#C2BEBE" stroke="#333" stroke-linecap="round" stroke-linejoin="round" stroke-width="1.292" d="M42.829 7.513 34.683 6.8a1.024 1.024 0 0 0-1.11.932l-.199 2.28c-.049.564.368 1.06.931 1.11l8.147.711c.563.05 1.06-.368 1.109-.931l.2-2.281a1.024 1.024 0 0 0-.932-1.11Z"/>
  <path fill="#FDF6ED" d="m23.474 51.172-3.877-2.685-1.565 6.399-1.562 6.398 5.44-3.712 5.442-3.714-3.878-2.686Z"/>
  <mask id="b" width="12" height="14" x="16" y="48" maskUnits="userSpaceOnUse" style="mask-type:luminance">
    <path fill="#fff" d="m23.474 51.172-3.877-2.685-1.565 6.399-1.562 6.398 5.44-3.712 5.442-3.714-3.878-2.686Z"/>
  </mask>
  <g mask="url(#b)">
    <path fill="#323333" d="M15.274 58.967c1.113-1.508 2.797-2.266 3.854-1.533.988.682 1.028 2.644-.08 4.147-1.113 1.508-2.798 2.266-3.855 1.534-.987-.683-1.028-2.644.081-4.148Z"/>
  </g>
  <path stroke="#333" stroke-linecap="round" stroke-linejoin="round" stroke-width="1.292" d="m23.474 51.172-3.877-2.685-1.565 6.399-1.562 6.398 5.44-3.712 5.442-3.714-3.878-2.686Z"/>
  <path fill="#F5A759" stroke="#333" stroke-linecap="round" stroke-linejoin="round" stroke-width="1.292" d="m27.68 53.384 26.095-37.67c.747-1.08.773-2.357.055-2.853l-5.16-3.574c-.716-.496-1.903-.024-2.65 1.055L19.93 48.007c-.27.39-.414.836-.396 1.227.058 1.181.42 3.513 2.366 4.689 1.723 1.04 3.736.601 4.782.256.367-.122.73-.411.996-.795h.002Z"/>
  <path fill="#F06061" stroke="#333" stroke-linecap="round" stroke-linejoin="round" stroke-width="1.292" d="m48.714 9.762 4.655 3.224c.856.593 2.03.38 2.624-.477l2.009-2.9c.593-.856.38-2.03-.477-2.623L52.871 3.76a1.886 1.886 0 0 0-2.624.477l-2.01 2.9a1.887 1.887 0 0 0 .477 2.624Z"/>
  <path fill="#C2BEBE" stroke="#333" stroke-linecap="round" stroke-linejoin="round" stroke-width="1.292" d="m45.683 11.624 7.01 4.856a1.069 1.069 0 0 0 1.487-.27l1.36-1.962a1.068 1.068 0 0 0-.27-1.487l-7.01-4.856a1.068 1.068 0 0 0-1.487.27l-1.36 1.963a1.068 1.068 0 0 0 .27 1.486Z"/>
  <path fill="#FDF6ED" d="m13.237 44.43 2.05 4.548-6.956.398-6.954.399 4.906-4.947 4.906-4.945 2.048 4.547Z"/>
  <mask id="c" width="15" height="11" x="1" y="39" maskUnits="userSpaceOnUse" style="mask-type:luminance">
    <path fill="#fff" d="m13.237 44.43 2.05 4.548-6.956.398-6.954.399 4.906-4.947 4.906-4.945 2.048 4.547Z"/>
  </mask>
  <g mask="url(#c)">
    <path fill="#323333" d="M3.558 51.461c1.78-.867 2.893-2.472 2.334-3.712-.522-1.157-2.554-1.576-4.328-.712-1.78.867-2.894 2.472-2.334 3.712.522 1.157 2.553 1.576 4.328.712Z"/>
  </g>
  <path stroke="#333" stroke-linecap="round" stroke-linejoin="round" stroke-width="1.292" d="m13.237 44.43 2.05 4.548-6.956.398-6.954.399 4.906-4.947 4.906-4.945 2.048 4.547Z"/>
  <path fill="#F9CB6A" stroke="#333" stroke-linecap="round" stroke-linejoin="round" stroke-width="1.292" d="m11.745 39.633 44.181-19.907c1.266-.57 2.598-.35 2.977.49l2.727 6.051c.378.84-.34 1.983-1.606 2.553L15.848 48.724c-.458.207-.948.27-1.352.175-1.216-.286-3.572-1.108-4.423-3.36-.75-1.99.09-4.001.651-5.022.198-.36.569-.68 1.019-.883h.002Z"/>
  <path fill="#F06061" stroke="#333" stroke-linecap="round" stroke-linejoin="round" stroke-width="1.292" d="M68.182 22.962 65.72 17.5a1.993 1.993 0 0 0-2.635-.999l-3.404 1.534a1.993 1.993 0 0 0-.998 2.635l2.46 5.462a1.993 1.993 0 0 0 2.636.998l3.403-1.533a1.993 1.993 0 0 0 .999-2.635Z"/>
  <path fill="#C2BEBE" stroke="#333" stroke-linecap="round" stroke-linejoin="round" stroke-width="1.292" d="m62.987 26.962-3.703-8.222a1.131 1.131 0 0 0-1.496-.566l-2.3 1.036a1.13 1.13 0 0 0-.566 1.495l3.703 8.222c.257.569.926.823 1.496.566l2.3-1.036a1.13 1.13 0 0 0 .566-1.495Z"/>
</svg>
