<svg xmlns="http://www.w3.org/2000/svg" width="68" height="46" fill="none" viewBox="0 0 68 46">
  <path fill="#83BA4F" stroke="#333" stroke-miterlimit="10" stroke-width="1.288" d="M5.351 29.323c.05.127.098.235.098.235.288.647 1.062 2.094 2.77 3.002 4.863 2.58 11.485-1.206 12.163-1.607 4.884-2.9 7.725-6.776 6.405-8.048a1.05 1.05 0 0 0-.422-.233c-1.649-.547-3.143 1.54-6.524 2.575-1.294.396-2.591.77-3.461.248-1.59-.951.239-3.714-1.183-4.98-1.775-1.581-8.024-.293-9.81 2.91-1.118 2.007-.485 4.763-.036 5.898Z"/>
  <path fill="#468A40" stroke="#333" stroke-miterlimit="10" stroke-width="1.288" d="M11.825 25.2c.156.776.504 1.983 1.366 3.157 2.662 3.624 7.932 3.784 11.109 3.88a25.465 25.465 0 0 0 7.442-.891l-5.39-3.347-14.527-2.802v.002Z"/>
  <path fill="#83BA4F" stroke="#333" stroke-miterlimit="10" stroke-width="1.288" d="M25.3 32.82c-.049.166-.086.312-.086.312-.223.874-.608 2.925.227 5.06 2.37 6.076 10.968 6.732 11.859 6.784 6.417.37 11.762-1.696 11.538-3.942-.021-.21-.092-.358-.2-.537-1.045-1.718-3.893-.58-7.62-1.85-1.427-.488-2.842-1-3.223-2.151-.695-2.098 2.94-3.71 2.623-6.018-.396-2.887-6.83-5.889-10.752-3.786-2.456 1.315-3.928 4.631-4.367 6.13v-.002Zm15.376-10.304a9.104 9.104 0 0 0-.368 2.369s-.02 1.478.51 3.004c.807 2.33 5.721 7.855 12.942 8.168 1.64.07 4.08-.735 8.955-2.348.62-.204 1.792-.61 2.098-1.566a1.7 1.7 0 0 0-.03-1.128c-.707-1.655-3.98-.934-8.39-2.675-1.842-.726-2.895-1.163-3.222-2.15-.695-2.098 2.94-3.71 2.623-6.018-.395-2.887-6.83-5.889-10.751-3.786-2.456 1.315-3.928 4.631-4.367 6.13Z"/>
  <path fill="#83BA4F" stroke="#333" stroke-miterlimit="10" stroke-width="1.288" d="M58.492 18.984c.866.085 2.22.174 3.88.104 3.216-.138 4.344-.748 4.687-.225.625.947-2.258 4.221-5.285 5.703a4.88 4.88 0 0 1-1.538.494c-1.549.212-4.115-.242-4.602-1.959-.402-1.42.697-3.41 2.858-4.117Z"/>
  <path fill="#468A40" stroke="#333" stroke-miterlimit="10" stroke-width="1.288" d="M60.09 19.319c.319 1.276.323 2.404.319 2.496-.244 4.575-5.125 7.375-7.806 8.913-1.278.732-8.274 4.598-17.44 3.122-2.166-.35-5.33-.995-8.402-3.42a17.94 17.94 0 0 1-3.989-4.483c-1.952-3.175-1.546-4.915-3.859-7.93-1.445-1.88-2.088-1.827-2.223-2.649-.535-3.2 8.101-8.599 17.125-9.146 12.25-.743 24.273 5.058 26.278 13.099l-.003-.002Z"/>
  <path fill="#468A40" d="M56.714 16.5c.275 1.1.568 2.342.233 3.88-1.476 6.79-12.837 11.434-21.648 9.542-1.761-.379-5.002-1.074-7.762-3.632-2.15-1.994-2.017-3.272-4.913-5.91-2.46-2.24-3.534-2.208-4.42-3.88-1.506-2.839-.155-6.257.028-6.792 1.699-4.958 7.213-8.36 14.744-8.36 10.785 0 21.638 6.735 23.736 15.152h.002Z"/>
  <mask id="a" width="41" height="30" x="17" y="1" maskUnits="userSpaceOnUse" style="mask-type:luminance">
    <path fill="#fff" d="M56.714 16.5c.275 1.1.568 2.342.233 3.88-1.476 6.79-12.837 11.434-21.648 9.542-1.761-.379-5.002-1.074-7.762-3.632-2.15-1.994-2.017-3.272-4.913-5.91-2.46-2.24-3.534-2.208-4.42-3.88-1.506-2.839-.155-6.257.028-6.792 1.699-4.958 7.213-8.36 14.744-8.36 10.785 0 21.638 6.735 23.736 15.152h.002Z"/>
  </mask>
  <g mask="url(#a)">
    <path fill="#83BA4F" stroke="#333" stroke-miterlimit="10" stroke-width="1.288" d="m27.716 2.793 3.174 5.583a2.415 2.415 0 0 0 1.686 1.189l10.14 1.78a2.422 2.422 0 0 0 2.24-.79l6.038-6.89a2.425 2.425 0 0 0-.712-3.748 24.453 24.453 0 0 0-9.83-2.727c-5.001-.296-9.05 1.02-11.633 2.202a2.423 2.423 0 0 0-1.101 3.401h-.002Zm-2.75.032a2202.19 2202.19 0 0 0 3.757 6.704 1.688 1.688 0 0 1-.091 1.799l-6.093 8.657a1.687 1.687 0 0 1-2.47.316l-5.925-5.02a1.69 1.69 0 0 1-.229-2.34l8.258-10.348a1.687 1.687 0 0 1 2.793.232Zm5.855 9.494-4.215 6.386c-.343.6-.243 1.353.248 1.84l4.521 4.157c.387.385.95.533 1.474.389l8.953-2.438a1.52 1.52 0 0 0 1.122-1.417l.301-6.455a1.523 1.523 0 0 0-1.278-1.557l-9.558-1.65a1.519 1.519 0 0 0-1.566.745h-.002Zm19.396-4.105c-1.297 1.542-3.053 3.338-3.886 4.338a2.11 2.11 0 0 0-.49 1.309l-.136 7.167a2.105 2.105 0 0 0 1.203 1.944l8.243 3.922a2.108 2.108 0 0 0 2.889-1.189l2.841-7.868a2.105 2.105 0 0 0-.416-2.126L53.4 8.16a2.11 2.11 0 0 0-3.183.052v.002Zm-16.71 19.048c2.252-.641 8.214-2.377 10.133-2.935a1.59 1.59 0 0 1 1.163.11l6.101 3.116a1.584 1.584 0 0 1 .254 2.66c-2.027 1.583-4.912 3.829-4.98 3.852-.084.029-9.064-.6-13.077-.883a1.583 1.583 0 0 1-1.422-1.978l.729-2.816a1.583 1.583 0 0 1 1.099-1.128v.002Z"/>
  </g>
  <path stroke="#333" stroke-miterlimit="10" stroke-width="1.288" d="M56.714 16.5c.275 1.1.568 2.342.233 3.88-1.476 6.79-12.837 11.434-21.648 9.542-1.761-.379-5.002-1.074-7.762-3.632-2.15-1.994-2.017-3.272-4.913-5.91-2.46-2.24-3.534-2.208-4.42-3.88-1.506-2.839-.155-6.257.028-6.792 1.699-4.958 7.213-8.36 14.744-8.36 10.785 0 21.638 6.735 23.736 15.152h.002Z"/>
  <path fill="#A8D471" d="M23.218 23.707a13.313 13.313 0 0 0 4.142-9.823C27.279 6.674 21.403.778 14.192.678 6.982.578.643 6.596.643 14.036s5.98 13.36 13.36 13.36h.01c.73 0 1.455.112 2.142.361.4.146.814.281 1.247.404 3.1.879 5.764.743 7.36.535A70.055 70.055 0 0 1 23 26.471l-.012-.017a2.07 2.07 0 0 1 .229-2.745l.002-.002Z"/>
  <mask id="b" width="28" height="29" x="0" y="0" maskUnits="userSpaceOnUse" style="mask-type:luminance">
    <path fill="#fff" d="M23.218 23.707a13.313 13.313 0 0 0 4.142-9.823C27.279 6.674 21.403.778 14.192.678 6.982.578.643 6.596.643 14.036s5.98 13.36 13.36 13.36h.01c.73 0 1.455.112 2.142.361.4.146.814.281 1.247.404 3.1.879 5.764.743 7.36.535A70.055 70.055 0 0 1 23 26.471l-.012-.017a2.07 2.07 0 0 1 .229-2.745l.002-.002Z"/>
  </mask>
  <g mask="url(#b)">
    <path fill="#468A40" d="M19.8-2.023a2.93 2.93 0 0 0-1.528.064 2.918 2.918 0 0 0-.762-.131c-2.404-.098-4.144 2.298-3.42 4.55.677 2.107 3.058 2.885 5.05 3.048 2.152.177 4.342-1.064 4.41-3.429.065-2.235-1.76-3.638-3.748-4.102H19.8Zm8.447 10.449a1.976 1.976 0 0 0-.317-.99c-.14-.18-.279-.36-.416-.54a2.66 2.66 0 0 0-1.178-.687l-.71-.096a2.64 2.64 0 0 0-.99.192 1.99 1.99 0 0 0-.95.312c-.31.169-.56.398-.75.687a2 2 0 0 0-.476.908c-.031.237-.065.472-.096.71 0 .48.123.93.364 1.346.14.18.28.36.417.54.333.33.724.56 1.178.686.279.042.562.108.845.106.033 0 .065-.004.098-.006.246-.02.525-.054.768-.106.025-.006.05-.012.075-.02.231-.074.472-.19.693-.29a.921.921 0 0 0 .17-.096c.311-.169.56-.398.75-.687.235-.258.396-.56.477-.907.11-.354.127-.71.048-1.064v.002ZM10.41 2.935a2.669 2.669 0 1 0 0-5.337 2.669 2.669 0 0 0 0 5.337Zm8.832 3.318c-2.25 0-2.252 3.495 0 3.495s2.252-3.495 0-3.495Zm-6.451-2.536c-2.25 0-2.252 3.495 0 3.495s2.252-3.494 0-3.494Zm1.739 4.199c-1.539 0-1.543 2.392 0 2.392 1.542 0 1.542-2.392 0-2.392ZM7.373 4.63c-1.538 0-1.543 2.391 0 2.391 1.542 0 1.542-2.392 0-2.392Zm14.154 6.2c-1.538 0-1.542 2.392 0 2.392 1.543 0 1.543-2.392 0-2.392Z"/>
  </g>
  <path stroke="#333" stroke-miterlimit="10" stroke-width="1.288" d="M23.218 23.707a13.313 13.313 0 0 0 4.142-9.823C27.279 6.674 21.403.778 14.192.678 6.982.578.643 6.596.643 14.036s5.98 13.36 13.36 13.36h.01c.73 0 1.455.112 2.142.361.4.146.814.281 1.247.404 3.1.879 5.764.743 7.36.535A70.055 70.055 0 0 1 23 26.471l-.012-.017a2.07 2.07 0 0 1 .229-2.745l.002-.002Z"/>
  <path fill="#333" d="M3.767 19.108c.75 0 1.358-.764 1.358-1.706 0-.943-.608-1.707-1.358-1.707-.75 0-1.357.764-1.357 1.707 0 .942.608 1.706 1.357 1.706Zm7.39.772c.75 0 1.357-.763 1.357-1.706s-.607-1.707-1.357-1.707-1.357.764-1.357 1.707c0 .943.607 1.707 1.357 1.707Z"/>
  <path fill="#A8D471" d="M3.43 21.88a4.117 4.117 0 0 1 1.176-.194c1.54-.026 2.563.86 3.295 1.238 1.008.523 2.704.73 5.723-.739"/>
  <path stroke="#333" stroke-linecap="round" stroke-linejoin="round" stroke-width="1.288" d="M3.43 21.88a4.117 4.117 0 0 1 1.176-.194c1.54-.026 2.563.86 3.295 1.238 1.008.523 2.704.73 5.723-.739"/>
</svg>
