<svg xmlns="http://www.w3.org/2000/svg" width="67" height="52" fill="none" viewBox="0 0 67 52">
  <path fill="#FDF6ED" stroke="#333" stroke-linecap="round" stroke-linejoin="round" stroke-width="1.441" d="M14.723 12.128a1.505 1.505 0 0 0-2.949.605l7.462 36.382a1.505 1.505 0 0 0 2.948-.604l-7.461-36.383Z"/>
  <path fill="#F8BCBD" stroke="#333" stroke-linecap="round" stroke-linejoin="round" stroke-width="1.441" d="M13.045 21.937c5.801 0 10.504-4.704 10.504-10.505C23.55 5.63 18.846.927 13.045.927 7.243.927 2.54 5.63 2.54 11.432c0 5.801 4.703 10.505 10.505 10.505Z"/>
  <path fill="#F06061" stroke="#333" stroke-linecap="round" stroke-linejoin="round" stroke-width="1.441" d="M22.59 7.165 2.527 11.28a2.262 2.262 0 1 0 .91 4.43l20.06-4.114a2.262 2.262 0 1 0-.909-4.43Z"/>
  <path fill="#F9CB6A" d="M54.516 25.749c.97-.945 4.525-4.325 6.857-4.735.282-.049.844-.14 1.155.19.533.566-.393 1.603-.14 2.904.346 1.787 2.466 1.752 2.943 3.576.363 1.381-.706 1.717-.432 3.54.278 1.847 1.575 2.726 1.173 3.57-.222.465-.809.6-1.354.684-1.097.17-3.308.341-6.806-.457"/>
  <mask id="a" width="13" height="16" x="54" y="20" maskUnits="userSpaceOnUse" style="mask-type:luminance">
    <path fill="#fff" d="M54.516 25.749c.97-.945 4.525-4.325 6.857-4.735.282-.049.844-.14 1.155.19.533.566-.393 1.603-.14 2.904.346 1.787 2.466 1.752 2.943 3.576.363 1.381-.706 1.717-.432 3.54.278 1.847 1.575 2.726 1.173 3.57-.222.465-.809.6-1.354.684-1.097.17-3.308.341-6.806-.457"/>
  </mask>
  <g mask="url(#a)">
    <path fill="#8376D6" d="m65.272 29.666-9.966.634c-2.216.142-2 3.586.22 3.444l9.966-.634c2.217-.142 2-3.586-.22-3.444Zm-.599-5.119-9.966.634c-2.217.142-2 3.586.22 3.444l9.966-.634c2.217-.142 2-3.586-.22-3.444Z"/>
  </g>
  <path stroke="#333" stroke-linecap="round" stroke-linejoin="round" stroke-width="1.441" d="M54.516 25.749c.97-.945 4.525-4.325 6.857-4.735.282-.049.844-.14 1.155.19.533.566-.393 1.603-.14 2.904.346 1.787 2.466 1.752 2.943 3.576.363 1.381-.706 1.717-.432 3.54.278 1.847 1.575 2.726 1.173 3.57-.222.465-.809.6-1.354.684-1.097.17-3.308.341-6.806-.457"/>
  <path fill="#F9CB6A" d="M34.05 31.92c-1.332-.25-6.161-1.1-8.33-.154-.262.115-.78.35-.86.797-.13.765 1.215 1.117 1.724 2.342.698 1.68-1.085 2.825-.476 4.607.463 1.35 1.538 1.042 2.318 2.711.79 1.692.196 3.142.997 3.623.442.266 1.006.052 1.506-.179 1.009-.465 2.946-1.546 5.418-4.144"/>
  <mask id="b" width="13" height="15" x="24" y="31" maskUnits="userSpaceOnUse" style="mask-type:luminance">
    <path fill="#fff" d="M34.05 31.92c-1.332-.25-6.161-1.1-8.33-.154-.262.115-.78.35-.86.797-.13.765 1.215 1.117 1.724 2.342.698 1.68-1.085 2.825-.476 4.607.463 1.35 1.538 1.042 2.318 2.711.79 1.692.196 3.142.997 3.623.442.266 1.006.052 1.506-.179 1.009-.465 2.946-1.546 5.418-4.144"/>
  </mask>
  <g mask="url(#b)">
    <path fill="#8376D6" d="m27.255 41.132 8.656-4.981c1.925-1.108 3.65 1.881 1.72 2.99l-8.655 4.982c-1.925 1.108-3.65-1.881-1.721-2.99Zm-2.33-4.596 8.656-4.982c1.924-1.107 3.65 1.881 1.72 2.991l-8.656 4.982c-1.924 1.107-3.65-1.882-1.72-2.991Z"/>
  </g>
  <path stroke="#333" stroke-linecap="round" stroke-linejoin="round" stroke-width="1.441" d="M34.05 31.92c-1.332-.25-6.161-1.1-8.33-.154-.262.115-.78.35-.86.797-.13.765 1.215 1.117 1.724 2.342.698 1.68-1.085 2.825-.476 4.607.463 1.35 1.538 1.042 2.318 2.711.79 1.692.196 3.142.997 3.623.442.266 1.006.052 1.506-.179 1.009-.465 2.946-1.546 5.418-4.144"/>
  <path fill="#F9CB6A" d="m47.722 25.107-8.366 2.523a7.443 7.443 0 1 0 4.297 14.251l8.366-2.523a7.443 7.443 0 1 0-4.297-14.251Z"/>
  <mask id="c" width="24" height="19" x="34" y="24" maskUnits="userSpaceOnUse" style="mask-type:luminance">
    <path fill="#fff" d="m47.722 25.107-8.366 2.523a7.443 7.443 0 1 0 4.297 14.251l8.366-2.523a7.443 7.443 0 1 0-4.297-14.251Z"/>
  </mask>
  <g mask="url(#c)">
    <path fill="#8376D6" d="M52.604 22.116c.393-.817.527-1.717.261-2.602l-.463-1.534a3.52 3.52 0 0 0-1.655-2.023 2.566 2.566 0 0 0-1.3-.363 2.558 2.558 0 0 0-1.302.103c-.834.29-1.63.834-2.024 1.655-.23.48-.368.986-.393 1.503-.31.235-.58.54-.782.914L32.677 42.633c-.714 1.332-.228 3.238 1.182 3.915 1.414.68 3.147.247 3.915-1.181l11.53-21.49c.43.073.856.04 1.278-.104.834-.29 1.63-.834 2.024-1.655l-.002-.002Zm7.855 3.89c.393-.817.527-1.716.261-2.602l-.463-1.533a3.519 3.519 0 0 0-1.655-2.024 2.566 2.566 0 0 0-1.299-.362 2.557 2.557 0 0 0-1.303.103c-.834.29-1.63.834-2.023 1.655-.231.48-.369.986-.394 1.503-.31.234-.58.539-.782.914L40.532 46.524c-.714 1.331-.228 3.238 1.182 3.915 1.414.68 3.147.247 3.915-1.182l11.53-21.489c.43.072.856.04 1.278-.105.834-.29 1.63-.833 2.024-1.655l-.002-.002Z"/>
  </g>
  <path stroke="#333" stroke-linecap="round" stroke-linejoin="round" stroke-width="1.441" d="m47.722 25.107-8.366 2.523a7.443 7.443 0 1 0 4.297 14.251l8.366-2.523a7.443 7.443 0 1 0-4.297-14.251Z"/>
  <path fill="#F8BCBD" d="M41.724 20.922a9.515 9.515 0 1 0 0-19.03 9.515 9.515 0 0 0 0 19.03Z"/>
  <mask id="d" width="20" height="20" x="32" y="1" maskUnits="userSpaceOnUse" style="mask-type:luminance">
    <path fill="#fff" d="M41.724 20.922a9.515 9.515 0 1 0 0-19.03 9.515 9.515 0 0 0 0 19.03Z"/>
  </mask>
  <g mask="url(#d)">
    <path fill="#F8BCBD" d="M41.724 28.85c9.633 0 17.442-7.81 17.442-17.443 0-9.633-7.809-17.442-17.442-17.442s-17.441 7.81-17.441 17.442c0 9.633 7.808 17.442 17.441 17.442Z"/>
    <path fill="#F18653" d="M38.295 29.389c-.642-.215-1.07-.215-1.713-.429-1.07-6.206 1.07-12.843 5.138-17.553-2.14 1.499-3.64 3.426-5.138 5.567-.428.642-.642 1.284-1.07 1.926-1.499 2.783-1.927 5.78-2.141 8.776-1.07-.214-1.927-1.07-2.783-1.713 1.284-6.206 5.352-11.773 11.13-14.556-.214 2.57-.428 4.924 0 7.491.856 3.854 2.57 7.063 4.924 10.274-1.07.428-2.14.428-3.211.643-2.355-3.854-3.212-8.562-2.997-13.058.214-1.926.856-3.64 1.284-5.352-3.211 5.352-3.854 12.201-1.713 18.193-.642 0-1.07 0-1.712-.214l.002.005Zm11.558-1.5c-2.997-2.568-5.352-5.78-6.848-9.417l-.643-1.927a21.112 21.112 0 0 1-.642-5.138c0 .643.214 1.285.642 1.927.215.428.215.642.215 1.07 1.926 5.139 5.566 9.204 10.273 11.773-1.07.642-1.926 1.07-2.997 1.713Zm-21.832-4.28c-.857-.857-1.499-1.714-1.927-2.784 1.713-2.569 3.853-4.496 6.42-6.42.643-.429 1.285-.643 1.927-1.07 2.355-1.071 4.71-1.928 7.277-1.928-2.997.857-5.78 2.141-8.133 4.282-.428.428-.857 1.07-1.499 1.499-1.07 1.07-1.712 2.14-2.569 3.425-.214.642-.642 1.285-1.07 1.927-.214.428-.214.642-.428 1.07l.002-.002Zm27.399.213c-1.07-.428-2.355-.642-3.426-1.284-.642-.428-1.284-.643-1.927-1.07-1.712-1.071-2.997-2.356-4.281-3.64-.857-1.07-1.713-2.141-2.57-3.426-.642-1.07-.642-2.14-1.498-2.997 5.138 3.64 11.987 4.924 18.193 3.426-.214 1.07-.642 2.14-.856 3.21-6.42.43-12.843-1.712-17.125-6.634 1.499 2.998 4.068 4.924 6.849 6.849.642.428 1.284.642 1.927 1.07 2.14.857 4.281 1.499 6.634 1.713-.428 1.07-1.284 1.713-1.927 2.783h.007Zm-30.823-5.994c-.642-1.07-.642-2.141-1.07-3.211 5.138-3.64 11.987-5.353 18.193-3.212-.214-.214-.642-.428-.856-.642-1.499-.428-2.783-.856-4.282-1.285-1.498-.214-2.783-.428-4.282-.428-2.997.214-6.206.857-8.99 2.141-.213-1.284.429-2.355.429-3.425 6.206-1.499 13.057-.428 17.981 3.64-6.206-.857-12.843 1.926-17.125 6.42l.002.002Zm17.34-6.42c6.206-.643 11.986-4.282 15.626-9.418.642.856 1.284 1.926 1.498 2.997-4.496 4.496-10.702 7.063-17.125 6.42 5.995 1.713 12.843.643 17.981-3.211.429 1.07.215 2.355.215 3.425-5.78 2.784-12.63 2.57-18.194-.214h-.002Zm-.215 0c-4.068-5.139-10.916-7.278-17.125-6.85.428-1.07 1.07-2.14 1.713-3.21 1.927.213 3.64.856 5.566 1.498 1.285.642 2.57 1.284 3.854 2.14 2.355 1.928 4.71 3.64 5.994 6.421h-.002Zm0 0c-1.07-4.068-4.068-7.278-7.49-9.847-1.928-1.284-3.854-1.926-5.995-2.783.642-.856 1.713-1.498 2.569-2.355C34.23-1.864 37.012.92 39.153 4.128c.428.643.642 1.285 1.07 1.927.857 1.713 1.285 3.426 1.5 5.352Zm.214 0c1.285-1.071 2.998-1.713 4.282-2.784.428-.428.856-1.07 1.499-1.498.856-1.07 1.926-1.927 2.569-3.212.214-.642.642-1.284 1.07-1.927.856-1.712 1.499-3.21 1.713-5.138 1.07.643 1.712 1.499 2.569 2.355-1.07 1.927-1.927 3.854-3.426 5.567-.428.428-1.07.856-1.498 1.498-1.927 1.927-4.282 3.426-6.849 4.496-.642.214-1.284.214-1.927.642h-.002Zm0 0C46.004 6.482 48.143.062 47.074-6.36c1.07.214 2.141.857 3.212 1.285-.215 6.42-3.426 12.415-8.348 16.482h-.002Zm-.214 0c.214-3.426-.642-6.635-2.14-9.633-.429-.642-.857-1.284-1.071-1.926-.428-1.07-1.499-1.713-2.141-2.783-.856-.857-1.713-1.499-2.569-2.355 1.07-.643 2.14-.857 3.211-1.07 1.285 1.498 2.355 2.996 2.998 4.71 2.14 4.067 2.783 8.775 1.712 13.056C44.505 5.627 43.435-1.436 40.438-7h3.425c1.285 4.282 1.499 8.99.214 13.485l-.642 1.927c-.428 1.07-1.07 2.141-1.713 2.997v-.002Z"/>
  </g>
  <path stroke="#333" stroke-linecap="round" stroke-linejoin="round" stroke-width="1.441" d="M41.724 20.922a9.515 9.515 0 1 0 0-19.03 9.515 9.515 0 0 0 0 19.03Z"/>
</svg>
