<svg xmlns="http://www.w3.org/2000/svg" width="70" height="20" fill="none" viewBox="0 0 70 20">
  <path fill="#DFDDDD" stroke="#333" stroke-linecap="round" stroke-linejoin="round" stroke-width="1.426" d="M57.987 13.61c-2.22 2.867-12.088 5.027-23.926 5.027-12.427 0-22.684-2.382-24.202-5.46C13.207 10.95 20.87 6.52 31.555 6.01c13.549-.646 23.272 5.428 26.432 7.6Z"/>
  <path fill="#FDF6ED" stroke="#333" stroke-linecap="round" stroke-linejoin="round" stroke-width="1.426" d="M34.83 15.93c18.685 0 33.832-3.407 33.832-7.609C68.662 4.12 53.515.713 34.83.713 16.147.713 1 4.12 1 8.321c0 4.202 15.147 7.608 33.83 7.608Z"/>
  <path stroke="#C2BEBE" stroke-linecap="round" stroke-linejoin="round" stroke-width="1.426" d="M34.83 12.896c14.653 0 26.531-2.048 26.531-4.575 0-2.526-11.878-4.574-26.53-4.574-14.653 0-26.53 2.048-26.53 4.574 0 2.527 11.877 4.575 26.53 4.575Z"/>
</svg>
