<svg xmlns="http://www.w3.org/2000/svg" width="47" height="59" fill="none" viewBox="0 0 47 59">
  <path fill="#323333" d="M24.693 37.636a96.242 96.242 0 0 0 4.576 7.274c6.744 9.722 11.776 13.125 14.067 12.873.54-.06 2.404-.24 2.811-1.343.03-.08.062-.174.083-.288.67-3.486-13.039-17.456-13.039-17.456a459.422 459.422 0 0 1-4.31-4.465"/>
  <path stroke="#333" stroke-linecap="round" stroke-linejoin="round" stroke-width="1.483" d="M24.693 37.636a96.242 96.242 0 0 0 4.576 7.274c6.744 9.722 11.776 13.125 14.067 12.873.54-.06 2.404-.24 2.811-1.343.03-.08.062-.174.083-.288.67-3.486-13.039-17.456-13.039-17.456a459.422 459.422 0 0 1-4.31-4.465"/>
  <path fill="#DFDDDD" stroke="#333" stroke-linecap="round" stroke-linejoin="round" stroke-width="1.483" d="m4.652 1.612 26.783 30.191a1.801 1.801 0 0 1-.153 2.545L18.977 45.264a1.804 1.804 0 0 1-2.68-.323 84.081 84.081 0 0 1-6.384-10.898C4.271 22.492 2.188 11.483 1.508 2.955 1.371 1.228 3.504.315 4.652 1.612Z"/>
</svg>
