<svg xmlns="http://www.w3.org/2000/svg" width="57" height="67" fill="none" viewBox="0 0 57 67">
  <path fill="#FDF6ED" d="M13.71 30.936a192.288 192.288 0 0 1-1.413-12.6c-.578-7.3-.381-10.142 1.157-12.984.672-1.243 2.127-3.932 4.756-4.308 2.072-.295 4.214.94 5.4 2.507 2.18 2.88.433 5.975.772 11.506.15 2.43.742 5.999 2.912 10.302a7.924 7.924 0 0 1-4.903 7.376 7.923 7.923 0 0 1-8.677-1.801l-.004.002Z"/>
  <mask id="a" width="17" height="33" x="11" y="1" maskUnits="userSpaceOnUse" style="mask-type:luminance">
    <path fill="#fff" d="M13.71 30.936a192.288 192.288 0 0 1-1.413-12.6c-.578-7.3-.381-10.142 1.157-12.984.672-1.243 2.127-3.932 4.756-4.308 2.072-.295 4.214.94 5.4 2.507 2.18 2.88.433 5.975.772 11.506.15 2.43.742 5.999 2.912 10.302a7.924 7.924 0 0 1-4.903 7.376 7.923 7.923 0 0 1-8.677-1.801l-.004.002Z"/>
  </mask>
  <g mask="url(#a)">
    <path fill="#F3D2B9" d="M24.166 39.873a68.075 68.075 0 0 1-2.254-4.012 67.097 67.097 0 0 1-5.17-15.015 67.045 67.045 0 0 1-1.065-15.93c.08-.976.18-1.951.302-2.923.201-1.608.033-3.157-.902-4.533-.803-1.183-2.292-2.262-3.73-2.492-2.975-.472-6.614 1.328-7.025 4.63-1.555 12.464-.006 25.306 4.87 36.915a75.897 75.897 0 0 0 5.12 10.031c1.619 2.663 5.769 3.442 8.261 1.59 2.689-1.997 3.323-5.412 1.59-8.26h.003Z"/>
  </g>
  <path stroke="#333" stroke-miterlimit="10" stroke-width="1.531" d="M13.71 30.936a192.288 192.288 0 0 1-1.413-12.6c-.578-7.3-.381-10.142 1.157-12.984.672-1.243 2.127-3.932 4.756-4.308 2.072-.295 4.214.94 5.4 2.507 2.18 2.88.433 5.975.772 11.506.15 2.43.742 5.999 2.912 10.302a7.924 7.924 0 0 1-4.903 7.376 7.923 7.923 0 0 1-8.677-1.801l-.004.002Z"/>
  <path fill="#F3D2B9" d="M29.524 25.922c4.8-.589 8.76 2.638 10.414 3.986 2.525 2.056 4.706 4.818 5.977 6.428 1.818 2.301 3.032 4.222 5.27 4.564.364.054 2.11.321 2.83-.578 1.616-2.028-2.805-8.926-7.844-13.306-3.034-2.639-6.382-5.549-11.25-5.4-4.408.136-7.552 2.704-8.742 3.792m-5.558 5.672s-1.006-.146-2.074.434c-3.017 1.643-1.945 16.584-1.945 16.584.17 2.345.565 7.014-.258 12.792-.287 2.021-.724 4.198-2.122 4.693-1.009.356-2.258-.256-3.857-1.608-6.42-5.424-8.229-14.068-8.421-15.042-.851-4.33-1.748-8.887.899-12.278 1.258-1.612 2.803-2.297 5.078-3.277 2.444-1.053 6.74-2.477 12.696-2.297"/>
  <path fill="#F9CB6A" d="M16.473 44.724a29.845 29.845 0 0 0 6.557 7.714c1.243 1.035 7.22 5.844 16.295 6.75 6.185.617 10.058-.95 11.184-1.446 1.78-.784 4.77-2.096 5.304-4.726.324-1.593-.243-3.722-1.543-4.339-.873-.415-1.829-.032-2.218.097-4.063 1.358-10.416-3.245-12.727-4.919-4.157-3.012-9.375-6.878-9.064-12.149.145-2.452 1.442-4.388 2.525-5.631a8.273 8.273 0 0 0-3.49-.298c-.779.103-3.177.416-4.529 2.182-1.47 1.918-.645 4.167-1.643 4.52-.99.348-1.977-1.812-3.325-1.687-.94.085-2.028 1.28-3.046 5.338l-.28 8.596v-.002Z"/>
  <mask id="b" width="40" height="35" x="16" y="25" maskUnits="userSpaceOnUse" style="mask-type:luminance">
    <path fill="#fff" d="M16.473 44.724a29.845 29.845 0 0 0 6.557 7.714c1.243 1.035 7.22 5.844 16.295 6.75 6.185.617 10.058-.95 11.184-1.446 1.78-.784 4.77-2.096 5.304-4.726.324-1.593-.243-3.722-1.543-4.339-.873-.415-1.829-.032-2.218.097-4.063 1.358-10.416-3.245-12.727-4.919-4.157-3.012-9.375-6.878-9.064-12.149.145-2.452 1.442-4.388 2.525-5.631a8.273 8.273 0 0 0-3.49-.298c-.779.103-3.177.416-4.529 2.182-1.47 1.918-.645 4.167-1.643 4.52-.99.348-1.977-1.812-3.325-1.687-.94.085-2.028 1.28-3.046 5.338l-.28 8.596v-.002Z"/>
  </mask>
  <g mask="url(#b)">
    <path fill="#F5A759" d="M62.562 55c-.466-1.44-1.358-2.829-2.732-3.555-1.501-.792-2.917-.866-4.584-.6l-.127.02c-2.73.304-5.472.304-8.202.007a37.808 37.808 0 0 1-7.878-2.149 36.506 36.506 0 0 1-6.584-3.848 37.807 37.807 0 0 1-5.53-5.537 37.308 37.308 0 0 1-3.982-6.813l-.123-.304c-.577-1.488-1.308-2.722-2.732-3.556-1.276-.746-3.155-1.06-4.584-.6-1.44.467-2.829 1.36-3.555 2.733-.705 1.333-1.168 3.116-.6 4.584 2.617 6.74 6.671 12.906 12.263 17.56 5.848 4.865 12.858 8.329 20.428 9.451 2.36.35 4.72.62 7.106.61 2.437-.008 4.86-.302 7.264-.687 1.38-.22 2.879-1.58 3.555-2.732.746-1.276 1.061-3.155.6-4.584h-.003Z"/>
  </g>
  <path stroke="#333" stroke-linecap="round" stroke-linejoin="round" stroke-width="1.531" d="M16.473 44.724a29.845 29.845 0 0 0 6.557 7.714c1.243 1.035 7.22 5.844 16.295 6.75 6.185.617 10.058-.95 11.184-1.447 1.78-.783 4.77-2.095 5.304-4.725.324-1.593-.243-3.722-1.543-4.339-.873-.415-1.829-.032-2.218.097-4.063 1.358-10.416-3.245-12.727-4.919-4.157-3.012-9.375-6.878-9.064-12.149.145-2.452 1.442-4.389 2.525-5.631"/>
  <path stroke="#333" stroke-linecap="round" stroke-linejoin="round" stroke-width="1.531" d="M24.288 35.323c-.098-.204-1.91-4.078.158-6.957 1.453-2.024 3.925-2.302 5.078-2.442 4.8-.589 8.76 2.638 10.414 3.986 2.525 2.057 4.706 4.818 5.977 6.428 1.818 2.301 3.032 4.222 5.27 4.564.364.054 2.11.321 2.83-.578 1.616-2.028-2.805-8.926-7.844-13.306-3.295-2.864-6.594-5.756-11.25-5.4-5.135.394-8.381 4.459-9.154 5.48"/>
  <path stroke="#333" stroke-linecap="round" stroke-linejoin="round" stroke-width="1.531" d="M24.332 35.515a6.184 6.184 0 0 0-.947-2.205 6.326 6.326 0 0 0-2.766-2.23s-1.006-.146-2.074.434C15.528 33.157 16.6 48.098 16.6 48.098c.171 2.345.565 7.014-.258 12.792-.286 2.021-.724 4.198-2.122 4.693-1.009.356-2.258-.256-3.857-1.608-6.42-5.424-8.229-14.068-8.421-15.042-.851-4.33-1.748-8.887.9-12.278 1.257-1.612 2.802-2.297 5.077-3.277 2.444-1.053 6.74-2.477 12.696-2.297m-6.905-.145a192.278 192.278 0 0 1-1.413-12.6c-.578-7.3-.38-10.142 1.157-12.984.672-1.243 2.127-3.932 4.757-4.308 2.072-.295 4.213.94 5.4 2.507 2.178 2.88.432 5.975.772 11.506.148 2.43.741 5.999 2.912 10.302"/>
</svg>
