<svg xmlns="http://www.w3.org/2000/svg" width="61" height="55" fill="none" viewBox="0 0 61 55">
  <path fill="#66A9EB" d="M26.226 53.702 1.649 39.263A1.32 1.32 0 0 1 1 38.127v-15.5a1.318 1.318 0 0 1 1.984-1.137l22.592 13.275c.402.237.65.668.65 1.136v17.801Z"/>
  <path fill="#66A9EB" d="M26.226 53.702c1.963-1.288 3.928-2.573 5.89-3.861a44.808 44.808 0 0 1 12.174-9.172 44.593 44.593 0 0 1 10.575-3.828 1.31 1.31 0 0 0 .359-.139l3.823-2.163c.412-.233.669-.671.669-1.148V17.858a1.316 1.316 0 0 0-1.963-1.148l-3.121 1.756a1.25 1.25 0 0 1-.316.126A47.68 47.68 0 0 0 31.85 31.667c-.077.082-.165.15-.26.21-1.58.961-3.156 1.922-4.734 2.884a1.313 1.313 0 0 0-.632 1.123V53.7l.002.002Z"/>
  <path fill="#66A9EB" d="m1.055 22.244.035-.744a2.13 2.13 0 0 1 1.08-1.753l4.059-2.284c.1-.055.205-.098.316-.128A47.685 47.685 0 0 0 29.01 4.26c.077-.081.164-.15.26-.21l4.691-2.857a1.317 1.317 0 0 1 1.354-.009l23.902 14.125c.31.182.497.515.497.874v1.459L27.197 38.51 1.055 22.244Z"/>
  <path fill="#4562AC" d="M14.464 42.603c1.956-.862 2.26-4.472.677-8.064-1.582-3.591-4.45-5.805-6.406-4.943-1.956.861-2.26 4.472-.678 8.063 1.582 3.592 4.45 5.806 6.407 4.944Z"/>
  <path fill="#DFDDDD" d="m46.819 8.715-31.12 18.074 8.24 5.148L55.74 13.862"/>
  <path fill="#C2BEBE" d="M36.814 22.148c2.168 0 3.926-1.157 3.926-2.585 0-1.427-1.758-2.584-3.926-2.584s-3.926 1.157-3.926 2.584c0 1.428 1.758 2.585 3.926 2.585Z"/>
  <path fill="#4562AC" d="m13.613 24.988 18.26-10.54-.643-4.161 7.722-4.37L45 9.472 15.7 26.789l-2.087-1.8Z"/>
  <path stroke="#333" stroke-linecap="round" stroke-linejoin="round" stroke-width="1.282" d="M26.226 53.702 1.649 39.263A1.32 1.32 0 0 1 1 38.127v-15.5a1.318 1.318 0 0 1 1.984-1.137l22.592 13.275c.402.237.65.668.65 1.136v17.801Z"/>
  <path stroke="#333" stroke-linecap="round" stroke-linejoin="round" stroke-width="1.282" d="M26.226 53.702c1.963-1.288 3.928-2.573 5.89-3.861a44.808 44.808 0 0 1 12.174-9.172 44.593 44.593 0 0 1 10.575-3.828 1.31 1.31 0 0 0 .359-.139l3.823-2.163c.412-.233.669-.671.669-1.148V17.858a1.316 1.316 0 0 0-1.963-1.148l-3.121 1.756a1.25 1.25 0 0 1-.316.126A47.68 47.68 0 0 0 31.85 31.667c-.077.082-.165.15-.26.21-1.58.961-3.156 1.922-4.734 2.884a1.313 1.313 0 0 0-.632 1.123V53.7l.002.002Z"/>
  <path stroke="#333" stroke-linecap="round" stroke-linejoin="round" stroke-width="1.282" d="m1.055 22.244.035-.744a2.13 2.13 0 0 1 1.08-1.753l4.059-2.284c.1-.055.205-.098.316-.128A47.685 47.685 0 0 0 29.01 4.26c.077-.081.164-.15.26-.21l4.691-2.857a1.317 1.317 0 0 1 1.354-.009l23.902 14.125c.31.182.497.515.497.874v1.459m-45.25 24.961c1.956-.862 2.26-4.472.677-8.064-1.582-3.591-4.45-5.805-6.406-4.943-1.956.861-2.26 4.472-.678 8.063 1.582 3.592 4.45 5.806 6.407 4.944Z"/>
  <path stroke="#333" stroke-linecap="round" stroke-linejoin="round" stroke-width="1.282" d="m46.819 8.715-31.12 18.074 8.24 5.148L55.74 13.862"/>
  <path stroke="#333" stroke-linecap="round" stroke-linejoin="round" stroke-width="1.282" d="m44.76 9.443-5.742-3.527-7.83 4.413.901 4.033-18.762 10.791 2.373 1.636"/>
  <path stroke="#333" stroke-linecap="round" stroke-linejoin="round" stroke-width="1.282" d="m32.096 11.752 6.982-4.024 4.415 2.88m-8.33 7.972 3.417 1.618m-.117-1.638-3.3 1.638m1.651 1.95c2.168 0 3.926-1.157 3.926-2.585 0-1.427-1.758-2.584-3.926-2.584s-3.926 1.157-3.926 2.584c0 1.428 1.758 2.585 3.926 2.585Z"/>
</svg>
