<svg xmlns="http://www.w3.org/2000/svg" width="28" height="66" fill="none" viewBox="0 0 28 66">
  <path fill="#ABA8A8" stroke="#333" stroke-linecap="round" stroke-linejoin="round" stroke-width="1.054" d="M6.97.527h16.989a3.058 3.058 0 0 1 3.056 3.056v49.543c0 6.376-5.177 11.553-11.553 11.553-6.376 0-11.553-5.177-11.553-11.553V3.583A3.058 3.058 0 0 1 6.966.527h.003Z"/>
  <path fill="#DFDDDD" stroke="#333" stroke-linecap="round" stroke-linejoin="round" stroke-width="1.054" d="M4.415.527h16.99a3.058 3.058 0 0 1 3.056 3.056v49.543c0 6.376-5.177 11.553-11.553 11.553-6.376 0-11.553-5.177-11.553-11.553V3.583A3.064 3.064 0 0 1 4.415.527Z"/>
  <path fill="#F06061" stroke="#333" stroke-linecap="round" stroke-linejoin="round" stroke-width=".703" d="M5.611 12.567a1.71 1.71 0 1 0 0-3.422 1.71 1.71 0 0 0 0 3.422Z"/>
  <path fill="#ABA8A8" stroke="#333" stroke-linecap="round" stroke-linejoin="round" stroke-width=".703" d="M12.139 12.567a1.71 1.71 0 1 0 0-3.422 1.71 1.71 0 0 0 0 3.422Zm6.527 0a1.71 1.71 0 1 0 0-3.422 1.71 1.71 0 0 0 0 3.422ZM5.611 18.774a1.71 1.71 0 1 0 0-3.422 1.71 1.71 0 0 0 0 3.422Zm6.528 0a1.71 1.71 0 1 0 0-3.422 1.71 1.71 0 0 0 0 3.422Zm6.527 0a1.71 1.71 0 1 0 0-3.422 1.71 1.71 0 0 0 0 3.422ZM5.611 24.982a1.71 1.71 0 1 0 0-3.422 1.71 1.71 0 0 0 0 3.422Zm6.528 0a1.71 1.71 0 1 0 0-3.422 1.71 1.71 0 0 0 0 3.422Zm6.527 0a1.71 1.71 0 1 0 0-3.422 1.71 1.71 0 0 0 0 3.422Z"/>
  <path fill="#F06061" stroke="#333" stroke-linecap="round" stroke-linejoin="round" stroke-width=".703" d="M4.749 55.629a1.39 1.39 0 1 0 0-2.779 1.39 1.39 0 0 0 0 2.779Z"/>
  <path fill="#F9CB6A" stroke="#333" stroke-linecap="round" stroke-linejoin="round" stroke-width=".703" d="M9.676 55.629a1.39 1.39 0 1 0 0-2.779 1.39 1.39 0 0 0 0 2.779Z"/>
  <path fill="#A8D471" stroke="#333" stroke-linecap="round" stroke-linejoin="round" stroke-width=".703" d="M14.601 55.629a1.39 1.39 0 1 0 0-2.779 1.39 1.39 0 0 0 0 2.779Z"/>
  <path fill="#66A9EB" stroke="#333" stroke-linecap="round" stroke-linejoin="round" stroke-width=".703" d="M19.527 55.629a1.39 1.39 0 1 0 0-2.779 1.39 1.39 0 0 0 0 2.779Z"/>
  <path fill="#F06061" stroke="#333" stroke-miterlimit="10" stroke-width=".703" d="M5.842 35.005c-.79 0-1.432-.641-1.432-1.431a5.813 5.813 0 0 1 5.805-5.806 1.432 1.432 0 0 1 0 2.863 2.944 2.944 0 0 0-2.94 2.94c0 .791-.641 1.432-1.432 1.432l-.001.002Zm13.103 0c-.79 0-1.431-.641-1.431-1.432 0-1.621-1.32-2.94-2.94-2.94a1.432 1.432 0 0 1 0-2.863c3.2 0 5.805 2.605 5.805 5.805 0 .79-.642 1.432-1.432 1.432l-.002-.002Zm-8.732 9.001A5.813 5.813 0 0 1 4.408 38.2a1.432 1.432 0 0 1 2.863 0c0 1.621 1.32 2.94 2.94 2.94a1.432 1.432 0 0 1 0 2.864l.002.002Zm4.358 0a1.432 1.432 0 0 1 0-2.864 2.943 2.943 0 0 0 2.94-2.94 1.432 1.432 0 0 1 2.864 0c0 3.2-2.605 5.805-5.806 5.805l.002-.001Zm-2.178-4.288a3.831 3.831 0 1 0 0-7.662 3.831 3.831 0 0 0 0 7.662Zm7.243-36.017h-4.012a.508.508 0 0 0-.508.508v1.765c0 .28.228.508.508.508h4.012c.28 0 .508-.227.508-.508V4.21a.508.508 0 0 0-.508-.508Z"/>
  <path fill="#ABA8A8" stroke="#333" stroke-linecap="round" stroke-linejoin="round" stroke-width=".703" d="M6.569 47.143H3.972a.613.613 0 0 0-.613.613v1.342c0 .339.275.613.613.613H6.57a.613.613 0 0 0 .613-.613v-1.342a.613.613 0 0 0-.613-.613Zm13.736 0h-2.596a.613.613 0 0 0-.613.613v1.342c0 .339.274.613.613.613h2.596a.613.613 0 0 0 .613-.613v-1.342a.613.613 0 0 0-.613-.613Zm-6.868 0H10.84a.613.613 0 0 0-.614.613v1.342c0 .339.275.613.614.613h2.596a.613.613 0 0 0 .613-.613v-1.342a.613.613 0 0 0-.613-.613Z"/>
</svg>
