<svg xmlns="http://www.w3.org/2000/svg" width="65" height="53" fill="none" viewBox="0 0 65 53">
  <path fill="#F5A759" stroke="#333" stroke-miterlimit="10" stroke-width="1.54" d="M47.552 13.01C47.552 6.26 37.085.788 24.173.788 11.262.788.794 6.26.794 13.01c0 3.003 2.075 5.751 5.51 7.879V37.92c0 3.811 3.117 6.901 6.96 6.901h21.821c3.843 0 6.959-3.09 6.959-6.9V20.888c3.436-2.128 5.51-4.876 5.51-7.879h-.002Z"/>
  <path fill="#F3D2B9" d="M43.035 13.722c0-5.448-8.445-9.862-18.862-9.862-10.417 0-18.862 4.414-18.862 9.862 0 2.422 1.672 4.639 4.446 6.356V33.82c0 3.075 2.512 5.569 5.615 5.569h17.605c3.1 0 5.615-2.492 5.615-5.569V20.078c2.77-1.717 4.446-3.934 4.446-6.356h-.003Z"/>
  <path fill="#F5A759" stroke="#333" stroke-miterlimit="10" stroke-width="1.54" d="M24.634 48.397c-2.488-4.873 5.335-18.257 18.224-19.565C54.69 27.63 65.13 37.181 64.14 42.466c-1.625 8.688-35.582 13.618-39.506 5.93Z"/>
  <path fill="#333" d="M36.649 33.37c-.5.036-.942 1.308-.867 2.404.127 1.875 1.781 3.552 2.358 3.318.567-.232.19-2.355-.19-3.557-.144-.45-.7-2.208-1.301-2.165Zm5.724-1.69c-.5.035-.942 1.307-.867 2.403.127 1.875 1.781 3.552 2.358 3.318.567-.232.19-2.354-.191-3.556-.143-.45-.699-2.208-1.3-2.166Zm5.946-.237c-.5.036-.942 1.308-.867 2.404.127 1.875 1.782 3.552 2.358 3.318.567-.232.19-2.355-.19-3.557-.144-.45-.7-2.208-1.301-2.165Z" opacity=".3"/>
</svg>
