<svg xmlns="http://www.w3.org/2000/svg" width="60" height="60" fill="none" viewBox="0 0 60 60">
  <path fill="#FDF6ED" stroke="#333" stroke-miterlimit="10" stroke-width="1.509" d="M30.235 56.895c-10.05 0-16.825-2.761-21.083-7.312-6.549-6.997-6.016-16.178-5.971-16.868a21.695 21.695 0 0 1 1.442-6.422c2.738.57 8.211 2.115 13.234 6.698 8.13 7.418 8.987 17.248 9.127 19.544h5.258c.125-2.24.949-12.777 9.651-20.322 4.792-4.154 9.912-5.618 12.7-6.187a22.129 22.129 0 0 1 1.426 5.34c.119.881 4.926 25.53-25.784 25.53Z"/>
  <path fill="#333" d="M18.383 45.612c1.186 0 2.147-1.209 2.147-2.7 0-1.492-.961-2.702-2.147-2.702s-2.147 1.21-2.147 2.701c0 1.492.961 2.701 2.147 2.701Zm22.443 0c1.186 0 2.147-1.209 2.147-2.7 0-1.492-.961-2.702-2.147-2.702s-2.147 1.21-2.147 2.701c0 1.492.961 2.701 2.147 2.701Z"/>
  <path fill="#F18653" stroke="#333" stroke-linecap="round" stroke-linejoin="round" stroke-width="1.509" d="M55.09 27.414c-.021-.069-.045-.14-.067-.209-.81-2.455-2.078-4.75-3.666-6.827l1.166-18.175a.981.981 0 0 0-1.468-.914L36.107 9.854c-2.414-.748-4.837-1.151-7.14-1.151-2.302 0-4.53.435-6.837 1.23L8.07.903a.927.927 0 0 0-1.427.81l.632 19.609c-1.255 1.837-2.277 3.81-2.986 5.883-.052.155-.103.31-.153.468 5.887 1.601 23.081 7.827 22.846 26.377h.052c-.024.009-.045.015-.067.026-1.063.418-1.744 1.483-1.36 2.559.114.32.455 1.03 2.1 1.62 1.424.514 3.134.427 4.121-.088 2.626-1.37 2-2.914 1.11-3.682a3.576 3.576 0 0 0-.698-.448c-.242-19.76 18.373-25.53 22.846-26.623h.004Z"/>
  <path stroke="#333" stroke-linecap="round" stroke-linejoin="round" stroke-width="1.509" d="m44.135 47.785 14.038-3.511M44.758 51.08l14.418 1.22m-43.8-4.236L1.092 45.757m13.943 5.641L.773 53.838"/>
  <path fill="#FDF6ED" d="m11.674 16.881-.247-7.706a.536.536 0 0 1 .825-.468l5.887 3.781-6.467 4.393h.002Zm29.036-4.389 5.971-3.42a.588.588 0 0 1 .88.547l-.442 6.892-6.41-4.019Z"/>
</svg>
