<svg xmlns="http://www.w3.org/2000/svg" width="72" height="40" fill="none" viewBox="0 0 72 40">
  <path fill="#513B8C" d="M49.39 13.332a38.44 38.44 0 0 1 21.523 6.87L68.701 39.45H38.249l11.14-26.118Z"/>
  <path fill="#F3D2BA" d="M24.93 7.456c.977.497 5.068 2.498 6.264 6.596.729 2.496.357 5.594-1.641 9.473-1.997 3.879-4.302 5.98-6.757 6.838-4.036 1.409-8.003-.74-9.009-1.267-5.141-3.587-6.783-10.5-3.855-15.932 2.848-5.283 9.255-7.75 14.994-5.706l.004-.002Z"/>
  <path fill="#8376D6" d="M23.705 39.465c.443-3.651 1.527-10.921 4.074-17.616.722-1.9 1.71-4.135 3.704-6.339.82-.906 2.45-2.67 5.143-3.814 2.126-.904 3.922-.972 6.022-1.062 2.74-.12 4.93-.213 5.882.474 1.8 1.298 1.566 7.136-8.691 28.357H23.705Z"/>
  <path fill="#F3D2BA" d="M24.695 7.334a2.694 2.694 0 1 1 4.516 2.895l-4.518-2.897.002.002ZM17.02 29.128a2.694 2.694 0 1 1-5.058-1.79l5.06 1.788-.002.002Z"/>
  <path fill="#7D5045" d="M16.184 1.44C9.989 1.116 4.418 5.924 3.23 11.067a10.08 10.08 0 0 0-.197 3.277l-.39 1.24a8.807 8.807 0 0 0-1.146 3.287c-.537 4.05 2.078 7.093 2.596 7.695 3.322 3.865 8.239 3.882 9.005 3.872l.432-1.646c.265-1.208.56-3.302.071-5.826a14.43 14.43 0 0 0-2.027-5.05l-1.089-.223c1.63.214 3.939.18 6.015-1.135 1.497-.948 3.512-2.963 3.13-4.371.946-.53 1.719-1.208 2.395-1.801a15.614 15.614 0 0 0 2.67-3.05l.608-1.074c-.688-.824-3.947-4.548-9.12-4.82l.003-.002Z"/>
  <path stroke="#333" stroke-linecap="round" stroke-linejoin="round" d="M3.783 39.465h67.13"/>
  <path fill="#66A9EB" d="M6.843 39.465c0-4.08 1.757-8.631 7.386-8.631h2.09c5.726 0 7.386 4.553 7.386 8.631"/>
  <path fill="#4562AC" d="M8.437 39.45c0-2.47 1.424-5.228 5.989-5.228h1.694c4.643 0 5.99 2.758 5.99 5.228" opacity=".2"/>
  <path fill="#333" d="m50.307 13.332 2.023.177s-2.89 16.686-11.569 25.956h-.926s8.747-17.922 9.55-26.132h.92l.002-.001Z" opacity=".3"/>
  <path stroke="#333" stroke-linecap="round" stroke-linejoin="round" d="M23.705 39.465c.443-3.651 1.527-10.921 4.074-17.616.722-1.9 1.71-4.135 3.704-6.339.82-.906 2.45-2.67 5.143-3.814 2.126-.904 3.922-.972 6.022-1.062 2.74-.12 4.93-.213 5.882.474 1.8 1.298 1.566 7.136-8.691 28.357M25.553 28.79c-.89.727-1.813 1.242-2.756 1.572-4.035 1.408-8.002-.741-9.007-1.268M24.93 7.456c.977.497 5.068 2.498 6.264 6.596.112.386.199.785.257 1.2M8.748 17.337c1.18.33 4.713 1.143 7.751-.779 1.553-.982 3.663-3.114 3.079-4.526-.403-.973-1.973-1.317-3.049-1.222-1.425.128-2.835 1.112-2.713 1.66.131.587 2.05.787 3.558.529 2.083-.357 3.505-1.607 4.65-2.613a15.615 15.615 0 0 0 2.67-3.05"/>
  <path stroke="#333" stroke-linecap="round" stroke-linejoin="round" d="M11.573 17.916a14.428 14.428 0 0 1 2.027 5.05c.49 2.523.192 4.618-.071 5.826M24.695 7.334a2.694 2.694 0 1 1 4.516 2.895M3.032 14.343a10.08 10.08 0 0 1 .197-3.278c1.188-5.141 6.759-9.95 12.955-9.625 5.174.27 8.433 3.996 9.12 4.82M13.097 30.436c-.766.01-5.683-.006-9.005-3.872-.518-.603-3.133-3.644-2.596-7.695a8.807 8.807 0 0 1 1.145-3.286m17.538-1.021c.268-.078.836-.28 1.34-.807.62-.646.767-1.382.806-1.652m-5.566 7.845c.076.27.2.858.018 1.565a3.041 3.041 0 0 1-.982 1.554m33.595-9.735a38.44 38.44 0 0 1 21.523 6.87M3.783 39.465h67.13m-64.07 0c0-4.08 1.757-8.631 7.386-8.631h2.09c5.726 0 7.386 4.553 7.386 8.631"/>
  <path fill="#333" d="M22.583 15.128c-.29.204-.288.647.017.827l.007.004 1.23.718c.625.366 1.446.189 1.823-.428a1.321 1.321 0 0 0-.458-1.818l-.772-.45a.497.497 0 0 0-.603.08 9.345 9.345 0 0 1-1.244 1.067Zm-3.948 6.76c.035-.353.421-.569.728-.39l.007.003 1.23.719c.626.365.875 1.167.522 1.797a1.323 1.323 0 0 1-1.81.493l-.77-.45a.498.498 0 0 1-.229-.564 9.307 9.307 0 0 0 .32-1.608h.002Z"/>
  <path stroke="#333" stroke-miterlimit="10" stroke-width=".5" d="m27.661 15.666-.868 3.346"/>
  <path fill="#fff" stroke="#333" stroke-miterlimit="10" stroke-width=".5" d="M26.686 19.423a.424.424 0 0 1-.304-.518l.868-3.346a.424.424 0 1 1 .823.214l-.869 3.346a.424.424 0 0 1-.518.304Z"/>
  <path fill="#fff" d="M30.481 4.808h-.001a1.113 1.113 0 0 0-1.357.797l-2.776 10.694a1.113 1.113 0 0 0 .798 1.357h.002a1.113 1.113 0 0 0 1.356-.797L31.28 6.164a1.113 1.113 0 0 0-.798-1.356Z"/>
  <path fill="#C2BEBE" d="M29.068 5.815c.082-.73.797-1.142 1.348-1.024.58.122 1.097.856.808 1.583l-2.156-.559Z"/>
  <path stroke="#333" stroke-miterlimit="10" stroke-width=".75" d="M30.481 4.808h-.001a1.113 1.113 0 0 0-1.357.797l-2.776 10.694a1.113 1.113 0 0 0 .798 1.357h.002a1.113 1.113 0 0 0 1.356-.797L31.28 6.164a1.113 1.113 0 0 0-.798-1.356Z"/>
  <path stroke="#F06061" stroke-linecap="round" stroke-linejoin="round" stroke-width=".75" d="m29.79 7.467-2.212 8.524"/>
  <path stroke="#333" stroke-linecap="round" stroke-linejoin="round" d="M27.466 19.07c-.258.093-2.025.76-2.698 2.635-.44 1.228-.173 2.309-.052 2.707"/>
</svg>
