<svg xmlns="http://www.w3.org/2000/svg" width="60" height="82" fill="none" viewBox="0 0 60 82">
  <path fill="#A8D471" d="M34.418 76.458a4.508 4.508 0 0 1 4.506 4.506v.614h-9.01v-.614a4.508 4.508 0 0 1 4.506-4.506h-.002Zm11.294 0a4.508 4.508 0 0 1 4.506 4.506v.614h-9.01v-.614a4.508 4.508 0 0 1 4.506-4.506h-.002Z"/>
  <path fill="#66A9EB" d="M53.706 53.27a83.018 83.018 0 0 1-1.566 14.053c-.768 3.865-1.405 5.484-2.43 8.516 0 0-.864 3.082-1.08 3.871-.761.215-1.83.43-3.117.43-1.291 0-2.363-.217-3.125-.43.308-1.644.386-3.033.4-4.052.018-1.123-.067-2.263-.255-3.829-.175-1.458-.369-2.722-.565-3.598-.906-4.031-1.46-4.31-1.714-4.312-.367-.004-.876.564-1.773 4.135a48.005 48.005 0 0 0-.692 3.404c-.574 3.34-.724 4.873-.45 8.252a8.439 8.439 0 0 1-5.39 0l-1.078-3.87c-1.026-3.034-1.663-4.652-2.432-8.517-1.047-5.265-1.507-13.01-1.566-14.053"/>
  <path fill="#F3D2BA" d="M52.326 18.513c.006 1.104.101 5.692-3.018 8.654-1.9 1.804-4.846 2.897-9.242 2.897-4.396 0-7.343-1.095-9.242-2.897-3.123-2.966-3.026-7.512-3.018-8.654 1.387-5.455 6.11-9.38 11.542-9.685 5.925-.333 11.44 3.71 12.98 9.685h-.002Zm-40.009 9.882c-1.093.203-1.163.308-1.78.34 0 0-.921.046-1.804-.203-1.608-.452-2.562-1.741-3.436-2.923-.894-1.21-1.608-2.165-1.872-3.672-.143-.817-.51-2.923.836-4.232.156-.152 1.045-1.017 2.15-.893 1.776.199 2.753 2.894 3.348 2.639.283-.123.101-.748.601-1.068.416-.268.952-.1 1.014-.08.327.107.523.32.713.54.616.707.922 1.063 1.192 1.549.79 1.412 1.39 2.486 1.18 3.733-.156.937-.614 1.045-.563 1.9.06 1.017.742 1.437.508 1.88-.169.319-.576.213-2.087.492v-.002Z"/>
  <path fill="#A8D471" d="M20.64 44.836a35.182 35.182 0 0 1 1.95-8.983c1.111-3.075 1.799-4.936 3.698-6.21 2.457-1.647 5.3-1.324 6.465-1.122h14.85c1.37.123 4.223.594 6.622 2.784 1.974 1.8 2.723 3.928 3.34 5.673.668 1.896.822 3.276 1.107 5.844 1.165 10.462 1.379 12.254.157 13.094-.889.612-2.415.635-3.253.002-1.108-.836-.903-2.741-1.758-2.9-.375-.07-.713.243-.882.387-1.948 1.65-6.017 1.8-12.277 2.021l-.606.02c-.74.02-3.607-.347-9.345-1.06-1.851-.23-3.512-.462-4.457-1.767-.64-.884-.938-2.245-.727-3.474.245-1.418 1.07-2.091.809-2.408-.486-.59-3.301 1.782-4.776.904-.83-.494-.937-1.836-.916-2.805Z"/>
  <path fill="#F3D2BA" d="M28.331 23.627c-.145.034-.325.06-.527.05-1.098-.037-2.716-1.004-2.716-2.715a2.73 2.73 0 0 1 2.716-2.717c.146.17 1.96 2.324 1.17 4.373-.113.29-.303.646-.643 1.007v.002Zm23.995-5.38a2.716 2.716 0 1 1-.51 5.384 2.526 2.526 0 0 1-.792-.922c-.612-1.243-.084-3.012 1.302-4.462Zm3.856 43.603-.116 1.59a1.391 1.391 0 0 0 1.287 1.49c.239-.008.65-.059 1.013-.336.435-.33.574-.816.657-1.145.468-1.904.348-3.588.348-3.588a18.32 18.32 0 0 0-.625-3.595l-2.982.237-.488 3.862a1.006 1.006 0 1 0 2 .133l.014-1.85"/>
  <path fill="#7D5045" d="M44.815 27.021c-1.404.373-2.467.39-4.502.422-2.482.038-3.723.057-5.143-.342-2.833-.793-4.61-2.581-5.55-3.529-.702-.707-2.232-2.412-3.338-5.056-.705-1.689-2.332-5.619-.686-9.852.353-.906 1.91-4.519 5.697-5.876a8.866 8.866 0 0 1 3.471-.49l1.292-.221A10.189 10.189 0 0 1 39.083.741C44.35-.595 51.195 2.385 53.68 7.906c1.982 4.4.454 8.773-.112 10.392-.508 1.454-1.39 4.071-3.904 6.21-.452.383-2.195 1.806-4.85 2.513Z"/>
  <path stroke="#333" stroke-linecap="round" stroke-linejoin="round" stroke-width=".844" d="M26.88 53.27a83.028 83.028 0 0 0 1.566 14.053c.768 3.865 1.405 5.484 2.431 8.516 0 0 .863 3.082 1.078 3.871a8.434 8.434 0 0 0 5.39 0 25.47 25.47 0 0 1-.109-3.822c.061-1.334.249-2.615.56-4.43.23-1.342.47-2.52.691-3.404.898-3.571 1.406-4.14 1.773-4.135.254.002.809.28 1.714 4.312.186.825.367 1.992.534 3.343.334 2.704.287 5.44-.114 8.134a11.512 11.512 0 0 0 6.243 0l1.078-3.87c1.026-3.034 1.663-4.652 2.432-8.517a82.995 82.995 0 0 0 1.566-14.054M32.55 28.44a8.78 8.78 0 0 1-1.726-1.271c-1.676-1.592-2.425-3.639-2.758-5.37m24.11-.472c-.262 1.857-.968 4.037-2.87 5.842a8.685 8.685 0 0 1-1.663 1.234M5.234 17.313l2.83 3.42m-4.107-2.222 2.957 3.576m-3.537-1.659 3.187 3.856m4.193 4.417a3.261 3.261 0 0 1-2.754-.47c-.106-.075-.22-.157-.35-.254 0 0-1.003-.756-1.82-1.667-.996-1.112-2.427-2.72-2.54-5.021-.026-.507-.127-2.562 1.28-3.814.144-.127.6-.534 1.125-.656 1.579-.367 3.844 1.804 5.536 5.325"/>
  <path stroke="#333" stroke-linecap="round" stroke-linejoin="round" stroke-width=".844" d="M10.253 20.345c-.03-.046-.614-.985-.177-1.703.027-.044.276-.44.69-.515 1.302-.23 2.813 2.978 2.902 3.172.574 1.243.952 2.05.793 3.092-.13.861-.568 1.49-.293 2.347.148.464.437.787.65.984"/>
  <path fill="#A8D471" d="M25.92 47.814c-.746.485-1.909 1.06-3.221.882-1.224-.167-2.214-.935-4.641-4.272-2.99-4.109-2.324-4.09-4.527-6.96-1.775-2.313-3.02-3.386-3.227-5.52-.057-.584-.156-1.776.555-2.817 1.023-1.498 3.334-2.1 4.995-1.513 2.022.715 2.282 2.906 4.424 6.775a35.394 35.394 0 0 0 4.135 5.939"/>
  <path stroke="#333" stroke-linecap="round" stroke-linejoin="round" stroke-width=".844" d="M54.16 52.402c-.053.454-.11 1.46.45 2.48.333.608.742.954.854 1.038 1.01.766 2.571.674 3.413-.143.65-.63.583-1.648.557-2.062-.87-13.438-1.302-20.158-6.772-23.47-1.026-.62-2.706-1.424-5.171-1.723H32.64c-1.705-.192-4.964-.285-7.346 1.762-.469.4-1.003 1.097-2.816 5.567a129.48 129.48 0 0 0-1.887 4.939m7.74-17.163c-.145.034-.325.06-.527.05-1.098-.037-2.716-1.004-2.716-2.715 0-.92.468-1.742 1.18-2.233m27.225-.219a2.715 2.715 0 0 1-1.678 5.12"/>
  <path stroke="#333" stroke-linecap="round" stroke-linejoin="round" stroke-width=".844" d="M44.815 27.021c-1.404.373-2.467.39-4.502.422-2.482.038-3.723.057-5.143-.342-2.833-.793-4.61-2.581-5.55-3.529-.702-.707-2.232-2.412-3.338-5.056-.705-1.689-2.332-5.619-.686-9.852.353-.906 1.91-4.519 5.697-5.876a8.866 8.866 0 0 1 3.471-.49l1.292-.221A10.189 10.189 0 0 1 39.083.741C44.35-.595 51.195 2.385 53.68 7.906c1.982 4.4.454 8.773-.112 10.392-.508 1.454-1.39 4.071-3.904 6.21-.452.383-2.195 1.806-4.85 2.513Zm5.181 9.119a54.764 54.764 0 0 1 1.965 4.481 54.388 54.388 0 0 1 2.69 9.462 3.073 3.073 0 0 1-2.124 3.516 42.93 42.93 0 0 1-12.583 1.85 42.924 42.924 0 0 1-12.34-1.85 3.073 3.073 0 0 1-2.124-3.516 54.051 54.051 0 0 1 4.656-13.942M25.757 47.7c-.61.416-1.712 1.038-3.058.996-2.784-.089-3.54-3.003-9.434-11.682-2.126-3.13-3.692-5.204-2.904-7.089.407-.977 1.298-1.547 1.99-1.876.844-.405 2.193-.889 3.503-.433 2.062.718 2.524 3.238 4.424 6.775a30.24 30.24 0 0 0 1.583 2.623m33.903 19.489-.488 3.862c-.071.57.35 1.085.923 1.127m-.017.358-.116 1.59a1.39 1.39 0 0 0 1.287 1.49c.239-.008.65-.059 1.013-.336.435-.33.574-.816.657-1.145.468-1.904.348-3.588.348-3.588a18.321 18.321 0 0 0-.625-3.595M2.161 26.972c.017.199.133 1.387 1.176 2.206.918.722 1.933.669 2.17.65M.422 26.994c.028.34.226 2.37 2.011 3.773 1.57 1.235 3.306 1.144 3.709 1.112m6.017-16.586c-.093-.175-.67-1.22-1.955-1.56-1.129-.3-2.038.15-2.25.26m5.794.591c-.16-.3-1.146-2.088-3.341-2.668-1.931-.513-3.489.255-3.847.445m30.725 65.127a4.5 4.5 0 0 1 1.64 3.476v.614h-9.01v-.614c0-1.317.565-2.501 1.464-3.326m17.889.561a4.48 4.48 0 0 1 .948 2.765v.614h-9.01v-.614c0-1.201.468-2.29 1.234-3.099"/>
</svg>
