<svg xmlns="http://www.w3.org/2000/svg" width="63" height="59" fill="none" viewBox="0 0 63 59">
  <path fill="#C39C76" stroke="#333" stroke-miterlimit="10" stroke-width="1.454" d="M37.893 9c-.696-2.102 1.728-4.332 2.795-5.313 1.309-1.202 4.563-3.644 6.067-2.569 1.279.916.679 3.949-.162 5.739-.91 1.937-3.182 4.718-5.832 4.313-1.128-.172-2.461-.943-2.868-2.17ZM25.197 9c.696-2.102-1.728-4.332-2.796-5.313-1.308-1.202-4.562-3.644-6.066-2.569-1.28.916-.68 3.949.162 5.739.91 1.937 3.182 4.718 5.832 4.313 1.127-.172 2.46-.943 2.868-2.17Z"/>
  <path fill="#FDF6ED" d="M47.33 19.305c1.753 2.254 5.882 1.257 7.699.819 2.228-.538 7.182-2.274 7.107-4.657-.064-2.029-3.742-3.564-6.266-3.948-2.731-.415-7.34.023-8.808 3.153-.625 1.333-.756 3.315.266 4.631l.002.002Z"/>
  <mask id="a" width="17" height="10" x="46" y="11" maskUnits="userSpaceOnUse" style="mask-type:luminance">
    <path fill="#fff" d="M47.33 19.305c1.753 2.254 5.882 1.257 7.699.819 2.228-.538 7.182-2.274 7.107-4.657-.064-2.029-3.742-3.564-6.266-3.948-2.731-.415-7.34.023-8.808 3.153-.625 1.333-.756 3.315.266 4.631l.002.002Z"/>
  </mask>
  <g mask="url(#a)">
    <path fill="#F8BCBD" d="M59.166 15.64c-2.59-.524-5.103-.546-7.684.062-2.549.602-4.686 1.894-6.721 3.483-.993.775-1.55 2.55-1.55 3.742 0 1.299.578 2.85 1.55 3.743 1.01.926 2.332 1.614 3.742 1.55 1.336-.061 2.337-.522 3.367-1.268-.214.16-.326.247.123-.047.162-.106.324-.208.49-.304.193-.112.392-.21.588-.317a14.791 14.791 0 0 1 1.646-.455 12.305 12.305 0 0 1 1.541 0l.094.016c2.706.547 5.846-.776 6.51-3.696.601-2.636-.795-5.926-3.696-6.511v.002Z"/>
  </g>
  <path stroke="#333" stroke-miterlimit="10" stroke-width="1.454" d="M47.33 19.305c1.753 2.254 5.882 1.257 7.699.819 2.228-.538 7.182-2.274 7.107-4.657-.064-2.029-3.742-3.564-6.266-3.948-2.731-.415-7.34.023-8.808 3.153-.625 1.333-.756 3.315.266 4.631l.002.002Z"/>
  <path fill="#FDF6ED" d="M15.762 19.305c-1.753 2.254-5.882 1.257-7.7.819-2.228-.538-7.18-2.274-7.106-4.657.064-2.029 3.742-3.564 6.266-3.948 2.73-.415 7.34.023 8.808 3.153.625 1.333.756 3.315-.266 4.631l-.002.002Z"/>
  <mask id="b" width="17" height="10" x="0" y="11" maskUnits="userSpaceOnUse" style="mask-type:luminance">
    <path fill="#fff" d="M15.762 19.305c-1.753 2.254-5.882 1.257-7.7.819-2.228-.538-7.18-2.274-7.106-4.657.064-2.029 3.742-3.564 6.266-3.948 2.73-.415 7.34.023 8.808 3.153.625 1.333.756 3.315-.266 4.631l-.002.002Z"/>
  </mask>
  <g mask="url(#b)">
    <path fill="#F8BCBD" d="M3.924 15.64c2.59-.524 5.103-.546 7.684.062 2.549.602 4.686 1.894 6.721 3.483.993.775 1.55 2.55 1.55 3.742 0 1.299-.578 2.85-1.55 3.743-1.01.926-2.332 1.614-3.742 1.55-1.336-.061-2.337-.522-3.367-1.268.214.16.326.247-.123-.047a10.065 10.065 0 0 0-.49-.304c-.193-.112-.392-.21-.587-.317a14.786 14.786 0 0 0-1.647-.455 12.304 12.304 0 0 0-1.541 0l-.094.016c-2.706.547-5.846-.776-6.51-3.696-.601-2.636.795-5.926 3.696-6.511v.002Z"/>
  </g>
  <path stroke="#333" stroke-miterlimit="10" stroke-width="1.454" d="M15.762 19.305c-1.753 2.254-5.882 1.257-7.7.819-2.228-.538-7.18-2.274-7.106-4.657.064-2.029 3.742-3.564 6.266-3.948 2.73-.415 7.34.023 8.808 3.153.625 1.333.756 3.315-.266 4.631l-.002.002Z"/>
  <path fill="#FDF6ED" d="M22.64 32.25h17.81c4.616 0 8.716 1.818 11.295 4.63V24.722c0-10.324-6.294-18.692-20.386-18.692-14.24 0-20.386 8.368-20.386 18.692v12.586c2.546-3.053 6.822-5.058 11.67-5.058h-.003Z"/>
  <mask id="c" width="42" height="32" x="10" y="6" maskUnits="userSpaceOnUse" style="mask-type:luminance">
    <path fill="#fff" d="M22.64 32.25h17.81c4.616 0 8.716 1.818 11.295 4.63V24.722c0-10.324-6.294-18.692-20.386-18.692-14.24 0-20.386 8.368-20.386 18.692v12.586c2.546-3.053 6.822-5.058 11.67-5.058h-.003Z"/>
  </mask>
  <g mask="url(#c)">
    <path fill="#333" d="M57.405 10.68a6.741 6.741 0 0 0-3.122.034c-.06-.115-.122-.231-.184-.345-1.284-2.434-3.307-4.511-5.84-5.629-2.246-.99-4.493-1.391-6.83-2.062-.155-.043-.307-.097-.46-.151-.106-1.344-.927-2.856-1.797-3.728-1.063-1.064-2.808-1.863-4.334-1.795-1.585.07-3.228.592-4.332 1.795C29.344.06 28.88 1.428 28.71 3.13c-.21 2.095.57 4.492 1.797 6.174 1.661 2.277 3.682 3.689 6.28 4.71 1.48.582 3.03.852 4.569 1.232.32.08.631.179.943.28-.102-.053.311.038.61.194.034.01.067.018.1.029 0 .002.004.004.006.006-.027-.008-.056-.014-.08-.023l.012.006c.04.021.075.044.114.067.137.216.328.505.376.594.33.608.613 1.244.937 1.857 1.017 1.923 2.53 3.742 4.43 4.85 4.737 2.757 11.424.655 12.88-4.89.812-3.096-1.026-6.795-4.278-7.537h-.002Z"/>
    <path fill="#333" d="M42.3 15.528c.052.027.237.093.636.205l-.023-.012a34.403 34.403 0 0 1-.61-.193H42.3Zm-14.644-.895c-.613-1.55-2.048-2.133-3.53-2.586a18.85 18.85 0 0 1-7-3.934c-.88-.78-2.216-.868-3.084 0-.795.796-.885 2.3 0 3.084.027.025.056.048.085.073a1.637 1.637 0 0 0-.29.422l-3.417 7.163c-.779 1.632.515 3.777 2.463 3.202 1.43-.421 2.453-1.366 3.284-2.575.5-.731.914-2.06 1.825-2.355 1.032-.335 2.287.407 3.182.84 1.508.732 3.08 1.521 4.754.81 1.643-.697 2.384-2.487 1.728-4.142v-.002Z"/>
  </g>
  <path stroke="#333" stroke-miterlimit="10" stroke-width="1.454" d="M22.64 32.25h17.81c4.616 0 8.716 1.818 11.295 4.63V24.722c0-10.324-6.294-18.692-20.386-18.692-14.24 0-20.386 8.368-20.386 18.692v12.586c2.546-3.053 6.822-5.058 11.67-5.058h-.003Z"/>
  <path fill="#F8BCBD" stroke="#323333" stroke-miterlimit="10" stroke-width="1.454" d="M51.745 36.88c-2.579-2.81-6.679-4.63-11.295-4.63H22.64c-4.847 0-9.123 2.005-11.67 5.058-1.555 1.865-2.465 4.118-2.465 6.548 0 6.41 6.329 13.678 14.135 13.678h17.81c7.806 0 14.134-7.269 14.134-13.678 0-2.619-1.057-5.037-2.84-6.978l.002.002Z"/>
  <path fill="#333" d="M40.927 30.493c1.917 0 3.47-1.955 3.47-4.367s-1.553-4.368-3.47-4.368c-1.916 0-3.47 1.956-3.47 4.368 0 2.412 1.554 4.367 3.47 4.367Zm-18.762 0c1.916 0 3.47-1.955 3.47-4.367s-1.554-4.368-3.47-4.368c-1.917 0-3.47 1.956-3.47 4.368 0 2.412 1.553 4.367 3.47 4.367Z"/>
  <path fill="#F06061" stroke="#323333" stroke-miterlimit="10" stroke-width="1.454" d="M22.977 48.236a3.342 3.342 0 1 0 0-6.683 3.342 3.342 0 0 0 0 6.683Zm17.136 0a3.342 3.342 0 1 0 0-6.683 3.342 3.342 0 0 0 0 6.683Z"/>
</svg>
