<svg xmlns="http://www.w3.org/2000/svg" width="69" height="76" fill="none" viewBox="0 0 69 76">
  <path fill="#A8D471" d="M1.379 75.17C2.582 66.8 5.1 60.591 7.082 56.623c1.9-3.81 3.493-5.932 5.853-7.7 3.702-2.77 7.794-3.55 10.098-3.81h23.31c2.304.26 6.397 1.04 10.099 3.81 2.36 1.766 3.953 3.89 5.852 7.7 1.981 3.97 4.5 10.177 5.704 18.547"/>
  <path fill="#F3D2BA" d="M53.936 29.404c.01 1.733.159 8.938-4.737 13.585-2.983 2.832-7.608 4.551-14.508 4.551-6.9 0-11.524-1.719-14.507-4.55-4.904-4.656-4.75-11.791-4.738-13.586C17.624 20.84 25.04 14.678 33.565 14.2c9.3-.522 17.956 5.824 20.375 15.205h-.004Z"/>
  <path fill="#F3D2BA" d="M16.271 37.43c-.228.053-.51.093-.83.082-1.723-.06-4.262-1.578-4.262-4.263 0-2.337 1.924-4.262 4.262-4.262l.83 8.445v-.001Zm37.667-8.445a4.262 4.262 0 1 1-.802 8.45l.802-8.451v.001Z"/>
  <path fill="#7D5045" d="M56.065 12.75C52.035 3.803 41.24-.55 33.148 1.503a15.899 15.899 0 0 0-4.75 2.096l-2.027.35c-1.262-.07-3.244-.021-5.45.767-6.084 2.178-8.469 8.059-8.942 9.223-3.03 7.47.505 14.396 1.075 15.467l2.628-.584a22.845 22.845 0 0 0 8.245-4.117 22.849 22.849 0 0 0 5.634-6.506l-.475-1.694c.877 2.447 2.598 5.668 5.95 7.635 2.417 1.42 6.712 2.793 8.416 1.236 1.43.947 2.943 1.546 4.266 2.064a24.757 24.757 0 0 0 6.222 1.546l1.95.079c.661-1.564 3.54-8.843.176-16.313l-.002-.002Z"/>
  <path fill="#F3D2BA" d="M36.067 63.845c-1.063-3.718-3.663-5.126-4.853-5.137 1.783-3.078 5.358-8.338 1.202-8.274-2.8.39-4.743 8.432-7.547 11.568.734-1.813 1.337-5.81.755-6.46-.472-.91-1.536-1.753-2.217-1.504-.623.228-.532 1.226-.93 3.355-.303 1.722-.955 3.528-1.336 4.764-1.912 4.35.217 11.018 6.133 11.005 3.927.619 9.998-4.072 8.79-9.319l.003.002Z"/>
  <path stroke="#333" stroke-linecap="round" stroke-linejoin="round" stroke-width="1.321" d="M46.346 45.115c2.303.26 6.396 1.04 10.097 3.81 2.36 1.766 3.953 3.89 5.853 7.7 1.981 3.97 4.5 10.177 5.704 18.546M23.035 45.115c-2.304.26-6.396 1.04-10.098 3.81-2.36 1.766-3.953 3.89-5.853 7.7-1.981 3.97-4.5 10.177-5.704 18.546"/>
  <path stroke="#333" stroke-linecap="round" stroke-linejoin="round" stroke-width="1.321" d="M53.936 29.404c.01 1.733.159 8.938-4.737 13.585-2.983 2.832-7.608 4.551-14.508 4.551-6.9 0-11.524-1.719-14.507-4.55-4.904-4.656-4.75-11.791-4.738-13.586"/>
  <path stroke="#333" stroke-linecap="round" stroke-linejoin="round" stroke-width="4.309" d="M42.106 31.51v2.41m-14.832-2.41v2.41"/>
  <path stroke="#333" stroke-linecap="round" stroke-linejoin="round" stroke-width="1.321" d="M29.939 39.44c.317.296 2.535 2.298 5.658 1.887 2.045-.27 3.371-1.428 3.845-1.887M28.327 13.803c.393 1.9 1.806 7.456 6.708 10.335 2.505 1.472 7.032 2.895 8.594 1.053 1.077-1.271.424-3.728-.489-5.17-1.211-1.91-3.615-3.184-4.3-2.613-.73.61.38 3.453 1.834 5.385 2.01 2.672 4.8 3.766 7.043 4.647a24.753 24.753 0 0 0 6.223 1.546"/>
  <path stroke="#333" stroke-linecap="round" stroke-linejoin="round" stroke-width="1.321" d="M29.56 18.197a22.786 22.786 0 0 1-5.634 6.505 22.812 22.812 0 0 1-8.246 4.117m.59 8.611a3.174 3.174 0 0 1-.83.082c-1.722-.06-4.261-1.578-4.261-4.263 0-2.337 1.924-4.262 4.262-4.262m38.497-.002a4.262 4.262 0 1 1-.802 8.45M28.397 3.597a15.9 15.9 0 0 1 4.75-2.096c8.091-2.053 18.887 2.3 22.917 11.249 3.364 7.47.487 14.75-.175 16.313m-42.835.341c-.57-1.071-4.106-7.996-1.076-15.467.472-1.164 2.857-7.045 8.944-9.223 2.205-.788 4.186-.837 5.448-.768m5.459 54.774c.424.203 3.519 1.744 4.236 5.125.718 3.385-1.421 6.366-3.517 7.825-2.087 1.45-4.295 1.507-5.189 1.48m-2.513-10.77a136.587 136.587 0 0 0 4.33-8.086c.904-1.841 1.776-3.734 3.241-3.86.63-.055 1.374.219 1.74.762.402.595.408 1.602-1.498 5.064a48.978 48.978 0 0 1-3.538 5.51"/>
  <path stroke="#333" stroke-linecap="round" stroke-linejoin="round" stroke-width="1.321" d="M24.797 62.211c.508-1.41.764-2.619.904-3.494.36-2.253.049-2.936-.076-3.175-.471-.91-1.536-1.753-2.217-1.504-.622.228-.532 1.226-.93 3.355-.153.82-.313 1.464-.47 1.998-.4 1.364-.618 1.962-.864 2.766-.37 1.209-.783 2.56-.679 4.164.041.649.226 2.937 2.01 4.79.8.83 1.654 1.294 2.23 1.55M33.1 59.86a4.993 4.993 0 0 1-1.245 3.438m3.265-1.187a5.673 5.673 0 0 1-.616 1.896 5.664 5.664 0 0 1-.858 1.197"/>
  <path stroke="#333" stroke-linecap="round" stroke-linejoin="round" stroke-width=".943" d="M39.544 28.248a3.674 3.674 0 0 1 2.058-.889 3.697 3.697 0 0 1 2.451.668m-14.216.221a3.674 3.674 0 0 0-2.059-.889 3.697 3.697 0 0 0-2.45.668"/>
  <path stroke="#333" stroke-linecap="round" stroke-linejoin="round" stroke-width="1.321" d="M50.615 57.074a41.349 41.349 0 0 1 5.01 16.282"/>
</svg>
