<svg xmlns="http://www.w3.org/2000/svg" width="70" height="44" fill="none" viewBox="0 0 70 44">
  <path fill="#D3E2F1" stroke="#66A9EB" stroke-dasharray="2.49 2.49" stroke-linecap="round" stroke-miterlimit="10" stroke-width="1.246" d="M27.198 14.67H2.29c-.92 0-1.666.747-1.666 1.667v24.909c0 .92.746 1.666 1.666 1.666H27.2c.92 0 1.665-.746 1.665-1.666V16.337c0-.92-.746-1.666-1.666-1.666Z"/>
  <path fill="#F06061" stroke="#333" stroke-linecap="round" stroke-linejoin="round" stroke-width="1.246" d="M51.393 22.86H33.707c-.654 0-1.184.53-1.184 1.184V41.73c0 .654.53 1.184 1.184 1.184h17.686c.654 0 1.184-.53 1.184-1.184V24.044c0-.654-.53-1.184-1.184-1.184Z"/>
  <path fill="#D3E2F1" stroke="#66A9EB" stroke-dasharray="2.49 2.49" stroke-linecap="round" stroke-linejoin="round" stroke-width="1.246" d="M67.68 30.749H56.95a.718.718 0 0 0-.717.718v10.728c0 .396.32.717.717.717h10.73a.718.718 0 0 0 .718-.717V31.466a.717.717 0 0 0-.718-.717Z"/>
  <path fill="#A8D471" stroke="#333" stroke-miterlimit="10" stroke-width=".928" d="M47.914 11.37a1.508 1.508 0 0 0-2.133 0l-1.583 1.583V2.623a1.623 1.623 0 1 0-3.247 0v10.074l-1.376-1.376a1.507 1.507 0 1 0-2.133 2.132l4.193 4.195c.293.294.68.441 1.066.441s.773-.147 1.066-.441l4.145-4.146c.59-.59.59-1.544 0-2.133l.002.001Z"/>
</svg>
