<svg xmlns="http://www.w3.org/2000/svg" width="74" height="64" fill="none" viewBox="0 0 74 64">
  <path fill="#A8D471" stroke="#333" stroke-miterlimit="10" stroke-width=".851" d="M70.801 47.89c0 .726-.588 1.314-1.314 1.314h-1.952l5.179 5.178a1.416 1.416 0 1 1-2.003 2.003l-5.021-5.021v1.696a1.315 1.315 0 0 1-2.629 0v-5.17c0-.364.147-.693.386-.931.239-.24.567-.386.93-.386h5.112c.726 0 1.314.588 1.314 1.314l-.002.002Z"/>
  <path fill="#F06061" stroke="#333" stroke-miterlimit="10" stroke-width="1.021" d="M10.193 15.553a3.615 3.615 0 1 0 0-7.23 3.615 3.615 0 0 0 0 7.23Zm5.054 7.681a3.615 3.615 0 1 0 0-7.23 3.615 3.615 0 0 0 0 7.23Z"/>
  <path fill="#F06061" stroke="#333" stroke-miterlimit="10" stroke-width="1.021" d="M16.202 17.83a3.615 3.615 0 1 0 0-7.23 3.615 3.615 0 0 0 0 7.23Z"/>
  <path fill="#F06061" stroke="#333" stroke-miterlimit="10" stroke-width="1.021" d="M19.178 13.939a3.615 3.615 0 1 0 0-7.23 3.615 3.615 0 0 0 0 7.23Z"/>
  <path fill="#F06061" stroke="#333" stroke-miterlimit="10" stroke-width="1.021" d="M23.2 11.38a3.615 3.615 0 1 0 0-7.23 3.615 3.615 0 0 0 0 7.23Zm.852 9.246a3.615 3.615 0 1 0 0-7.23 3.615 3.615 0 0 0 0 7.23Z"/>
  <path fill="#F06061" stroke="#333" stroke-miterlimit="10" stroke-width="1.021" d="M29.135 20.703a3.615 3.615 0 1 0 0-7.23 3.615 3.615 0 0 0 0 7.23ZM13.545 8.23a3.615 3.615 0 1 0 0-7.23 3.615 3.615 0 0 0 0 7.23Zm13.971 3.464a3.615 3.615 0 1 0 0-7.23 3.615 3.615 0 0 0 0 7.23Z"/>
  <path fill="#F06061" stroke="#333" stroke-miterlimit="10" stroke-width="1.021" d="M18.976 10.928a3.615 3.615 0 1 0 0-7.23 3.615 3.615 0 0 0 0 7.23Z"/>
  <path fill="#F06061" stroke="#333" stroke-miterlimit="10" stroke-width="1.021" d="M24.028 15.994a3.615 3.615 0 1 0 0-7.23 3.615 3.615 0 0 0 0 7.23ZM13.563 32.052a3.615 3.615 0 1 0 0-7.23 3.615 3.615 0 0 0 0 7.23Zm17.291-5.086a3.615 3.615 0 1 0 0-7.23 3.615 3.615 0 0 0 0 7.23Z"/>
  <path fill="#F06061" stroke="#333" stroke-miterlimit="10" stroke-width="1.021" d="M35.067 23.31a3.615 3.615 0 1 0 0-7.23 3.615 3.615 0 0 0 0 7.23Zm-7.907 4.213a3.615 3.615 0 1 0-.001-7.23 3.615 3.615 0 0 0 0 7.23Z"/>
  <path fill="#F06061" stroke="#333" stroke-miterlimit="10" stroke-width="1.021" d="M33.47 32.148a3.615 3.615 0 1 0 0-7.23 3.615 3.615 0 0 0 0 7.23ZM12.346 20.083a3.615 3.615 0 1 0 0-7.23 3.615 3.615 0 0 0 0 7.23Z"/>
  <path fill="#F06061" stroke="#333" stroke-miterlimit="10" stroke-width="1.021" d="M27.43 34.928a3.615 3.615 0 1 0 0-7.23 3.615 3.615 0 0 0 0 7.23Zm-6.125-9.144a3.615 3.615 0 1 0 0-7.23 3.615 3.615 0 0 0 0 7.23ZM18.97 38.429a3.615 3.615 0 1 0 0-7.23 3.615 3.615 0 0 0 0 7.23Zm-9.602-.815a3.615 3.615 0 1 0 0-7.23 3.615 3.615 0 0 0 0 7.23Z"/>
  <path fill="#F06061" stroke="#333" stroke-miterlimit="10" stroke-width="1.021" d="M18.458 33.642a3.615 3.615 0 1 0 0-7.23 3.615 3.615 0 0 0 0 7.23Zm.824-13.925a3.615 3.615 0 1 0 0-7.23 3.615 3.615 0 0 0 0 7.23Zm14.158-1.739a3.615 3.615 0 1 0 0-7.23 3.615 3.615 0 0 0 0 7.23ZM4.476 30.838a3.615 3.615 0 1 0 0-7.23 3.615 3.615 0 0 0 0 7.23Z"/>
  <path fill="#F06061" stroke="#333" stroke-miterlimit="10" stroke-width="1.021" d="M21.81 28.59a3.615 3.615 0 1 0 0-7.23 3.615 3.615 0 0 0 0 7.23Zm-7.226-14.572a3.615 3.615 0 1 0 0-7.23 3.615 3.615 0 0 0 0 7.23Z"/>
  <path fill="#F06061" stroke="#333" stroke-miterlimit="10" stroke-width="1.021" d="M23.02 34.026a3.615 3.615 0 1 0 0-7.23 3.615 3.615 0 0 0 0 7.23Zm2.627-9.022a3.615 3.615 0 1 0 0-7.23 3.615 3.615 0 0 0 0 7.23Zm3.684-9.961a3.615 3.615 0 1 0 0-7.23 3.615 3.615 0 0 0 0 7.23ZM15.52 28.027a3.615 3.615 0 1 0 0-7.23 3.615 3.615 0 0 0 0 7.23ZM6.554 22.81a3.615 3.615 0 1 0 0-7.23 3.615 3.615 0 0 0 0 7.23Z"/>
  <path fill="#F06061" stroke="#333" stroke-miterlimit="10" stroke-width="1.021" d="M10.742 26.037a3.615 3.615 0 1 0 0-7.23 3.615 3.615 0 0 0 0 7.23ZM49.696 37.26a3.607 3.607 0 1 0 0-7.214 3.607 3.607 0 0 0 0 7.213Zm13.857 2.647a3.607 3.607 0 1 0 0-7.214 3.607 3.607 0 0 0 0 7.214Zm-8.332 5.927a3.607 3.607 0 1 0 0-7.213 3.607 3.607 0 0 0 0 7.213Zm-.867 10.351a3.607 3.607 0 1 0 0-7.214 3.607 3.607 0 0 0 0 7.214ZM43.062 48.87a3.607 3.607 0 1 0 0-7.214 3.607 3.607 0 0 0 0 7.213Z"/>
  <path stroke="#333" stroke-linecap="round" stroke-linejoin="round" stroke-width="1.021" d="M9.901 62.872 66.02 6.754"/>
</svg>
