<svg xmlns="http://www.w3.org/2000/svg" width="62" height="62" fill="none" viewBox="0 0 62 62">
  <path fill="#66A9EB" stroke="#333" stroke-miterlimit="10" stroke-width="1.398" d="M31 61c16.569 0 30-13.431 30-30C61 14.431 47.569 1 31 1 14.431 1 1 14.431 1 31c0 16.569 13.431 30 30 30Z"/>
  <path stroke="#333" stroke-linecap="round" stroke-linejoin="round" stroke-width="1.398" d="M40.79 49.875c-1.233-.855-4.808-3.09-9.89-3.06-4.96.03-8.447 2.2-9.69 3.06"/>
  <path fill="#333" d="M41.19 30.36c-1.238-.534-2.663.352-2.641 1.7v.03l.12 5.408c.06 2.746 2.26 5.052 5.006 5.042a4.985 4.985 0 0 0 4.968-5.096l-.074-3.387a1.881 1.881 0 0 0-1.456-1.793c-2.044-.48-4.035-1.09-5.922-1.903Z"/>
  <path stroke="#333" stroke-linecap="round" stroke-linejoin="round" stroke-width="1.398" d="M38.752 21.874a17.63 17.63 0 0 0 9.687 5.302"/>
  <path fill="#333" d="M20.812 30.36c1.238-.534 2.664.352 2.642 1.7v.03l-.12 5.408c-.06 2.746-2.26 5.052-5.006 5.042a4.985 4.985 0 0 1-4.969-5.096l.074-3.387a1.881 1.881 0 0 1 1.456-1.793c2.045-.48 4.036-1.09 5.923-1.903Z"/>
  <path stroke="#333" stroke-linecap="round" stroke-linejoin="round" stroke-width="1.398" d="M23.25 21.874a17.629 17.629 0 0 1-9.687 5.302"/>
</svg>
