<svg xmlns="http://www.w3.org/2000/svg" width="68" height="55" fill="none" viewBox="0 0 68 55">
  <path fill="#83BA4F" d="M37.64 51.916c16.215 0 29.36-11.282 29.36-25.2C67 12.8 53.855 1.518 37.64 1.518c-16.214 0-29.359 11.283-29.359 25.2s13.145 25.199 29.36 25.199Z"/>
  <mask id="a" width="60" height="51" x="8" y="1" maskUnits="userSpaceOnUse" style="mask-type:luminance">
    <path fill="#fff" d="M37.64 51.916c16.215 0 29.36-11.282 29.36-25.2C67 12.8 53.855 1.518 37.64 1.518c-16.214 0-29.359 11.283-29.359 25.2s13.145 25.199 29.36 25.199Z"/>
  </mask>
  <g mask="url(#a)">
    <path fill="#468A40" d="M16.682 43.869c12.76 5.097 26.907 6.045 40.19 2.565 2.402-.629 3.426 3.15 1.025 3.778-10.83 2.836-22.289 2.939-33.172.327a65.85 65.85 0 0 1-9.066-2.892c-.968-.386-1.64-1.314-1.345-2.41.255-.94 1.396-1.758 2.37-1.368h-.002Z"/>
    <path fill="#468A40" d="M69.004 38.574c-1.222 3.7-5.012 5.323-8.363 6.517a32.833 32.833 0 0 1-11.721 1.873c-4.084-.097-8.032-1.075-11.923-2.269-3.64-1.117-7.314-2.442-11.116-2.843-3.87-.41-7.818-.023-11.101 2.261-.86.597-2.136.164-2.635-.703-.558-.97-.17-2.083.69-2.681 6.215-4.325 14.201-3.114 20.988-1.105 3.77 1.116 7.493 2.452 11.38 3.097 3.558.59 7.295.427 10.81-.365 2.006-.452 3.997-1.084 5.862-1.965 1.277-.603 2.933-1.401 3.415-2.86.785-2.377 4.507-1.359 3.714 1.04v.003Z"/>
    <path fill="#468A40" d="M70.474 31.631c1.032.099 2.058.299 3.066.618 2.358.746 1.352 4.53-1.025 3.778-6.658-2.108-13.187 2.106-19.367 4.035-3.47 1.085-7.197 1.622-10.774.77-3.306-.79-6.176-2.736-9.245-4.124a14.858 14.858 0 0 0-2.712-.942 33.43 33.43 0 0 1-3.982.718c-.553.061-1.115.1-1.676.117a5.484 5.484 0 0 0-.447.398c-1.094 1.099-2.554.453-3.089-.618-1.97-.324-3.868-1.007-5.528-2.173-.855-.601-1.245-1.719-.691-2.681.495-.86 1.776-1.308 2.635-.704 1.857 1.306 3.886 1.829 5.98 1.896 2.048-1.092 4.462-1.33 6.785-.952 1.887-.481 3.74-1.052 5.485-1.481 3.577-.88 7.158-1.153 10.827-.864 3.588.284 7.144.925 10.742 1.097 3.56.17 7.239-.086 10.456-1.778 1.938-1.019 3.682 1.487 2.558 2.888l.002.002Zm-29.658 4.553c5.659 2.457 11.114.278 16.482-1.812-2.942-.148-5.907-.562-8.827-.868-3.8-.399-7.49-.412-11.226.482-.188.044-.375.091-.563.138 1.371.707 2.727 1.45 4.134 2.06Z"/>
    <path fill="#468A40" d="M35.736 2.053c3.199.8 6.245 2.062 9.198 3.532 2.957 1.474 5.832 3.157 8.889 4.414 3.415 1.405 6.995 2.286 10.689 1.817 1.034-.13 1.925.995 1.925 1.96 0 .044-.004.087-.006.13a98.616 98.616 0 0 0 3.858-.345c1.036-.114 1.925.981 1.925 1.959 0 1.155-.887 1.845-1.925 1.96a96.058 96.058 0 0 1-13.223.54c3.76 1.218 7.915 2.125 11.496.189 2.164-1.17 4.09 2.123 2.011 3.341 1.206.413 2.042 2.05.87 3.252-3.179 3.262-7.882 4.323-12.267 3.974-5.139-.41-9.993-2.371-15.103-2.944-5.006-.563-10.088-.244-14.973 1.015-4.863 1.254-9.547 3.405-14.626 3.627-4.735.207-9.551-1.43-12.397-5.435-.61-.858-.145-2.183.69-2.68.973-.58 2.024-.158 2.636.702 2.014 2.833 5.835 3.633 9.073 3.495 4.574-.196 8.895-2.233 13.272-3.4a44.61 44.61 0 0 1 14.45-1.41c2.457.168 4.902.538 7.306 1.084 2.371.54 4.712 1.215 7.1 1.668 3.85.732 8.398.752 11.534-1.918-3.664 1.112-7.642.582-11.311-.533-4.637-1.411-9.028-3.488-13.974-3.273-4.971.216-9.737 1.981-14.647 2.664-4.722.657-9.473.526-14.161-.336-5.208-.957-10.252-2.906-14.796-5.666-2.126-1.291-.192-4.681 1.944-3.383a40.696 40.696 0 0 0 25.252 5.685c3.821-.393 7.526-1.485 11.294-2.216-.73-.168-1.458-.34-2.185-.523-3.745-.94-7.467-2.003-11.277-2.647-4.043-.685-8.233-.804-12.217.272-2.398.648-3.42-3.13-1.025-3.778 7.73-2.088 15.611-.186 23.159 1.765 6.259 1.62 12.54 2.814 18.952 3.297-2.548-1.008-5.02-2.28-7.408-3.526-2.863-1.493-5.728-2.948-8.81-3.922a36.32 36.32 0 0 0-9.16-1.66 36.584 36.584 0 0 0-10.56 1.01c-2.409.591-3.435-3.185-1.024-3.779a40.722 40.722 0 0 1 19.557.023l-.004-.002Z"/>
  </g>
  <path stroke="#333" stroke-linecap="round" stroke-linejoin="round" stroke-width="1.56" d="M37.64 51.916c16.215 0 29.36-11.282 29.36-25.2C67 12.8 53.855 1.518 37.64 1.518c-16.214 0-29.359 11.283-29.359 25.2s13.145 25.199 29.36 25.199Z"/>
  <path fill="#83BA4F" d="M43.397 28.435a2.562 2.562 0 0 1 2.564 2.761c-.98 12.365-8.607 21.981-22.129 21.981-13.592 0-21.16-9.616-22.13-21.982a2.564 2.564 0 0 1 2.563-2.76h39.132Z"/>
  <path fill="#FDF6ED" d="M41.926 28.435a2.37 2.37 0 0 1 2.371 2.552c-.906 11.436-7.958 20.33-20.465 20.33-12.571 0-19.57-8.894-20.467-20.332a2.372 2.372 0 0 1 2.371-2.552h36.19v.002Z"/>
  <path fill="#F06061" d="M40.093 28.435a2.13 2.13 0 0 1 2.13 2.295C41.41 41.007 35.071 49 23.832 49 12.536 49 6.245 41.007 5.441 30.73a2.13 2.13 0 0 1 2.13-2.293h32.52l.002-.002Z"/>
  <path fill="#323333" d="M18.26 34.624c0 .487-.397.88-.889.88a.884.884 0 0 1-.889-.88c0-.487.398-1.687.89-1.687.49 0 .888 1.2.888 1.687Zm-6.46 0c0 .487-.398.88-.89.88a.884.884 0 0 1-.889-.88c0-.487.398-1.687.89-1.687.491 0 .889 1.2.889 1.687Zm12.921 0c0 .487-.398.88-.89.88a.884.884 0 0 1-.888-.88c0-.487.397-1.687.889-1.687.491 0 .889 1.2.889 1.687Zm6.461 0c0 .487-.398.88-.89.88a.884.884 0 0 1-.888-.88c0-.487.397-1.687.889-1.687.491 0 .889 1.2.889 1.687Zm6.458 0c0 .487-.397.88-.889.88a.884.884 0 0 1-.889-.88c0-.487.398-1.687.89-1.687.491 0 .888 1.2.888 1.687ZM21.732 39.06a.885.885 0 0 1-.89.881.884.884 0 0 1-.888-.88c0-.487.397-1.687.889-1.687.491 0 .889 1.2.889 1.687Zm-6.459 0a.884.884 0 0 1-.89.881.884.884 0 0 1-.888-.88c0-.487.397-1.687.889-1.687s.889 1.2.889 1.687Zm12.919 0a.884.884 0 0 1-.889.881.884.884 0 0 1-.889-.88c0-.487.398-1.687.89-1.687.491 0 .888 1.2.888 1.687Zm6.461 0a.884.884 0 0 1-.889.881.884.884 0 0 1-.889-.88c0-.487.398-1.687.89-1.687.49 0 .888 1.2.888 1.687Zm-9.691 4.435a.883.883 0 0 1-.889.881.884.884 0 0 1-.889-.88c0-.488.397-1.687.89-1.687.49 0 .888 1.2.888 1.687Zm-6.46 0a.884.884 0 0 1-.89.881.884.884 0 0 1-.889-.88c0-.488.398-1.687.89-1.687.491 0 .889 1.2.889 1.687Zm12.921 0a.884.884 0 0 1-.89.881.884.884 0 0 1-.888-.88c0-.488.397-1.687.889-1.687.491 0 .889 1.2.889 1.687Z"/>
  <path stroke="#333" stroke-linecap="round" stroke-linejoin="round" stroke-width="1.56" d="M43.904 28.114a2.63 2.63 0 0 1 2.63 2.832c-1.003 12.686-8.827 22.552-22.702 22.552-13.944 0-21.708-9.866-22.703-22.553a2.63 2.63 0 0 1 2.632-2.83h40.144-.001Z"/>
</svg>
