<svg xmlns="http://www.w3.org/2000/svg" width="62" height="62" fill="none" viewBox="0 0 62 62">
  <path fill="#F9CB6A" stroke="#333" stroke-miterlimit="10" stroke-width="1.403" d="M31 61c16.569 0 30-13.431 30-30C61 14.431 47.569 1 31 1 14.431 1 1 14.431 1 31c0 16.569 13.431 30 30 30Z"/>
  <path stroke="#333" stroke-linecap="round" stroke-linejoin="round" stroke-width="1.403" d="M13.377 33.099a5.67 5.67 0 0 1 4.996-3.06 5.663 5.663 0 0 1 4.996 2.958m15.263.102a5.67 5.67 0 0 1 4.997-3.06 5.663 5.663 0 0 1 4.996 2.958M21.12 44.108c1.233.855 4.808 3.09 9.89 3.06 4.96-.03 8.447-2.2 9.69-3.06m.053-2.345c-.032.154-.271 1.416.611 2.449.713.83 1.674.948 1.887.968m-22.002-3.416c.032.153.271 1.415-.611 2.448-.713.83-1.674.948-1.887.968"/>
  <path fill="#F06061" d="M50.554 40.464c2.53 0 4.581-1.028 4.581-2.295s-2.05-2.294-4.58-2.294c-2.53 0-4.582 1.027-4.582 2.294 0 1.267 2.051 2.295 4.581 2.295Zm-39.106 0c2.53 0 4.58-1.028 4.58-2.295s-2.05-2.294-4.58-2.294c-2.53 0-4.581 1.027-4.581 2.294 0 1.267 2.05 2.295 4.58 2.295Z"/>
</svg>
