<svg xmlns="http://www.w3.org/2000/svg" width="19" height="69" fill="none" viewBox="0 0 19 69">
  <path fill="#66A9EB" d="M12.794 19.61a45.025 45.025 0 0 0-1.255 10.916c.09 9.943 3.502 14.182 3.512 22.963.003 2.746-.326 6.538-1.812 11.12a4.238 4.238 0 0 1-4.028 2.933 4.238 4.238 0 0 1-4.028-2.933c-1.486-4.582-1.814-8.374-1.812-11.12.01-8.778 3.425-13.02 3.513-22.963a45.027 45.027 0 0 0-1.255-10.917h7.165Z"/>
  <mask id="a" width="13" height="49" x="3" y="19" maskUnits="userSpaceOnUse" style="mask-type:luminance">
    <path fill="#fff" d="M12.794 19.61a45.025 45.025 0 0 0-1.255 10.916c.09 9.943 3.502 14.182 3.512 22.963.003 2.746-.326 6.538-1.812 11.12a4.238 4.238 0 0 1-4.028 2.933 4.238 4.238 0 0 1-4.028-2.933c-1.486-4.582-1.814-8.374-1.812-11.12.01-8.778 3.425-13.02 3.513-22.963a45.027 45.027 0 0 0-1.255-10.917h7.165Z"/>
  </mask>
  <g mask="url(#a)">
    <path fill="#333" d="M29.997 35.341c-2.663-1.379-5.329-2.758-7.912-4.28a64.594 64.594 0 0 1-3.792-2.401c-.617-.423-1.218-.866-1.822-1.306h-.002c-.022-.017-.039-.034-.068-.059-.282-.245-.581-.474-.866-.717a36.451 36.451 0 0 1-2.712-2.561 32.943 32.943 0 0 1-1.32-1.47l-.412-.508a59.409 59.409 0 0 1-.209-.28 26.193 26.193 0 0 1-2.04-3.339c-.064-.124-.22-.367-.334-.589a2.326 2.326 0 0 0-.09-.28 28.087 28.087 0 0 1-.683-2.064c-.79-2.759-3.909-4.753-6.75-3.834-2.804.908-4.682 3.795-3.833 6.75C.946 31.63 12.99 38.883 24.459 44.818c2.547 1.318 6.076.741 7.509-1.968 1.33-2.518.754-6.1-1.968-7.509h-.003Z" opacity=".2"/>
  </g>
  <path stroke="#333" stroke-linecap="round" stroke-linejoin="round" stroke-width="1.703" d="M12.794 19.61a45.025 45.025 0 0 0-1.255 10.916c.09 9.943 3.502 14.182 3.512 22.963.003 2.746-.326 6.538-1.812 11.12a4.238 4.238 0 0 1-4.028 2.933 4.238 4.238 0 0 1-4.028-2.933c-1.486-4.582-1.814-8.374-1.812-11.12.01-8.778 3.425-13.02 3.513-22.963a45.027 45.027 0 0 0-1.255-10.917h7.165Z"/>
  <path fill="#C2BEBE" d="M17.428 16.017a8.214 8.214 0 0 1-16.428 0C1 11.48 3.72 1 9.211 1c5.492 0 8.214 10.478 8.214 15.015l.003.002Z"/>
  <mask id="b" width="17" height="24" x="1" y="1" maskUnits="userSpaceOnUse" style="mask-type:luminance">
    <path fill="#fff" d="M17.428 16.017a8.214 8.214 0 0 1-16.428 0C1 11.48 3.72 1 9.211 1c5.492 0 8.214 10.478 8.214 15.015l.003.002Z"/>
  </mask>
  <g mask="url(#b)">
    <path fill="#333" d="M20.748-2.24c-3.51-6.154-13.105-.72-9.54 5.429 2.926 4.777 3.8 8.7 1.939 13.845-2.077 4.249-4.85 6.175-8.654 6.365C-2.785 20.93-7.545 31.372.188 33.945 20.093 37.92 31.795 12.996 20.748-2.24Z" opacity=".2"/>
  </g>
  <path stroke="#333" stroke-linecap="round" stroke-linejoin="round" stroke-width="1.703" d="M17.428 16.017a8.214 8.214 0 0 1-16.428 0C1 11.48 3.72 1 9.211 1c5.492 0 8.214 10.478 8.214 15.015l.003.002Z"/>
</svg>
