<svg xmlns="http://www.w3.org/2000/svg" width="62" height="62" fill="none" viewBox="0 0 62 62">
  <path fill="#66A9EB" stroke="#333" stroke-linecap="round" stroke-linejoin="round" stroke-width=".863" d="M61 1H1v60h60V1Z"/>
  <path fill="#FDF6ED" d="M45.132 61H16.867V39.821l14.074-11.844L45.132 39.82V61Z"/>
  <path fill="#A8D471" d="M30.829 45.588h-9.077V61h9.077V45.588Z"/>
  <path fill="#66A9EB" d="M40.49 45.588h-6.455v6.454h6.455v-6.454Z"/>
  <path fill="#F5A759" d="M32.908 35.25a1.908 1.908 0 1 0-3.816 0 1.908 1.908 0 0 0 3.816 0Z"/>
  <path stroke="#333" stroke-linecap="round" stroke-linejoin="round" stroke-width=".863" d="M16.867 61V39.001m28.265 0v22M30.829 45.588h-9.077V61h9.077V45.588Zm2.079-10.338a1.908 1.908 0 1 0-3.816 0 1.908 1.908 0 0 0 3.816 0ZM10.867 61h40.267M40.49 45.588h-6.455v6.454h6.455v-6.454Zm-6.455 3.227h6.455m-3.227-3.227v6.454M16.867 40.058h28.265"/>
  <path fill="#333" d="M28.866 53.784a.49.49 0 1 0 0-.98.49.49 0 0 0 0 .98Z"/>
  <path fill="#F06061" stroke="#333" stroke-miterlimit="10" stroke-width=".863" d="M49.321 42.836a1.93 1.93 0 0 1-1.248-.456L30.94 27.975 13.927 42.294c-.82.69-2.044.585-2.733-.235a1.938 1.938 0 0 1 .235-2.733l18.262-15.37a1.94 1.94 0 0 1 2.499 0L50.57 39.41a1.94 1.94 0 0 1-1.25 3.426h.001Z"/>
  <path fill="#F5A759" stroke="#333" stroke-miterlimit="10" stroke-width=".518" d="M39.336 18.277a4.757 4.757 0 1 0 0-9.514 4.757 4.757 0 0 0 0 9.514Zm.047 1.703a.671.671 0 0 1 .677.667l.014 1.967a.671.671 0 1 1-1.344.01l-.014-1.966a.671.671 0 0 1 .667-.677ZM34.8 18.121c.264.26.268.686.007.95l-1.381 1.4a.671.671 0 1 1-.957-.943l1.382-1.4a.671.671 0 0 1 .95-.007Zm-1.925-4.555a.671.671 0 0 1-.666.677l-1.967.014a.671.671 0 1 1-.01-1.343l1.966-.014a.671.671 0 0 1 .677.666Zm1.86-4.582a.671.671 0 0 1-.95.007l-1.4-1.382a.671.671 0 1 1 .943-.956l1.4 1.381c.264.26.267.686.007.95Zm4.555-1.925a.671.671 0 0 1-.677-.667l-.014-1.966a.671.671 0 1 1 1.343-.01l.014 1.966a.671.671 0 0 1-.666.677Zm4.582 1.859a.671.671 0 0 1-.007-.95l1.381-1.4a.671.671 0 1 1 .957.943l-1.381 1.4a.671.671 0 0 1-.95.007Zm1.925 4.555a.671.671 0 0 1 .667-.677l1.966-.013a.671.671 0 1 1 .01 1.343l-1.966.014a.671.671 0 0 1-.677-.667Zm-1.859 4.584a.671.671 0 0 1 .95-.007l1.4 1.382a.671.671 0 1 1-.943.956l-1.4-1.381a.671.671 0 0 1-.008-.95Z"/>
</svg>
