<svg xmlns="http://www.w3.org/2000/svg" width="62" height="62" fill="none" viewBox="0 0 62 62">
  <path fill="#F18653" stroke="#333" stroke-linecap="round" stroke-linejoin="round" stroke-width=".863" d="M61 1H1v60h60V1Z"/>
  <path fill="#F5A759" stroke="#333" stroke-miterlimit="10" stroke-width=".863" d="M42.465 35.845a7.773 7.773 0 1 0 0-15.547 7.773 7.773 0 0 0 0 15.547Zm9.923-4.167c-.208.57.086 1.2.656 1.408l3.02 1.098a1.098 1.098 0 0 0 .75-2.063l-3.02-1.099c-.57-.207-1.2.087-1.406.657Zm-.356-8.071c.257.549.91.787 1.459.53l2.913-1.36a1.098 1.098 0 1 0-.93-1.988l-2.912 1.359c-.55.257-.787.91-.53 1.459Zm-5.96-5.458c.57.207 1.2-.087 1.407-.656l1.098-3.02a1.098 1.098 0 0 0-2.063-.751l-1.098 3.02c-.208.57.086 1.2.656 1.407ZM38 18.504c.549-.257.787-.91.53-1.459l-1.36-2.912a1.098 1.098 0 1 0-1.988.929l1.359 2.912c.257.55.91.788 1.459.53Z"/>
  <path fill="#FDF6ED" d="M46.654 61H15.348V37.542l15.588-13.119 15.718 13.12V61Z"/>
  <path fill="#A8D471" d="M30.808 43.93H20.756v17.072h10.052V43.93Z"/>
  <path fill="#66A9EB" d="M41.512 43.93h-7.148v7.149h7.148V43.93Z"/>
  <path fill="#F5A759" d="M33.114 32.48a2.113 2.113 0 1 0-4.227 0 2.113 2.113 0 0 0 4.227 0Z"/>
  <path stroke="#333" stroke-linecap="round" stroke-linejoin="round" stroke-width=".863" d="M15.348 61V36.634m31.306 0V61M30.808 43.93H20.756v17.072h10.052V43.93Zm2.306-11.45a2.113 2.113 0 1 0-4.227 0 2.113 2.113 0 0 0 4.227 0ZM8.7 61h44.6M41.512 43.93h-7.148v7.149h7.148V43.93Zm-7.148 3.575h7.148m-3.574-3.575v7.149m-22.59-13.274h31.306"/>
  <path fill="#333" d="M28.636 53.01a.544.544 0 1 0 0-1.089.544.544 0 0 0 0 1.088Z"/>
  <path fill="#F06061" stroke="#333" stroke-miterlimit="10" stroke-width=".863" d="M51.293 40.883c-.489 0-.979-.166-1.381-.504L30.938 24.423 12.094 40.284a2.149 2.149 0 1 1-2.768-3.29L29.553 19.97a2.146 2.146 0 0 1 2.766 0l20.359 17.12a2.15 2.15 0 0 1-1.383 3.795l-.002-.002Z"/>
</svg>
