<svg xmlns="http://www.w3.org/2000/svg" width="64" height="58" fill="none" viewBox="0 0 64 58">
  <path fill="#A8D471" stroke="#333" stroke-linecap="round" stroke-linejoin="round" stroke-width="1.34" d="M57.983 24.964a8.892 8.892 0 0 0-1.824-.553c.185-.132.371-.27.557-.417 3.035-2.425 3.975-5.527 4.226-6.488-.902-.148-3.7-.479-6.573 1.16a9.537 9.537 0 0 0-2 1.517 11.598 11.598 0 0 0-1.183-8.42c-.773.531-3.083 2.255-4.08 5.394-.08.251-.144.498-.201.743-.021-.036-.04-.073-.061-.111-1.937-3.214-4.871-4.395-5.784-4.722-.285.886-1.045 3.644.136 6.636 1.766 4.473 10.913 9.79 13.891 10.511 3.671.89 6.682-.327 7.59-.735-.4-.813-1.74-3.26-4.692-4.519l-.002.004Z"/>
  <path fill="#F06061" stroke="#333" stroke-linecap="round" stroke-linejoin="round" stroke-width="1.34" d="M54.446 45.319c-5.197 6.928-18.88 13.47-25.81 8.274-6.928-5.196-4.48-20.163.716-27.094 5.196-6.928 14.454-8.764 21.957-3.137 7.782 5.836 8.333 15.027 3.137 21.957Z"/>
  <path fill="#FDF6ED" d="M37.76 26.197c-.394.698-1.466 1.523-2.034 1.204-.567-.32-.416-1.665-.021-2.364.394-.699 1.127-1.032 1.741-.685.638.36.709 1.146.314 1.845Zm5.573.905c-.386.703-1.448 1.54-2.019 1.227-.57-.314-.434-1.66-.048-2.362.387-.702 1.116-1.045 1.734-.704.642.352.72 1.139.335 1.841l-.002-.002Zm2.345 5.221c-.482.642-1.652 1.321-2.172.93-.52-.39-.197-1.703.285-2.346s1.252-.878 1.816-.454c.565.425.553 1.23.073 1.87h-.002Zm6.345-.095c-.609.524-1.897.936-2.322.444-.425-.492.172-1.707.781-2.23.609-.524 1.41-.59 1.87-.055.46.534.278 1.318-.331 1.84h.002Zm1.56 6.205c-.555.578-1.8 1.112-2.268.66-.47-.452.011-1.715.566-2.295.555-.58 1.347-.72 1.857-.231.509.488.4 1.286-.155 1.864v.002Zm-18.873.503c-.387.703-1.45 1.54-2.02 1.227-.57-.314-.434-1.66-.048-2.362.387-.702 1.116-1.045 1.734-.704.619.34.72 1.139.335 1.841l-.002-.002Zm1.946 5.42c-.483.641-1.652 1.32-2.173.93-.52-.39-.197-1.703.286-2.346.482-.643 1.251-.879 1.816-.454.564.425.553 1.23.073 1.87h-.002Zm6.343-.096c-.609.525-1.897.937-2.322.445-.425-.492.172-1.708.78-2.23.61-.523 1.411-.59 1.87-.056.46.534.278 1.32-.33 1.842h.002Zm-5.413 5.151c-.483.641-1.652 1.32-2.172.93-.521-.39-.198-1.703.285-2.346.482-.643 1.251-.879 1.816-.454.586.439.553 1.229.073 1.87h-.002Zm5.403.614c-.764.247-2.111.127-2.312-.493-.201-.62.823-1.507 1.585-1.752.763-.247 1.527.004 1.745.676.226.697-.256 1.322-1.02 1.57h.002ZM27.258 39.49c-.023.801.47 2.06 1.12 2.08.65.019 1.215-1.212 1.238-2.014.023-.802-.432-1.466-1.137-1.485-.73-.021-1.198.616-1.22 1.418Zm6.125-7.398c-.444.668-1.573 1.412-2.115 1.052-.544-.36-.293-1.69.151-2.357.444-.668 1.198-.948 1.786-.557.587.39.622 1.194.178 1.862Zm-2.41 13.686c-.327.733-1.316 1.654-1.912 1.39-.595-.264-.57-1.617-.243-2.35.327-.733 1.026-1.134 1.67-.846.667.298.81 1.075.483 1.806h.002ZM38.876 33.4c-.436.673-1.556 1.43-2.103 1.075-.548-.356-.313-1.686.124-2.36.436-.674 1.189-.96 1.78-.578.591.383.635 1.187.199 1.86v.002Zm1.96 5.377c-.526.605-1.742 1.198-2.234.77-.492-.43-.072-1.713.454-2.32.526-.605 1.311-.785 1.843-.322.532.464.463 1.265-.063 1.87v.002Zm6.333.363c-.645.48-1.958.797-2.347.275-.388-.523.297-1.69.94-2.169.645-.478 1.449-.486 1.87.08.421.567.182 1.334-.463 1.813v.002Zm1.108 6.304c-.595.537-1.876.977-2.31.493-.434-.484.136-1.709.731-2.247.595-.537 1.397-.62 1.87-.095.473.524.306 1.31-.289 1.849h-.002Z"/>
  <path fill="#A8D471" stroke="#333" stroke-linecap="round" stroke-linejoin="round" stroke-width="1.34" d="M26.738 9.95c-.75.183-1.438.444-2.07.754.081-.251.158-.508.227-.772 1.125-4.348-.16-7.87-.592-8.932-.936.49-3.753 2.122-5.275 5.633a11.163 11.163 0 0 0-.798 2.79 13.403 13.403 0 0 0-6.934-6.967c-.348 1.026-1.288 4.224-.033 7.819.1.287.213.56.33.827l-.134-.06c-4.022-1.63-7.555-.687-8.625-.354.353 1.018 1.562 4.096 4.73 6.045 4.737 2.91 16.883 1.483 20.14.086 4.014-1.725 5.953-4.938 6.511-5.945-.936-.475-3.87-1.807-7.476-.923l-.001-.002Z"/>
  <path fill="#F06061" stroke="#333" stroke-linecap="round" stroke-linejoin="round" stroke-width="1.34" d="M37.588 31.229c0 10.013-8.117 25.554-18.13 25.554-10.015 0-18.134-15.54-18.134-25.554s7.289-18.131 18.131-18.131c10.843 0 18.13 8.117 18.13 18.13h.003Z"/>
  <path fill="#FDF6ED" d="M8.89 25.117c.12.921-.3 2.427-1.047 2.525-.746.098-1.538-1.252-1.657-2.17-.119-.92.327-1.736 1.135-1.842.838-.109 1.449.57 1.57 1.49v-.003Zm5.784-3.027c.13.918-.272 2.428-1.018 2.536-.746.107-1.552-1.235-1.682-2.152-.13-.918.306-1.74 1.114-1.854.807-.115 1.456.553 1.586 1.471v-.001Zm5.79 3.202c0 .928-.61 2.367-1.365 2.367-.754 0-1.364-1.44-1.364-2.367 0-.929.547-1.68 1.364-1.68.817 0 1.365.751 1.365 1.68Zm5.801-4.49c-.2.905-1.105 2.181-1.84 2.019-.735-.161-1.024-1.698-.824-2.605.199-.907.895-1.524 1.692-1.348.826.182 1.17 1.026.972 1.934Zm5.748 4.656c-.113.92-.892 2.276-1.64 2.186-.749-.092-1.18-1.595-1.069-2.515.111-.92.749-1.6 1.558-1.503.84.102 1.264.912 1.15 1.832ZM14.906 39.016c.13.92-.272 2.43-1.019 2.536-.746.108-1.552-1.234-1.682-2.15-.13-.92.306-1.74 1.114-1.855.808-.115 1.456.553 1.587 1.471v-.002Zm5.558 3.664c0 .928-.61 2.367-1.365 2.367-.754 0-1.364-1.44-1.364-2.367 0-.929.547-1.68 1.364-1.68.817 0 1.365.751 1.365 1.68Zm5.801-4.49c-.2.905-1.105 2.181-1.84 2.019-.735-.161-1.024-1.698-.824-2.605.199-.907.895-1.524 1.692-1.347.826.181 1.17 1.025.972 1.933Zm-1.434 8.519c0 .928-.61 2.367-1.364 2.367-.754 0-1.365-1.44-1.365-2.367 0-.929.547-1.68 1.365-1.68.846 0 1.364.751 1.364 1.68Zm5.422-3.179c-.535.757-1.864 1.58-2.48 1.146-.616-.434-.283-1.962.25-2.72.537-.758 1.417-1.056 2.083-.585.691.488.681 1.4.146 2.158h.002ZM8.396 44.697c.536.758 1.864 1.58 2.48 1.146.617-.434.284-1.961-.25-2.72-.534-.757-1.416-1.056-2.082-.585-.691.488-.682 1.401-.146 2.159h-.002Zm.534-11.091c.054.926-.474 2.398-1.226 2.44-.752.042-1.443-1.359-1.497-2.285-.054-.927.452-1.708 1.265-1.755.844-.048 1.405.673 1.457 1.6h.002Zm7.266 14.328c.204.905-.071 2.444-.806 2.61-.735.167-1.65-1.1-1.855-2.006-.204-.905.163-1.759.957-1.94.795-.182 1.497.43 1.702 1.336h.002Zm-1.279-16.929c.063.926-.448 2.404-1.198 2.455-.75.052-1.458-1.343-1.521-2.268-.064-.924.432-1.713 1.245-1.768.814-.056 1.413.656 1.476 1.583l-.002-.002Zm5.543 3.613c-.067.925-.78 2.316-1.531 2.262-.75-.053-1.256-1.535-1.189-2.459.067-.924.668-1.635 1.482-1.577.813.057 1.305.85 1.238 1.774Zm6.111-4.055c-.264.89-1.26 2.095-1.98 1.88-.722-.213-.898-1.767-.634-2.656.264-.888 1.003-1.454 1.785-1.22.783.233 1.093 1.107.83 1.997v-.001Zm5.395 5.06c-.178.911-1.054 2.205-1.795 2.06-.739-.146-1.06-1.675-.882-2.586.178-.911.861-1.543 1.661-1.386.8.157 1.194 1.001 1.014 1.91l.002.002Z"/>
</svg>
