<svg xmlns="http://www.w3.org/2000/svg" width="54" height="74" fill="none" viewBox="0 0 54 74">
  <path fill="#F3D2B9" d="M1.68 65.192a1.418 1.418 0 0 1-.489-1.922l35.69-61.049a2.915 2.915 0 1 1 4.967 3.054L3.605 64.755a1.418 1.418 0 0 1-1.926.437h.002Z"/>
  <mask id="a" width="42" height="66" x="1" y="0" maskUnits="userSpaceOnUse" style="mask-type:luminance">
    <path fill="#fff" d="M1.68 65.192a1.418 1.418 0 0 1-.489-1.922l35.69-61.049a2.915 2.915 0 1 1 4.967 3.054L3.605 64.755a1.418 1.418 0 0 1-1.926.437h.002Z"/>
  </mask>
  <g mask="url(#a)">
    <path fill="#F06061" d="M25.341 9.136c.273.76.59 1.51.964 2.227.536 1.023 1.24 1.961 1.985 2.838.896 1.054 2.018 1.959 3.194 2.68.835.512 1.758.9 2.672 1.237.651.24 1.327.407 2.013.51.925.14 1.847.267 2.785.245.772-.018 1.535-.136 2.298-.245a2.888 2.888 0 0 0 1.3-.684 2.88 2.88 0 0 0 .986-1.074c.28-.44.431-.914.455-1.423a2.9 2.9 0 0 0-.068-1.526c-.3-.925-.872-1.819-1.757-2.287l-.914-.384a3.864 3.864 0 0 0-2.033 0c-.042.006-.081.01-.123.017l1.017-.138c-.945.125-1.898.123-2.842-.004l1.016.138a10.435 10.435 0 0 1-2.485-.674l.914.385a10.167 10.167 0 0 1-2.235-1.294l.774.599a10.679 10.679 0 0 1-1.869-1.873l.6.773a11.358 11.358 0 0 1-1.459-2.494l.385.914c-.068-.164-.133-.33-.195-.496a2.888 2.888 0 0 0-.684-1.301 2.877 2.877 0 0 0-1.073-.986c-.44-.28-.914-.43-1.424-.455a2.9 2.9 0 0 0-1.525.068c-.925.3-1.82.872-2.287 1.758-.468.885-.732 1.985-.385 2.947v.002Z"/>
  </g>
  <path stroke="#333" stroke-linecap="round" stroke-linejoin="round" stroke-width="1.53" d="M1.68 65.192a1.418 1.418 0 0 1-.489-1.922l35.69-61.049a2.915 2.915 0 1 1 4.967 3.054L3.605 64.755a1.418 1.418 0 0 1-1.926.437h.002Z"/>
  <path fill="#F3D2B9" d="M2.15 72.192a1.42 1.42 0 0 1-.17-1.977l45.152-54.423a2.918 2.918 0 1 1 4.407 3.822L4.12 72.074a1.418 1.418 0 0 1-1.971.118h.002Z"/>
  <mask id="b" width="52" height="59" x="1" y="14" maskUnits="userSpaceOnUse" style="mask-type:luminance">
    <path fill="#fff" d="M2.15 72.192a1.42 1.42 0 0 1-.17-1.977l45.152-54.423a2.918 2.918 0 1 1 4.407 3.822L4.12 72.074a1.418 1.418 0 0 1-1.971.118h.002Z"/>
  </mask>
  <g mask="url(#b)">
    <path fill="#F06061" d="M34.737 21.35c.09.485.216.963.371 1.433.37 1.107.842 2.213 1.452 3.212.728 1.19 1.637 2.337 2.71 3.238.757.633 1.555 1.25 2.427 1.72.872.47 1.718.824 2.62 1.115.578.188 1.175.32 1.776.407.759.109 1.513.22 2.278.236.969.02 2.025-.44 2.705-1.122.373-.347.636-.756.791-1.23.24-.458.35-.947.33-1.474-.044-.99-.37-2.016-1.121-2.704-.752-.689-1.662-1.1-2.705-1.122-.4-.009-.8-.04-1.195-.09l1.016.138a10.65 10.65 0 0 1-2.68-.725l.914.384a10.167 10.167 0 0 1-2.182-1.27l.774.6a10.18 10.18 0 0 1-1.786-1.778l.599.774a11.017 11.017 0 0 1-1.423-2.444l.384.913a11.01 11.01 0 0 1-.677-2.242 2.888 2.888 0 0 0-.684-1.301 2.877 2.877 0 0 0-1.074-.986c-.44-.28-.914-.43-1.423-.455a2.9 2.9 0 0 0-1.526.068c-.925.3-1.819.872-2.287 1.758l-.384.913a3.864 3.864 0 0 0 0 2.034Z"/>
  </g>
  <path stroke="#333" stroke-linecap="round" stroke-linejoin="round" stroke-width="1.53" d="M2.15 72.192a1.42 1.42 0 0 1-.17-1.977l45.152-54.423a2.918 2.918 0 1 1 4.407 3.822L4.12 72.074a1.418 1.418 0 0 1-1.971.118h.002Z"/>
</svg>
