<svg xmlns="http://www.w3.org/2000/svg" width="58" height="78" fill="none" viewBox="0 0 58 78">
  <path fill="#F06061" d="M57.238 45.56c0 16.975-7.437 30.739-28.164 30.739S.912 62.537.912 45.559"/>
  <path fill="#EFEFEF" d="M29.076 63.199c15.555 0 28.165-7.898 28.165-17.64 0-9.74-12.61-17.638-28.165-17.638S.912 35.818.912 45.56c0 9.741 12.61 17.639 28.164 17.639Z"/>
  <path fill="#F5A759" d="M29.076 63.627c14.386 0 26.047-6.463 26.047-14.435 0-7.973-11.661-14.436-26.047-14.436-14.386 0-26.047 6.463-26.047 14.436 0 7.972 11.662 14.435 26.047 14.435Z"/>
  <path stroke="#333" stroke-linecap="round" stroke-linejoin="round" stroke-width="1.523" d="M29.076 63.199c15.555 0 28.165-7.898 28.165-17.64 0-9.74-12.61-17.638-28.165-17.638S.912 35.818.912 45.56c0 9.741 12.61 17.639 28.164 17.639Z"/>
  <path stroke="#333" stroke-linecap="round" stroke-linejoin="round" stroke-width="1.523" d="M57.238 45.56c0 16.975-7.437 30.739-28.164 30.739S.912 62.537.912 45.559M23.506 5.588c-.612 1.123-1.35 2.903-1.071 4.946.3 2.204 1.551 3.014 1.995 5.086.285 1.33.285 3.399-1.38 6.317M30.36.762c-.677.918-2.668 3.866-2.479 7.99.09 1.971 1.443 3.033 1.68 5.64.185 2.022-.248 3.724-.635 4.829m4.842-13.653c-.24.551-.91 2.29-.344 4.39.38 1.41 1.155 2.11 1.625 2.852.899 1.423 1.347 4.015-.986 9.144"/>
  <path fill="#A8D471" d="M31.256 42.44h-1.79a.943.943 0 0 1 0-1.885h1.79a.943.943 0 0 1 0 1.884Z"/>
  <path stroke="#333" stroke-miterlimit="10" stroke-width=".435" d="M31.256 42.44h-1.79a.943.943 0 0 1 0-1.885h1.79a.943.943 0 0 1 0 1.884Z"/>
  <path fill="#A8D471" d="m23.275 47.314-1.54.914a.945.945 0 0 1-1.293-.329.945.945 0 0 1 .328-1.293l1.54-.913a.945.945 0 0 1 1.293.328.945.945 0 0 1-.328 1.293Z"/>
  <path stroke="#333" stroke-miterlimit="10" stroke-width=".435" d="m23.275 47.314-1.54.914a.945.945 0 0 1-1.293-.329.945.945 0 0 1 .328-1.293l1.54-.913a.945.945 0 0 1 1.293.328.945.945 0 0 1-.328 1.293Z"/>
  <path fill="#A8D471" d="m27.696 50.952-1.547-.903a.945.945 0 0 1 .951-1.63l1.547.903a.945.945 0 0 1-.95 1.63Z"/>
  <path stroke="#333" stroke-miterlimit="10" stroke-width=".435" d="m27.696 50.952-1.547-.903a.945.945 0 0 1 .951-1.63l1.547.903a.945.945 0 0 1-.95 1.63Z"/>
  <path fill="#A8D471" d="m31.988 50.151.69-1.654a.943.943 0 0 1 1.74.727l-.69 1.654a.943.943 0 0 1-1.74-.727Z"/>
  <path stroke="#333" stroke-miterlimit="10" stroke-width=".435" d="m31.988 50.151.69-1.654a.943.943 0 0 1 1.74.727l-.69 1.654a.943.943 0 0 1-1.74-.727Z"/>
  <path fill="#83BA4F" stroke="#333" stroke-miterlimit="10" stroke-width=".435" d="m25.414 44.755-1.508-.969a.942.942 0 1 1 1.02-1.586l1.509.968a.942.942 0 1 1-1.021 1.587Zm4.226.526 1.604-.796a.943.943 0 0 1 .84 1.689l-1.604.796a.943.943 0 0 1-.84-1.689Z"/>
  <path fill="#A8D471" d="m36.977 47.338-1.029-1.467a.944.944 0 0 1 1.543-1.086l1.03 1.467a.945.945 0 0 1-.23 1.314.945.945 0 0 1-1.314-.228Z"/>
  <path stroke="#333" stroke-miterlimit="10" stroke-width=".435" d="m36.977 47.338-1.029-1.467a.944.944 0 0 1 1.543-1.086l1.03 1.467a.945.945 0 0 1-.23 1.314.945.945 0 0 1-1.314-.228Z"/>
  <path fill="#83BA4F" stroke="#333" stroke-miterlimit="10" stroke-width=".435" d="m22.037 52.534.3-1.767a.944.944 0 0 1 1.86.316l-.3 1.767a.944.944 0 0 1-1.86-.316Z"/>
</svg>
