<svg xmlns="http://www.w3.org/2000/svg" width="47" height="66" fill="none" viewBox="0 0 47 66">
  <path fill="#D3E2F1" stroke="#333" stroke-linecap="round" stroke-linejoin="round" stroke-width="1.84" d="m46.062 7.222-6.85 54.172a3.57 3.57 0 0 1-3.54 3.121H11.31a3.566 3.566 0 0 1-3.54-3.121L.92 7.222h45.143Z"/>
  <path fill="#7D5045" d="M31.098 21.374a46.609 46.609 0 0 0-15.47.407 46.224 46.224 0 0 0-8.204 2.422c.267.375 4.547 6.208 11.813 5.812 5.216-.285 9.858-3.666 11.859-8.641h.002Z"/>
  <path fill="#C39C76" d="M31.783 59.066h-16.58c-1.826 0-3.31-1.394-3.565-3.314l-4.21-31.55c1.022.67 2.56 1.526 4.57 2.121.976.29 3.984 1.088 7.36.548 5.675-.906 6.45-4.646 10.963-5.403 1.973-.331 5.027-.154 9.241 2.735l-4.209 31.549c-.255 1.92-1.741 3.314-3.565 3.314h-.005Z"/>
  <path fill="#fff" d="m7.162 8.068 5.467.479a717.503 717.503 0 0 1 .361 35.917 276.11 276.11 0 0 1-.957-4.32 271.662 271.662 0 0 1-4.87-32.076Z" opacity=".51"/>
  <path fill="#D3E2F1" stroke="#333" stroke-linecap="round" stroke-linejoin="round" stroke-width="1.61" d="M23.49 12.314c12.482 0 22.6-2.576 22.6-5.754 0-3.18-10.12-5.755-22.6-5.755C11.008.805.89 3.38.89 6.56c0 3.178 10.118 5.754 22.6 5.754Z"/>
</svg>
