<svg xmlns="http://www.w3.org/2000/svg" width="47" height="66" fill="none" viewBox="0 0 47 66">
  <path fill="#D3E2F1" stroke="#333" stroke-linecap="round" stroke-linejoin="round" stroke-width="1.61" d="m45.975 7.222-6.85 54.172a3.57 3.57 0 0 1-3.54 3.121H11.223a3.566 3.566 0 0 1-3.54-3.121L.832 7.222h45.143Z"/>
  <path fill="#333" d="M31.013 21.374a46.609 46.609 0 0 0-15.47.407 46.225 46.225 0 0 0-8.204 2.422c.267.375 4.547 6.208 11.813 5.812 5.217-.285 9.858-3.666 11.859-8.641h.002Z" opacity=".1"/>
  <path fill="#FDF6ED" d="M31.696 59.066h-16.58c-1.826 0-3.31-1.394-3.565-3.314l-4.212-31.55c1.022.67 2.56 1.526 4.57 2.121.976.29 3.984 1.088 7.36.548 5.675-.906 6.45-4.646 10.962-5.403 1.974-.331 5.028-.154 9.242 2.735l-4.21 31.549c-.255 1.92-1.74 3.314-3.564 3.314h-.003Z"/>
  <path fill="#fff" d="m7.077 8.068 5.467.479c.226 6.444.368 12.995.419 19.651.044 5.497.023 10.918-.058 16.266a276.11 276.11 0 0 1-.957-4.32 271.67 271.67 0 0 1-4.87-32.076Z" opacity=".51"/>
  <path fill="#D3E2F1" stroke="#333" stroke-linecap="round" stroke-linejoin="round" stroke-width="1.61" d="M23.405 12.314c12.481 0 22.6-2.576 22.6-5.754 0-3.179-10.119-5.755-22.6-5.755C10.923.805.805 3.381.805 6.56c0 3.178 10.118 5.754 22.6 5.754Z"/>
</svg>
