<svg xmlns="http://www.w3.org/2000/svg" width="62" height="62" fill="none" viewBox="0 0 62 62">
  <path fill="#F9CB6A" d="M31 61c16.569 0 30-13.431 30-30C61 14.431 47.569 1 31 1 14.431 1 1 14.431 1 31c0 16.569 13.431 30 30 30Z"/>
  <mask id="a" width="60" height="60" x="1" y="1" maskUnits="userSpaceOnUse" style="mask-type:luminance">
    <path fill="#fff" d="M31 61c16.569 0 30-13.431 30-30C61 14.431 47.569 1 31 1 14.431 1 1 14.431 1 31c0 16.569 13.431 30 30 30Z"/>
  </mask>
  <g mask="url(#a)">
    <path fill="#66A9EB" d="M67.48 7.103C62.763 1.022 56.058-3.15 48.733-5.362 33.7-9.905 15.865-6.762 3.882 3.57A39.582 39.582 0 0 0-.352 7.822c-.026 0-.054.004-.08.006-.725.045-1.044.696-.944 1.244-3.62 4.597-6.215 9.998-7.321 15.762-.11.569.238 1.03.677 1.194-.511 1.012 1.106 1.89 1.8.878 3.036-4.43 8.486-6.688 13.349-8.479a68.828 68.828 0 0 1 16.914-3.908A68.717 68.717 0 0 1 56.66 19.23c5.711 2.317 11.09 5.44 15.981 9.184.651.5 1.46-.196 1.502-.863.463-7.38-2.167-14.65-6.666-20.448h.002Z"/>
  </g>
  <path stroke="#333" stroke-miterlimit="10" stroke-width="1.398" d="M31 61c16.569 0 30-13.431 30-30C61 14.431 47.569 1 31 1 14.431 1 1 14.431 1 31c0 16.569 13.431 30 30 30Z"/>
  <path fill="#F06061" stroke="#333" stroke-miterlimit="10" stroke-width="1.398" d="M21.313 51.333c-.166-.176-.815-.913-.903-2.007-.273-3.363 4.917-7.81 9.895-8.221 5.244-.434 11.179 3.534 11.295 7.506.028.995-.302 2.17-.995 2.922-2.023 2.19-4.85-1.722-10.076-1.534-4.61.166-7.29 3.385-9.214 1.334h-.002Z"/>
  <path stroke="#333" stroke-linecap="round" stroke-linejoin="round" stroke-width="1.398" d="M38.75 23.809a17.63 17.63 0 0 0 9.687 5.302m-25.189-5.302a17.63 17.63 0 0 1-9.687 5.302m31.069 2.274-7.32 4.488 7.32 2.967m-27.26-7.455 7.318 4.488-7.317 2.967"/>
</svg>
