<svg xmlns="http://www.w3.org/2000/svg" width="73" height="47" fill="none" viewBox="0 0 73 47">
  <path fill="#F06061" d="M37.955 46.074H5.761C2.037 42.794.056 37.22.704 31.8c.727-6.08 4.44-9.279 5.058-9.791h32.195c-.791 2.325-1.885 6.348-1.954 11.52-.075 5.721 1.14 10.147 1.954 12.546l-.002-.002Z"/>
  <path fill="#FDF6ED" d="M35.717 43.43H6.767c-1.131-1.532-3.477-5.174-3.392-10.02 0 0 .088-5.126 3.392-8.756h28.947a33.579 33.579 0 0 0-1.325 9.815 33.494 33.494 0 0 0 1.325 8.962h.004Z"/>
  <mask id="a" width="33" height="20" x="3" y="24" maskUnits="userSpaceOnUse" style="mask-type:luminance">
    <path fill="#fff" d="M35.717 43.43H6.767c-1.131-1.532-3.477-5.174-3.392-10.02 0 0 .088-5.126 3.392-8.756h28.947a33.579 33.579 0 0 0-1.325 9.815 33.494 33.494 0 0 0 1.325 8.962h.004Z"/>
  </mask>
  <g mask="url(#a)">
    <path stroke="#ABA8A8" stroke-linecap="round" stroke-linejoin="round" stroke-width=".536" d="M1.435 25.848h34.282m-34.282 1.09h34.282M1.435 28.027h34.282M1.435 29.115h34.282M1.435 30.204h34.282m-34.282 1.09h34.282M1.435 32.382h34.282M1.435 33.471h34.282M1.435 34.56h34.282M1.435 35.648h34.282m-34.282 1.09h34.282m-34.282 1.09h34.282M1.435 38.915h34.282m-34.282 1.09h34.282M1.435 41.094h34.282M1.435 42.182h34.282"/>
  </g>
  <path stroke="#333" stroke-linecap="round" stroke-linejoin="round" stroke-width="1.1" d="M35.717 43.43H7.34c-.368 0-.713-.176-.925-.477-1.088-1.537-3.538-5.62-2.828-10.936.433-3.226 1.85-5.585 2.824-6.901.215-.291.552-.463.915-.463h28.39"/>
  <path stroke="#333" stroke-linecap="round" stroke-linejoin="round" stroke-width="1.1" d="M37.955 46.074H6.71a2.11 2.11 0 0 1-1.623-.766C3.48 43.37-.037 38.278.919 31.588c.614-4.307 2.806-7.324 4.177-8.87.4-.45.974-.708 1.576-.708h31.283"/>
  <path fill="#F06061" d="M71.912 46.074H42.843c-.184-.14-1.225-.963-1.368-2.41-.184-1.85 1.268-3.023 1.368-3.1h29.07a11.24 11.24 0 0 0-.342 2.822c.007 1.082.168 1.998.341 2.688Z"/>
  <path stroke="#333" stroke-linecap="round" stroke-linejoin="round" stroke-width=".536" d="M71.912 46.074H43.624a1.878 1.878 0 0 1-1.534-.788 3.372 3.372 0 0 1-.616-1.622c-.097-.966.255-1.748.625-2.286.352-.51.932-.814 1.552-.814h28.26"/>
  <path fill="#FDF6ED" d="M70.948 44.688h-27.21c-.17 0-.33-.07-.446-.193a1.733 1.733 0 0 1-.47-1.006c-.06-.62.247-1.085.468-1.336a.612.612 0 0 1 .457-.205h27.2a7.772 7.772 0 0 0 0 2.738v.002Z"/>
  <mask id="b" width="29" height="4" x="42" y="41" maskUnits="userSpaceOnUse" style="mask-type:luminance">
    <path fill="#fff" d="M70.948 44.688h-27.21c-.17 0-.33-.07-.446-.193a1.733 1.733 0 0 1-.47-1.006c-.06-.62.247-1.085.468-1.336a.612.612 0 0 1 .457-.205h27.2a7.772 7.772 0 0 0 0 2.738v.002Z"/>
  </mask>
  <g mask="url(#b)">
    <path stroke="#ABA8A8" stroke-linecap="round" stroke-linejoin="round" stroke-width=".179" d="M40.772 42.586h34.282m-34.282.489h34.282m-34.282.488h34.282m-34.282.489h34.282"/>
  </g>
  <path stroke="#333" stroke-linecap="round" stroke-linejoin="round" stroke-width=".536" d="M70.948 44.688h-27.21c-.17 0-.33-.07-.446-.193a1.733 1.733 0 0 1-.47-1.006c-.06-.62.247-1.085.468-1.336a.61.61 0 0 1 .457-.203h27.2"/>
  <path fill="#A8D471" stroke="#333" stroke-miterlimit="10" stroke-width=".931" d="M24.522 11.404a1.512 1.512 0 0 0-2.14 0l-1.588 1.588V2.629a1.628 1.628 0 1 0-3.258 0v10.106l-1.38-1.381a1.513 1.513 0 1 0-2.14 2.14l4.206 4.208a1.51 1.51 0 0 0 2.14 0l4.158-4.16a1.513 1.513 0 0 0 0-2.14l.002.002Z"/>
</svg>
