<svg xmlns="http://www.w3.org/2000/svg" width="56" height="60" fill="none" viewBox="0 0 56 60">
  <path fill="#FDF6ED" stroke="#333" stroke-miterlimit="10" stroke-width="1.4" d="M50.973 16.496c4.453 6.413 4.379 13.298 4.323 15.999-.072 3.52-.32 16.076-10.366 22.537-9.52 6.123-22.32 3.222-28.6-2.86-2.564-2.485-1.778-3.31-7.59-14.637C2.371 25.131.781 24.855.701 21.223.51 12.276 9.9 2.003 20.08.808c5.737-.672 10.157 1.818 18.364 6.073 5.471 2.836 9.314 4.982 12.53 9.613v.002Z"/>
  <path fill="#F5A759" stroke="#333" stroke-miterlimit="10" stroke-width="1.4" d="M31.02 46.065c6.255 0 11.326-5.071 11.326-11.326 0-6.255-5.07-11.326-11.326-11.326-6.255 0-11.325 5.071-11.325 11.326 0 6.255 5.07 11.326 11.325 11.326Z"/>
</svg>
