<svg xmlns="http://www.w3.org/2000/svg" width="66" height="48" fill="none" viewBox="0 0 66 48">
  <path fill="#478940" d="M1.523 8.177a3.365 3.365 0 0 1 2.47-2.978c5.332-1.444 18.763-4.796 24.74-3.64 7.546 1.458 22.02 2.769 23.258 4.807 1.237 2.04 1.079 12.827.336 14.858-.743 2.03-20.142 11.064-24.212 11.064-4.701 0-22.498-7.626-25.22-10.651C.91 19.429 1.212 12.016 1.523 8.175v.002Z"/>
  <mask id="a" width="52" height="32" x="1" y="1" maskUnits="userSpaceOnUse" style="mask-type:luminance">
    <path fill="#fff" d="M1.523 8.177a3.365 3.365 0 0 1 2.47-2.978c5.332-1.444 18.763-4.796 24.74-3.64 7.546 1.458 22.02 2.769 23.258 4.807 1.237 2.04 1.079 12.827.336 14.858-.743 2.03-20.142 11.064-24.212 11.064-4.701 0-22.498-7.626-25.22-10.651C.91 19.429 1.212 12.016 1.523 8.175v.002Z"/>
  </mask>
  <g mask="url(#a)">
    <path fill="#A8D471" d="M54.075 4.47c-3.625-.352-7.228.444-10.667 1.533-1.744.552-3.464 1.18-5.189 1.79-1.58.558-3.18 1.062-4.751 1.644-1.572.581-2.985 1.195-4.314 2.095a11.19 11.19 0 0 0-3.255 3.344c-1.644 2.622-2.229 5.79-2.35 8.841-.151 3.804.391 7.604.128 11.406-.032.473-.08.947-.139 1.417-.023.172.165.323.323.323.192 0 .3-.149.323-.323.478-3.79-.011-7.6-.015-11.4-.003-3.047.35-6.213 1.74-8.968.68-1.346 1.605-2.54 2.775-3.497 1.169-.956 2.602-1.683 4.026-2.26 1.425-.576 3.03-1.08 4.55-1.605 1.704-.59 3.395-1.215 5.104-1.79 3.344-1.122 6.82-2.075 10.378-1.988.444.012.888.04 1.33.083.174.016.322-.16.322-.323 0-.19-.148-.306-.323-.323l.004.001Z" opacity=".82"/>
    <path fill="#A8D471" d="M49.468 3.745a47.934 47.934 0 0 0-9.839.693 46.355 46.355 0 0 0-9.375 2.654c-1.464.59-2.896 1.269-4.245 2.091-1.348.822-2.608 1.727-3.618 2.9-2.05 2.385-2.676 5.566-2.944 8.612-.15 1.708-.221 3.42-.392 5.125-.172 1.706-.402 3.42-.646 5.123l-.181 1.26c-.025.173.042.347.226.397.152.042.371-.051.397-.226.242-1.683.486-3.364.685-5.052.199-1.681.328-3.366.44-5.053.201-3.053.505-6.273 2.24-8.891.823-1.246 1.976-2.215 3.202-3.047 1.283-.872 2.659-1.599 4.077-2.224 2.92-1.287 6.022-2.204 9.147-2.83a47.378 47.378 0 0 1 10.825-.884c.405.014.415-.632 0-.646l.001-.002Z" opacity=".82"/>
    <path fill="#A8D471" d="M47.506 2.534c-3.487-.15-6.992-.297-10.474.038-1.731.168-3.454.453-5.132.915-1.679.462-3.307 1.106-4.9 1.813-1.592.708-3.115 1.414-4.615 2.22-1.421.763-2.734 1.7-3.79 2.93-1.057 1.228-1.8 2.635-2.31 4.16-.553 1.649-.898 3.367-1.3 5.057L12.43 30.405l-.317 1.333c-.097.404.527.576.623.171l2.518-10.582c.409-1.719.789-3.448 1.242-5.155.415-1.562.968-3.07 1.892-4.406.87-1.259 2.007-2.297 3.302-3.101 1.425-.885 2.974-1.577 4.49-2.284 1.517-.708 3.129-1.404 4.759-1.932 1.63-.528 3.3-.89 4.995-1.108 3.405-.437 6.85-.357 10.27-.218l1.299.055c.433.02.415-.628 0-.646l.003.002Z" opacity=".82"/>
    <path fill="#A8D471" d="M40.026 2.603c-3.215-1.124-6.67-1.21-10.016-.73-1.685.24-3.348.627-4.983 1.102-1.634.474-3.379 1.045-4.978 1.776a16.122 16.122 0 0 0-6.688 5.734c-1.897 2.86-2.605 6.271-3.467 9.542l-2.857 10.83-.35 1.325c-.106.402.518.573.624.171l2.806-10.635c.461-1.75.904-3.503 1.392-5.246.444-1.588.967-3.16 1.77-4.606a15.479 15.479 0 0 1 6-6.004c1.476-.817 3.085-1.374 4.685-1.886a40.71 40.71 0 0 1 4.907-1.263c3.229-.604 6.607-.717 9.8.145.4.109.793.231 1.184.369.391.137.562-.487.172-.624Z" opacity=".82"/>
    <path fill="#A8D471" d="M30.45-.995c-2.9.434-5.76 1.125-8.538 2.065-2.778.94-5.479 2.074-7.997 3.526-1.195.69-2.308 1.505-3.286 2.48-.935.931-1.751 1.981-2.476 3.083-1.517 2.306-2.67 4.854-3.696 7.41a59.454 59.454 0 0 0-2.94 9.588c-.088.406.536.579.624.172a60.05 60.05 0 0 1 2.5-8.463c.974-2.578 2.097-5.14 3.518-7.506 1.344-2.235 3.028-4.262 5.235-5.69 1.206-.782 2.505-1.423 3.807-2.027A48.441 48.441 0 0 1 21.206 2a49.504 49.504 0 0 1 9.413-2.37c.172-.027.268-.245.226-.398-.05-.184-.225-.252-.397-.226h.001Z" opacity=".82"/>
    <path fill="#A8D471" d="M15.761.016c-4.115.843-7.66 3.48-10.163 6.79-2.795 3.693-4.293 8.22-5.127 12.731-.528 2.858-.809 5.758-1.489 8.586-.097.404.525.577.624.171.594-2.47.885-4.998 1.3-7.502.38-2.295.898-4.57 1.662-6.77C3.982 9.95 6.305 6.112 9.784 3.487 11.607 2.11 13.69 1.1 15.932.639c.408-.084.235-.706-.17-.623Z" opacity=".82"/>
    <path fill="#333" d="M54.837 7.146c-.31-1.127-1.476-1.731-2.583-1.466-3.04.727-6.082 1.452-9.105 2.255-2.832.752-5.712 1.498-8.444 2.566-2.609 1.018-5.052 2.43-6.587 4.855-.01.016-.017.032-.029.048a13.39 13.39 0 0 0-.713-.305c-1.362-.536-2.745-1.027-4.116-1.539L6.466 7.282l-4.2-1.57c-1.586-.593-3.61.66-3.974 2.257-.292 1.28.099 2.4.937 3.175-.94 1.138-1.198 2.8-1.227 4.222-.062 3.093 1.282 5.985 3.182 8.348 1.695 2.11 4.021 3.707 6.365 5.018 2.48 1.39 5.084 2.613 7.758 3.578 2.686.969 5.552 1.578 8.412 1.632.744.015 1.487-.019 2.203-.148.01.148.018.297.027.446.081 1.13.908 2.1 2.1 2.1 1.074 0 2.18-.963 2.1-2.1a69.179 69.179 0 0 1-.164-3.66c.272-.738.41-1.534.537-2.332.23-1.462.462-2.922.693-4.384.261-1.658.678-3.36.189-5.02a4.679 4.679 0 0 0-.162-.453l.003-.01c.864-1.96 2.662-3.091 4.57-3.834 2.541-.99 5.211-1.696 7.84-2.405 3.221-.867 6.466-1.643 9.709-2.416 1.103-.264 1.759-1.517 1.466-2.583l.007.003Z" opacity=".2"/>
    <path fill="#F3D2B9" d="M57.515 8.413c-.472-1.457-1.743-2.029-3.179-1.806a83.08 83.08 0 0 0-17.397 4.67c-2.782 1.083-5.978 2.131-7.591 4.851-1.531 2.584-1.236 5.835-1.242 8.717-.009 3.579-.017 7.158-.023 10.737-.003 1.612 1.664 3.02 3.27 2.492 5.036-1.656 9.896-3.909 14.367-6.76 2.27-1.45 4.541-3.026 6.552-4.824 2.03-1.815 3.311-4.21 3.763-6.89.231-1.366.343-2.742.395-4.125.051-1.387-.023-2.727-.818-3.868l.096-.016c1.34-.208 2.2-1.956 1.804-3.178h.003Z"/>
    <path fill="#323333" d="M25.731 13.81a240.842 240.842 0 0 1-12.485-4.374 247.729 247.729 0 0 1-7.162-2.861l-.493-.207c-.043-.02-.089-.037-.132-.057-.007-.001-.021-.008-.036-.014a.583.583 0 0 1-.056-.024l-.057-.025-.132-.056a55.86 55.86 0 0 0-.512-.216c-.146-.062-.276-.102-.436-.057a.573.573 0 0 0-.338.26.572.572 0 0 0-.056.436c.042.13.127.281.26.338a262.02 262.02 0 0 0 4.181 1.74 255.48 255.48 0 0 0 8.26 3.172c1.385.503 2.776.994 4.172 1.472a255.648 255.648 0 0 0 4.725 1.567c.281.09.63-.105.696-.394a.579.579 0 0 0-.394-.696l-.005-.004Z"/>
    <path fill="#F5A759" d="M50.347 10.435c-.593-1.354-2.297-1.753-3.393-.664-.343.34-.186.956.286 1.08l2.454.645c.67.176 1.016-.654.655-1.061h-.002Zm-2.6 1.904c-.017-.349-.285-.648-.647-.646h-.89c-.537.003-.88.722-.456 1.105.397.36.87.478 1.393.39.215-.035.38-.226.445-.439a.59.59 0 0 0 .155-.412v.002Zm2.261.191c-.285-.596-1.042-.306-1.166.213-.309.33-.456.738-.394 1.226.075.612.483 1.079.904 1.498.431.43 1.042.075 1.103-.457.099-.864-.076-1.699-.447-2.48Zm-2.741 1.579c-.695-.005-1.47.09-2.098.405-.62.31-.99 1.021-.546 1.646.368.517 1.097.625 1.667.435a1.89 1.89 0 0 0 .958-.714c.224-.159.43-.338.536-.559a.804.804 0 0 0 .077-.362c.108-.373-.089-.85-.592-.853l-.002.002Zm1.331 2.053c-.662.018-1.543.283-1.567 1.084a.869.869 0 0 0 .506.825c.195.271.554.333.848.182.046-.022.222.012.276.01.147 0 .305-.014.445-.056.335-.102.625-.336.724-.684.221-.776-.51-1.382-1.234-1.363l.002.002Zm1.481 3.138c-.305-.58-1.02-.62-1.452-.263a.792.792 0 0 0-.27-.003.877.877 0 0 0-.73.886c.02.78.879 1.173 1.559 1.008.684-.165 1.256-.938.893-1.626V19.3Zm-16.778-2.38c-.111-.802-.98-1.222-1.699-.857-1.523.774-.785 2.877.084 3.914.144.62 1.132.814 1.234.085l.234-1.667c.066-.468.213-1 .147-1.476Zm2.465 4.72c-.011-.018-.024-.032-.036-.048a1.792 1.792 0 0 0-.426-1.105c-.443-.53-1.284-.712-1.806-.176-.502.518-.315 1.37.109 1.869.337.397.815.547 1.295.507.161.035.333.01.471-.1.055-.02.109-.039.162-.062.32-.14.394-.607.23-.883v-.002Zm-.321-3.579a.866.866 0 0 0-.393-.523.915.915 0 0 0-1.085.15c-.226.215-.299.535-.296.835.002.188.08.381.213.514a.772.772 0 0 0 .278.173c.044.022.09.04.138.051l.193.026a.73.73 0 0 0 .367-.098c.271-.128.468-.338.57-.62a.903.903 0 0 0 .015-.508ZM32.3 21.593c-.307-.489-1.118-.85-1.68-.667-.717.235-.741 1.278-.702 1.897.02.305.245.565.565.565a.591.591 0 0 0 .415-.188c.226.044.472.002.69-.075.286-.1.57-.244.733-.514a.977.977 0 0 0-.023-1.02l.002.002Zm2.092 2.192c-.416-.249-1.196-.459-1.66-.276a.658.658 0 0 0-.43.52c-.125.24-.1.557.2.733.44.26.996.457 1.515.415.728-.058 1.045-.99.373-1.39l.002-.002Zm-1.725 4.275c.063-.366-.059-.683-.175-1.025a4.059 4.059 0 0 1-.218-1.381c.005-.365-.345-.701-.688-.622-.273-.187-.7-.166-.854.233-.19.487-.378.975-.569 1.463-.132.342-.323.7-.368 1.069-.099.806.596 1.168 1.294 1.203.668.034 1.444-.174 1.576-.941l.002.001Zm3.181-2.543c-.573-.333-1.324.134-1.898.618-.134.049-.264.1-.392.157-.402.18-.696.584-.528 1.034.325.867 1.665.69 2.298.334.674-.378 1.484-1.588.522-2.145l-.002.002Zm.022-11.238c-.58-.05-1.319.085-1.763.481-.473.421-.612 1.051-.337 1.62.214.444.731.323.943-.005.575-.126 1.234-.33 1.655-.7.587-.52.241-1.332-.497-1.396h-.002Zm3.496.103c-.368-.741-1.331-.598-1.745.014-.471.697-.408 1.755-1.169 2.237 0 0-.003 0-.005.002-.575.218-.521 1.1.15 1.11.852.014 1.55-.456 2.045-1.12.425-.568 1.092-1.503.724-2.243Zm-.913 5.461a1.076 1.076 0 0 0-.499-.716c-.192-.12-.449-.155-.604-.324-.216-.238-.492-.214-.691-.068a.498.498 0 0 0-.581.127c-.403.422-.517 1.061-.188 1.565.362.553.966.622 1.567.525.555-.089 1.12-.468.996-1.108v-.001Zm-.361 2.787c-.299-.513-.987-.694-1.484-.361-.256.17-.385.442-.503.715l-.383.883c-.029.023-.058.044-.085.072-.355.345-.084.959.399.964l.523.005a.514.514 0 0 0 .531-.43c.196-.061.39-.134.56-.247.508-.341.765-1.047.442-1.602v.001Zm7.426-9.818a3.929 3.929 0 0 0-1.643-.255c-.596.034-.723.72-.286 1.053.354.27.855.336 1.268.176.12.032.24.07.359.116.284.11.62-.12.696-.394.087-.32-.108-.584-.394-.696Zm-.257-3.477c-.693.27-1.417.504-2.09.82-.567.267-.924.955-.354 1.45.252.217.566.228.88.248.325.02.67.07.99-.007.71-.17 1.015-.81 1.204-1.453a.55.55 0 0 0 .006-.297c.159-.404-.132-.957-.636-.76v-.001Zm-2.981 3.068a.47.47 0 0 0-.291-.37c-.039-.37-.422-.708-.83-.452l-.874.55c-.218.137-.459.266-.601.487-.34.527.039 1.055.541 1.266.541.228 1.185.362 1.678-.048.435-.36.481-.91.377-1.433Zm-3.9.178c-.301-.299-.842-.35-1.245-.308-.484.05-.888.24-1.266.54-.239.191-.198.602 0 .8a.526.526 0 0 0 .54.134c.042.01.087.015.135.015.477-.003 1.045.079 1.51-.037.519-.13.71-.766.327-1.144Zm3.509 2.519c-.242-.262-.58-.442-.92-.54a.52.52 0 0 0-.405.037.584.584 0 0 0-.407.06c-.276.161-.342.5-.203.773.15.293.394.546.683.704.315.172.764.302 1.108.147.512-.229.478-.817.142-1.18h.002Zm-1.745 1.755a.588.588 0 0 0-.282-.234.627.627 0 0 0-.48-.26c-.336 0-.528.26-.565.565-.037.31-.117.638-.055.948.074.381.4.683.8.672a.883.883 0 0 0 .823-.68c.086-.363-.052-.707-.239-1.013l-.002.002Zm2.757-.383c-.885-.155-1.445.268-1.637 1.132-.154.687-.144 2.07.914 1.938a.794.794 0 0 0 .242-.07c.33-.023.635-.287.493-.684-.017-.045-.094-.202-.099-.274.011.01.061-.013.126-.012.184.003.376-.014.56-.026.383-.024.777-.12.93-.52.322-.85-.886-1.37-1.529-1.484Zm.816-1.838a.524.524 0 0 0-.402-.171c-.309.014-.564.248-.566.565l-.004.691a.565.565 0 0 0 .489.556c.294.039.518-.137.62-.405.071-.186.14-.372.212-.556.098-.262-.094-.59-.35-.678v-.002Zm3.414 3.699c-.239-.235-.565-.35-.803-.579-.361-.349-.854-.077-.952.293a.733.733 0 0 0-.067.17.946.946 0 0 0 .017.42c.04.148.161.24.213.372.055.14-.055.35-.086.498-.055.256-.07.517.028.765.101.256.389.524.696.394.626-.263 1.332-.657 1.34-1.437a1.24 1.24 0 0 0-.386-.898v.002Zm-2.248 1.287c-.21-.328-.56-.427-.929-.444-.239-.012-.466.172-.54.399a.433.433 0 0 0-.06.096c-.09.194-.135.395-.063.605a.818.818 0 0 0 .374.458.94.94 0 0 0 1.021-.079c.312-.24.418-.691.199-1.034l-.002-.001Zm-5.53 6.024a1.367 1.367 0 0 0-.276-.373.777.777 0 0 0-.662-.192c-.178.027-.348.12-.506.203a4.278 4.278 0 0 0-.91.664.407.407 0 0 0 0 .572l.004.003c.018.202.18.397.399.384l1.066-.066c.18-.011.378-.006.552-.053a.646.646 0 0 0 .472-.485c.045-.239-.027-.449-.142-.655l.003-.002Zm.691-3.422-.087-.512c-.018-.108-.032-.215-.087-.312a.403.403 0 0 0-.288-.464c-.098-.022-.226-.022-.311.04-.304.23-.588.47-.716.842a.968.968 0 0 0-.014.579c.064.21.195.364.368.495.127.097.276.157.423.215a.724.724 0 0 0 .267.063.516.516 0 0 0 .444-.252c.126-.21.042-.47.003-.693l-.002-.001Zm1.641 2.292c-.051-.259-.105-.516-.156-.774-.057-.28-.076-.627-.356-.785-.334-.189-.668.099-.945.265l-.681.415a.388.388 0 0 0-.149.173.364.364 0 0 0-.174.244c-.04.21.077.439.299.486l.18.038c.11.138.286.206.454.264a3.86 3.86 0 0 0 1.159.197.389.389 0 0 0 .311-.17c.08-.111.087-.223.06-.353h-.002Zm.859-3.113a.682.682 0 0 0-.19-.344.678.678 0 0 0-.627-.187.625.625 0 0 0-.177.07.775.775 0 0 0-.27.27 1.118 1.118 0 0 0-.125.306c-.017.068-.034.136-.056.202a.313.313 0 0 1-.034.06.403.403 0 0 0-.084.24.405.405 0 0 0 .404.404l.018-.002a.443.443 0 0 0 .308.04c.22-.044.438-.141.598-.303a.936.936 0 0 0 .211-.344.766.766 0 0 0 .023-.413l.001.001Zm-1.82-2.096a.501.501 0 0 0-.179-.255.51.51 0 0 0-.457-.118c-.276.055-.536.177-.683.428-.19.321-.087.781.248.966.293.16.672.12.9-.138.218-.245.26-.573.171-.883ZM44.28 22.4c-.511-.372-1.067-.135-1.393.339a2.571 2.571 0 0 0-.426 1.645c.033.433.52.564.79.39a.41.41 0 0 0 .346-.055c.432-.307 1.023-.273 1.228-.863.17-.49-.142-1.164-.544-1.457h-.002Zm2.545-.915a.488.488 0 0 0-.322-.332.438.438 0 0 0-.278-.091c-.387.013-.762.094-.995.431a.755.755 0 0 0 .19 1.056.935.935 0 0 0 1.012-.012.976.976 0 0 0 .392-1.052Zm4.37-4.008c-.08-.188-.362-.283-.548-.223-.22.07-.328.245-.355.466l-.06.495c-.013.1.025.198.087.28a.42.42 0 0 0 .21.265c.21.112.554.075.663-.174.168-.378.166-.731.003-1.11Zm-2.686 3.86c-.136-.021-.273-.04-.409-.062-.134-.02-.252-.022-.373.049a.5.5 0 0 0-.21.256.468.468 0 0 0-.092.282c.012.235.215.518.485.484.156-.02.315-.039.471-.06.128-.016.25-.042.343-.142.072-.08.12-.17.134-.278.029-.214-.108-.495-.347-.531l-.002.002Z" opacity=".85"/>
  </g>
  <path stroke="#333" stroke-miterlimit="10" stroke-width="1.131" d="M1.523 8.177a3.365 3.365 0 0 1 2.47-2.978c5.332-1.444 18.763-4.796 24.74-3.64 7.546 1.458 22.02 2.769 23.258 4.807 1.237 2.04 1.079 12.827.336 14.858-.743 2.03-20.142 11.064-24.212 11.064-4.701 0-22.498-7.626-25.22-10.651C.91 19.429 1.212 12.016 1.523 8.175v.002Z"/>
  <path fill="#F3D2B9" d="M33.012 31.956c-1.12-.7-1.982-1.762-1.822-3.072.049-.39.039-1.328.66-1.683 1.756-1.006 13.98-6.34 18.72-7.525 3.393-.848 12.892 2.786 14.297 4.46.707.841.823 3.587.339 4.168-.485.582-14.149 8.86-16.872 9.5-2.816.66-11.938-3.732-15.324-5.848h.002Z"/>
  <mask id="b" width="35" height="19" x="31" y="19" maskUnits="userSpaceOnUse" style="mask-type:luminance">
    <path fill="#fff" d="M33.012 31.956c-1.12-.7-1.982-1.762-1.822-3.072.049-.39.039-1.328.66-1.683 1.756-1.006 13.98-6.34 18.72-7.525 3.393-.848 12.892 2.786 14.297 4.46.707.841.823 3.587.339 4.168-.485.582-14.149 8.86-16.872 9.5-2.816.66-11.938-3.732-15.324-5.848h.002Z"/>
  </mask>
  <g mask="url(#b)">
    <path fill="#F5A759" d="M70.308 26.715c-1.073-1.604-3.069-2.113-4.76-1.161l-8.05 4.519c-1.314.738-2.627 1.476-3.942 2.212-1.18.663-2.35 1.37-3.57 1.958a9.13 9.13 0 0 1-1.215.384c-.248.016-.495.02-.742.008-.9-.17-1.762-.471-2.615-.806-5.297-2.143-10.585-4.306-15.878-6.458-.9-.367-1.7-.59-2.674-.304-.8.234-1.66.87-2.043 1.626-.41.811-.608 1.788-.304 2.675.271.791.816 1.712 1.627 2.043 5.41 2.2 10.817 4.408 16.23 6.6.875.356 1.752.728 2.653 1.014.914.289 1.84.434 2.797.516 1.557.136 3.139-.218 4.563-.835 2.791-1.21 5.404-2.857 8.055-4.344 2.902-1.63 5.804-3.26 8.707-4.887 1.582-.889 2.177-3.242 1.16-4.76Z" opacity=".52"/>
    <path fill="#F5A759" d="M42.775 25.747c.023-.252-.129-.521-.455-.518-.764.006-4.908.346-3.742 1.919.403.544 1.466.873 2.119.845.966-.042 1.523-.897 2.114-1.551a.485.485 0 0 0-.036-.695Zm7.241 5.902c-.116-.407-.37-.963-.88-.927-1.121.08-.483 1.865-.12 2.414.05.419.764.54.942.044.176-.49.202-1.029.058-1.531Zm-2.886-.799c-.278-.516-.984-.798-1.59-.947l-.014-.01c-.674-.395-1.349.283-1.148.98.193.67 1.101 1.14 1.745 1.222.693.089 1.386-.541 1.007-1.247v.002Zm3.291-2.426c-.827-1.162-2.308.29-2.921.935-.341.358.033.867.411.812.08.092.196.15.344.144.625-.03 1.34-.152 1.855-.535.418-.311.64-.896.311-1.356Zm-3.535-.029a.48.48 0 0 0-.225-.159c-.81-.286-1.626-.647-2.458-.865-.644-.17-1.392.085-1.368.869.023.73.78 1.146 1.415 1.251.825.134 1.625-.173 2.447-.18.494-.004.655-.774.187-.915l.002-.001Zm-4.889.405a.715.715 0 0 0-.862-.37.406.406 0 0 0-.34.137c-.292.359-.526.784-.299 1.244.231.465.837.538 1.215.204.315-.28.462-.826.286-1.215Zm1.688 1.555c.008-.33-.071-.667-.367-.857a.665.665 0 0 0-.89.139.758.758 0 0 0-.118.67.433.433 0 0 0-.03.17.484.484 0 0 0 .474.474c.14 0 .277.003.416.003a.475.475 0 0 0 .463-.398.499.499 0 0 0 .05-.204l.002.003Zm-5.135-2.14c-.079-.332-.433-.586-.683-.781-.396-.31-.837-.587-1.311-.761-.382-.14-.826-.142-1.102.195-.252.306-.192.74.03 1.039.296.395.842.618 1.286.8a6.12 6.12 0 0 0 1.591.395c.533.066.591-.662.19-.888v.001Zm4.899-4.398c-.396-.503-1.258-.064-1.691.167-.377.2-.257.657.03.82.09.2.344.362.562.273.285-.115.61-.207.874-.358.32-.183.467-.591.225-.902Zm3.171 1.465c-.474-.247-1.157-.248-1.679-.337-.457-.08-1.063-.297-1.46.045a.657.657 0 0 0-.13.155c-.209.118-.341.373-.188.641.52.906 1.512 1.417 2.554 1.244.424-.071.959-.257 1.198-.646a.771.771 0 0 0-.297-1.1l.001-.002Zm1.989.958c-.575-.186-1.176.254-1.457.766a.453.453 0 0 0-.139.558c.087.4.708.53.889.123l.264-.11c.172-.07.369-.129.527-.227.423-.267.436-.944-.084-1.112v.002Zm3.006 3.1c-.356.022-.782.242-.948.563a.725.725 0 0 0-.042.562c.053.162.132.268.098.448-.048.252.071.512.331.583a.5.5 0 0 0 .53-.199.455.455 0 0 0 .25-.2c.196-.309.538-.687.553-1.068.014-.423-.373-.715-.772-.69Zm-5.651-6.235c-.21-.404-.716-.426-1.105-.308-.427.129-.704.533-.591.98.097.383.44.64.819.707a.51.51 0 0 0 .51-.182.367.367 0 0 0 .116-.089c.267-.318.465-.702.252-1.11l-.001.002Zm2.49.288c-.735-.092-1.497.366-1.938.925-.283.359.029.832.362.835.03.03.063.06.1.086.307.211.741.151 1.085.079.352-.073.825-.188 1.089-.45.578-.58-.03-1.393-.698-1.477v.002Zm.633-1.819c-.481-.974-1.875.107-2.334.588-.344.363.044.88.427.81.063.03.139.048.227.043.454-.023 1.09.06 1.473-.223.369-.272.398-.83.206-1.22l.001.002Zm2.059 4.12c-.455-.274-.982-.402-1.507-.438a.408.408 0 0 0-.334.118c-.266.084-.468.373-.276.675.417.661 1.54 1.296 2.285.758.456-.33.238-.87-.168-1.114v.001Zm1.767 1.136c-.323-.165-.865-.134-1.177.046-.431.25-.509.751-.464 1.205.025.249.193.464.457.474a.36.36 0 0 0 .21-.015c.386-.147.84-.296 1.137-.6.336-.34.27-.89-.163-1.112v.002Zm1.875 1.857c-.5-.144-1.051-.107-1.547.035a.442.442 0 0 0-.334.436.41.41 0 0 0 .073.558c.348.315.828.355 1.279.38.43.022.967-.009 1.127-.495.149-.45-.196-.798-.6-.914h.002Zm1.058-2.457c-.268-.371-.767-.538-1.12-.164-.167.174-.262.43-.37.64l-.375.73c-.16.31.039.6.29.69a.457.457 0 0 0 .563.086c.386-.205.983-.399 1.203-.81.211-.393.053-.834-.19-1.172Zm-1.766-1.602c-.122-.597-.774-1.014-1.367-.827-.753.238-.55 1.13-.517 1.73.024.409.462.544.735.402.097.02.2.02.304-.001.59-.121.964-.72.846-1.304h-.002Zm-3.274-1.5c-.454.026-.711.386-.86.77a.597.597 0 0 0-.132.137c-.154.227-.099.537.089.724.202.202.512.195.77.136.41-.096.833-.424.922-.85a.757.757 0 0 0-.79-.917Zm2.204-2.032c-.253-.178-.628-.195-.927-.26-.36-.08-.736-.194-1.108-.203-.67-.015-1.214.384-1.27 1.067-.022.283.172.434.39.454a.455.455 0 0 0 .289.111l.987.023c.407.082.814.192 1.239.045.497-.173.974-.832.398-1.235l.002-.002Zm2.079.98c-.292-.33-.79-.563-1.202-.302-.34.217-.525.66-.723.995-.162.27-.023.527.19.643a.401.401 0 0 0 .37.16c.402-.026.905-.053 1.253-.281.44-.286.441-.843.112-1.215Zm2.765 2.878-.34-1.502c-.116-.515-.965-.411-.931.126.04.65-.777.653-1.228.58-.437-.07-.69.4-.56.695-.01.194.09.38.34.431a13.46 13.46 0 0 0 2.262.271c.321.008.523-.308.457-.6Zm.826.868a4.797 4.797 0 0 0-1.926.353c-.44.181-.454.737 0 .916l.056.023a.455.455 0 0 0 .162.12c.793.363 1.725.122 2.119-.697.155-.321-.029-.706-.41-.714v-.001Zm-1.068 2.324c-.073-.265-.331-.378-.583-.331a1.692 1.692 0 0 0-1.136.819.473.473 0 0 0 .123.612c.203.152.433.114.623-.037l.59-.467a.496.496 0 0 1 .053-.011c.252-.047.396-.353.331-.584l-.001-.001Zm2.246-5.276c-.407-.25-.97-.167-1.193.282-.212.428-.026 1.066.088 1.502.093.35.453.404.698.267a.57.57 0 0 0 .105-.009c.481-.077.98-.345 1.01-.893.022-.433-.352-.932-.708-1.15Zm1.152 2.688c-.107-.366-.49-.647-.874-.61a.586.586 0 0 0-.29.11c-.177.032-.343.157-.379.337l-.111.579c-.049.253-.096.507.1.713.308.33.796.134 1.11-.084.334-.234.563-.63.444-1.045Zm1.4-1.917c-.404-.289-1.072-.247-1.227.306-.135.48.234.978.44 1.387.117.23.438.294.65.17a.462.462 0 0 0 .18-.194.692.692 0 0 0 .542-.482c.161-.508-.2-.912-.585-1.187Zm-5.24-2.089c-.243-.12-.489-.25-.74-.348-.482-.189-1.121.034-1.118.63.003.543.6.89 1.05 1.042.168.056.308.02.408-.066.12.024.242.022.368-.016a.671.671 0 0 0 .467-.679c-.018-.268-.205-.45-.436-.563Z" opacity=".85"/>
  </g>
  <path stroke="#333" stroke-miterlimit="10" stroke-width=".808" d="M33.012 31.956c-1.12-.7-1.982-1.762-1.822-3.072.049-.39.039-1.328.66-1.683 1.756-1.006 13.98-6.34 18.72-7.525 3.393-.848 12.892 2.786 14.297 4.46.707.841.823 3.587.339 4.168-.485.582-14.149 8.86-16.872 9.5-2.816.66-11.938-3.732-15.324-5.848h.002Z"/>
  <path fill="#C07E41" d="M33.012 41.117c-1.12-.7-1.982-1.762-1.822-3.072.049-.39.039-1.328.66-1.683 1.756-1.006 13.98-6.34 18.72-7.525 3.393-.848 12.892 2.786 14.297 4.46.707.84.823 3.587.339 4.168-.485.581-14.149 8.86-16.872 9.5-2.816.66-11.938-3.733-15.324-5.848h.002Z"/>
  <mask id="c" width="35" height="20" x="31" y="28" maskUnits="userSpaceOnUse" style="mask-type:luminance">
    <path fill="#fff" d="M33.012 41.117c-1.12-.7-1.982-1.762-1.822-3.072.049-.39.039-1.328.66-1.683 1.756-1.006 13.98-6.34 18.72-7.525 3.393-.848 12.892 2.786 14.297 4.46.707.84.823 3.587.339 4.168-.485.581-14.149 8.86-16.872 9.5-2.816.66-11.938-3.733-15.324-5.848h.002Z"/>
  </mask>
  <g mask="url(#c)">
    <path fill="#333" d="M70.308 35.876c-1.073-1.604-3.069-2.113-4.76-1.161l-8.05 4.518c-1.314.739-2.627 1.477-3.942 2.213-1.18.662-2.35 1.37-3.57 1.958a9.26 9.26 0 0 1-1.215.384c-.248.016-.495.02-.742.008-.9-.17-1.762-.471-2.615-.806-5.297-2.143-10.585-4.306-15.878-6.459-.9-.366-1.7-.59-2.674-.303-.8.234-1.66.87-2.043 1.626-.41.811-.608 1.788-.304 2.675.271.791.816 1.712 1.627 2.043 5.41 2.2 10.817 4.407 16.23 6.6.875.356 1.752.728 2.653 1.013.914.29 1.84.435 2.797.517 1.557.136 3.139-.218 4.563-.835 2.791-1.21 5.404-2.857 8.055-4.344 2.902-1.63 5.804-3.26 8.707-4.888 1.582-.888 2.177-3.241 1.16-4.76Z" opacity=".1"/>
    <path fill="#F3D2B9" d="M42.775 34.908c.023-.252-.129-.521-.455-.518-.764.006-4.908.346-3.742 1.919.403.544 1.466.873 2.119.844.966-.042 1.523-.896 2.114-1.55a.485.485 0 0 0-.036-.695Zm7.241 5.9c-.116-.407-.37-.962-.88-.927-1.121.081-.483 1.866-.12 2.415.05.418.764.54.942.043a2.5 2.5 0 0 0 .058-1.53Zm-2.886-.799c-.278-.515-.984-.798-1.59-.947l-.014-.01c-.674-.395-1.349.283-1.148.98.193.67 1.101 1.14 1.745 1.222.693.089 1.386-.541 1.007-1.247v.002Zm3.291-2.424c-.827-1.162-2.308.29-2.921.935-.341.358.033.867.411.812.08.092.196.15.344.144.625-.03 1.34-.152 1.855-.535.418-.312.64-.896.311-1.356Zm-3.535-.031a.48.48 0 0 0-.225-.159c-.81-.285-1.626-.647-2.458-.865-.644-.17-1.392.085-1.368.869.023.73.78 1.146 1.415 1.252.825.133 1.625-.173 2.447-.18.494-.005.655-.775.187-.916l.002-.001Zm-4.889.406a.715.715 0 0 0-.862-.369.405.405 0 0 0-.34.137c-.292.359-.526.784-.299 1.244.231.465.837.538 1.215.203.315-.28.462-.825.286-1.214Zm1.688 1.556c.008-.33-.071-.667-.367-.857a.665.665 0 0 0-.89.139.758.758 0 0 0-.118.67.433.433 0 0 0-.03.17.484.484 0 0 0 .474.474c.14 0 .277.003.416.003a.475.475 0 0 0 .463-.398.498.498 0 0 0 .05-.204l.002.003Zm-5.135-2.142c-.079-.332-.433-.586-.683-.781-.396-.31-.837-.586-1.311-.76-.382-.141-.826-.143-1.102.195-.252.305-.192.74.03 1.038.296.396.842.619 1.286.801a6.12 6.12 0 0 0 1.591.394c.533.066.591-.662.19-.888v.002Zm4.899-4.396c-.396-.504-1.258-.064-1.691.167-.377.2-.257.657.03.82.09.2.344.362.562.273.285-.115.61-.207.874-.358.32-.183.467-.592.225-.902Zm3.171 1.465c-.474-.247-1.157-.248-1.679-.337-.457-.08-1.063-.297-1.46.045a.654.654 0 0 0-.13.155c-.209.118-.341.373-.188.641.52.906 1.512 1.417 2.554 1.244.424-.071.959-.257 1.198-.646a.771.771 0 0 0-.297-1.1l.001-.002Zm1.989.957c-.575-.186-1.176.253-1.457.765a.453.453 0 0 0-.139.559c.087.399.708.53.889.123.088-.038.176-.073.264-.11.172-.071.369-.13.527-.228.423-.267.436-.943-.084-1.111v.001Zm3.006 3.099c-.356.022-.782.242-.948.563a.725.725 0 0 0-.042.562c.053.162.132.268.098.448-.048.252.071.512.331.583a.5.5 0 0 0 .53-.199.455.455 0 0 0 .25-.2c.196-.309.538-.687.553-1.068.014-.423-.373-.715-.772-.69Zm-5.651-6.235c-.21-.403-.716-.426-1.105-.308-.427.13-.704.533-.591.98.097.383.44.64.819.708a.51.51 0 0 0 .51-.183.366.366 0 0 0 .116-.089c.267-.318.465-.702.252-1.11l-.001.002Zm2.49.288c-.735-.092-1.497.367-1.938.925-.283.359.029.832.362.835.03.031.063.06.1.086.307.211.741.152 1.085.079.352-.073.825-.187 1.089-.45.578-.58-.03-1.393-.698-1.477v.002Zm.633-1.817c-.481-.974-1.875.107-2.334.588-.344.363.044.88.427.809.063.03.139.048.227.044.454-.023 1.09.06 1.473-.223.369-.272.398-.83.206-1.22l.001.002Zm2.059 4.118c-.455-.274-.982-.402-1.507-.437a.408.408 0 0 0-.334.118c-.266.084-.468.373-.276.675.417.66 1.54 1.295 2.285.757.456-.33.238-.87-.168-1.114v.001Zm1.767 1.136c-.323-.165-.865-.134-1.177.047-.431.25-.509.75-.464 1.205.025.248.193.463.457.473a.36.36 0 0 0 .21-.015c.386-.147.84-.295 1.137-.599.336-.34.27-.892-.163-1.113v.002Zm1.875 1.859c-.5-.144-1.051-.107-1.547.035a.442.442 0 0 0-.334.436.41.41 0 0 0 .073.558c.348.315.828.355 1.279.38.43.022.967-.009 1.127-.495.149-.45-.196-.798-.6-.914h.002Zm1.058-2.457c-.268-.371-.767-.538-1.12-.164-.167.174-.262.43-.37.64l-.375.73c-.16.31.039.6.29.69a.457.457 0 0 0 .563.086c.386-.205.983-.399 1.203-.81.211-.393.053-.834-.19-1.172ZM54.08 33.79c-.122-.599-.774-1.015-1.367-.828-.753.238-.55 1.13-.517 1.73.024.409.462.544.735.402.097.02.2.02.304-.002.59-.12.964-.718.846-1.303h-.002Zm-3.274-1.503c-.454.026-.711.386-.86.77a.597.597 0 0 0-.132.138c-.154.226-.099.536.089.723.202.202.512.196.77.136.41-.095.833-.423.922-.85a.757.757 0 0 0-.79-.917Zm2.204-2.032c-.253-.177-.628-.195-.927-.26-.36-.079-.736-.194-1.108-.203-.67-.015-1.214.384-1.27 1.067-.022.283.172.435.39.454a.455.455 0 0 0 .289.112l.987.022c.407.082.814.192 1.239.045.497-.172.974-.831.398-1.235l.002-.002Zm2.079.981c-.292-.33-.79-.564-1.202-.302-.34.216-.525.66-.723.994-.162.27-.023.527.19.643a.401.401 0 0 0 .37.16c.402-.026.905-.053 1.253-.28.44-.287.441-.844.112-1.215Zm2.765 2.879-.34-1.502c-.116-.515-.965-.412-.931.126.04.65-.777.653-1.228.58-.437-.071-.69.399-.56.695-.01.193.09.38.34.43a13.36 13.36 0 0 0 2.262.272c.321.008.523-.308.457-.6Zm.826.868a4.796 4.796 0 0 0-1.926.353c-.44.181-.454.737 0 .916.02.008.037.014.056.023a.453.453 0 0 0 .162.12c.793.362 1.725.122 2.119-.697.155-.321-.029-.706-.41-.714v-.002Zm-1.068 2.322c-.073-.265-.331-.378-.583-.331a1.692 1.692 0 0 0-1.136.819.473.473 0 0 0 .123.612c.203.152.433.115.623-.037l.59-.467a.496.496 0 0 1 .053-.011c.252-.047.396-.352.331-.583l-.001-.002Zm2.246-5.276c-.407-.25-.97-.167-1.193.282-.212.428-.026 1.066.088 1.502.093.35.453.404.698.267a.58.58 0 0 0 .105-.008c.481-.078.98-.346 1.01-.894.022-.432-.352-.931-.708-1.15Zm1.152 2.689c-.107-.367-.49-.648-.874-.61a.585.585 0 0 0-.29.11c-.177.031-.343.156-.379.337l-.111.578c-.049.253-.096.507.1.714.308.33.796.134 1.11-.084.334-.234.563-.63.444-1.045Zm1.4-1.918c-.404-.288-1.072-.246-1.227.306-.135.481.234.979.44 1.387.117.23.438.294.65.17a.464.464 0 0 0 .18-.194.693.693 0 0 0 .542-.481c.161-.51-.2-.913-.585-1.187Zm-5.24-2.09c-.243-.119-.489-.248-.74-.347-.482-.189-1.121.034-1.118.63.003.543.6.89 1.05 1.042.168.057.308.02.408-.066.12.024.242.022.368-.016a.671.671 0 0 0 .467-.679c-.018-.268-.205-.45-.436-.563Z" opacity=".25"/>
  </g>
  <path stroke="#333" stroke-miterlimit="10" stroke-width=".808" d="M33.012 41.117c-1.12-.7-1.982-1.762-1.822-3.072.049-.39.039-1.328.66-1.683 1.756-1.006 13.98-6.34 18.72-7.525 3.393-.848 12.892 2.786 14.297 4.46.707.84.823 3.587.339 4.168-.485.581-14.149 8.86-16.872 9.5-2.816.66-11.938-3.733-15.324-5.848h.002Z"/>
</svg>
