<svg xmlns="http://www.w3.org/2000/svg" width="70" height="71" fill="none" viewBox="0 0 70 71">
  <path fill="#F9CB6A" d="m44.562 13.603 14.327 9.374-20.405 45.126C26.06 73.649 12.303 70.73 5.139 61.79-1.677 53.286.128 42.646.471 40.794 15.167 31.73 29.863 22.665 44.56 13.602l.002.001Z"/>
  <path fill="#F5A759" stroke="#333" stroke-miterlimit="10" stroke-width=".758" d="M52.045 26.408a8.54 8.54 0 1 0 0-17.081 8.54 8.54 0 0 0 0 17.08Z"/>
  <path fill="#F5A759" stroke="#333" stroke-miterlimit="10" stroke-width=".65" d="M52.127 29.466a1.206 1.206 0 0 1 1.215 1.197l.025 3.53a1.206 1.206 0 0 1-2.412.019l-.025-3.532a1.206 1.206 0 0 1 1.197-1.214Zm-8.225-3.34c.475.468.48 1.231.012 1.706l-2.48 2.515a1.206 1.206 0 1 1-1.717-1.693l2.48-2.515a1.206 1.206 0 0 1 1.705-.013Zm-3.456-8.176a1.206 1.206 0 0 1-1.197 1.214l-3.53.025a1.206 1.206 0 0 1-.019-2.411l3.531-.025a1.206 1.206 0 0 1 1.215 1.197Zm3.338-8.225a1.207 1.207 0 0 1-1.706.012l-2.515-2.48a1.206 1.206 0 1 1 1.693-1.717l2.515 2.479c.475.468.48 1.23.013 1.706Zm8.178-3.456a1.206 1.206 0 0 1-1.214-1.197l-.025-3.531a1.206 1.206 0 0 1 2.411-.018l.025 3.531a1.206 1.206 0 0 1-1.197 1.215Zm8.225 3.337a1.206 1.206 0 0 1-.012-1.705l2.48-2.516a1.206 1.206 0 1 1 1.717 1.694l-2.48 2.515c-.467.475-1.23.48-1.705.012Zm3.456 8.177a1.206 1.206 0 0 1 1.197-1.215l3.531-.025a1.206 1.206 0 0 1 .018 2.412l-3.531.025a1.206 1.206 0 0 1-1.215-1.197Zm-3.337 8.227a1.206 1.206 0 0 1 1.705-.013l2.516 2.48a1.206 1.206 0 1 1-1.694 1.718l-2.515-2.48a1.206 1.206 0 0 1-.012-1.705Z"/>
</svg>
