<svg xmlns="http://www.w3.org/2000/svg" width="64" height="78" fill="none" viewBox="0 0 64 78">
  <path fill="#A8D471" d="M1.238 69.605c1.114-7.742 3.444-13.484 5.276-17.155 1.757-3.522 3.23-5.487 5.414-7.122 3.425-2.562 7.21-3.283 9.34-3.523h21.564c2.132.24 5.917.961 9.34 3.523 2.184 1.633 3.657 3.598 5.414 7.122 1.833 3.671 4.162 9.413 5.276 17.155-5.258 2.745-15.982 7.453-30.297 7.563-14.892.116-26.045-4.806-31.329-7.563h.002Z"/>
  <path fill="#F3D2BA" d="M49.855 27.273c.008 1.602.146 8.267-4.384 12.565-2.76 2.619-7.037 4.209-13.42 4.209-6.384 0-10.662-1.59-13.422-4.209-4.536-4.306-4.396-10.906-4.383-12.565 2.013-7.923 8.873-13.62 16.76-14.064 8.602-.483 16.609 5.387 18.846 14.064h.003Z"/>
  <path fill="#F3D2BA" d="M15.013 34.697a2.958 2.958 0 0 1-.767.075c-1.595-.055-3.944-1.46-3.944-3.944 0-2.163 1.78-3.942 3.944-3.944l.767 7.813Zm34.843-7.811a3.944 3.944 0 1 1-.74 7.819l.74-7.817v-.002Z"/>
  <path fill="#7D5045" d="M51.823 11.869C48.095 3.589 38.11-.436 30.625 1.464a14.758 14.758 0 0 0-4.395 1.938l-1.873.324a12.866 12.866 0 0 0-5.041.71c-5.628 2.015-7.836 7.455-8.273 8.53-2.804 6.91.468 13.315.993 14.307l2.431-.542a21.128 21.128 0 0 0 7.626-3.808 21.112 21.112 0 0 0 5.21-6.019l-.44-1.568c.813 2.265 2.404 5.244 5.505 7.064 2.235 1.313 6.206 2.582 7.782 1.144 1.323.878 2.722 1.43 3.946 1.91a22.91 22.91 0 0 0 5.756 1.43l1.806.073c.611-1.446 3.275-8.18.161-15.09l.004.002Z"/>
  <path stroke="#333" stroke-linecap="round" stroke-linejoin="round" stroke-width="1.25" d="M42.834 41.805c2.132.24 5.915.961 9.34 3.523 2.185 1.633 3.657 3.598 5.414 7.12 1.833 3.671 4.162 9.413 5.276 17.155M21.27 41.805c-2.131.24-5.915.961-9.34 3.523-2.184 1.633-3.657 3.598-5.414 7.12-1.832 3.671-4.162 9.413-5.276 17.155"/>
  <path stroke="#333" stroke-linecap="round" stroke-linejoin="round" stroke-width="1.25" d="M49.855 27.273c.008 1.602.146 8.267-4.384 12.565-2.76 2.619-7.037 4.209-13.42 4.209-6.384 0-10.662-1.59-13.422-4.209-4.536-4.306-4.396-10.906-4.383-12.565"/>
  <path stroke="#333" stroke-linecap="round" stroke-linejoin="round" stroke-width="1.25" d="M27.656 36.556c.293.275 2.346 2.126 5.235 1.745 1.891-.25 3.12-1.322 3.557-1.745M26.165 12.842c.363 1.758 1.67 6.897 6.205 9.56 2.319 1.362 6.505 2.678 7.949.973.998-1.177.393-3.447-.452-4.783-1.12-1.767-3.344-2.946-3.977-2.416-.676.564.35 3.192 1.696 4.98 1.86 2.47 4.44 3.484 6.514 4.298a22.905 22.905 0 0 0 5.756 1.43"/>
  <path stroke="#333" stroke-linecap="round" stroke-linejoin="round" stroke-width="1.25" d="M27.306 16.904a21.076 21.076 0 0 1-5.211 6.02 21.094 21.094 0 0 1-7.625 3.807m.543 7.966a2.962 2.962 0 0 1-.767.075c-1.595-.055-3.944-1.46-3.944-3.944 0-2.162 1.78-3.942 3.944-3.944m35.61.002a3.944 3.944 0 1 1-.74 7.819M26.23 3.402a14.757 14.757 0 0 1 4.395-1.938c7.483-1.9 17.468 2.128 21.196 10.405 3.112 6.91.45 13.645-.16 15.09m-39.623.314c-.527-.992-3.797-7.398-.993-14.307.437-1.077 2.643-6.515 8.273-8.53a12.823 12.823 0 0 1 5.041-.71m-1.537 28.175a2.758 2.758 0 0 1 2.452-1.368c1.484.044 2.243 1.29 2.288 1.368m8.978 0a2.758 2.758 0 0 1 2.451-1.368c1.485.044 2.244 1.29 2.289 1.368m-4.74-5.697a3.395 3.395 0 0 1 1.904-.823c1.19-.11 2.046.46 2.268.617m-13.15.206a3.395 3.395 0 0 0-1.904-.823c-1.19-.11-2.046.46-2.268.617m23.392 26.87a38.33 38.33 0 0 1 2.852 6.505 38.255 38.255 0 0 1 1.782 8.556M17.33 52.868a38.338 38.338 0 0 0-2.852 6.505 38.26 38.26 0 0 0-1.782 8.556"/>
  <path fill="#F3D2BA" d="M32.518 43.625v-2.184c0-.733.684-1.868 1.527-1.868.752 0 1.391 1.014 1.51 1.66l1.59 8.727c.05.281.177.546.368.776.104.124.187.26.253.403.105.236.126.427.13.476.045.36.88 2.816 2.052 9.255a3.585 3.585 0 0 1-.885 3.659 3.593 3.593 0 0 1-3.904.729 5.677 5.677 0 0 1-1.525-1.582c-.46-.713-.782-1.584-.916-2.892-.208-2.015-.047-3.724.641-8.629a1.64 1.64 0 0 0-.014-.546c-.37-1.881-1.509-8.14-.242-9.403.17-.169.574-.572 1.069-.531.297.024.537.203.714.405.24.273.375.605.408.945l.653 6.56c.008.092.023.184.041.275l.383 1.898m-4.201-8.133v-2.184c0-.733-.684-1.868-1.527-1.868-.752 0-1.39 1.014-1.509 1.66l-1.59 8.727a1.68 1.68 0 0 1-.369.776c-.104.124-.187.26-.252.403a1.516 1.516 0 0 0-.13.476c-.045.36-.88 2.816-2.053 9.255a3.58 3.58 0 0 0 1.047 3.824 3.573 3.573 0 0 0 3.742.564 5.678 5.678 0 0 0 1.525-1.582c.46-.713.782-1.584.917-2.892.207-2.015.046-3.724-.642-8.629a1.638 1.638 0 0 1 .014-.546c.37-1.881 1.51-8.14.243-9.403-.171-.169-.575-.572-1.07-.531-.297.024-.537.203-.714.405-.24.273-.375.605-.407.945l-.654 6.56a2.554 2.554 0 0 1-.04.275l-.384 1.898"/>
  <path stroke="#333" stroke-linecap="round" stroke-linejoin="round" d="M29.531 65.256a5.676 5.676 0 0 0 1.525-1.582c.46-.713.782-1.584.916-2.892.208-2.015.047-3.724-.64-8.629a1.635 1.635 0 0 1 .013-.546c.37-1.881 1.51-8.14.243-9.403-.171-.169-.575-.572-1.07-.531-.297.024-.537.203-.714.405-.24.273-.375.605-.407.945l-.654 6.56a2.55 2.55 0 0 1-.04.275l-.383 1.898"/>
  <path stroke="#333" stroke-linecap="round" stroke-linejoin="round" d="M32.17 43.625v-2.184c0-.733-.684-1.868-1.527-1.868-.751 0-1.39 1.014-1.509 1.66l-1.59 8.727a1.68 1.68 0 0 1-.369.776c-.104.124-.187.26-.252.403a1.51 1.51 0 0 0-.13.476c-.045.36-.88 2.816-2.053 9.255m7.625-14.917v14.915m2.795 4.388a5.678 5.678 0 0 1-1.526-1.582c-.46-.713-.782-1.584-.916-2.892-.208-2.015-.047-3.724.641-8.629.027-.181.02-.364-.014-.546-.37-1.881-1.509-8.14-.242-9.403.17-.169.574-.572 1.069-.531.297.024.537.203.714.405.24.273.375.605.407.945l.654 6.56c.008.092.022.184.04.275l.384 1.898"/>
  <path stroke="#333" stroke-linecap="round" stroke-linejoin="round" d="M32.518 43.625v-2.184c0-.733.684-1.868 1.527-1.868.752 0 1.391 1.014 1.51 1.66l1.59 8.727c.05.281.177.546.368.776.104.124.187.26.253.403.105.236.126.427.13.476.045.36.88 2.816 2.052 9.255m-3.361 4.653a3.813 3.813 0 0 0 2.286-.831c1.269-1.03 1.373-2.525 1.387-2.773m1.248 0a26.484 26.484 0 0 1 5.268 4.852m-6.04 5.728a26.763 26.763 0 0 1-2.341-2.798 26.139 26.139 0 0 1-1.88-2.99m-8.44-1.188a3.814 3.814 0 0 1-2.286-.831c-1.269-1.03-1.373-2.525-1.387-2.773m-1.248 0a26.485 26.485 0 0 0-5.268 4.852m6.039 5.728c.742-.772 1.544-1.7 2.342-2.798a26.167 26.167 0 0 0 1.88-2.99"/>
</svg>
