<svg xmlns="http://www.w3.org/2000/svg" width="56" height="62" fill="none" viewBox="0 0 56 62">
  <path fill="#7D5045" d="M3.677 34.01s4.623-6.912 13.384-2.64c8.762 4.27 20.164-.97 20.164-.97s4.354-1.579 8.165 2.578c3.81 4.158 2.923 4.18 2.923 4.18s-22.996 6.01-23.204 5.878c-.209-.13-21.43-9.025-21.43-9.025h-.002Z"/>
  <path fill="#F06061" d="M44.223 49.619c-9.698 4.231-31.295 6.025-42.113-3.471 0 0-3.51-4.823.555-10.858l7.044-1.28s5.195 6.815 15.188 6.313"/>
  <path fill="#F06061" d="m2.665 35.29 7.044-1.28s5.195 6.815 15.188 6.313c9.992-.502 11.763-2.609 15.317-6.104l6.93 1.248s6.775 9.92-2.923 14.152c-9.697 4.231-31.294 6.025-42.113-3.471 0 0-3.509-4.823.555-10.858h.002Z"/>
  <path fill="#fff" d="M10.326 50.476s6.447-4.842 15.552-4.842c9.104 0 15.512 4.842 15.512 4.842s-13.936 6.559-31.062 0h-.002ZM8.259 30.575s2.903 10.072 16.64 9.748c13.735-.324 17.353-9.556 17.353-9.556s-2.166-1.907-10.003.998c-7.837 2.906-15.805-.793-15.805-.793s-5.366-1.76-8.185-.397Z"/>
  <path fill="#66A9EB" stroke="#333" stroke-linecap="round" stroke-linejoin="round" stroke-width="1.25" d="M37.58 1H12.634a7.39 7.39 0 1 0 0 14.78h24.948a7.39 7.39 0 1 0 0-14.78Z"/>
  <path fill="#66A9EB" d="M16.315 14.377c-.114 1.254.002 2.697.869 3.837 1.122 1.472 2.872 1.612 2.814 1.841-.085.333-3.906.66-6.344-1.841-1.145-1.174-1.541-2.516-1.688-3.173"/>
  <path stroke="#333" stroke-linecap="round" stroke-linejoin="round" stroke-width="1.25" d="M16.315 14.377c-.114 1.254.002 2.697.869 3.837 1.122 1.472 2.872 1.612 2.814 1.841-.085.333-3.906.66-6.344-1.841-1.145-1.174-1.541-2.516-1.688-3.173"/>
  <path stroke="#FFFCF9" stroke-dasharray="2.5 2.5" stroke-linecap="round" stroke-linejoin="round" stroke-width="1.25" d="M14.297 8.389h21.62"/>
  <path stroke="#333" stroke-linecap="round" stroke-linejoin="round" stroke-width="1.25" d="M8.259 30.575c4.659-2.05 7.054 1.558 16.113 1.849 10.127.328 13.243-3.983 18.226-1.497 4.825 2.407 8.353 9.663 6.44 14.18-4.68 11.07-43.909 10.231-47.999-.796-1.676-4.52 2.252-11.55 7.22-13.736Z"/>
  <path stroke="#333" stroke-linecap="round" stroke-linejoin="round" stroke-width="1.25" d="M8.362 30.677c.383 1.266.89 2.2 1.314 2.852 5.81 8.908 25.118 9.21 30.905 0 .307-.488.859-1.453 1.267-2.917M10.14 50.819c8.616-6.977 24.045-6.803 31.472-.149m-1.397-16.451c2.621.43 5.063.938 7.31 1.481"/>
  <path stroke="#333" stroke-linecap="round" stroke-linejoin="round" stroke-width="1.25" d="M3.062 35.29c2.207-.492 4.36-.945 6.92-1.321m11.598-8.091c.74.368 1.929.837 3.451.947 2.444.176 4.308-.678 5.12-1.112m-.001 35.172a9.273 9.273 0 0 0-3.45-.946c-2.443-.176-4.307.677-5.12 1.112"/>
  <path fill="#F06061" stroke="#333" stroke-miterlimit="10" d="M45.652 37.973c5.376 0 9.734-4.358 9.734-9.734s-4.358-9.734-9.734-9.734-9.733 4.358-9.733 9.734 4.357 9.734 9.733 9.734Z"/>
  <path fill="#fff" stroke="#333" stroke-miterlimit="10" d="m47.485 28.239 2.383-2.383a1.296 1.296 0 0 0-1.833-1.833l-2.383 2.383-2.383-2.383a1.296 1.296 0 0 0-1.833 1.833l2.383 2.383-2.383 2.383a1.296 1.296 0 0 0 1.831 1.833l2.383-2.383 2.383 2.383c.254.253.585.38.916.38a1.298 1.298 0 0 0 .916-2.212l-2.383-2.384h.003Z"/>
</svg>
