<svg xmlns="http://www.w3.org/2000/svg" width="58" height="58" fill="none" viewBox="0 0 58 58">
  <path fill="#F06061" stroke="#333" stroke-miterlimit="10" stroke-width="2" d="M29 57c15.464 0 28-12.536 28-28S44.464 1 29 1 1 13.536 1 29s12.536 28 28 28Z"/>
  <path fill="#fff" stroke="#333" stroke-miterlimit="10" stroke-width="2" d="m34.273 29 6.853-6.853a3.727 3.727 0 1 0-5.273-5.271L29 23.729l-6.853-6.853a3.729 3.729 0 0 0-5.273 5.27L23.727 29l-6.853 6.853a3.727 3.727 0 1 0 5.271 5.271l6.853-6.853 6.854 6.853a3.712 3.712 0 0 0 2.635 1.092 3.727 3.727 0 0 0 2.635-6.363L34.27 29h.004Z"/>
</svg>
