<svg xmlns="http://www.w3.org/2000/svg" width="72" height="57" fill="none" viewBox="0 0 72 57">
  <path fill="#513B8C" d="M49.069 29.8a38.52 38.52 0 0 1 21.57 6.887l-2.217 19.288H37.904L49.07 29.801Z"/>
  <path fill="#F3D2BA" d="M24.556 23.91c.98.498 5.08 2.504 6.278 6.61.73 2.502.358 5.606-1.644 9.494-2.001 3.887-4.312 5.993-6.772 6.853-4.044 1.412-8.02-.742-9.028-1.27-5.153-3.595-6.797-10.523-3.864-15.967 2.854-5.293 9.275-7.766 15.027-5.717l.003-.002Z"/>
  <path fill="#8376D6" d="M23.329 55.989c.444-3.66 1.53-10.945 4.083-17.654.723-1.904 1.713-4.145 3.712-6.353.822-.908 2.455-2.675 5.154-3.823 2.13-.906 3.93-.974 6.034-1.064 2.747-.12 4.942-.213 5.895.475 1.805 1.3 1.57 7.151-8.71 28.419H23.33Z"/>
  <path stroke="#333" stroke-linecap="round" stroke-linejoin="round" stroke-width=".851" d="M23.249 40.34c.259-.093 2.03-.76 2.704-2.64.44-1.232.173-2.314.053-2.713"/>
  <path fill="#F3D2BA" d="M24.322 23.788a2.7 2.7 0 1 1 4.525 2.902l-4.527-2.904.002.002ZM16.63 45.63a2.7 2.7 0 1 1-5.069-1.796l5.071 1.793-.002.002Z"/>
  <path fill="#7D5045" d="M15.793 17.881c-6.21-.325-11.794 4.494-12.984 9.646a10.101 10.101 0 0 0-.197 3.285l-.392 1.243a8.826 8.826 0 0 0-1.148 3.293c-.538 4.06 2.083 7.109 2.602 7.712 3.329 3.873 8.257 3.89 9.025 3.88l.432-1.65a14.45 14.45 0 0 0 .072-5.838 14.46 14.46 0 0 0-2.032-5.06l-1.091-.224c1.633.215 3.947.18 6.028-1.137 1.5-.95 3.52-2.97 3.136-4.381.948-.532 1.723-1.211 2.4-1.805a15.647 15.647 0 0 0 2.676-3.057l.61-1.076c-.69-.826-3.956-4.558-9.14-4.83h.003Z"/>
  <path stroke="#333" stroke-linecap="round" stroke-linejoin="round" stroke-width=".851" d="M24.39 30.582a1.89 1.89 0 0 1 .064 1.922c-.492.891-1.49.963-1.55.966m-2.816 5.468c.372.584.396 1.322.065 1.922-.492.89-1.49.962-1.55.965"/>
  <path stroke="#333" stroke-linecap="round" stroke-linejoin="round" stroke-width=".681" d="M20.067 31.723c-.05-.2-.164-.771.095-1.417a2.34 2.34 0 0 1 1.088-1.187m-4 8.071c-.19.075-.724.316-1.098.901a2.35 2.35 0 0 0-.336 1.575"/>
  <path stroke="#333" stroke-linecap="round" stroke-linejoin="round" stroke-width=".851" d="M3.364 55.989h67.275"/>
  <path fill="#66A9EB" d="M6.43 55.989c0-4.089 1.762-8.65 7.403-8.65h2.094c5.738 0 7.402 4.563 7.402 8.65"/>
  <path fill="#4562AC" d="M8.028 55.973c0-2.475 1.427-5.239 6.002-5.239h1.698c4.653 0 6.002 2.764 6.002 5.24" opacity=".2"/>
  <path fill="#333" d="m49.989 29.8 2.028.178S49.118 46.7 40.423 55.99h-.928s8.765-17.96 9.57-26.188h.922l.002-.001Z" opacity=".3"/>
  <path stroke="#333" stroke-linecap="round" stroke-linejoin="round" stroke-width=".851" d="M23.329 55.989c.444-3.66 1.53-10.945 4.083-17.654.723-1.904 1.713-4.145 3.712-6.353.822-.908 2.455-2.675 5.154-3.823 2.13-.906 3.93-.974 6.034-1.064 2.747-.12 4.942-.213 5.895.475 1.805 1.3 1.57 7.151-8.71 28.419M25.181 45.29a9.075 9.075 0 0 1-2.762 1.575c-4.044 1.412-8.02-.742-9.026-1.27M24.556 23.91c.98.498 5.08 2.504 6.278 6.61.113.387.2.788.258 1.203m-7.843 8.617c.259-.093 2.03-.76 2.704-2.64.44-1.232.173-2.314.053-2.713M8.34 33.812c1.183.33 4.723 1.146 7.768-.78 1.556-.984 3.67-3.12 3.085-4.536-.404-.975-1.977-1.32-3.055-1.224-1.429.128-2.842 1.114-2.72 1.664.132.587 2.056.788 3.566.53 2.088-.358 3.513-1.612 4.66-2.62a15.647 15.647 0 0 0 2.676-3.056"/>
  <path stroke="#333" stroke-linecap="round" stroke-linejoin="round" stroke-width=".851" d="M11.171 34.393a14.464 14.464 0 0 1 2.032 5.06 14.5 14.5 0 0 1-.072 5.84m11.191-21.505a2.7 2.7 0 1 1 4.526 2.902M2.611 30.812a10.103 10.103 0 0 1 .198-3.285c1.19-5.152 6.773-9.97 12.983-9.646 5.185.271 8.451 4.005 9.139 4.831M12.699 46.94c-.768.01-5.696-.006-9.025-3.88-.52-.605-3.14-3.653-2.602-7.712a8.826 8.826 0 0 1 1.148-3.293m22.17-1.473a1.89 1.89 0 0 1 .064 1.922c-.492.891-1.49.963-1.55.966m-2.816 5.468c.372.584.396 1.322.065 1.922-.492.89-1.49.962-1.55.965"/>
  <path stroke="#333" stroke-linecap="round" stroke-linejoin="round" stroke-width=".681" d="M20.067 31.723c-.05-.2-.164-.771.095-1.417a2.34 2.34 0 0 1 1.088-1.187m-4 8.071c-.19.075-.724.316-1.098.901a2.35 2.35 0 0 0-.336 1.575"/>
  <path stroke="#333" stroke-linecap="round" stroke-linejoin="round" stroke-width=".851" d="M49.07 29.8a38.52 38.52 0 0 1 21.57 6.887M3.364 55.989h67.275m-64.209 0c0-4.089 1.762-8.65 7.403-8.65h2.094c5.738 0 7.402 4.563 7.402 8.65"/>
  <path stroke="#4562AC" stroke-linecap="round" stroke-linejoin="round" stroke-width=".511" d="M29.283 14.725h1.897l-2.333 2.332h1.81"/>
  <path stroke="#4562AC" stroke-linecap="round" stroke-linejoin="round" stroke-width=".681" d="M25.561 8.661h2.53l-3.11 3.111h2.412"/>
  <path stroke="#4562AC" stroke-linecap="round" stroke-linejoin="round" stroke-width="1.192" d="M33.36 1.203h3.884L32.468 5.98h3.705"/>
</svg>
