<svg xmlns="http://www.w3.org/2000/svg" width="70" height="54" fill="none" viewBox="0 0 70 54">
  <path fill="#DFDDDD" d="M68.043 17.58c-2.018 5.588-8.038 12.135-15.613 10.757-7.446-1.355-11.81-9.532-10.758-15.614 1.705-9.85 17.784-15.134 24.176-9.826 3.898 3.234 3.843 10.122 2.195 14.682Z"/>
  <mask id="a" width="29" height="29" x="41" y="0" maskUnits="userSpaceOnUse" style="mask-type:luminance">
    <path fill="#fff" d="M68.043 17.58c-2.018 5.588-8.038 12.135-15.613 10.757-7.446-1.355-11.81-9.532-10.758-15.614 1.705-9.85 17.784-15.134 24.176-9.826 3.898 3.234 3.843 10.122 2.195 14.682Z"/>
  </mask>
  <g mask="url(#a)">
    <path fill="#F8BCBD" d="M82.447 13.255c-.175-2.273-1.415-4.633-3.133-6.116-1.714-1.478-4.458-2.476-6.74-2.174a9.885 9.885 0 0 0-4.735 1.943c-3.752-.48-7.173.336-10.392 2.324-2.656 1.644-4.577 4.184-6.148 6.817-1.614 2.706-2.372 6.004-2.222 9.144.182 3.757 2.139 7.375 4.971 9.802 2.425 2.077 5.185 3.203 8.195 4.1 2.888.86 6.36.773 9.164-.368 3.546-1.444 6.186-4.17 7.884-7.566.79-1.578 1.287-3.32 1.816-4.992.357-1.126.656-2.263.872-3.426.572-3.096.71-6.349.468-9.486v-.002Z"/>
  </g>
  <path stroke="#333" stroke-linecap="round" stroke-linejoin="round" stroke-width="1.589" d="M68.043 17.58c-2.018 5.588-8.038 12.135-15.613 10.757-7.446-1.355-11.81-9.532-10.758-15.614 1.705-9.85 17.784-15.134 24.176-9.826 3.898 3.234 3.843 10.122 2.195 14.682Z"/>
  <path fill="#DFDDDD" d="M2.517 17.579c2.018 5.589 8.038 12.136 15.613 10.758 7.446-1.355 11.81-9.532 10.758-15.614C27.183 2.873 11.104-2.41 4.714 2.894.817 6.13.871 13.016 2.52 17.577l-.002.002Z"/>
  <mask id="b" width="29" height="29" x="1" y="0" maskUnits="userSpaceOnUse" style="mask-type:luminance">
    <path fill="#fff" d="M2.517 17.579c2.018 5.589 8.038 12.136 15.613 10.758 7.446-1.355 11.81-9.532 10.758-15.614C27.183 2.873 11.104-2.41 4.714 2.894.817 6.13.871 13.016 2.52 17.577l-.002.002Z"/>
  </mask>
  <g mask="url(#b)">
    <path fill="#F8BCBD" d="M-11.887 13.255c.175-2.273 1.415-4.633 3.133-6.116 1.714-1.478 4.458-2.476 6.74-2.174A9.885 9.885 0 0 1 2.72 6.908c3.752-.48 7.173.336 10.392 2.324 2.656 1.644 4.576 4.184 6.147 6.817 1.614 2.706 2.372 6.004 2.223 9.144-.182 3.757-2.139 7.375-4.972 9.802-2.424 2.077-5.184 3.203-8.194 4.1-2.888.86-6.361.773-9.164-.368-3.546-1.444-6.186-4.17-7.884-7.566-.79-1.578-1.287-3.32-1.816-4.992a28.687 28.687 0 0 1-.872-3.426c-.572-3.098-.71-6.351-.468-9.488Z"/>
  </g>
  <path stroke="#333" stroke-linecap="round" stroke-linejoin="round" stroke-width="1.589" d="M2.517 17.579c2.018 5.589 8.038 12.136 15.613 10.758 7.446-1.355 11.81-9.532 10.758-15.614C27.183 2.873 11.104-2.41 4.714 2.894.817 6.13.871 13.016 2.52 17.577l-.002.002Z"/>
  <path fill="#DFDDDD" stroke="#333" stroke-linecap="round" stroke-linejoin="round" stroke-width="1.589" d="M58.366 27.41c0 10.188-10.335 24.95-23.086 24.95-12.75 0-23.086-14.762-23.086-24.95 0-10.187 10.335-18.448 23.086-18.448 12.75 0 23.086 8.26 23.086 18.448Z"/>
  <path fill="#ABA8A8" d="M35.28 48.728c4.45 0 8.056-3.054 8.056-6.821s-3.607-6.822-8.056-6.822c-4.45 0-8.056 3.054-8.056 6.822 0 3.767 3.607 6.821 8.056 6.821Z"/>
  <path stroke="#333" stroke-linecap="round" stroke-linejoin="round" stroke-width="1.589" d="m41.028 41.203 20-1.582m-19.624 4.688 19.977 1.87m-31.849-4.976L9.531 39.621m19.624 4.688L9.18 46.178"/>
  <path fill="#F8BCBD" d="M31.898 39.882c.404-1.126 2.474-1.36 3.561-1.305.368.018 2.695.138 3.185 1.47.502 1.365-1.083 3.567-2.946 3.76-2.252.234-4.302-2.534-3.8-3.927v.002Z"/>
  <path fill="#333" d="M25.444 35.086c1.44 0 2.606-1.47 2.606-3.283s-1.167-3.282-2.606-3.282c-1.44 0-2.606 1.47-2.606 3.282 0 1.813 1.167 3.283 2.606 3.283Zm19.666 0c1.438 0 2.605-1.47 2.605-3.283s-1.167-3.282-2.606-3.282c-1.44 0-2.606 1.47-2.606 3.282 0 1.813 1.167 3.283 2.606 3.283Z"/>
</svg>
