<svg xmlns="http://www.w3.org/2000/svg" width="73" height="32" fill="none" viewBox="0 0 73 32">
  <path fill="#F06061" d="M38.373 31.074H6.178C2.454 27.794.473 22.22 1.122 16.8c.727-6.08 4.44-9.279 5.058-9.791h32.194c-.791 2.325-1.884 6.348-1.954 11.52-.075 5.721 1.14 10.147 1.954 12.546l-.002-.002Z"/>
  <path fill="#FDF6ED" d="M36.134 28.43H7.185c-1.132-1.532-3.477-5.174-3.393-10.021 0 0 .087-5.126 3.392-8.756H36.13a33.582 33.582 0 0 0-1.325 9.815 33.498 33.498 0 0 0 1.325 8.962h.003Z"/>
  <mask id="a" width="34" height="20" x="3" y="9" maskUnits="userSpaceOnUse" style="mask-type:luminance">
    <path fill="#fff" d="M36.134 28.43H7.185c-1.132-1.532-3.477-5.174-3.393-10.021 0 0 .087-5.126 3.392-8.756H36.13a33.582 33.582 0 0 0-1.325 9.815 33.498 33.498 0 0 0 1.325 8.962h.003Z"/>
  </mask>
  <g mask="url(#a)">
    <path stroke="#ABA8A8" stroke-linecap="round" stroke-linejoin="round" stroke-width=".536" d="M1.852 10.848h34.282m-34.282 1.09h34.282M1.852 13.027h34.282M1.852 14.115h34.282M1.852 15.204h34.282m-34.282 1.09h34.282M1.852 17.382h34.282M1.852 18.471h34.282M1.852 19.56h34.282M1.852 20.648h34.282m-34.282 1.09h34.282m-34.282 1.09h34.282M1.852 23.915h34.282m-34.282 1.09h34.282M1.852 26.094h34.282M1.852 27.182h34.282"/>
  </g>
  <path stroke="#333" stroke-linecap="round" stroke-linejoin="round" stroke-width="1.1" d="M36.134 28.43H7.758c-.367 0-.712-.176-.925-.477-1.087-1.537-3.538-5.62-2.827-10.936.432-3.226 1.85-5.585 2.824-6.901.214-.291.552-.463.914-.463h28.39"/>
  <path stroke="#333" stroke-linecap="round" stroke-linejoin="round" stroke-width="1.1" d="M38.373 31.074H7.127a2.11 2.11 0 0 1-1.624-.766C3.897 28.37.38 23.278 1.336 16.588c.614-4.307 2.806-7.324 4.178-8.87.4-.45.973-.708 1.575-.708h31.284"/>
  <path fill="#F06061" d="M72.33 31.074H43.26c-.184-.14-1.225-.963-1.368-2.41-.184-1.85 1.268-3.023 1.368-3.1h29.07c-.18.714-.349 1.677-.341 2.822.007 1.082.167 1.998.34 2.688Z"/>
  <path stroke="#333" stroke-linecap="round" stroke-linejoin="round" stroke-width=".536" d="M72.33 31.074H44.042c-.61 0-1.183-.291-1.535-.788a3.373 3.373 0 0 1-.616-1.622c-.096-.966.256-1.748.625-2.286.352-.51.933-.814 1.552-.814h28.26"/>
  <path fill="#FDF6ED" d="M71.365 29.688H44.156c-.17 0-.33-.07-.447-.193a1.733 1.733 0 0 1-.47-1.006c-.06-.62.247-1.085.469-1.336a.612.612 0 0 1 .457-.205h27.199a7.772 7.772 0 0 0 0 2.738l.001.002Z"/>
  <mask id="b" width="29" height="4" x="43" y="26" maskUnits="userSpaceOnUse" style="mask-type:luminance">
    <path fill="#fff" d="M71.365 29.688H44.156c-.17 0-.33-.07-.447-.193a1.733 1.733 0 0 1-.47-1.006c-.06-.62.247-1.085.469-1.336a.612.612 0 0 1 .457-.205h27.199a7.772 7.772 0 0 0 0 2.738l.001.002Z"/>
  </mask>
  <g mask="url(#b)">
    <path stroke="#ABA8A8" stroke-linecap="round" stroke-linejoin="round" stroke-width=".179" d="M41.19 27.586h34.282m-34.282.489h34.282m-34.282.488h34.282m-34.282.489h34.282"/>
  </g>
  <path stroke="#333" stroke-linecap="round" stroke-linejoin="round" stroke-width=".536" d="M71.365 29.688H44.156c-.17 0-.33-.07-.447-.193a1.733 1.733 0 0 1-.47-1.006c-.06-.62.247-1.085.469-1.336a.61.61 0 0 1 .457-.203h27.199"/>
  <path fill="#A8D471" stroke="#333" stroke-miterlimit="10" stroke-width=".931" d="M61.95 11.404a1.512 1.512 0 0 0-2.14 0l-1.588 1.588V2.629a1.628 1.628 0 1 0-3.258 0v10.106l-1.38-1.381a1.512 1.512 0 1 0-2.14 2.14l4.206 4.208a1.51 1.51 0 0 0 2.14 0l4.157-4.16a1.513 1.513 0 0 0 0-2.14l.002.002Z"/>
</svg>
