<svg xmlns="http://www.w3.org/2000/svg" width="53" height="83" fill="none" viewBox="0 0 53 83">
  <path fill="#807D7C" d="M37.148 55.925c.301-.038 2.128-.289 3.241-1.906.99-1.437 1.025-3.388.096-4.997-.388.056-1.978.325-3.044 1.723-1.087 1.422-1.199 3.45-.293 5.18Z"/>
  <path fill="#DFDDDD" d="M19.252 33.791c-.898-7.042-.7-12.848-.326-16.906.854-9.333 2.816-11.616 3.863-12.611 3.345-3.181 7.907-3.252 9.296-3.272.977-.015 6.758-.01 10.718 3.96 1.694 1.698 3.654 4.732 3.62 15.925-.016 5.597-.534 13.52-2.826 22.967L19.253 33.791h-.002Z"/>
  <mask id="a" width="29" height="43" x="18" y="1" maskUnits="userSpaceOnUse" style="mask-type:luminance">
    <path fill="#fff" d="M19.252 33.791c-.898-7.042-.7-12.848-.326-16.906.854-9.333 2.816-11.616 3.863-12.611 3.345-3.181 7.907-3.252 9.296-3.272.977-.015 6.758-.01 10.718 3.96 1.694 1.698 3.654 4.732 3.62 15.925-.016 5.597-.534 13.52-2.826 22.967L19.253 33.791h-.002Z"/>
  </mask>
  <g mask="url(#a)">
    <path fill="#333" d="M46.944 27.807c.033-2.192 0-4.386-.08-6.576-.25-6.718-.01-15.012-6.902-18.57C36.166.7 31.86.704 27.697.955c-1.988.12-2.003 3.23 0 3.11 3.295-.199 6.752-.358 9.877.898 2.826 1.139 4.595 3.334 5.31 6.264.771 3.159.74 6.574.863 9.804.136 3.573.157 7.154-.036 10.727a84.915 84.915 0 0 1-.128 1.924 54.843 54.843 0 0 0-1.59 10.615c-.09 1.746 2.658 2.121 3.054.413.798-3.438 1.302-6.924 1.592-10.428a52.1 52.1 0 0 1 1.419-4.625c.354-.993-.307-1.688-1.114-1.851Z" opacity=".3"/>
    <path fill="#333" d="M19.753 8.189c-2.013 9.196-2.608 18.662-1.702 28.034.08.836.657 1.556 1.555 1.556.777 0 1.636-.714 1.555-1.556-.881-9.098-.365-18.276 1.59-27.21.428-1.95-2.57-2.784-2.998-.826v.002Z" opacity=".2"/>
  </g>
  <path fill="#DFDDDD" d="M1.655 52.486c.045 1.093.369 6.06 4.447 10 3.374 3.259 7.382 3.83 9.12 4.055 3.023.392 5.367-.118 6.853-.456 4.481-1.016 7.812-3.197 9.929-4.941 4.01-4.224 5.563-7.361 4.657-9.412-1.815-4.106-13.485-3.855-35.008.752l.002.002Z"/>
  <mask id="b" width="36" height="19" x="1" y="48" maskUnits="userSpaceOnUse" style="mask-type:luminance">
    <path fill="#fff" d="M1.655 52.486c.045 1.093.369 6.06 4.447 10 3.374 3.259 7.382 3.83 9.12 4.055 3.023.392 5.367-.118 6.853-.456 4.481-1.016 7.812-3.197 9.929-4.941 4.01-4.224 5.563-7.361 4.657-9.412-1.815-4.106-13.485-3.855-35.008.752l.002.002Z"/>
  </mask>
  <g mask="url(#b)">
    <path fill="#333" d="M.91 53.144c-.122 3.58 1.65 6.812 3.766 9.578 2.115 2.766 4.527 4.943 7.761 6.09 2.269.804 3.243-2.8.994-3.6-2.362-.838-4.235-2.687-5.732-4.639-1.648-2.148-3.15-4.636-3.054-7.43.08-2.403-3.652-2.398-3.733 0H.91Z" opacity=".3"/>
  </g>
  <path fill="#DFDDDD" d="M15.193 67.302c-.406.898-.974 2.184-1.613 3.751-1.478 3.623-1.613 4.512-1.489 5.408.274 1.987 1.715 3.293 1.958 3.513 3.969 3.593 12 .207 12.914-.178.917-.386 10.011-4.316 10.003-9.962-.004-3.081-2.716-3.832-2.432-7.473.166-2.132 1.231-2.795 2.297-6.683.49-1.781.724-3.293.846-4.317"/>
  <mask id="c" width="26" height="31" x="12" y="51" maskUnits="userSpaceOnUse" style="mask-type:luminance">
    <path fill="#fff" d="M15.193 67.302c-.406.898-.974 2.184-1.613 3.751-1.478 3.623-1.613 4.512-1.489 5.408.274 1.987 1.715 3.293 1.958 3.513 3.969 3.593 12 .207 12.914-.178.917-.386 10.011-4.316 10.003-9.962-.004-3.081-2.716-3.832-2.432-7.473.166-2.132 1.231-2.795 2.297-6.683.49-1.781.724-3.293.846-4.317"/>
  </mask>
  <g mask="url(#c)">
    <path fill="#333" d="M39.925 49.888c-.653-.39-1.796-.211-2.127.558-4.036 9.37-12.987 15.776-23.225 16.292-1.992.1-2.003 3.212 0 3.11a30.161 30.161 0 0 0 17.5-6.739c-2.665 3.063-4.496 6.742-7.099 9.85-2.753 3.289-6.892 6.188-11.334 4.52-1.876-.705-2.687 2.302-.827 2.999 1.414.53 2.913.692 4.396.558.164.607.657 1.105 1.45 1.076 6.245-.233 12.988-2.818 17.081-7.71 1.707-2.04 3.15-4.922 2.872-7.689.005-.02.013-.04.017-.06.41-1.677.543-3.703-.863-4.97a3.63 3.63 0 0 0-.29-.23c.647-.125 1.207-.614 1.192-1.468-.016-1.031-.282-2.095-1.148-2.692a28.807 28.807 0 0 0 2.965-5.273c.334-.778.224-1.659-.558-2.128l-.002-.004ZM26.611 75.793c.06-.066.116-.132.176-.199.023.023.045.044.07.065-.083.043-.163.089-.247.134Z" opacity=".3"/>
  </g>
  <path fill="#DFDDDD" d="M43.07 5.238c1.985.023 3.571.3 4.66.553 1.756.409 2.277.77 2.625 1.108.83.804 1.506 2.266.98 3.396-.3.647-.88.94-1.598 1.3-.645.326-1.833.797-3.513.766"/>
  <mask id="d" width="9" height="8" x="43" y="5" maskUnits="userSpaceOnUse" style="mask-type:luminance">
    <path fill="#fff" d="M43.07 5.238c1.985.023 3.571.3 4.66.553 1.756.409 2.277.77 2.625 1.108.83.804 1.506 2.266.98 3.396-.3.647-.88.94-1.598 1.3-.645.326-1.833.797-3.513.766"/>
  </mask>
  <g mask="url(#d)">
    <path fill="#333" d="M51.042 8.49c-.361.775-2.22 1.295-3.028 1.513-1.209.328-2.424.381-3.668.263-1.99-.19-1.978 2.92 0 3.11a12.47 12.47 0 0 0 5.15-.574c1.43-.483 3.555-1.294 4.229-2.745.84-1.804-1.842-3.384-2.686-1.57l.003.002Z" opacity=".3"/>
  </g>
  <path fill="#DFDDDD" d="M44.8 38.204a4.734 4.734 0 0 0 1.933-.164s1.505-.463 2.745-2.123c1.427-1.912 2.165-11.733 1.549-25.045l-4.601 1.862a115.585 115.585 0 0 1-1.624 25.472l-.002-.002Z"/>
  <mask id="e" width="8" height="29" x="44" y="10" maskUnits="userSpaceOnUse" style="mask-type:luminance">
    <path fill="#fff" d="M44.8 38.204a4.734 4.734 0 0 0 1.933-.164s1.505-.463 2.745-2.123c1.427-1.912 2.165-11.733 1.549-25.045l-4.601 1.862a115.585 115.585 0 0 1-1.624 25.472l-.002-.002Z"/>
  </mask>
  <g mask="url(#e)">
    <path fill="#333" d="M49.586 12.89c1.54 10.224-2.568 20.256-7.503 28.978-1.38 2.442 2.379 4.638 3.76 2.198 5.584-9.869 9.673-20.84 7.941-32.334-.176-1.163-1.642-1.806-2.678-1.52-1.245.343-1.697 1.512-1.52 2.68v-.003Z" opacity=".3"/>
  </g>
  <path fill="#DFDDDD" d="M21.333 33.432c-.885-6.617-.7-12.06-.352-15.836.657-7.164 2.052-9.988 3.054-11.257.263-.334.497-.558.686-.728 3.094-2.778 7.2-2.615 7.967-2.584.618.025 4.628.24 7.666 3.127 1.638 1.558 3.51 4.386 3.683 15.021.078 4.865-.193 11.706-1.792 19.886a54.419 54.419 0 0 0-20.908-7.629h-.004Z"/>
  <mask id="f" width="25" height="39" x="20" y="3" maskUnits="userSpaceOnUse" style="mask-type:luminance">
    <path fill="#fff" d="M21.333 33.432c-.885-6.617-.7-12.06-.352-15.836.657-7.164 2.052-9.988 3.054-11.257.263-.334.497-.558.686-.728 3.094-2.778 7.2-2.615 7.967-2.584.618.025 4.628.24 7.666 3.127 1.638 1.558 3.51 4.386 3.683 15.021.078 4.865-.193 11.706-1.792 19.886a54.419 54.419 0 0 0-20.908-7.629h-.004Z"/>
  </mask>
  <g mask="url(#f)">
    <path fill="#333" d="m44.263 37.837-.1.105a.016.016 0 0 1-.01-.004l.435-1.385c.185-.585-.03-1.13-.423-1.5.098-.38.178-.766.245-1.158.267-.442.359-.952.193-1.417.114-1.094.16-2.196.205-3.261.008-.208.014-.415.023-.624.211-.755.402-1.518.564-2.288a1.565 1.565 0 0 0-.508-1.553 127.12 127.12 0 0 0-.174-5.895 211.04 211.04 0 0 0-.409-6.053 47.411 47.411 0 0 0-.568-6.33c-.197-1.27-1.854-1.39-2.644-.662a3.792 3.792 0 0 0-.51-1.586c-1.532-2.536-6.071-2.631-6.422-1.77-.22.538 1.259 1.312 2.7 2.699 4.7 4.527 4.834 11.585 4.87 13.607.034 1.82.225 11.946-5.241 14.664-5.748 2.86-13.831-4.42-15.705-2.03-.905 1.153.087 3.975 1.497 5.56.868.976 1.855 1.42 2.538 1.73 1.654.755 3.458.963 5.235.73 1.782.768 3.499 1.772 5.43 2.072.314.05.625.075.932.087.577.494 1.427.62 2.005-.108l.081-.101a7.036 7.036 0 0 0 1.48-.558c.003 0 .007 0 .009.002l-.317 1.01c-.454 1.441 1.576 2.696 2.6 1.514.087-.1.172-.2.26-.299.51.158 1.088.077 1.507-.375.808-.877 1.62-1.752 2.428-2.63 1.356-1.468-.838-3.674-2.2-2.2l-.006.007Z" opacity=".1"/>
  </g>
  <path fill="#DFDDDD" d="M18.443 33.988c-1.566.452-2.644 1.174-3.243 1.586C6.329 41.684.38 45.778 1.052 50.597c.526 3.793 4.91 6.285 6.295 7.073 2.507 1.425 4.827 1.742 7.07 2.05 4.07.555 7.283.06 8.399-.14 5.945-1.06 9.43-3.86 15.763-8.95 3.32-2.666 5.128-4.632 4.83-6.666-.137-.941-.685-1.607-1.124-2.086-2.12-2.318-5.572-4.57-16.108-7.388-2.849-.763-5.105-1.265-7.736-.502h.002Z"/>
  <mask id="g" width="43" height="27" x="1" y="33" maskUnits="userSpaceOnUse" style="mask-type:luminance">
    <path fill="#fff" d="M18.443 33.988c-1.566.452-2.644 1.174-3.243 1.586C6.329 41.684.38 45.778 1.052 50.597c.526 3.793 4.91 6.285 6.295 7.073 2.507 1.425 4.827 1.742 7.07 2.05 4.07.555 7.283.06 8.399-.14 5.945-1.06 9.43-3.86 15.763-8.95 3.32-2.666 5.128-4.632 4.83-6.666-.137-.941-.685-1.607-1.124-2.086-2.12-2.318-5.572-4.57-16.108-7.388-2.849-.763-5.105-1.265-7.736-.502h.002Z"/>
  </mask>
  <g mask="url(#g)">
    <path fill="#333" d="M42.604 41.47c-1.665-2.879-5.194-4.693-8.116-6.026-6.511-2.972-13.922-3.652-20.518-.544-.321.152-.533.361-.66.598a28.714 28.714 0 0 0-4.076 1.497 1.108 1.108 0 0 0-.274.176 76.947 76.947 0 0 0-3.504.883 1.796 1.796 0 0 0-.543.258 1.368 1.368 0 0 0-.264.246 16.14 16.14 0 0 0-2.588 4.33c-.796-.35-1.828-.125-2.067.964-1.265 5.775.734 12.043 5.292 15.867.437.367 2.102-.18 2.662-1.188.226-.407.218-.807.216-.954-.046-2.306-5.114-5.113-5.717-7.836-.541-2.443 2.434-5.126 5.443-7.434 5.22-4.004 11.94-5.623 18.374-4.248.206.043.409.09.614.138 4.66 1.122 11.44 4.063 11.34 9.775-.016.948 1.016 1.848 1.968 1.5 3.36-1.228 4.112-5.08 2.422-8l-.004-.003Z" opacity=".3"/>
  </g>
  <path fill="#333" d="M26.098 41.227c-5.826-1.794-10.844.941-11.776 1.472-.692.394-6.867 3.992-6.208 7.289.69 3.465 8.734 5.605 15.063 3.838 4.379-1.221 9.652-4.794 9.16-8.035-.42-2.772-4.883-4.147-6.237-4.564h-.002Z" opacity=".2"/>
  <path fill="#333" d="M8.93 51.485c1.003-1.066 3.997-3.967 8.826-4.792 6.775-1.157 11.795 2.687 12.616 3.336-2.449 2.045-4.788 3.03-6.248 3.521-1.457.49-6.9 2.316-12.281-.211a13.611 13.611 0 0 1-2.912-1.854H8.93Z" opacity=".3"/>
  <path stroke="#333" stroke-linecap="round" stroke-linejoin="round" stroke-width="1.037" d="M18.443 33.988c-1.566.452-2.644 1.174-3.243 1.586C6.329 41.684.38 45.778 1.052 50.597c.526 3.793 4.91 6.285 6.295 7.073 2.507 1.425 4.827 1.742 7.07 2.05 4.07.555 7.283.06 8.399-.14 5.945-1.06 9.43-3.86 15.763-8.95 3.32-2.666 5.128-4.632 4.83-6.666-.137-.941-.685-1.607-1.124-2.086-2.12-2.318-5.572-4.57-16.108-7.388-2.849-.763-5.105-1.265-7.736-.502h.002Z"/>
  <path stroke="#333" stroke-linecap="round" stroke-linejoin="round" stroke-width="1.037" d="M19.252 33.791c-.898-7.042-.7-12.848-.326-16.906.854-9.333 2.816-11.616 3.863-12.611 3.345-3.181 7.907-3.252 9.296-3.272.977-.015 6.758-.01 10.718 3.96 1.694 1.698 3.654 4.732 3.62 15.925-.016 5.597-.534 13.52-2.826 22.967m-17.499-2.627c-5.826-1.794-10.844.941-11.776 1.472-.692.394-6.867 3.992-6.208 7.289.69 3.465 8.734 5.605 15.063 3.838 4.379-1.221 9.652-4.794 9.16-8.035-.42-2.772-4.883-4.147-6.237-4.564h-.002Z"/>
  <path stroke="#333" stroke-linecap="round" stroke-linejoin="round" stroke-width="1.037" d="M9.425 51.078c1.06-1.057 3.89-3.595 8.331-4.385 6.333-1.128 11.115 2.154 12.048 2.822M1.655 52.486c.046 1.093.37 6.06 4.448 10 3.374 3.259 7.382 3.83 9.12 4.055 3.023.392 5.366-.118 6.853-.456 4.48-1.016 7.811-3.197 9.928-4.941"/>
  <path stroke="#333" stroke-linecap="round" stroke-linejoin="round" stroke-width="1.037" d="M15.193 67.302c-.406.898-.974 2.184-1.613 3.751-1.478 3.623-1.613 4.512-1.489 5.408.274 1.987 1.715 3.293 1.958 3.513 3.969 3.593 12 .207 12.914-.178.917-.386 10.011-4.316 10.003-9.962-.004-3.081-2.716-3.832-2.432-7.473.166-2.132 1.231-2.795 2.297-6.683.49-1.781.724-3.293.846-4.317M43.07 5.238c1.985.023 3.571.3 4.66.553 1.756.409 2.277.77 2.625 1.108.83.804 1.506 2.266.98 3.396-.3.647-.88.94-1.598 1.3-.645.326-1.833.797-3.513.766M44.8 38.204a4.734 4.734 0 0 0 1.933-.164s1.505-.463 2.745-2.123c1.427-1.912 2.165-11.733 1.549-25.045M1.051 50.597A22.62 22.62 0 0 0 8.7 56.103c6.254 2.733 11.873 1.748 13.652 1.41 4.537-.86 7.544-2.81 10.714-4.865a44.702 44.702 0 0 0 9.941-8.804"/>
  <path stroke="#333" stroke-linecap="round" stroke-linejoin="round" stroke-width="1.037" d="M37.148 55.925c.3-.038 2.128-.289 3.241-1.906.99-1.437 1.025-3.388.096-4.997m-19.191-15.59c-.886-6.617-.7-12.06-.353-15.836.658-7.164 2.053-9.988 3.055-11.257.263-.334.498-.558.686-.728 3.094-2.778 7.2-2.615 7.965-2.584.618.025 4.628.24 7.666 3.127 1.638 1.558 3.51 4.386 3.682 15.021.08 4.865-.192 11.706-1.791 19.886"/>
</svg>
