<svg xmlns="http://www.w3.org/2000/svg" width="58" height="58" fill="none" viewBox="0 0 58 58">
  <path fill="#A8D471" stroke="#333" stroke-miterlimit="10" stroke-width="2" d="M29 57c15.464 0 28-12.536 28-28S44.464 1 29 1 1 13.536 1 29s12.536 28 28 28Z"/>
  <path fill="#fff" stroke="#333" stroke-miterlimit="10" stroke-width="2" d="M25.198 41.939a3.727 3.727 0 0 1-2.636-1.093l-8.094-8.094a3.727 3.727 0 1 1 5.27-5.27l5.24 5.238L38.06 17.372a3.727 3.727 0 1 1 5.673 4.834L28.035 40.629a3.725 3.725 0 0 1-2.839 1.31h.002Z"/>
</svg>
